<svg xmlns="http://www.w3.org/2000/svg" width="85" height="85" viewBox="0 0 85 85">
  <g id="img19" transform="translate(-494.711 -4482)">
    <rect id="Rectangle_454644" data-name="Rectangle 454644" width="85" height="85" transform="translate(494.711 4482)" fill="#a8b8ff"/>
    <rect id="Rectangle_454645" data-name="Rectangle 454645" width="65" height="65" transform="translate(504.711 4492)" fill="#e5eaff"/>
    <g id="Group_1186413" data-name="Group 1186413" transform="translate(515.904 4502.192)">
      <g id="Group_1186411" data-name="Group 1186411" transform="translate(0.645 0.624)">
        <path id="Path_1001062" data-name="Path 1001062" d="M93.971,34.224V11.7a4.2,4.2,0,0,0-4.2-4.2H58.9a4.434,4.434,0,0,0-2.225,3.835v33.7A4.434,4.434,0,0,0,58.9,48.867H89.773a4.2,4.2,0,0,0,4.2-4.2V37.005L93.63,36.8V34.436Z" transform="translate(-52.604 -7.5)" fill="#60b9fe"/>
        <g id="Group_1186407" data-name="Group 1186407">
          <path id="Path_1001063" data-name="Path 1001063" d="M11.874,44.754V11.613A4.369,4.369,0,0,1,14.808,7.5H11.951a4.2,4.2,0,0,0-4.2,4.2V44.669A4.223,4.223,0,0,0,7.8,45.3l.66.172L9.112,47.5l-.029.233a4.182,4.182,0,0,0,2.868,1.134h2.857a4.369,4.369,0,0,1-2.934-4.113Z" transform="translate(-7.753 -7.5)" fill="#1ca8ff"/>
        </g>
        <path id="Path_1001064" data-name="Path 1001064" d="M110.56,153.864l-.306.01a8.976,8.976,0,1,1-13.743-8.293l.121-.234-.457-1.845h-.149a11.936,11.936,0,0,0,5.349,21.48,11.812,11.812,0,0,0,11.331-8.737v-.293Z" transform="translate(-84.162 -132.182)" fill="#b5dcff"/>
        <g id="Group_1186408" data-name="Group 1186408" transform="translate(5.331 10.563)">
          <path id="Path_1001065" data-name="Path 1001065" d="M73.932,147.895A11.831,11.831,0,0,1,78.5,135.211l-.157-.632-.278-.167a11.812,11.812,0,0,0,6.418,22.2A11.831,11.831,0,0,1,73.932,147.895Z" transform="translate(-71.805 -134.413)" fill="#8bcaff"/>
        </g>
        <path id="Path_1001066" data-name="Path 1001066" d="M144.736,49.706a2.155,2.155,0,0,0-1.273-1.441,2.2,2.2,0,0,0,0,4A2.159,2.159,0,0,0,144.736,49.706Z" transform="translate(-130.995 -44.872)" fill="#dbedff"/>
        <path id="Path_1001067" data-name="Path 1001067" d="M123.643,49.07a2.159,2.159,0,0,1,1.224-2.539,2.158,2.158,0,1,0-.3,4.065,2.171,2.171,0,0,0,.3-.105A2.153,2.153,0,0,1,123.643,49.07Z" transform="translate(-112.352 -43.118)" fill="#b5dcff"/>
        <path id="Path_1001068" data-name="Path 1001068" d="M56.959,338.566v.485A4.521,4.521,0,0,0,57.5,341.2L94.23,331.36v-2.781Z" transform="translate(-52.863 -301.855)" fill="#dbedff"/>
        <g id="Group_1186409" data-name="Group 1186409" transform="translate(0.047 36.704)">
          <path id="Path_1001069" data-name="Path 1001069" d="M12.39,449.033v-.55l-4.074,1.092A4.188,4.188,0,0,0,9.6,452.012l3.328-.892A4.315,4.315,0,0,1,12.39,449.033Z" transform="translate(-8.316 -448.483)" fill="#b5dcff"/>
        </g>
        <path id="Path_1001070" data-name="Path 1001070" d="M192.572,200.531l.289.021,6.423,5.625,1.185-.03.012-.011a1.417,1.417,0,0,0-.034-2l-6.48-6.266a1.417,1.417,0,0,0-1.352-.35l-7.847,2.1-1.007-3.758-.281-.109-1.106.153,1.486,5.547a1.454,1.454,0,0,0,1.107,1.047l7.365-1.973A.439.439,0,0,1,192.572,200.531Z" transform="translate(-167.84 -180.083)" fill="#b5dcff"/>
        <path id="Path_1001071" data-name="Path 1001071" d="M164.972,194.817l-1.471-5.49-.747.1-.869-.846-.151.07,1.741,6.5a1.417,1.417,0,0,0,1.736,1l1.067-.286A1.417,1.417,0,0,1,164.972,194.817Z" transform="translate(-148.917 -173.512)" fill="#8bcaff"/>
        <path id="Path_1001072" data-name="Path 1001072" d="M312.3,254.592l-5.724-5.534a.441.441,0,0,0-.421-.109l-1.258.337a.441.441,0,0,1,.181.1l5.724,5.534a1.417,1.417,0,0,0,1.992-.023,1.409,1.409,0,0,1-.494-.31Z" transform="translate(-280.169 -228.838)" fill="#8bcaff"/>
        <path id="Path_1001073" data-name="Path 1001073" d="M173.931,110.155a1.417,1.417,0,0,0-1.736-1l-8.2,2.2-1.049-3.914a1.412,1.412,0,0,0-.7-.881,1.445,1.445,0,0,0-.583,1.568l1.444,5.39a1.436,1.436,0,0,0,.62.842l9.2-2.465A1.417,1.417,0,0,0,173.931,110.155Z" transform="translate(-148.809 -98.31)" fill="#dbedff"/>
        <g id="Group_1186410" data-name="Group 1186410" transform="translate(11.352 8.075)">
          <path id="Path_1001074" data-name="Path 1001074" d="M147.1,111.585l-1.415-5.283a1.418,1.418,0,0,1,.619-1.569,1.416,1.416,0,0,0-2.117,1.569l1.415,5.283a1.417,1.417,0,0,0,1.736,1l.459-.123A1.411,1.411,0,0,1,147.1,111.585Z" transform="translate(-144.143 -104.518)" fill="#b5dcff"/>
        </g>
      </g>
      <g id="Group_1186412" data-name="Group 1186412" transform="translate(0 0)">
        <path id="Path_1001075" data-name="Path 1001075" d="M4.822,42.615H19.851a.624.624,0,0,0,0-1.248H4.822A3.554,3.554,0,0,1,3.466,41.1l37.9-10.156v6.85a3.578,3.578,0,0,1-3.574,3.574H22.764a.624.624,0,1,0,0,1.248H37.793a4.828,4.828,0,0,0,4.822-4.822V16.679a.624.624,0,1,0-1.248,0V26.87L25.887,31.017a12.513,12.513,0,0,0,3.57-5.182l1.37,1.325a2.042,2.042,0,0,0,2.838-2.935h0l-6.48-6.266a2.052,2.052,0,0,0-1.947-.5L17.994,19.4l-.684-2.552,7.6-2.035a2.042,2.042,0,0,0-1.057-3.944l-7.6,2.035-.887-3.311a2.036,2.036,0,0,0-1.333-1.411,2.781,2.781,0,1,0-2.171.591,2.041,2.041,0,0,0-.44,1.876l.063.235a12.435,12.435,0,0,0,3.933,22.942l-14.17,3.8V4.822A3.578,3.578,0,0,1,4.822,1.249H37.793a3.578,3.578,0,0,1,3.574,3.574v8.943a.624.624,0,1,0,1.248,0V4.822A4.828,4.828,0,0,0,37.793,0H4.822A4.828,4.828,0,0,0,0,4.822V37.793a4.83,4.83,0,0,0,4.822,4.822ZM41.367,28.162v1.488L2.147,40.159a3.586,3.586,0,0,1-.734-1.292ZM16.949,20.321a.624.624,0,0,0,.765.441l7.847-2.1a.8.8,0,0,1,.757.2l6.48,6.266h0a.793.793,0,1,1-1.1,1.14l-5.9-5.708a.624.624,0,0,0-.6-.154l-8.441,2.262a.794.794,0,0,1-.971-.561l-1.253-4.678a2.072,2.072,0,0,0,.807-.052l.766-.205Zm-2.371,2.1a2.044,2.044,0,0,0,2.5,1.444l8.1-2.17.887.858A8.352,8.352,0,1,1,12.6,15.05l1.976,7.374Zm.631-8.6a.624.624,0,0,0,.765.441l8.2-2.2a.793.793,0,1,1,.411,1.532l-9.568,2.564a.793.793,0,0,1-.971-.561l-1.416-5.283a.793.793,0,0,1,1.532-.411ZM10.8,6.414A1.534,1.534,0,1,1,12.677,7.5,1.534,1.534,0,0,1,10.8,6.414ZM6.962,24.508a11.289,11.289,0,0,1,4.859-12.372l.433,1.616a9.6,9.6,0,1,0,14.9,9.858l1.308,1.264a11.184,11.184,0,0,1-21.5-.367Z" transform="translate(0 0)"/>
      </g>
    </g>
  </g>
</svg>
