<svg xmlns="http://www.w3.org/2000/svg" width="88" height="88" viewBox="0 0 88 88">
  <g id="img14" transform="translate(-494.711 -4481.977)">
    <rect id="Rectangle_454644" data-name="Rectangle 454644" width="88" height="88" transform="translate(494.711 4481.977)" fill="#a8b8ff"/>
    <rect id="Rectangle_454645" data-name="Rectangle 454645" width="68" height="68" transform="translate(504.711 4491.977)" fill="#e5eaff"/>
    <g id="Group_1183710" data-name="Group 1183710" transform="translate(513.282 4500.571)">
      <g id="Group_1183708" data-name="Group 1183708" transform="translate(0.77 0.745)">
        <path id="Path_999645" data-name="Path 999645" d="M56.182,140.355,8.058,168.139a.611.611,0,0,0-.305.529v.736a.611.611,0,0,0,.916.529l48.123-27.784a.611.611,0,0,0,.305-.529v-.736A.611.611,0,0,0,56.182,140.355Z" transform="translate(-7.753 -127.09)" fill="#9790cc"/>
        <path id="Path_999646" data-name="Path 999646" d="M56.182,123.1,8.058,150.889a.611.611,0,0,0-.305.529v1.911a.611.611,0,0,1,.305-.529l48.123-27.784a.611.611,0,0,1,.916.529v-1.911A.611.611,0,0,0,56.182,123.1Z" transform="translate(-7.753 -111.552)" fill="#8479c2"/>
        <path id="Path_999647" data-name="Path 999647" d="M91.086,310.04H66.417a.63.63,0,0,0-.63.63v1.552a.63.63,0,0,0,.63.63H91.086a.63.63,0,0,0,.63-.63V310.67A.63.63,0,0,0,91.086,310.04Z" transform="translate(-60.025 -280.002)" fill="#ffc365"/>
        <path id="Path_999648" data-name="Path 999648" d="M13.613,312.221v-1.552a.63.63,0,0,1,.63-.63H8.382a.63.63,0,0,0-.63.63v1.552a.63.63,0,0,0,.63.63h5.861A.63.63,0,0,1,13.613,312.221Z" transform="translate(-7.752 -280.001)" fill="#ffa90f"/>
        <path id="Path_999649" data-name="Path 999649" d="M195.13,286.1h-2.776a.529.529,0,0,0-.223.431v3.276a.53.53,0,0,1-.53.53h-2.274a.527.527,0,0,1-.307.1h-3.705a.529.529,0,0,0-.223.431v3.276a.53.53,0,0,1-.53.53h-2.274a.526.526,0,0,1-.307.1h-3.705a.529.529,0,0,0-.223.431v3.276a.53.53,0,0,1-.53.53h-2.274a.526.526,0,0,1-.307.1h-3.705a.529.529,0,0,0-.223.431v3.276a.53.53,0,0,1-.53.53H168.2a.526.526,0,0,1-.307.1h-3.705a.529.529,0,0,0-.223.431v3.276a.53.53,0,0,0,.53.53h-2.78a.529.529,0,0,1-.13-.018.525.525,0,0,0,.329.117H195.13a.53.53,0,0,0,.53-.53V286.635A.531.531,0,0,0,195.13,286.1Z" transform="translate(-146.315 -258.444)" fill="#8479c2"/>
        <g id="Group_1183705" data-name="Group 1183705" transform="translate(15.072 27.661)">
          <path id="Path_999650" data-name="Path 999650" d="M441.167,289.912v-3.276a.53.53,0,0,1,.53-.53h-2.78a.531.531,0,0,0-.531.53v3.276a.53.53,0,0,1-.53.53h2.78A.531.531,0,0,0,441.167,289.912Z" transform="translate(-410.226 -286.106)" fill="#6e60b8"/>
          <path id="Path_999651" data-name="Path 999651" d="M370.257,333.591v-3.276a.53.53,0,0,1,.53-.53h-2.78a.53.53,0,0,0-.53.53v3.276a.531.531,0,0,1-.53.53h2.78A.531.531,0,0,0,370.257,333.591Z" transform="translate(-346.357 -325.448)" fill="#6e60b8"/>
          <path id="Path_999652" data-name="Path 999652" d="M228.436,420.949v-3.276a.53.53,0,0,1,.53-.53h-2.78a.53.53,0,0,0-.53.53v3.276a.53.53,0,0,1-.53.531h2.78A.53.53,0,0,0,228.436,420.949Z" transform="translate(-218.616 -404.133)" fill="#6e60b8"/>
          <path id="Path_999653" data-name="Path 999653" d="M162.339,464.629v-3.276a.53.53,0,0,1,.53-.53h-2.78a.53.53,0,0,0-.53.53v3.276a.53.53,0,0,0,.53.53h2.78A.531.531,0,0,1,162.339,464.629Z" transform="translate(-159.559 -443.476)" fill="#6e60b8"/>
          <path id="Path_999654" data-name="Path 999654" d="M299.346,377.27v-3.276a.53.53,0,0,1,.53-.53H297.1a.53.53,0,0,0-.53.53v3.276a.53.53,0,0,1-.53.53h2.78A.53.53,0,0,0,299.346,377.27Z" transform="translate(-282.486 -364.791)" fill="#6e60b8"/>
        </g>
        <g id="Group_1183707" data-name="Group 1183707" transform="translate(0)">
          <path id="Path_999655" data-name="Path 999655" d="M127.507,36.315v8.8l1.551.48.213-.077v-8.2a1.471,1.471,0,0,0-1.413-1.465Z" transform="translate(-115.617 -33.036)" fill="#9790cc"/>
          <path id="Path_999656" data-name="Path 999656" d="M116.424,35.825l-.055,0H114.82l-.008.554V44.7l1.612.5Z" transform="translate(-104.183 -33.01)" fill="#8479c2"/>
          <path id="Path_999657" data-name="Path 999657" d="M154.079,134.979l.415-.323v-.349a1.128,1.128,0,0,0-1.125-1.125h-8.093v.531l1.053,1.029Z" transform="translate(-131.622 -120.705)" fill="#9790cc"/>
          <path id="Path_999658" data-name="Path 999658" d="M155,148.026l1.83,1.787h6.2l.225-.244v-1.543Z" transform="translate(-140.378 -134.074)" fill="#8479c2"/>
          <path id="Path_999659" data-name="Path 999659" d="M68.72,9.152a1.972,1.972,0,0,1,1.972,1.972v8.227h1.423l.181-.34V11.087A3.591,3.591,0,0,0,68.709,7.5h-.886l-.316.288V9.152Z" transform="translate(-61.574 -7.5)" fill="#dbedff"/>
          <path id="Path_999660" data-name="Path 999660" d="M68.709,23.5a.776.776,0,0,1,.775.775V32.2l.248.34h1.158V24.111a1.972,1.972,0,0,0-1.972-1.972H67.507v.969l.316.389h.886Z" transform="translate(-61.574 -20.686)" fill="#b5dcff"/>
          <path id="Path_999661" data-name="Path 999661" d="M31.306,9.152V7.5H28.37a1.4,1.4,0,0,0-1.383,1.652Z" transform="translate(-25.057 -7.5)" fill="#9790cc"/>
          <path id="Path_999662" data-name="Path 999662" d="M31.327,22.138H26.988a1.4,1.4,0,0,0,1.4,1.359h2.936V22.138Z" transform="translate(-25.078 -20.685)" fill="#8479c2"/>
          <path id="Path_999663" data-name="Path 999663" d="M182.754,163.418a1.08,1.08,0,0,1,1.025.739l2.237,6.733,1.086-.085.445-.194-2.125-7.173a2.632,2.632,0,0,0-2.481-1.74h-5.017v.33l.515,1.39Z" transform="translate(-161.029 -146.389)" fill="#dbedff"/>
          <path id="Path_999664" data-name="Path 999664" d="M182.755,178.069l.54.248h3.355a.213.213,0,0,1,.2.152l1.818,6.138.42.164,1.185-.093-2.3-6.912a1.08,1.08,0,0,0-1.025-.739h-4.588Z" transform="translate(-165.032 -160.196)" fill="#b5dcff"/>
          <path id="Path_999665" data-name="Path 999665" d="M276.87,255.036H280.9a1.4,1.4,0,0,0-1.39-1.6h-3.5l-.172.4.877.8Z" transform="translate(-249.222 -229.014)" fill="#dbedff"/>
          <path id="Path_999666" data-name="Path 999666" d="M285.992,269h2.178a1.406,1.406,0,0,0,1.406-1.406h-4.119Z" transform="translate(-257.886 -241.769)" fill="#b5dcff"/>
          <path id="Path_999667" data-name="Path 999667" d="M255.455,250.259a3.226,3.226,0,0,0,0,5.782,3.044,3.044,0,0,0,0-5.782Z" transform="translate(-229.245 -226.157)" fill="#6e60b8"/>
          <path id="Path_999668" data-name="Path 999668" d="M233.769,251.755a3.045,3.045,0,0,1,1.886-2.816,3.045,3.045,0,1,0,0,5.631A3.045,3.045,0,0,1,233.769,251.755Z" transform="translate(-209.241 -224.761)" fill="#6353b2"/>
          <path id="Path_999669" data-name="Path 999669" d="M97.758,197.195a2.093,2.093,0,0,0,0,3.775,2.009,2.009,0,0,0,0-3.775Z" transform="translate(-87.751 -178.361)" fill="#6e60b8"/>
          <path id="Path_999670" data-name="Path 999670" d="M82.89,197.956a2.012,2.012,0,0,1,1.23-1.854,2.012,2.012,0,1,0,0,3.708A2.012,2.012,0,0,1,82.89,197.956Z" transform="translate(-74.021 -177.234)" fill="#6353b2"/>
          <path id="Path_999671" data-name="Path 999671" d="M31.8,122.371h-.04a9.5,9.5,0,0,0,0,18.632h.04a9.316,9.316,0,1,0,0-18.633Zm0,15.831a6.515,6.515,0,1,1,6.515-6.515A6.522,6.522,0,0,1,31.8,138.2Z" transform="translate(-22.482 -110.966)" fill="#ff76aa"/>
          <g id="Group_1183706" data-name="Group 1183706" transform="translate(0 11.405)">
            <path id="Path_999672" data-name="Path 999672" d="M9.54,131.686a9.329,9.329,0,0,1,8.423-9.273c-.294-.028-.592-.043-.894-.043a9.316,9.316,0,0,0,0,18.633c.3,0,.6-.015.894-.043A9.329,9.329,0,0,1,9.54,131.686Z" transform="translate(-7.753 -122.37)" fill="#ff5595"/>
          </g>
        </g>
      </g>
      <g id="Group_1183709" data-name="Group 1183709" transform="translate(0 0)">
        <path id="Path_999673" data-name="Path 999673" d="M35.476,143.086a7.26,7.26,0,1,0,7.26,7.26A7.268,7.268,0,0,0,35.476,143.086Zm4.586,10.756-2.171-2.171a2.736,2.736,0,0,0,.248-.618H41.2A5.74,5.74,0,0,1,40.062,153.842ZM29.75,151.054h3.062a2.736,2.736,0,0,0,.248.618l-2.171,2.171a5.74,5.74,0,0,1-1.139-2.789Zm1.171-4.245,2.165,2.165a2.735,2.735,0,0,0-.254.591H29.76A5.741,5.741,0,0,1,30.922,146.808Zm4.554,4.8a1.267,1.267,0,1,1,1.267-1.267A1.269,1.269,0,0,1,35.476,151.613ZM36.8,147.93a2.738,2.738,0,0,0-.581-.238v-3.067a5.74,5.74,0,0,1,2.752,1.135Zm-2.07-.238a2.741,2.741,0,0,0-.581.238l-2.171-2.171a5.739,5.739,0,0,1,2.752-1.134v3.067Zm-.628,5.042a2.74,2.74,0,0,0,.628.265v3.067a5.74,5.74,0,0,1-2.793-1.167ZM36.22,153a2.739,2.739,0,0,0,.628-.265l2.165,2.165a5.741,5.741,0,0,1-2.793,1.167Zm1.9-3.435a2.743,2.743,0,0,0-.254-.591l2.165-2.165a5.742,5.742,0,0,1,1.162,2.756Z" transform="translate(-25.415 -128.88)"/>
        <path id="Path_999674" data-name="Path 999674" d="M254.506,271.875h-.149a.745.745,0,1,0,0,1.489h.149a.745.745,0,1,0,0-1.489Z" transform="translate(-228.433 -244.882)"/>
        <path id="Path_999675" data-name="Path 999675" d="M48.8,11.652,27.7,23.833l-1.852-6.249a3.183,3.183,0,0,0-1.49-1.807V14.348a1.871,1.871,0,0,0-1.869-1.869H21.346v-1.42A2.666,2.666,0,0,0,18.683,8.4h-3.54V5.024a2.215,2.215,0,0,0-2.212-2.212h-1A4.339,4.339,0,0,0,7.88,0H4.058a2.151,2.151,0,0,0,0,4.3H7.88a.032.032,0,0,1,.031.031v7.3A10.059,10.059,0,0,0,4.8,30.038H1.375A1.376,1.376,0,0,0,0,31.412v1.552a1.376,1.376,0,0,0,1.375,1.375H9.506l-8.829,5.1A1.359,1.359,0,0,0,0,40.61v2.449a1.355,1.355,0,0,0,2.033,1.174l17.136-9.894h3.785a.745.745,0,0,0,0-1.489H1.489V31.527h30.2V32.85H26.429a.745.745,0,0,0,0,1.489h5.376a1.376,1.376,0,0,0,1.375-1.375V31.412a1.376,1.376,0,0,0-1.375-1.375h-2.8a3.775,3.775,0,0,0,.651-1.319H31.03a2.152,2.152,0,0,0,2.128-2.456l17-9.814a1.359,1.359,0,0,0,.678-1.174V12.826A1.355,1.355,0,0,0,48.8,11.652ZM16.191,34.339l-14.7,8.488v-2.14l11-6.348h3.706Zm9.994-10.386a3.874,3.874,0,0,0-1.329.172l-1.621-5.47a.745.745,0,0,0-.714-.533H19.55a10.126,10.126,0,0,0-.577-1.323h3.684a1.906,1.906,0,0,1,1.767,1.207ZM12.212,11.636V9.884h1.442v2.184A10.118,10.118,0,0,0,12.212,11.636Zm5.8,3.673a10.259,10.259,0,0,0-1.252-1.342h3.1V15.31Zm4.479-1.342a.385.385,0,0,1,.38.38v.969h-.029c-.062,0-.124-.006-.187-.006h-1.31V13.968h1.146ZM18.683,9.884a1.175,1.175,0,0,1,1.174,1.174v1.42H15.143V9.884ZM12.212,4.3h.719a.724.724,0,0,1,.723.723V8.4H12.212V4.332c0-.01,0-.02,0-.031ZM4.058,2.812a.661.661,0,1,1,0-1.323H6.249V2.812ZM9.4,11.427V4.332a1.522,1.522,0,0,0-1.52-1.52H7.738V1.489H7.88a2.847,2.847,0,0,1,2.843,2.843v7.095A10.154,10.154,0,0,0,9.4,11.427ZM1.489,21.466a8.572,8.572,0,1,1,8.572,8.572A8.58,8.58,0,0,1,1.489,21.466Zm18.633,0a10.085,10.085,0,0,0-.172-1.855h2.016l1.559,5.261a3.791,3.791,0,0,0-1.234,2.086l-5.334,3.08H15.323a10.063,10.063,0,0,0,4.8-8.572Zm-.187,8.572,2.389-1.379a3.8,3.8,0,0,0,.665,1.379ZM23.7,27.692A2.3,2.3,0,1,1,26,30.038,2.3,2.3,0,0,1,23.7,27.692Zm7.329-.463H29.754a3.831,3.831,0,0,0-.436-1.323h1.711a.661.661,0,0,1,0,1.323ZM49.345,15.2l-16.9,9.755a2.164,2.164,0,0,0-1.42-.535H29.67L49.345,13.058Z" transform="translate(0 0)"/>
        <path id="Path_999676" data-name="Path 999676" d="M186.294,278.605h-5.051a1.277,1.277,0,0,0-1.275,1.275v3.062H174.2a1.277,1.277,0,0,0-1.275,1.275v3.062h-5.765a1.277,1.277,0,0,0-1.275,1.275v3.062h-5.765a1.277,1.277,0,0,0-1.275,1.275v3.062h-5.765a1.277,1.277,0,0,0-1.275,1.275V300.5a1.277,1.277,0,0,0,1.275,1.275h33.212a1.277,1.277,0,0,0,1.275-1.275v-7.939a.745.745,0,0,0-1.489,0v7.725H153.3v-2.848h5.765a1.277,1.277,0,0,0,1.275-1.275V293.1H166.1a1.277,1.277,0,0,0,1.275-1.275v-3.062h5.765a1.277,1.277,0,0,0,1.275-1.275v-3.062h5.765a1.277,1.277,0,0,0,1.275-1.275v-3.062h4.622v8.995a.745.745,0,0,0,1.489,0V279.88a1.277,1.277,0,0,0-1.275-1.275Z" transform="translate(-136.735 -250.944)"/>
      </g>
    </g>
  </g>
</svg>
