<svg xmlns="http://www.w3.org/2000/svg" width="145" height="145" viewBox="0 0 145 145">
  <g id="img22" transform="translate(-199.711 -947)">
    <rect id="Rectangle_455042" data-name="Rectangle 455042" width="145" height="145" rx="10" transform="translate(199.711 947)" fill="#a8b8ff"/>
    <rect id="Rectangle_455268" data-name="Rectangle 455268" width="107" height="107" rx="10" transform="translate(218.711 967)" fill="#e5eaff"/>
    <g id="_06-Blind" data-name="06-Blind" transform="translate(236.232 983.521)">
      <path id="Path_1001261" data-name="Path 1001261" d="M31.7,1V18.1L26,23.8h5.7v4.56H68.179V1Z" transform="translate(3.639 0.14)" fill="#fff2e2"/>
      <path id="Path_1001262" data-name="Path 1001262" d="M34.42,1H31V18.1l3.42-3.42Z" transform="translate(4.339 0.14)" fill="#ffdaaa"/>
      <path id="Path_1001263" data-name="Path 1001263" d="M35.12,22.56V18h-5.7L26,21.42h5.7v4.56H68.179V22.56Z" transform="translate(3.639 2.519)" fill="#ffdaaa"/>
      <ellipse id="Ellipse_13652" data-name="Ellipse 13652" cx="2" cy="2.5" rx="2" ry="2.5" transform="translate(51.479 12.479)" fill="#7e8596"/>
      <path id="Path_1001264" data-name="Path 1001264" d="M47.84,7A6.84,6.84,0,1,1,41,13.84,6.84,6.84,0,0,1,47.84,7Zm2.28,6.84a2.28,2.28,0,1,0-2.28,2.28,2.28,2.28,0,0,0,2.28-2.28Z" transform="translate(5.739 0.98)" fill="#19cffc"/>
      <path id="Path_1001265" data-name="Path 1001265" d="M48.54,7a6.84,6.84,0,0,0,0,13.68C40.56,20.68,36,13.84,36,13.84S40.56,7,48.54,7Z" transform="translate(5.039 0.98)" fill="#f2f6fc"/>
      <path id="Path_1001266" data-name="Path 1001266" d="M47,7c7.98,0,12.54,6.84,12.54,6.84S54.98,20.68,47,20.68A6.84,6.84,0,1,0,47,7Z" transform="translate(6.579 0.98)" fill="#f2f6fc"/>
      <path id="Path_1001267" data-name="Path 1001267" d="M40.56,55v9.12H37.14L36,55Z" transform="translate(5.039 7.698)" fill="#ffb13b"/>
      <path id="Path_1001268" data-name="Path 1001268" d="M55.42,55l1.14,9.12H53.14L52,55Z" transform="translate(7.278 7.698)" fill="#ffb13b"/>
      <path id="Path_1001269" data-name="Path 1001269" d="M67.619,40.7v4.56l-5.7,1.14L58.5,57.8h-3.42l-3.42,9.12H47.1l3.42-9.12H36.84l-3.42,9.12H30l1.14-9.12V49.82l2.28-2.28h15.96l4.56-5.7V35l3.42,3.42h4.56L64.2,40.7Z" transform="translate(4.199 4.899)" fill="#ffe45c"/>
      <g id="Group_1187121" data-name="Group 1187121" transform="translate(35.339 39.899)">
        <path id="Path_1001270" data-name="Path 1001270" d="M62.12,40v4.56l-5.7,1.14L53,57.1h2.28L58.7,45.7l5.7-1.14V40Z" transform="translate(-27.921 -34.3)" fill="#fff8ab"/>
        <path id="Path_1001271" data-name="Path 1001271" d="M47,64.12h2.28L52.7,55H50.42Z" transform="translate(-28.76 -32.201)" fill="#fff8ab"/>
        <path id="Path_1001272" data-name="Path 1001272" d="M31,64.12h2.28L36.7,55H34.42Z" transform="translate(-31 -32.201)" fill="#fff8ab"/>
        <path id="Path_1001273" data-name="Path 1001273" d="M49.24,48.98l4.56-5.7V41l-4.56,5.7H33.28L31,48.98v2.28l2.28-2.28Z" transform="translate(-31 -34.16)" fill="#fff8ab"/>
        <path id="Path_1001274" data-name="Path 1001274" d="M61.26,40.7l-2.28-2.28H54.42L51,35v2.28l3.42,3.42h4.56l2.28,2.28h3.42V40.7Z" transform="translate(-28.201 -35)" fill="#fff8ab"/>
      </g>
      <path id="Path_1001275" data-name="Path 1001275" d="M8.98,59.42l3.42,4.56H5.56L1,59.42,4.42,56Z" transform="translate(0.14 7.838)" fill="#ffdaaa"/>
      <path id="Path_1001276" data-name="Path 1001276" d="M28.4,63.56H17V59h5.7Z" transform="translate(2.379 8.258)" fill="#ffdaaa"/>
      <path id="Path_1001277" data-name="Path 1001277" d="M16.437,48.255,15.4,55.54l-6.84,5.7L4,57.82l4.56-5.7V43Z" transform="translate(0.56 6.019)" fill="#bec3d2"/>
      <path id="Path_1001278" data-name="Path 1001278" d="M8.221,43v2.281l4.457,2.974L11.641,55.54l-5.22,4.35,1.8,1.35,6.84-5.7L16.1,48.255Z" transform="translate(0.899 6.019)" fill="#e9edf5"/>
      <path id="Path_1001279" data-name="Path 1001279" d="M16.157,49.235,8.28,43.98,6,36h5.324l2.656,3.42L18.54,36h3.42l3.42,12.54-1.14,13.68h-5.7V50.82Z" transform="translate(0.84 5.039)" fill="#e9edf5"/>
      <path id="Path_1001280" data-name="Path 1001280" d="M20.25,60.509V49.11l-2.383-1.585L9.99,42.27,8.2,36H6l2.28,7.98,7.877,5.255L18.54,50.82v11.4h5.7l.142-1.71Z" transform="translate(0.84 5.039)" fill="#bec3d2"/>
      <path id="Path_1001281" data-name="Path 1001281" d="M26.1,29.4l2.736,4.1-3.42,3.42L22,33.5Z" transform="translate(3.079 4.115)" fill="#ffdaaa"/>
      <path id="Path_1001282" data-name="Path 1001282" d="M10.01,35.288l5.7-2.28.1-.068,2.177,3.488-4.56,3.42-2.656-3.42L9.93,35.345Z" transform="translate(1.39 4.611)" fill="#ffdaaa"/>
      <path id="Path_1001283" data-name="Path 1001283" d="M11.324,36.84H6V30l4.48,5.757Z" transform="translate(0.84 4.199)" fill="#a934c4"/>
      <path id="Path_1001284" data-name="Path 1001284" d="M20,21l6.384,9.576-4.1,4.1L20,32.4Z" transform="translate(2.799 2.939)" fill="#a934c4"/>
      <path id="Path_1001285" data-name="Path 1001285" d="M16.362,35.031l-.1.068-5.7,2.28-.08.057L6,31.68V20.28A2.287,2.287,0,0,1,8.28,18h11.4a2.287,2.287,0,0,1,2.28,2.28v18.24H18.54Z" transform="translate(0.84 2.519)" fill="#de78f0"/>
      <path id="Path_1001286" data-name="Path 1001286" d="M19.68,18H8.28A2.287,2.287,0,0,0,6,20.28H17.4a2.287,2.287,0,0,1,2.28,2.28v15.96h2.28V20.28A2.287,2.287,0,0,0,19.68,18Z" transform="translate(0.84 2.519)" fill="#ebccff"/>
      <path id="Path_1001287" data-name="Path 1001287" d="M13.7,13.54H8V3.28A2.287,2.287,0,0,1,10.28,1H19.4a2.287,2.287,0,0,1,2.28,2.28V16.96H17.12Z" transform="translate(1.12 0.14)" fill="#ffdaaa"/>
      <path id="Path_1001288" data-name="Path 1001288" d="M19.4,1H10.28A2.287,2.287,0,0,0,8,3.28v.57h8.55a2.287,2.287,0,0,1,2.28,2.28V16.96h2.85V3.28A2.287,2.287,0,0,0,19.4,1Z" transform="translate(1.12 0.14)" fill="#fff2e2"/>
      <path id="Path_1001289" data-name="Path 1001289" d="M16.98,15.42v3.42H9V12h4.56Z" transform="translate(1.26 1.68)" fill="#ffb680"/>
      <path id="Path_1001290" data-name="Path 1001290" d="M71.818,44.459H68.87l-1.946-1.946a1.14,1.14,0,0,0-.806-.334H62.03l-3.086-3.086A1.14,1.14,0,0,0,57,39.9v6.44l-1.229,1.54c-16.134-.041-22.808-10.737-22.875-10.846h-.007c-.009-.015-.01-.033-.021-.048L23.939,23.6v-.8a3.42,3.42,0,0,0-3.42-3.42h-1.14V18.24H22.8a1.14,1.14,0,0,0,1.14-1.14V3.42A3.42,3.42,0,0,0,20.519,0H11.4A3.42,3.42,0,0,0,7.98,3.42V13.68a1.14,1.14,0,0,0,1.14,1.14v4.56A3.42,3.42,0,0,0,5.7,22.8v18.24a1.072,1.072,0,0,0,.063.308H5.744L7.98,49.178v8.56l-4.27,5.338L.334,66.452a1.14,1.14,0,0,0,0,1.612l4.56,4.56a1.14,1.14,0,0,0,.806.334h6.84a1.14,1.14,0,0,0,.912-1.824l-2.77-3.693,6.008-5.007a1.14,1.14,0,0,0,.4-.714l.784-5.5.367.244v15.35a1.14,1.14,0,0,0,1.14,1.14h11.4a1.14,1.14,0,0,0,.712-2.03l-5.226-4.18,1.093-13.074a1.153,1.153,0,0,0-.036-.394L23.939,40.886v-2.8l3.754,3.754a1.14,1.14,0,0,0,1.612,0l2.461-2.461c2.217,2.892,9.026,10.093,22.213,10.728L53.031,51.3H37.619a1.14,1.14,0,0,0-.806.334l-1.946,1.946H30.779v2.28H34.2v6.769l-1.131,9.049A1.14,1.14,0,0,0,34.2,72.958h3.42a1.14,1.14,0,0,0,1.068-.74l1.794-4.788.57,4.529a1.14,1.14,0,0,0,1.127,1H45.6a1.14,1.14,0,0,0,1.14-1.14v-7.98h6.335l-2.843,7.58a1.14,1.14,0,0,0,1.068,1.54h4.56a1.14,1.14,0,0,0,1.068-.74l1.794-4.788.57,4.529a1.14,1.14,0,0,0,1.127,1h3.42a1.14,1.14,0,0,0,1.131-1.281l-1.11-8.88,3.154-10.514,5.033-1.007a1.14,1.14,0,0,0,.912-1.117V45.6a1.14,1.14,0,0,0-1.14-1.14ZM10.26,3.42A1.14,1.14,0,0,1,11.4,2.28h9.12a1.14,1.14,0,0,1,1.14,1.14V15.96H18.711L15.96,13.208V7.98H13.68v4.56H10.26Zm1.14,11.4h2.948L17.1,17.571v1.808H11.4ZM7.98,22.8a1.14,1.14,0,0,1,1.14-1.14h11.4a1.14,1.14,0,0,1,1.14,1.14V39.9H20.011L14.82,31.592V25.079H12.54v6.84a1.14,1.14,0,0,0,.173.6l2.811,4.5-3.849,1.539-3.7-4.753Zm0,14.723L9.829,39.9H7.98Zm9.878,3.233-2.826,2.119-1.9-2.441,3.624-1.447ZM6.172,70.678l-3.42-3.42,1.915-1.915,3.639,2.729,1.954,2.606Zm8.721-9.715L9.079,65.806,6.184,63.632l3.826-4.781a1.14,1.14,0,0,0,.25-.712v-6.99l5.511,3.674Zm5.627,9.715V68.4H24.68l2.85,2.28Zm3.511-4.56H20.519V55.858a1.14,1.14,0,0,0-.507-.949L10.1,48.3,8.351,42.179H11.6l2.318,2.98a1.14,1.14,0,0,0,1.585.212l4.256-3.192h2.166l3.138,11.506ZM23.939,27.7l3.777,5.666-2.637,2.64-1.14-1.14ZM28.5,39.424l-1.808-1.8L29.006,35.3l1.445,2.166Zm15.96,31.255H43.185l-.855-6.84h2.128Zm-3.42-9.12a1.14,1.14,0,0,0-1.068.74l-3.142,8.38H35.491l.979-7.838a.971.971,0,0,0,.009-.141V55.19l1.612-1.612H52.558l.887,7.98Zm14.03,9.12H52.944l2.843-7.58a1.151,1.151,0,0,0,.063-.526v-.014l-1.086-9.779,1.58-1.974,7.128,5.346L61.85,61.558H59.278a1.14,1.14,0,0,0-1.068.74Zm6.356,0-.855-6.84h1.122l.855,6.84Zm9.253-21.454-4.788.958a1.14,1.14,0,0,0-.869.79l-.857,2.856-6.4-4.8,1.261-1.574a1.14,1.14,0,0,0,.254-.712V42.651l1.474,1.474a1.14,1.14,0,0,0,.806.334h4.088L67.592,46.4a1.14,1.14,0,0,0,.806.334h2.28Z" transform="translate(0 0)" fill="#251225"/>
      <path id="Path_1001291" data-name="Path 1001291" d="M55,40h2.28v2.28H55Z" transform="translate(7.698 5.599)" fill="#251225"/>
      <path id="Path_1001292" data-name="Path 1001292" d="M68.319,0H31.84A1.14,1.14,0,0,0,30.7,1.14V17.768l-5.366,5.366a1.14,1.14,0,0,0,.806,1.946H30.7V28.5a1.14,1.14,0,0,0,1.14,1.14H68.319a1.14,1.14,0,0,0,1.14-1.14V1.14A1.14,1.14,0,0,0,68.319,0Zm-1.14,27.359H32.98v-3.42a1.14,1.14,0,0,0-1.14-1.14H28.892l3.754-3.754a1.14,1.14,0,0,0,.334-.806V2.28h34.2Z" transform="translate(3.499)" fill="#251225"/>
      <path id="Path_1001293" data-name="Path 1001293" d="M47.861,21.917a7.963,7.963,0,0,0,1.637,0c7.98-.435,12.477-7.015,12.67-7.3a1.14,1.14,0,0,0,0-1.265c-.193-.29-4.694-6.869-12.67-7.3a7.963,7.963,0,0,0-1.637,0c-7.98.435-12.477,7.015-12.67,7.3a1.14,1.14,0,0,0,0,1.265c.193.29,4.694,6.869,12.67,7.3ZM42.98,13.98a5.7,5.7,0,1,1,5.7,5.7,5.7,5.7,0,0,1-5.7-5.7Zm16.809,0a17.166,17.166,0,0,1-3.963,3.534,7.886,7.886,0,0,0,.006-7.045,17.35,17.35,0,0,1,3.957,3.511ZM41.533,10.446a7.886,7.886,0,0,0-.006,7.045,17.35,17.35,0,0,1-3.957-3.511,17.167,17.167,0,0,1,3.963-3.534Z" transform="translate(4.899 0.84)" fill="#251225"/>
      <path id="Path_1001294" data-name="Path 1001294" d="M47.42,10a3.42,3.42,0,1,0,3.42,3.42A3.42,3.42,0,0,0,47.42,10Zm0,4.56a1.14,1.14,0,1,1,1.14-1.14A1.14,1.14,0,0,1,47.42,14.56Z" transform="translate(6.159 1.4)" fill="#251225"/>
    </g>
  </g>
</svg>
