<svg xmlns="http://www.w3.org/2000/svg" width="70" height="70" viewBox="0 0 70 70">
  <g id="img8" transform="translate(-269 -958.087)">
    <circle id="Ellipse_5614" data-name="Ellipse 5614" cx="35" cy="35" r="35" transform="translate(269 958.087)" fill="#fff"/>
    <g id="Group_1186086" data-name="Group 1186086" transform="translate(279 925.179)">
      <path id="Path_1000079" data-name="Path 1000079" d="M50.361,79.018a.732.732,0,0,0,0-1.465H31.276A1.278,1.278,0,0,0,30,78.829v25.88a1.278,1.278,0,0,0,1.276,1.276H72.864a1.278,1.278,0,0,0,1.276-1.276V78.829a1.278,1.278,0,0,0-1.276-1.276H53.779a.732.732,0,1,0,0,1.465h18.9V90.339H60.381A1.662,1.662,0,0,0,58.721,92v12.522H55.745v-2.248a4.808,4.808,0,0,0-3.052-4.455h0l-3.853-1.491a1.733,1.733,0,0,0-.711-.119V95.183a4.817,4.817,0,0,0,1.77-3.731V89.475a1.517,1.517,0,0,0,1.091-1.453v-3.31a2.028,2.028,0,0,0-2.145-2.025.078.078,0,0,1-.05-.011,2.187,2.187,0,0,0-2.42-1.883h-4.35A3.627,3.627,0,0,0,38.4,84.414v3.172a1.952,1.952,0,0,0,1.729,1.936v1.929a4.751,4.751,0,0,0,1.77,3.726v1.013a1.733,1.733,0,0,0-.571.12c-.825.325,1.945-.76-3.849,1.5a4.749,4.749,0,0,0-3.04,4.45v2.258H31.465v-25.5ZM45.555,99.3l.594.881-.406.885h-1.3l-.406-.885.594-.881Zm-.98,3.231h1.036l.39,1.99H44.185Zm18.951,1.991v-1.586a2.905,2.905,0,0,1,5.81,0v1.586Zm1.5-7.364a1.408,1.408,0,1,1,1.408,1.408A1.409,1.409,0,0,1,65.023,97.157ZM60.186,92a.2.2,0,0,1,.2-.2H72.676v12.717H70.8v-1.586a4.373,4.373,0,0,0-2.263-3.827,2.873,2.873,0,1,0-4.213,0,4.373,4.373,0,0,0-2.263,3.827v1.586H60.186Zm-5.905,10.273v2.248H47.494l-.516-2.632.353-.77a1.259,1.259,0,0,0,.907-.28l2.61-2.164,1.317.51A3.333,3.333,0,0,1,54.281,102.272ZM48.3,97.689c.226.089.755.293.981.379l-1.789,1.484-.6-.882,1.13-.937a.272.272,0,0,1,.274-.044Zm-8.436-10.1V84.414a2.161,2.161,0,0,1,2.158-2.158h4.35c.787,0,.9.277.983.7a1.5,1.5,0,0,0,1.6,1.19.565.565,0,0,1,.568.564v3.31a.053.053,0,0,1-.05.05.764.764,0,0,1-.76-.76.809.809,0,0,0-1.523-.382,2.156,2.156,0,0,1-1.9,1.143H40.351A.485.485,0,0,1,39.866,87.587Zm1.729,1.95h3.693a3.626,3.626,0,0,0,2.4-.906,2.24,2.24,0,0,0,.75.646v2.175a3.42,3.42,0,0,1-6.839,0Zm5.07,6.471v.953l-.858.712a1.253,1.253,0,0,0-.163.162h-1.1a1.257,1.257,0,0,0-.163-.162l-1.015-.842V96A5.115,5.115,0,0,0,46.665,96.007Zm-4.8,1.666a.273.273,0,0,1,.274.044l1.149.953-.6.882-1.806-1.5Zm-5.96,4.589a3.293,3.293,0,0,1,2.108-3.086l1.313-.513,2.622,2.174a1.258,1.258,0,0,0,.907.28l.353.77-.516,2.632H35.905Z" transform="translate(-27.07 -27.07)" fill="#2142dc"/>
      <path id="Path_1000080" data-name="Path 1000080" d="M46.038,47.553H3.962A3.966,3.966,0,0,0,0,51.515V77.883a3.966,3.966,0,0,0,3.885,3.96L2.1,84.934a2.22,2.22,0,1,0,3.845,2.22l3.065-5.309H40.989l3.065,5.309a2.22,2.22,0,0,0,3.845-2.22l-1.785-3.091A3.966,3.966,0,0,0,50,77.883V67.35a.732.732,0,0,0-1.465,0V77.883a2.5,2.5,0,0,1-2.5,2.5H3.962a2.5,2.5,0,0,1-2.5-2.5V51.515a2.5,2.5,0,0,1,2.5-2.5H46.038a2.5,2.5,0,0,1,2.5,2.5V63.932a.732.732,0,1,0,1.465,0V51.515a3.966,3.966,0,0,0-3.962-3.962ZM44.425,81.845l2.206,3.822a.755.755,0,1,1-1.308.755l-2.643-4.577Zm-37.105,0L4.677,86.422a.755.755,0,0,1-1.308-.755l2.206-3.822Z" fill="#2142dc"/>
    </g>
  </g>
</svg>
