<svg xmlns="http://www.w3.org/2000/svg" width="50" height="50" viewBox="0 0 50 50">
  <g id="icon" transform="translate(-179.668 -832)">
    <g id="Group_1176135" data-name="Group 1176135">
      <rect id="Rectangle_454129" data-name="Rectangle 454129" width="50" height="50" transform="translate(179.668 832)" fill="#2142dc"/>
      <g id="Group_1176134" data-name="Group 1176134" transform="translate(189.668 829.045)">
        <path id="Path_929147" data-name="Path 929147" d="M26.864,16.411a8.45,8.45,0,0,0-12.2.3A8.422,8.422,0,1,0,2.675,28.527a2.952,2.952,0,0,0,1.658,5.04,2.954,2.954,0,0,0,2.93,3.144,2.95,2.95,0,0,0,3.684,2.644,2.953,2.953,0,0,0,4.926,1.315c.9-.9,1.617-1.46,1.663-2.816a2.955,2.955,0,0,0,2.8-2.834,2.954,2.954,0,0,0,2.835-2.835,2.956,2.956,0,0,0,2.838-3.019l.855-.855A8.424,8.424,0,0,0,26.864,16.411ZM3.965,29.9l.8-.8A1.065,1.065,0,0,1,6.274,30.6l-.8.8A1.065,1.065,0,0,1,3.965,29.9ZM6.2,33.768a1.058,1.058,0,0,1,.312-.753l.8-.8a1.065,1.065,0,0,1,1.505,1.506l-.709.709a1.116,1.116,0,0,1-.848.406A1.07,1.07,0,0,1,6.2,33.768Zm3.242,3.494a1.07,1.07,0,0,1,0-1.506l.709-.709a1.079,1.079,0,0,1,1.6-.095,1.066,1.066,0,0,1,0,1.506l-.8.8a1.066,1.066,0,0,1-1.506,0Zm5.9,1.276-.8.8a1.065,1.065,0,0,1-1.506,0,1.07,1.07,0,0,1,0-1.506l.8-.8a1.065,1.065,0,0,1,1.506,1.506ZM23.817,30a1.07,1.07,0,0,1-1.506,0l-4.184-4.184L16.8,27.142l4.184,4.184a1.065,1.065,0,1,1-1.506,1.506l-4.113-4.113-.071-.071-1.329,1.329.071.071,4.113,4.113a1.065,1.065,0,0,1-1.506,1.506h0a2.946,2.946,0,0,0-2.8-.729,2.959,2.959,0,0,0-2.836-2.176,2.956,2.956,0,0,0-2.552-2.715,2.951,2.951,0,0,0-4.374-2.77,6.547,6.547,0,1,1,9.248-9.232l-2.324,2.324,1.862,1.862a4.263,4.263,0,0,0,5.279.591l5.669,5.669a1.066,1.066,0,0,1,0,1.506Zm1.717-3.016-.286.286q-.049-.054-.1-.106l-6.925-6.925-.665.665a2.378,2.378,0,0,1-3.359,0l-.533-.533,2.628-2.628a6.534,6.534,0,0,1,9.24,9.24Z" transform="translate(0)" fill="#bcc6f5"/>
      </g>
    </g>
  </g>
</svg>
