<svg xmlns="http://www.w3.org/2000/svg" width="80" height="80" viewBox="0 0 80 80">
  <g id="Group_1183666" data-name="Group 1183666" transform="translate(-179.668 -5521)">
    <rect id="Rectangle_402006" data-name="Rectangle 402006" width="80" height="80" rx="5" transform="translate(179.668 5521)" fill="#5bc0be"/>
    <g id="Group_1176231" data-name="Group 1176231" transform="translate(194.334 5533.59)">
      <path id="Path_988296" data-name="Path 988296" d="M270.087,94.357a3.212,3.212,0,1,0-3.212,3.212A3.216,3.216,0,0,0,270.087,94.357Zm-3.212,1.606a1.606,1.606,0,1,1,1.606-1.606A1.608,1.608,0,0,1,266.874,95.963Z" transform="translate(-237.141 -81.386)" fill="#12263f"/>
      <path id="Path_988297" data-name="Path 988297" d="M177.125,153.554v2.415a12.064,12.064,0,0,0,.788,24.1,11.955,11.955,0,0,0,7.307-2.464,12.183,12.183,0,0,0,3.646-4.546l1.1,1.8a2.411,2.411,0,1,0,4.142-2.467l-5.042-8.358h-7.12V160.8h8.777v-4.818H185.9v1.606h3.212v1.606H178.731v-5.636a.8.8,0,1,1,1.606,0v4.03H184.3v-1.606h-2.352v-2.424a2.409,2.409,0,1,0-4.818,0Zm.788,24.911a10.458,10.458,0,0,1-.788-20.886v1.65a8.841,8.841,0,1,0,9.53,10.2l1.17,1.921a10.513,10.513,0,0,1-9.912,7.113Zm7.2-9.623a7.234,7.234,0,1,1-7.99-8v8Zm-4.777-8.045v4.847h7.819l4.57,7.576a.8.8,0,0,1-1.388.815l-4.14-6.8h-8.467V160.8Z" transform="translate(-149.801 -134.961)" fill="#12263f"/>
      <path id="Path_988298" data-name="Path 988298" d="M57.436,5.022a12.155,12.155,0,0,1-7.1-2.277L46.488,0,42.645,2.745a12.207,12.207,0,0,1-7.383,2.277,10.392,10.392,0,1,0,.82,1.6,13.743,13.743,0,0,0,7.5-2.566l2.909-2.078L49.4,4.052a13.752,13.752,0,0,0,8.038,2.576h8.326v20.8A24.712,24.712,0,0,1,53.913,48.45l-7.424,4.494L39.064,48.45A24.556,24.556,0,0,1,27.215,27.24V22.617H25.608V27.24A26.683,26.683,0,0,0,28.98,40.256a26.136,26.136,0,0,0,9.252,9.568l8.256,5,8.256-5a26.181,26.181,0,0,0,12.624-22.4V5.022ZM26.411,19.4a8.839,8.839,0,1,1,8.839-8.839A8.849,8.849,0,0,1,26.411,19.4Z" transform="translate(-15.966 0)" fill="#12263f"/>
      <path id="Path_988299" data-name="Path 988299" d="M69.05,46.219H64.231v3.212H61.019V54.25h3.212v3.212H69.05V54.25h3.212V49.431H69.05Zm1.606,4.818v1.606H67.444v3.212H65.837V52.644H62.625V51.037h3.212V47.825h1.606v3.212Z" transform="translate(-56.195 -41.27)" fill="#12263f"/>
    </g>
  </g>
</svg>
