<svg xmlns="http://www.w3.org/2000/svg" width="100" height="100" viewBox="0 0 100 100">
  <g id="img12" transform="translate(-637 -6992)">
    <g id="Group_1098742" data-name="Group 1098742" transform="translate(637.242 6992)">
      <rect id="Rectangle_400898" data-name="Rectangle 400898" width="100" height="100" rx="50" transform="translate(-0.242)" fill="#fff" opacity="0.859"/>
      <g id="Rectangle_400907" data-name="Rectangle 400907" transform="translate(-0.242)" fill="none" stroke="#2142dc" stroke-linecap="round" stroke-width="3" stroke-dasharray="0 7">
        <rect width="100" height="100" rx="50" stroke="none"/>
        <rect x="1.5" y="1.5" width="97" height="97" rx="48.5" fill="none"/>
      </g>
    </g>
    <g id="Group_1107006" data-name="Group 1107006" transform="translate(645.398 7000.157)">
      <rect id="Rectangle_400898-2" data-name="Rectangle 400898" width="84" height="84" rx="42" transform="translate(-0.399 -0.157)" fill="#a8b8ff" opacity="0.859"/>
      <rect id="Rectangle_400907-2" data-name="Rectangle 400907" width="84" height="84" rx="42" transform="translate(-0.398 -0.157)" fill="none"/>
    </g>
    <g id="Group_1187233" data-name="Group 1187233" transform="translate(662.356 7017.39)">
      <g id="Group_1187199" data-name="Group 1187199" transform="translate(0.989 27.307)">
        <path id="Path_1001422" data-name="Path 1001422" d="M2.079,50.632,4.444,39.991A2.934,2.934,0,0,1,7.326,37.7H42.5a2.934,2.934,0,0,1,2.882,2.291l2.365,10.641a2.978,2.978,0,0,1-2.882,3.621H4.961a3.08,3.08,0,0,1-2.882-3.621Z" transform="translate(-1.258 -36.887)" fill="#64c4f6"/>
        <path id="Path_1001423" data-name="Path 1001423" d="M44.6,54.631H4.692a3.751,3.751,0,0,1-2.882-1.4,3.626,3.626,0,0,1-.739-3.1L3.436,39.482A3.713,3.713,0,0,1,7.057,36.6H42.231a3.713,3.713,0,0,1,3.621,2.882l2.365,10.641a3.626,3.626,0,0,1-.739,3.1A3.751,3.751,0,0,1,44.6,54.631ZM7.057,38.078a2.208,2.208,0,0,0-2.143,1.774L2.549,50.493a2.089,2.089,0,0,0,.443,1.847,2.209,2.209,0,0,0,1.7.813H44.6a2.2,2.2,0,0,0,2.143-2.66L44.374,39.851a2.208,2.208,0,0,0-2.143-1.774Z" transform="translate(-0.989 -36.6)" fill="#101f2d"/>
      </g>
      <g id="Group_1187200" data-name="Group 1187200" transform="translate(0.998 41.336)">
        <path id="Path_1001424" data-name="Path 1001424" d="M44.938,61.994H4.886a2.874,2.874,0,0,1-2.808-3.473V56.6A2.94,2.94,0,0,0,4.96,59.112h39.9a3.013,3.013,0,0,0,2.882-2.291V58.6a2.815,2.815,0,0,1-2.808,3.4Z" transform="translate(-1.266 -55.85)" fill="#ef6561"/>
        <path id="Path_1001425" data-name="Path 1001425" d="M44.673,62.468H4.621a3.654,3.654,0,0,1-2.808-1.33,3.557,3.557,0,0,1-.739-2.956V56.335a.729.729,0,0,1,.665-.739.732.732,0,0,1,.813.591A2.15,2.15,0,0,0,4.7,58.108H44.6a2.208,2.208,0,0,0,2.143-1.774.72.72,0,0,1,.739-.591.7.7,0,0,1,.739.739v1.7a3.557,3.557,0,0,1-.739,2.956,3.433,3.433,0,0,1-2.808,1.33ZM2.478,58.847a2.274,2.274,0,0,0,.443,1.4,2.065,2.065,0,0,0,1.626.813H44.673a1.963,1.963,0,0,0,1.626-.813,1.9,1.9,0,0,0,.443-1.4,3.982,3.982,0,0,1-2.217.739H4.7a3.8,3.8,0,0,1-2.217-.739Z" transform="translate(-1.002 -55.585)" fill="#101f2d"/>
      </g>
      <g id="Group_1187205" data-name="Group 1187205" transform="translate(7.796 31.371)">
        <g id="Group_1187204" data-name="Group 1187204">
          <g id="Group_1187201" data-name="Group 1187201">
            <path id="Path_1001426" data-name="Path 1001426" d="M11.678,43.578h-.739a.739.739,0,0,1,0-1.478h.739a.7.7,0,0,1,.739.739A.741.741,0,0,1,11.678,43.578Z" transform="translate(-10.2 -42.1)" fill="#101f2d"/>
          </g>
          <g id="Group_1187202" data-name="Group 1187202" transform="translate(3.769)">
            <path id="Path_1001427" data-name="Path 1001427" d="M40.72,43.578H39.169a.739.739,0,0,1,0-1.478H40.72a.7.7,0,0,1,.739.739A.741.741,0,0,1,40.72,43.578Zm-4.655,0H34.513a.739.739,0,0,1,0-1.478h1.552a.739.739,0,0,1,0,1.478Zm-4.582,0H29.932a.739.739,0,0,1,0-1.478h1.552a.7.7,0,0,1,.739.739A.741.741,0,0,1,31.483,43.578Zm-4.655,0H25.276a.739.739,0,0,1,0-1.478h1.552a.739.739,0,0,1,0,1.478Zm-4.582,0H20.694a.739.739,0,0,1,0-1.478h1.552a.7.7,0,0,1,.739.739A.741.741,0,0,1,22.246,43.578Zm-4.655,0H16.039a.739.739,0,0,1,0-1.478h1.552a.739.739,0,0,1,0,1.478Z" transform="translate(-15.3 -42.1)" fill="#101f2d"/>
          </g>
          <g id="Group_1187203" data-name="Group 1187203" transform="translate(31.48)">
            <path id="Path_1001428" data-name="Path 1001428" d="M54.278,43.578h-.739a.739.739,0,1,1,0-1.478h.739a.739.739,0,0,1,0,1.478Z" transform="translate(-52.8 -42.1)" fill="#101f2d"/>
          </g>
        </g>
      </g>
      <g id="Group_1187210" data-name="Group 1187210" transform="translate(6.761 35.584)">
        <g id="Group_1187209" data-name="Group 1187209">
          <g id="Group_1187206" data-name="Group 1187206">
            <path id="Path_1001429" data-name="Path 1001429" d="M10.278,49.278H9.539a.739.739,0,1,1,0-1.478h.739a.7.7,0,0,1,.739.739A.741.741,0,0,1,10.278,49.278Z" transform="translate(-8.8 -47.8)" fill="#101f2d"/>
          </g>
          <g id="Group_1187207" data-name="Group 1187207" transform="translate(3.621)">
            <path id="Path_1001430" data-name="Path 1001430" d="M41.559,49.278h-1.4a.739.739,0,0,1,0-1.478h1.4a.7.7,0,0,1,.739.739A.741.741,0,0,1,41.559,49.278Zm-4.286,0h-1.4a.739.739,0,0,1,0-1.478h1.4a.7.7,0,0,1,.739.739A.741.741,0,0,1,37.273,49.278Zm-4.286,0h-1.4a.739.739,0,1,1,0-1.478h1.4a.7.7,0,0,1,.739.739A.741.741,0,0,1,32.987,49.278Zm-4.286,0H27.223a.739.739,0,0,1,0-1.478H28.7a.7.7,0,0,1,.739.739A.741.741,0,0,1,28.7,49.278Zm-4.286,0h-1.4a.739.739,0,1,1,0-1.478h1.4a.7.7,0,0,1,.739.739A.741.741,0,0,1,24.415,49.278Zm-4.286,0h-1.4a.739.739,0,1,1,0-1.478h1.4a.7.7,0,0,1,.739.739A.741.741,0,0,1,20.129,49.278Zm-4.286,0h-1.4a.739.739,0,1,1,0-1.478h1.4a.7.7,0,0,1,.739.739A.741.741,0,0,1,15.843,49.278Z" transform="translate(-13.7 -47.8)" fill="#101f2d"/>
          </g>
          <g id="Group_1187208" data-name="Group 1187208" transform="translate(33.549)">
            <path id="Path_1001431" data-name="Path 1001431" d="M55.678,49.278h-.739a.739.739,0,1,1,0-1.478h.739a.739.739,0,1,1,0,1.478Z" transform="translate(-54.2 -47.8)" fill="#101f2d"/>
          </g>
        </g>
      </g>
      <g id="Group_1187215" data-name="Group 1187215" transform="translate(5.8 39.796)">
        <g id="Group_1187214" data-name="Group 1187214">
          <g id="Group_1187211" data-name="Group 1187211">
            <path id="Path_1001432" data-name="Path 1001432" d="M8.978,54.978H8.239a.739.739,0,1,1,0-1.478h.739a.7.7,0,0,1,.739.739A.741.741,0,0,1,8.978,54.978Z" transform="translate(-7.5 -53.5)" fill="#101f2d"/>
          </g>
          <g id="Group_1187212" data-name="Group 1187212" transform="translate(3.769)">
            <path id="Path_1001433" data-name="Path 1001433" d="M42.011,54.978H40.533a.739.739,0,1,1,0-1.478h1.478a.739.739,0,0,1,0,1.478Zm-4.508,0H36.025a.739.739,0,1,1,0-1.478H37.5a.7.7,0,0,1,.739.739A.741.741,0,0,1,37.5,54.978Zm-4.508,0H31.518a.739.739,0,1,1,0-1.478H33a.7.7,0,0,1,.739.739A.741.741,0,0,1,33,54.978Zm-4.582,0H26.936a.739.739,0,0,1,0-1.478h1.478a.739.739,0,1,1,0,1.478Zm-4.508,0H22.428a.739.739,0,1,1,0-1.478h1.478a.7.7,0,0,1,.739.739A.741.741,0,0,1,23.906,54.978Zm-4.508,0H17.921a.739.739,0,1,1,0-1.478H19.4a.7.7,0,0,1,.739.739A.741.741,0,0,1,19.4,54.978Zm-4.582,0H13.339a.739.739,0,1,1,0-1.478h1.478a.739.739,0,0,1,0,1.478Z" transform="translate(-12.6 -53.5)" fill="#101f2d"/>
          </g>
          <g id="Group_1187213" data-name="Group 1187213" transform="translate(35.47)">
            <path id="Path_1001434" data-name="Path 1001434" d="M56.978,54.978h-.739a.739.739,0,1,1,0-1.478h.739a.739.739,0,1,1,0,1.478Z" transform="translate(-55.5 -53.5)" fill="#101f2d"/>
          </g>
        </g>
      </g>
      <g id="Group_1187216" data-name="Group 1187216" transform="translate(3.953 1)">
        <path id="Path_1001435" data-name="Path 1001435" d="M42.687,28.785H8.695A3.659,3.659,0,0,1,5,25.09V4.695A3.659,3.659,0,0,1,8.695,1H42.687a3.659,3.659,0,0,1,3.695,3.695V25.016A3.722,3.722,0,0,1,42.687,28.785ZM8.695,2.552A2.177,2.177,0,0,0,6.478,4.769V25.09a2.177,2.177,0,0,0,2.217,2.217H42.687A2.177,2.177,0,0,0,44.9,25.09V4.695a2.177,2.177,0,0,0-2.217-2.217H8.695Z" transform="translate(-5 -1)" fill="#101f2d"/>
      </g>
      <g id="Group_1187217" data-name="Group 1187217" transform="translate(37.354 20.583)">
        <path id="Path_1001436" data-name="Path 1001436" d="M53.747,32.008H50.939a.739.739,0,1,1,0-1.478h2.069V28.239a.739.739,0,0,1,1.478,0v3.03A.741.741,0,0,1,53.747,32.008Z" transform="translate(-50.2 -27.5)" fill="#101f2d"/>
      </g>
      <g id="Group_1187218" data-name="Group 1187218" transform="translate(37.354 4.695)">
        <path id="Path_1001437" data-name="Path 1001437" d="M53.747,10.508a.7.7,0,0,1-.739-.739V7.478H50.939a.7.7,0,0,1-.739-.739A.7.7,0,0,1,50.939,6h2.808a.7.7,0,0,1,.739.739v3.03A.7.7,0,0,1,53.747,10.508Z" transform="translate(-50.2 -6)" fill="#101f2d"/>
      </g>
      <g id="Group_1187219" data-name="Group 1187219" transform="translate(7.648 4.695)">
        <path id="Path_1001438" data-name="Path 1001438" d="M10.739,10.508A.7.7,0,0,1,10,9.769V6.739A.7.7,0,0,1,10.739,6h2.808a.7.7,0,0,1,.739.739.7.7,0,0,1-.739.739H11.478V9.769A.741.741,0,0,1,10.739,10.508Z" transform="translate(-10 -6)" fill="#101f2d"/>
      </g>
      <g id="Group_1187220" data-name="Group 1187220" transform="translate(7.648 20.583)">
        <path id="Path_1001439" data-name="Path 1001439" d="M13.547,32.008H10.739A.7.7,0,0,1,10,31.269v-3.03a.739.739,0,0,1,1.478,0V30.53h2.069a.739.739,0,1,1,0,1.478Z" transform="translate(-10 -27.5)" fill="#101f2d"/>
      </g>
      <g id="Group_1187221" data-name="Group 1187221" transform="translate(21.319 23.612)">
        <path id="Path_1001440" data-name="Path 1001440" d="M34.338,33.078h-5.1a.739.739,0,1,1,0-1.478h5.1a.739.739,0,0,1,0,1.478Z" transform="translate(-28.5 -31.6)" fill="#101f2d"/>
      </g>
      <g id="Group_1187222" data-name="Group 1187222" transform="translate(19.619 13.636)">
        <path id="Path_1001441" data-name="Path 1001441" d="M31.151,26.081A4.951,4.951,0,0,1,26.2,21.13V18.839a.739.739,0,0,1,1.478,0V21.13a3.473,3.473,0,1,0,6.946,0V18.839a.739.739,0,1,1,1.478,0V21.13A4.951,4.951,0,0,1,31.151,26.081Z" transform="translate(-26.2 -18.1)" fill="#101f2d"/>
      </g>
      <g id="Group_1187223" data-name="Group 1187223" transform="translate(22.205 8.316)">
        <path id="Path_1001442" data-name="Path 1001442" d="M32.326,21.211A1.64,1.64,0,0,1,30.7,19.585v-6.06a1.626,1.626,0,0,1,3.251,0v6.06A1.593,1.593,0,0,1,32.326,21.211Z" transform="translate(-29.961 -11.161)" fill="#ef6561"/>
        <path id="Path_1001443" data-name="Path 1001443" d="M32.065,21.689A2.334,2.334,0,0,1,29.7,19.324v-6.06a2.365,2.365,0,0,1,4.729,0v6.06A2.334,2.334,0,0,1,32.065,21.689Zm0-9.237a.854.854,0,0,0-.887.887V19.4a.887.887,0,0,0,1.774,0v-6.06A.9.9,0,0,0,32.065,12.452Z" transform="translate(-29.7 -10.9)" fill="#101f2d"/>
      </g>
      <g id="Group_1187224" data-name="Group 1187224" transform="translate(13.781 13.045)">
        <path id="Path_1001444" data-name="Path 1001444" d="M19.039,20.995a.7.7,0,0,1-.739-.739V18.039a.739.739,0,0,1,1.478,0v2.217A.741.741,0,0,1,19.039,20.995Z" transform="translate(-18.3 -17.3)" fill="#101f2d"/>
      </g>
      <g id="Group_1187225" data-name="Group 1187225" transform="translate(7.648 13.045)">
        <path id="Path_1001445" data-name="Path 1001445" d="M10.739,20.995A.7.7,0,0,1,10,20.256V18.039a.739.739,0,0,1,1.478,0v2.217A.741.741,0,0,1,10.739,20.995Z" transform="translate(-10 -17.3)" fill="#101f2d"/>
      </g>
      <g id="Group_1187226" data-name="Group 1187226" transform="translate(10.678 12.084)">
        <path id="Path_1001446" data-name="Path 1001446" d="M14.839,21.616a.7.7,0,0,1-.739-.739V16.739a.739.739,0,1,1,1.478,0v4.138A.7.7,0,0,1,14.839,21.616Z" transform="translate(-14.1 -16)" fill="#101f2d"/>
      </g>
      <g id="Group_1187227" data-name="Group 1187227" transform="translate(16.811 9.129)">
        <path id="Path_1001447" data-name="Path 1001447" d="M23.139,23.528a.7.7,0,0,1-.739-.739V12.739a.739.739,0,1,1,1.478,0V22.863A.729.729,0,0,1,23.139,23.528Z" transform="translate(-22.4 -12)" fill="#101f2d"/>
      </g>
      <g id="Group_1187228" data-name="Group 1187228" transform="translate(37.133 11.789)">
        <path id="Path_1001448" data-name="Path 1001448" d="M50.639,21.807a.7.7,0,0,1-.739-.739V16.339a.739.739,0,0,1,1.478,0v4.729A.8.8,0,0,1,50.639,21.807Z" transform="translate(-49.9 -15.6)" fill="#101f2d"/>
      </g>
      <g id="Group_1187229" data-name="Group 1187229" transform="translate(30.999 13.045)">
        <path id="Path_1001449" data-name="Path 1001449" d="M42.339,20.995a.7.7,0,0,1-.739-.739V18.039a.739.739,0,0,1,1.478,0v2.217A.7.7,0,0,1,42.339,20.995Z" transform="translate(-41.6 -17.3)" fill="#101f2d"/>
      </g>
      <g id="Group_1187230" data-name="Group 1187230" transform="translate(34.029 9.129)">
        <path id="Path_1001450" data-name="Path 1001450" d="M46.439,23.528a.7.7,0,0,1-.739-.739V12.739a.739.739,0,1,1,1.478,0V22.863A.682.682,0,0,1,46.439,23.528Z" transform="translate(-45.7 -12)" fill="#101f2d"/>
      </g>
      <g id="Group_1187231" data-name="Group 1187231" transform="translate(40.162 13.489)">
        <path id="Path_1001451" data-name="Path 1001451" d="M54.739,20.782A.7.7,0,0,1,54,20.043v-1.4a.739.739,0,1,1,1.478,0v1.4A.741.741,0,0,1,54.739,20.782Z" transform="translate(-54 -17.9)" fill="#101f2d"/>
      </g>
      <g id="Group_1187232" data-name="Group 1187232" transform="translate(23.905 20.139)">
        <path id="Path_1001452" data-name="Path 1001452" d="M32.739,31.851A.7.7,0,0,1,32,31.112V27.639a.739.739,0,1,1,1.478,0v3.473A.8.8,0,0,1,32.739,31.851Z" transform="translate(-32 -26.9)" fill="#101f2d"/>
      </g>
    </g>
  </g>
</svg>
