<svg xmlns="http://www.w3.org/2000/svg" width="100" height="100" viewBox="0 0 100 100">
  <g id="img14" transform="translate(-637 -6992)">
    <g id="Group_1098742" data-name="Group 1098742" transform="translate(637.242 6992)">
      <rect id="Rectangle_400898" data-name="Rectangle 400898" width="100" height="100" rx="50" transform="translate(-0.242)" fill="#fff" opacity="0.859"/>
      <g id="Rectangle_400907" data-name="Rectangle 400907" transform="translate(-0.242)" fill="none" stroke="#2142dc" stroke-linecap="round" stroke-width="3" stroke-dasharray="0 7">
        <rect width="100" height="100" rx="50" stroke="none"/>
        <rect x="1.5" y="1.5" width="97" height="97" rx="48.5" fill="none"/>
      </g>
    </g>
    <g id="Group_1107006" data-name="Group 1107006" transform="translate(645.399 7000.157)">
      <rect id="Rectangle_400898-2" data-name="Rectangle 400898" width="84" height="84" rx="42" transform="translate(-0.399 -0.157)" fill="#a8b8ff" opacity="0.859"/>
      <rect id="Rectangle_400907-2" data-name="Rectangle 400907" width="84" height="84" rx="42" transform="translate(-0.398 -0.157)" fill="none"/>
    </g>
    <g id="Group_1187238" data-name="Group 1187238" transform="translate(605.208 7015)">
      <g id="Group_1187236" data-name="Group 1187236" transform="translate(61.589 0.797)">
        <path id="Path_1001501" data-name="Path 1001501" d="M77.59,7.5h33.524a3.188,3.188,0,0,1,3.189,3.189V57.134a3.18,3.18,0,0,1-.221,1.169c-.466,1.182-2.309,1.706-3.658,1.706l-31.3-.484a3.188,3.188,0,0,1-3.189-3.189l-.8-43.9c0-1.321.076-4.206,1.221-4.691A3.177,3.177,0,0,1,77.59,7.5Z" transform="translate(-74.401 -7.5)" fill="#dc4955"/>
        <path id="Path_1001502" data-name="Path 1001502" d="M107.969,60.171A3.186,3.186,0,0,1,105,62.191H71.478A3.188,3.188,0,0,1,68.29,59V12.556A3.186,3.186,0,0,1,70.309,9.59V59a1.17,1.17,0,0,0,1.169,1.169Z" transform="translate(-68.29 -9.368)" fill="#d82f3c"/>
        <path id="Path_1001503" data-name="Path 1001503" d="M113.277,84.71l-.362-35.725a1.063,1.063,0,0,1,1.063-1.063l.252-.422h28.528a1.063,1.063,0,0,1,1.063,1.063V84.274l-.55.747c0,.587-.535.8-1.122.8l-27.81-.045A1.063,1.063,0,0,1,113.277,84.71Z" transform="translate(-108.172 -43.249)" fill="#faf8f8"/>
        <path id="Path_1001504" data-name="Path 1001504" d="M139.688,84.274v.744a1.063,1.063,0,0,1-1.063,1.063H109.353a1.063,1.063,0,0,1-1.063-1.063V48.563a1.063,1.063,0,0,1,1.063-1.063h.744V83.636a.638.638,0,0,0,.638.638Z" transform="translate(-104.039 -43.249)" fill="#f0e9e6"/>
        <circle id="Ellipse_13654" data-name="Ellipse 13654" cx="2.126" cy="2.126" r="2.126" transform="translate(17.825 45.702)" fill="#d82f3c"/>
        <path id="Path_1001505" data-name="Path 1001505" d="M174.4,82.856l.176-.356H190.2a1.063,1.063,0,0,1,1.063,1.063v.531l-.314.476c0,.587-1.041.57-1.628.57l-14.585.412a1.063,1.063,0,0,1-1.063-1.063l-.336-.57A1.063,1.063,0,0,1,174.4,82.856Z" transform="translate(-162.175 -74.529)" fill="#ffbf54"/>
        <path id="Path_1001506" data-name="Path 1001506" d="M188.281,84.094v.531a1.063,1.063,0,0,1-1.063,1.063H171.063A1.063,1.063,0,0,1,170,84.626V83.563a1.063,1.063,0,0,1,1.063-1.063h.531v.957a.638.638,0,0,0,.638.638Z" transform="translate(-159.19 -74.529)" fill="#ffa442"/>
      </g>
      <g id="Group_1187237" data-name="Group 1187237" transform="translate(60.792)">
        <path id="Path_1001507" data-name="Path 1001507" d="M98.3,0H64.778a3.99,3.99,0,0,0-3.986,3.986V6.7a.8.8,0,1,0,1.594,0V3.986a2.394,2.394,0,0,1,2.391-2.391H98.3a2.394,2.394,0,0,1,2.391,2.391V50.432A2.394,2.394,0,0,1,98.3,52.823H64.778a2.394,2.394,0,0,1-2.391-2.391V10.416a.8.8,0,1,0-1.594,0V50.432a3.99,3.99,0,0,0,3.986,3.986H98.3a3.99,3.99,0,0,0,3.986-3.986V3.986A3.99,3.99,0,0,0,98.3,0Z" transform="translate(-60.792)"/>
        <path id="Path_1001508" data-name="Path 1001508" d="M132.987,73.533a.8.8,0,0,0,.8-.8V40.8a.8.8,0,0,0-.8-.8h-31.4a.8.8,0,0,0-.8.8V79.378a.8.8,0,0,0,.8.8h31.4a.8.8,0,0,0,.8-.8V76.455a.8.8,0,1,0-1.594,0v2.126h-29.8V41.594h29.8V72.735A.8.8,0,0,0,132.987,73.533Z" transform="translate(-96.541 -35.749)"/>
        <path id="Path_1001509" data-name="Path 1001509" d="M228.5,432.923A2.923,2.923,0,1,0,231.423,430,2.926,2.926,0,0,0,228.5,432.923Zm4.251,0a1.329,1.329,0,1,1-1.329-1.329A1.33,1.33,0,0,1,232.751,432.923Z" transform="translate(-210.675 -384.298)"/>
        <path id="Path_1001510" data-name="Path 1001510" d="M314.547,450.5a.8.8,0,0,0,0,1.594h5.208a.8.8,0,0,0,0-1.594Z" transform="translate(-286.865 -402.619)"/>
        <path id="Path_1001511" data-name="Path 1001511" d="M135.047,451a.8.8,0,1,0,0,1.594h5.208a.8.8,0,0,0,0-1.594Z" transform="translate(-126.443 -403.066)"/>
        <path id="Path_1001512" data-name="Path 1001512" d="M182.375,77.923V76.86a1.862,1.862,0,0,0-1.86-1.86H164.36a1.862,1.862,0,0,0-1.86,1.86v1.063a1.862,1.862,0,0,0,1.86,1.86h8.131a.8.8,0,1,0,0-1.594H164.36a.266.266,0,0,1-.266-.266V76.86a.266.266,0,0,1,.266-.266h16.155a.266.266,0,0,1,.266.266v1.063a.266.266,0,0,1-.266.266H176.37a.8.8,0,1,0,0,1.594h4.145A1.862,1.862,0,0,0,182.375,77.923Z" transform="translate(-151.69 -67.029)"/>
        <path id="Path_1001513" data-name="Path 1001513" d="M200.8,140a.8.8,0,1,0,0,1.594H211A.8.8,0,1,0,211,140Z" transform="translate(-185.204 -125.12)"/>
        <path id="Path_1001514" data-name="Path 1001514" d="M136,175.8a.8.8,0,0,0,.8.8h8.078a.8.8,0,0,0,0-1.594H136.8A.8.8,0,0,0,136,175.8Z" transform="translate(-128.007 -156.4)"/>
        <path id="Path_1001515" data-name="Path 1001515" d="M136.8,204.165h5.952a.8.8,0,0,0,0-1.594H136.8a.8.8,0,1,0,0,1.594Z" transform="translate(-128.007 -181.041)"/>
        <path id="Path_1001516" data-name="Path 1001516" d="M178.585,230.143H156.8a.8.8,0,1,0,0,1.594h21.788a.8.8,0,1,0,0-1.594Z" transform="translate(-145.881 -205.683)"/>
        <path id="Path_1001517" data-name="Path 1001517" d="M136.8,259.308h9.831a.8.8,0,1,0,0-1.594H136.8a.8.8,0,1,0,0,1.594Z" transform="translate(-128.007 -230.323)"/>
        <path id="Path_1001518" data-name="Path 1001518" d="M275.554,257.714H265.3a.8.8,0,0,0,0,1.594h10.256a.8.8,0,0,0,0-1.594Z" transform="translate(-242.849 -230.323)"/>
        <path id="Path_1001519" data-name="Path 1001519" d="M136.8,286.88h12.01a.8.8,0,1,0,0-1.594H136.8a.8.8,0,1,0,0,1.594Z" transform="translate(-128.007 -254.965)"/>
        <path id="Path_1001520" data-name="Path 1001520" d="M178.585,312.857H156.8a.8.8,0,1,0,0,1.594h21.788a.8.8,0,1,0,0-1.594Z" transform="translate(-145.881 -279.605)"/>
        <path id="Path_1001521" data-name="Path 1001521" d="M136.8,342.023h4.57a.8.8,0,1,0,0-1.594H136.8a.8.8,0,1,0,0,1.594Z" transform="translate(-128.007 -304.247)"/>
        <path id="Path_1001522" data-name="Path 1001522" d="M231.665,341.226a.8.8,0,0,0-.8-.8H215.3a.8.8,0,0,0,0,1.594h15.571A.8.8,0,0,0,231.665,341.226Z" transform="translate(-198.163 -304.247)"/>
        <path id="Path_1001523" data-name="Path 1001523" d="M136.8,369.594H153.8a.8.8,0,1,0,0-1.594H136.8a.8.8,0,1,0,0,1.594Z" transform="translate(-128.007 -328.888)"/>
      </g>
    </g>
  </g>
</svg>
