<svg xmlns="http://www.w3.org/2000/svg" width="100" height="100" viewBox="0 0 100 100">
  <g id="img17" transform="translate(-637 -6992)">
    <g id="Group_1098742" data-name="Group 1098742" transform="translate(637.242 6992)">
      <rect id="Rectangle_400898" data-name="Rectangle 400898" width="100" height="100" rx="50" transform="translate(-0.242)" fill="#fff" opacity="0.859"/>
      <g id="Rectangle_400907" data-name="Rectangle 400907" transform="translate(-0.242)" fill="none" stroke="#2142dc" stroke-linecap="round" stroke-width="3" stroke-dasharray="0 7">
        <rect width="100" height="100" rx="50" stroke="none"/>
        <rect x="1.5" y="1.5" width="97" height="97" rx="48.5" fill="none"/>
      </g>
    </g>
    <g id="Group_1107006" data-name="Group 1107006" transform="translate(645.398 7000.157)">
      <rect id="Rectangle_400898-2" data-name="Rectangle 400898" width="84" height="84" rx="42" transform="translate(-0.399 -0.157)" fill="#a8b8ff" opacity="0.859"/>
      <rect id="Rectangle_400907-2" data-name="Rectangle 400907" width="84" height="84" rx="42" transform="translate(-0.398 -0.157)" fill="none"/>
    </g>
    <g id="Group_1187243" data-name="Group 1187243" transform="translate(575.048 7012.499)">
      <path id="Path_1001553" data-name="Path 1001553" d="M133.428,64.774H103.743a3.055,3.055,0,0,1-3.055-3.055V10.556A3.055,3.055,0,0,1,103.743,7.5h29.685a3.055,3.055,0,0,1,3.055,3.055V61.719a3.055,3.055,0,0,1-3.055,3.055Z" transform="translate(-6.634 -6.637)" fill="#3e4f55"/>
      <path id="Path_1001554" data-name="Path 1001554" d="M107.345,63.879a3.055,3.055,0,0,1-.895-2.16V10.556A3.055,3.055,0,0,1,109.505,7.5h-5.762a3.055,3.055,0,0,0-3.055,3.055V61.719a3.055,3.055,0,0,0,3.055,3.055h5.762A3.056,3.056,0,0,1,107.345,63.879Z" transform="translate(-6.634 -6.637)" fill="#303d42"/>
      <path id="Path_1001555" data-name="Path 1001555" d="M160.387,85.1H131.751V38.564H140.7a1.79,1.79,0,0,1,1.79,1.79,1.79,1.79,0,0,0,1.79,1.79h3.58a1.79,1.79,0,0,0,1.79-1.79,1.79,1.79,0,0,1,1.79-1.79h8.949Z" transform="translate(-34.117 -34.12)" fill="#77d4f5"/>
      <path id="Path_1001556" data-name="Path 1001556" d="M131.751,38.564h2.182V85.1h-2.182Z" transform="translate(-34.117 -34.12)" fill="#68b3f3"/>
      <path id="Path_1001557" data-name="Path 1001557" d="M173.911,227.262h-.717a14.655,14.655,0,0,1-10.38-4.31,14.664,14.664,0,0,1,10.372-4.3h.734a14.664,14.664,0,0,1,10.372,4.3,14.655,14.655,0,0,1-10.38,4.31Z" transform="translate(-61.601 -193.458)" fill="#e9f1ff"/>
      <path id="Path_1001558" data-name="Path 1001558" d="M166.271,222.952a14.664,14.664,0,0,1,9.01-4.234q-.676-.063-1.362-.063h-.734a14.664,14.664,0,0,0-10.372,4.3,14.655,14.655,0,0,0,10.38,4.31h.717q.689,0,1.37-.064A14.656,14.656,0,0,1,166.271,222.952Z" transform="translate(-61.601 -193.458)" fill="#d7e4f7"/>
      <path id="Path_1001559" data-name="Path 1001559" d="M249.364,32.793a.864.864,0,1,1,.864-.864A.864.864,0,0,1,249.364,32.793Z" transform="translate(-137.412 -27.484)"/>
      <circle id="Ellipse_13657" data-name="Ellipse 13657" cx="4.297" cy="4.297" r="4.297" transform="translate(107.656 25.197)" fill="#3e4f55"/>
      <path id="Path_1001560" data-name="Path 1001560" d="M222.183,222.952a4.3,4.3,0,0,1,2.569-3.936,4.3,4.3,0,1,0,0,7.871A4.3,4.3,0,0,1,222.183,222.952Z" transform="translate(-111.07 -193.458)" fill="#303d42"/>
      <g id="Group_1187242" data-name="Group 1187242" transform="translate(93.19)">
        <path id="Path_1001561" data-name="Path 1001561" d="M129.849,30.514a.864.864,0,0,0-.864.864v23.7a2.234,2.234,0,0,1-2.191,2.192H97.109a2.234,2.234,0,0,1-2.191-2.192V3.92a2.234,2.234,0,0,1,2.191-2.192H110.07a.864.864,0,0,0,0-1.729H97.109A3.955,3.955,0,0,0,93.19,3.92V55.081A3.955,3.955,0,0,0,97.109,59h29.685a3.955,3.955,0,0,0,3.919-3.92v-23.7A.864.864,0,0,0,129.849,30.514Z" transform="translate(-93.19 0)"/>
        <path id="Path_1001562" data-name="Path 1001562" d="M278.682,0H265.724a.864.864,0,0,0,0,1.729h12.957a2.234,2.234,0,0,1,2.191,2.192V27.611a.864.864,0,1,0,1.729,0V3.92A3.848,3.848,0,0,0,278.682,0Z" transform="translate(-245.077)"/>
        <path id="Path_1001563" data-name="Path 1001563" d="M154.616,78.458V31.924a.864.864,0,0,0-.864-.864H144.8a2.655,2.655,0,0,0-2.654,2.655.926.926,0,0,1-.925.925h-3.579a.926.926,0,0,1-.925-.925,2.658,2.658,0,0,0-2.654-2.655h-8.949a.864.864,0,0,0-.864.864V78.458a.864.864,0,0,0,.864.864h12.435a.864.864,0,1,0,0-1.729H125.979V32.789h8.085a.927.927,0,0,1,.925.927,2.654,2.654,0,0,0,2.654,2.654h3.579a2.657,2.657,0,0,0,2.654-2.654.926.926,0,0,1,.925-.927h8.085V77.594H141.316a.864.864,0,1,0,0,1.729h12.435A.864.864,0,0,0,154.616,78.458Z" transform="translate(-120.672 -27.481)"/>
        <path id="Path_1001564" data-name="Path 1001564" d="M217.438,466.8a.864.864,0,0,0,.864.864h7.159a.864.864,0,0,0,0-1.729H218.3A.864.864,0,0,0,217.438,466.8Z" transform="translate(-203.12 -412.243)"/>
        <path id="Path_1001565" data-name="Path 1001565" d="M167.274,221.491a15.625,15.625,0,0,0,10.993-4.564.864.864,0,0,0,0-1.221,15.426,15.426,0,0,0-10.983-4.551h-.734a15.426,15.426,0,0,0-10.983,4.551.864.864,0,0,0,0,1.221,15.626,15.626,0,0,0,10.993,4.564h.717Zm-.356-8.607a3.433,3.433,0,1,1-3.433,3.433A3.437,3.437,0,0,1,166.918,212.883Zm4.291,6.3a5.194,5.194,0,0,0,0-5.736,13.687,13.687,0,0,1,5.187,2.871A13.906,13.906,0,0,1,171.209,219.182Zm-8.578-5.737a5.194,5.194,0,0,0,0,5.739,13.906,13.906,0,0,1-5.188-2.867A13.689,13.689,0,0,1,162.631,213.445Z" transform="translate(-148.154 -186.822)"/>
        <path id="Path_1001566" data-name="Path 1001566" d="M156.177,160.621a.864.864,0,0,0,.864-.864v-2.715h2.715a.864.864,0,1,0,0-1.729h-3.58a.864.864,0,0,0-.864.864v3.58A.864.864,0,0,0,156.177,160.621Z" transform="translate(-148.154 -137.415)"/>
        <path id="Path_1001567" data-name="Path 1001567" d="M315.068,160.621a.864.864,0,0,0,.864-.864v-3.58a.864.864,0,0,0-.864-.864h-3.58a.864.864,0,1,0,0,1.729H314.2v2.715A.864.864,0,0,0,315.068,160.621Z" transform="translate(-285.567 -137.415)"/>
        <path id="Path_1001568" data-name="Path 1001568" d="M315.068,310.624a.864.864,0,0,0-.864.864V314.2h-2.715a.864.864,0,1,0,0,1.729h3.58a.864.864,0,0,0,.864-.864v-3.58A.864.864,0,0,0,315.068,310.624Z" transform="translate(-285.567 -274.828)"/>
        <path id="Path_1001569" data-name="Path 1001569" d="M156.177,310.624a.864.864,0,0,0-.864.864v3.58a.864.864,0,0,0,.864.864h3.58a.864.864,0,1,0,0-1.729h-2.715v-2.715A.864.864,0,0,0,156.177,310.624Z" transform="translate(-148.154 -274.828)"/>
      </g>
    </g>
  </g>
</svg>
