<svg xmlns="http://www.w3.org/2000/svg" width="100" height="100" viewBox="0 0 100 100">
  <g id="img13" transform="translate(-637 -6992)">
    <g id="Group_1098742" data-name="Group 1098742" transform="translate(637.242 6992)">
      <rect id="Rectangle_400898" data-name="Rectangle 400898" width="100" height="100" rx="50" transform="translate(-0.242)" fill="#fff" opacity="0.859"/>
      <g id="Rectangle_400907" data-name="Rectangle 400907" transform="translate(-0.242)" fill="none" stroke="#2142dc" stroke-linecap="round" stroke-width="3" stroke-dasharray="0 7">
        <rect width="100" height="100" rx="50" stroke="none"/>
        <rect x="1.5" y="1.5" width="97" height="97" rx="48.5" fill="none"/>
      </g>
    </g>
    <g id="Group_1107006" data-name="Group 1107006" transform="translate(645.398 7000.157)">
      <rect id="Rectangle_400898-2" data-name="Rectangle 400898" width="84" height="84" rx="42" transform="translate(-0.399 -0.157)" fill="#a8b8ff" opacity="0.859"/>
      <rect id="Rectangle_400907-2" data-name="Rectangle 400907" width="84" height="84" rx="42" transform="translate(-0.398 -0.157)" fill="none"/>
    </g>
    <g id="Group_1187235" data-name="Group 1187235" transform="translate(662.401 7017.384)">
      <path id="Path_1001453" data-name="Path 1001453" d="M96.016,40.008V84.3h32.81V40.008Zm0,0" transform="translate(-86.18 -35.899)" fill="#348fd9"/>
      <path id="Path_1001454" data-name="Path 1001454" d="M127.186,45.75l-5.742-5.742H96.016V82.661h31.17Zm0,0" transform="translate(-86.181 -35.899)" fill="#3086cd"/>
      <path id="Path_1001455" data-name="Path 1001455" d="M64.016,52.3h32.81V15.39L89.443,8.008H64.016Zm0,0" transform="translate(-57.461 -7.18)" fill="#60d1e0"/>
      <path id="Path_1001456" data-name="Path 1001456" d="M319.4,15.39h-7.382V8.008Zm0,0" transform="translate(-280.034 -7.18)" fill="#9fe4ed"/>
      <path id="Path_1001457" data-name="Path 1001457" d="M147.084,176.008l-27.068,27.068h27.068Zm0,0" transform="translate(-107.72 -157.955)" fill="#5ac6d4"/>
      <path id="Path_1001458" data-name="Path 1001458" d="M201.241,336.211H184.836a.82.82,0,0,1-.82-.82v-6.562a.82.82,0,0,1,.82-.82h16.405a.82.82,0,0,1,.82.82v6.562A.82.82,0,0,1,201.241,336.211Zm-15.585-1.641h14.765v-4.922H185.656Zm0,0" transform="translate(-165.158 -294.37)" fill="#348fd9"/>
      <path id="Path_1001459" data-name="Path 1001459" d="M216.016,360.008H219.3v1.641h-3.281Zm0,0" transform="translate(-193.877 -323.089)" fill="#348fd9"/>
      <path id="Path_1001460" data-name="Path 1001460" d="M264.016,360.008h6.562v1.641h-6.562Zm0,0" transform="translate(-236.955 -323.089)" fill="#348fd9"/>
      <path id="Path_1001461" data-name="Path 1001461" d="M248.016,220.933l4.921-4.921L264.421,227.5l-4.921,4.921Zm0,0" transform="translate(-222.596 -193.857)" fill="#e0e0de"/>
      <path id="Path_1001462" data-name="Path 1001462" d="M316.32,144.008a4.922,4.922,0,0,0-4.922,4.922v.41l-7.382,7.792,4.1,4.1,7.792-7.382h.41a4.922,4.922,0,1,0,0-9.843Zm0,0" transform="translate(-272.854 -129.236)" fill="#95573a"/>
      <path id="Path_1001463" data-name="Path 1001463" d="M224.02,266.465,226.481,264l11.484,11.484-2.461,2.461Zm0,0" transform="translate(-201.06 -236.928)" fill="#ebebe9"/>
      <path id="Path_1001464" data-name="Path 1001464" d="M336.366,148.246c-3.4,8.594-8.708,12.7-12.26,14.749l2.041,2.041,7.792-7.382h.41a4.922,4.922,0,0,0,2.016-9.408Zm0,0" transform="translate(-290.884 -133.039)" fill="#8f4d2e"/>
      <path id="Path_1001465" data-name="Path 1001465" d="M191.27,58.776a1.395,1.395,0,0,0-1.861-1.861,1.395,1.395,0,0,0-2.63,0,1.395,1.395,0,0,0-1.856,1.861,1.395,1.395,0,0,0,0,2.63,1.395,1.395,0,0,0,1.861,1.856,1.395,1.395,0,0,0,2.63,0A1.395,1.395,0,0,0,191.27,61.4a1.395,1.395,0,0,0,0-2.625Zm0,0" transform="translate(-165.137 -50.237)" fill="#ffb531"/>
      <path id="Path_1001466" data-name="Path 1001466" d="M77.96,65.03a9.016,9.016,0,0,0-13.944-7.557V72.587A9.016,9.016,0,0,0,77.96,65.03Zm0,0" transform="translate(-57.462 -50.257)" fill="#5ac6d4"/>
      <path id="Path_1001467" data-name="Path 1001467" d="M328.016,80.008h5.742v1.641h-5.742Zm0,0" transform="translate(-294.393 -71.797)" fill="#5ac6d4"/>
      <g id="Group_1187234" data-name="Group 1187234" transform="translate(10.656 16.413)">
        <path id="Path_1001468" data-name="Path 1001468" d="M152.016,232.008h8.2v1.641h-8.2Zm0,0" transform="translate(-147.094 -224.626)" fill="#3fb7c7"/>
        <path id="Path_1001469" data-name="Path 1001469" d="M104.016,264.008h9.843v1.641h-9.843Zm0,0" transform="translate(-104.016 -253.345)" fill="#3fb7c7"/>
        <path id="Path_1001470" data-name="Path 1001470" d="M104.016,200.008h17.225v1.641H104.016Zm0,0" transform="translate(-104.016 -195.907)" fill="#3fb7c7"/>
        <path id="Path_1001471" data-name="Path 1001471" d="M104.016,296.008h4.922v1.641h-4.922Zm0,0" transform="translate(-104.016 -282.064)" fill="#3fb7c7"/>
        <path id="Path_1001472" data-name="Path 1001472" d="M104.016,328.008h6.562v1.641h-6.562Zm0,0" transform="translate(-104.016 -310.783)" fill="#3fb7c7"/>
        <path id="Path_1001473" data-name="Path 1001473" d="M104.016,360.008h6.562v1.641h-6.562Zm0,0" transform="translate(-104.016 -339.502)" fill="#3fb7c7"/>
        <path id="Path_1001474" data-name="Path 1001474" d="M104.016,392.008h6.562v1.641h-6.562Zm0,0" transform="translate(-104.016 -368.221)" fill="#3fb7c7"/>
        <path id="Path_1001475" data-name="Path 1001475" d="M104.016,232.008H107.3v1.641h-3.281Zm0,0" transform="translate(-104.016 -224.626)" fill="#3fb7c7"/>
        <path id="Path_1001476" data-name="Path 1001476" d="M168.016,296.008H171.3v1.641h-3.281Zm0,0" transform="translate(-161.454 -282.064)" fill="#3fb7c7"/>
        <path id="Path_1001477" data-name="Path 1001477" d="M168.016,160.008H171.3v1.641h-3.281Zm0,0" transform="translate(-161.454 -160.008)" fill="#3fb7c7"/>
        <path id="Path_1001478" data-name="Path 1001478" d="M216.016,160.008h6.562v1.641h-6.562Zm0,0" transform="translate(-204.532 -160.008)" fill="#3fb7c7"/>
      </g>
      <path id="Path_1001479" data-name="Path 1001479" d="M26.062,49.031a9.023,9.023,0,1,1-9.023-9.023A9.023,9.023,0,0,1,26.062,49.031Zm0,0" transform="translate(-7.203 -35.899)" fill="#7eb457"/>
      <path id="Path_1001480" data-name="Path 1001480" d="M37.4,91.954a.82.82,0,0,1-.58-.24l-2.461-2.461,1.16-1.16L37.4,89.974l7.623-7.623,1.16,1.16-8.2,8.2a.82.82,0,0,1-.58.24Zm0,0" transform="translate(-30.846 -73.901)" fill="#ffb531"/>
      <path id="Path_1001481" data-name="Path 1001481" d="M192.441,111.059a8.915,8.915,0,0,0-.542-1.723A1.374,1.374,0,0,0,192.441,111.059Zm0,0" transform="translate(-172.13 -98.119)" fill="#f98500"/>
      <path id="Path_1001482" data-name="Path 1001482" d="M184.988,95.409a9.059,9.059,0,0,0-.84-1.5A1.365,1.365,0,0,0,184.988,95.409Zm0,0" transform="translate(-165.258 -84.274)" fill="#f98500"/>
      <path id="Path_1001483" data-name="Path 1001483" d="M388.117,41.031v-8.2a.82.82,0,0,0-.82-.82h-3.281v1.641h2.461v7.382Zm0,0" transform="translate(-344.651 -28.719)"/>
      <path id="Path_1001484" data-name="Path 1001484" d="M56.016,240.008v20.506a.82.82,0,0,0,.82.82h32.81a.82.82,0,0,0,.82-.82v-5.742H88.826v4.922H57.656V240.008Zm0,0" transform="translate(-50.282 -215.393)"/>
      <path id="Path_1001485" data-name="Path 1001485" d="M82.6.09c-.026-.012-.05-.018-.076-.027A.815.815,0,0,0,82.314.02a.313.313,0,0,0-.051-.012H56.836a.82.82,0,0,0-.82.82V2.469h1.641v-.82H81.443V8.21a.82.82,0,0,0,.82.82h6.562v4.1h1.641V8.21c0-.017-.009-.033-.01-.051a.8.8,0,0,0-.042-.212c-.009-.026-.016-.051-.027-.076a.815.815,0,0,0-.164-.24L82.84.248A.822.822,0,0,0,82.6.09Zm5.063,7.3H83.084V2.808Zm0,0" transform="translate(-50.281)"/>
      <path id="Path_1001486" data-name="Path 1001486" d="M184.016,328.828v6.562a.82.82,0,0,0,.82.82H195.5V334.57h-9.843v-4.922h4.1v-1.641h-4.922A.82.82,0,0,0,184.016,328.828Zm0,0" transform="translate(-165.158 -294.37)"/>
      <path id="Path_1001487" data-name="Path 1001487" d="M216.016,360.008h4.922v1.641h-4.922Zm0,0" transform="translate(-193.877 -323.089)"/>
      <path id="Path_1001488" data-name="Path 1001488" d="M129.646,136.008a5.749,5.749,0,0,0-5.742,5.742v.082l-4.183,4.416-2.619-2.619a.82.82,0,0,0-1.16,0l-7.382,7.382a.821.821,0,0,0,0,1.16l11.484,11.484a.821.821,0,0,0,1.16,0l2.461-2.461,4.342-4.34v12.784H96.016v1.641h32.81a.82.82,0,0,0,.82-.82V150.773h-1.641v3.762l-2.859-2.859,4.418-4.183h.082a5.742,5.742,0,0,0,0-11.484Zm-9.023,25.909L110.3,151.593l1.3-1.3,10.324,10.324Zm6.222-6.222-3.762,3.762-10.324-10.324,3.762-3.762,2.07,2.07-1.846,1.947a.82.82,0,0,0,.016,1.148l4.1,4.1a.82.82,0,0,0,1.143.016l1.948-1.846Zm2.8-9.843h-.41a.822.822,0,0,0-.564.225l-7.212,6.83-2.969-2.969,6.833-7.212a.82.82,0,0,0,.221-.564v-.41a4.1,4.1,0,1,1,4.1,4.1Zm0,0" transform="translate(-86.181 -122.056)"/>
      <path id="Path_1001489" data-name="Path 1001489" d="M152.016,232.008h8.2v1.641h-8.2Zm0,0" transform="translate(-136.439 -208.213)"/>
      <path id="Path_1001490" data-name="Path 1001490" d="M104.016,264.008h9.843v1.641h-9.843Zm0,0" transform="translate(-93.36 -236.932)"/>
      <path id="Path_1001491" data-name="Path 1001491" d="M176.016,200.008h9.843v1.641h-9.843Zm0,0" transform="translate(-157.978 -179.494)"/>
      <path id="Path_1001492" data-name="Path 1001492" d="M104.016,296.008h4.922v1.641h-4.922Zm0,0" transform="translate(-93.36 -265.651)"/>
      <path id="Path_1001493" data-name="Path 1001493" d="M104.016,328.008h6.562v1.641h-6.562Zm0,0" transform="translate(-93.36 -294.37)"/>
      <path id="Path_1001494" data-name="Path 1001494" d="M104.016,360.008h6.562v1.641h-6.562Zm0,0" transform="translate(-93.36 -323.089)"/>
      <path id="Path_1001495" data-name="Path 1001495" d="M104.016,392.008h6.562v1.641h-6.562Zm0,0" transform="translate(-93.36 -351.808)"/>
      <path id="Path_1001496" data-name="Path 1001496" d="M104.016,232.008H107.3v1.641h-3.281Zm0,0" transform="translate(-93.36 -208.213)"/>
      <path id="Path_1001497" data-name="Path 1001497" d="M168.016,296.008H171.3v1.641h-3.281Zm0,0" transform="translate(-150.798 -265.651)"/>
      <path id="Path_1001498" data-name="Path 1001498" d="M200.016,160.008h8.2v1.641h-8.2Zm0,0" transform="translate(-179.517 -143.595)"/>
      <path id="Path_1001499" data-name="Path 1001499" d="M9.835,51.681a9.843,9.843,0,0,0,9.826-9.5,2.168,2.168,0,0,0,1.59.5,2.225,2.225,0,0,0,3.416,0,2.225,2.225,0,0,0,2.415-2.415,2.225,2.225,0,0,0,0-3.416,2.225,2.225,0,0,0-2.415-2.415,2.225,2.225,0,0,0-3.416,0,2.225,2.225,0,0,0-2.415,2.415,2.129,2.129,0,0,0-.328.338A9.843,9.843,0,1,0,9.835,51.681ZM20.06,38.016a.82.82,0,0,0,.466-1.124.574.574,0,0,1,.767-.767.82.82,0,0,0,1.124-.466.574.574,0,0,1,1.083,0,.82.82,0,0,0,1.125.466.574.574,0,0,1,.767.767.82.82,0,0,0,.466,1.124.574.574,0,0,1,0,1.083.82.82,0,0,0-.466,1.125.552.552,0,0,1-.113.656.558.558,0,0,1-.656.113.82.82,0,0,0-1.124.466.574.574,0,0,1-1.083,0,.818.818,0,0,0-.459-.483.836.836,0,0,0-.314-.062.8.8,0,0,0-.351.082.574.574,0,0,1-.767-.767.82.82,0,0,0-.466-1.125.574.574,0,0,1,0-1.083ZM9.835,33.636a8.2,8.2,0,1,1-8.2,8.2,8.2,8.2,0,0,1,8.2-8.2Zm0,0" transform="translate(0 -28.707)"/>
      <path id="Path_1001500" data-name="Path 1001500" d="M36.82,91.714a.821.821,0,0,0,1.16,0l8.2-8.2-1.16-1.16L37.4,89.974l-1.881-1.881-1.16,1.16Zm0,0" transform="translate(-30.846 -73.901)"/>
    </g>
  </g>
</svg>
