<svg xmlns="http://www.w3.org/2000/svg" width="105" height="104" viewBox="0 0 105 104">
  <g id="img2" transform="translate(-179.727 -536.726)">
    <rect id="Rectangle_454198" data-name="Rectangle 454198" width="105" height="104" rx="10" transform="translate(179.727 536.726)" fill="#a8b8ff"/>
    <circle id="Ellipse_13568" data-name="Ellipse 13568" cx="30.5" cy="30.5" r="30.5" transform="translate(201.727 558.726)" fill="#e5eaff"/>
    <ellipse id="Ellipse_13569" data-name="Ellipse 13569" cx="42" cy="41.5" rx="42" ry="41.5" transform="translate(190.727 546.726)" fill="none" stroke="#e5eaff" stroke-width="1"/>
    <circle id="Ellipse_13570" data-name="Ellipse 13570" cx="3.5" cy="3.5" r="3.5" transform="translate(204.727 551.726)" fill="#2142dc"/>
    <g id="Group_1182113" data-name="Group 1182113" transform="translate(205.056 561.582)">
      <g id="Group_1182110" data-name="Group 1182110" transform="translate(0.8 0.8)">
        <g id="Group_1182099" data-name="Group 1182099" transform="translate(0 4.589)">
          <g id="Group_1182098" data-name="Group 1182098">
            <g id="Group_1182093" data-name="Group 1182093">
              <g id="Group_1182092" data-name="Group 1182092">
                <g id="Group_1182090" data-name="Group 1182090">
                  <path id="Path_990920" data-name="Path 990920" d="M21.053,80.345a2.661,2.661,0,0,0,1.07-3.609l-2.259-4.163a20.871,20.871,0,0,0,2.674-5.58,23.971,23.971,0,0,0,.8-3.965,4.176,4.176,0,0,0-1.2-3.438L13.06,50.512,7.5,56.072l10.631,9.193-2.475,7.423,4.234,7.329a.866.866,0,0,0,1.163.328Z" transform="translate(-7.5 -50.512)" fill="#a34f41"/>
                  <path id="Path_990921" data-name="Path 990921" d="M69.908,236.374l-.7,2.369,2.259,4.163a2.661,2.661,0,0,1-1.07,3.609.866.866,0,0,1-1.163-.328L65,238.857l1.212-4.089Z" transform="translate(-58.863 -215.108)" fill="#a34f41"/>
                  <path id="Path_990922" data-name="Path 990922" d="M50.874,176.571l-3.836-1.137-3.6,12.152,4.234,7.329a.866.866,0,0,0,1.163.328,2.661,2.661,0,0,0,1.07-3.609l-2.259-4.163Z" transform="translate(-39.602 -162.105)" fill="#a34f41"/>
                </g>
                <g id="Group_1182091" data-name="Group 1182091" transform="translate(6.026 10.554)">
                  <path id="Path_990923" data-name="Path 990923" d="M67.586,163.912l-3.421-5.481-.183-4.033a3.072,3.072,0,0,1,.777-2.185l1.772-1.985.92-.5a2.5,2.5,0,0,1,3.393,1.006c.755,1.458-.144,5.03-1.789,6.038-.157.1-.648.351-.648.351l1.678,3.093a2.979,2.979,0,0,1-1.2,4.039A.983.983,0,0,1,67.586,163.912Z" transform="translate(-63.98 -149.425)" fill="#ba5d4f"/>
                </g>
              </g>
            </g>
            <g id="Group_1182097" data-name="Group 1182097" transform="translate(37.362 10.803)">
              <g id="Group_1182096" data-name="Group 1182096">
                <g id="Group_1182094" data-name="Group 1182094">
                  <path id="Path_990924" data-name="Path 990924" d="M359.974,182.847a2.661,2.661,0,0,0-1.07,3.609l2.259,4.163a20.871,20.871,0,0,0-2.674,5.58,23.97,23.97,0,0,0-.8,3.965,4.176,4.176,0,0,0,1.2,3.438l8.882,8.882,5.56-5.56-10.435-9,2.475-7.423-4.234-7.329A.866.866,0,0,0,359.974,182.847Z" transform="translate(-357.664 -179.436)" fill="#6c3328"/>
                  <path id="Path_990925" data-name="Path 990925" d="M387.086,178.246l.7-2.369-2.259-4.163a2.661,2.661,0,0,1,1.07-3.609.866.866,0,0,1,1.163.328L392,175.762l-1.212,4.089Z" transform="translate(-382.267 -166.268)" fill="#6c3328"/>
                  <path id="Path_990926" data-name="Path 990926" d="M400.687,170.54l3.836,1.137,3.6-12.153-4.234-7.329a.866.866,0,0,0-1.163-.328,2.661,2.661,0,0,0-1.07,3.609l2.259,4.163Z" transform="translate(-396.096 -151.763)" fill="#6c3328"/>
                </g>
                <g id="Group_1182095" data-name="Group 1182095" transform="translate(2.701 7.74)">
                  <path id="Path_990927" data-name="Path 990927" d="M386.51,224.768l3.421,5.481.183,4.033a3.072,3.072,0,0,1-.777,2.185l-1.772,1.985-.92.5a2.5,2.5,0,0,1-3.393-1.006c-.755-1.458.144-5.03,1.789-6.038.157-.1.648-.351.648-.351l-1.678-3.093a2.979,2.979,0,0,1,1.2-4.039A.983.983,0,0,1,386.51,224.768Z" transform="translate(-382.981 -224.305)" fill="#873f30"/>
                </g>
              </g>
            </g>
          </g>
        </g>
        <g id="Group_1182109" data-name="Group 1182109" transform="translate(4.589)">
          <g id="Group_1182108" data-name="Group 1182108">
            <g id="Group_1182103" data-name="Group 1182103" transform="translate(0 37.166)">
              <g id="Group_1182102" data-name="Group 1182102" transform="translate(0 0)">
                <g id="Group_1182100" data-name="Group 1182100">
                  <path id="Path_990928" data-name="Path 990928" d="M80.345,358.138a2.661,2.661,0,0,0-3.609-1.07l-4.163,2.259a20.872,20.872,0,0,0-5.58-2.674,23.97,23.97,0,0,0-3.965-.8,4.176,4.176,0,0,0-3.438,1.2l-9.078,9.078,5.56,5.56,9.193-10.631,7.423,2.475,7.329-4.234a.866.866,0,0,0,.328-1.163Z" transform="translate(-50.512 -355.828)" fill="#ffcec0"/>
                  <path id="Path_990929" data-name="Path 990929" d="M236.374,385.25l2.369.7,4.163-2.259a2.661,2.661,0,0,1,3.609,1.07.866.866,0,0,1-.328,1.163l-7.329,4.234-4.089-1.212Z" transform="translate(-215.108 -380.431)" fill="#ffcec0"/>
                  <path id="Path_990930" data-name="Path 990930" d="M176.571,398.851l-1.137,3.836,12.152,3.6,7.329-4.234a.866.866,0,0,0,.328-1.163,2.661,2.661,0,0,0-3.609-1.07l-4.163,2.259Z" transform="translate(-162.105 -394.26)" fill="#ffcec0"/>
                </g>
                <g id="Group_1182101" data-name="Group 1182101" transform="translate(10.554 2.701)">
                  <path id="Path_990931" data-name="Path 990931" d="M163.912,384.674l-5.481,3.421-4.033.183a3.072,3.072,0,0,1-2.185-.777l-1.985-1.772-.5-.92a2.5,2.5,0,0,1,1.006-3.393c1.458-.755,5.03.144,6.038,1.789.1.157.351.648.351.648l3.093-1.678a2.979,2.979,0,0,1,4.039,1.2A.983.983,0,0,1,163.912,384.674Z" transform="translate(-149.425 -381.145)" fill="#ffdfd0"/>
                </g>
              </g>
            </g>
            <g id="Group_1182107" data-name="Group 1182107" transform="translate(10.803)">
              <g id="Group_1182106" data-name="Group 1182106">
                <g id="Group_1182104" data-name="Group 1182104">
                  <path id="Path_990932" data-name="Path 990932" d="M182.847,20.857a2.661,2.661,0,0,0,3.609,1.07l4.163-2.259a20.872,20.872,0,0,0,5.58,2.674,23.97,23.97,0,0,0,3.965.8,4.176,4.176,0,0,0,3.438-1.2l8.882-8.882-5.56-5.56-9,10.435L190.5,15.46l-7.329,4.234A.866.866,0,0,0,182.847,20.857Z" transform="translate(-179.437 -7.5)" fill="#f9a08f"/>
                  <path id="Path_990933" data-name="Path 990933" d="M178.246,68.071l-2.369-.7-4.163,2.259a2.661,2.661,0,0,1-3.609-1.07.866.866,0,0,1,.328-1.163l7.329-4.234,4.089,1.212Z" transform="translate(-166.268 -57.223)" fill="#f9a08f"/>
                  <path id="Path_990934" data-name="Path 990934" d="M170.54,49.037l1.137-3.836-12.153-3.6L152.2,45.834A.866.866,0,0,0,151.868,47a2.661,2.661,0,0,0,3.609,1.07l4.163-2.259Z" transform="translate(-151.763 -37.961)" fill="#f9a08f"/>
                </g>
                <g id="Group_1182105" data-name="Group 1182105" transform="translate(7.74 5.83)">
                  <path id="Path_990935" data-name="Path 990935" d="M224.768,65.75l5.481-3.421,4.033-.183a3.072,3.072,0,0,1,2.185.777l1.985,1.772.5.92a2.5,2.5,0,0,1-1.006,3.393c-1.458.755-5.03-.144-6.038-1.789-.1-.157-.351-.648-.351-.648l-3.093,1.678a2.979,2.979,0,0,1-4.039-1.2A.983.983,0,0,1,224.768,65.75Z" transform="translate(-224.305 -62.144)" fill="#fdb0a0"/>
                </g>
              </g>
            </g>
          </g>
        </g>
      </g>
      <g id="Group_1182112" data-name="Group 1182112" transform="translate(0 0)">
        <path id="Path_990936" data-name="Path 990936" d="M199.007,210.488a4.428,4.428,0,0,0-6.262-6.262,4.428,4.428,0,0,0-6.262,6.262l5.662,5.662a.85.85,0,0,0,1.2,0Z" transform="translate(-165.43 -181.28)" fill="#fc78a8"/>
        <path id="Path_990937" data-name="Path 990937" d="M247.573,210.5l-5.662,5.662a.849.849,0,0,1-1.2,0l-1.154-1.154,5.525-5.526c1.726-1.729,2.182-4.073.454-5.8a4.433,4.433,0,0,0-.969-.735,4.428,4.428,0,0,1,3.007,7.553Z" transform="translate(-213.996 -181.296)" fill="#fc5a95"/>
        <g id="Group_1182111" data-name="Group 1182111">
          <path id="Path_990938" data-name="Path 990938" d="M9.615,77.858a1.672,1.672,0,0,0,.8-.2,3.442,3.442,0,0,0,1.461-1.533l.044,0a1.669,1.669,0,0,0,.8-.2A3.44,3.44,0,0,0,14.1,74.542a1.663,1.663,0,0,0,.639-.194,3.462,3.462,0,0,0,1.391-4.694L14.1,65.916a21.8,21.8,0,0,0,2.507-5.4,24.515,24.515,0,0,0,.825-4.1A4.948,4.948,0,0,0,16,52.323L6.927,43.246A.8.8,0,1,0,5.8,44.377l9.078,9.078a3.356,3.356,0,0,1,.968,2.779,22.907,22.907,0,0,1-.77,3.831A19.708,19.708,0,0,1,13.3,64.151l-.959-1.768c1.521-.947,2.383-3.38,2.422-5.2a.8.8,0,0,0-.783-.817h-.018a.8.8,0,0,0-.8.783c-.034,1.566-.8,3.341-1.677,3.877-.092.056-.406.223-.6.324a.8.8,0,0,0-.334,1.092l1.678,3.093a2.181,2.181,0,0,1-.876,2.954.183.183,0,0,1-.242-.064l-3.31-5.3L7.629,59.3A2.26,2.26,0,0,1,8.2,57.686L9.883,55.8l1.378-.748A.8.8,0,1,0,10.5,53.65L9,54.465a.8.8,0,0,0-.215.171l-.292.327-7.165-6.2A.8.8,0,1,0,.277,49.977l7.146,6.18-.414.463a3.852,3.852,0,0,0-.979,2.754l.094,2.085c-.006.016-.893,3-.893,3a.8.8,0,1,0,1.535.455l.087-.292,1.7,2.721-.475,1.6a.8.8,0,0,0,.064.609L10.4,73.722a1.861,1.861,0,0,1-.748,2.524.066.066,0,0,1-.088-.025L5.5,69.19l.194-.654a.8.8,0,1,0-1.534-.455l-.291.984a.8.8,0,0,0,.074.628l4.234,7.329a1.656,1.656,0,0,0,1.438.836Zm5.254-6.024a1.854,1.854,0,0,1-.364.673,3.442,3.442,0,0,0-.4-1.28L13.017,69.22a3.763,3.763,0,0,0,.608-.822l1.1,2.019A1.849,1.849,0,0,1,14.869,71.834ZM9.938,69.518a1.779,1.779,0,0,0,1.72.552L12.7,71.99a1.863,1.863,0,0,1-.486,2.349,3.44,3.44,0,0,0-.407-1.38Z" transform="translate(-0.001 -38.422)"/>
          <path id="Path_990939" data-name="Path 990939" d="M361.5,160.611l2.258-7.582a.8.8,0,0,0-.074-.628l-4.234-7.329a1.657,1.657,0,0,0-2.237-.631,3.436,3.436,0,0,0-1.464,1.533,1.661,1.661,0,0,0-.837.2,3.441,3.441,0,0,0-1.383,1.379,1.664,1.664,0,0,0-.638.194,3.462,3.462,0,0,0-1.391,4.694l2.028,3.737a21.7,21.7,0,0,0-2.507,5.4,24.511,24.511,0,0,0-.825,4.1,4.948,4.948,0,0,0,1.426,4.1l8.882,8.882a.8.8,0,0,0,1.132-1.132l-8.882-8.882a3.357,3.357,0,0,1-.968-2.779,22.913,22.913,0,0,1,.77-3.831,19.883,19.883,0,0,1,1.774-4.084l.959,1.766c-1.521.947-2.383,3.38-2.423,5.2a.8.8,0,1,0,1.6.035c.034-1.566.8-3.341,1.677-3.877.092-.056.406-.223.6-.324a.8.8,0,0,0,.334-1.092l-1.679-3.093a2.181,2.181,0,0,1,.876-2.954.183.183,0,0,1,.242.064l3.31,5.3.173,3.823a2.26,2.26,0,0,1-.575,1.616l-1.679,1.881-1.378.748a.8.8,0,1,0,.763,1.407l1.5-.814a.8.8,0,0,0,.215-.171l.3-.332,6.966,6.006a.8.8,0,0,0,1.045-1.212l-6.945-5.988.409-.458a3.851,3.851,0,0,0,.979-2.754Zm-8.742-10.35a1.855,1.855,0,0,1,.364-.673,3.442,3.442,0,0,0,.4,1.28l1.089,2.007a3.762,3.762,0,0,0-.608.822l-1.1-2.019A1.849,1.849,0,0,1,352.754,150.261Zm3.211,1.763-1.042-1.92a1.863,1.863,0,0,1,.485-2.348,3.45,3.45,0,0,0,.409,1.379l1.869,3.444A1.788,1.788,0,0,0,355.965,152.025Zm3.106,2.724.475-1.6a.8.8,0,0,0-.064-.609l-2.259-4.163a1.861,1.861,0,0,1,.748-2.524.066.066,0,0,1,.088.025l4.062,7.031-1.353,4.565Z" transform="translate(-312.796 -128.847)"/>
          <path id="Path_990940" data-name="Path 990940" d="M61.514,359.679l7.553,2.239a.8.8,0,0,0,.628-.074l7.329-4.235a1.657,1.657,0,0,0,.631-2.237,3.442,3.442,0,0,0-1.533-1.461,1.656,1.656,0,0,0-.2-.839,3.44,3.44,0,0,0-1.379-1.382,1.66,1.66,0,0,0-.194-.639,3.462,3.462,0,0,0-4.694-1.391l-3.738,2.029a22.055,22.055,0,0,0-5.4-2.507,24.526,24.526,0,0,0-4.1-.825,4.949,4.949,0,0,0-4.1,1.426l-9.078,9.078a.8.8,0,0,0,1.132,1.132l9.078-9.078a3.357,3.357,0,0,1,2.779-.968,22.932,22.932,0,0,1,3.831.77,19.868,19.868,0,0,1,4.085,1.773l-1.766.959c-.947-1.521-3.38-2.383-5.2-2.423h-.018a.8.8,0,0,0-.017,1.6c1.566.034,3.342.8,3.877,1.677.056.092.223.406.324.6a.8.8,0,0,0,1.092.334l3.093-1.678a2.179,2.179,0,0,1,2.954.876.183.183,0,0,1-.064.242l-5.3,3.31-3.823.173a2.259,2.259,0,0,1-1.616-.575L55.807,355.9l-.748-1.378a.8.8,0,0,0-1.407.763l.814,1.5a.8.8,0,0,0,.171.215l.327.292-6.2,7.165a.8.8,0,1,0,1.211,1.047l6.18-7.146.463.414a3.848,3.848,0,0,0,2.575.984q.089,0,.179,0Zm8.558-5.551,1.92-1.042a1.863,1.863,0,0,1,2.349.486,3.442,3.442,0,0,0-1.38.408l-3.444,1.869A1.787,1.787,0,0,0,70.072,354.129Zm.347-3.063a1.859,1.859,0,0,1,2.09.215,3.442,3.442,0,0,0-1.28.4l-2.006,1.088a3.732,3.732,0,0,0-.821-.608Zm5.8,5.157-7.031,4.062-4.565-1.353,2.72-1.7,1.6.476a.8.8,0,0,0,.609-.064l4.163-2.259a1.863,1.863,0,0,1,2.524.748.065.065,0,0,1-.025.088Z" transform="translate(-38.424 -311.156)"/>
          <path id="Path_990941" data-name="Path 990941" d="M322.5,62.194c-.659-.077-1.318-.181-1.957-.309a.8.8,0,1,0-.314,1.569c.681.136,1.382.247,2.084.329a5.034,5.034,0,0,0,.587.034,4.946,4.946,0,0,0,3.51-1.46l8.882-8.882a.8.8,0,1,0-1.132-1.132l-8.882,8.882A3.355,3.355,0,0,1,322.5,62.194Z" transform="translate(-285.484 -46.549)"/>
          <path id="Path_990942" data-name="Path 990942" d="M145.977,11.678a1.664,1.664,0,0,0,.2.838,3.439,3.439,0,0,0,1.379,1.381,1.658,1.658,0,0,0,.194.64,3.439,3.439,0,0,0,2.059,1.668,3.441,3.441,0,0,0,2.635-.276l3.738-2.029a22.609,22.609,0,0,0,3.651,1.893.8.8,0,0,0,.6-1.483,21.008,21.008,0,0,1-2.487-1.211l1.767-.959c.947,1.521,3.38,2.383,5.2,2.423h.018a.8.8,0,0,0,.017-1.6c-1.566-.034-3.342-.8-3.877-1.677-.056-.092-.223-.406-.324-.6a.8.8,0,0,0-1.092-.334l-3.093,1.678a2.179,2.179,0,0,1-2.954-.876.183.183,0,0,1,.064-.242l5.3-3.31,3.823-.173a2.262,2.262,0,0,1,1.616.575l1.881,1.679.748,1.378a.8.8,0,0,0,1.407-.763l-.814-1.5a.8.8,0,0,0-.171-.215l-.332-.3,6.006-6.966A.8.8,0,1,0,171.922.276l-5.988,6.945-.458-.409a3.852,3.852,0,0,0-2.754-.979l-2.077.094-7.615-2.257a.8.8,0,0,0-.628.074l-7.329,4.235a1.657,1.657,0,0,0-.631,2.237,3.441,3.441,0,0,0,1.535,1.463Zm6.048-.219L150.1,12.5a1.863,1.863,0,0,1-2.35-.487,3.44,3.44,0,0,0,1.381-.407l3.444-1.869a1.788,1.788,0,0,0-.555,1.721Zm-.347,3.063a1.859,1.859,0,0,1-2.09-.216,3.441,3.441,0,0,0,1.281-.4l2.005-1.088a3.733,3.733,0,0,0,.821.608Zm-5.8-5.157L152.9,5.3l4.565,1.353-2.721,1.7-1.6-.476a.8.8,0,0,0-.609.064L148.372,10.2a1.861,1.861,0,0,1-2.524-.748.065.065,0,0,1,.025-.088Z" transform="translate(-128.848 0.002)"/>
          <path id="Path_990943" data-name="Path 990943" d="M186.056,208.91a.05.05,0,0,1-.07,0l-3.14-3.14a.8.8,0,0,0-1.132,1.132l3.14,3.14a1.652,1.652,0,0,0,2.334,0l5.662-5.662a5.229,5.229,0,0,0-6.829-7.883,5.228,5.228,0,0,0-7,7.7.8.8,0,0,0,1.185-1.076,3.628,3.628,0,0,1,5.25-5,.8.8,0,0,0,1.13,0,3.628,3.628,0,0,1,5.131,5.13Z" transform="translate(-158.706 -174.606)"/>
        </g>
      </g>
    </g>
  </g>
</svg>
