<svg xmlns="http://www.w3.org/2000/svg" width="100" height="100" viewBox="0 0 100 100">
  <g id="img30" transform="translate(-315.422 -8156)">
    <rect id="Rectangle_454449" data-name="Rectangle 454449" width="100" height="100" rx="10" transform="translate(315.422 8156)" fill="#a8b8ff"/>
    <g id="Group_1187330" data-name="Group 1187330" transform="translate(221.118 8168.582)">
      <g id="Group_1187328" data-name="Group 1187328" transform="translate(126.401 1.096)">
        <path id="Path_1001630" data-name="Path 1001630" d="M287.009,265.883v-5.256l-3.286-2-2.639,2v7.853a3.329,3.329,0,0,0,3.329,3.329h4.95a2.963,2.963,0,1,0,0-5.925Z" transform="translate(-259.411 -221.921)" fill="#ffddce"/>
        <path id="Path_1001631" data-name="Path 1001631" d="M286.966,271.813h-2.554a3.329,3.329,0,0,1-3.328-3.33v-7.853l2.639-2,1.415.862-1.5,1.138v7.853A3.33,3.33,0,0,0,286.966,271.813Z" transform="translate(-259.411 -221.925)" fill="#ffcbbe"/>
        <path id="Path_1001632" data-name="Path 1001632" d="M162.367,193.411v1.425h-5.925v8.97l-6.731,1.56-8.68-1.56-5.925-8.971v-1.425a11.837,11.837,0,0,1,11.837-11.837h3.586A11.838,11.838,0,0,1,162.367,193.411Z" transform="translate(-134.769 -156.131)" fill="#bed8fb"/>
        <path id="Path_1001633" data-name="Path 1001633" d="M175.643,333.682h15.412v23.4H175.643Z" transform="translate(-169.382 -286.006)" fill="#df75a5"/>
        <path id="Path_1001634" data-name="Path 1001634" d="M175.643,333.682H177.6V358.65h-1.952Z" transform="translate(-169.382 -286.006)" fill="#dd5790"/>
        <path id="Path_1001635" data-name="Path 1001635" d="M239.674,477.258a2.148,2.148,0,0,1-2.148,2.148h-9.163v-4.3h9.163a2.147,2.147,0,0,1,2.148,2.148Z" transform="translate(-214.396 -406.762)" fill="#407093"/>
        <path id="Path_1001636" data-name="Path 1001636" d="M221.7,478.777a2.141,2.141,0,0,0,1.519.629h-4.827l-1.707-2.2,1.707-2.1h4.827a2.148,2.148,0,0,0-1.519,3.667Z" transform="translate(-204.425 -406.762)" fill="#365e7d"/>
        <path id="Path_1001637" data-name="Path 1001637" d="M138.229,199.562l-3.124-4.729v-1.425a11.837,11.837,0,0,1,11.837-11.837h1.95a11.837,11.837,0,0,0-11.837,11.837v1.425l2.249,3.406Z" transform="translate(-134.769 -156.127)" fill="#9dc6fb"/>
        <g id="Group_1187327" data-name="Group 1187327" transform="translate(0)">
          <path id="Path_1001638" data-name="Path 1001638" d="M157.594,109.046H135.953a3.146,3.146,0,1,1,0-6.293h21.641a3.146,3.146,0,1,1,0,6.293Z" transform="translate(-132.807 -88.83)" fill="#eaac9d"/>
          <path id="Path_1001639" data-name="Path 1001639" d="M175.147,58.077a9.11,9.11,0,0,1-9.11-9.11v-8.63a9.11,9.11,0,1,1,18.22,0v8.63A9.11,9.11,0,0,1,175.147,58.077Z" transform="translate(-161.18 -27.759)" fill="#ffddce"/>
          <path id="Path_1001640" data-name="Path 1001640" d="M177.484,57.777a9.118,9.118,0,0,1-11.448-8.808V40.34a9.118,9.118,0,0,1,11.448-8.808,9.114,9.114,0,0,0-6.773,8.808v8.629A9.114,9.114,0,0,0,177.484,57.777Z" transform="translate(-161.179 -27.761)" fill="#ffcbbe"/>
          <path id="Path_1001641" data-name="Path 1001641" d="M149.272,18.994h.8a4.4,4.4,0,0,1,4.4,4.4v.034a4.4,4.4,0,0,1-4.4,4.4h-.8a4.4,4.4,0,0,1-4.4-4.4v-.034A4.4,4.4,0,0,1,149.272,18.994Z" transform="translate(-143.113 -17.314)" fill="#c0976f"/>
          <path id="Path_1001642" data-name="Path 1001642" d="M151.246,27.661a4.326,4.326,0,0,1-1.174.16h-.8a4.4,4.4,0,0,1-4.4-4.395v-.034a4.4,4.4,0,0,1,4.4-4.395h.8a4.326,4.326,0,0,1,1.174.16,4.392,4.392,0,0,0-3.223,4.235v.034A4.392,4.392,0,0,0,151.246,27.661Z" transform="translate(-143.112 -17.317)" fill="#b28968"/>
          <path id="Path_1001643" data-name="Path 1001643" d="M205.242,12.3a6.318,6.318,0,0,0,6.318,6.318A10.276,10.276,0,0,0,221.836,8.337V7.5H209.808A4.571,4.571,0,0,0,205.242,12.3Z" transform="translate(-194.65 -7.5)" fill="#c0976f"/>
          <path id="Path_1001644" data-name="Path 1001644" d="M213.611,18.413a10.316,10.316,0,0,1-2.051.2,6.317,6.317,0,0,1-6.318-6.318,4.571,4.571,0,0,1,4.566-4.795h3.653A4.571,4.571,0,0,0,208.9,12.3,6.321,6.321,0,0,0,213.611,18.413Z" transform="translate(-194.65 -7.504)" fill="#b28968"/>
          <g id="Group_1187326" data-name="Group 1187326" transform="translate(7.442 12.607)">
            <circle id="Ellipse_13669" data-name="Ellipse 13669" cx="2.588" cy="2.588" r="2.588" fill="#407093"/>
            <circle id="Ellipse_13670" data-name="Ellipse 13670" cx="2.588" cy="2.588" r="2.588" transform="translate(7.874)" fill="#407093"/>
          </g>
        </g>
        <path id="Path_1001645" data-name="Path 1001645" d="M141.03,272.307h-5.925v14.144a2.963,2.963,0,1,0,5.925,0Z" transform="translate(-134.769 -233.602)" fill="#ffddce"/>
        <path id="Path_1001646" data-name="Path 1001646" d="M139.04,289.247a2.9,2.9,0,0,1-.975.166,2.963,2.963,0,0,1-2.963-2.963V272.306h1.95V286.45A2.962,2.962,0,0,0,139.04,289.247Z" transform="translate(-134.767 -233.601)" fill="#ffcbbe"/>
        <path id="Path_1001647" data-name="Path 1001647" d="M162.287,475.11v4.3h-9.163a2.148,2.148,0,1,1,0-4.3Z" transform="translate(-148.32 -406.762)" fill="#407093"/>
        <path id="Path_1001648" data-name="Path 1001648" d="M155.2,478.777a2.14,2.14,0,0,0,1.519.629h-3.593a2.148,2.148,0,0,1,0-4.3h3.593a2.148,2.148,0,0,0-1.519,3.667Z" transform="translate(-148.321 -406.762)" fill="#365e7d"/>
      </g>
      <g id="Group_1187329" data-name="Group 1187329" transform="translate(125.304 0)">
        <path id="Path_1001649" data-name="Path 1001649" d="M204.769,140.788a3.7,3.7,0,0,1-5.23,0,1.1,1.1,0,1,0-1.55,1.55,5.891,5.891,0,0,0,8.331,0,1.1,1.1,0,0,0-1.55-1.55Z" transform="translate(-187.09 -119.936)"/>
        <path id="Path_1001650" data-name="Path 1001650" d="M163.472,73.008l-5.75-21.166a4.059,4.059,0,0,0-1.369-7.88h-1.258V38.377a12.87,12.87,0,0,0-.9-4.759,1.1,1.1,0,0,0-2.039.807,10.691,10.691,0,0,1,.75,3.952v.329h-4.829a1.1,1.1,0,0,0-1.1,1.1v7.874H133.758V39.8a1.1,1.1,0,0,0-1.1-1.1h-4.829v-.328a10.7,10.7,0,0,1,5.069-9.122,10.185,10.185,0,0,0,14.931,0,10.707,10.707,0,0,1,2.195,1.81,1.1,1.1,0,1,0,1.607-1.491,12.894,12.894,0,0,0-2.483-2.078,10.141,10.141,0,0,0,1.421-5.088h.616a4.242,4.242,0,1,0,0-8.484h-.613V10.676a11.353,11.353,0,0,0,4.108-8.742V1.1a1.1,1.1,0,0,0-1.1-1.1H141.558a5.617,5.617,0,0,0-4.1,1.76,5.736,5.736,0,0,0-.781,1.033,5.465,5.465,0,0,0-3.312-1.111h-.8a5.5,5.5,0,0,0-5.491,5.491v.034a5.5,5.5,0,0,0,3.092,4.938v1.779h-.614a4.242,4.242,0,1,0,0,8.484h.617a10.144,10.144,0,0,0,1.42,5.087,12.886,12.886,0,0,0-5.943,10.883V53.946a4.056,4.056,0,0,0,5.925,3.6v4.126a1.1,1.1,0,1,0,2.192,0V49.868h13.219v18.48h-5.513V53.94a1.1,1.1,0,1,0-2.192,0V68.348h-5.514V66.059a1.1,1.1,0,1,0-2.192,0v2.289H131.2a3.244,3.244,0,1,0,0,6.488h18.327a3.244,3.244,0,1,0,0-6.488h-.362V51.473a4.4,4.4,0,0,0,2.233.607h4.112l5.841,21.5a1.1,1.1,0,1,0,2.116-.575Zm-23.1-42.688a8.024,8.024,0,0,1-8.013-8.016V16.78l.464.228a3.684,3.684,0,0,0,7.13.379h.84a3.684,3.684,0,0,0,7.13-.379l.465-.228V22.3A8.025,8.025,0,0,1,140.367,30.32ZM134.939,16.29a1.491,1.491,0,1,1,1.491,1.491A1.493,1.493,0,0,1,134.939,16.29ZM144.3,14.8a1.491,1.491,0,1,1-1.491,1.491A1.493,1.493,0,0,1,144.3,14.8Zm6.883,1.316a2.05,2.05,0,1,1,0,4.1h-.613v-4.1Zm-2.806-1.779-.752.37a3.706,3.706,0,0,0-1.684-1.712,11.291,11.291,0,0,0,2.436-.886ZM139.042,3.271a3.444,3.444,0,0,1,2.517-1.079h10.929a9.191,9.191,0,0,1-9.176,8.921,5.228,5.228,0,0,1-5.222-5.222c0-.018,0-.036,0-.054a3.444,3.444,0,0,1,.954-2.567Zm-9.781,3.9a3.3,3.3,0,0,1,3.3-3.3h.8a3.278,3.278,0,0,1,2.559,1.219,5.769,5.769,0,0,0-.023.826,7.37,7.37,0,0,0,.486,2.609,3.279,3.279,0,0,1-3.022,1.977h-.8a3.3,3.3,0,0,1-3.3-3.3Zm3.3,5.525h.8a5.467,5.467,0,0,0,4.277-2.039,7.411,7.411,0,0,0,4.62,2.572,3.7,3.7,0,0,0-1.47,1.964h-.84a3.684,3.684,0,0,0-6.842-.488l-.752-.37V12.691c.069,0,.137.005.206.005Zm-5.063,5.47a2.048,2.048,0,0,1,2.051-2.051h.614v4.1h-.614A2.052,2.052,0,0,1,127.5,18.166Zm2.2,37.646a1.868,1.868,0,0,1-1.866-1.866V40.9h3.733v7.865s0,.007,0,.01v5.183a1.868,1.868,0,0,1-1.866,1.856Zm.762,16.524a1.052,1.052,0,0,1,.744-1.8h8.067v2.1H131.2A1.045,1.045,0,0,1,130.461,72.336Zm19.814-1.488a1.052,1.052,0,0,1-.744,1.8h-8.067v-2.1h8.067A1.045,1.045,0,0,1,150.275,70.848Zm-1.1-23.193V40.9H152.9v4.16a1.1,1.1,0,0,0,1.1,1.1h2.354a1.866,1.866,0,1,1,0,3.733H151.4a2.235,2.235,0,0,1-2.232-2.232Z" transform="translate(-125.304 0)"/>
      </g>
    </g>
  </g>
</svg>
