<svg xmlns="http://www.w3.org/2000/svg" width="85" height="147.952" viewBox="0 0 85 147.952">
  <g id="img6" transform="translate(-199.711 -16472)">
    <rect id="Rectangle_454285" data-name="Rectangle 454285" width="85" height="147.952" transform="translate(199.711 16472)" fill="#a8b8ff"/>
    <rect id="Rectangle_454662" data-name="Rectangle 454662" width="69" height="131.952" rx="6" transform="translate(207.711 16480)" fill="#e5eaff"/>
    <g id="Group_1182200" data-name="Group 1182200" transform="translate(212.502 16505.949)">
      <g id="Group_1182200-2" data-name="Group 1182200" transform="translate(1.563 1.555)">
        <path id="Path_991128" data-name="Path 991128" d="M112.272,48.41h46.542a2.287,2.287,0,0,1,.3-1.8c3.1-4.617.93-6.751-2.16-7.073-2.458-.257-5.259-.091-5.838-.993-2.065-3.219-3.794-3.856-5.739-4.057-13.081-1.354-6.033-6.245-10.062-8.32-4.9-2.523,2.487-11.173,7.811-11.4,3.489-.148-.674-9.579-9.267-1.678-1.456,1.339-6.108,2.631-8.652,3.377-2.933.861-1.4,2-3.829,5.64-2.345,3.514-2.037.362-3.139,2.536-1.384,2.73-2.661,3.058-3.684,3.137-2.87.222-5.526,5.283-3.565,8.068,2.15,3.054.694,10.808.987,11.522a5.156,5.156,0,0,1,.3,1.034Z" transform="translate(-104.945 -9.943)" fill="#ffc144" fill-rule="evenodd"/>
        <path id="Path_991129" data-name="Path 991129" d="M129.842,255.943H83.3c.566,3.119-1.187,7.481-3.792,7.636-4.962.295-1.493,2.48-3.127,3.471-1.541.934,1.726,3.845,2.286,3.823,3.5-.139,6.928,6.794,8.92,3.371.249-.428,2.215.094,4.342.933h27.458c.774-1.78,2.625-1,3.318-2.334,1.2-2.322-1.5-4.321.2-5.341,3.373-2.021,5.342,3.469,8.515,1.587,2.729-1.618-2.153-6.562-.629-8.262C131.887,259.6,130.192,257.725,129.842,255.943Z" transform="translate(-75.972 -217.477)" fill="#60a4ff" fill-rule="evenodd"/>
        <path id="Path_991130" data-name="Path 991130" d="M205.483,378.943H178.025c2.676,1.055,5.609,2.61,5.707,3.408.374,3.055,2.314,1.254,2.274,2.605-.1,3.21,2.3,2.043,2.432,2.965.6,4.35,6.156,2.165,7.518,2.006,6.426-.751,3.451,8.872,7.307,8.218s1.795-5.333,2.372-9.24c.4-2.7,1.614-2.96.783-6-.532-1.942-1.542-2.485-.958-3.91Z" transform="translate(-162.067 -321.243)" fill="#ff5a58" fill-rule="evenodd"/>
      </g>
      <path id="Path_991131" data-name="Path 991131" d="M113.864,204.072a1.564,1.564,0,0,0,1.564-1.564h0a1.564,1.564,0,1,0-1.564,1.565Z" transform="translate(-105.057 -169.523)"/>
      <path id="Path_991132" data-name="Path 991132" d="M125.353,50.993a12.409,12.409,0,0,0-1.007-3.055,9.28,9.28,0,0,1-.726-2.1c1.263-1.539.437-3.387-.114-4.62-.449-1.006-.748-1.747-.5-2.121,1.753-2.614,2.21-4.86,1.359-6.678-.741-1.583-2.394-2.585-4.654-2.821-.7-.073-1.409-.113-2.093-.151a14.37,14.37,0,0,1-2.7-.3c-2.27-3.466-4.358-4.35-6.786-4.6-4.212-.436-5.882-1.226-6.542-1.812-.55-.488-.589-.995-.619-2-.037-1.266-.094-3.179-2.346-4.339-.575-.3-.912-.7-.691-1.705.588-2.672,4.748-6.61,7.852-6.741a2.729,2.729,0,0,0,2.633-2.092A4.907,4.907,0,0,0,105.9.82C104.53,0,100.755-1.371,95.4,3.556c-1.089,1-5.417,2.264-7.5,2.871l-.538.157a4.118,4.118,0,0,0-3.307,3.3,10,10,0,0,1-1.382,2.977,7.783,7.783,0,0,1-.78,1.024c-1.492-.223-2.181,1.137-2.453,1.673-1.108,2.185-1.891,2.245-2.41,2.285a5.64,5.64,0,0,0-3.9,2.357,8,8,0,0,0-1.7,6.017,1.564,1.564,0,1,0,3.083-.526A4.939,4.939,0,0,1,75.6,22.119a2.717,2.717,0,0,1,1.675-1.162c1.407-.109,3.233-.651,4.9-3.885,1.2-.037,2.128-1.025,3.1-2.479a13.077,13.077,0,0,0,1.773-3.8c.285-.938.285-.938,1.2-1.205l.532-.156c3.747-1.093,7.234-2.189,8.738-3.571,2.658-2.444,5.119-3.309,6.751-2.374a2.309,2.309,0,0,1,1.1,1.357,11.928,11.928,0,0,0-6.456,3.12,12.127,12.127,0,0,0-4.027,6.054A4.373,4.373,0,0,0,97.2,19.174c.549.283.616.453.652,1.651a5.34,5.34,0,0,0,1.668,4.249c1.5,1.333,4.137,2.154,8.3,2.585,1.428.148,2.759.5,4.584,3.346.853,1.331,2.705,1.434,5.05,1.565.647.036,1.315.074,1.942.139a2.606,2.606,0,0,1,2.147,1.037c.339.724-.071,2.04-1.124,3.61a3.619,3.619,0,0,0-.5,1.1H74.87A1.564,1.564,0,0,0,73.331,40.3a6.94,6.94,0,0,1-1.195,5.008,1.875,1.875,0,0,1-1.151.787c-1.988.118-3.116.531-3.772,1.381a2.911,2.911,0,0,0-.4,2.494l.009.045a2.413,2.413,0,0,0-.719,2.644c.439,1.459,2.675,3.92,4.193,3.854h.043c.922,0,2.254,1.138,3.328,2.055,1.455,1.242,2.833,2.416,4.427,2.25h.053a1.554,1.554,0,0,0,.812-.229,3.126,3.126,0,0,0,1.066-.807,21.638,21.638,0,0,1,3.87,1.328,16.856,16.856,0,0,1,3.8,2.076c.33,1.951,1.315,2.63,2.242,2.887a3.291,3.291,0,0,0,2.575,3.14,4.253,4.253,0,0,0,1.688,2.443c2.042,1.4,4.92.712,6.639.3.3-.071.637-.152.765-.166,1.922-.225,2.413.63,3.1,3.689a10.536,10.536,0,0,0,.948,2.924,3.035,3.035,0,0,0,2.71,1.648A3.749,3.749,0,0,0,109,80a4.062,4.062,0,0,0,3.469-3.02,12.666,12.666,0,0,0,.174-4.1,17.264,17.264,0,0,1,.015-3.433,8.154,8.154,0,0,1,.53-1.885,6.5,6.5,0,0,0,.214-4.752,10.433,10.433,0,0,0-.78-1.96c-.342-.693-.336-.707-.239-.943.112-.273.173-.325.859-.526a3.543,3.543,0,0,0,2.424-1.736,5.209,5.209,0,0,0,.009-4.367c-.051-.148-.112-.327-.156-.477.635-.272,1.176-.015,2.478.864,1.345.909,3.378,2.282,5.791.851a3.3,3.3,0,0,0,1.567-3.52Zm-15.09,15.455a11.194,11.194,0,0,0-.7,2.54,19.86,19.86,0,0,0-.042,4.078c.2,3.278-.037,3.678-1.044,3.849l-.059.008a8.358,8.358,0,0,1-.653-2.128,11.3,11.3,0,0,0-1.5-4.088,4.83,4.83,0,0,0-4.158-2.072,7.333,7.333,0,0,0-.854.051,10.457,10.457,0,0,0-1.126.23c-1.055.251-3.249.774-4.149.159a1.358,1.358,0,0,1-.513-1.056A2.228,2.228,0,0,0,93.5,66.234a2.723,2.723,0,0,1-.37-.1,1.983,1.983,0,0,1-.091-.82,2.062,2.062,0,0,0-2.067-2.222l-.086-.01a2.681,2.681,0,0,1-.132-.609,2.527,2.527,0,0,0-1.022-1.654H109.27a6.007,6.007,0,0,0,.546,1.413,7.4,7.4,0,0,1,.567,1.4A3.508,3.508,0,0,1,110.262,66.449Zm12-14.676a.287.287,0,0,1-.069.05c-.6.354-.984.234-2.445-.753-1.4-.943-3.507-2.369-6.076-.831-1.942,1.163-1.276,3.111-.955,4.048.285.833.447,1.372.178,1.9a3.409,3.409,0,0,1-.534.185,4.3,4.3,0,0,0-2.262,1.315h-26.3a20.929,20.929,0,0,0-3.059-.954c-.6-.124-2.2-.453-2.929.8a1.521,1.521,0,0,1-.095.145,10.7,10.7,0,0,1-2.01-1.49c-1.49-1.273-3.166-2.705-5.147-2.8a6.2,6.2,0,0,1-1.286-1.312,2.8,2.8,0,0,0,.62-2.693,7.111,7.111,0,0,1,1.283-.168A4.728,4.728,0,0,0,74.6,47.242a10.057,10.057,0,0,0,1.937-5.656h43.731c.127.327.264.633.387.908a6.1,6.1,0,0,1,.511,1.406c-1.3,1.5-.446,3.5.308,5.264.285.667.951,2.23.79,2.608Z" transform="translate(-65.98 -0.001)"/>
    </g>
  </g>
</svg>
