<svg xmlns="http://www.w3.org/2000/svg" width="72" height="72" viewBox="0 0 72 72">
  <g id="img3" transform="translate(-704.668 -6155)">
    <path id="Path_925100" data-name="Path 925100" d="M8,0H64a8,8,0,0,1,8,8V64a8,8,0,0,1-8,8H8a8,8,0,0,1-8-8V8A8,8,0,0,1,8,0Z" transform="translate(704.668 6155)" fill="#e5eaff"/>
    <g id="Group_1176252" data-name="Group 1176252" transform="translate(717.088 6137.276)">
      <g id="Group_1176251" data-name="Group 1176251" transform="translate(2.475 34.14)">
        <g id="Group_1176235" data-name="Group 1176235" transform="translate(30.889 0)">
          <circle id="Ellipse_13525" data-name="Ellipse 13525" cx="3.462" cy="3.462" r="3.462" fill="#d46b5c"/>
        </g>
        <g id="Group_1176236" data-name="Group 1176236" transform="translate(4.964 0)">
          <circle id="Ellipse_13526" data-name="Ellipse 13526" cx="3.462" cy="3.462" r="3.462" fill="#fdbeb9"/>
        </g>
        <g id="Group_1176237" data-name="Group 1176237" transform="translate(24.697 6.925)">
          <path id="Path_988300" data-name="Path 988300" d="M305.545,118.1h-4.6a6.377,6.377,0,0,0-6.291,5.334l-.812,4.9a6.484,6.484,0,0,1,2.871,1.4l11.09.019v2.113a2.06,2.06,0,1,0,4.12,0v-7.386a6.377,6.377,0,0,0-6.377-6.377Z" transform="translate(-293.841 -118.1)" fill="#fdcb50"/>
        </g>
        <g id="Group_1176239" data-name="Group 1176239" transform="translate(24.697 6.925)">
          <g id="Group_1176238" data-name="Group 1176238">
            <path id="Path_988301" data-name="Path 988301" d="M302.5,121.271a10.4,10.4,0,0,1,.493-3.171h-2.048a6.377,6.377,0,0,0-6.291,5.334l-.812,4.9a6.484,6.484,0,0,1,2.871,1.4l10.158.018A10.392,10.392,0,0,1,302.5,121.271Z" transform="translate(-293.841 -118.1)" fill="#fd8f01"/>
          </g>
        </g>
        <g id="Group_1176240" data-name="Group 1176240" transform="translate(0 6.924)">
          <path id="Path_988302" data-name="Path 988302" d="M40.91,130.9a6.481,6.481,0,0,1,3.934-2.57l.014-.039-.806-4.861a6.377,6.377,0,0,0-6.291-5.334H33.138a6.377,6.377,0,0,0-6.377,6.377v7.386a2.06,2.06,0,0,0,4.12,0h9.464A6.474,6.474,0,0,1,40.91,130.9Z" transform="translate(-26.761 -118.099)" fill="#b1d952"/>
        </g>
        <g id="Group_1176241" data-name="Group 1176241" transform="translate(0 6.925)">
          <path id="Path_988303" data-name="Path 988303" d="M33.589,121.271a10.4,10.4,0,0,1,.493-3.171h-.944a6.377,6.377,0,0,0-6.377,6.377v7.386a2.06,2.06,0,0,0,4.12,0h9.464a6.593,6.593,0,0,1,.4-.706A10.41,10.41,0,0,1,33.589,121.271Z" transform="translate(-26.761 -118.1)" fill="#91b706"/>
        </g>
        <g id="Group_1176242" data-name="Group 1176242" transform="translate(4.12 18.55)">
          <path id="Path_988304" data-name="Path 988304" d="M71.312,243.82v18.464a2.153,2.153,0,0,0,4.307,0,2.153,2.153,0,0,0,4.307,0V243.82Z" transform="translate(-71.312 -243.82)" fill="#93b2f4"/>
        </g>
        <g id="Group_1176243" data-name="Group 1176243" transform="translate(12.939 17.02)">
          <path id="Path_988305" data-name="Path 988305" d="M183.295,235.938l.181-.883a6.481,6.481,0,0,0-6.349-7.781h-3.961a6.481,6.481,0,0,0-6.349,7.781l.181.883,8.137,2.817Z" transform="translate(-166.686 -227.274)" fill="#fff"/>
        </g>
        <g id="Group_1176244" data-name="Group 1176244" transform="translate(12.939 17.02)">
          <path id="Path_988306" data-name="Path 988306" d="M173.851,228.6a9.178,9.178,0,0,1,.1-1.322h-.781a6.481,6.481,0,0,0-6.349,7.781l.181.883,8.137,2.817,4.678-1.615A9.1,9.1,0,0,1,173.851,228.6Z" transform="translate(-166.686 -227.274)" fill="#d2dcfd"/>
        </g>
        <g id="Group_1176245" data-name="Group 1176245" transform="translate(30.045 18.55)">
          <path id="Path_988307" data-name="Path 988307" d="M351.671,243.82v18.464a2.153,2.153,0,0,0,4.307,0V250.3a2.153,2.153,0,0,0,4.307,0V243.82Z" transform="translate(-351.671 -243.82)" fill="#bc9af4"/>
        </g>
        <g id="Group_1176246" data-name="Group 1176246" transform="translate(17.938 10.095)">
          <circle id="Ellipse_13527" data-name="Ellipse 13527" cx="3.462" cy="3.462" r="3.462" fill="#fde0be"/>
        </g>
        <g id="Group_1176247" data-name="Group 1176247" transform="translate(17.234 26.424)">
          <path id="Path_988308" data-name="Path 988308" d="M215.212,328.97a2.077,2.077,0,0,0-2.077,2.077v7.359a2.077,2.077,0,0,0,4.155,0v-7.359A2.077,2.077,0,0,0,215.212,328.97Z" transform="translate(-213.135 -328.97)" fill="#67ccd1"/>
        </g>
        <g id="Group_1176248" data-name="Group 1176248" transform="translate(21.389 26.424)">
          <path id="Path_988309" data-name="Path 988309" d="M260.143,328.97a2.077,2.077,0,0,1,2.077,2.077v7.359a2.077,2.077,0,0,1-4.155,0v-7.359A2.077,2.077,0,0,1,260.143,328.97Z" transform="translate(-258.066 -328.97)" fill="#67ccd1"/>
        </g>
        <g id="Group_1176249" data-name="Group 1176249" transform="translate(25.544 24.607)">
          <path id="Path_988310" data-name="Path 988310" d="M305.246,309.319a2.251,2.251,0,0,0-2.25,2.25v10.06a2.25,2.25,0,0,0,4.5,0v-10.06A2.25,2.25,0,0,0,305.246,309.319Z" transform="translate(-302.996 -309.319)" fill="#d2dcfd"/>
        </g>
        <g id="Group_1176250" data-name="Group 1176250" transform="translate(12.733 24.607)">
          <path id="Path_988311" data-name="Path 988311" d="M166.711,309.319a2.25,2.25,0,0,1,2.25,2.25v10.06a2.25,2.25,0,0,1-4.5,0v-10.06A2.25,2.25,0,0,1,166.711,309.319Z" transform="translate(-164.461 -309.319)" fill="#d2dcfd"/>
        </g>
      </g>
      <path id="Path_988312" data-name="Path 988312" d="M46.236,46.985h-.074A7.315,7.315,0,0,0,40.3,40.28a4.387,4.387,0,1,0-7-.075,7.269,7.269,0,0,0-5.923,4.85,4.381,4.381,0,0,0-7,0A7.268,7.268,0,0,0,14.432,40.2a4.387,4.387,0,1,0-7,.078,7.314,7.314,0,0,0-5.88,7.162v7.386a2.989,2.989,0,0,0,2.2,2.879L.026,73.089a.925.925,0,1,0,1.8.435L5.67,57.639V71.154a3.078,3.078,0,0,0,3.078,3.078h0A3.067,3.067,0,0,0,10.9,73.35a3.067,3.067,0,0,0,2.153.882h0a3.058,3.058,0,0,0,2.176-.9l.007-.007a3.172,3.172,0,0,0,5.009-.748,2.994,2.994,0,0,0,3.617-.412,2.994,2.994,0,0,0,3.617.412,3.171,3.171,0,0,0,5.009.748l.007.007a3.058,3.058,0,0,0,2.176.9h0a3.082,3.082,0,0,0,3.077-3.078V61.988a3.059,3.059,0,0,0,1.228.257h0a3.07,3.07,0,0,0,1.229-.255v.978a2.989,2.989,0,0,0,2.06,2.837v7.5a.925.925,0,0,0,1.849,0V65.8a2.989,2.989,0,0,0,2.06-2.837V48.834h.058a.925.925,0,0,0,0-1.849Zm-9.409-11.92A2.538,2.538,0,1,1,34.289,37.6,2.541,2.541,0,0,1,36.826,35.065ZM23.875,45.16a2.538,2.538,0,0,1,0,5.075h0a2.538,2.538,0,0,1,0-5.075ZM10.9,35.065A2.538,2.538,0,1,1,8.364,37.6,2.54,2.54,0,0,1,10.9,35.065Zm3.382,36.089a1.229,1.229,0,0,1-1.229,1.229h0a1.23,1.23,0,0,1-1.228-1.229v-13.3a.925.925,0,1,0-1.849,0v13.3a1.23,1.23,0,0,1-1.228,1.229h0a1.229,1.229,0,0,1-1.229-1.229V53.615h6.764V71.154Zm.839-24.165a.925.925,0,0,0-.839.921v3.855H7.519V47.91a.925.925,0,1,0-1.849,0v6.918a1.135,1.135,0,0,1-2.27,0V47.442a5.459,5.459,0,0,1,5.453-5.453h4.622a5.435,5.435,0,0,1,5.379,4.561l.676,4.075a7.436,7.436,0,0,0-2.588,1.512l-.825-4.4a.924.924,0,0,0-.994-.75Zm3.662,24.068a1.326,1.326,0,0,1-2.651,0V60.994a1.326,1.326,0,0,1,2.651,0ZM22.939,70a1.153,1.153,0,1,1-2.305,0V62.641a1.153,1.153,0,1,1,2.305,0Zm4.155,0a1.153,1.153,0,1,1-2.305,0V62.641a1.153,1.153,0,1,1,2.305,0Zm.925-14.4a.925.925,0,0,0-.925.925v3.348a3,3,0,0,0-3.23.607,3,3,0,0,0-3.23-.607V56.521a.925.925,0,1,0-1.849,0v1.592a3.168,3.168,0,0,0-2.431-.093,5.552,5.552,0,0,1,5.541-5.936h3.961a5.552,5.552,0,0,1,5.54,5.944,3.165,3.165,0,0,0-2.452.084V56.521A.925.925,0,0,0,28.018,55.6Zm3.576,15.461a1.326,1.326,0,1,1-2.652,0V61a1.326,1.326,0,1,1,2.652,0Zm8.614-11.891A1.229,1.229,0,0,1,38.98,60.4h0a1.23,1.23,0,0,1-1.228-1.229v-1.31a.925.925,0,0,0-1.849,0v13.3a1.23,1.23,0,0,1-1.228,1.229h0a1.229,1.229,0,0,1-1.229-1.229V53.615h6.764ZM40.15,48.834h.058v2.931H33.444V47.91a.925.925,0,0,0-1.834-.167l-.808,4.39a7.436,7.436,0,0,0-2.582-1.507L28.9,46.55a5.435,5.435,0,0,1,5.379-4.561h4.6a5.459,5.459,0,0,1,5.432,5H40.15a.925.925,0,1,0,0,1.849Zm4.178,14.133a1.135,1.135,0,0,1-2.27,0v-5.38a2.978,2.978,0,0,0,2.27,0Zm0-8.14a1.135,1.135,0,0,1-2.27,0h0V48.834h2.27Z" transform="translate(0)" fill="#12263f"/>
    </g>
  </g>
</svg>
