<svg xmlns="http://www.w3.org/2000/svg" width="70" height="70" viewBox="0 0 70 70">
  <g id="img19" transform="translate(-764.711 -18335)">
    <circle id="Ellipse_13556" data-name="Ellipse 13556" cx="35" cy="35" r="35" transform="translate(764.711 18335)" fill="#e5eaff"/>
    <g id="Group_1187171" data-name="Group 1187171" transform="translate(780.055 18350.326)">
      <path id="Path_1001379" data-name="Path 1001379" d="M28.442,29.73l-8.153-2.264V25.505l1.718.515.908.027a3.711,3.711,0,0,0,3.707-3.707,2.454,2.454,0,0,1,.258-1.092l.767-1.536a1.583,1.583,0,0,0,1.191-2.531l-.236-.315a6.775,6.775,0,0,1-1.347-4.041,3.853,3.853,0,0,0-.48-1.867l.21-.21a7.361,7.361,0,0,0,2.17-5.24,7.459,7.459,0,0,0-1.482-4.447L26.874,0l-.408.1A42.118,42.118,0,0,1,16.261,1.349h-.348A10.186,10.186,0,0,0,7.033,16.533l2.211,3.286a12.756,12.756,0,0,1,1.522,3.095,12.769,12.769,0,0,1,.657,4.045v.507L3.27,29.73A4.447,4.447,0,0,0,.024,34v5.344H31.688V34a4.447,4.447,0,0,0-3.246-4.272Zm-8.677-1.1.459.127-.938,3.752-2.374-1.977Zm7.824-11.008.236.314a.316.316,0,0,1-.253.507h-.708l-1.116,2.234a3.717,3.717,0,0,0-.392,1.658,2.444,2.444,0,0,1-2.441,2.441h-.633l-6.244-1.873-.364,1.213,3.348,1v2.483l-3.166,2.111-3.166-2.111v-.649a14.122,14.122,0,0,0-.125-1.791l.233-.234a8.224,8.224,0,0,0,2.425-5.854v-.633H13.956a1.267,1.267,0,1,1,0-2.533h1.267V14.459a4.244,4.244,0,0,1,4.244-4.244h3.912a2.61,2.61,0,0,1,2.61,2.61,8.05,8.05,0,0,0,1.6,4.8ZM11.947,28.635l2.853,1.9-2.374,1.977-.938-3.752ZM10.3,19.112,8.113,15.872a8.923,8.923,0,0,1,7.8-13.256h.348A43.362,43.362,0,0,0,26.366,1.43l.293.391a6.185,6.185,0,0,1,1.229,3.687,6.105,6.105,0,0,1-1.8,4.344l-.107.107a3.846,3.846,0,0,0-2.6-1.011H19.467a5.511,5.511,0,0,0-5.511,5.511v.189a2.533,2.533,0,0,0-.028,5.066,6.947,6.947,0,0,1-1.641,3.905q-.137-.558-.319-1.106a14.039,14.039,0,0,0-1.673-3.4ZM30.421,38.079H1.29V34a3.177,3.177,0,0,1,2.319-3.051L10.267,29.1l1.42,5.677L15.856,31.3l4.169,3.475,1.42-5.677L28.1,30.951A3.175,3.175,0,0,1,30.421,34Zm0,0" fill="#2142dc"/>
      <path id="Path_1001380" data-name="Path 1001380" d="M452.8,169.855l-.9.9a7.6,7.6,0,0,1,0,10.747l.9.9a8.864,8.864,0,0,0,0-12.538Zm0,0" transform="translate(-416.108 -156.409)" fill="#2142dc"/>
      <path id="Path_1001381" data-name="Path 1001381" d="M430.177,192.48l-.9.9a5.067,5.067,0,0,1,0,7.165l.9.9a6.333,6.333,0,0,0,0-8.956Zm0,0" transform="translate(-395.278 -177.243)" fill="#2142dc"/>
      <path id="Path_1001382" data-name="Path 1001382" d="M407.552,215.105l-.9.9a2.535,2.535,0,0,1,0,3.583l.9.9a3.8,3.8,0,0,0,0-5.374Zm0,0" transform="translate(-374.444 -198.077)" fill="#2142dc"/>
    </g>
  </g>
</svg>
