<svg xmlns="http://www.w3.org/2000/svg" width="110" height="110" viewBox="0 0 110 110">
  <g id="img1" transform="translate(-203 -919)">
    <rect id="Rectangle_455086" data-name="Rectangle 455086" width="110" height="110" rx="20" transform="translate(203 919)" fill="#a8b8ff"/>
    <g id="Group_1187118" data-name="Group 1187118" transform="translate(217.371 907.521)">
      <path id="Path_1001249" data-name="Path 1001249" d="M66.662,224.688v9.86H46.942v9.86H27.222v9.86H7.5v9.86h78.88v-39.44Z" transform="translate(-6.313 -162.678)" fill="#7a8c98"/>
      <path id="Path_1001250" data-name="Path 1001250" d="M464.092,224.688H470.5v39.44h-6.413Z" transform="translate(-390.436 -162.679)" fill="#596c76"/>
      <path id="Path_1001251" data-name="Path 1001251" d="M7.5,69.512v5.161l78.88-30.692V38.82Z" transform="translate(-6.313 -6.31)" fill="#d9e7ec"/>
      <path id="Path_1001252" data-name="Path 1001252" d="M123.706,80.805H104.467L105.9,60.742a2.565,2.565,0,0,1,2.559-2.382h11.255a2.565,2.565,0,0,1,2.559,2.382Z" transform="translate(-87.888 -22.749)" fill="#0067c5"/>
      <path id="Path_1001253" data-name="Path 1001253" d="M137.5,230.087H124.671l.812,4.875a5.678,5.678,0,0,0,11.2,0Z" transform="translate(-104.885 -167.221)" fill="#ffe177"/>
      <path id="Path_1001254" data-name="Path 1001254" d="M153.932,230.087l-.813,4.875a5.676,5.676,0,0,1-3.2,4.21,5.678,5.678,0,0,0,8.005-4.21l.813-4.875Z" transform="translate(-126.13 -167.221)" fill="#ffd15b"/>
      <path id="Path_1001255" data-name="Path 1001255" d="M108.634,199.782H85.548a1.283,1.283,0,0,0-1.283,1.283v2.245a1.283,1.283,0,0,0,1.283,1.283h23.087a1.283,1.283,0,0,0,1.283-1.283v-2.245A1.283,1.283,0,0,0,108.634,199.782Z" transform="translate(-70.892 -141.725)" fill="#528fd8"/>
      <path id="Path_1001256" data-name="Path 1001256" d="M210.613,199.782h-5.13a1.283,1.283,0,0,1,1.283,1.283v2.245a1.283,1.283,0,0,1-1.283,1.283h5.13a1.283,1.283,0,0,0,1.283-1.283v-2.245A1.283,1.283,0,0,0,210.613,199.782Z" transform="translate(-172.871 -141.725)" fill="#0573ce"/>
      <g id="Group_1187117" data-name="Group 1187117" transform="translate(-0.002 31.319)">
        <path id="Path_1001257" data-name="Path 1001257" d="M11.847,256.624H2.383v-7.479h18.53a1.19,1.19,0,0,0,1.19-1.19v-8.67h18.53a1.19,1.19,0,0,0,1.19-1.19v-8.669h18.53a1.19,1.19,0,0,0,1.19-1.19v-8.67H68.1a1.19,1.19,0,1,0,0-2.381H60.352a1.19,1.19,0,0,0-1.19,1.19v8.67H40.632a1.19,1.19,0,0,0-1.19,1.19V236.9H20.912a1.19,1.19,0,0,0-1.19,1.19v8.67H1.192A1.19,1.19,0,0,0,0,247.955v9.859A1.19,1.19,0,0,0,1.192,259H11.847a1.19,1.19,0,0,0,0-2.381Z" transform="translate(-0.001 -187.685)"/>
        <path id="Path_1001258" data-name="Path 1001258" d="M165.992,217.184h-6.414a1.19,1.19,0,0,0,0,2.381H164.8v37.059h-61.48a1.19,1.19,0,0,0,0,2.381h62.671a1.19,1.19,0,0,0,1.19-1.19v-39.44A1.19,1.19,0,0,0,165.992,217.184Z" transform="translate(-85.921 -187.685)"/>
        <path id="Path_1001259" data-name="Path 1001259" d="M1.19,64.393a1.19,1.19,0,0,0,.431-.081L12.182,60.2v1.381a2.454,2.454,0,0,0,.271,1.119L.758,67.254a1.19,1.19,0,1,0,.863,2.218l13.918-5.416h3.238l.647,3.881a6.868,6.868,0,0,0,13.549,0l.647-3.881h4.122a2.476,2.476,0,0,0,2.473-2.473V59.339a2.476,2.476,0,0,0-2.473-2.473h-.815l-.079-1.1L80.5,38.78a1.19,1.19,0,1,0-.863-2.219L36.671,53.28l-.181-2.536L80.5,33.619a1.19,1.19,0,1,0-.863-2.219L36.312,48.258l-.739-10.35a3.771,3.771,0,0,0-3.747-3.487H20.571a3.768,3.768,0,0,0-3.746,3.488L16.4,43.8a1.19,1.19,0,1,0,2.375.17l.421-5.893A1.379,1.379,0,0,1,20.571,36.8H31.825A1.381,1.381,0,0,1,33.2,38.079L34.54,56.866H17.858l.525-7.355a1.19,1.19,0,1,0-2.375-.17l-.5,7.013L.758,62.093a1.191,1.191,0,0,0,.432,2.3Zm29.435,3.153a4.487,4.487,0,0,1-8.853,0l-.582-3.489H31.206Zm7.209-8.207v2.245a.092.092,0,0,1-.092.092H14.655a.092.092,0,0,1-.092-.092V59.339a.092.092,0,0,1,.092-.092H37.742A.093.093,0,0,1,37.834,59.339Z" transform="translate(0.002 -31.319)"/>
        <path id="Path_1001260" data-name="Path 1001260" d="M150.686,252.242h2.565a1.19,1.19,0,0,0,0-2.381h-2.565a1.19,1.19,0,0,0,0,2.381Z" transform="translate(-125.769 -215.176)"/>
      </g>
    </g>
  </g>
</svg>
