<svg xmlns="http://www.w3.org/2000/svg" width="70" height="70" viewBox="0 0 70 70">
  <g id="img23" transform="translate(-764.711 -18335)">
    <circle id="Ellipse_13556" data-name="Ellipse 13556" cx="35" cy="35" r="35" transform="translate(764.711 18335)" fill="#e5eaff"/>
    <g id="Group_1187174" data-name="Group 1187174" transform="translate(768.47 18349.076)">
      <path id="Path_1001398" data-name="Path 1001398" d="M49.621,8.039c-1.75-.128-2.347-.656-3.491-2.023a4.937,4.937,0,0,0-3.313-1.589,1.723,1.723,0,0,0-1.237-.481h0C39.211,4,37.137,5.631,37.43,8.02c-.523,1.161-.836,2.477-1.441,4.014a1.219,1.219,0,0,0-.828.295l-.972.841a1.219,1.219,0,0,0-.137,1.707,3.2,3.2,0,0,1-.553.245,1.372,1.372,0,0,0-.923-.359h-.139L19.983.217a.62.62,0,1,0-.942.807L30.951,14.935a1.356,1.356,0,0,0-.424.361c-.693-.066-1.435-.172-2.215-.285a34.726,34.726,0,0,0-5-.463,6.055,6.055,0,0,0-5.7,3,3.667,3.667,0,0,1-1.5-1.792c-.877-2.408.239-4.354,1.691-4.883a2.412,2.412,0,0,1,2.921,1.369,1.106,1.106,0,0,0,2.061.154,4.055,4.055,0,0,0-3.065-6,.62.62,0,1,0-.257,1.214c2.176.46,3.029,2.113,2.33,3.949a3.691,3.691,0,0,0-4.414-1.852c-2.084.759-3.55,3.4-2.432,6.473A4.943,4.943,0,0,0,17.116,18.7c-.079.238-.146.477-.2.715-3.29-1.2-4.212-3.339-4.391-4.976-.284-2.594,1.166-5.25,2.7-6.1a6.738,6.738,0,0,1,1.632-.648.62.62,0,1,0-.3-1.2,7.969,7.969,0,0,0-1.933.767c-3.737,2.078-5.957,10.654,2.1,13.408a11.926,11.926,0,0,0,.143,3.112c.438,2.389-1.012,5.063-1.655,6.1a3.207,3.207,0,0,0-.459,1.329l-.5,4.551a6.123,6.123,0,0,0,.388,2.9l.771,1.957a1.939,1.939,0,0,0,1.814,1.235h6.8a1.3,1.3,0,0,0,1.049-.534,1.273,1.273,0,0,0,.184-1.153,3.332,3.332,0,0,0-2.056-2.048,1.188,1.188,0,0,1-.714-.807,7.923,7.923,0,0,1,.126-3.9,1.226,1.226,0,0,1,.556-.73,13.348,13.348,0,0,0,4.462-4.261,25.55,25.55,0,0,0,3.714.659,1.372,1.372,0,0,0,1.019.457h0c.335,0,.706-.012,1.1-.033a1.361,1.361,0,0,0,.684-.227c.322.011.64.017.948.02a.457.457,0,0,1,.452.4,60.66,60.66,0,0,0,2.746,10.558,2.4,2.4,0,0,0,2.261,1.6c6.2-.006-.582-.006,5.567,0a1.539,1.539,0,0,0,1.419-2.127,4.059,4.059,0,0,0-2.179-2.105,1.3,1.3,0,0,1-.688-.687,14,14,0,0,1-.81-3.373.62.62,0,0,0-1.229.173,15.157,15.157,0,0,0,.9,3.688,2.538,2.538,0,0,0,1.34,1.34,2.775,2.775,0,0,1,1.521,1.438.3.3,0,0,1-.273.413H44.692a1.56,1.56,0,0,0-.089-.887h0a3.986,3.986,0,0,0-2.163-2.1,1.325,1.325,0,0,1-.7-.686c-.9-2.089-1.124-6.233-1.181-7.918a2.611,2.611,0,0,1,.506-1.624,10.871,10.871,0,0,0,.808-1.3L42.115,28c.083.655.142,1.324.176,1.989.014.266.029.533.047.794a.62.62,0,0,0,1.238-.082c-.017-.255-.032-.516-.045-.775-.035-.7-.1-1.4-.184-2.082l-.354-2.792.083-.012a1.021,1.021,0,0,0,.838-.738l.471-1.705a1.018,1.018,0,0,0-.766-1.267c.124-.478.241-.973.351-1.483A1.22,1.22,0,0,0,45,18.755l.115-1.276a1.219,1.219,0,0,0-.542-1.126c.043-.326.069-.56.082-.678.622-1.531,2.061-1.609,3.525-1.462.18.018.323.032.443.032a1.467,1.467,0,0,0,1.331-1.022.534.534,0,0,1,.162-.212,4.091,4.091,0,0,0,1.117-3.242,1.756,1.756,0,0,0-1.614-1.729ZM41.61,5.187a.482.482,0,0,1,.5.48,29.733,29.733,0,0,1-.24,4.019c-.3,2.053-.755,2.225-.759,2.226-.232.043-1.1-.5-2.3-3.488C38.1,6.675,39.632,5.235,41.61,5.187Zm-5.65,8.091a14.769,14.769,0,0,0,7.919,4.108l-.111,1.237a15.894,15.894,0,0,1-8.751-4.53ZM42.317,21.4a20.663,20.663,0,0,1-8.526-1.48c.005-1.258.056-2.472.145-3.622v-.015a4.274,4.274,0,0,0,1.047-.527,17.25,17.25,0,0,0,7.747,3.947C42.6,20.293,42.464,20.861,42.317,21.4Zm-10.834-5.28a.126.126,0,0,1,.126-.115l.967,0h0a.127.127,0,0,1,.127.134.019.019,0,0,1,0,0c-.062.785-.108,1.626-.133,2.486H31.335C31.363,17.792,31.409,16.954,31.483,16.122Zm-.173,3.745h1.24c0,1.028.023,2.152.108,3.292H31.41C31.327,22,31.3,20.877,31.31,19.867ZM22.521,31.614a2.461,2.461,0,0,0-1.113,1.468,9.175,9.175,0,0,0-.13,4.537,2.432,2.432,0,0,0,1.464,1.65,2.135,2.135,0,0,1,1.326,1.274.053.053,0,0,1-.053.064H21.8a1.379,1.379,0,0,0-.063-.447,3.332,3.332,0,0,0-2.056-2.048,1.188,1.188,0,0,1-.714-.807,7.922,7.922,0,0,1,.126-3.9,1.226,1.226,0,0,1,.556-.731,13.114,13.114,0,0,0,4.88-4.979.434.434,0,0,1,.574-.185,12.2,12.2,0,0,0,1.283.527A12.244,12.244,0,0,1,22.521,31.614ZM25.642,26.4a1.67,1.67,0,0,0-2.211.721,11.857,11.857,0,0,1-4.423,4.5,2.461,2.461,0,0,0-1.113,1.468,9.175,9.175,0,0,0-.13,4.537,2.432,2.432,0,0,0,1.464,1.65,2.135,2.135,0,0,1,1.326,1.274.053.053,0,0,1-.053.064H17.219a.705.705,0,0,1-.66-.449L15.788,38.2a4.877,4.877,0,0,1-.309-2.313l.5-4.551a1.958,1.958,0,0,1,.28-.811c.719-1.161,2.336-4.166,1.821-6.979-.372-2.032-.2-4.536,1.11-6.112a5.083,5.083,0,0,1,4.124-1.647,33.258,33.258,0,0,1,4.819.451c.72.1,1.411.2,2.071.272a38.3,38.3,0,0,0,.629,11.256,17.611,17.611,0,0,1-5.194-1.37Zm6.713,1.9h0c-.111,0-.125-.1-.138-.146a23.2,23.2,0,0,1-.7-3.745h1.253a20.665,20.665,0,0,0,.735,3.7.127.127,0,0,1-.115.161c-.377.02-.727.031-1.039.031ZM40.6,37.426a2.559,2.559,0,0,0,1.347,1.336,2.773,2.773,0,0,1,1.51,1.433.3.3,0,0,1-.273.414H40.551a1.157,1.157,0,0,1-1.09-.774,59.421,59.421,0,0,1-2.689-10.324,1.69,1.69,0,0,0-1.67-1.46l-.349,0a1.435,1.435,0,0,0-.058-.315,19.693,19.693,0,0,1-.7-3.64,20.013,20.013,0,0,0,6.941,1.119c-.785,1.576-1.669,2.14-1.611,3.851.074,2.18.338,6.165,1.281,8.364Zm2.157-13.588a18.7,18.7,0,0,1-8.883-1.109c-.028-.449-.049-.851-.066-1.472A21.35,21.35,0,0,0,43.1,22.585Zm6.592-11.8a1.779,1.779,0,0,0-.537.706c-.077.183-.159.26-.186.26-.058,0-.185-.013-.32-.026-1.042-.1-3.81-.381-4.837,2.329a3.622,3.622,0,0,0-.1.727,13.77,13.77,0,0,1-6.279-3.4c.415-1.033.7-1.978.977-2.794.626,1.375,1.785,3.557,3.264,3.291.9-.163,1.465-1.2,1.767-3.268a30.455,30.455,0,0,0,.253-4.1,3.343,3.343,0,0,1,1.833,1.044c1.191,1.422,2.078,2.3,4.352,2.463h0a.508.508,0,0,1,.464.5,2.905,2.905,0,0,1-.647,2.258Z" transform="translate(0)" fill="#2142dc"/>
      <path id="Path_1001399" data-name="Path 1001399" d="M409.852,97.814h-.227a.62.62,0,1,0,0,1.241h.227a.62.62,0,0,0,0-1.241Z" transform="translate(-364.859 -89.724)" fill="#2142dc"/>
    </g>
  </g>
</svg>
