<svg xmlns="http://www.w3.org/2000/svg" width="100" height="100" viewBox="0 0 100 100">
  <g id="img8" transform="translate(-637 -6992)">
    <g id="Group_1098742" data-name="Group 1098742" transform="translate(637.242 6992)">
      <rect id="Rectangle_400898" data-name="Rectangle 400898" width="100" height="100" rx="50" transform="translate(-0.242)" fill="#fff" opacity="0.859"/>
      <g id="Rectangle_400907" data-name="Rectangle 400907" transform="translate(-0.242)" fill="none" stroke="#2142dc" stroke-linecap="round" stroke-width="3" stroke-dasharray="0 7">
        <rect width="100" height="100" rx="50" stroke="none"/>
        <rect x="1.5" y="1.5" width="97" height="97" rx="48.5" fill="none"/>
      </g>
    </g>
    <g id="Group_1107006" data-name="Group 1107006" transform="translate(645.398 7000.156)">
      <rect id="Rectangle_400898-2" data-name="Rectangle 400898" width="84" height="84" rx="42" transform="translate(-0.399 -0.157)" fill="#a8b8ff" opacity="0.859"/>
      <rect id="Rectangle_400907-2" data-name="Rectangle 400907" width="84" height="84" rx="42" transform="translate(-0.398 -0.157)" fill="none"/>
    </g>
    <g id="Group_1187149" data-name="Group 1187149" transform="translate(646.491 7015.68)">
      <g id="Group_1187147" data-name="Group 1187147" transform="translate(16.481 0.764)">
        <path id="Path_1001301" data-name="Path 1001301" d="M130.579,73.277,114.064,61.751l-19.1,13.628a2.517,2.517,0,0,0-1.055,2.049v29.545h37.28V74.53Z" transform="translate(-86.437 -56.208)" fill="#6e60b8"/>
        <path id="Path_1001302" data-name="Path 1001302" d="M57.916,55.568a2.494,2.494,0,0,1,1.045-2.03l19.062-13.6-3.711-2.59-20,14.275-.694,1V85.062h4.3Z" transform="translate(-50.257 -34.296)" fill="#6353b2"/>
        <g id="Group_1187143" data-name="Group 1187143" transform="translate(7.557 13.392)">
          <path id="Path_1001303" data-name="Path 1001303" d="M137.15,243.11h-.258a11.016,11.016,0,1,1-13.657-14.2l.134-.363v-3.09l-.034-.038v.375a14.612,14.612,0,0,0,3.391,28.126,14.5,14.5,0,0,0,12.319-7.225v-.418Z" transform="translate(-112.013 -216.554)" fill="#dbedff"/>
          <g id="Group_1187142" data-name="Group 1187142" transform="translate(0 8.757)">
            <path id="Path_1001304" data-name="Path 1001304" d="M96.8,238.452a14.518,14.518,0,0,1,9.28-13.524v-.449l-.134-.149a14.5,14.5,0,0,0,3.273,28.617q.524,0,1.039-.038A14.513,14.513,0,0,1,96.8,238.452Z" transform="translate(-94.728 -224.33)" fill="#b5dcff"/>
          </g>
          <circle id="Ellipse_13653" data-name="Ellipse 13653" cx="2.649" cy="2.649" r="2.649" transform="translate(10.294 0)" fill="#60b9fe"/>
          <path id="Path_1001305" data-name="Path 1001305" d="M198.154,141.247a2.648,2.648,0,0,1,1.325-2.294,2.649,2.649,0,1,0,0,4.588A2.647,2.647,0,0,1,198.154,141.247Z" transform="translate(-185.211 -138.598)" fill="#1ca8ff"/>
          <path id="Path_1001306" data-name="Path 1001306" d="M233.173,303.07l5.944,9.059,1.409.147a1.738,1.738,0,0,0,.549-2.354l-5.691-9.486a1.739,1.739,0,0,0-1.491-.844h-9.97v-4.775l-.421-.4h-1.255v6.862a1.822,1.822,0,0,0,1.48,1.789h9.446Z" transform="translate(-209.222 -278.503)" fill="#1ca8ff"/>
          <path id="Path_1001307" data-name="Path 1001307" d="M206.479,289.535v-6.911h-.532l-1.187-1.342h-.166v8.253a1.739,1.739,0,0,0,1.739,1.739h1.886A1.74,1.74,0,0,1,206.479,289.535Z" transform="translate(-193.371 -266.708)" fill="#0094fd"/>
          <path id="Path_1001308" data-name="Path 1001308" d="M331.661,387.751l-5.066-8.444a.406.406,0,0,0-.348-.2H324.36a.406.406,0,0,1,.348.2l5.066,8.444a1.739,1.739,0,0,0,2.386.6c.017-.01.032-.022.048-.032A1.728,1.728,0,0,1,331.661,387.751Z" transform="translate(-300.904 -354.543)" fill="#0094fd"/>
          <path id="Path_1001309" data-name="Path 1001309" d="M235.066,207.413H224.649v-4.972a1.737,1.737,0,0,0-.852-1.494,1.765,1.765,0,0,0-.741,1.437v6.825a1.769,1.769,0,0,0,1.225,1.683h10.784a1.739,1.739,0,1,0,0-3.479Z" transform="translate(-209.948 -194.578)" fill="#60b9fe"/>
          <path id="Path_1001310" data-name="Path 1001310" d="M206.508,207v-6.712a1.737,1.737,0,0,1,.782-1.451,1.739,1.739,0,0,0-2.7,1.451V207a1.739,1.739,0,0,0,1.739,1.739h1.915A1.739,1.739,0,0,1,206.508,207Z" transform="translate(-193.371 -192.423)" fill="#1ca8ff"/>
        </g>
        <g id="Group_1187144" data-name="Group 1187144" transform="translate(0 50)">
          <path id="Path_1001311" data-name="Path 1001311" d="M68.092,498.521H21.515a.766.766,0,0,1,0-1.532H68.092a.766.766,0,1,1,0,1.532Z" transform="translate(-20.749 -496.989)" fill="#8479c2"/>
        </g>
        <g id="Group_1187145" data-name="Group 1187145" transform="translate(24.163 1.987)">
          <path id="Path_1001312" data-name="Path 1001312" d="M280.236,40.8,260.561,26.944a1.808,1.808,0,0,0-1.1.328l-2.151,1.514a.261.261,0,0,1,.043.024l20.939,14.743a1.686,1.686,0,0,0,1.941-2.757Z" transform="translate(-257.312 -26.944)" fill="#ff76aa"/>
        </g>
        <g id="Group_1187146" data-name="Group 1187146" transform="translate(0.307)">
          <path id="Path_1001313" data-name="Path 1001313" d="M47.644,11.337l2.13-1.5a1.685,1.685,0,0,1,1.184-.293L48.472,7.8a1.686,1.686,0,0,0-1.941,0L24.469,23.328a1.686,1.686,0,0,0,1.941,2.757L47.349,11.343A.264.264,0,0,1,47.644,11.337Z" transform="translate(-23.753 -7.487)" fill="#ff5595"/>
        </g>
      </g>
      <g id="Group_1187148" data-name="Group 1187148" transform="translate(15.995 0)">
        <path id="Path_1001314" data-name="Path 1001314" d="M61.207,32.02a.766.766,0,0,0,.766-.766V20.362a2.452,2.452,0,0,0,2.009-4.383L41.921.446a2.458,2.458,0,0,0-2.824,0L17.036,15.979a2.452,2.452,0,0,0,2.009,4.383v30.4H17.221a.766.766,0,1,0,0,1.532H63.8a.766.766,0,0,0,0-1.532H61.973V34.829a.766.766,0,1,0-1.532,0V50.764h-15.3a15.356,15.356,0,0,0,5.88-5.01l1.2,2.005a2.505,2.505,0,0,0,4.3-2.578L50.83,35.7a2.518,2.518,0,0,0-2.148-1.216h-9.2V31.236h9.651a2.505,2.505,0,0,0,0-5.011H39.478V22.019a2.5,2.5,0,0,0-1.134-2.095,3.415,3.415,0,1,0-2.759.01,2.5,2.5,0,0,0-1.119,2.085v.3a15.26,15.26,0,0,0-2.622,28.446H20.578V19.483L40.509,5.45,60.441,19.483V31.254a.766.766,0,0,0,.766.766Zm-22.5,3.99h9.97a.978.978,0,0,1,.835.473l5.691,9.486h0a.973.973,0,1,1-1.669,1l-5.185-8.641a.766.766,0,0,0-.657-.372H36.973A.974.974,0,0,1,36,36.984V31.039a2.486,2.486,0,0,0,.973.2h.973v4.008a.766.766,0,0,0,.766.766Zm10.417-8.253a.973.973,0,1,1,0,1.946H36.973A.974.974,0,0,1,36,28.731V22.019a.973.973,0,1,1,1.946,0v4.972a.766.766,0,0,0,.766.766ZM36.954,14.923a1.883,1.883,0,1,1-1.883,1.883A1.885,1.885,0,0,1,36.954,14.923ZM24.777,37.036a13.854,13.854,0,0,1,9.69-13.122v2.053a11.782,11.782,0,0,0,2.161,22.7.766.766,0,0,0,.243-1.513,10.331,10.331,0,0,1-8.616-10.119,10.2,10.2,0,0,1,6.211-9.42v9.369a2.508,2.508,0,0,0,2.505,2.505h10.29l.78,1.3A10.258,10.258,0,0,1,40.2,47.145a.766.766,0,1,0,.252,1.511A11.787,11.787,0,0,0,49,42.387L50.15,44.3a13.725,13.725,0,0,1-25.372-7.265ZM17.7,18.514a.919.919,0,0,1,.223-1.282L39.98,1.7a.922.922,0,0,1,1.059,0L63.1,17.232a.92.92,0,1,1-1.059,1.5h0L40.95,3.886a.766.766,0,0,0-.882,0L18.978,18.736a.92.92,0,0,1-1.282-.223Z" transform="translate(-15.995 0)"/>
      </g>
    </g>
  </g>
</svg>
