<svg xmlns="http://www.w3.org/2000/svg" width="100" height="100" viewBox="0 0 100 100">
  <g id="img9" transform="translate(-637 -6992)">
    <g id="Group_1098742" data-name="Group 1098742" transform="translate(637.242 6992)">
      <rect id="Rectangle_400898" data-name="Rectangle 400898" width="100" height="100" rx="50" transform="translate(-0.242)" fill="#fff" opacity="0.859"/>
      <g id="Rectangle_400907" data-name="Rectangle 400907" transform="translate(-0.242)" fill="none" stroke="#2142dc" stroke-linecap="round" stroke-width="3" stroke-dasharray="0 7">
        <rect width="100" height="100" rx="50" stroke="none"/>
        <rect x="1.5" y="1.5" width="97" height="97" rx="48.5" fill="none"/>
      </g>
    </g>
    <g id="Group_1107006" data-name="Group 1107006" transform="translate(645.398 7000.157)">
      <rect id="Rectangle_400898-2" data-name="Rectangle 400898" width="84" height="84" rx="42" transform="translate(-0.399 -0.157)" fill="#a8b8ff" opacity="0.859"/>
      <rect id="Rectangle_400907-2" data-name="Rectangle 400907" width="84" height="84" rx="42" transform="translate(-0.398 -0.157)" fill="none"/>
    </g>
    <g id="Group_1187150" data-name="Group 1187150" transform="translate(635.078 7014.196)">
      <g id="Group_1187150-2" data-name="Group 1187150" transform="translate(37.866 0.815)">
        <path id="Path_1001315" data-name="Path 1001315" d="M191.7,7.5H173.665a3.288,3.288,0,0,0-2.034,3.029v5.993h20.277l3-4.314v-1.5A3.205,3.205,0,0,0,191.7,7.5Z" transform="translate(-166.738 -7.5)" fill="#6e60b8"/>
        <path id="Path_1001316" data-name="Path 1001316" d="M131.694,10.638A3.291,3.291,0,0,1,134.026,7.5h-4.237a3.205,3.205,0,0,0-3.205,3.205v1.5l4.244,4.314h.865V10.638Z" transform="translate(-126.584 -7.5)" fill="#6353b2"/>
        <path id="Path_1001317" data-name="Path 1001317" d="M193.791,446.572h-22.16v3.263a3.288,3.288,0,0,0,2.034,3.029H191.7a3.205,3.205,0,0,0,3.205-3.205v-1.5Z" transform="translate(-166.738 -398.884)" fill="#6e60b8"/>
        <path id="Path_1001318" data-name="Path 1001318" d="M131.693,449.726v-3.154h-3.327l-1.783,1.583v1.5a3.205,3.205,0,0,0,3.205,3.205h4.237A3.291,3.291,0,0,1,131.693,449.726Z" transform="translate(-126.583 -398.884)" fill="#6353b2"/>
        <path id="Path_1001319" data-name="Path 1001319" d="M188,50.856a1.114,1.114,0,0,0-1.094.9,2.311,2.311,0,0,1-2.27,1.875H177.01a2.311,2.311,0,0,1-2.27-1.875,1.114,1.114,0,0,0-1.094-.9H171.63V95.418H194.9V50.856Z" transform="translate(-166.737 -46.147)" fill="#60b9fe"/>
        <path id="Path_1001320" data-name="Path 1001320" d="M126.583,50.856h5.11V95.418h-5.11Z" transform="translate(-126.583 -46.147)" fill="#1ca8ff"/>
        <path id="Path_1001321" data-name="Path 1001321" d="M244.114,155.472a1.9,1.9,0,0,0,0,3.259,1.863,1.863,0,0,0,0-3.259Z" transform="translate(-230.525 -139.401)" fill="#dbedff"/>
        <path id="Path_1001322" data-name="Path 1001322" d="M228.068,155.176a1.862,1.862,0,0,1,.932-1.613,1.865,1.865,0,1,0,0,3.226A1.863,1.863,0,0,1,228.068,155.176Z" transform="translate(-215.383 -137.474)" fill="#b5dcff"/>
      </g>
      <g id="Group_1187151" data-name="Group 1187151" transform="translate(27.056 0)">
        <path id="Path_1001323" data-name="Path 1001323" d="M409.925,237.269a.815.815,0,1,0-1.152,1.152.948.948,0,0,1,0,1.34.815.815,0,1,0,1.152,1.152A2.579,2.579,0,0,0,409.925,237.269Z" transform="translate(-367.102 -211.286)"/>
        <path id="Path_1001324" data-name="Path 1001324" d="M428.817,225.222a.814.814,0,0,0,1.152,0,5.661,5.661,0,0,0,0-8,.814.814,0,1,0-1.152,1.152,4.032,4.032,0,0,1,0,5.694A.815.815,0,0,0,428.817,225.222Z" transform="translate(-384.969 -193.419)"/>
        <path id="Path_1001325" data-name="Path 1001325" d="M450.014,209.532a8.743,8.743,0,0,0,0-12.352.815.815,0,0,0-1.152,1.152,7.113,7.113,0,0,1,0,10.048.815.815,0,0,0,1.152,1.152Z" transform="translate(-402.837 -175.552)"/>
        <path id="Path_1001326" data-name="Path 1001326" d="M85.634,237.27a.815.815,0,0,0-1.152,0,2.579,2.579,0,0,0,0,3.644.815.815,0,0,0,1.152-1.152.948.948,0,0,1,0-1.34A.815.815,0,0,0,85.634,237.27Z" transform="translate(-77.573 -211.287)"/>
        <path id="Path_1001327" data-name="Path 1001327" d="M58.2,217.225a.815.815,0,0,0-1.152,0,5.662,5.662,0,0,0,0,8,.815.815,0,0,0,1.152-1.152,4.031,4.031,0,0,1,0-5.694A.815.815,0,0,0,58.2,217.225Z" transform="translate(-52.316 -193.419)"/>
        <path id="Path_1001328" data-name="Path 1001328" d="M30.762,198.333a.815.815,0,0,0-1.152-1.152,8.743,8.743,0,0,0,0,12.352.815.815,0,0,0,1.152-1.152A7.113,7.113,0,0,1,30.762,198.333Z" transform="translate(-27.056 -175.552)"/>
        <path id="Path_1001329" data-name="Path 1001329" d="M221.13,151.169a2.679,2.679,0,1,0-2.679-2.679A2.682,2.682,0,0,0,221.13,151.169Zm0-3.729a1.05,1.05,0,1,1-1.05,1.05A1.051,1.051,0,0,1,221.13,147.44Z" transform="translate(-197.664 -129.974)"/>
        <path id="Path_1001330" data-name="Path 1001330" d="M243.778,219.829a.814.814,0,0,0,.259-1.122l-3.053-4.883a1.614,1.614,0,0,0-1.376-.763l-5.435.006v-3.32h6.2a.815.815,0,1,0,0-1.629h-6.2v-2.737a.815.815,0,1,0-1.629,0v7.686a1.625,1.625,0,0,0,1.623,1.623l5.435,0,3.053,4.883A.815.815,0,0,0,243.778,219.829Z" transform="translate(-210.226 -182.348)"/>
        <path id="Path_1001331" data-name="Path 1001331" d="M176.627,222.559a8.237,8.237,0,1,0,10.4,12.453.815.815,0,0,0-1.244-1.052,6.607,6.607,0,1,1-8.343-9.99.815.815,0,1,0-.814-1.411Z" transform="translate(-156.703 -198.29)"/>
        <path id="Path_1001332" data-name="Path 1001332" d="M232.877,33.939h-4.562a.815.815,0,0,0,0,1.629h4.562a.815.815,0,0,0,0-1.629Z" transform="translate(-205.731 -30.253)"/>
        <path id="Path_1001333" data-name="Path 1001333" d="M144.606,0H122.849a4.025,4.025,0,0,0-4.02,4.02V51.589a4.025,4.025,0,0,0,4.02,4.02h8.978a.815.815,0,0,0,0-1.629h-8.978a2.393,2.393,0,0,1-2.391-2.391V50.9H147v.689a2.393,2.393,0,0,1-2.391,2.391h-8.978a.815.815,0,1,0,0,1.629h8.978a4.025,4.025,0,0,0,4.02-4.02V29.705a.815.815,0,0,0-1.629,0V49.271H120.458V6.338h6.094a.3.3,0,0,1,.294.243,3.13,3.13,0,0,0,3.069,2.535h7.622a3.13,3.13,0,0,0,3.069-2.535.3.3,0,0,1,.294-.243H147V25.9a.815.815,0,1,0,1.629,0V4.02A4.025,4.025,0,0,0,144.606,0Zm-3.7,4.709a1.932,1.932,0,0,0-1.894,1.565,1.5,1.5,0,0,1-1.469,1.214h-7.622a1.5,1.5,0,0,1-1.469-1.214,1.931,1.931,0,0,0-1.894-1.565h-6.094V4.02a2.393,2.393,0,0,1,2.391-2.391h21.757A2.393,2.393,0,0,1,147,4.02v.689Z" transform="translate(-108.861 0)"/>
      </g>
    </g>
  </g>
</svg>
