<svg xmlns="http://www.w3.org/2000/svg" width="70" height="70" viewBox="0 0 70 70">
  <g id="img14" transform="translate(-269 -958.087)">
    <circle id="Ellipse_5614" data-name="Ellipse 5614" cx="35" cy="35" r="35" transform="translate(269 958.087)" fill="#fff"/>
    <g id="Group_1187169" data-name="Group 1187169" transform="translate(276.376 969.317)">
      <path id="Path_1001356" data-name="Path 1001356" d="M38.7,3H16.547A3.116,3.116,0,0,0,13.4,6.147V41.392a3.116,3.116,0,0,0,3.147,3.147H38.7a3.116,3.116,0,0,0,3.147-3.147V6.147A3.116,3.116,0,0,0,38.7,3Zm1.888,38.392A1.854,1.854,0,0,1,38.7,43.28H16.547a1.854,1.854,0,0,1-1.888-1.888V6.147a1.854,1.854,0,0,1,1.888-1.888H38.7a1.854,1.854,0,0,1,1.888,1.888Z" transform="translate(0)" fill="#2142dc"/>
      <path id="Path_1001357" data-name="Path 1001357" d="M19.029,23.86h20.9a.631.631,0,0,0,.629-.629V8.629A.6.6,0,0,0,39.925,8h-20.9a.6.6,0,0,0-.629.629v14.6A.677.677,0,0,0,19.029,23.86ZM33.82,22.6l-1.511-2.14,2.455-3.4,3.965,5.476H33.82Zm-1.573,0H20.288l5.979-8.245ZM39.3,9.259V21.28l-4.091-5.6a.655.655,0,0,0-1.007,0l-2.706,3.713-4.72-6.483a.589.589,0,0,0-1.007,0l-6.1,8.371V9.259Z" transform="translate(-1.853 -1.853)" fill="#2142dc"/>
      <path id="Path_1001358" data-name="Path 1001358" d="M37.9,16.906a2.2,2.2,0,1,0-2.2-2.2A2.189,2.189,0,0,0,37.9,16.906Zm0-3.147a.944.944,0,1,1-.944.944A.927.927,0,0,1,37.9,13.759Z" transform="translate(-8.265 -3.521)" fill="#2142dc"/>
      <path id="Path_1001359" data-name="Path 1001359" d="M28.659,49.1H19.029a.629.629,0,1,0,0,1.259h9.629a.6.6,0,0,0,.629-.629A.631.631,0,0,0,28.659,49.1Z" transform="translate(-1.853 -17.086)" fill="#2142dc"/>
      <path id="Path_1001360" data-name="Path 1001360" d="M28.659,55.5H19.029a.629.629,0,1,0,0,1.259h9.629a.6.6,0,0,0,.629-.629A.631.631,0,0,0,28.659,55.5Z" transform="translate(-1.853 -19.458)" fill="#2142dc"/>
      <path id="Path_1001361" data-name="Path 1001361" d="M19.029,43.859h20.9a.629.629,0,1,0,0-1.259h-20.9a.6.6,0,0,0-.629.629A.631.631,0,0,0,19.029,43.859Z" transform="translate(-1.853 -14.677)" fill="#2142dc"/>
      <path id="Path_1001362" data-name="Path 1001362" d="M28.659,62H19.029a.629.629,0,0,0,0,1.259h9.629a.6.6,0,0,0,.629-.629A.631.631,0,0,0,28.659,62Z" transform="translate(-1.853 -21.867)" fill="#2142dc"/>
      <path id="Path_1001363" data-name="Path 1001363" d="M19.029,37.459h20.9a.629.629,0,0,0,0-1.259h-20.9a.6.6,0,0,0-.629.629A.631.631,0,0,0,19.029,37.459Z" transform="translate(-1.853 -12.305)" fill="#2142dc"/>
      <path id="Path_1001364" data-name="Path 1001364" d="M47.448,49.1H39.329a.6.6,0,0,0-.629.629v8.119a.6.6,0,0,0,.629.629h8.119a.6.6,0,0,0,.629-.629V49.729A.6.6,0,0,0,47.448,49.1Zm-.629,8.119h-6.86v-6.86h6.86Z" transform="translate(-9.377 -17.086)" fill="#2142dc"/>
      <path id="Path_1001365" data-name="Path 1001365" d="M43.089,57.165a.608.608,0,0,0,.881,0l1.007-1.007,1.007,1.007a.623.623,0,0,0,.881-.881l-1.007-1.007,1.007-1.007a.623.623,0,0,0-.881-.881L44.977,54.4,43.97,53.389a.623.623,0,0,0-.881.881L44.1,55.277l-1.007,1.007A.608.608,0,0,0,43.089,57.165Z" transform="translate(-10.933 -18.605)" fill="#2142dc"/>
    </g>
  </g>
</svg>
