<svg xmlns="http://www.w3.org/2000/svg" width="112" height="112" viewBox="0 0 112 112">
  <g id="img1" transform="translate(-209.571 -503)">
    <rect id="Rectangle_455031" data-name="Rectangle 455031" width="112" height="112" rx="10" transform="translate(209.571 503)" fill="#a8b8ff"/>
    <g id="Group_1183696" data-name="Group 1183696" transform="translate(181.338 523.739)">
      <g id="Group_1183668" data-name="Group 1183668" transform="translate(77.904 8.525)">
        <path id="Path_999597" data-name="Path 999597" d="M217.591,89.973h8.056v6.136h-8.056Z" transform="translate(-217.591 -89.973)" fill="#ffcbbe"/>
      </g>
      <g id="Group_1183669" data-name="Group 1183669" transform="translate(83.654 8.525)">
        <path id="Path_999598" data-name="Path 999598" d="M252.48,89.973h2.306v6.136H252.48Z" transform="translate(-252.48 -89.973)" fill="#fdad9d"/>
      </g>
      <g id="Group_1183670" data-name="Group 1183670" transform="translate(72.105 -7.545)">
        <ellipse id="Ellipse_13636" data-name="Ellipse 13636" cx="6.885" cy="8.121" rx="6.885" ry="8.121" transform="matrix(0.89, -0.456, 0.456, 0.89, 0, 6.279)" fill="#ffcbbe"/>
      </g>
      <g id="Group_1183671" data-name="Group 1183671" transform="translate(79.548 -5.073)">
        <path id="Path_999599" data-name="Path 999599" d="M236.077,12.2c-1.789-3.488-5.376-5.324-8.511-4.574a8.863,8.863,0,0,1,4.483,4.216c2.047,3.991.963,8.633-2.421,10.368a5.9,5.9,0,0,1-1.322.489,6.373,6.373,0,0,0,5.35-.131C237.04,20.83,238.123,16.188,236.077,12.2Z" transform="translate(-227.566 -7.456)" fill="#fdad9d"/>
      </g>
      <g id="Group_1183672" data-name="Group 1183672" transform="translate(72.764 13.391)">
        <path id="Path_999600" data-name="Path 999600" d="M204.735,148.638H186.4V126.125a6.619,6.619,0,0,1,6.619-6.619h5.1a6.619,6.619,0,0,1,6.619,6.619v22.513Z" transform="translate(-186.399 -119.506)" fill="#95d6a4"/>
      </g>
      <g id="Group_1183673" data-name="Group 1183673" transform="translate(80.469 13.391)">
        <path id="Path_999601" data-name="Path 999601" d="M237.182,119.507h-4.028a6.6,6.6,0,0,1,6.6,6.6v22.529h4.028V126.11A6.6,6.6,0,0,0,237.182,119.507Z" transform="translate(-233.154 -119.507)" fill="#78c2a4"/>
      </g>
      <g id="Group_1183674" data-name="Group 1183674" transform="translate(74.771 -5.073)">
        <path id="Path_999602" data-name="Path 999602" d="M203.244,14.29a2.635,2.635,0,0,1,2.635-2.635h5.683c-2.154-3.611-6.3-5.2-9.53-3.544-3.278,1.681-4.4,6.091-2.6,9.994A3.815,3.815,0,0,0,203.244,14.29Z" transform="translate(-198.576 -7.456)" fill="#756e78"/>
      </g>
      <g id="Group_1183675" data-name="Group 1183675" transform="translate(79.55 -5.071)">
        <path id="Path_999603" data-name="Path 999603" d="M231.961,11.663h3.825c-1.868-3.133-5.239-4.741-8.206-4.032A8.835,8.835,0,0,1,231.961,11.663Z" transform="translate(-227.58 -7.465)" fill="#665e66"/>
      </g>
      <g id="Group_1183676" data-name="Group 1183676" transform="translate(98.988 60.694)">
        <path id="Path_999604" data-name="Path 999604" d="M362.212,411.368l-4.657-1.51a1.218,1.218,0,0,1-.842-1.159v-.775l-.493-1.358H346.033l-.493,1.358v5.653a2.58,2.58,0,0,0,2.581,2.581h13.544a1.777,1.777,0,0,0,1.777-1.777v-1.323A1.777,1.777,0,0,0,362.212,411.368Z" transform="translate(-345.54 -406.566)" fill="#aa7a63"/>
      </g>
      <g id="Group_1183677" data-name="Group 1183677" transform="translate(105.388 60.694)">
        <path id="Path_999605" data-name="Path 999605" d="M394.65,411.368l-4.657-1.51a1.218,1.218,0,0,1-.842-1.159v-.775l-.493-1.358h-4.28V408.7a1.218,1.218,0,0,0,.842,1.159l4.657,1.51a1.776,1.776,0,0,1,1.228,1.69v1.323a1.777,1.777,0,0,1-1.777,1.777H394.1a1.777,1.777,0,0,0,1.777-1.777v-1.323A1.776,1.776,0,0,0,394.65,411.368Z" transform="translate(-384.378 -406.566)" fill="#986b54"/>
      </g>
      <g id="Group_1183678" data-name="Group 1183678" transform="translate(72.765 38.516)">
        <path id="Path_999606" data-name="Path 999606" d="M212.623,284.023v11.488H223.8v-17.36a6.176,6.176,0,0,0-6.176-6.176H186.4v5.486a5.687,5.687,0,0,0,5.687,5.687h19.662A.875.875,0,0,1,212.623,284.023Z" transform="translate(-186.399 -271.975)" fill="#5766cb"/>
      </g>
      <g id="Group_1183679" data-name="Group 1183679" transform="translate(99.212 38.516)">
        <path id="Path_999607" data-name="Path 999607" d="M353.073,278.151v17.36h4.773v-17.36a6.176,6.176,0,0,0-6.176-6.176H346.9A6.176,6.176,0,0,1,353.073,278.151Z" transform="translate(-346.897 -271.975)" fill="#3d4fc3"/>
      </g>
      <g id="Group_1183681" data-name="Group 1183681" transform="translate(61.561 23.751)">
        <g id="Group_1183680" data-name="Group 1183680">
          <path id="Path_999608" data-name="Path 999608" d="M171.273,233.842h-17.93a2.466,2.466,0,0,1-2.466-2.466V216.631a3.373,3.373,0,0,0-3.369-3.37H127.1a2.466,2.466,0,0,1-2.466-2.466V187.309h-3.758a2.466,2.466,0,1,1,0-4.932H127.1a2.466,2.466,0,0,1,2.466,2.466V208.33h17.942a8.311,8.311,0,0,1,8.3,8.3v12.279h15.464a2.466,2.466,0,1,1,0,4.932Z" transform="translate(-118.411 -182.377)" fill="#756e78"/>
        </g>
      </g>
      <g id="Group_1183685" data-name="Group 1183685" transform="translate(67.754 23.751)">
        <g id="Group_1183682" data-name="Group 1183682" transform="translate(44.173 46.534)">
          <path id="Path_999609" data-name="Path 999609" d="M426.554,464.769h-2.5a2.466,2.466,0,0,1,0,4.932h2.5a2.466,2.466,0,0,0,0-4.932Z" transform="translate(-424.057 -464.769)" fill="#665e66"/>
        </g>
        <g id="Group_1183683" data-name="Group 1183683" transform="translate(20.407 25.953)">
          <path id="Path_999610" data-name="Path 999610" d="M288.135,348.176v10.793a1.486,1.486,0,0,0,1.486,1.486h1.01V348.176a8.3,8.3,0,0,0-8.3-8.3h-2.5a8.311,8.311,0,0,1,8.3,8.3Z" transform="translate(-279.834 -339.875)" fill="#665e66"/>
        </g>
        <g id="Group_1183684" data-name="Group 1183684">
          <path id="Path_999611" data-name="Path 999611" d="M158.456,184.843V208.33h2.5V184.843a2.466,2.466,0,0,0-2.466-2.466h-2.5A2.466,2.466,0,0,1,158.456,184.843Z" transform="translate(-155.99 -182.377)" fill="#665e66"/>
        </g>
      </g>
      <g id="Group_1183687" data-name="Group 1183687" transform="translate(51.578 39.867)">
        <g id="Group_1183686" data-name="Group 1183686">
          <path id="Path_999612" data-name="Path 999612" d="M76.311,317.146a18.484,18.484,0,1,1,18.484-18.484A18.5,18.5,0,0,1,76.311,317.146Zm0-32.036a13.552,13.552,0,1,0,13.552,13.552A13.567,13.567,0,0,0,76.311,285.11Z" transform="translate(-57.827 -280.178)" fill="#756e78"/>
        </g>
      </g>
      <g id="Group_1183689" data-name="Group 1183689" transform="translate(55.894 44.184)">
        <g id="Group_1183688" data-name="Group 1183688">
          <path id="Path_999613" data-name="Path 999613" d="M110.046,306.373A18.473,18.473,0,0,1,84.021,332.4a18.476,18.476,0,1,0,26.025-26.025Z" transform="translate(-84.021 -306.373)" fill="#665e66"/>
        </g>
      </g>
      <g id="Group_1183690" data-name="Group 1183690" transform="translate(101.822 36.525)">
        <path id="Path_999614" data-name="Path 999614" d="M366.635,259.895l2.3,2.109a7.385,7.385,0,0,1,2.371,4.851l.084,1.043a.7.7,0,0,1-1.081.644l-7.573-4.928Z" transform="translate(-362.737 -259.895)" fill="#ffcbbe"/>
      </g>
      <g id="Group_1183691" data-name="Group 1183691" transform="translate(104.442 36.525)">
        <path id="Path_999615" data-name="Path 999615" d="M384.668,267.9l-.084-1.043A7.384,7.384,0,0,0,382.213,262l-2.3-2.109-1.279,1.22.969.889a7.384,7.384,0,0,1,2.371,4.851l.054.673,1.559,1.015A.7.7,0,0,0,384.668,267.9Z" transform="translate(-378.633 -259.895)" fill="#fdad9d"/>
      </g>
      <g id="Group_1183693" data-name="Group 1183693" transform="translate(76.391 17.832)">
        <g id="Group_1183692" data-name="Group 1183692">
          <path id="Path_999616" data-name="Path 999616" d="M234.809,170.3a.653.653,0,0,1-.882.043,7.3,7.3,0,0,0-4.762-1.75H217.7A9.293,9.293,0,0,1,208.4,159.3v-9.14a3.7,3.7,0,1,1,7.4,0v9.14a1.9,1.9,0,0,0,1.9,1.9h11.466a14.643,14.643,0,0,1,9.934,3.846.658.658,0,0,1,.019.95Z" transform="translate(-208.405 -146.458)" fill="#95d6a4"/>
        </g>
      </g>
      <g id="Group_1183694" data-name="Group 1183694" transform="translate(78.507 17.832)">
        <path id="Path_999617" data-name="Path 999617" d="M249.824,165.038a14.643,14.643,0,0,0-9.934-3.846H228.424a1.9,1.9,0,0,1-1.9-1.9v-9.14a3.7,3.7,0,0,0-5.281-3.343,3.692,3.692,0,0,1,1.444,2.931v10.989a1.9,1.9,0,0,0,1.9,1.9h11.466a14.643,14.643,0,0,1,9.934,3.846.658.658,0,0,1,.019.95l-2.257,2.257a7.35,7.35,0,0,1,.9.657.653.653,0,0,0,.882-.043l4.308-4.308a.658.658,0,0,0-.019-.95Z" transform="translate(-221.247 -146.457)" fill="#78c2a4"/>
      </g>
      <g id="Group_1183695" data-name="Group 1183695" transform="translate(50.345 -6.302)">
        <path id="Path_999618" data-name="Path 999618" d="M136.608,76.806a2.993,2.993,0,0,0,.763-2V73.487a3,3,0,0,0-2.081-2.863l-4.647-1.507V51.949a1.922,1.922,0,0,0,.311-1.218l-.084-1.044a8.592,8.592,0,0,0-2.767-5.661l-.388-.356a1.873,1.873,0,0,0-.551-1.867A15.925,15.925,0,0,0,116.4,37.635H104.933a.664.664,0,0,1-.663-.663v-9.14a4.932,4.932,0,0,0-9.863,0v9.14a10.474,10.474,0,0,0,2.344,6.612h-3.5V26.3a5.376,5.376,0,0,1,5.37-5.37h5.129a5.376,5.376,0,0,1,5.37,5.37v6.452a1.233,1.233,0,0,0,2.466,0V26.3a7.85,7.85,0,0,0-5.14-7.358v-2.12c3.22-2.384,4.1-7.239,1.963-11.412C106.052.816,100.9-1.256,96.913.787a7.573,7.573,0,0,0-3.885,5.155,10.09,10.09,0,0,0,.93,6.873,10.569,10.569,0,0,0,1.963,2.693v3.43a7.849,7.849,0,0,0-5.14,7.358v2.753A3.681,3.681,0,0,0,89.5,28.82H83.276a3.7,3.7,0,0,0,0,7.4H85.8v9.029a19.592,19.592,0,0,0-12.155,7.445,1.233,1.233,0,0,0,1.958,1.5A17.248,17.248,0,1,1,94.926,80.966a1.233,1.233,0,0,0,.8,2.331A19.73,19.73,0,0,0,108.872,62.17h1.035a2.139,2.139,0,0,1,2.136,2.137V79.052a3.7,3.7,0,0,0,3.7,3.7h17.93a3.7,3.7,0,0,0,2.935-5.945ZM95.43,6.5a5.148,5.148,0,0,1,2.609-3.521,5.713,5.713,0,0,1,6.384,1.214h-3.1a3.873,3.873,0,0,0-3.868,3.868,2.586,2.586,0,0,1-1.794,2.458A7.386,7.386,0,0,1,95.43,6.5Zm2.543,7.551a7.921,7.921,0,0,1-1.184-1.321,5.055,5.055,0,0,0,3.133-4.669,1.4,1.4,0,0,1,1.4-1.4h4.951c1.591,3.236.861,6.921-1.694,8.438a1.233,1.233,0,0,0-.6,1.06v2.307c-.077,0-.153-.006-.23-.006H98.617c-.077,0-.154,0-.23.006V14.975a1.232,1.232,0,0,0-.414-.922ZM134.53,72.97a.542.542,0,0,1,.376.517V74.81c.011.65-.8.546-1.233.544H120.818a1.349,1.349,0,0,1-1.348-1.348v-4.42h8.752a2.442,2.442,0,0,0,1.65,1.873ZM117,57.95a9.608,9.608,0,0,0-.725-.727H117Zm11.4-8.1-3.937-2.562,1.693-1.693.272.249A6.133,6.133,0,0,1,128.41,49.849ZM96.873,27.833a2.466,2.466,0,0,1,4.932,0v9.14a3.132,3.132,0,0,0,3.129,3.129H116.4a13.468,13.468,0,0,1,8.646,3.126l-3.511,3.511a8.58,8.58,0,0,0-5.136-1.7H104.933a8.069,8.069,0,0,1-8.06-8.06v-9.14ZM88.267,44.964v-9.98a1.233,1.233,0,0,0-1.233-1.233H83.276a1.233,1.233,0,1,1,0-2.466H89.5a1.234,1.234,0,0,1,1.233,1.233V44.988c-.47-.034-.943-.052-1.421-.052C88.961,44.936,88.613,44.946,88.267,44.964Zm7.578,1.086H99.5c.035,0,.07,0,.1-.005a10.459,10.459,0,0,0,5.329,1.454H116.4a6.025,6.025,0,0,1,3.962,1.455,1.864,1.864,0,0,0,1.213.444,1.9,1.9,0,0,0,1.09-.344l5.307,3.454a1.954,1.954,0,0,0,.206.116v14.5h-8.707V56.865a2.111,2.111,0,0,0-2.108-2.108h-11A19.821,19.821,0,0,0,95.845,46.05Zm37.828,34.235h-17.93a1.234,1.234,0,0,1-1.233-1.233V64.307a4.608,4.608,0,0,0-4.6-4.6H108.4a19.566,19.566,0,0,0-.819-2.466h2.327a7.076,7.076,0,0,1,7.068,7.068V76.586a1.233,1.233,0,0,0,1.233,1.233h15.464a1.233,1.233,0,1,1,0,2.466Z" transform="translate(-69.595 0)"/>
        <path id="Path_999619" data-name="Path 999619" d="M95.059,332.2a14.785,14.785,0,1,0-14.785-14.785A14.8,14.8,0,0,0,95.059,332.2Zm3.887-26.472a12.3,12.3,0,0,1,3.463,1.807H98.946Zm-2.466-.548v3.588A1.233,1.233,0,0,0,97.713,310h7.176a12.332,12.332,0,0,1,1.447,2.466H95.248a1.234,1.234,0,0,1-1.233-1.233v-6.091c.345-.029.692-.047,1.044-.047A12.388,12.388,0,0,1,96.48,305.176Zm-4.932.428v5.626a3.7,3.7,0,0,0,3.7,3.7h11.879A12.32,12.32,0,1,1,91.549,305.6Z" transform="translate(-75.342 -252.758)"/>
        <path id="Path_999620" data-name="Path 999620" d="M70.062,371.6A17.254,17.254,0,0,1,53.83,348.5a1.233,1.233,0,0,0-2.319-.838,19.719,19.719,0,0,0,18.551,26.4,1.233,1.233,0,0,0,0-2.466Z" transform="translate(-50.345 -289.693)"/>
      </g>
    </g>
  </g>
</svg>
