<svg xmlns="http://www.w3.org/2000/svg" width="100" height="112" viewBox="0 0 100 112">
  <g id="img17" transform="translate(-315.711 -8150)">
    <rect id="Rectangle_454449" data-name="Rectangle 454449" width="100" height="112" rx="10" transform="translate(315.711 8150)" fill="#a8b8ff"/>
    <g id="Group_1182546" data-name="Group 1182546" transform="translate(335.066 8175)">
      <path id="XMLID_2125_" d="M64.107,68.895H14.788A4.788,4.788,0,0,1,10,64.107V14.788A4.788,4.788,0,0,1,14.788,10H64.107a4.788,4.788,0,0,1,4.788,4.788V64.107A4.788,4.788,0,0,1,64.107,68.895Z" transform="translate(-8.803 -8.803)" fill="#dff6fc"/>
      <path id="XMLID_1492_" d="M146.673,222.1a11.5,11.5,0,1,0,12.148,13Z" transform="translate(-119.644 -195.513)" fill="#dff6fc"/>
      <path id="XMLID_27_" d="M55.3,0H5.985A5.992,5.992,0,0,0,0,5.985V55.3a5.992,5.992,0,0,0,5.985,5.985H55.3A5.992,5.992,0,0,0,61.289,55.3V5.985A5.992,5.992,0,0,0,55.3,0Zm3.591,55.3A3.6,3.6,0,0,1,55.3,58.895H5.985A3.6,3.6,0,0,1,2.394,55.3V5.985A3.6,3.6,0,0,1,5.985,2.394H55.3a3.6,3.6,0,0,1,3.591,3.591Z" fill="#2142dc"/>
      <g id="Layer_46" data-name="Layer 46" transform="translate(9.897 9.897)">
        <path id="Path_1001366" data-name="Path 1001366" d="M38.162,1.5H23.415a3.3,3.3,0,0,0-2.667,1.36A3.3,3.3,0,0,0,18.081,1.5H3.334A1.836,1.836,0,0,0,1.5,3.334V28.4a.631.631,0,0,0,.631.631H6.183a2.019,2.019,0,0,0,.263.231.975.975,0,0,1,.448.828l-.528,8.4A1.424,1.424,0,0,0,7.788,40h4.893A1.424,1.424,0,0,0,14.1,38.482l-.534-8.406a.994.994,0,0,1,.455-.828,1.957,1.957,0,0,0,.247-.22H27.293a1.967,1.967,0,0,0,.248.221.994.994,0,0,1,.453.83l-.533,8.4A1.424,1.424,0,0,0,28.882,40h4.893A1.424,1.424,0,0,0,35.2,38.483l-.528-8.4a.976.976,0,0,1,.451-.827,1.994,1.994,0,0,0,.26-.229h3.985A.631.631,0,0,0,40,28.4V3.334A1.836,1.836,0,0,0,38.162,1.5ZM3.334,2.762H18.081A2.038,2.038,0,0,1,20.117,4.8a.631.631,0,0,0,1.262,0,2.038,2.038,0,0,1,2.036-2.036H38.162a.573.573,0,0,1,.572.572V25.241H36.347l.417-2.667v0a2.188,2.188,0,0,0-.437-1.67,2.142,2.142,0,0,0-1.5-.82l-5.381-.526V14.008a1.89,1.89,0,0,0-2.375-1.835,1.937,1.937,0,0,0-1.412,1.9v6.78l-.145-.145a2.656,2.656,0,0,0-3.756,0,1.134,1.134,0,0,0,0,1.6l2.93,2.93H21.064V24.73a.316.316,0,1,0-.631,0v.511H16.875l2.93-2.93a1.133,1.133,0,0,0,0-1.6,2.655,2.655,0,0,0-3.755,0l-.145.145V14.077a1.937,1.937,0,0,0-1.412-1.9,1.889,1.889,0,0,0-2.375,1.835v5.548l-5.378.525a2.146,2.146,0,0,0-1.5.82,2.188,2.188,0,0,0-.437,1.67v0l.417,2.667H2.762V3.334a.573.573,0,0,1,.572-.572Zm12.255,20.2L16.943,21.6a1.4,1.4,0,0,1,1.874-.089l-3.555,3.556Zm-.655,4.226.68-.68h4.5v1.262H14.843Zm6.446-.68H25.95l.68.68.09.582H21.379Zm1.368-4.988a1.428,1.428,0,0,1,1.873.089l1.354,1.354.328,2.113ZM2.762,26.5H5.413l.2,1.262H2.762ZM12.8,38.683a.158.158,0,0,1-.118.051H7.788a.162.162,0,0,1-.161-.172l.088-1.406H8.09a.316.316,0,1,0,0-.631H7.755l.4-6.356a2.206,2.206,0,0,0-.975-1.937.719.719,0,0,1-.294-.481l-.839-5.368a.909.909,0,0,1,.184-.7.894.894,0,0,1,.63-.342l5.951-.581a.631.631,0,0,0,.57-.628V14.008a.635.635,0,0,1,.8-.614.688.688,0,0,1,.466.683V20.82l-1.078,6.949a.71.71,0,0,1-.283.458,2.222,2.222,0,0,0-.973,1.933l.4,6.366H12.4a.316.316,0,1,0,0,.631h.351l.089,1.406a.158.158,0,0,1-.043.121Zm21.094,0a.158.158,0,0,1-.118.051H28.882a.162.162,0,0,1-.161-.172l.089-1.406h.351a.316.316,0,1,0,0-.631H28.85l.4-6.363a2.221,2.221,0,0,0-.971-1.935A.71.71,0,0,1,28,27.77L26.92,20.82V14.077a.688.688,0,0,1,.466-.683.638.638,0,0,1,.8.614V20.13a.631.631,0,0,0,.57.628l5.954.582a.891.891,0,0,1,.627.341.909.909,0,0,1,.184.7l-.839,5.371a.715.715,0,0,1-.29.476,2.207,2.207,0,0,0-.978,1.937l.4,6.359h-.336a.316.316,0,1,0,0,.631h.375l.088,1.406a.156.156,0,0,1-.043.121Zm2.059-10.917.2-1.262h2.584v1.262ZM6.549,7.7a.631.631,0,1,1,.631.631A.631.631,0,0,1,6.549,7.7Zm-2.524,0a.631.631,0,1,1,.631.631A.631.631,0,0,1,4.024,7.7Zm5.049,0a.631.631,0,1,1,.631.631A.631.631,0,0,1,9.073,7.7ZM4.024,10.215a.631.631,0,1,1,.631.631A.631.631,0,0,1,4.024,10.215Zm2.524,0a.631.631,0,1,1,.631.631A.631.631,0,0,1,6.549,10.215Zm2.524,2.524a.631.631,0,1,1,.631.631A.631.631,0,0,1,9.073,12.739Zm-2.524,0a.631.631,0,1,1,.631.631A.631.631,0,0,1,6.549,12.739Zm-2.524,0a.631.631,0,1,1,.631.631A.631.631,0,0,1,4.024,12.739Zm12.641-2.524a.628.628,0,1,1,.182.451.631.631,0,0,1-.182-.451Zm1.281,2.524a.631.631,0,1,1-.631-.625.631.631,0,0,1,.631.625ZM4.024,17.794a.629.629,0,1,1,.184.447A.631.631,0,0,1,4.024,17.794Zm5.049,0a.629.629,0,1,1,.184.447A.631.631,0,0,1,9.073,17.794Zm-2.524,0a.629.629,0,1,1,.184.447.631.631,0,0,1-.184-.447Zm7.611-12.6a.629.629,0,1,1,.184.447A.631.631,0,0,1,14.16,5.192Zm-5.049,0a.629.629,0,1,1,.184.447A.631.631,0,0,1,9.111,5.192Zm2.524,0a.629.629,0,1,1,.184.447A.631.631,0,0,1,11.635,5.192Zm5.023,12.6a.629.629,0,1,1,.184.447.631.631,0,0,1-.184-.447ZM29.533,7.7a.633.633,0,1,1-.183-.45.631.631,0,0,1,.183.45Zm-2.524,0a.633.633,0,1,1-.183-.45.631.631,0,0,1,.183.45ZM23.19,10.215a.629.629,0,1,1,.184.453.634.634,0,0,1-.184-.453Zm7.573,0a.635.635,0,1,1,.186.451.629.629,0,0,1-.186-.451Zm-2.518,0a.628.628,0,1,1,.628.628.628.628,0,0,1-.628-.628Zm5.049,0a.622.622,0,0,1,.625-.625.631.631,0,1,1-.625.625Zm-7.573,0a.622.622,0,0,1,.625-.625.631.631,0,1,1-.625.625ZM23.19,12.74a.629.629,0,1,1,.184.453.634.634,0,0,1-.184-.453Zm12.666,0a.631.631,0,1,1,.631.631A.631.631,0,0,1,35.856,12.74Zm-1.262,0a.631.631,0,1,1-.631-.631A.631.631,0,0,1,34.594,12.74Zm-11.4,5.055a.631.631,0,1,1,.187.448.634.634,0,0,1-.187-.448Zm8.835-2.524a.627.627,0,1,1-.179-.449.628.628,0,0,1,.179.449Zm-7.567,0a.633.633,0,1,1-.183-.45.631.631,0,0,1,.183.45ZM33.294,5.192a.625.625,0,1,1,.183.448A.628.628,0,0,1,33.294,5.192Zm-5.049,0a.631.631,0,1,1,.631.631A.631.631,0,0,1,28.245,5.192Zm2.524,0a.631.631,0,1,1,.631.631A.631.631,0,0,1,30.77,5.192Zm-7.573,0a.631.631,0,1,1,.631.631A.631.631,0,0,1,23.2,5.192Zm2.524,0a.631.631,0,1,1,.631.631A.631.631,0,0,1,25.721,5.192Zm10.11,12.6a.631.631,0,1,1,.631.631A.631.631,0,0,1,35.831,17.795Zm-1.262,0a.631.631,0,1,1-.631-.631A.631.631,0,0,1,34.569,17.795ZM20.433,19.9V18.693a.316.316,0,1,1,.631,0V19.9a.316.316,0,0,1-.631,0Zm0,3.019V21.712a.316.316,0,0,1,.631,0v1.207a.316.316,0,0,1-.631,0Zm0-15.092V6.62a.316.316,0,0,1,.631,0V7.827a.316.316,0,0,1-.631,0Zm0,3.019V9.639a.316.316,0,1,1,.631,0v1.208a.316.316,0,0,1-.631,0Zm0,6.037V15.675a.316.316,0,1,1,.631,0v1.207a.316.316,0,0,1-.631,0Zm0-3.019V12.657a.316.316,0,1,1,.631,0v1.207a.316.316,0,1,1-.631,0ZM32.171,36.841a.316.316,0,0,1-.316.316H30.778a.316.316,0,1,1,0-.631h1.078A.316.316,0,0,1,32.171,36.841Zm-21.07,0a.316.316,0,0,1-.316.316H9.707a.316.316,0,1,1,0-.631h1.078A.316.316,0,0,1,11.1,36.841Z" fill="#2142dc"/>
      </g>
    </g>
  </g>
</svg>
