<svg xmlns="http://www.w3.org/2000/svg" xmlns:xlink="http://www.w3.org/1999/xlink" width="295" height="353.275" viewBox="0 0 295 353.275">
  <defs>
    <clipPath id="clip-path">
      <rect id="Rectangle_455189" data-name="Rectangle 455189" width="280.585" height="270.866" fill="none"/>
    </clipPath>
    <clipPath id="clip-path-3">
      <rect id="Rectangle_455155" data-name="Rectangle 455155" width="279.12" height="270.866" fill="none"/>
    </clipPath>
    <clipPath id="clip-path-4">
      <rect id="Rectangle_455156" data-name="Rectangle 455156" width="82.773" height="95.314" fill="none"/>
    </clipPath>
    <clipPath id="clip-path-5">
      <rect id="Rectangle_455157" data-name="Rectangle 455157" width="33.764" height="38.879" fill="none"/>
    </clipPath>
    <clipPath id="clip-path-6">
      <rect id="Rectangle_455160" data-name="Rectangle 455160" width="178.441" height="105.543" fill="none"/>
    </clipPath>
    <clipPath id="clip-path-7">
      <rect id="Rectangle_455168" data-name="Rectangle 455168" width="49.941" height="49.942" fill="none"/>
    </clipPath>
    <clipPath id="clip-path-8">
      <rect id="Rectangle_455169" data-name="Rectangle 455169" width="51.286" height="51.286" fill="none"/>
    </clipPath>
    <clipPath id="clip-path-9">
      <rect id="Rectangle_455173" data-name="Rectangle 455173" width="36.967" height="69.256" fill="none"/>
    </clipPath>
  </defs>
  <g id="img11" transform="translate(-182.711 -3521.901)">
    <path id="Path_929096" data-name="Path 929096" d="M102.028-110A101.708,101.708,0,0,0,29.883-80.117,102.318,102.318,0,0,0,11-54.1,101.463,101.463,0,0,0,.113-12.808Q0-10.4,0-7.972V140.395q0,3.2.193,6.357a102.886,102.886,0,0,0,102.687,96.523H161.4l-8.878-15.536s-5.116-10.042,1.326-17.241,17.052-2.652,21.788-.379c3.077,1.477,12.149,7.59,25.971,11.694a92.5,92.5,0,0,0,19.694,3.6c2.147.155,4.356.239,6.627.239a66.709,66.709,0,0,0,41.55-14.491,65.779,65.779,0,0,0,23.246-36.77A89.225,89.225,0,0,0,295,154.321V-67.654A42.215,42.215,0,0,0,282.6-97.6,42.213,42.213,0,0,0,252.654-110Z" transform="translate(182.711 3631.901)" fill="#5bc0be"/>
    <g id="Group_1186140" data-name="Group 1186140" transform="translate(194.415 3549.207)">
      <g id="Group_1186162" data-name="Group 1186162" clip-path="url(#clip-path)">
        <g id="Group_1186161" data-name="Group 1186161">
          <g id="Group_1186160" data-name="Group 1186160" clip-path="url(#clip-path)">
            <path id="Path_1000252" data-name="Path 1000252" d="M70.568,256.744s-55-41.917-67.974-107.3S42.925,70.875,74.189,48.717,116.961,1.625,162.263.1,231,15.407,247.359,48.037s25.093,66.138,30.234,98.839,2.615,58.821-26.465,71.85-42.574,7.313-56.387,22.317-76.857,48.964-124.173,15.7" transform="translate(-0.251 0)" fill="#92e3a9"/>
            <g id="Group_1186141" data-name="Group 1186141" transform="translate(0.347)" opacity="0.7">
              <g id="Group_1186140-2" data-name="Group 1186140">
                <g id="Group_1186139" data-name="Group 1186139" clip-path="url(#clip-path-3)">
                  <path id="Path_1000253" data-name="Path 1000253" d="M70.568,256.744s-55-41.917-67.974-107.3S42.925,70.875,74.189,48.717,116.961,1.625,162.263.1,231,15.407,247.359,48.037s25.093,66.138,30.234,98.839,2.615,58.821-26.465,71.85-42.574,7.313-56.387,22.317-76.857,48.964-124.173,15.7" transform="translate(-0.597 0)" fill="#fff"/>
                </g>
              </g>
            </g>
            <line id="Line_27285" data-name="Line 27285" x2="280.004" transform="translate(0.29 238.477)" fill="none" stroke="#263238" stroke-linecap="round" stroke-linejoin="round" stroke-width="1"/>
            <g id="Group_1186144" data-name="Group 1186144" transform="translate(112.302 142.739)" opacity="0.3">
              <g id="Group_1186143" data-name="Group 1186143">
                <g id="Group_1186142" data-name="Group 1186142" clip-path="url(#clip-path-4)">
                  <path id="Path_1000254" data-name="Path 1000254" d="M198.37,283.912c2.327,1.016,8.019.888,8.023.888.059,0-1.224-3.726-1.331-3.952-1.249-2.613-5.2-6.927-8.411-6.492a3.838,3.838,0,0,0-3.08,4.809c.534,2.226,2.818,3.88,4.8,4.746" transform="translate(-193.455 -257.817)"/>
                  <path id="Path_1000255" data-name="Path 1000255" d="M200.681,288.469c2.414.352,7.493-1.121,7.9-1.24a67.967,67.967,0,0,0,3.081,8.524c.7,1.618,1.453,3.225,2.229,4.828-.463-.679-.883-1.282-.95-1.361-1.895-2.19-6.843-5.308-9.827-4.039a3.836,3.836,0,0,0-1.7,5.451c1.1,2.006,3.742,3,5.882,3.31,2.172.317,6.527-.852,7.676-1.177.3.611.6,1.225.908,1.836,1.471,2.929,2.951,5.845,4.316,8.75.481,1.023.917,2.049,1.358,3.074-.412-.6-.765-1.106-.827-1.178-1.894-2.19-6.842-5.307-9.827-4.039a3.837,3.837,0,0,0-1.7,5.451c1.1,2.006,3.742,3,5.882,3.31,2.072.3,6.1-.741,7.469-1.12.419,1.063.841,2.126,1.2,3.175.229.722.5,1.4.687,2.139q.3,1.089.6,2.158c.333,1.384.684,2.813.974,4.172.21.944.391,1.848.577,2.758-.467-1.025-1.425-3.011-1.523-3.168-1.54-2.451-5.959-6.282-9.1-5.482a3.837,3.837,0,0,0-2.506,5.131c.786,2.15,3.244,3.531,5.312,4.163,2.277.7,7.319.06,7.948-.024.3,1.506.582,2.974.823,4.364q.273,1.543.5,2.966h2.019q-.286-1.586-.629-3.319c-.3-1.531-.652-3.16-1.03-4.831a41.712,41.712,0,0,0,4.434-2.085c1.66,1.8,5.912,3.9,6.463,4.169-.578,1.423-1.155,2.8-1.721,4.094-.3.685-.587,1.331-.875,1.973h2.135c.169-.406.337-.8.51-1.225.594-1.443,1.2-3,1.807-4.6.61.128,5.6,1.141,7.927.616,2.109-.477,4.664-1.67,5.609-3.756a3.837,3.837,0,0,0-2.118-5.3c-3.073-1.033-7.765,2.458-9.485,4.788-.1.138-1.035,1.752-1.607,2.779.244-.655.489-1.289.733-1.967.491-1.337.941-2.686,1.43-4.136l.643-2.146c.229-.712.381-1.493.577-2.246.419-1.755.756-3.554,1.057-5.374,1.172.426,5.356,1.882,7.523,1.729s4.863-.944,6.113-2.862a3.838,3.838,0,0,0-1.289-5.564c-2.882-1.486-8.049,1.254-10.1,3.3-.128.127-1.436,1.758-2.137,2.668.172-1.1.349-2.187.488-3.3.4-3.215.7-6.482,1.021-9.74.1-1,.2-1.991.31-2.986.415.157,5.35,1.994,7.778,1.823,2.157-.15,4.864-.943,6.113-2.863a3.836,3.836,0,0,0-1.29-5.562c-2.882-1.487-8.048,1.253-10.1,3.3-.154.154-2.033,2.5-2.482,3.125.231-2.191.482-4.371.817-6.511a67.5,67.5,0,0,1,1.869-8.564c.193.073,5.335,2.014,7.822,1.84,2.157-.152,4.864-.945,6.113-2.862a3.838,3.838,0,0,0-1.289-5.564c-2.882-1.486-8.048,1.254-10.1,3.3-.16.161-2.18,2.69-2.514,3.174.048-.163.08-.336.13-.5a49.376,49.376,0,0,1,3.392-8.1c.737-1.443,1.523-2.781,2.316-4.066.921.46,5.152,2.514,7.407,2.6,2.161.086,4.938-.4,6.39-2.173a3.838,3.838,0,0,0-.671-5.672c-2.7-1.794-8.138.362-10.4,2.167-.123.1-1.264,1.235-2.083,2.074.366-.575.734-1.174,1.1-1.717,1.357-2.043,2.724-3.83,3.949-5.4.7-.889,1.357-1.678,1.976-2.411,1.138-.02,5.727-.159,7.733-1.1,1.957-.919,4.2-2.634,4.67-4.874a3.837,3.837,0,0,0-3.208-4.724c-3.224-.348-7.055,4.071-8.233,6.716-.1.229-1.282,3.987-1.223,3.986h.069c-.611.693-1.256,1.443-1.946,2.277-1.261,1.549-2.672,3.311-4.077,5.332a68.273,68.273,0,0,0-4.229,6.736,50.087,50.087,0,0,0-3.612,8.131c-.011.033-.018.07-.029.1.017-.95-.026-3.608-.052-3.811-.373-2.872-2.779-8.2-5.968-8.792a3.838,3.838,0,0,0-4.426,3.61c-.186,2.281,1.467,4.565,3.081,6.006,1.819,1.625,6.868,3.2,7.27,3.323a67.911,67.911,0,0,0-2.133,8.808c-.309,1.736-.567,3.492-.8,5.257-.012-.822-.028-1.557-.042-1.659-.373-2.872-2.779-8.2-5.968-8.791a3.837,3.837,0,0,0-4.425,3.609c-.187,2.281,1.467,4.565,3.08,6.006,1.637,1.462,5.915,2.89,7.051,3.253-.083.678-.174,1.354-.255,2.032-.389,3.254-.763,6.5-1.227,9.679-.163,1.12-.365,2.216-.563,3.313-.012-.73-.027-1.344-.039-1.437-.373-2.872-2.779-8.2-5.968-8.791a3.838,3.838,0,0,0-4.426,3.61c-.187,2.281,1.468,4.564,3.081,6.005,1.562,1.395,5.5,2.749,6.848,3.186-.237,1.119-.472,2.238-.751,3.311-.208.728-.357,1.443-.606,2.163l-.688,2.131c-.488,1.339-.982,2.724-1.49,4.018-.347.9-.694,1.757-1.04,2.618.175-1.112.473-3.3.477-3.482a14.9,14.9,0,0,0-2-7.249,4.512,4.512,0,0,0-.053-.848,3.837,3.837,0,0,0-4.692-3.255c-3.134.834-5.121,6.334-5.269,9.226-.009.171.1,2.032.192,3.2-.158-.682-.3-1.345-.474-2.045-.329-1.386-.7-2.759-1.088-4.239q-.32-1.061-.649-2.144c-.2-.72-.506-1.455-.757-2.191-.62-1.695-1.331-3.382-2.083-5.065,1.213-.291,5.5-1.385,7.228-2.708s3.535-3.471,3.52-5.759a3.838,3.838,0,0,0-4.144-3.929c-3.224.35-6.022,5.486-6.607,8.322-.036.177-.227,2.259-.31,3.4-.461-1.008-.916-2.017-1.415-3.022-1.44-2.9-2.989-5.795-4.522-8.687-.47-.886-.927-1.773-1.389-2.661.433-.1,5.562-1.289,7.493-2.77,1.716-1.317,3.536-3.471,3.519-5.76a3.836,3.836,0,0,0-4.144-3.928c-3.224.35-6.022,5.485-6.607,8.321-.044.214-.314,3.21-.346,3.975-1.015-1.955-2.009-3.911-2.91-5.881a67.623,67.623,0,0,1-3.165-8.173c.2-.046,5.561-1.264,7.539-2.781,1.716-1.316,3.536-3.47,3.519-5.759a3.837,3.837,0,0,0-4.145-3.929c-3.224.35-6.021,5.486-6.606,8.322-.046.223-.336,3.446-.346,4.034-.05-.161-.12-.324-.168-.486a49.543,49.543,0,0,1-1.641-8.631c-.181-1.61-.264-3.16-.31-4.668,1.021-.125,5.683-.745,7.613-1.914,1.851-1.121,3.9-3.062,4.131-5.338a3.837,3.837,0,0,0-3.687-4.36c-3.243-.006-6.588,4.791-7.481,7.545-.049.15-.374,1.727-.594,2.879-.01-.681-.035-1.384-.032-2.038,0-2.452.16-4.7.313-6.685.1-1.13.206-2.149.319-3.1.938-.646,4.688-3.293,5.842-5.184,1.126-1.847,2.047-4.512,1.206-6.64a3.838,3.838,0,0,0-5.282-2.171c-2.881,1.489-3.639,7.288-3.163,10.144.042.246,1.13,4.032,1.179,4l.056-.039c-.127.914-.251,1.9-.367,2.972-.2,1.988-.4,4.235-.459,6.7a68.224,68.224,0,0,0,.189,7.951,50,50,0,0,0,1.473,8.774c.009.034.023.068.032.1-.51-.8-2.012-2.994-2.146-3.15-1.895-2.19-6.842-5.307-9.827-4.04a3.838,3.838,0,0,0-1.7,5.452c1.1,2.006,3.743,3,5.882,3.309" transform="translate(-193.802 -245.888)"/>
                  <path id="Path_1000256" data-name="Path 1000256" d="M295.41,282.554c.05.031,1.035-3.783,1.07-4.03.4-2.868-.515-8.644-3.435-10.055a3.836,3.836,0,0,0-5.22,2.313c-.783,2.151.209,4.79,1.385,6.606,1.38,2.132,6.2,5.164,6.2,5.167" transform="translate(-232.925 -255.208)"/>
                </g>
              </g>
            </g>
            <g id="Group_1186147" data-name="Group 1186147" transform="translate(180.781 199.174)" opacity="0.3">
              <g id="Group_1186146" data-name="Group 1186146">
                <g id="Group_1186145" data-name="Group 1186145" clip-path="url(#clip-path-5)">
                  <path id="Path_1000257" data-name="Path 1000257" d="M313.426,358.614a11.215,11.215,0,0,0,3.273.362c.024,0-.5-1.52-.543-1.612-.509-1.066-2.12-2.825-3.431-2.648a1.565,1.565,0,0,0-1.256,1.962,3.272,3.272,0,0,0,1.957,1.936" transform="translate(-311.421 -347.97)"/>
                  <path id="Path_1000258" data-name="Path 1000258" d="M314.369,360.472a10.905,10.905,0,0,0,3.221-.506,27.8,27.8,0,0,0,1.257,3.477c.285.659.593,1.315.909,1.969-.189-.277-.36-.523-.387-.555-.773-.893-2.792-2.165-4.009-1.648a1.566,1.566,0,0,0-.694,2.224,3.272,3.272,0,0,0,2.4,1.35,10.372,10.372,0,0,0,3.131-.48c.124.25.245.5.37.749.6,1.195,1.2,2.384,1.76,3.569.2.417.374.836.554,1.254-.168-.246-.312-.451-.337-.481-.773-.893-2.791-2.165-4.008-1.647a1.565,1.565,0,0,0-.694,2.224,3.273,3.273,0,0,0,2.4,1.35,10,10,0,0,0,3.047-.457c.171.433.343.867.489,1.3.094.294.2.571.28.872s.165.59.246.881c.136.565.279,1.147.4,1.7.085.385.159.753.235,1.124-.19-.418-.581-1.228-.621-1.292-.629-1-2.431-2.563-3.713-2.236a1.565,1.565,0,0,0-1.022,2.093,3.27,3.27,0,0,0,2.167,1.7,10.746,10.746,0,0,0,3.242-.009c.123.614.237,1.213.336,1.78q.111.63.2,1.21h.824q-.117-.647-.257-1.354c-.122-.625-.266-1.289-.42-1.97a17.036,17.036,0,0,0,1.809-.85,11.448,11.448,0,0,0,2.637,1.7c-.236.581-.471,1.143-.7,1.67-.122.28-.24.543-.357.805h.871c.069-.166.138-.328.208-.5.243-.589.489-1.223.737-1.876a10.752,10.752,0,0,0,3.233.251,3.271,3.271,0,0,0,2.288-1.532,1.565,1.565,0,0,0-.864-2.163c-1.254-.421-3.168,1-3.869,1.953-.041.056-.422.715-.655,1.134.1-.267.2-.525.3-.8.2-.545.384-1.1.583-1.687l.262-.875c.093-.29.156-.609.236-.916.17-.716.308-1.449.431-2.192a10.3,10.3,0,0,0,3.069.705,3.271,3.271,0,0,0,2.493-1.167,1.566,1.566,0,0,0-.526-2.27c-1.176-.606-3.283.511-4.12,1.345-.052.052-.586.717-.871,1.088.07-.447.142-.893.2-1.347.163-1.311.287-2.644.416-3.973.039-.407.084-.812.127-1.218a10.873,10.873,0,0,0,3.173.744,3.27,3.27,0,0,0,2.493-1.168,1.565,1.565,0,0,0-.526-2.269c-1.175-.607-3.283.511-4.12,1.344-.063.063-.83,1.021-1.012,1.274.095-.893.2-1.783.333-2.656a27.571,27.571,0,0,1,.763-3.493,11.064,11.064,0,0,0,3.19.751,3.272,3.272,0,0,0,2.493-1.168,1.565,1.565,0,0,0-.526-2.269c-1.176-.607-3.283.511-4.12,1.344-.066.066-.889,1.1-1.025,1.3.019-.067.033-.138.053-.2a20.2,20.2,0,0,1,1.383-3.305c.3-.589.622-1.134.945-1.659a10.507,10.507,0,0,0,3.022,1.062,3.271,3.271,0,0,0,2.606-.886,1.566,1.566,0,0,0-.273-2.313c-1.1-.732-3.319.147-4.243.884-.05.039-.515.5-.85.846.15-.234.3-.479.448-.7.553-.833,1.111-1.562,1.61-2.2.287-.363.554-.685.806-.983a10.461,10.461,0,0,0,3.154-.449,3.272,3.272,0,0,0,1.9-1.988,1.565,1.565,0,0,0-1.308-1.927c-1.315-.142-2.878,1.66-3.359,2.739-.041.093-.523,1.627-.5,1.626h.028c-.249.282-.513.588-.794.928-.514.632-1.09,1.351-1.663,2.175a27.827,27.827,0,0,0-1.725,2.747,20.429,20.429,0,0,0-1.473,3.317c0,.013-.008.028-.012.042.007-.387-.01-1.472-.021-1.555-.152-1.171-1.134-3.345-2.435-3.586a1.566,1.566,0,0,0-1.805,1.472,3.271,3.271,0,0,0,1.257,2.45,10.888,10.888,0,0,0,2.966,1.355,27.644,27.644,0,0,0-.87,3.593c-.127.708-.232,1.424-.328,2.144,0-.336-.012-.635-.017-.677-.152-1.171-1.133-3.345-2.434-3.586a1.565,1.565,0,0,0-1.805,1.472,3.272,3.272,0,0,0,1.256,2.45,10.381,10.381,0,0,0,2.876,1.327c-.034.276-.071.552-.1.829-.159,1.327-.311,2.652-.5,3.948-.066.457-.149.9-.229,1.351,0-.3-.011-.549-.016-.586-.152-1.171-1.133-3.345-2.434-3.586a1.566,1.566,0,0,0-1.805,1.473,3.272,3.272,0,0,0,1.257,2.45,9.985,9.985,0,0,0,2.793,1.3c-.1.456-.192.913-.306,1.351-.085.3-.145.589-.247.882l-.281.869c-.2.546-.4,1.111-.607,1.639-.142.369-.283.717-.424,1.068.071-.453.193-1.344.194-1.42a6.082,6.082,0,0,0-.815-2.957,1.865,1.865,0,0,0-.021-.346,1.566,1.566,0,0,0-1.915-1.328c-1.278.34-2.089,2.584-2.149,3.763,0,.07.042.829.078,1.308-.064-.278-.124-.549-.193-.834-.134-.565-.284-1.126-.444-1.729l-.265-.874c-.082-.294-.206-.594-.309-.894-.253-.691-.542-1.38-.85-2.067a10.263,10.263,0,0,0,2.949-1.1,3.273,3.273,0,0,0,1.436-2.349,1.566,1.566,0,0,0-1.69-1.6c-1.315.143-2.457,2.238-2.7,3.394-.014.073-.093.922-.127,1.389-.188-.412-.373-.823-.577-1.233-.587-1.184-1.22-2.364-1.845-3.543-.192-.361-.378-.723-.566-1.086a10.866,10.866,0,0,0,3.056-1.13,3.269,3.269,0,0,0,1.436-2.349,1.565,1.565,0,0,0-1.69-1.6c-1.315.143-2.456,2.237-2.7,3.394-.017.087-.128,1.31-.141,1.621-.414-.8-.819-1.6-1.187-2.4a27.616,27.616,0,0,1-1.291-3.334,11.079,11.079,0,0,0,3.076-1.135,3.271,3.271,0,0,0,1.435-2.349,1.565,1.565,0,0,0-1.69-1.6c-1.315.142-2.456,2.237-2.695,3.394-.019.091-.136,1.406-.141,1.646-.02-.066-.049-.132-.069-.2a20.213,20.213,0,0,1-.669-3.521c-.074-.657-.107-1.289-.127-1.9a10.541,10.541,0,0,0,3.106-.781,3.271,3.271,0,0,0,1.685-2.177,1.565,1.565,0,0,0-1.5-1.779c-1.323,0-2.687,1.955-3.052,3.078-.02.061-.152.7-.242,1.174,0-.278-.014-.565-.013-.831,0-1,.065-1.916.128-2.727.039-.461.084-.877.13-1.265a10.484,10.484,0,0,0,2.383-2.115,3.271,3.271,0,0,0,.492-2.709,1.565,1.565,0,0,0-2.154-.886c-1.176.608-1.484,2.973-1.29,4.138.017.1.461,1.645.481,1.632l.023-.016c-.052.373-.1.773-.15,1.212-.081.811-.164,1.728-.187,2.732a27.715,27.715,0,0,0,.077,3.243,20.376,20.376,0,0,0,.6,3.579c0,.014.009.028.013.041-.208-.327-.821-1.221-.875-1.285-.773-.893-2.791-2.165-4.008-1.648a1.565,1.565,0,0,0-.694,2.224,3.271,3.271,0,0,0,2.4,1.35" transform="translate(-311.562 -343.104)"/>
                  <path id="Path_1000259" data-name="Path 1000259" d="M353.01,358.06c.02.013.422-1.543.436-1.644.163-1.17-.21-3.526-1.4-4.1a1.565,1.565,0,0,0-2.13.944,3.271,3.271,0,0,0,.565,2.694,11.222,11.222,0,0,0,2.53,2.108" transform="translate(-327.522 -346.905)"/>
                </g>
              </g>
            </g>
            <path id="Path_1000260" data-name="Path 1000260" d="M241.853,147.425H47.476V27.326a6.069,6.069,0,0,1,6.07-6.069H235.783a6.069,6.069,0,0,1,6.07,6.069Z" transform="translate(-19.916 -8.917)" fill="#263238"/>
            <path id="Path_1000261" data-name="Path 1000261" d="M241.853,147.425H47.476V27.326a6.069,6.069,0,0,1,6.07-6.069H235.783a6.069,6.069,0,0,1,6.07,6.069Z" transform="translate(-19.916 -8.917)" fill="none" stroke="#263238" stroke-miterlimit="10" stroke-width="1"/>
            <rect id="Rectangle_455158" data-name="Rectangle 455158" width="178.441" height="105.543" transform="translate(35.505 20.912)" fill="#92e3a9"/>
            <rect id="Rectangle_455159" data-name="Rectangle 455159" width="178.441" height="105.543" transform="translate(35.505 20.912)" fill="none" stroke="#263238" stroke-linecap="round" stroke-linejoin="round" stroke-width="1"/>
            <g id="Group_1186150" data-name="Group 1186150" transform="translate(35.505 20.912)" opacity="0.44">
              <g id="Group_1186149" data-name="Group 1186149">
                <g id="Group_1186148" data-name="Group 1186148" clip-path="url(#clip-path-6)">
                  <path id="Path_1000262" data-name="Path 1000262" d="M61.162,99.285l63.261-63.261H105.541L61.162,80.4Z" transform="translate(-61.162 -36.024)" fill="#fff"/>
                  <path id="Path_1000263" data-name="Path 1000263" d="M189.093,141.567l96.255-96.256V36.025h-9.595L170.211,141.567Z" transform="translate(-106.908 -36.024)" fill="#fff"/>
                </g>
              </g>
            </g>
            <rect id="Rectangle_455161" data-name="Rectangle 455161" width="133.586" height="6.582" transform="translate(58.401 132.434)" fill="#263238"/>
            <rect id="Rectangle_455162" data-name="Rectangle 455162" width="133.586" height="6.582" transform="translate(58.401 132.434)" fill="none" stroke="#263238" stroke-linecap="round" stroke-linejoin="round" stroke-width="1"/>
            <rect id="Rectangle_455163" data-name="Rectangle 455163" width="133.586" height="3.413" transform="translate(58.401 135.603)" fill="#fff"/>
            <rect id="Rectangle_455164" data-name="Rectangle 455164" width="133.586" height="3.413" transform="translate(58.401 135.603)" fill="none" stroke="#263238" stroke-linecap="round" stroke-linejoin="round" stroke-width="1"/>
            <path id="Path_1000264" data-name="Path 1000264" d="M20.4,246.193s2.194,2.681,8.776,4.875H238.328s4.875-1.219,7.069-4.631Z" transform="translate(-8.556 -103.277)" fill="#263238"/>
            <path id="Path_1000265" data-name="Path 1000265" d="M20.4,246.193s2.194,2.681,8.776,4.875H238.328s4.875-1.219,7.069-4.631Z" transform="translate(-8.556 -103.277)" fill="none" stroke="#263238" stroke-linecap="round" stroke-linejoin="round" stroke-width="1"/>
            <path id="Path_1000266" data-name="Path 1000266" d="M244.447,243.045H20.728a1.1,1.1,0,0,1-1.1-1.1v-2.926a1.1,1.1,0,0,1,1.1-1.1H244.447a1.1,1.1,0,0,1,1.1,1.1v2.926a1.1,1.1,0,0,1-1.1,1.1" transform="translate(-8.234 -99.806)" fill="#969696"/>
            <path id="Rectangle_455165" data-name="Rectangle 455165" d="M1.895,0H224.024a1.9,1.9,0,0,1,1.9,1.9V3.23a1.9,1.9,0,0,1-1.9,1.9H1.894A1.894,1.894,0,0,1,0,3.231V1.895A1.895,1.895,0,0,1,1.895,0Z" transform="translate(11.394 138.113)" fill="none" stroke="#263238" stroke-miterlimit="10" stroke-width="1"/>
            <path id="Path_1000267" data-name="Path 1000267" d="M215.3,26.6a1.706,1.706,0,1,0-1.706,1.707A1.706,1.706,0,0,0,215.3,26.6" transform="translate(-88.884 -10.442)" fill="#737373"/>
            <path id="Path_1000268" data-name="Path 1000268" d="M215.3,26.6a1.706,1.706,0,1,0-1.706,1.707A1.706,1.706,0,0,0,215.3,26.6Z" transform="translate(-88.884 -10.442)" fill="none" stroke="#263238" stroke-linecap="round" stroke-linejoin="round" stroke-width="1"/>
            <path id="Path_1000269" data-name="Path 1000269" d="M50.28,71.5h0a.488.488,0,0,1-.488-.488V56.873a.488.488,0,1,1,.975,0V71.011a.488.488,0,0,1-.488.488" transform="translate(-20.888 -23.653)" fill="#263238"/>
            <path id="Path_1000270" data-name="Path 1000270" d="M212.759,103.044q-6.724,0-13.448,0a3.968,3.968,0,0,1-4.2-3.893c-.453-5.028-.944-10.053-1.407-15.08-.333-3.607-.644-7.217-.968-10.825-.219-2.425-.432-4.852-.689-7.274a1.538,1.538,0,0,0-.492-.867,9.225,9.225,0,1,1,9,1.76c-.353.131-.49.293-.455.664.3,3.212.609,6.423.889,9.637.05.577.417.512.79.512h12.657c2.7,0,5.406-.013,8.108.006a3.943,3.943,0,0,1,2.173,7.216,4.134,4.134,0,0,1-2.435.664q-9.625-.011-19.25,0c-1.39,0-1.278-.084-1.149,1.231.249,2.555.5,5.111.683,7.672.062.85.6.711,1.106.711q10.513,0,21.028,0c1.648,0,3.3-.005,4.944,0A3.829,3.829,0,0,1,233.5,97.8q4.348,10.953,8.666,21.918c.2.52.441.646.973.52,1.856-.442,3.719-.852,5.585-1.251a3.927,3.927,0,0,1,4.735,5.034,3.716,3.716,0,0,1-2.874,2.629c-3.293.758-6.59,1.5-9.9,2.191a3.843,3.843,0,0,1-4.313-2.382q-3.428-8.589-6.823-17.192c-.735-1.856-1.479-3.711-2.189-5.576a.873.873,0,0,0-.965-.655c-4.548.023-9.1.013-13.645.013Z" transform="translate(-79.023 -20.524)" fill="#263238"/>
            <path id="Path_1000271" data-name="Path 1000271" d="M212.759,103.044q-6.724,0-13.448,0a3.968,3.968,0,0,1-4.2-3.893c-.453-5.028-.944-10.053-1.407-15.08-.333-3.607-.644-7.217-.968-10.825-.219-2.425-.432-4.852-.689-7.274a1.538,1.538,0,0,0-.492-.867,9.225,9.225,0,1,1,9,1.76c-.353.131-.49.293-.455.664.3,3.212.609,6.423.889,9.637.05.577.417.512.79.512h12.657c2.7,0,5.406-.013,8.108.006a3.943,3.943,0,0,1,2.173,7.216,4.134,4.134,0,0,1-2.435.664q-9.625-.011-19.25,0c-1.39,0-1.278-.084-1.149,1.231.249,2.555.5,5.111.683,7.672.062.85.6.711,1.106.711q10.513,0,21.028,0c1.648,0,3.3-.005,4.944,0A3.829,3.829,0,0,1,233.5,97.8q4.348,10.953,8.666,21.918c.2.52.441.646.973.52,1.856-.442,3.719-.852,5.585-1.251a3.927,3.927,0,0,1,4.735,5.034,3.716,3.716,0,0,1-2.874,2.629c-3.293.758-6.59,1.5-9.9,2.191a3.843,3.843,0,0,1-4.313-2.382q-3.428-8.589-6.823-17.192c-.735-1.856-1.479-3.711-2.189-5.576a.873.873,0,0,0-.965-.655c-4.548.023-9.1.013-13.645.013Z" transform="translate(-79.023 -20.524)" fill="none" stroke="#263238" stroke-miterlimit="10" stroke-width="1"/>
            <path id="Path_1000272" data-name="Path 1000272" d="M216.135,137.1c.824,2.229,1.62,4.389,2.422,6.546.321.864.644,1.728.986,2.583a.983.983,0,0,1-.16,1.08A29.94,29.94,0,0,1,199.9,159.05a29.257,29.257,0,0,1-22.358-5.256,30.26,30.26,0,0,1-10.038-37.219,30.208,30.208,0,0,1,10.824-12.711c.089-.059.183-.11.363-.218.082.727.17,1.387.229,2.05.19,2.121.355,4.244.563,6.363a1.745,1.745,0,0,1-.532,1.517,21.219,21.219,0,0,0-6.26,15.074c.031,9.407,4.268,16.514,12.76,20.625,8.039,3.893,15.881,2.955,23.131-2.254a21.417,21.417,0,0,0,7.242-9.289c.06-.142.116-.284.178-.426a2.418,2.418,0,0,1,.129-.207" transform="translate(-69.117 -43.479)" fill="#263238"/>
            <path id="Path_1000273" data-name="Path 1000273" d="M216.135,137.1c.824,2.229,1.62,4.389,2.422,6.546.321.864.644,1.728.986,2.583a.983.983,0,0,1-.16,1.08A29.94,29.94,0,0,1,199.9,159.05a29.257,29.257,0,0,1-22.358-5.256,30.26,30.26,0,0,1-10.038-37.219,30.208,30.208,0,0,1,10.824-12.711c.089-.059.183-.11.363-.218.082.727.17,1.387.229,2.05.19,2.121.355,4.244.563,6.363a1.745,1.745,0,0,1-.532,1.517,21.219,21.219,0,0,0-6.26,15.074c.031,9.407,4.268,16.514,12.76,20.625,8.039,3.893,15.881,2.955,23.131-2.254a21.417,21.417,0,0,0,7.242-9.289c.06-.142.116-.284.178-.426A2.418,2.418,0,0,1,216.135,137.1Z" transform="translate(-69.117 -43.479)" fill="none" stroke="#263238" stroke-miterlimit="10" stroke-width="1"/>
            <path id="Path_1000274" data-name="Path 1000274" d="M356.3,187.6V290.214a6,6,0,0,1-6,6H281.767a6.069,6.069,0,0,1-6.07-6.069V187.676a6.07,6.07,0,0,1,6.07-6.07H350.3a6,6,0,0,1,6,6" transform="translate(-115.654 -76.183)" fill="#263238"/>
            <path id="Path_1000275" data-name="Path 1000275" d="M356.3,187.6V290.214a6,6,0,0,1-6,6H281.767a6.069,6.069,0,0,1-6.07-6.069V187.676a6.07,6.07,0,0,1,6.07-6.07H350.3A6,6,0,0,1,356.3,187.6Z" transform="translate(-115.654 -76.183)" fill="none" stroke="#263238" stroke-miterlimit="10" stroke-width="1"/>
            <rect id="Rectangle_455166" data-name="Rectangle 455166" width="70.868" height="104.424" transform="translate(164.822 110.528)" fill="#92e3a9"/>
            <rect id="Rectangle_455167" data-name="Rectangle 455167" width="70.868" height="104.424" transform="translate(164.822 110.528)" fill="none" stroke="#263238" stroke-linecap="round" stroke-linejoin="round" stroke-width="1"/>
            <g id="Group_1186153" data-name="Group 1186153" transform="translate(185.748 165.01)" opacity="0.44">
              <g id="Group_1186152" data-name="Group 1186152">
                <g id="Group_1186151" data-name="Group 1186151" clip-path="url(#clip-path-7)">
                  <path id="Path_1000276" data-name="Path 1000276" d="M332.166,334.194l37.752-37.752v-12.19l-49.941,49.942Z" transform="translate(-319.977 -284.252)" fill="#fff"/>
                </g>
              </g>
            </g>
            <g id="Group_1186156" data-name="Group 1186156" transform="translate(164.822 110.528)" opacity="0.44">
              <g id="Group_1186155" data-name="Group 1186155">
                <g id="Group_1186154" data-name="Group 1186154" clip-path="url(#clip-path-8)">
                  <path id="Path_1000277" data-name="Path 1000277" d="M283.928,229.5v12.189L335.214,190.4H323.024Z" transform="translate(-283.928 -190.4)" fill="#fff"/>
                </g>
              </g>
            </g>
            <path id="Path_1000278" data-name="Path 1000278" d="M345.006,185.392a1.09,1.09,0,1,0,1.09,1.09,1.09,1.09,0,0,0-1.09-1.09" transform="translate(-144.271 -77.771)" fill="#737373"/>
            <path id="Path_1000279" data-name="Path 1000279" d="M345.006,185.392a1.09,1.09,0,1,0,1.09,1.09A1.09,1.09,0,0,0,345.006,185.392Z" transform="translate(-144.271 -77.771)" fill="none" stroke="#263238" stroke-linecap="round" stroke-linejoin="round" stroke-width="1"/>
            <path id="Path_1000280" data-name="Path 1000280" d="M366.985,273.9a44.705,44.705,0,0,0-12.31-8.517l-1.983,2.021a43.5,43.5,0,0,1,11.438,7.41c-2.353,2.122-8.754,7.325-16.67,9.137a10.624,10.624,0,0,0,3.546-14.827L336.513,283.9c.031.019.064.035.1.055l-.124-.027-2.129,2.17a27.91,27.91,0,0,0,7.675,1.119c13.659,0,24.5-11.017,24.953-11.485a1.314,1.314,0,0,0,0-1.829" transform="translate(-140.261 -111.329)" fill="#263238"/>
            <path id="Path_1000281" data-name="Path 1000281" d="M366.985,273.9a44.705,44.705,0,0,0-12.31-8.517l-1.983,2.021a43.5,43.5,0,0,1,11.438,7.41c-2.353,2.122-8.754,7.325-16.67,9.137a10.624,10.624,0,0,0,3.546-14.827L336.513,283.9c.031.019.064.035.1.055l-.124-.027-2.129,2.17a27.91,27.91,0,0,0,7.675,1.119c13.659,0,24.5-11.017,24.953-11.485A1.314,1.314,0,0,0,366.985,273.9Z" transform="translate(-140.261 -111.329)" fill="none" stroke="#263238" stroke-miterlimit="10" stroke-width="1"/>
            <path id="Path_1000282" data-name="Path 1000282" d="M345.942,249.123a1.314,1.314,0,0,0-1.858.018l-7.244,7.385a27.83,27.83,0,0,0-7.563-1.087c-13.659,0-24.5,11.017-24.953,11.486a1.313,1.313,0,0,0,0,1.829,44.724,44.724,0,0,0,12.213,8.471l-6.173,6.292a1.314,1.314,0,1,0,1.876,1.84l33.719-34.375a1.314,1.314,0,0,0-.018-1.858M307.18,267.839c2.353-2.121,8.755-7.325,16.67-9.137a10.62,10.62,0,0,0-3.6,14.737l-1.732,1.766a43.553,43.553,0,0,1-11.337-7.367" transform="translate(-127.507 -104.348)" fill="#263238"/>
            <path id="Path_1000283" data-name="Path 1000283" d="M345.942,249.123a1.314,1.314,0,0,0-1.858.018l-7.244,7.385a27.83,27.83,0,0,0-7.563-1.087c-13.659,0-24.5,11.017-24.953,11.486a1.313,1.313,0,0,0,0,1.829,44.724,44.724,0,0,0,12.213,8.471l-6.173,6.292a1.314,1.314,0,1,0,1.876,1.84l33.719-34.375A1.314,1.314,0,0,0,345.942,249.123ZM307.18,267.839c2.353-2.121,8.755-7.325,16.67-9.137a10.62,10.62,0,0,0-3.6,14.737l-1.732,1.766A43.553,43.553,0,0,1,307.18,267.839Z" transform="translate(-127.507 -104.348)" fill="none" stroke="#263238" stroke-miterlimit="10" stroke-width="1"/>
            <path id="Path_1000284" data-name="Path 1000284" d="M432.8,368.718H400.081a4.466,4.466,0,0,1-4.466-4.466v-69.1a4.466,4.466,0,0,1,4.466-4.466H432.8a4.466,4.466,0,0,1,4.466,4.466v69.1a4.466,4.466,0,0,1-4.466,4.466" transform="translate(-165.959 -121.941)" fill="#263238"/>
            <rect id="Rectangle_455170" data-name="Rectangle 455170" width="41.652" height="78.032" rx="7.693" transform="translate(229.657 168.744)" fill="none" stroke="#263238" stroke-linecap="round" stroke-linejoin="round" stroke-width="1"/>
            <rect id="Rectangle_455171" data-name="Rectangle 455171" width="36.968" height="69.255" transform="translate(231.999 173.133)" fill="#92e3a9"/>
            <rect id="Rectangle_455172" data-name="Rectangle 455172" width="36.968" height="69.255" transform="translate(231.999 173.133)" fill="none" stroke="#263238" stroke-linecap="round" stroke-linejoin="round" stroke-width="1"/>
            <g id="Group_1186159" data-name="Group 1186159" transform="translate(231.999 173.133)" opacity="0.44">
              <g id="Group_1186158" data-name="Group 1186158">
                <g id="Group_1186157" data-name="Group 1186157" clip-path="url(#clip-path-9)">
                  <path id="Path_1000285" data-name="Path 1000285" d="M451.623,401.824V389.634l-16.2,16.2h12.189Z" transform="translate(-414.656 -336.582)" fill="#fff"/>
                  <path id="Path_1000286" data-name="Path 1000286" d="M399.651,312.007V324.2L425.6,298.245H413.413Z" transform="translate(-399.651 -298.245)" fill="#fff"/>
                </g>
              </g>
            </g>
            <rect id="Rectangle_455174" data-name="Rectangle 455174" width="0.952" height="5.168" transform="translate(270.806 192.956)" fill="#263238"/>
            <rect id="Rectangle_455175" data-name="Rectangle 455175" width="0.952" height="5.168" transform="translate(270.806 192.956)" fill="none" stroke="#263238" stroke-linecap="round" stroke-linejoin="round" stroke-width="1"/>
            <rect id="Rectangle_455176" data-name="Rectangle 455176" width="0.952" height="5.168" transform="translate(228.922 187.109)" fill="#263238"/>
            <rect id="Rectangle_455177" data-name="Rectangle 455177" width="0.952" height="5.168" transform="translate(228.922 187.109)" fill="none" stroke="#263238" stroke-linecap="round" stroke-linejoin="round" stroke-width="1"/>
            <rect id="Rectangle_455178" data-name="Rectangle 455178" width="0.952" height="5.168" transform="translate(228.922 193.093)" fill="#263238"/>
            <rect id="Rectangle_455179" data-name="Rectangle 455179" width="0.952" height="5.168" transform="translate(228.922 193.093)" fill="none" stroke="#263238" stroke-linecap="round" stroke-linejoin="round" stroke-width="1"/>
            <path id="Path_1000287" data-name="Path 1000287" d="M435.155,360.093a1.189,1.189,0,0,0-.026-1.653c-7.067-7.074-15.824-15.738-22.895-22.809-1.379-1.379-2.752-2.764-4.14-4.133a1.2,1.2,0,1,0-1.675,1.686c1.34,1.353,2.683,2.7,4.044,4.036a.685.685,0,0,1,.166.817c-.327,1.194-.626,2.4-.836,3.62a1.243,1.243,0,0,0,1.05,1.61c.742.076,1.21-.441,1.32-1.383.093-.8.241-1.6.4-2.6.752.772,1.361,1.374,1.937,2.008a.915.915,0,0,1,.131.561c.01,1.179.017,2.359,0,3.538a5.137,5.137,0,0,0,1.811,4.083,1.233,1.233,0,0,1,.472,1.47,1.3,1.3,0,0,1-1.187.771,3.8,3.8,0,0,0-3.718,3.974,6.025,6.025,0,0,0,1.7,4.037,5.681,5.681,0,0,0,3.67,1.789,6.187,6.187,0,0,0,6.555-4.219,12.083,12.083,0,0,1,2.31-4.423c.384.435.723.86,1.1,1.243,1.468,1.475,4.626,4.539,6.1,6.008a1.189,1.189,0,0,0,1.7-.028m-13.62-3.153a3.623,3.623,0,0,1-3.784,2.292A3.814,3.814,0,0,1,414.391,356a1.511,1.511,0,0,1,1.545-1.915,3.47,3.47,0,0,0,3.251-2.461,3.435,3.435,0,0,0-1.149-3.9,3.04,3.04,0,0,1-1.065-2.4c0-.452,0-.9,0-1.391l7.414,7.432a16.552,16.552,0,0,0-2.854,5.585" transform="translate(-170.288 -138.863)" fill="#263238"/>
            <path id="Path_1000288" data-name="Path 1000288" d="M438.359,342.046a11.49,11.49,0,0,1-1.949,6.531c-.488.721-1.12.9-1.729.518a1.206,1.206,0,0,1-.236-1.836A8.869,8.869,0,0,0,422.3,334.839a1.663,1.663,0,0,1-1.251.185,1.288,1.288,0,0,1-.706-.946,1.529,1.529,0,0,1,.578-1.115,9.805,9.805,0,0,1,4.574-1.78,11.17,11.17,0,0,1,12.684,9.239,15.739,15.739,0,0,1,.179,1.622" transform="translate(-176.332 -138.892)" fill="#263238"/>
            <path id="Path_1000289" data-name="Path 1000289" d="M435.864,346.014a7.231,7.231,0,0,1-.373,1.942,1.143,1.143,0,0,1-1.527.842,1.181,1.181,0,0,1-.682-1.661,4.054,4.054,0,0,0-5.187-5.255,2.416,2.416,0,0,1-.913.19,1.082,1.082,0,0,1-1.024-1.012,1.15,1.15,0,0,1,.8-1.276,6.285,6.285,0,0,1,8.334,3.293,6.651,6.651,0,0,1,.574,2.937" transform="translate(-178.766 -142.308)" fill="#263238"/>
            <path id="Path_1000290" data-name="Path 1000290" d="M172.831,317.69a1.816,1.816,0,0,1-.089-3.63l9.752-.487,5.168-52.744h-5.494a1.816,1.816,0,0,1,0-3.632h7.5a1.816,1.816,0,0,1,1.808,1.993l-5.517,56.3a1.816,1.816,0,0,1-1.717,1.636l-11.316.566-.092,0" transform="translate(-71.74 -107.892)" fill="#263238"/>
            <path id="Path_1000291" data-name="Path 1000291" d="M48.3,285.805l-1.438-29.482-7.788-.186a2.334,2.334,0,0,1,0-4.667l49.738-1.14,2.876,38.35Zm68.879,35.153c0-10.2-2.15-19.174-5.4-24.4-2.77-7.468-6.856-12.2-11.419-12.2-8.345,0-15.109,15.8-15.109,35.3s6.764,35.3,15.109,35.3c3.2,0,6.159-2.326,8.6-6.283,4.775-3.849,8.222-14.8,8.222-27.72m-10.807-26c2.777,5.566,4.581,14.554,4.581,24.7,0,12.314-2.657,22.921-6.485,27.774-5.211-.132-9.422-11.933-9.422-26.478,0-14.627,4.257-26.484,9.51-26.484a3.8,3.8,0,0,1,1.816.488m-6.589,55.295c-6.169,0-11.169-13.7-11.169-30.595s5-30.595,11.169-30.595c1.653,0,3.221.992,4.634,2.758C98.157,292.8,93.2,305.464,93.2,320.958c0,13.823,3.946,25.394,9.243,28.42a4.756,4.756,0,0,1-2.658.879" transform="translate(-15.436 -105.013)" fill="#263238"/>
            <path id="Path_1000292" data-name="Path 1000292" d="M48.3,285.805l-1.438-29.482-7.788-.186a2.334,2.334,0,0,1,0-4.667l49.738-1.14,2.876,38.35Zm68.879,35.153c0-10.2-2.15-19.174-5.4-24.4-2.77-7.468-6.856-12.2-11.419-12.2-8.345,0-15.109,15.8-15.109,35.3s6.764,35.3,15.109,35.3c3.2,0,6.159-2.326,8.6-6.283C113.734,344.829,117.181,333.877,117.181,320.958Zm-10.807-26c2.777,5.566,4.581,14.554,4.581,24.7,0,12.314-2.657,22.921-6.485,27.774-5.211-.132-9.422-11.933-9.422-26.478,0-14.627,4.257-26.484,9.51-26.484A3.8,3.8,0,0,1,106.374,294.963Zm-6.589,55.295c-6.169,0-11.169-13.7-11.169-30.595s5-30.595,11.169-30.595c1.653,0,3.221.992,4.634,2.758C98.157,292.8,93.2,305.464,93.2,320.958c0,13.823,3.946,25.394,9.243,28.42A4.756,4.756,0,0,1,99.785,350.257Z" transform="translate(-15.436 -105.013)" fill="none" stroke="#263238" stroke-linecap="round" stroke-linejoin="round" stroke-width="1"/>
            <path id="Path_1000293" data-name="Path 1000293" d="M162.378,378.79a1.227,1.227,0,0,1-1.225-1.185c-.007-.215-.734-21.548-1.042-25.707-.21-2.825-1.555-2.9-1.694-2.889l-22.889.628a1.227,1.227,0,1,1-.1-2.452l22.878-.626a3.619,3.619,0,0,1,2.463.905,5.949,5.949,0,0,1,1.787,4.253c.311,4.207,1.018,24.925,1.047,25.8a1.228,1.228,0,0,1-1.185,1.268h-.042" transform="translate(-56.318 -145.378)" fill="#fff"/>
            <path id="Path_1000294" data-name="Path 1000294" d="M162.378,378.79a1.227,1.227,0,0,1-1.225-1.185c-.007-.215-.734-21.548-1.042-25.707-.21-2.825-1.555-2.9-1.694-2.889l-22.889.628a1.227,1.227,0,1,1-.1-2.452l22.878-.626a3.619,3.619,0,0,1,2.463.905,5.949,5.949,0,0,1,1.787,4.253c.311,4.207,1.018,24.925,1.047,25.8a1.228,1.228,0,0,1-1.185,1.268Z" transform="translate(-56.318 -145.378)" fill="none" stroke="#263238" stroke-linecap="round" stroke-linejoin="round" stroke-width="1"/>
            <path id="Path_1000295" data-name="Path 1000295" d="M39.853,252.035s-5.442,12.516-5.986,14.33,2.358,3.356,4.172,3.537,4.082-2.177,4.082-2.177l5.714-10.612Z" transform="translate(-14.179 -105.727)" fill="#fff"/>
            <path id="Path_1000296" data-name="Path 1000296" d="M39.853,252.035s-5.442,12.516-5.986,14.33,2.358,3.356,4.172,3.537,4.082-2.177,4.082-2.177l5.714-10.612Z" transform="translate(-14.179 -105.727)" fill="none" stroke="#263238" stroke-linecap="round" stroke-linejoin="round" stroke-width="1"/>
            <rect id="Rectangle_455180" data-name="Rectangle 455180" width="70.634" height="1.221" transform="translate(18.966 216.622)" fill="#263238"/>
            <rect id="Rectangle_455181" data-name="Rectangle 455181" width="70.634" height="1.221" transform="translate(18.966 216.622)" fill="none" stroke="#263238" stroke-linecap="round" stroke-linejoin="round" stroke-width="1"/>
            <path id="Path_1000297" data-name="Path 1000297" d="M61.213,370.536a1.227,1.227,0,0,1-.629-2.281l51.991-30.968a1.227,1.227,0,1,1,1.256,2.109L61.84,370.364a1.224,1.224,0,0,1-.626.172" transform="translate(-25.163 -141.418)" fill="#a1a1a1"/>
            <path id="Path_1000298" data-name="Path 1000298" d="M61.213,370.536a1.227,1.227,0,0,1-.629-2.281l51.991-30.968a1.227,1.227,0,1,1,1.256,2.109L61.84,370.364A1.224,1.224,0,0,1,61.213,370.536Z" transform="translate(-25.163 -141.418)" fill="none" stroke="#263238" stroke-linecap="round" stroke-linejoin="round" stroke-width="1"/>
            <path id="Path_1000299" data-name="Path 1000299" d="M127.891,376.636a1.219,1.219,0,0,1-.558-.135L71.061,347.673a1.227,1.227,0,0,1,1.119-2.184l56.271,28.828a1.227,1.227,0,0,1-.56,2.319" transform="translate(-29.53 -144.874)" fill="#a1a1a1"/>
            <path id="Path_1000300" data-name="Path 1000300" d="M127.891,376.636a1.219,1.219,0,0,1-.558-.135L71.061,347.673a1.227,1.227,0,0,1,1.119-2.184l56.271,28.828a1.227,1.227,0,0,1-.56,2.319Z" transform="translate(-29.53 -144.874)" fill="none" stroke="#263238" stroke-linecap="round" stroke-linejoin="round" stroke-width="1"/>
            <rect id="Rectangle_455182" data-name="Rectangle 455182" width="18.732" height="9.008" transform="translate(29.405 195.91)" fill="#263238"/>
            <rect id="Rectangle_455183" data-name="Rectangle 455183" width="18.732" height="9.008" transform="translate(29.405 195.91)" fill="none" stroke="#263238" stroke-linecap="round" stroke-linejoin="round" stroke-width="1"/>
            <path id="Path_1000301" data-name="Path 1000301" d="M107.98,344.388H70.34v-9.064H122.2Z" transform="translate(-29.507 -140.667)" fill="#263238"/>
            <path id="Path_1000302" data-name="Path 1000302" d="M107.98,344.388H70.34v-9.064H122.2Z" transform="translate(-29.507 -140.667)" fill="none" stroke="#263238" stroke-linecap="round" stroke-linejoin="round" stroke-width="1"/>
            <path id="Path_1000303" data-name="Path 1000303" d="M101.156,298.655a29.352,29.352,0,0,1,1.775,4.573,12.4,12.4,0,0,1,.3,2.073l.1,13.325s-35.928.691-37.409.494-3.455-2.961-2.468-9.476,2.789-8.9,2.789-8.9a60.141,60.141,0,0,1,34.919-2.086" transform="translate(-26.505 -124.594)" fill="#707070"/>
            <path id="Path_1000304" data-name="Path 1000304" d="M101.156,298.655a29.352,29.352,0,0,1,1.775,4.573,12.4,12.4,0,0,1,.3,2.073l.1,13.325s-35.928.691-37.409.494-3.455-2.961-2.468-9.476,2.789-8.9,2.789-8.9A60.141,60.141,0,0,1,101.156,298.655Z" transform="translate(-26.505 -124.594)" fill="none" stroke="#263238" stroke-linecap="round" stroke-linejoin="round" stroke-width="1"/>
            <path id="Path_1000305" data-name="Path 1000305" d="M163.774,300.743s1,4.828,2.885,6.647a9.74,9.74,0,0,0,2.759,2.132l-.188,2.821a12.6,12.6,0,0,1-6.145-6.082,38.011,38.011,0,0,1-1.819-5.33Z" transform="translate(-67.65 -126.16)" fill="#a1a1a1"/>
            <path id="Path_1000306" data-name="Path 1000306" d="M163.774,300.743s1,4.828,2.885,6.647a9.74,9.74,0,0,0,2.759,2.132l-.188,2.821a12.6,12.6,0,0,1-6.145-6.082,38.011,38.011,0,0,1-1.819-5.33Z" transform="translate(-67.65 -126.16)" fill="none" stroke="#263238" stroke-linecap="round" stroke-linejoin="round" stroke-width="1"/>
            <path id="Path_1000307" data-name="Path 1000307" d="M160.215,309.614s-3.355-2.427-4.632-4.782a38.944,38.944,0,0,1-3.268-8.01c-.228-1.469-12.451-.644-12.389.423s.272,23.1.272,23.1l19.954-.57Z" transform="translate(-58.698 -124.182)" fill="#263238"/>
            <path id="Path_1000308" data-name="Path 1000308" d="M160.215,309.614s-3.355-2.427-4.632-4.782a38.944,38.944,0,0,1-3.268-8.01c-.228-1.469-12.451-.644-12.389.423s.272,23.1.272,23.1l19.954-.57Z" transform="translate(-58.698 -124.182)" fill="none" stroke="#263238" stroke-linecap="round" stroke-linejoin="round" stroke-width="1"/>
            <path id="Path_1000309" data-name="Path 1000309" d="M145.561,291.283s-8.043.726-8.2,1.3-.209,2.247.1,2.247,3.657.1,3.866,0,6.737-.674,6.737-.674.993,2.926,1.358,3.135,4.336.157,5.015-.261a2.507,2.507,0,0,0,.888-1.463l-1.828-4.493-4.963.052Z" transform="translate(-57.57 -122.104)" fill="#a1a1a1"/>
            <path id="Path_1000310" data-name="Path 1000310" d="M145.561,291.283s-8.043.726-8.2,1.3-.209,2.247.1,2.247,3.657.1,3.866,0,6.737-.674,6.737-.674.993,2.926,1.358,3.135,4.336.157,5.015-.261a2.507,2.507,0,0,0,.888-1.463l-1.828-4.493-4.963.052Z" transform="translate(-57.57 -122.104)" fill="none" stroke="#263238" stroke-linecap="round" stroke-linejoin="round" stroke-width="1"/>
            <path id="Path_1000311" data-name="Path 1000311" d="M157.283,292.769l1.494,3.875,4.127-.261" transform="translate(-65.979 -122.815)" fill="none" stroke="#263238" stroke-linecap="round" stroke-linejoin="round" stroke-width="1"/>
            <path id="Path_1000312" data-name="Path 1000312" d="M171.1,325.49a.92.92,0,0,1-.92-.908c0-.159-.209-15.882-.26-17.055-.028-.651-.2-.937-.318-1.023a18.988,18.988,0,0,0-2.7.565.92.92,0,1,1-.478-1.777c2.983-.8,3.516-.626,3.716-.56.459.154,1.535.724,1.621,2.714.052,1.2.254,16.463.262,17.112a.921.921,0,0,1-.908.932Z" transform="translate(-69.527 -127.807)" fill="#fff"/>
            <path id="Path_1000313" data-name="Path 1000313" d="M171.1,325.49a.92.92,0,0,1-.92-.908c0-.159-.209-15.882-.26-17.055-.028-.651-.2-.937-.318-1.023a18.988,18.988,0,0,0-2.7.565.92.92,0,1,1-.478-1.777c2.983-.8,3.516-.626,3.716-.56.459.154,1.535.724,1.621,2.714.052,1.2.254,16.463.262,17.112a.921.921,0,0,1-.908.932Z" transform="translate(-69.527 -127.807)" fill="none" stroke="#263238" stroke-linecap="round" stroke-linejoin="round" stroke-width="1"/>
            <path id="Path_1000314" data-name="Path 1000314" d="M87.964,169.894s4.339,1.276,5.871,4.85c2.011,4.693-2.98,4.931-3.278,6.811s1.98,7.226,2.079,9.9-1.253,3.261-.461,4.349a7.578,7.578,0,0,0,1.945,1.787s-1.625,3.3-3.477,3.956-7.213-.2-10.677-.294-3.457-.742-4.652-.693c-2.375.1-2.853.906-5.6,1.753-4.354,1.341-6.907-3.892-6.907-3.892s4.36-3.907,3.716-8.871c-.844-6.506,0-11.231,2.3-14.932,1.984-3.2,7.288-4.641,11.543-5.235a18.47,18.47,0,0,1,7.6.513" transform="translate(-26.347 -70.981)" fill="#263238"/>
            <path id="Path_1000315" data-name="Path 1000315" d="M87.964,169.894s4.339,1.276,5.871,4.85c2.011,4.693-2.98,4.931-3.278,6.811s1.98,7.226,2.079,9.9-1.253,3.261-.461,4.349a7.578,7.578,0,0,0,1.945,1.787s-1.625,3.3-3.477,3.956-7.213-.2-10.677-.294-3.457-.742-4.652-.693c-2.375.1-2.853.906-5.6,1.753-4.354,1.341-6.907-3.892-6.907-3.892s4.36-3.907,3.716-8.871c-.844-6.506,0-11.231,2.3-14.932,1.984-3.2,7.288-4.641,11.543-5.235A18.47,18.47,0,0,1,87.964,169.894Z" transform="translate(-26.347 -70.981)" fill="none" stroke="#263238" stroke-linecap="round" stroke-linejoin="round" stroke-width="1"/>
            <path id="Path_1000316" data-name="Path 1000316" d="M148.451,228.475l-3.57,3.774-1.294,8.264-3.561,7.2-.639-.862-7.952,5.728s5.1,10.515,6.185,11.133a5.413,5.413,0,0,0,4.175.619c1.546-.464,3.556-3.866,4.484-9.123.681-3.857,2.236-10.89,3.015-14.364l.381-1.249a1.865,1.865,0,0,1,1.122-1.326c1.037-.518,1.632-3.57,1.836-4.386s.918-4.08.918-4.08Z" transform="translate(-55.136 -95.844)" fill="#fff"/>
            <path id="Path_1000317" data-name="Path 1000317" d="M148.451,228.475l-3.57,3.774-1.294,8.264-3.561,7.2-.639-.862-7.952,5.728s5.1,10.515,6.185,11.133a5.413,5.413,0,0,0,4.175.619c1.546-.464,3.556-3.866,4.484-9.123.681-3.857,2.236-10.89,3.015-14.364l.381-1.249a1.865,1.865,0,0,1,1.122-1.326c1.037-.518,1.632-3.57,1.836-4.386s.918-4.08.918-4.08Z" transform="translate(-55.136 -95.844)" fill="none" stroke="#263238" stroke-linecap="round" stroke-linejoin="round" stroke-width="1"/>
            <line id="Line_27286" data-name="Line 27286" x1="3.797" y2="7.186" transform="translate(81.092 151.867)" fill="none" stroke="#263238" stroke-linecap="round" stroke-linejoin="round" stroke-width="1"/>
            <path id="Path_1000318" data-name="Path 1000318" d="M156.354,227.68s1.938-3.876,2.448-4.692,3.162-1.836,3.774-2.142,1.224.1,1.224.918-1.428,1.326-1.836,1.53-1.428.612-1.428.612l-.714,2.958" transform="translate(-65.59 -92.601)" fill="#fff"/>
            <path id="Path_1000319" data-name="Path 1000319" d="M156.354,227.68s1.938-3.876,2.448-4.692,3.162-1.836,3.774-2.142,1.224.1,1.224.918-1.428,1.326-1.836,1.53-1.428.612-1.428.612l-.714,2.958" transform="translate(-65.59 -92.601)" fill="none" stroke="#263238" stroke-linecap="round" stroke-linejoin="round" stroke-width="1"/>
            <path id="Path_1000320" data-name="Path 1000320" d="M170.627,229.7s1.224,1.938,1.122,2.55-.51,2.04-1.122,2.346-.918-.918-.918-.918Z" transform="translate(-71.192 -96.36)" fill="#fff"/>
            <path id="Path_1000321" data-name="Path 1000321" d="M170.627,229.7s1.224,1.938,1.122,2.55-.51,2.04-1.122,2.346-.918-.918-.918-.918Z" transform="translate(-71.192 -96.36)" fill="none" stroke="#263238" stroke-linecap="round" stroke-linejoin="round" stroke-width="1"/>
            <path id="Path_1000322" data-name="Path 1000322" d="M167.42,228.123a2.636,2.636,0,0,1,1.631.918c.408.714-.408,3.163-.918,3.978s-1.836.408-2.142-.1,1.429-4.794,1.429-4.794" transform="translate(-69.618 -95.696)" fill="#fff"/>
            <path id="Path_1000323" data-name="Path 1000323" d="M167.42,228.123a2.636,2.636,0,0,1,1.631.918c.408.714-.408,3.163-.918,3.978s-1.836.408-2.142-.1S167.42,228.123,167.42,228.123Z" transform="translate(-69.618 -95.696)" fill="none" stroke="#263238" stroke-linecap="round" stroke-linejoin="round" stroke-width="1"/>
            <path id="Path_1000324" data-name="Path 1000324" d="M163.32,228.308s2.142-.816,2.652-.306-.2,2.856-.51,3.672a1.87,1.87,0,0,1-1.734,1.224c-.51-.1-1.224-1.02-1.224-1.02Z" transform="translate(-68.17 -95.575)" fill="#fff"/>
            <path id="Path_1000325" data-name="Path 1000325" d="M163.32,228.308s2.142-.816,2.652-.306-.2,2.856-.51,3.672a1.87,1.87,0,0,1-1.734,1.224c-.51-.1-1.224-1.02-1.224-1.02Z" transform="translate(-68.17 -95.575)" fill="none" stroke="#263238" stroke-linecap="round" stroke-linejoin="round" stroke-width="1"/>
            <path id="Path_1000326" data-name="Path 1000326" d="M153.016,237.4a63.458,63.458,0,0,1,.714-6.732c.306-.612,5.61-3.162,6.324-3.468s1.122.51.612,1.632-3.57,2.958-3.57,2.958.713,3.162.306,4.182a3.451,3.451,0,0,1-1.224,1.53" transform="translate(-64.189 -95.281)" fill="#fff"/>
            <path id="Path_1000327" data-name="Path 1000327" d="M153.016,237.4a63.458,63.458,0,0,1,.714-6.732c.306-.612,5.61-3.162,6.324-3.468s1.122.51.612,1.632-3.57,2.958-3.57,2.958.713,3.162.306,4.182a3.451,3.451,0,0,1-1.224,1.53" transform="translate(-64.189 -95.281)" fill="none" stroke="#263238" stroke-linecap="round" stroke-linejoin="round" stroke-width="1"/>
            <path id="Path_1000328" data-name="Path 1000328" d="M72.932,218.155s.453-.544,1.179.272a25.187,25.187,0,0,1,1.724,2.358s4.176.38,6.114.38c.759,0,3.739.4,5.19,2.119s12.955,18.291,12.955,18.291L91.7,250.8l-3.529-7.063a19.254,19.254,0,0,1,0,4.791c-.127,1.765-1.154,3.945-1.135,5.044a32.39,32.39,0,0,0,1.675,9.846,5.584,5.584,0,0,1,.634,1.632,54.532,54.532,0,0,0-13.967-1.088c-6.621.545-20.316,2.993-20.952,3.174s-.091.907.363-4.716-2-12.063-2.811-14.6a13.894,13.894,0,0,0-2.028-4.062l-3.729,5.594-11.189-4.558s9.69-17.925,10.959-20.011,4.353-2.812,6.44-3.175,4.535-.907,4.535-.907,3.659-3.134,4.9-3.583c2.341-.851,11.066,1.044,11.066,1.044" transform="translate(-14.697 -90.985)" fill="#92e3a9"/>
            <path id="Path_1000329" data-name="Path 1000329" d="M72.932,218.155s.453-.544,1.179.272a25.187,25.187,0,0,1,1.724,2.358s4.176.38,6.114.38c.759,0,3.739.4,5.19,2.119s12.955,18.291,12.955,18.291L91.7,250.8l-3.529-7.063a19.254,19.254,0,0,1,0,4.791c-.127,1.765-1.154,3.945-1.135,5.044a32.39,32.39,0,0,0,1.675,9.846,5.584,5.584,0,0,1,.634,1.632,54.532,54.532,0,0,0-13.967-1.088c-6.621.545-20.316,2.993-20.952,3.174s-.091.907.363-4.716-2-12.063-2.811-14.6a13.894,13.894,0,0,0-2.028-4.062l-3.729,5.594-11.189-4.558s9.69-17.925,10.959-20.011,4.353-2.812,6.44-3.175,4.535-.907,4.535-.907,3.659-3.134,4.9-3.583C64.206,216.26,72.932,218.155,72.932,218.155Z" transform="translate(-14.697 -90.985)" fill="none" stroke="#263238" stroke-linecap="round" stroke-linejoin="round" stroke-width="1"/>
            <path id="Path_1000330" data-name="Path 1000330" d="M125.1,254.881s-.85-5.618-1.575-6.978" transform="translate(-51.816 -103.994)" fill="none" stroke="#263238" stroke-linecap="round" stroke-linejoin="round" stroke-width="1"/>
            <path id="Path_1000331" data-name="Path 1000331" d="M61.091,254.791a64.695,64.695,0,0,1,4.36-5.475,4.109,4.109,0,0,0,1-4.625" transform="translate(-25.627 -102.647)" fill="none" stroke="#263238" stroke-linecap="round" stroke-linejoin="round" stroke-width="1"/>
            <path id="Path_1000332" data-name="Path 1000332" d="M65.007,254.947A25.268,25.268,0,0,0,69,251.41" transform="translate(-27.27 -105.465)" fill="none" stroke="#263238" stroke-linecap="round" stroke-linejoin="round" stroke-width="1"/>
            <path id="Path_1000333" data-name="Path 1000333" d="M107.913,270.776c.8.385,1.545.727,2.212,1" transform="translate(-45.269 -113.589)" fill="none" stroke="#263238" stroke-linecap="round" stroke-linejoin="round" stroke-width="1"/>
            <path id="Path_1000334" data-name="Path 1000334" d="M88.912,260.315s5.057,3.034,9.5,5.31" transform="translate(-37.298 -109.201)" fill="none" stroke="#263238" stroke-linecap="round" stroke-linejoin="round" stroke-width="1"/>
            <path id="Path_1000335" data-name="Path 1000335" d="M97.541,267.873s3.607,2.143,6.781,3.685" transform="translate(-40.918 -112.371)" fill="none" stroke="#263238" stroke-linecap="round" stroke-linejoin="round" stroke-width="1"/>
            <path id="Path_1000336" data-name="Path 1000336" d="M81.626,204.741s.194,6.782-.258,8.461a9.958,9.958,0,0,0,2.067,3.035c1.163.969,5.384,9.753,6.029,9.236s2.949-9.624,3.078-10.528.194-4,.258-4.2-3.746.387-6.33-1.357a25.085,25.085,0,0,1-4.844-4.65" transform="translate(-34.133 -85.888)" fill="#fff"/>
            <path id="Path_1000337" data-name="Path 1000337" d="M81.626,204.741s.194,6.782-.258,8.461a9.958,9.958,0,0,0,2.067,3.035c1.163.969,5.384,9.753,6.029,9.236s2.949-9.624,3.078-10.528.194-4,.258-4.2-3.746.387-6.33-1.357A25.085,25.085,0,0,1,81.626,204.741Z" transform="translate(-34.133 -85.888)" fill="none" stroke="#263238" stroke-linecap="round" stroke-linejoin="round" stroke-width="1"/>
            <path id="Path_1000338" data-name="Path 1000338" d="M96.417,181.942a18.767,18.767,0,0,1,.3,6.387c-.426,2.373-.776,2.728-.809,3.606-.067,1.753,1.063,3.749-1.03,6.549-2.055,2.749-3.291,4.745-4.444,5.03s-1.389.118-2.948-.376-5.706-3.336-6.678-5.57a7.8,7.8,0,0,1-.883-3.267,3.775,3.775,0,0,1-1.84-.8c-.563-.607-.3-3.244-.3-3.244l-.044-4.513a16.68,16.68,0,0,1,7.293-3.35c4.079-.631,10.9-1.18,11.377-.455" transform="translate(-32.607 -76.179)" fill="#fff"/>
            <path id="Path_1000339" data-name="Path 1000339" d="M96.417,181.942a18.767,18.767,0,0,1,.3,6.387c-.426,2.373-.776,2.728-.809,3.606-.067,1.753,1.063,3.749-1.03,6.549-2.055,2.749-3.291,4.745-4.444,5.03s-1.389.118-2.948-.376-5.706-3.336-6.678-5.57a7.8,7.8,0,0,1-.883-3.267,3.775,3.775,0,0,1-1.84-.8c-.563-.607-.3-3.244-.3-3.244l-.044-4.513a16.68,16.68,0,0,1,7.293-3.35C89.119,181.765,95.938,181.217,96.417,181.942Z" transform="translate(-32.607 -76.179)" fill="none" stroke="#263238" stroke-linecap="round" stroke-linejoin="round" stroke-width="1"/>
            <path id="Path_1000340" data-name="Path 1000340" d="M103.095,192.814s-1.472,1.03-1.4,2.281l.074,1.251" transform="translate(-42.66 -80.885)" fill="none" stroke="#263238" stroke-linecap="round" stroke-linejoin="round" stroke-width="1"/>
            <path id="Path_1000341" data-name="Path 1000341" d="M105.059,195.426c-.077.511-.4.888-.713.841s-.513-.5-.437-1.012.4-.888.713-.841.513.5.437,1.012" transform="translate(-43.582 -81.554)" fill="#263238"/>
            <path id="Path_1000342" data-name="Path 1000342" d="M94.16,194.583c-.077.511-.4.888-.713.841s-.513-.5-.437-1.012.4-.888.713-.841.513.5.437,1.012" transform="translate(-39.01 -81.2)" fill="#263238"/>
            <path id="Path_1000343" data-name="Path 1000343" d="M104.912,191.256a2.023,2.023,0,0,1,2.771.876" transform="translate(-44.01 -80.129)" fill="none" stroke="#263238" stroke-linecap="round" stroke-linejoin="round" stroke-width="1"/>
            <path id="Path_1000344" data-name="Path 1000344" d="M94.211,190.12a4.1,4.1,0,0,0-3.541.263" transform="translate(-38.036 -79.631)" fill="none" stroke="#263238" stroke-linecap="round" stroke-linejoin="round" stroke-width="1"/>
            <path id="Path_1000345" data-name="Path 1000345" d="M101.155,203.116a1.764,1.764,0,0,1-1.7.921" transform="translate(-41.719 -85.206)" fill="none" stroke="#263238" stroke-linecap="round" stroke-linejoin="round" stroke-width="1"/>
            <path id="Path_1000346" data-name="Path 1000346" d="M92.964,207.445a5.926,5.926,0,0,0,4.609.624" transform="translate(-38.998 -87.022)" fill="none" stroke="#263238" stroke-linecap="round" stroke-linejoin="round" stroke-width="1"/>
            <path id="Path_1000347" data-name="Path 1000347" d="M33.277,275.869c-1.179,2.811-1.179,6.983,0,8.435s2.754,1.275,5.62.868c4.4-.626,23.04-.142,23.04-.142l1.632,1.088c2.027,1.351,4.389,2.141,6.44,3.446a1.821,1.821,0,0,0,2.086.272,39.38,39.38,0,0,0,4.535-2.721s2,.091,2.539-.544-.181-1.542-.181-1.542-5.17-4.172-6.258-4.353S62.118,279.5,62.118,279.5a30.079,30.079,0,0,0-5.532-.635c-4.354-.272-17.6-4.172-17.6-4.172" transform="translate(-13.589 -115.231)" fill="#fff"/>
            <path id="Path_1000348" data-name="Path 1000348" d="M33.277,275.869c-1.179,2.811-1.179,6.983,0,8.435s2.754,1.275,5.62.868c4.4-.626,23.04-.142,23.04-.142l1.632,1.088c2.027,1.351,4.389,2.141,6.44,3.446a1.821,1.821,0,0,0,2.086.272,39.38,39.38,0,0,0,4.535-2.721s2,.091,2.539-.544-.181-1.542-.181-1.542-5.17-4.172-6.258-4.353S62.118,279.5,62.118,279.5a30.079,30.079,0,0,0-5.532-.635c-4.354-.272-17.6-4.172-17.6-4.172" transform="translate(-13.589 -115.231)" fill="none" stroke="#263238" stroke-linecap="round" stroke-linejoin="round" stroke-width="1"/>
            <path id="Path_1000349" data-name="Path 1000349" d="M190.107,402.857a1.227,1.227,0,0,1-1.214-1.059l-2.978-21.576c-.678-4.761-2.575-17.543-3.19-19.431-.169-.517-.4-.623-.472-.659a1.7,1.7,0,0,0-1.131.053,1.227,1.227,0,0,1-.95-2.262,4.132,4.132,0,0,1,3.091-.027,3.361,3.361,0,0,1,1.795,2.134c.794,2.435,3.035,18.076,3.287,19.851l2.979,21.581a1.227,1.227,0,0,1-1.048,1.383,1.189,1.189,0,0,1-.169.012" transform="translate(-75.27 -150.011)" fill="#fff"/>
            <path id="Path_1000350" data-name="Path 1000350" d="M190.107,402.857a1.227,1.227,0,0,1-1.214-1.059l-2.978-21.576c-.678-4.761-2.575-17.543-3.19-19.431-.169-.517-.4-.623-.472-.659a1.7,1.7,0,0,0-1.131.053,1.227,1.227,0,0,1-.95-2.262,4.132,4.132,0,0,1,3.091-.027,3.361,3.361,0,0,1,1.795,2.134c.794,2.435,3.035,18.076,3.287,19.851l2.979,21.581a1.227,1.227,0,0,1-1.048,1.383A1.189,1.189,0,0,1,190.107,402.857Z" transform="translate(-75.27 -150.011)" fill="none" stroke="#263238" stroke-linecap="round" stroke-linejoin="round" stroke-width="1"/>
            <path id="Path_1000351" data-name="Path 1000351" d="M62.188,300.743s1,4.828,2.885,6.647a9.74,9.74,0,0,0,2.759,2.132l-.188,2.821a12.6,12.6,0,0,1-6.145-6.082,38.009,38.009,0,0,1-1.819-5.33Z" transform="translate(-25.035 -126.16)" fill="#a1a1a1"/>
            <path id="Path_1000352" data-name="Path 1000352" d="M62.188,300.743s1,4.828,2.885,6.647a9.74,9.74,0,0,0,2.759,2.132l-.188,2.821a12.6,12.6,0,0,1-6.145-6.082,38.009,38.009,0,0,1-1.819-5.33Z" transform="translate(-25.035 -126.16)" fill="none" stroke="#263238" stroke-linecap="round" stroke-linejoin="round" stroke-width="1"/>
            <path id="Path_1000353" data-name="Path 1000353" d="M63.532,309.693s-3.355-2.427-4.632-4.782a38.943,38.943,0,0,1-3.268-8.01c-.228-1.469-5.665-.273-5.6.793s.272,23.1.272,23.1l13.168-.94Z" transform="translate(-20.987 -124.261)" fill="#263238"/>
            <path id="Path_1000354" data-name="Path 1000354" d="M63.532,309.693s-3.355-2.427-4.632-4.782a38.943,38.943,0,0,1-3.268-8.01c-.228-1.469-5.665-.273-5.6.793s.272,23.1.272,23.1l13.168-.94Z" transform="translate(-20.987 -124.261)" fill="none" stroke="#263238" stroke-linecap="round" stroke-linejoin="round" stroke-width="1"/>
            <path id="Path_1000355" data-name="Path 1000355" d="M46.238,290.848s-4.911,1.1-5.068,1.672-.209,2.247.1,2.247,3.657.1,3.866,0,3.6-1.045,3.6-1.045.993,2.926,1.358,3.135,4.336.157,5.015-.261a2.507,2.507,0,0,0,.888-1.463l-1.984-5.1-4.858.123Z" transform="translate(-17.218 -121.669)" fill="#a1a1a1"/>
            <path id="Path_1000356" data-name="Path 1000356" d="M46.238,290.848s-4.911,1.1-5.068,1.672-.209,2.247.1,2.247,3.657.1,3.866,0,3.6-1.045,3.6-1.045.993,2.926,1.358,3.135,4.336.157,5.015-.261a2.507,2.507,0,0,0,.888-1.463l-1.984-5.1-4.858.123Z" transform="translate(-17.218 -121.669)" fill="none" stroke="#263238" stroke-linecap="round" stroke-linejoin="round" stroke-width="1"/>
            <path id="Path_1000357" data-name="Path 1000357" d="M55.12,291.164s1.306,4.441,1.829,4.807,4.127-.261,4.127-.261" transform="translate(-23.123 -122.142)" fill="none" stroke="#263238" stroke-linecap="round" stroke-linejoin="round" stroke-width="1"/>
            <rect id="Rectangle_455184" data-name="Rectangle 455184" width="1.571" height="4.109" transform="translate(47.938 226.705)" fill="#fff"/>
            <rect id="Rectangle_455185" data-name="Rectangle 455185" width="1.571" height="4.109" transform="translate(47.938 226.705)" fill="none" stroke="#263238" stroke-linecap="round" stroke-linejoin="round" stroke-width="1"/>
            <path id="Path_1000358" data-name="Path 1000358" d="M71.835,378.79a1.227,1.227,0,0,1-1.225-1.185c-.007-.215-.734-21.548-1.042-25.707-.21-2.825-1.555-2.9-1.694-2.889l-15.841.628a1.227,1.227,0,1,1-.1-2.452l15.83-.626a3.618,3.618,0,0,1,2.463.905,5.949,5.949,0,0,1,1.787,4.253c.311,4.207,1.017,24.925,1.047,25.8a1.228,1.228,0,0,1-1.185,1.268h-.042" transform="translate(-21.292 -145.378)" fill="#fff"/>
            <path id="Path_1000359" data-name="Path 1000359" d="M71.835,378.79a1.227,1.227,0,0,1-1.225-1.185c-.007-.215-.734-21.548-1.042-25.707-.21-2.825-1.555-2.9-1.694-2.889l-15.841.628a1.227,1.227,0,1,1-.1-2.452l15.83-.626a3.618,3.618,0,0,1,2.463.905,5.949,5.949,0,0,1,1.787,4.253c.311,4.207,1.017,24.925,1.047,25.8a1.228,1.228,0,0,1-1.185,1.268Z" transform="translate(-21.292 -145.378)" fill="none" stroke="#263238" stroke-linecap="round" stroke-linejoin="round" stroke-width="1"/>
            <path id="Path_1000360" data-name="Path 1000360" d="M94.47,402.857a1.227,1.227,0,0,1-1.214-1.059l-2.978-21.576c-.678-4.761-2.575-17.543-3.19-19.431-.169-.517-.4-.623-.472-.659a1.7,1.7,0,0,0-1.131.053,1.227,1.227,0,0,1-.95-2.262,4.132,4.132,0,0,1,3.091-.027,3.362,3.362,0,0,1,1.795,2.134c.794,2.435,3.035,18.076,3.287,19.851l2.979,21.581a1.227,1.227,0,0,1-1.047,1.383,1.2,1.2,0,0,1-.17.012" transform="translate(-35.151 -150.011)" fill="#fff"/>
            <path id="Path_1000361" data-name="Path 1000361" d="M94.47,402.857a1.227,1.227,0,0,1-1.214-1.059l-2.978-21.576c-.678-4.761-2.575-17.543-3.19-19.431-.169-.517-.4-.623-.472-.659a1.7,1.7,0,0,0-1.131.053,1.227,1.227,0,0,1-.95-2.262,4.132,4.132,0,0,1,3.091-.027,3.362,3.362,0,0,1,1.795,2.134c.794,2.435,3.035,18.076,3.287,19.851l2.979,21.581a1.227,1.227,0,0,1-1.047,1.383A1.2,1.2,0,0,1,94.47,402.857Z" transform="translate(-35.151 -150.011)" fill="none" stroke="#263238" stroke-linecap="round" stroke-linejoin="round" stroke-width="1"/>
            <path id="Path_1000362" data-name="Path 1000362" d="M94.029,388.918s18.126,2.3,31.3.241,26.1-3.625,26.1-3.625l1.934,12.93s-19.7,4.109-37.462,4.23-19.939,0-19.939,0Z" transform="translate(-39.445 -161.73)" fill="#263238"/>
            <path id="Path_1000363" data-name="Path 1000363" d="M94.029,388.918s18.126,2.3,31.3.241,26.1-3.625,26.1-3.625l1.934,12.93s-19.7,4.109-37.462,4.23-19.939,0-19.939,0Z" transform="translate(-39.445 -161.73)" fill="none" stroke="#263238" stroke-linecap="round" stroke-linejoin="round" stroke-width="1"/>
            <path id="Path_1000364" data-name="Path 1000364" d="M69.515,325.49a.92.92,0,0,1-.92-.908c0-.159-.209-15.882-.26-17.055-.028-.651-.2-.937-.318-1.023a18.989,18.989,0,0,0-2.7.565.92.92,0,1,1-.478-1.777c2.983-.8,3.516-.626,3.716-.56.459.154,1.535.724,1.621,2.714.052,1.2.254,16.463.262,17.112a.921.921,0,0,1-.908.932Z" transform="translate(-26.912 -127.807)" fill="#fff"/>
            <path id="Path_1000365" data-name="Path 1000365" d="M69.515,325.49a.92.92,0,0,1-.92-.908c0-.159-.209-15.882-.26-17.055-.028-.651-.2-.937-.318-1.023a18.989,18.989,0,0,0-2.7.565.92.92,0,1,1-.478-1.777c2.983-.8,3.516-.626,3.716-.56.459.154,1.535.724,1.621,2.714.052,1.2.254,16.463.262,17.112a.921.921,0,0,1-.908.932Z" transform="translate(-26.912 -127.807)" fill="none" stroke="#263238" stroke-linecap="round" stroke-linejoin="round" stroke-width="1"/>
            <rect id="Rectangle_455186" data-name="Rectangle 455186" width="3.505" height="7.976" transform="translate(44.434 224.892)" fill="#263238"/>
            <rect id="Rectangle_455187" data-name="Rectangle 455187" width="3.505" height="7.976" transform="translate(44.434 224.892)" fill="none" stroke="#263238" stroke-linecap="round" stroke-linejoin="round" stroke-width="1"/>
            <path id="Path_1000366" data-name="Path 1000366" d="M77.061,429.831c0,5.534-1.711,10.02-3.821,10.02s-3.82-4.486-3.82-10.02,1.711-10.02,3.82-10.02,3.821,4.486,3.821,10.02" transform="translate(-29.121 -176.109)" fill="#263238"/>
            <path id="Path_1000367" data-name="Path 1000367" d="M77.061,429.831c0,5.534-1.711,10.02-3.821,10.02s-3.82-4.486-3.82-10.02,1.711-10.02,3.82-10.02S77.061,424.3,77.061,429.831Z" transform="translate(-29.121 -176.109)" fill="none" stroke="#263238" stroke-linecap="round" stroke-linejoin="round" stroke-width="1"/>
            <path id="Path_1000368" data-name="Path 1000368" d="M74.478,432.675c0,3.361-.94,6.085-2.1,6.085s-2.1-2.724-2.1-6.085.94-6.085,2.1-6.085,2.1,2.724,2.1,6.085" transform="translate(-29.481 -178.952)" fill="#fff"/>
            <path id="Path_1000369" data-name="Path 1000369" d="M74.478,432.675c0,3.361-.94,6.085-2.1,6.085s-2.1-2.724-2.1-6.085.94-6.085,2.1-6.085S74.478,429.314,74.478,432.675Z" transform="translate(-29.481 -178.952)" fill="none" stroke="#263238" stroke-linecap="round" stroke-linejoin="round" stroke-width="1"/>
            <path id="Path_1000370" data-name="Path 1000370" d="M73.45,401.127s-1.973-.2-1.9.454-2.379,22.347-2.379,22.347l1.081-.072,3.46-20.4,3.027.073-.706,11.759.557,1.8s2.313-14.642,1.88-15.291a2.088,2.088,0,0,0-1.516-.67Z" transform="translate(-29.017 -168.259)" fill="#fff"/>
            <path id="Path_1000371" data-name="Path 1000371" d="M73.45,401.127s-1.973-.2-1.9.454-2.379,22.347-2.379,22.347l1.081-.072,3.46-20.4,3.027.073-.706,11.759.557,1.8s2.313-14.642,1.88-15.291a2.088,2.088,0,0,0-1.516-.67Z" transform="translate(-29.017 -168.259)" fill="none" stroke="#263238" stroke-linecap="round" stroke-linejoin="round" stroke-width="1"/>
            <path id="Path_1000372" data-name="Path 1000372" d="M82.126,405.282l.865.072-.982,12.932" transform="translate(-34.402 -170.014)" fill="#fff"/>
            <path id="Path_1000373" data-name="Path 1000373" d="M82.126,405.282l.865.072-.982,12.932" transform="translate(-34.402 -170.014)" fill="none" stroke="#263238" stroke-linecap="round" stroke-linejoin="round" stroke-width="1"/>
            <path id="Path_1000374" data-name="Path 1000374" d="M184.552,423.693c.287,4.7-1.516,8.63-4.027,8.783s-4.779-3.531-5.065-8.228,1.516-8.63,4.027-8.783,4.779,3.531,5.065,8.228" transform="translate(-73.592 -174.283)" fill="#263238"/>
            <ellipse id="Ellipse_13644" data-name="Ellipse 13644" cx="4.555" cy="8.521" rx="4.555" ry="8.521" transform="translate(101.348 241.459) rotate(-3.494)" fill="none" stroke="#263238" stroke-linecap="round" stroke-linejoin="round" stroke-width="1"/>
            <path id="Path_1000375" data-name="Path 1000375" d="M181.486,426.386c.174,2.853-.8,5.233-2.184,5.317s-2.641-2.16-2.815-5.013.8-5.233,2.184-5.317,2.641,2.16,2.815,5.013" transform="translate(-74.027 -176.763)" fill="#fff"/>
            <path id="Path_1000376" data-name="Path 1000376" d="M181.486,426.386c.174,2.853-.8,5.233-2.184,5.317s-2.641-2.16-2.815-5.013.8-5.233,2.184-5.317S181.312,423.533,181.486,426.386Z" transform="translate(-74.027 -176.763)" fill="none" stroke="#263238" stroke-linecap="round" stroke-linejoin="round" stroke-width="1"/>
            <path id="Path_1000377" data-name="Path 1000377" d="M178.5,399.514s-1.979-.045-1.873.5-1.217,19.114-1.217,19.114l1.076-.127,2.4-17.528,3.026-.123-.1,10.025.649,1.5s1.549-12.57,1.084-13.094A2.294,2.294,0,0,0,182,399.3Z" transform="translate(-73.582 -167.504)" fill="#fff"/>
            <path id="Path_1000378" data-name="Path 1000378" d="M178.5,399.514s-1.979-.045-1.873.5-1.217,19.114-1.217,19.114l1.076-.127,2.4-17.528,3.026-.123-.1,10.025.649,1.5s1.549-12.57,1.084-13.094A2.294,2.294,0,0,0,182,399.3Z" transform="translate(-73.582 -167.504)" fill="none" stroke="#263238" stroke-linecap="round" stroke-linejoin="round" stroke-width="1"/>
            <path id="Path_1000379" data-name="Path 1000379" d="M186.6,402.833l.867.009-.311,11.037" transform="translate(-78.278 -168.987)" fill="#fff"/>
            <path id="Path_1000380" data-name="Path 1000380" d="M186.6,402.833l.867.009-.311,11.037" transform="translate(-78.278 -168.987)" fill="none" stroke="#263238" stroke-linecap="round" stroke-linejoin="round" stroke-width="1"/>
            <path id="Path_1000381" data-name="Path 1000381" d="M35.783,308.579c-6.761,0-12.242,16.795-12.242,37.512S29.022,383.6,35.783,383.6s12.242-16.8,12.242-37.513-5.481-37.512-12.242-37.512m-1.56,70.027c-5,0-9.05-14.557-9.05-32.515s4.052-32.514,9.05-32.514,9.05,14.557,9.05,32.514-4.052,32.515-9.05,32.515" transform="translate(-9.875 -129.447)" fill="#263238"/>
            <path id="Path_1000382" data-name="Path 1000382" d="M35.783,308.579c-6.761,0-12.242,16.795-12.242,37.512S29.022,383.6,35.783,383.6s12.242-16.8,12.242-37.513S42.544,308.579,35.783,308.579Zm-1.56,70.027c-5,0-9.05-14.557-9.05-32.515s4.052-32.514,9.05-32.514,9.05,14.557,9.05,32.514S39.22,378.606,34.222,378.606Z" transform="translate(-9.875 -129.447)" fill="none" stroke="#263238" stroke-linecap="round" stroke-linejoin="round" stroke-width="1"/>
            <path id="Path_1000383" data-name="Path 1000383" d="M28.812,322.115c-5.365,0-9.715,13.893-9.715,31.031s4.35,31.031,9.715,31.031,9.715-13.893,9.715-31.031-4.35-31.031-9.715-31.031m-.439,59.177c-4.256,0-7.705-12.6-7.705-28.146S24.117,325,28.372,325s7.705,12.6,7.705,28.146-3.449,28.146-7.705,28.146" transform="translate(-8.011 -135.126)" fill="#263238"/>
            <path id="Path_1000384" data-name="Path 1000384" d="M28.812,322.115c-5.365,0-9.715,13.893-9.715,31.031s4.35,31.031,9.715,31.031,9.715-13.893,9.715-31.031S34.177,322.115,28.812,322.115Zm-.439,59.177c-4.256,0-7.705-12.6-7.705-28.146S24.117,325,28.372,325s7.705,12.6,7.705,28.146S32.628,381.292,28.372,381.292Z" transform="translate(-8.011 -135.126)" fill="none" stroke="#263238" stroke-linecap="round" stroke-linejoin="round" stroke-width="1"/>
            <path id="Path_1000385" data-name="Path 1000385" d="M121.759,310.69s11.351-6.712,15.793-7.3,8,1.086,8.883,4.343,5.034,9.574,5.824,19.149,1.579,27.243,1.579,27.243l-6.712,5.824s-4.145-14.51-6.317-18.852-3.751-9.18-3.849-12.437a25.662,25.662,0,0,0-.691-5.429h-15.5Z" transform="translate(-50.663 -127.22)" fill="#fff"/>
            <path id="Path_1000386" data-name="Path 1000386" d="M121.759,310.69s11.351-6.712,15.793-7.3,8,1.086,8.883,4.343,5.034,9.574,5.824,19.149,1.579,27.243,1.579,27.243l-6.712,5.824s-4.145-14.51-6.317-18.852-3.751-9.18-3.849-12.437a25.662,25.662,0,0,0-.691-5.429h-15.5Z" transform="translate(-50.663 -127.22)" fill="none" stroke="#263238" stroke-linecap="round" stroke-linejoin="round" stroke-width="1"/>
            <path id="Path_1000387" data-name="Path 1000387" d="M153.291,343.088c-.289-5.406-.661-11.7-1.033-16.21-.789-9.574-4.935-15.892-5.824-19.149s-4.441-4.935-8.883-4.343-15.793,7.3-15.793,7.3l-.987,12.535h15.5a25.661,25.661,0,0,1,.691,5.429c.1,3.257,1.678,8.094,3.85,12.437a47.79,47.79,0,0,1,1.964,4.955c1.553-1.672,4.826-3.993,10.518-2.958" transform="translate(-50.663 -127.22)" fill="#707070"/>
            <path id="Path_1000388" data-name="Path 1000388" d="M153.291,343.088c-.289-5.406-.661-11.7-1.033-16.21-.789-9.574-4.935-15.892-5.824-19.149s-4.441-4.935-8.883-4.343-15.793,7.3-15.793,7.3l-.987,12.535h15.5a25.661,25.661,0,0,1,.691,5.429c.1,3.257,1.678,8.094,3.85,12.437a47.79,47.79,0,0,1,1.964,4.955C144.327,344.374,147.6,342.054,153.291,343.088Z" transform="translate(-50.663 -127.22)" fill="none" stroke="#263238" stroke-linecap="round" stroke-linejoin="round" stroke-width="1"/>
            <line id="Line_27287" data-name="Line 27287" x1="1.086" y1="4.244" transform="translate(84.52 191.762)" fill="#fff"/>
            <line id="Line_27288" data-name="Line 27288" x1="1.086" y1="4.244" transform="translate(84.52 191.762)" fill="none" stroke="#263238" stroke-linecap="round" stroke-linejoin="round" stroke-width="1"/>
            <path id="Path_1000389" data-name="Path 1000389" d="M174.855,391.063a3.308,3.308,0,0,0-3.159-1.58c-2.073.3-5.626,4.935-5.528,6.614s.493,2.171.1,3.06.592,3.652,1.086,6.416.593,4.836,1.481,5.527,3.652,1.382,6.81.2,3.257-4.343,4.837-5.922,4.54-3.356,6.317-7.5-.592-7.4-3.356-7.8-6.514,1.382-6.514,1.382Z" transform="translate(-69.706 -163.373)" fill="#fff"/>
            <path id="Path_1000390" data-name="Path 1000390" d="M174.855,391.063a3.308,3.308,0,0,0-3.159-1.58c-2.073.3-5.626,4.935-5.528,6.614s.493,2.171.1,3.06.592,3.652,1.086,6.416.593,4.836,1.481,5.527,3.652,1.382,6.81.2,3.257-4.343,4.837-5.922,4.54-3.356,6.317-7.5-.592-7.4-3.356-7.8-6.514,1.382-6.514,1.382Z" transform="translate(-69.706 -163.373)" fill="none" stroke="#263238" stroke-linecap="round" stroke-linejoin="round" stroke-width="1"/>
            <path id="Path_1000391" data-name="Path 1000391" d="M190.094,396.361c-.355-.863-1.629-2.922-5.5-1.814-4.837,1.382-7.9,6.909-7.7,8.587s.889,3.06-.888,4.935c-1.526,1.61-3.7,4.235-3.284,5.571a9.078,9.078,0,0,0,5.654-.34c3.159-1.184,3.257-4.343,4.836-5.922s4.541-3.356,6.317-7.5a6.784,6.784,0,0,0,.569-3.516" transform="translate(-72.433 -165.377)" fill="#707070"/>
            <path id="Path_1000392" data-name="Path 1000392" d="M190.094,396.361c-.355-.863-1.629-2.922-5.5-1.814-4.837,1.382-7.9,6.909-7.7,8.587s.889,3.06-.888,4.935c-1.526,1.61-3.7,4.235-3.284,5.571a9.078,9.078,0,0,0,5.654-.34c3.159-1.184,3.257-4.343,4.836-5.922s4.541-3.356,6.317-7.5A6.784,6.784,0,0,0,190.094,396.361Z" transform="translate(-72.433 -165.377)" fill="none" stroke="#263238" stroke-linecap="round" stroke-linejoin="round" stroke-width="1"/>
            <path id="Path_1000393" data-name="Path 1000393" d="M175.641,392.227s-4.047.1-5.429,2.764-.592,2.073-1.086,3.751-1.086,1.382-1.086,1.382" transform="translate(-70.492 -164.537)" fill="#fff"/>
            <path id="Path_1000394" data-name="Path 1000394" d="M175.641,392.227s-4.047.1-5.429,2.764-.592,2.073-1.086,3.751-1.086,1.382-1.086,1.382" transform="translate(-70.492 -164.537)" fill="none" stroke="#263238" stroke-linecap="round" stroke-linejoin="round" stroke-width="1"/>
            <path id="Path_1000395" data-name="Path 1000395" d="M181.851,392.908s-3.06,2.172-3.948,4.54" transform="translate(-74.629 -164.823)" fill="#fff"/>
            <path id="Path_1000396" data-name="Path 1000396" d="M181.851,392.908s-3.06,2.172-3.948,4.54" transform="translate(-74.629 -164.823)" fill="none" stroke="#263238" stroke-linecap="round" stroke-linejoin="round" stroke-width="1"/>
            <path id="Path_1000397" data-name="Path 1000397" d="M75.69,321.857s-2.172-4.244-.691-7.9c1.858-4.581,5.33-4.737,9.574-6.416s8.193-4.244,11.845-4.244,7.8,2.172,7.7,6.514-.1,15.793-.2,22.9-.987,16.583-.987,18.952a14.716,14.716,0,0,0,.3,3.455l-7.4,5.922s-1.382-6.12-2.468-11.549-4.639-12.239-4.639-16.089.3-10.463.3-10.463l-12.042-.3Z" transform="translate(-31.245 -127.233)" fill="#fff"/>
            <path id="Path_1000398" data-name="Path 1000398" d="M75.69,321.857s-2.172-4.244-.691-7.9c1.858-4.581,5.33-4.737,9.574-6.416s8.193-4.244,11.845-4.244,7.8,2.172,7.7,6.514-.1,15.793-.2,22.9-.987,16.583-.987,18.952a14.716,14.716,0,0,0,.3,3.455l-7.4,5.922s-1.382-6.12-2.468-11.549-4.639-12.239-4.639-16.089.3-10.463.3-10.463l-12.042-.3Z" transform="translate(-31.245 -127.233)" fill="none" stroke="#263238" stroke-linecap="round" stroke-linejoin="round" stroke-width="1"/>
            <path id="Path_1000399" data-name="Path 1000399" d="M96.419,303.3c-3.652,0-7.6,2.566-11.845,4.244s-7.717,1.834-9.574,6.416c-1.48,3.652.691,7.9.691,7.9l1.283.789,12.042.3s-.3,6.614-.3,10.463c0,3.731,3.33,10.239,4.525,15.579a12.489,12.489,0,0,1,10-2.929c.266-3.928.611-9.063.67-13.341.1-7.107.1-18.556.2-22.9s-4.047-6.514-7.7-6.514" transform="translate(-31.245 -127.233)" fill="#707070"/>
            <path id="Path_1000400" data-name="Path 1000400" d="M96.419,303.3c-3.652,0-7.6,2.566-11.845,4.244s-7.717,1.834-9.574,6.416c-1.48,3.652.691,7.9.691,7.9l1.283.789,12.042.3s-.3,6.614-.3,10.463c0,3.731,3.33,10.239,4.525,15.579a12.489,12.489,0,0,1,10-2.929c.266-3.928.611-9.063.67-13.341.1-7.107.1-18.556.2-22.9S100.07,303.3,96.419,303.3Z" transform="translate(-31.245 -127.233)" fill="none" stroke="#263238" stroke-linecap="round" stroke-linejoin="round" stroke-width="1"/>
            <line id="Line_27289" data-name="Line 27289" y1="9.87" x2="0.888" transform="translate(57.771 185.839)" fill="none" stroke="#263238" stroke-linecap="round" stroke-linejoin="round" stroke-width="1"/>
            <path id="Path_1000401" data-name="Path 1000401" d="M119.407,391.924s-.691-1.876-2.27-1.58-6.81,5.034-7.107,6.614S111.115,401,111.115,401s0,6.416.1,8.193-.493,4.343,2.27,5.428a7.552,7.552,0,0,0,8.094-2.368c1.678-2.172.592-5.429,1.283-6.317s5.429-4.047,7.008-6.811-.3-8.192-1.875-8.982a6.533,6.533,0,0,0-5.725.3c-1.777.987-2.862,1.481-2.862,1.481" transform="translate(-46.14 -163.444)" fill="#fff"/>
            <path id="Path_1000402" data-name="Path 1000402" d="M119.407,391.924s-.691-1.876-2.27-1.58-6.81,5.034-7.107,6.614S111.115,401,111.115,401s0,6.416.1,8.193-.493,4.343,2.27,5.428a7.552,7.552,0,0,0,8.094-2.368c1.678-2.172.592-5.429,1.283-6.317s5.429-4.047,7.008-6.811-.3-8.192-1.875-8.982a6.533,6.533,0,0,0-5.725.3C120.492,391.43,119.407,391.924,119.407,391.924Z" transform="translate(-46.14 -163.444)" fill="none" stroke="#263238" stroke-linecap="round" stroke-linejoin="round" stroke-width="1"/>
            <path id="Path_1000403" data-name="Path 1000403" d="M126.039,394.368c-2.271,1.382-9.574,8.193-9.673,10.265s-.988,2.862-2.073,5.725c-.908,2.393-1.254,4.646.673,6.013l.017.008a7.551,7.551,0,0,0,8.094-2.369c1.678-2.171.592-5.428,1.283-6.317s5.429-4.047,7.008-6.81c.885-1.548.684-3.933.06-5.869l-.553-.448s-2.566-1.579-4.836-.2" transform="translate(-47.639 -165.198)" fill="#707070"/>
            <path id="Path_1000404" data-name="Path 1000404" d="M126.039,394.368c-2.271,1.382-9.574,8.193-9.673,10.265s-.988,2.862-2.073,5.725c-.908,2.393-1.254,4.646.673,6.013l.017.008a7.551,7.551,0,0,0,8.094-2.369c1.678-2.171.592-5.428,1.283-6.317s5.429-4.047,7.008-6.81c.885-1.548.684-3.933.06-5.869l-.553-.448S128.309,392.987,126.039,394.368Z" transform="translate(-47.639 -165.198)" fill="none" stroke="#263238" stroke-linecap="round" stroke-linejoin="round" stroke-width="1"/>
            <path id="Path_1000405" data-name="Path 1000405" d="M122.147,393.588a21.031,21.031,0,0,0-5.626,6.218" transform="translate(-48.88 -165.108)" fill="none" stroke="#263238" stroke-linecap="round" stroke-linejoin="round" stroke-width="1"/>
            <path id="Path_1000406" data-name="Path 1000406" d="M100.254,425.137l6.419-2.767,2.037-.047.316,3.34h16.442v1.751l-9.981,2.1H101.375Z" transform="translate(-42.056 -177.162)" fill="#263238"/>
            <path id="Path_1000407" data-name="Path 1000407" d="M100.254,425.137l6.419-2.767,2.037-.047.316,3.34h16.442v1.751l-9.981,2.1H101.375Z" transform="translate(-42.056 -177.162)" fill="none" stroke="#263238" stroke-linecap="round" stroke-linejoin="round" stroke-width="1"/>
            <path id="Path_1000408" data-name="Path 1000408" d="M111.887,422.294l.769,5.212H129.72l.628-.105v-1.751H113.906l-.316-3.34Z" transform="translate(-46.936 -177.15)" fill="#707070"/>
            <path id="Path_1000409" data-name="Path 1000409" d="M111.887,422.294l.769,5.212H129.72l.628-.105v-1.751H113.906l-.316-3.34Z" transform="translate(-46.936 -177.15)" fill="none" stroke="#263238" stroke-linecap="round" stroke-linejoin="round" stroke-width="1"/>
            <path id="Path_1000410" data-name="Path 1000410" d="M181.28,420.868l4.663-2.221h1.636l0,6.274-6.822,2.265-17.157.223-.019-1.451,1.863-1.777,15.988-.461Z" transform="translate(-68.621 -175.62)" fill="#263238"/>
            <path id="Path_1000411" data-name="Path 1000411" d="M181.28,420.868l4.663-2.221h1.636l0,6.274-6.822,2.265-17.157.223-.019-1.451,1.863-1.777,15.988-.461Z" transform="translate(-68.621 -175.62)" fill="none" stroke="#263238" stroke-linecap="round" stroke-linejoin="round" stroke-width="1"/>
            <path id="Path_1000412" data-name="Path 1000412" d="M166.789,424.267v1.2l22.134-.46-.095-6.154-1.815.045.072,4.909Z" transform="translate(-69.967 -175.707)" fill="#707070"/>
            <path id="Path_1000413" data-name="Path 1000413" d="M166.789,424.267v1.2l22.134-.46-.095-6.154-1.815.045.072,4.909Z" transform="translate(-69.967 -175.707)" fill="none" stroke="#263238" stroke-linecap="round" stroke-linejoin="round" stroke-width="1"/>
            <line id="Line_27290" data-name="Line 27290" x2="1.542" y2="2.903" transform="translate(61.5 168.982)" fill="none" stroke="#263238" stroke-linecap="round" stroke-linejoin="round" stroke-width="1"/>
            <line id="Line_27291" data-name="Line 27291" x2="1.361" y2="2.358" transform="translate(59.323 170.614)" fill="none" stroke="#263238" stroke-linecap="round" stroke-linejoin="round" stroke-width="1"/>
            <line id="Line_27292" data-name="Line 27292" x2="1.632" y2="2.086" transform="translate(57.509 171.975)" fill="none" stroke="#263238" stroke-linecap="round" stroke-linejoin="round" stroke-width="1"/>
            <path id="Path_1000414" data-name="Path 1000414" d="M89.278,176.176s-5.661,5.058-9.658,6.362c0,0-1.213,1.419-1.786,1.234S76.7,182,76.306,181.941s-1.267,1.112-1.267,1.112l-.645,2.305s-4.62-5.141-3.545-8.122c2.738-7.6,7.738-9.318,14.805-9.062s9.52,5.38,8.293,6.9a13.547,13.547,0,0,1-3.1,2.639s-.48-1.473-1.571-1.536" transform="translate(-29.653 -70.538)" fill="#263238"/>
            <path id="Path_1000415" data-name="Path 1000415" d="M89.278,176.176s-5.661,5.058-9.658,6.362c0,0-1.213,1.419-1.786,1.234S76.7,182,76.306,181.941s-1.267,1.112-1.267,1.112l-.645,2.305s-4.62-5.141-3.545-8.122c2.738-7.6,7.738-9.318,14.805-9.062s9.52,5.38,8.293,6.9a13.547,13.547,0,0,1-3.1,2.639S90.37,176.239,89.278,176.176Z" transform="translate(-29.653 -70.538)" fill="none" stroke="#263238" stroke-linecap="round" stroke-linejoin="round" stroke-width="1"/>
            <path id="Path_1000416" data-name="Path 1000416" d="M74.081,224.831a17.169,17.169,0,0,1,2.117,2.991c1.491,2.409,3.391,5.911,3.736,5.337s1.721-5.391,1.721-5.391" transform="translate(-31.077 -94.316)" fill="none" stroke="#263238" stroke-linecap="round" stroke-linejoin="round" stroke-width="1"/>
            <path id="Path_1000417" data-name="Path 1000417" d="M99.859,227.809l3.156,4.214c1.032-.688.338-6.95.338-6.95" transform="translate(-41.89 -94.417)" fill="none" stroke="#263238" stroke-linecap="round" stroke-linejoin="round" stroke-width="1"/>
            <path id="Path_1000418" data-name="Path 1000418" d="M153.039,234.418H128.231A1.358,1.358,0,0,1,126.9,232.8l3.551-18.107a1.357,1.357,0,0,1,1.332-1.1h24.808a1.356,1.356,0,0,1,1.332,1.618l-3.55,18.108a1.357,1.357,0,0,1-1.332,1.1" transform="translate(-53.222 -89.602)" fill="#fff"/>
            <path id="Path_1000419" data-name="Path 1000419" d="M153.039,234.418H128.231A1.358,1.358,0,0,1,126.9,232.8l3.551-18.107a1.357,1.357,0,0,1,1.332-1.1h24.808a1.356,1.356,0,0,1,1.332,1.618l-3.55,18.108A1.357,1.357,0,0,1,153.039,234.418Z" transform="translate(-53.222 -89.602)" fill="none" stroke="#263238" stroke-linecap="round" stroke-linejoin="round" stroke-width="1"/>
            <path id="Path_1000420" data-name="Path 1000420" d="M150.789,216.412l15.553-.024s.7.234.586,1.288" transform="translate(-63.255 -90.774)" fill="none" stroke="#263238" stroke-linecap="round" stroke-linejoin="round" stroke-width="1"/>
            <path id="Path_1000421" data-name="Path 1000421" d="M134.193,215.646l1.171.468,7.178-.012" transform="translate(-56.293 -90.462)" fill="none" stroke="#263238" stroke-linecap="round" stroke-linejoin="round" stroke-width="1"/>
            <line id="Line_27293" data-name="Line 27293" x1="0.486" y2="2.521" transform="translate(75.351 141.01)" fill="none" stroke="#263238" stroke-linecap="round" stroke-linejoin="round" stroke-width="1"/>
            <line id="Line_27294" data-name="Line 27294" x1="2.629" y2="13.641" transform="translate(76.056 126.232)" fill="none" stroke="#263238" stroke-linecap="round" stroke-linejoin="round" stroke-width="1"/>
            <path id="Path_1000422" data-name="Path 1000422" d="M171.451,227.81a1.806,1.806,0,0,0-1.667.658l-14.307-3.36a2.654,2.654,0,0,0-.622-2.952l1.361-5.687-.849.02,1.069-5.119a.844.844,0,0,0-.826-1.012h-3.8c-1.422,0-1.848,1.706-1.848,1.706h2.558l-.93,4.516-1.344.032-3.7,16.486-2.872.077a2.714,2.714,0,0,0,1.259,1.343c.84.336,6.381.168,6.381.168s.657-.153.916-1.588l1.378-5.754a2.267,2.267,0,0,0,.812-.483l14.524,5.533-1.2,8.221a2.31,2.31,0,0,0-.723,1.36l-.472,3.248a2.335,2.335,0,0,0,1.975,2.647,2.4,2.4,0,0,0,.339.024,2.336,2.336,0,0,0,2.308-2l.472-3.247a2.313,2.313,0,0,0-.3-1.511l1.638-11.265a1.815,1.815,0,0,0-1.535-2.059" transform="translate(-60.273 -88.244)" fill="#263238"/>
          </g>
        </g>
      </g>
    </g>
  </g>
</svg>
