<svg xmlns="http://www.w3.org/2000/svg" xmlns:xlink="http://www.w3.org/1999/xlink" width="400" height="261" viewBox="0 0 400 261">
  <defs>
    <clipPath id="clip-path">
      <rect id="Rectangle_455192" data-name="Rectangle 455192" width="242" height="236.91" fill="none"/>
    </clipPath>
  </defs>
  <g id="img13" transform="translate(-179.711 -3209)">
    <rect id="Rectangle_454210" data-name="Rectangle 454210" width="400" height="261" rx="10" transform="translate(179.711 3209)" fill="#a8b8ff"/>
    <g id="Group_1186165" data-name="Group 1186165" transform="translate(258.711 3221)">
      <path id="Path_1000423" data-name="Path 1000423" d="M834.883,2.241l.265,2.237Z" transform="translate(-726.8 -1.951)" fill="#fff"/>
      <g id="Group_1186164" data-name="Group 1186164">
        <g id="Group_1186163" data-name="Group 1186163" clip-path="url(#clip-path)">
          <path id="Path_1000424" data-name="Path 1000424" d="M833.195,2.818a.29.29,0,0,1-.288-.256L832.641.325a.29.29,0,1,1,.577-.068l.266,2.237a.291.291,0,0,1-.254.323l-.035,0" transform="translate(-724.846 0)"/>
          <path id="Path_1000425" data-name="Path 1000425" d="M839.658,42.495l.265,2.237Z" transform="translate(-730.957 -36.994)" fill="#fff"/>
          <path id="Path_1000426" data-name="Path 1000426" d="M837.97,43.071a.29.29,0,0,1-.288-.256l-.266-2.237a.29.29,0,1,1,.577-.068l.265,2.237a.291.291,0,0,1-.254.323l-.035,0" transform="translate(-729.003 -35.042)"/>
          <path id="Path_1000427" data-name="Path 1000427" d="M809.529,32.636l2.237-.265Z" transform="translate(-704.728 -28.18)" fill="#fff"/>
          <path id="Path_1000428" data-name="Path 1000428" d="M807.576,30.974a.29.29,0,0,1-.034-.579l2.237-.265a.29.29,0,1,1,.069.577l-2.237.265-.035,0" transform="translate(-702.775 -26.228)"/>
          <path id="Path_1000429" data-name="Path 1000429" d="M849.782,27.861l2.237-.265Z" transform="translate(-739.77 -24.023)" fill="#fff"/>
          <path id="Path_1000430" data-name="Path 1000430" d="M847.829,26.2a.29.29,0,0,1-.034-.579l2.237-.265a.29.29,0,1,1,.069.577l-2.237.266-.035,0" transform="translate(-737.817 -22.07)"/>
          <path id="Path_1000431" data-name="Path 1000431" d="M705.018,42.764a2.688,2.688,0,0,1-2.328-1.353,2.758,2.758,0,0,1,.941-3.738h0a2.625,2.625,0,0,1,2.022-.293,2.688,2.688,0,0,1,1.662,1.268,2.758,2.758,0,0,1-.941,3.738,2.629,2.629,0,0,1-1.356.378M703.93,38.17a2.175,2.175,0,0,0-.738,2.949,2.111,2.111,0,0,0,1.305,1,2.05,2.05,0,0,0,1.578-.229,2.175,2.175,0,0,0,.737-2.949,2.112,2.112,0,0,0-1.3-1,2.048,2.048,0,0,0-1.578.229" transform="translate(-611.395 -32.466)"/>
          <path id="Path_1000432" data-name="Path 1000432" d="M670.846,1710.829h-.015a95.03,95.03,0,0,1-32.772-7.53.29.29,0,1,1,.229-.534,94.459,94.459,0,0,0,32.573,7.484.29.29,0,0,1-.014.58" transform="translate(-555.303 -1482.306)"/>
          <path id="Path_1000433" data-name="Path 1000433" d="M930.753,1761.63a.29.29,0,1,1,0-.581c1.524,0,3.072-.035,4.6-.1a.29.29,0,1,1,.026.58c-1.538.069-3.1.1-4.628.1" transform="translate(-810.006 -1532.974)"/>
          <path id="Path_1000434" data-name="Path 1000434" d="M735.1,1686.221a87.65,87.65,0,0,1-27.458-4.353.29.29,0,1,1,.181-.552,89.021,89.021,0,0,0,40.474,3.39.29.29,0,0,1,.081.575,95.508,95.508,0,0,1-13.277.94" transform="translate(-615.858 -1463.642)"/>
          <path id="Path_1000435" data-name="Path 1000435" d="M99.308,168.362l138.272-.4a4.715,4.715,0,0,1,4.717,5.119l-9.678,108.288a4.722,4.722,0,0,1-4.717,4.285L57.58,285.628a4.947,4.947,0,0,1-4.745-5.364l9.68-107.617a4.885,4.885,0,0,1,4.638-4.549Z" transform="translate(-45.978 -146.218)"/>
          <path id="Path_1000436" data-name="Path 1000436" d="M48.686,171.074h138.25a4.735,4.735,0,0,1,4.717,5.155L182.019,284.5a4.735,4.735,0,0,1-4.717,4.316H6.976a4.735,4.735,0,0,1-4.717-5.155L11.894,175.39a4.735,4.735,0,0,1,4.717-4.316Z" transform="translate(-1.95 -148.927)" fill="#fff"/>
          <path id="Path_1000437" data-name="Path 1000437" d="M5.027,287.159A5.025,5.025,0,0,1,.02,281.688L9.654,173.412a5,5,0,0,1,5.006-4.58H46.736a.29.29,0,0,1,0,.581H14.66a4.421,4.421,0,0,0-4.427,4.051L.6,281.739a4.444,4.444,0,0,0,4.427,4.839l5.474-.032h0a.29.29,0,0,1,0,.581Z" transform="translate(0 -146.975)"/>
          <path id="Path_1000438" data-name="Path 1000438" d="M501.647,181.218h-.017a.29.29,0,0,1-.273-.306l.379-6.652a4.445,4.445,0,0,0-4.427-4.848H359.059a.29.29,0,0,1,0-.581h138.25a5.025,5.025,0,0,1,5.006,5.471l-.378,6.642a.29.29,0,0,1-.289.274" transform="translate(-312.323 -146.974)"/>
          <path id="Path_1000439" data-name="Path 1000439" d="M93.462,212.152H223.083a4.367,4.367,0,0,1,4.422,4.7l-9.033,98.716a4.393,4.393,0,0,1-4.422,3.934H54.355a4.367,4.367,0,0,1-4.422-4.7l9.033-98.716a4.393,4.393,0,0,1,4.422-3.934Z" transform="translate(-43.453 -184.687)" fill="#fff"/>
          <path id="Path_1000440" data-name="Path 1000440" d="M212.1,317.84H52.4a4.79,4.79,0,0,1-3.535-1.546,4.488,4.488,0,0,1-1.176-3.47l9.033-98.716a4.659,4.659,0,0,1,4.711-4.2h159.7a4.79,4.79,0,0,1,3.535,1.547,4.488,4.488,0,0,1,1.176,3.47l-9.033,98.716a4.659,4.659,0,0,1-4.711,4.2M61.434,210.49A4.081,4.081,0,0,0,57.3,214.16l-9.033,98.716A3.913,3.913,0,0,0,49.3,315.9a4.207,4.207,0,0,0,3.106,1.357H212.1a4.081,4.081,0,0,0,4.133-3.671l9.033-98.716a3.913,3.913,0,0,0-1.027-3.025,4.208,4.208,0,0,0-3.106-1.357Z" transform="translate(-41.5 -182.734)"/>
          <path id="Path_1000441" data-name="Path 1000441" d="M532.011,364.66c-25.606-26.78-52.051-27.012-79.369.353,19.264,23.658,56.252,27.189,79.369-.353" transform="translate(-394.043 -299.929)" fill="#fff"/>
          <path id="Path_1000442" data-name="Path 1000442" d="M490.285,382.393h-.376a51.317,51.317,0,0,1-39.446-19.147.291.291,0,0,1,.02-.389c13.766-13.79,27.564-20.7,41-20.564,13.046.141,26.1,6.942,38.788,20.215a.29.29,0,0,1,.012.387c-10.562,12.584-24.754,19.5-40,19.5m-39.2-19.312a50.727,50.727,0,0,0,38.833,18.73h.371c14.987,0,28.951-6.768,39.383-19.092-12.523-13.033-25.372-19.71-38.194-19.848-13.212-.144-26.8,6.656-40.394,20.208" transform="translate(-392.09 -297.978)"/>
          <path id="Path_1000443" data-name="Path 1000443" d="M682.439,406.435a14.069,14.069,0,1,1-14.069-14.069,14.069,14.069,0,0,1,14.069,14.069" transform="translate(-569.596 -341.571)"/>
          <rect id="Rectangle_455190" data-name="Rectangle 455190" width="53.671" height="4.574" transform="translate(85.834 87.925) rotate(-62.992)" fill="#fff"/>
          <path id="Path_1000444" data-name="Path 1000444" d="M661.066,355.961a.29.29,0,0,1-.258-.422l24.373-47.818a.29.29,0,1,1,.517.264L661.325,355.8a.29.29,0,0,1-.259.158" transform="translate(-575.233 -267.745)"/>
          <path id="Path_1000445" data-name="Path 1000445" d="M692.548,372.007a.29.29,0,0,1-.258-.422l24.373-47.818a.29.29,0,1,1,.517.264l-24.373,47.818a.29.29,0,0,1-.259.158" transform="translate(-602.639 -281.714)"/>
          <path id="Path_1000446" data-name="Path 1000446" d="M524.713,812.643c-3.52-2.73-7.193-5.276-10.942-7.7-7.608-4.928-15.57-9.333-23.6-13.6-4.226-2.245-8.592-4.277-12.908-6.366q-6.513-3.153-13.048-6.267-5.967-2.853-11.928-5.718c-10.839-29.618-22.712-63.2-20.832-63.2l142.623-4.055a5.425,5.425,0,0,1,5.471,6.132l-10.2,99.257a6.949,6.949,0,0,1-6.732,6.132h-31.8c-1.989-1.588-4.083-3.055-6.093-4.614" transform="translate(-375.424 -614.371)" fill="#fff"/>
          <path id="Path_1000447" data-name="Path 1000447" d="M560.628,815.594h-31.8a.291.291,0,0,1-.181-.064c-1.115-.891-2.285-1.759-3.417-2.6-.881-.654-1.792-1.329-2.673-2.013-3.24-2.513-6.812-5.028-10.922-7.69-8.019-5.194-16.421-9.784-23.582-13.589-3.267-1.736-6.675-3.371-9.97-4.952q-1.466-.7-2.929-1.41c-4.316-2.089-8.634-4.156-13.046-6.266q-5.967-2.854-11.928-5.718a.291.291,0,0,1-.147-.162c-22.415-61.251-21.286-62.866-20.915-63.4a.425.425,0,0,1,.356-.189l142.615-4.055a5.735,5.735,0,0,1,4.331,1.871,5.844,5.844,0,0,1,1.437,4.581l-10.2,99.257a7.247,7.247,0,0,1-7.021,6.393m-31.7-.581h31.7a6.652,6.652,0,0,0,6.443-5.872l10.2-99.257a5.269,5.269,0,0,0-1.29-4.133,5.158,5.158,0,0,0-3.891-1.68l-142.523,4.052c-.331,1.174,2.087,11.111,20.964,62.7q5.9,2.844,11.821,5.667c4.413,2.11,8.732,4.178,13.049,6.268q1.461.707,2.927,1.409c3.3,1.584,6.714,3.222,9.991,4.963,7.172,3.811,15.587,8.408,23.626,13.614,4.123,2.671,7.709,5.2,10.962,7.718.876.68,1.784,1.354,2.663,2.005,1.109.823,2.254,1.672,3.354,2.547M429.486,708.127h0" transform="translate(-373.443 -612.419)"/>
          <path id="Path_1000448" data-name="Path 1000448" d="M287.687,708.413h144.03a5.113,5.113,0,0,1,5.161,5.786l-10.2,99.257a6.549,6.549,0,0,1-6.351,5.786H276.293a5.113,5.113,0,0,1-5.161-5.786l10.2-99.257a6.549,6.549,0,0,1,6.351-5.786" transform="translate(-236.004 -616.702)" fill="#fff"/>
          <path id="Path_1000449" data-name="Path 1000449" d="M703.082,1562.428l-65.649-.061a.29.29,0,0,1,0-.581l65.649.061a.29.29,0,0,1,0,.581" transform="translate(-554.659 -1359.599)"/>
          <path id="Path_1000450" data-name="Path 1000450" d="M335.64,728.363l-.03,0a.291.291,0,0,1-.259-.319l1.627-15.827a6.854,6.854,0,0,1,6.64-6.046h144.03c2.228,0,4.567,2.074,5.456,4a.29.29,0,0,1,.027.13L492.7,726.2a.291.291,0,0,1-.581-.016l.426-15.837c-.838-1.749-2.986-3.6-4.9-3.6H343.618a6.259,6.259,0,0,0-6.062,5.525L335.929,728.1a.291.291,0,0,1-.289.261" transform="translate(-291.935 -614.749)"/>
          <path id="Path_1000451" data-name="Path 1000451" d="M322.633,737.973h136.12a4.781,4.781,0,0,1,4.872,5.386l-9.744,92.4a6.163,6.163,0,0,1-6.008,5.386H311.752a4.781,4.781,0,0,1-4.872-5.386l9.745-92.4a6.163,6.163,0,0,1,6.008-5.386" transform="translate(-267.126 -642.436)" fill="#fff"/>
          <path id="Path_1000452" data-name="Path 1000452" d="M445.918,839.485H309.8a5.071,5.071,0,0,1-5.161-5.707l9.745-92.4a6.467,6.467,0,0,1,6.3-5.646H456.8a5.071,5.071,0,0,1,5.161,5.707l-9.744,92.4a6.467,6.467,0,0,1-6.3,5.646M320.678,736.311a5.874,5.874,0,0,0-5.72,5.126l-9.745,92.4A4.491,4.491,0,0,0,309.8,838.9h136.12a5.873,5.873,0,0,0,5.719-5.126l9.744-92.4a4.491,4.491,0,0,0-4.583-5.065Z" transform="translate(-265.171 -640.483)"/>
          <path id="Path_1000453" data-name="Path 1000453" d="M963.515,1037l-7.045-.935.286-27.824,7.367.6-.071,27.7a.466.466,0,0,1-.538.466" transform="translate(-832.646 -877.716)"/>
          <path id="Path_1000454" data-name="Path 1000454" d="M775.726,1193.467l-25.442-.048a1.257,1.257,0,0,0-1.2.828l-8.321,22.961,4.466,1.887,8.407-20.016a1.4,1.4,0,0,1,1.3-.853H775.7a.341.341,0,0,0,.343-.372Z" transform="translate(-644.863 -1038.92)"/>
          <path id="Path_1000455" data-name="Path 1000455" d="M707.692,1345.132a1.267,1.267,0,0,1-1.736.636l-7.639-3.5a1.485,1.485,0,0,1-.8-1.857l.4-1.018a1.45,1.45,0,0,1,1.991-.742l8.832,3.726Z" transform="translate(-607.136 -1165.219)"/>
          <path id="Path_1000456" data-name="Path 1000456" d="M843.826,1113.872H825.767a.644.644,0,0,1-.631-.592l-.171-2.386a.542.542,0,0,1,.546-.592H843.57a.644.644,0,0,1,.631.592l.171,2.386a.542.542,0,0,1-.546.592" transform="translate(-718.164 -966.563)"/>
          <path id="Path_1000457" data-name="Path 1000457" d="M956.349,923.184a4.866,4.866,0,0,1-4.059,5.952,5.717,5.717,0,0,1-6.245-4.509,4.866,4.866,0,0,1,4.059-5.952,5.717,5.717,0,0,1,6.245,4.509" transform="translate(-823.47 -799.7)"/>
          <path id="Path_1000458" data-name="Path 1000458" d="M859.395,1135.9a22.118,22.118,0,0,0-4.09-4.759,18.459,18.459,0,0,0-2.143-1.686l.017,5.751a15.92,15.92,0,0,1,4.625,10.16,13.174,13.174,0,0,1-13.245,14.427,16.443,16.443,0,0,1-12.685-6.555,15.49,15.49,0,0,1-1.7-2.806,11.125,11.125,0,0,1-1.239-4.248l-2.507,5.542a14.416,14.416,0,0,0,1.829,3.125,19.879,19.879,0,0,0,16.414,8.961,17.559,17.559,0,0,0,11.455-3.966,18.016,18.016,0,0,0,5.948-10.61,18.631,18.631,0,0,0-2.682-13.337" transform="translate(-719.443 -983.232)"/>
          <path id="Path_1000459" data-name="Path 1000459" d="M189.576,1034.828H142.7a3.306,3.306,0,0,1-3.341-3.667l7.927-91.7a4.072,4.072,0,0,1,3.975-3.667l44.5-.523c5.111,0,5.889,2.165,5.714,4.19l-7.927,91.7a4.072,4.072,0,0,1-3.975,3.667" transform="translate(-121.305 -814.19)"/>
          <path id="Path_1000460" data-name="Path 1000460" d="M167.785,1036.225H120.908a3.313,3.313,0,0,1-3.341-3.678l7.916-91.994a4.076,4.076,0,0,1,3.974-3.678h46.877a3.313,3.313,0,0,1,3.341,3.678l-7.916,91.994a4.076,4.076,0,0,1-3.974,3.678" transform="translate(-102.334 -815.587)" fill="#fff"/>
          <path id="Path_1000461" data-name="Path 1000461" d="M165.831,1034.564H118.954a3.608,3.608,0,0,1-2.7-1.159,3.669,3.669,0,0,1-.934-2.834l7.916-91.995a4.377,4.377,0,0,1,4.263-3.944H174.38a3.607,3.607,0,0,1,2.7,1.159,3.669,3.669,0,0,1,.934,2.834l-7.916,91.995a4.377,4.377,0,0,1-4.263,3.944M127.5,935.213a3.785,3.785,0,0,0-3.685,3.413L115.9,1030.62a3.1,3.1,0,0,0,.783,2.392,3.033,3.033,0,0,0,2.268.971h46.877a3.785,3.785,0,0,0,3.685-3.413l7.916-91.995a3.1,3.1,0,0,0-.783-2.392,3.034,3.034,0,0,0-2.268-.971Z" transform="translate(-100.381 -813.635)"/>
          <path id="Path_1000462" data-name="Path 1000462" d="M378.991,954.483a1.241,1.241,0,0,1-1.252-1.378,1.527,1.527,0,0,1,1.489-1.378,1.241,1.241,0,0,1,1.252,1.378,1.527,1.527,0,0,1-1.489,1.378" transform="translate(-328.833 -828.517)"/>
          <path id="Path_1000463" data-name="Path 1000463" d="M138.311,1080.492l7.558-87.839a.941.941,0,0,1,.917-.849h47.129a.765.765,0,0,1,.771.849l-7.558,87.839a.941.941,0,0,1-.917.849H139.083a.765.765,0,0,1-.771-.849" transform="translate(-120.403 -863.406)" fill="#fff"/>
          <path id="Path_1000464" data-name="Path 1000464" d="M184.26,1079.679H137.131a1.054,1.054,0,0,1-.787-.34,1.067,1.067,0,0,1-.273-.824l7.558-87.839a1.238,1.238,0,0,1,1.207-1.115h47.129a1.054,1.054,0,0,1,.787.34,1.067,1.067,0,0,1,.273.825l-7.558,87.839a1.238,1.238,0,0,1-1.207,1.115m-39.425-89.538a.655.655,0,0,0-.628.584l-7.558,87.839a.493.493,0,0,0,.123.382.48.48,0,0,0,.359.152H184.26a.654.654,0,0,0,.628-.584l7.558-87.839a.494.494,0,0,0-.123-.382.48.48,0,0,0-.359-.152Zm-8.475,88.4h0Z" transform="translate(-118.451 -861.452)"/>
          <path id="Path_1000465" data-name="Path 1000465" d="M215.354,1277.759h6.64l12.409,6.052a.894.894,0,0,0,1.261-.843l.191-20.249a.918.918,0,0,0-1.235-.933l-12.364,5.069h-6.969c-.59,0-1.072.156-1.078.758l-.1,9.026a1.121,1.121,0,0,0,1.24,1.12" transform="translate(-186.395 -1098.381)"/>
          <path id="Path_1000466" data-name="Path 1000466" d="M406.3,1285.837a1.5,1.5,0,0,1,.356-.86,12.677,12.677,0,0,0,3.279-7.359,12.523,12.523,0,0,0-2.034-7.76,1.51,1.51,0,0,1,.3-1.915,1.1,1.1,0,0,1,1.676.29,15.608,15.608,0,0,1,2.455,9.567,15.8,15.8,0,0,1-3.99,9.08,1.105,1.105,0,0,1-1.7.035,1.445,1.445,0,0,1-.339-1.077" transform="translate(-353.695 -1103.563)"/>
          <path id="Path_1000467" data-name="Path 1000467" d="M437.682,1270.238a1.494,1.494,0,0,1,.363-.869,17.76,17.76,0,0,0,4.707-10.427,17.544,17.544,0,0,0-2.943-11,1.51,1.51,0,0,1,.286-1.918,1.1,1.1,0,0,1,1.679.273,22.414,22.414,0,0,1,2.757,6.162,19.312,19.312,0,0,1-1.083,13.162,22.793,22.793,0,0,1-3.732,5.672,1.1,1.1,0,0,1-1.7.017,1.447,1.447,0,0,1-.332-1.068" transform="translate(-381.016 -1084.472)"/>
          <path id="Path_1000468" data-name="Path 1000468" d="M253.294,1215.683l-2.675-.969-10.965,30.876,2.675.969Z" transform="translate(-208.629 -1057.458)" fill="#fff"/>
          <path id="Path_1000469" data-name="Path 1000469" d="M237.7,1243.926a.291.291,0,0,1-.274-.388l10.965-30.876a.29.29,0,1,1,.547.194l-10.965,30.876a.291.291,0,0,1-.274.193" transform="translate(-206.674 -1055.504)"/>
          <path id="Path_1000470" data-name="Path 1000470" d="M258.368,1251.41a.291.291,0,0,1-.274-.388l10.965-30.876a.29.29,0,0,1,.547.194l-10.965,30.876a.291.291,0,0,1-.274.193" transform="translate(-224.667 -1062.019)"/>
          <path id="Path_1000471" data-name="Path 1000471" d="M1322.293,1251.341h-21.546a2.705,2.705,0,0,0-2.767,2.639v9.612l3.675.282.283-6.063c0-1.2-.173-2.889,1.083-2.889h19.273Z" transform="translate(-1129.944 -1089.343)" fill="#fff"/>
          <path id="Path_1000472" data-name="Path 1000472" d="M1299.7,1262.212h-.022l-3.675-.282a.29.29,0,0,1-.268-.289v-9.612a3,3,0,0,1,3.058-2.929h21.546a.291.291,0,0,1,.29.29v3.581a.29.29,0,0,1-.29.29h-19.273a.611.611,0,0,0-.466.169c-.354.36-.341,1.287-.33,2.032,0,.136,0,.27,0,.4l-.283,6.076a.291.291,0,0,1-.29.277m-3.385-.841,3.109.238.269-5.764c0-.112,0-.242,0-.375a3.562,3.562,0,0,1,.5-2.448,1.186,1.186,0,0,1,.88-.342h18.983v-3h-21.256a2.418,2.418,0,0,0-2.477,2.348Z" transform="translate(-1127.992 -1087.391)"/>
          <path id="Path_1000473" data-name="Path 1000473" d="M1241.164,1339.081c0,16.816,8.254,30.448,18.435,30.448s18.435-13.632,18.435-30.448-8.254-30.449-18.435-30.449-18.435,13.632-18.435,30.449m1.834,0c0-15.143,7.432-27.419,16.6-27.419s16.6,12.276,16.6,27.419-7.432,27.418-16.6,27.418-16.6-12.276-16.6-27.418" transform="translate(-1080.484 -1139.218)" fill="#fff"/>
          <path id="Path_1000474" data-name="Path 1000474" d="M1257.647,1367.866c-10.325,0-18.725-13.789-18.725-30.739s8.4-30.739,18.725-30.739,18.725,13.79,18.725,30.739-8.4,30.739-18.725,30.739m0-60.9c-10.005,0-18.145,13.529-18.145,30.158s8.14,30.158,18.145,30.158,18.145-13.529,18.145-30.158-8.14-30.158-18.145-30.158m0,57.867c-9.314,0-16.891-12.43-16.891-27.709s7.577-27.709,16.891-27.709,16.891,12.43,16.891,27.709-7.577,27.709-16.891,27.709m0-54.838c-8.994,0-16.31,12.17-16.31,27.129s7.317,27.128,16.31,27.128,16.31-12.17,16.31-27.128-7.316-27.129-16.31-27.129" transform="translate(-1078.532 -1137.264)"/>
          <path id="Path_1000475" data-name="Path 1000475" d="M1482.876,1103.128h30.345l-.377-49.494c-5.466-11.4-28.368-7.009-29.968.094Z" transform="translate(-1290.904 -911.145)" fill="#fff"/>
          <path id="Path_1000476" data-name="Path 1000476" d="M1511.269,1101.494h-30.345a.29.29,0,0,1-.29-.29v-49.4a.287.287,0,0,1,.007-.064c.758-3.367,6.224-6.367,13-7.134,6.5-.736,14.513.711,17.517,6.978a.291.291,0,0,1,.029.123l.377,49.494a.29.29,0,0,1-.29.293m-30.054-.581h29.762l-.374-49.136c-2.894-5.943-10.62-7.3-16.9-6.593-6.513.737-11.755,3.532-12.488,6.653Z" transform="translate(-1288.952 -909.22)"/>
          <path id="Path_1000477" data-name="Path 1000477" d="M1429.089,1456h37.435v-1.621a2.7,2.7,0,0,0-2.7-2.7h-32.043a2.7,2.7,0,0,0-2.7,2.7Z" transform="translate(-1244.08 -1263.752)" fill="#fff"/>
          <path id="Path_1000478" data-name="Path 1000478" d="M1464.572,1454.342h-37.435a.29.29,0,0,1-.29-.29v-1.621a2.99,2.99,0,0,1,2.987-2.986h32.042a2.99,2.99,0,0,1,2.987,2.986v1.621a.29.29,0,0,1-.29.29m-37.145-.581h36.854v-1.331a2.409,2.409,0,0,0-2.406-2.406h-32.042a2.409,2.409,0,0,0-2.406,2.406Z" transform="translate(-1242.128 -1261.8)"/>
          <path id="Path_1000479" data-name="Path 1000479" d="M1742.46,1001.832c2.239-.6,5.813-.12,8.756.567a2.442,2.442,0,1,0,0-4.885H1742.2a1.007,1.007,0,0,0-1.007,1.007v2.34a1.006,1.006,0,0,0,1.268.972" transform="translate(-1515.779 -868.377)" fill="#fff"/>
          <path id="Path_1000480" data-name="Path 1000480" d="M1749.264,1000.737a.286.286,0,0,1-.066-.008c-3.649-.852-6.789-1.059-8.615-.569a1.3,1.3,0,0,1-1.633-1.252v-2.339a1.3,1.3,0,0,1,1.3-1.3h9.017a2.733,2.733,0,1,1,0,5.465M1743,999.314a29.758,29.758,0,0,1,6.293.842,2.152,2.152,0,0,0-.032-4.3h-9.017a.717.717,0,0,0-.717.717v2.339a.715.715,0,0,0,.9.691,10.1,10.1,0,0,1,2.57-.286m-2.5.566h0Z" transform="translate(-1513.826 -866.425)"/>
          <path id="Path_1000481" data-name="Path 1000481" d="M1469,1071.493h-36.847a.29.29,0,1,1,0-.581h36.553l-.72-57.009a4.348,4.348,0,0,1,4.343-4.346.29.29,0,0,1,0,.581,3.766,3.766,0,0,0-3.762,3.762l.724,57.3a.29.29,0,0,1-.29.294" transform="translate(-1246.494 -878.861)"/>
          <path id="Path_1000482" data-name="Path 1000482" d="M1119.847,1744.152h37.435v-1.621a2.7,2.7,0,0,0-2.7-2.7h-32.043a2.7,2.7,0,0,0-2.7,2.7Z" transform="translate(-974.873 -1514.597)" fill="#fff"/>
          <path id="Path_1000483" data-name="Path 1000483" d="M1155.328,1742.49h-37.435a.29.29,0,0,1-.29-.29v-1.621a2.99,2.99,0,0,1,2.987-2.986h32.043a2.99,2.99,0,0,1,2.987,2.986v1.621a.29.29,0,0,1-.29.29m-37.145-.581h36.854v-1.331a2.408,2.408,0,0,0-2.406-2.406H1120.59a2.409,2.409,0,0,0-2.406,2.406Z" transform="translate(-972.919 -1512.645)"/>
          <path id="Path_1000484" data-name="Path 1000484" d="M1193.1,1338.7s-8.5-14.417-2.235-33.318,38.005-11.668,38.005-11.668Z" transform="translate(-1034.692 -1125.043)"/>
          <path id="Path_1000485" data-name="Path 1000485" d="M1154.492,1684.74a21.546,21.546,0,0,1,1.088,5.758,1.87,1.87,0,0,1-1.825,1.843c-3.5.1-12.219.3-16.588.051a.756.756,0,0,1-.671-1.145c1.21-1.843,4.493-5.625,11.793-7.346Z" transform="translate(-989.263 -1465.904)" fill="#fff"/>
          <path id="Path_1000486" data-name="Path 1000486" d="M1141.042,1690.848c-2.209,0-4.3-.032-5.841-.121a1.135,1.135,0,0,1-.957-.6.981.981,0,0,1,.06-.99c1.349-2.054,4.7-5.755,11.969-7.469a.287.287,0,0,1,.105-.005l6.2.84a.29.29,0,0,1,.236.194,21.555,21.555,0,0,1,1.1,5.854,2.151,2.151,0,0,1-2.108,2.131c-2.288.064-6.733.171-10.771.171m5.312-8.606c-7.04,1.673-10.266,5.233-11.564,7.21a.4.4,0,0,0-.026.411.547.547,0,0,0,.472.285c4.347.249,13.031.048,16.563-.051a1.572,1.572,0,0,0,1.543-1.555,20.7,20.7,0,0,0-1.017-5.493Z" transform="translate(-987.313 -1463.951)"/>
          <path id="Path_1000487" data-name="Path 1000487" d="M1267.857,1249.047s10.422,24.177-6.881,26.03-25.221.19-25.221.19l-14.615,32.023a21.045,21.045,0,0,1-11.894-2.88s3.721-25.216,9.143-38.067,33.683-12.489,33.683-12.489Z" transform="translate(-1052.698 -1087.346)"/>
          <path id="Path_1000488" data-name="Path 1000488" d="M1205.361,1354.147a.3.3,0,0,1-.048,0,.291.291,0,0,1-.239-.334c.181-1.1,4.492-27.005,9.412-38.668,1.843-4.369,6.436-7.7,13.652-9.9a.29.29,0,1,1,.169.556c-7.043,2.146-11.513,5.365-13.286,9.567-4.894,11.6-9.193,37.443-9.374,38.537a.29.29,0,0,1-.286.243" transform="translate(-1049.063 -1136.257)" fill="#fff"/>
          <path id="Path_1000489" data-name="Path 1000489" d="M1197.209,1695.326a.29.29,0,0,1-.24-.127l-2.049-3a.291.291,0,0,1,.48-.328l2.049,3a.29.29,0,0,1-.24.454" transform="translate(-1040.182 -1472.734)"/>
          <path id="Path_1000490" data-name="Path 1000490" d="M1171.3,1733.907h-14.917a.29.29,0,0,1,0-.581H1171.3a.29.29,0,1,1,0,.581" transform="translate(-1006.43 -1508.931)"/>
          <path id="Path_1000491" data-name="Path 1000491" d="M1180.242,1702.89a.29.29,0,0,1-.246-.136l-1.593-2.542a.29.29,0,0,1,.492-.308l1.593,2.542a.291.291,0,0,1-.246.445" transform="translate(-1025.809 -1479.717)"/>
          <path id="Path_1000492" data-name="Path 1000492" d="M1582.268,1339.081c0,16.816,8.254,30.448,18.435,30.448s18.435-13.632,18.435-30.448-8.254-30.449-18.435-30.449-18.435,13.632-18.435,30.449m1.834,0c0-15.143,7.433-27.419,16.6-27.419s16.6,12.276,16.6,27.419-7.432,27.418-16.6,27.418-16.6-12.276-16.6-27.418" transform="translate(-1377.429 -1139.218)" fill="#fff"/>
          <path id="Path_1000493" data-name="Path 1000493" d="M1598.75,1367.866c-10.325,0-18.725-13.789-18.725-30.739s8.4-30.739,18.725-30.739,18.726,13.79,18.726,30.739-8.4,30.739-18.726,30.739m0-60.9c-10,0-18.145,13.529-18.145,30.158s8.14,30.158,18.145,30.158,18.145-13.529,18.145-30.158-8.14-30.158-18.145-30.158m0,57.867c-9.314,0-16.891-12.43-16.891-27.709s7.577-27.709,16.891-27.709,16.891,12.43,16.891,27.709-7.577,27.709-16.891,27.709m0-54.838c-8.994,0-16.31,12.17-16.31,27.129s7.317,27.128,16.31,27.128,16.311-12.17,16.311-27.128S1607.744,1310,1598.75,1310" transform="translate(-1375.476 -1137.264)"/>
          <path id="Path_1000494" data-name="Path 1000494" d="M1704.258,1514.482c0,2.411,1.183,4.365,2.643,4.365s2.643-1.954,2.643-4.365-1.183-4.365-2.643-4.365-2.643,1.954-2.643,4.365" transform="translate(-1483.626 -1314.618)" fill="#fff"/>
          <path id="Path_1000495" data-name="Path 1000495" d="M1704.948,1517.184c-1.645,0-2.933-2.045-2.933-4.655s1.288-4.655,2.933-4.655,2.933,2.045,2.933,4.655-1.288,4.655-2.933,4.655m0-8.729c-1.275,0-2.352,1.866-2.352,4.074s1.077,4.074,2.352,4.074,2.352-1.866,2.352-4.074-1.077-4.074-2.352-4.074" transform="translate(-1481.674 -1312.666)"/>
          <path id="Path_1000496" data-name="Path 1000496" d="M1398.66,1035.969s11.818-20.6,13.445-21.589,0,9.437,0,9.437l-8.825,14.733Z" transform="translate(-1217.591 -883.002)" fill="#fff"/>
          <path id="Path_1000497" data-name="Path 1000497" d="M1401.327,1036.886a.287.287,0,0,1-.141-.037l-4.62-2.581a.29.29,0,0,1-.11-.4c1.213-2.115,11.9-20.694,13.546-21.693a.576.576,0,0,1,.652-.017c1.1.734.113,7.646-.214,9.747a.288.288,0,0,1-.038.1l-8.825,14.733a.29.29,0,0,1-.249.141m-4.221-2.981,4.117,2.3,8.651-14.443c.633-4.081.988-8.686.467-9.111,0,0-.018.01-.038.022-1.135.69-8.456,12.976-13.2,21.231" transform="translate(-1215.638 -881.047)"/>
          <path id="Path_1000498" data-name="Path 1000498" d="M1493.917,1000.51a21.423,21.423,0,0,0-17.448.417s-3.666,8.366-3.108,15.729c.942,12.44-.435,18.77-.754,20.356-.565,2.807,19.79-.565,24.314-1.319,4.18-.7-1.078-9.312-1.5-12.645s-1.508-22.537-1.508-22.537" transform="translate(-1281.955 -869.549)" fill="#fff"/>
          <path id="Path_1000499" data-name="Path 1000499" d="M1474.523,1036.54c-2.161,0-3.477-.238-3.937-.714a.785.785,0,0,1-.218-.727l.027-.134c1.086-5.353,1.329-12.13.722-20.142-.557-7.35,3.094-15.783,3.131-15.867a.29.29,0,0,1,.143-.146,21.912,21.912,0,0,1,17.7-.415.29.29,0,0,1,.162.244c.011.192,1.094,19.232,1.506,22.517a21.826,21.826,0,0,0,1.313,4.088c1.124,2.933,2.4,6.257,1.458,7.9a2.024,2.024,0,0,1-1.515.978c-9.658,1.61-16.51,2.417-20.491,2.417m.215-37.252c-.406.964-3.555,8.714-3.042,15.491.611,8.066.365,14.9-.732,20.3l-.027.133a.208.208,0,0,0,.066.209c.53.547,3.92,1.46,23.916-1.872a1.454,1.454,0,0,0,1.107-.694c.8-1.406-.418-4.593-1.5-7.406a22.024,22.024,0,0,1-1.348-4.223c-.393-3.134-1.389-20.44-1.5-22.381a21.383,21.383,0,0,0-16.944.441" transform="translate(-1280 -867.694)"/>
          <path id="Path_1000500" data-name="Path 1000500" d="M1512.01,1028.7l-11.573-6.9-6.286,2.1a1.4,1.4,0,0,0,1.446.311,3.339,3.339,0,0,1,3.048.518,1.99,1.99,0,0,0,2.11,0s7.356,10.9,13.842,11.122c5.272.183,2.391-18.335,1.128-25.269a4.633,4.633,0,0,0-2.909-3.5l-1.941-.74Z" transform="translate(-1300.719 -876.071)" fill="#fff"/>
          <path id="Path_1000501" data-name="Path 1000501" d="M1512.722,1034.2l-.087,0c-6.131-.212-12.834-9.469-13.927-11.039a2.1,2.1,0,0,1-2.2-.148,3.048,3.048,0,0,0-2.774-.467,1.684,1.684,0,0,1-1.751-.391.29.29,0,0,1,.122-.471l6.286-2.1a.29.29,0,0,1,.241.026l11.107,6.622-1.108-21.809a.291.291,0,0,1,.394-.286l1.941.74a4.952,4.952,0,0,1,3.091,3.717c1.142,6.27,3.466,21.237.4,24.788a2.219,2.219,0,0,1-1.734.825m-13.919-11.7a.29.29,0,0,1,.241.128c.073.108,7.349,10.778,13.611,10.995a1.633,1.633,0,0,0,1.362-.622c2.986-3.455.35-19.476-.529-24.3a4.367,4.367,0,0,0-2.727-3.279l-1.525-.582,1.113,21.906a.291.291,0,0,1-.439.264l-11.459-6.831-5.547,1.857a1.169,1.169,0,0,0,.65-.035,3.65,3.65,0,0,1,3.323.569c.728.595,1.766-.018,1.777-.024a.289.289,0,0,1,.149-.042" transform="translate(-1298.767 -874.119)"/>
          <path id="Path_1000502" data-name="Path 1000502" d="M1333.957,1087.651l18.763.758a.812.812,0,0,0,.692-1.237l-9.465-15.41a1.278,1.278,0,0,0-1.089-.609l-18.967.433Z" transform="translate(-1152.501 -932.482)"/>
          <path id="Path_1000503" data-name="Path 1000503" d="M1319.937,1088.409h20.253l-10.6-17.256h-20.253Z" transform="translate(-1139.833 -932.483)" fill="#fff"/>
          <path id="Path_1000504" data-name="Path 1000504" d="M1338.236,1086.746h-20.253a.291.291,0,0,1-.248-.138l-10.6-17.256a.29.29,0,0,1,.248-.442h20.253a.291.291,0,0,1,.247.138l10.6,17.256a.29.29,0,0,1-.248.442m-20.091-.581h19.571l-10.242-16.675H1307.9Z" transform="translate(-1137.878 -930.53)"/>
          <path id="Path_1000505" data-name="Path 1000505" d="M1356.405,1141.684a8.008,8.008,0,0,0,0-2.993,29.411,29.411,0,0,0-3.074-5.506c-.607-.746-1.122,7.215,3.074,8.5" transform="translate(-1177.776 -986.44)" fill="#fff"/>
          <path id="Path_1000506" data-name="Path 1000506" d="M1354.448,1140.025a.294.294,0,0,1-.085-.013c-2.589-.792-3.6-4.01-3.681-6.758-.024-.8.008-2.158.485-2.336a.377.377,0,0,1,.431.134,29.6,29.6,0,0,1,3.129,5.61,8.2,8.2,0,0,1,.006,3.128.29.29,0,0,1-.285.236m-3.1-8.336a10.48,10.48,0,0,0,.453,4.673,4.749,4.749,0,0,0,2.413,2.98,6.935,6.935,0,0,0-.047-2.521,29.658,29.658,0,0,0-2.819-5.132" transform="translate(-1175.82 -984.491)"/>
          <path id="Path_1000507" data-name="Path 1000507" d="M1477.821,851.534a7.662,7.662,0,0,0,6.795,3.058c3.442-.3,3.874-3.163,6.6-3.051,2.946.122,3.647,3.5,6.484,3.88,1.616.215,3.984-.537,7.277-4.8a7.989,7.989,0,0,0,5.5,3.8c3.66.477,6.749-2.177,7.956-4.905,1.176-2.658,1.045-6.466-.727-7.531-1.572-.945-3.349.925-5.913.026-2.025-.71-1.722-2.472-3.177-2.867-3.089-.838-5.941,6.087-9.432,5.454-2.07-.375-1.763-2.934-4.318-3.863-3.34-1.215-5.5,2.563-9.328,1.582-2.773-.711-2.6-2.937-5.528-3.657a8.391,8.391,0,0,0-7.837,2.66c-2.771,3.06-2.928,8.011-1.525,8.78,1.38.756,3.939-2.711,5.7-1.751.938.512.511,1.664,1.477,3.182" transform="translate(-1279.504 -729.929)"/>
          <path id="Path_1000508" data-name="Path 1000508" d="M1527.769,794.879c-1.175-.953-.431-3.765.321-5.282.282-.569,1.543-3.112,3.2-3.013,1.7.1,3.335,2.961,2.727,5.227-.76,2.833-4.873,4.185-6.25,3.068" transform="translate(-1329.451 -684.751)"/>
          <path id="Path_1000509" data-name="Path 1000509" d="M1503.249,905.886a1.359,1.359,0,0,1-1.567-.239,8.022,8.022,0,0,1-1.194-1.52l-.516-.194-.552-2.489a5.156,5.156,0,0,1-.3-3.475c.1-1.161,3.033-1.853,4.674.384,1.113,1.517,2.714,0,2.714,0s.839-2.261,1.82-.87-.964,3.836-.964,3.836l1.453,6.19a4.427,4.427,0,0,0,2.726,3.122l1.4.535s-2.18,7.142-8.355,7.01c-4.713-.1-2.681-6.47-2.681-6.47l.619-.273a3.7,3.7,0,0,0,2.116-4.2l-.415-1.833Z" transform="translate(-1304.905 -780.774)" fill="#fff"/>
          <path id="Path_1000510" data-name="Path 1000510" d="M1502.8,916.523l-.174,0a3.192,3.192,0,0,1-2.7-1.255c-1.394-1.952-.3-5.446-.255-5.594a.291.291,0,0,1,.159-.177l.619-.273a3.417,3.417,0,0,0,1.95-3.874l-.333-1.472-.646.324a1.645,1.645,0,0,1-1.9-.293,8.344,8.344,0,0,1-1.184-1.489l-.423-.159a.29.29,0,0,1-.182-.209l-.548-2.467a5.523,5.523,0,0,1-.3-3.624,1.615,1.615,0,0,1,1.3-1.195,3.673,3.673,0,0,1,3.89,1.472,1.2,1.2,0,0,0,.865.551,2.122,2.122,0,0,0,1.37-.551c.123-.3.59-1.342,1.3-1.435a1.068,1.068,0,0,1,1,.568c.977,1.384-.5,3.547-.887,4.071l1.422,6.057a4.133,4.133,0,0,0,2.547,2.918l1.4.535a.29.29,0,0,1,.174.356c-.022.073-2.275,7.217-8.465,7.217m-2.608-6.551c-.175.62-.88,3.431.211,4.958a2.645,2.645,0,0,0,2.235,1.01c5.228.124,7.524-5.3,7.983-6.549l-1.134-.435a4.713,4.713,0,0,1-2.9-3.327l-1.453-6.19a.291.291,0,0,1,.055-.247c.5-.633,1.654-2.5.954-3.488-.114-.161-.286-.352-.451-.327-.315.041-.7.7-.859,1.131a.287.287,0,0,1-.073.11,2.752,2.752,0,0,1-1.866.747,1.768,1.768,0,0,1-1.282-.786,3.09,3.09,0,0,0-3.265-1.256c-.511.143-.859.428-.885.726a.293.293,0,0,1-.018.078,4.96,4.96,0,0,0,.294,3.266.291.291,0,0,1,.013.043l.518,2.335.369.139a.291.291,0,0,1,.146.121,7.767,7.767,0,0,0,1.151,1.466,1.065,1.065,0,0,0,1.232.185l.978-.49a.291.291,0,0,1,.413.2l.415,1.833a4,4,0,0,1-2.282,4.534Z" transform="translate(-1302.948 -778.829)"/>
          <path id="Path_1000511" data-name="Path 1000511" d="M1537.7,944.157a.29.29,0,0,1-.127-.552,2.05,2.05,0,0,0,1.244-2.18.29.29,0,1,1,.569-.118,2.643,2.643,0,0,1-1.559,2.82.287.287,0,0,1-.127.029" transform="translate(-1338.375 -819.245)"/>
          <path id="Path_1000512" data-name="Path 1000512" d="M1473.229,1297.382a.29.29,0,0,1-.29-.29v-21.645a4.689,4.689,0,0,1,4.683-4.684H1504.7a.29.29,0,0,1,0,.581h-27.075a4.108,4.108,0,0,0-4.1,4.1v21.645a.29.29,0,0,1-.29.29" transform="translate(-1282.253 -1106.251)" fill="#fff"/>
          <path id="Path_1000513" data-name="Path 1000513" d="M1455.056,1313.1l2.815.005.038-49.8c0-2.165,1.377-3.918,3.067-3.915l27.964-.363-.126-3.33-28.149.085c-3.068-.006-5.562,3.177-5.569,7.109Z" transform="translate(-1266.686 -1093.14)" fill="#fff"/>
          <path id="Path_1000514" data-name="Path 1000514" d="M1455.919,1311.441h0l-2.815-.005a.291.291,0,0,1-.29-.291l.039-50.2c.008-4.082,2.632-7.4,5.851-7.4h.009l28.148-.085h0a.29.29,0,0,1,.29.28l.125,3.33a.29.29,0,0,1-.286.3l-27.963.363h0c-1.53,0-2.772,1.625-2.776,3.625l-.038,49.8a.291.291,0,0,1-.29.29m-2.524-.586,2.234,0,.038-49.5c0-2.32,1.508-4.2,3.353-4.2h.005l27.661-.359-.1-2.752-27.869.084h-.008c-2.9,0-5.265,3.057-5.272,6.819Z" transform="translate(-1264.734 -1091.186)"/>
          <path id="Path_1000515" data-name="Path 1000515" d="M1405.705,1687.873c0-5.429,3.381-9.681,7.7-9.681s7.7,4.252,7.7,9.681-3.381,9.681-7.7,9.681-7.7-4.253-7.7-9.681m3.241,0c0,3.664,2.041,6.759,4.457,6.759s4.457-3.1,4.457-6.759-2.041-6.759-4.457-6.759-4.457,3.1-4.457,6.759" transform="translate(-1223.724 -1460.934)" fill="#fff"/>
          <path id="Path_1000516" data-name="Path 1000516" d="M1411.45,1695.892c-4.479,0-7.988-4.38-7.988-9.972s3.509-9.972,7.988-9.972,7.988,4.38,7.988,9.972-3.509,9.972-7.988,9.972m0-19.363c-4.154,0-7.407,4.125-7.407,9.391s3.254,9.391,7.407,9.391,7.407-4.125,7.407-9.391-3.254-9.391-7.407-9.391m0,16.44c-2.573,0-4.747-3.228-4.747-7.049s2.174-7.049,4.747-7.049,4.747,3.228,4.747,7.049-2.174,7.049-4.747,7.049m0-13.518c-2.258,0-4.166,2.962-4.166,6.469s1.908,6.468,4.166,6.468,4.167-2.962,4.167-6.468-1.908-6.469-4.167-6.469" transform="translate(-1221.771 -1458.982)"/>
          <path id="Path_1000517" data-name="Path 1000517" d="M1375.388,1151.363h-2.262l3.267,8.858c0,.533-.426.467-.959.456l-8.293-.141a1.184,1.184,0,0,0-1.367.99l-.094,2.78h1.838l-.047-1.131a.846.846,0,0,1,.848-.707l8.859.218a.973.973,0,0,0,.129-.008,1.8,1.8,0,0,0,1.447-2.433Z" transform="translate(-1188.881 -1002.308)" fill="#fff"/>
          <path id="Path_1000518" data-name="Path 1000518" d="M1365.568,1162.643h-1.838a.29.29,0,0,1-.29-.3l.094-2.78a1.4,1.4,0,0,1,.46-.9,1.542,1.542,0,0,1,1.221-.374l8.416.144a1.25,1.25,0,0,0,.5-.036.166.166,0,0,0,.022-.086l-3.247-8.8a.29.29,0,0,1,.272-.391h2.262a.291.291,0,0,1,.272.188l3.366,8.881a2.1,2.1,0,0,1-.17,1.85,2.032,2.032,0,0,1-1.516.974,1.278,1.278,0,0,1-.169.009l-8.859-.218a.664.664,0,0,0-.43.188.348.348,0,0,0-.12.229l.047,1.119a.29.29,0,0,1-.29.3m-1.537-.581h1.234l-.034-.828a.914.914,0,0,1,.295-.656,1.184,1.184,0,0,1,.85-.353l8.859.218a.842.842,0,0,0,.091-.006,1.455,1.455,0,0,0,1.084-.7,1.52,1.52,0,0,0,.123-1.342l-3.3-8.7h-1.644l3.123,8.468a.291.291,0,0,1,.018.1.734.734,0,0,1-.2.55,1.2,1.2,0,0,1-.918.2l-.136,0-8.291-.141a1.009,1.009,0,0,0-.777.2.887.887,0,0,0-.294.5Z" transform="translate(-1186.93 -1000.356)"/>
          <path id="Rectangle_455191" data-name="Rectangle 455191" d="M6.638,0H24.706a6.638,6.638,0,0,1,6.638,6.638v0a6.637,6.637,0,0,1-6.637,6.637H6.637A6.637,6.637,0,0,1,0,6.638v0A6.638,6.638,0,0,1,6.638,0Z" transform="translate(149.047 119.018)" fill="#fff"/>
          <path id="Path_1000519" data-name="Path 1000519" d="M1179.2,930.964h-28.354a1.787,1.787,0,0,1-1.785-1.785V918.893a1.787,1.787,0,0,1,1.785-1.785h5.593a.29.29,0,1,1,0,.581h-5.593a1.206,1.206,0,0,0-1.2,1.2v10.286a1.206,1.206,0,0,0,1.2,1.2H1179.2a1.206,1.206,0,0,0,1.2-1.2V918.893a1.206,1.206,0,0,0-1.2-1.2h-18.992a.29.29,0,0,1,0-.581H1179.2a1.787,1.787,0,0,1,1.785,1.785v10.286a1.787,1.787,0,0,1-1.785,1.785" transform="translate(-1000.306 -798.38)"/>
          <path id="Path_1000520" data-name="Path 1000520" d="M1187.386,957.169h0Z" transform="translate(-1033.668 -833.255)" fill="#fff"/>
          <path id="Path_1000521" data-name="Path 1000521" d="M1207.967,955.507h-22.535a.29.29,0,1,1,0-.581h22.535a.29.29,0,1,1,0,.581" transform="translate(-1031.714 -831.302)"/>
          <path id="Path_1000522" data-name="Path 1000522" d="M1325.056,980.431h0Z" transform="translate(-1153.515 -853.505)" fill="#fff"/>
          <path id="Path_1000523" data-name="Path 1000523" d="M1327.816,978.769H1323.1a.29.29,0,1,1,0-.581h4.712a.29.29,0,1,1,0,.581" transform="translate(-1151.564 -851.553)"/>
          <path id="Path_1000524" data-name="Path 1000524" d="M1187.386,980.431h0Z" transform="translate(-1033.668 -853.505)" fill="#fff"/>
          <path id="Path_1000525" data-name="Path 1000525" d="M1200.245,978.769h-14.811a.29.29,0,1,1,0-.581h14.811a.29.29,0,1,1,0,.581" transform="translate(-1031.715 -851.553)"/>
          <path id="Path_1000526" data-name="Path 1000526" d="M1304.735,454.919l-.126-2.516-2.8-.465a10.191,10.191,0,0,0-.552-1.67l1.993-1.966-1.411-2.113-2.675.953a10.783,10.783,0,0,0-1.343-1.174l.714-2.667-2.318-1.145-1.825,2.113a11.092,11.092,0,0,0-1.776-.363l-.76-2.649-2.6.131-.491,2.712a11.117,11.117,0,0,0-1.73.539l-2.028-1.92-2.191,1.371.977,2.582a10.781,10.781,0,0,0-1.219,1.3l-2.757-.68-1.192,2.244,2.18,1.757a10.157,10.157,0,0,0-.382,1.717l-2.743.744.126,2.516,2.8.465a10.143,10.143,0,0,0,.551,1.67l-1.993,1.966,1.411,2.113,2.675-.953a10.764,10.764,0,0,0,1.343,1.174l-.713,2.666,2.318,1.145,1.825-2.113a11.1,11.1,0,0,0,1.775.363l.76,2.649,2.6-.131.491-2.712a11.087,11.087,0,0,0,1.73-.539l2.028,1.92,2.191-1.371-.977-2.582a10.79,10.79,0,0,0,1.219-1.3l2.757.68,1.192-2.244-2.18-1.757a10.156,10.156,0,0,0,.381-1.717Zm-13.206,5.894a6.488,6.488,0,1,1,6.377-6.812,6.6,6.6,0,0,1-6.377,6.813" transform="translate(-1112.267 -384.133)" fill="#fff"/>
          <path id="Path_1000527" data-name="Path 1000527" d="M1288.6,465.752a.29.29,0,0,1-.279-.21l-.708-2.466a11.4,11.4,0,0,1-1.45-.3l-1.7,1.973a.291.291,0,0,1-.348.07l-2.318-1.145a.29.29,0,0,1-.152-.335l.663-2.477a11.1,11.1,0,0,1-1.089-.952l-2.5.891a.29.29,0,0,1-.339-.112l-1.411-2.113a.29.29,0,0,1,.038-.368l1.853-1.828a10.5,10.5,0,0,1-.444-1.346l-2.616-.434a.29.29,0,0,1-.242-.272l-.126-2.516a.291.291,0,0,1,.214-.295l2.559-.694a10.439,10.439,0,0,1,.307-1.384l-2.027-1.634a.29.29,0,0,1-.074-.363l1.192-2.244a.289.289,0,0,1,.326-.146l2.577.636a11.083,11.083,0,0,1,.988-1.056l-.907-2.4a.291.291,0,0,1,.118-.349l2.191-1.371a.29.29,0,0,1,.354.035l1.893,1.793a11.476,11.476,0,0,1,1.413-.44l.458-2.524a.29.29,0,0,1,.271-.238l2.6-.131a.29.29,0,0,1,.294.21l.708,2.466a11.459,11.459,0,0,1,1.449.3l1.7-1.973a.29.29,0,0,1,.348-.071l2.318,1.145a.29.29,0,0,1,.152.335l-.663,2.477a11.071,11.071,0,0,1,1.089.952l2.5-.891a.29.29,0,0,1,.339.112l1.411,2.113a.29.29,0,0,1-.038.368l-1.854,1.828a10.5,10.5,0,0,1,.444,1.346l2.616.434a.29.29,0,0,1,.242.272l.126,2.516a.29.29,0,0,1-.214.295l-2.559.694a10.465,10.465,0,0,1-.307,1.384l2.027,1.634a.29.29,0,0,1,.074.362l-1.192,2.244a.291.291,0,0,1-.326.146l-2.577-.636a11.068,11.068,0,0,1-.988,1.057l.908,2.4a.291.291,0,0,1-.118.349l-2.191,1.371a.29.29,0,0,1-.354-.035l-1.893-1.793a11.506,11.506,0,0,1-1.413.44l-.457,2.524a.29.29,0,0,1-.271.238l-2.6.131h-.015m-2.536-3.592a.3.3,0,0,1,.082.012,10.818,10.818,0,0,0,1.729.353.29.29,0,0,1,.244.208l.7,2.427,2.143-.108.45-2.485a.291.291,0,0,1,.222-.232,10.871,10.871,0,0,0,1.685-.525.29.29,0,0,1,.309.058l1.865,1.765,1.8-1.126-.893-2.359a.29.29,0,0,1,.077-.318,10.522,10.522,0,0,0,1.186-1.267.289.289,0,0,1,.3-.1l2.537.626.974-1.832-1.994-1.606a.291.291,0,0,1-.094-.314,9.913,9.913,0,0,0,.37-1.668.29.29,0,0,1,.212-.242l2.518-.683-.1-2.048-2.573-.427a.29.29,0,0,1-.235-.219,9.93,9.93,0,0,0-.536-1.622.29.29,0,0,1,.063-.322l1.823-1.8-1.152-1.725-2.461.877a.29.29,0,0,1-.306-.072,10.513,10.513,0,0,0-1.307-1.142.29.29,0,0,1-.108-.309l.652-2.437-1.9-.94-1.678,1.943a.292.292,0,0,1-.3.089,10.858,10.858,0,0,0-1.729-.353.29.29,0,0,1-.244-.208l-.7-2.427-2.143.108-.45,2.485a.291.291,0,0,1-.222.232,10.871,10.871,0,0,0-1.685.525.291.291,0,0,1-.308-.058l-1.865-1.765-1.8,1.126.893,2.359a.291.291,0,0,1-.077.318,10.55,10.55,0,0,0-1.186,1.267.289.289,0,0,1-.3.1l-2.537-.626-.974,1.832,1.994,1.606a.29.29,0,0,1,.094.314,9.89,9.89,0,0,0-.37,1.668.29.29,0,0,1-.212.242l-2.518.683.1,2.049,2.573.427a.29.29,0,0,1,.235.219,9.906,9.906,0,0,0,.536,1.622.29.29,0,0,1-.063.322l-1.823,1.8,1.152,1.725,2.461-.877a.291.291,0,0,1,.306.071,10.494,10.494,0,0,0,1.307,1.142.29.29,0,0,1,.108.309l-.652,2.436,1.9.94,1.678-1.943a.291.291,0,0,1,.22-.1m3.157-3a6.885,6.885,0,0,1-6.965-6.424,6.622,6.622,0,0,1,1.811-4.891,7.076,7.076,0,0,1,4.841-2.226,6.9,6.9,0,0,1,7.331,6.415,6.621,6.621,0,0,1-1.811,4.891,7.075,7.075,0,0,1-4.841,2.226q-.184.009-.367.009m.054-12.97q-.168,0-.338.008a6.5,6.5,0,0,0-4.446,2.043,6.046,6.046,0,0,0-1.655,4.465,6.318,6.318,0,0,0,6.722,5.864,6.5,6.5,0,0,0,4.446-2.043,6.045,6.045,0,0,0,1.655-4.465,6.3,6.3,0,0,0-6.385-5.873" transform="translate(-1110.314 -382.178)"/>
          <path id="Path_1000528" data-name="Path 1000528" d="M1533.254,266.17l-.216-4.3-4.8-.8a17.407,17.407,0,0,0-.944-2.858l3.411-3.365-2.415-3.616-4.577,1.631a18.409,18.409,0,0,0-2.3-2.008l1.221-4.563-3.966-1.959-3.123,3.616a19.005,19.005,0,0,0-3.038-.621l-1.3-4.533-4.455.224-.841,4.64a19.02,19.02,0,0,0-2.961.922l-3.469-3.285-3.75,2.346,1.672,4.418a18.418,18.418,0,0,0-2.086,2.228l-4.717-1.164-2.04,3.84,3.731,3.006a17.388,17.388,0,0,0-.653,2.938l-4.694,1.273.216,4.3,4.8.8a17.368,17.368,0,0,0,.944,2.858l-3.411,3.365,2.415,3.616,4.577-1.631a18.424,18.424,0,0,0,2.3,2.008l-1.221,4.563,3.966,1.959,3.123-3.616a18.992,18.992,0,0,0,3.038.621l1.3,4.533,4.455-.224.84-4.64a18.984,18.984,0,0,0,2.961-.922l3.47,3.285,3.75-2.346-1.672-4.418a18.4,18.4,0,0,0,2.086-2.228l4.717,1.164,2.04-3.84-3.731-3.006a17.379,17.379,0,0,0,.653-2.938Zm-22.6,10.086a11.1,11.1,0,1,1,10.912-11.658,11.294,11.294,0,0,1-10.912,11.658" transform="translate(-1294.447 -211.361)" fill="#fff"/>
          <path id="Path_1000529" data-name="Path 1000529" d="M1507.036,285.893a.29.29,0,0,1-.279-.21l-1.248-4.349a19.357,19.357,0,0,1-2.713-.554l-3,3.475a.291.291,0,0,1-.348.071l-3.966-1.959a.29.29,0,0,1-.152-.335l1.17-4.373a18.857,18.857,0,0,1-2.045-1.787l-4.4,1.568a.29.29,0,0,1-.339-.112l-2.414-3.616a.29.29,0,0,1,.038-.368l3.271-3.226a17.767,17.767,0,0,1-.836-2.535l-4.609-.765a.29.29,0,0,1-.243-.272l-.216-4.3a.29.29,0,0,1,.214-.295l4.509-1.223a17.756,17.756,0,0,1,.578-2.606l-3.577-2.882a.29.29,0,0,1-.074-.362l2.04-3.84a.289.289,0,0,1,.326-.146l4.537,1.12a18.761,18.761,0,0,1,1.855-1.983l-1.6-4.234a.291.291,0,0,1,.118-.349l3.75-2.346a.29.29,0,0,1,.354.035l3.335,3.157a19.362,19.362,0,0,1,2.644-.823l.806-4.452a.29.29,0,0,1,.271-.238l4.455-.224a.289.289,0,0,1,.293.21l1.248,4.349a19.382,19.382,0,0,1,2.714.554l3-3.475a.29.29,0,0,1,.348-.071l3.966,1.959a.29.29,0,0,1,.152.335l-1.17,4.373a18.792,18.792,0,0,1,2.044,1.787l4.4-1.568a.29.29,0,0,1,.339.112l2.415,3.616a.29.29,0,0,1-.038.368l-3.271,3.226a17.761,17.761,0,0,1,.836,2.535l4.609.765a.29.29,0,0,1,.243.272l.216,4.3a.29.29,0,0,1-.214.295l-4.51,1.223a17.783,17.783,0,0,1-.578,2.606l3.577,2.882a.29.29,0,0,1,.074.362l-2.04,3.84a.29.29,0,0,1-.326.146l-4.537-1.12a18.74,18.74,0,0,1-1.856,1.983l1.6,4.234a.291.291,0,0,1-.118.349l-3.75,2.346a.29.29,0,0,1-.354-.035l-3.335-3.157a19.369,19.369,0,0,1-2.644.823l-.806,4.452a.29.29,0,0,1-.271.238l-4.455.224h-.015m-4.339-5.734a.3.3,0,0,1,.082.012,18.74,18.74,0,0,0,2.991.611.29.29,0,0,1,.244.208l1.238,4.311,3.995-.2.8-4.414a.291.291,0,0,1,.222-.232,18.763,18.763,0,0,0,2.915-.908.29.29,0,0,1,.309.058l3.307,3.13,3.358-2.1-1.587-4.2a.291.291,0,0,1,.077-.318,18.192,18.192,0,0,0,2.053-2.193.289.289,0,0,1,.3-.1l4.5,1.11,1.822-3.428-3.544-2.855a.29.29,0,0,1-.094-.314,17.169,17.169,0,0,0,.641-2.889.291.291,0,0,1,.212-.242L1531,264l-.193-3.838-4.568-.758a.29.29,0,0,1-.235-.219,17.147,17.147,0,0,0-.928-2.811.291.291,0,0,1,.063-.322l3.24-3.2-2.156-3.229-4.364,1.555a.29.29,0,0,1-.306-.071,18.213,18.213,0,0,0-2.262-1.976.29.29,0,0,1-.108-.309l1.159-4.333-3.551-1.754-2.976,3.446a.291.291,0,0,1-.3.089,18.76,18.76,0,0,0-2.992-.611.29.29,0,0,1-.244-.208l-1.237-4.311-3.995.2-.8,4.413a.291.291,0,0,1-.222.232,18.76,18.76,0,0,0-2.915.908.291.291,0,0,1-.309-.058l-3.307-3.13-3.358,2.1,1.588,4.2a.291.291,0,0,1-.077.318,18.188,18.188,0,0,0-2.053,2.193.289.289,0,0,1-.3.1l-4.5-1.11-1.822,3.428,3.544,2.855a.29.29,0,0,1,.095.314,17.164,17.164,0,0,0-.642,2.89.291.291,0,0,1-.212.242l-4.469,1.211.193,3.838,4.568.758a.29.29,0,0,1,.235.219,17.18,17.18,0,0,0,.928,2.811.29.29,0,0,1-.063.322l-3.24,3.2,2.156,3.229,4.364-1.555a.291.291,0,0,1,.306.071A18.214,18.214,0,0,0,1497,277.31a.29.29,0,0,1,.108.309l-1.159,4.333,3.551,1.754,2.976-3.446a.291.291,0,0,1,.22-.1m5.4-5.55a11.383,11.383,0,1,1-.524-22.759,11.9,11.9,0,0,1,8.478,2.91,11.127,11.127,0,0,1,3.851,7.871,11.6,11.6,0,0,1-11.188,11.962l-.015-.29.015.29c-.207.01-.413.016-.617.016m.1-22.194c-.2,0-.4,0-.595.015a10.8,10.8,0,1,0,.5,21.6q.293,0,.588-.015a11.017,11.017,0,0,0,10.637-11.353,10.55,10.55,0,0,0-3.653-7.463,11.3,11.3,0,0,0-7.472-2.782" transform="translate(-1292.493 -209.408)"/>
        </g>
      </g>
    </g>
  </g>
</svg>
