<svg xmlns="http://www.w3.org/2000/svg" width="70" height="70" viewBox="0 0 70 70">
  <g id="img13" transform="translate(-269 -958.087)">
    <circle id="Ellipse_5614" data-name="Ellipse 5614" cx="35" cy="35" r="35" transform="translate(269 958.087)" fill="#fff"/>
    <g id="Group_1187168" data-name="Group 1187168" transform="translate(279.112 970.066)">
      <g id="Group_1187156" data-name="Group 1187156" transform="translate(21.795 22.659)">
        <path id="Path_1001345" data-name="Path 1001345" d="M33.09,53.225H28.314a.706.706,0,0,1-.7-.7V32.184a.706.706,0,0,1,.7-.7H33.09a.706.706,0,0,1,.7.7V52.52A.706.706,0,0,1,33.09,53.225Zm-4.071-1.409h3.367V32.889H29.019Z" transform="translate(-27.61 -31.48)" fill="#2142dc"/>
      </g>
      <g id="Group_1187157" data-name="Group 1187157" transform="translate(10.222 31.105)">
        <path id="Path_1001346" data-name="Path 1001346" d="M23.458,56.769a.689.689,0,0,1-.289-.063L11.6,51.472a.7.7,0,0,1-.416-.641V44.174a.7.7,0,0,1,1.409,0v6.2l11.158,5.043a.709.709,0,0,1-.289,1.352Z" transform="translate(-11.18 -43.47)" fill="#2142dc"/>
      </g>
      <g id="Group_1187158" data-name="Group 1187158" transform="translate(10.222 18.578)">
        <path id="Path_1001347" data-name="Path 1001347" d="M11.884,31.712a.706.706,0,0,1-.7-.7V26.393a.724.724,0,0,1,.3-.578.713.713,0,0,1,.641-.092L23.69,29.8a.706.706,0,0,1-.472,1.331L12.582,27.387v3.621A.7.7,0,0,1,11.884,31.712Z" transform="translate(-11.18 -25.687)" fill="#2142dc"/>
      </g>
      <g id="Group_1187159" data-name="Group 1187159" transform="translate(26.572 31.112)">
        <path id="Path_1001348" data-name="Path 1001348" d="M35.095,56.772a.7.7,0,0,1-.289-1.345l11.151-5.043v-6.2a.7.7,0,0,1,1.409,0v6.657a.7.7,0,0,1-.416.641L35.383,56.709a.689.689,0,0,1-.289.063Z" transform="translate(-34.391 -43.48)" fill="#2142dc"/>
      </g>
      <g id="Group_1187160" data-name="Group 1187160" transform="translate(26.564 18.575)">
        <path id="Path_1001349" data-name="Path 1001349" d="M46.658,31.71a.706.706,0,0,1-.7-.7V27.385L35.324,31.133a.706.706,0,1,1-.472-1.331l11.566-4.078a.7.7,0,0,1,.937.669v4.614A.692.692,0,0,1,46.658,31.71Z" transform="translate(-34.38 -25.682)" fill="#2142dc"/>
      </g>
      <g id="Group_1187161" data-name="Group 1187161" transform="translate(11.955 16.662)">
        <path id="Path_1001350" data-name="Path 1001350" d="M25.608,30.372a.706.706,0,0,1-.7-.7A2.333,2.333,0,0,0,23.452,27.6a73.9,73.9,0,0,0-8.4-2.98v1.578a.7.7,0,1,1-1.409,0V23.673a.711.711,0,0,1,.895-.683,80.834,80.834,0,0,1,9.5,3.318,3.711,3.711,0,0,1,2.275,3.346A.71.71,0,0,1,25.608,30.372Z" transform="translate(-13.64 -22.965)" fill="#2142dc"/>
      </g>
      <g id="Group_1187162" data-name="Group 1187162" transform="translate(25.12 16.669)">
        <path id="Path_1001351" data-name="Path 1001351" d="M33.034,30.375a.706.706,0,0,1-.7-.7,3.728,3.728,0,0,1,2.275-3.353A80.832,80.832,0,0,1,44.107,23a.711.711,0,0,1,.895.683V26.2a.7.7,0,1,1-1.409,0V24.627a73.894,73.894,0,0,0-8.4,2.98,2.325,2.325,0,0,0-1.451,2.071A.7.7,0,0,1,33.034,30.375Z" transform="translate(-32.33 -22.975)" fill="#2142dc"/>
      </g>
      <g id="Group_1187165" data-name="Group 1187165" transform="translate(13.619 1.64)">
        <g id="Group_1187163" data-name="Group 1187163" transform="translate(4.056)">
          <path id="Path_1001352" data-name="Path 1001352" d="M28.973,16.066a7.213,7.213,0,1,1,7.213-7.213A7.222,7.222,0,0,1,28.973,16.066Zm0-13.01a5.8,5.8,0,1,0,5.8,5.8A5.809,5.809,0,0,0,28.973,3.056Z" transform="translate(-21.76 -1.64)" fill="#2142dc"/>
        </g>
        <g id="Group_1187164" data-name="Group 1187164" transform="translate(0 13.024)">
          <path id="Path_1001353" data-name="Path 1001353" d="M16.705,24.039a.687.687,0,0,1-.5-.211.7.7,0,0,1,.007-.993,8.625,8.625,0,0,1,6.037-2.7H32.293a8.643,8.643,0,0,1,6.03,2.7.7.7,0,0,1-.979,1.007,7.27,7.27,0,0,0-5.043-2.3H22.249a7.252,7.252,0,0,0-5.051,2.3.73.73,0,0,1-.493.2Z" transform="translate(-16.002 -20.13)" fill="#2142dc"/>
        </g>
      </g>
      <g id="Group_1187166" data-name="Group 1187166" transform="translate(35.862 23.194)">
        <path id="Path_1001354" data-name="Path 1001354" d="M51.32,41.566H49.813a2.234,2.234,0,0,1-2.233-2.233v-4.86a2.234,2.234,0,0,1,2.233-2.233H51.32a2.234,2.234,0,0,1,2.233,2.233v4.86A2.238,2.238,0,0,1,51.32,41.566Zm-1.507-7.917a.821.821,0,0,0-.824.824v4.86a.825.825,0,0,0,.824.824H51.32a.821.821,0,0,0,.824-.824v-4.86a.825.825,0,0,0-.824-.824Z" transform="translate(-47.58 -32.24)" fill="#2142dc"/>
      </g>
      <g id="Group_1187167" data-name="Group 1187167" transform="translate(7.94 23.194)">
        <path id="Path_1001355" data-name="Path 1001355" d="M11.68,41.566H10.173A2.234,2.234,0,0,1,7.94,39.333v-4.86a2.234,2.234,0,0,1,2.233-2.233H11.68a2.234,2.234,0,0,1,2.233,2.233v4.86A2.238,2.238,0,0,1,11.68,41.566Zm-1.507-7.917a.821.821,0,0,0-.824.824v4.86a.821.821,0,0,0,.824.824H11.68a.821.821,0,0,0,.824-.824v-4.86a.821.821,0,0,0-.824-.824Z" transform="translate(-7.94 -32.24)" fill="#2142dc"/>
      </g>
    </g>
  </g>
</svg>
