<svg xmlns="http://www.w3.org/2000/svg" width="70" height="70" viewBox="0 0 70 70">
  <g id="img12" transform="translate(-269 -958.087)">
    <circle id="Ellipse_5614" data-name="Ellipse 5614" cx="35" cy="35" r="35" transform="translate(269 958.087)" fill="#fff"/>
    <g id="Group_1187153" data-name="Group 1187153" transform="translate(235.309 971.219)">
      <g id="Group_1187152" data-name="Group 1187152" transform="translate(51.196 0)">
        <path id="Path_1001334" data-name="Path 1001334" d="M68.86,238.075v-4.209a2.465,2.465,0,0,0-1.82-2.376v-2.947a2.46,2.46,0,0,0-3.93-1.973,2.459,2.459,0,0,0-3.992-.5,2.46,2.46,0,0,0-4.167.912,2.459,2.459,0,0,0-3.755,2.092v6.033a.641.641,0,1,0,1.281,0V234.3a2.457,2.457,0,0,0,3.184-.733,2.455,2.455,0,0,0,3.275,0,3.367,3.367,0,0,0,3.294,2.767,6.118,6.118,0,0,0-4.336,5.845v1.6a.641.641,0,0,0,1.281,0v-1.6A4.832,4.832,0,0,1,64,237.347h.5a.641.641,0,0,0,.641-.641v-1.019a.641.641,0,0,0-.641-.641H62.244a2.083,2.083,0,0,1-2.08-2.08.279.279,0,0,1,.279-.279H66.4a1.181,1.181,0,0,1,1.18,1.18v4.209a5.059,5.059,0,0,1-5.053,5.053.641.641,0,0,0,0,1.281A6.341,6.341,0,0,0,63.7,244.3v3.539a.641.641,0,0,1-.641.641H56.995a.641.641,0,0,1-.641-.641v-4.431a.641.641,0,0,0-.42-.6,5.262,5.262,0,0,1-3.452-4.733.641.641,0,1,0-1.28.053,6.537,6.537,0,0,0,3.871,5.712v4a1.924,1.924,0,0,0,1.922,1.922h6.066a1.924,1.924,0,0,0,1.922-1.922v-3.924A6.344,6.344,0,0,0,68.86,238.075Zm-14.023-6.349v.41a1.18,1.18,0,0,1-2.359,0v-3.061a1.18,1.18,0,0,1,2.359,0Zm3.641,0a1.18,1.18,0,0,1-2.359,0v-4a1.18,1.18,0,0,1,2.359,0Zm3.641-3.182v2.862H60.443a1.549,1.549,0,0,0-.684.16v-3.839a1.18,1.18,0,0,1,2.359,0v.817Zm3.641,2.862H63.4v-2.862a1.18,1.18,0,0,1,2.359,0v2.862Z" transform="translate(-51.196 -206.023)" fill="#2142dc"/>
        <path id="Path_1001335" data-name="Path 1001335" d="M269.863,14.681V4.465a2.46,2.46,0,0,0-3.646-2.156,2.461,2.461,0,0,0-4.917.152V4.613a.641.641,0,1,0,1.281,0V2.461a1.18,1.18,0,0,1,2.359,0V12.472a.641.641,0,1,0,1.281,0V4.465a1.18,1.18,0,0,1,2.359,0V14.6h-5.316a1.549,1.549,0,0,0-.684.16V7.6a.641.641,0,1,0-1.281,0V9.449a2.457,2.457,0,0,0-3,.5,2.46,2.46,0,0,0-4.281,1.654V21.04a6.588,6.588,0,0,0,3.877,5.987v4a1.924,1.924,0,0,0,1.922,1.922h2.059a.641.641,0,1,0,0-1.281h-2.059a.641.641,0,0,1-.641-.641V26.6a.641.641,0,0,0-.42-.6A5.3,5.3,0,0,1,255.3,21.04V17.614a2.457,2.457,0,0,0,3-.5,2.457,2.457,0,0,0,3.567.077,3.367,3.367,0,0,0,3.186,2.332,6.118,6.118,0,0,0-4.336,5.845v1.6a.641.641,0,1,0,1.281,0v-1.6a4.832,4.832,0,0,1,4.826-4.826h.5a.641.641,0,0,0,.641-.641V18.878a.641.641,0,0,0-.641-.641h-2.262a2.083,2.083,0,0,1-2.08-2.08.279.279,0,0,1,.279-.279h5.956a1.181,1.181,0,0,1,1.18,1.18v4.209a5.059,5.059,0,0,1-5.053,5.053.641.641,0,0,0,0,1.281,6.341,6.341,0,0,0,1.176-.111v3.539a.641.641,0,0,1-.641.641h-1.018a.641.641,0,0,0,0,1.281h1.018a1.924,1.924,0,0,0,1.922-1.922V27.1a6.344,6.344,0,0,0,3.877-5.838V17.057A2.465,2.465,0,0,0,269.863,14.681Zm-12.2.774a1.18,1.18,0,0,1-2.359,0V11.608a1.18,1.18,0,0,1,2.359,0Zm3.64,0a1.18,1.18,0,1,1-2.359,0V11.608a1.18,1.18,0,1,1,2.359,0Z" transform="translate(-236.693 0)" fill="#2142dc"/>
        <path id="Path_1001336" data-name="Path 1001336" d="M202.141,54.64a.641.641,0,0,0,.641-.641A7.226,7.226,0,0,1,210,46.781a.641.641,0,0,0,0-1.281,8.509,8.509,0,0,0-8.5,8.5A.641.641,0,0,0,202.141,54.64Z" transform="translate(-188.661 -41.613)" fill="#2142dc"/>
        <path id="Path_1001337" data-name="Path 1001337" d="M233.582,408.027a.641.641,0,0,0-.641.641,4.494,4.494,0,0,1-3.886,4.445.641.641,0,0,0,.084,1.276.661.661,0,0,0,.085-.006,5.78,5.78,0,0,0,5-5.716A.641.641,0,0,0,233.582,408.027Z" transform="translate(-213.354 -373.172)" fill="#2142dc"/>
      </g>
    </g>
  </g>
</svg>
