<svg xmlns="http://www.w3.org/2000/svg" width="70" height="70" viewBox="0 0 70 70">
  <g id="img11" transform="translate(-269 -958.087)">
    <circle id="Ellipse_5614" data-name="Ellipse 5614" cx="35" cy="35" r="35" transform="translate(269 958.087)" fill="#fff"/>
    <g id="Group_1187155" data-name="Group 1187155" transform="translate(285.221 974.308)">
      <path id="Path_1001338" data-name="Path 1001338" d="M285.345,72.69A6.345,6.345,0,1,0,279,66.345,6.352,6.352,0,0,0,285.345,72.69Zm5.245-6.345a5.242,5.242,0,0,1-9.264,3.365,1.971,1.971,0,0,1,1.434-.614h2.585a1.65,1.65,0,1,0,0-3.3h-1.92a.55.55,0,1,1,0-1.1h1.919a.551.551,0,0,0,.477-.276l.635-1.1a1.655,1.655,0,0,1,1.429-.825H288.9A5.231,5.231,0,0,1,290.59,66.345ZM285.345,61.1a5.215,5.215,0,0,1,1.922.366,2.758,2.758,0,0,0-1.763,1.3l-.477.825h-1.6a1.65,1.65,0,0,0,0,3.3h1.92a.55.55,0,1,1,0,1.1H282.76a3.066,3.066,0,0,0-2.057.787,5.242,5.242,0,0,1,4.642-7.682Z" transform="translate(-258.534 -55.599)" fill="#2142dc"/>
      <path id="Path_1001339" data-name="Path 1001339" d="M127.3,344.65a1.65,1.65,0,1,0-1.65,1.651A1.652,1.652,0,0,0,127.3,344.65Zm-2.2,0a.55.55,0,1,1,.55.55A.551.551,0,0,1,125.1,344.65Z" transform="translate(-114.904 -317.839)" fill="#2142dc"/>
      <path id="Path_1001340" data-name="Path 1001340" d="M67.3,344.65a1.65,1.65,0,1,0-1.65,1.651A1.652,1.652,0,0,0,67.3,344.65Zm-2.2,0a.55.55,0,1,1,.55.55A.551.551,0,0,1,65.1,344.65Z" transform="translate(-59.305 -317.839)" fill="#2142dc"/>
      <path id="Path_1001341" data-name="Path 1001341" d="M187.3,344.65a1.65,1.65,0,1,0-1.65,1.651A1.652,1.652,0,0,0,187.3,344.65Zm-2.2,0a.55.55,0,1,1,.55.55A.551.551,0,0,1,185.1,344.65Z" transform="translate(-170.503 -317.839)" fill="#2142dc"/>
      <path id="Path_1001342" data-name="Path 1001342" d="M257.546,47.092A8.546,8.546,0,1,0,249,38.546,8.556,8.556,0,0,0,257.546,47.092Zm0-15.991a7.445,7.445,0,1,1-7.445,7.445A7.454,7.454,0,0,1,257.546,31.1Z" transform="translate(-230.735 -27.799)" fill="#2142dc"/>
      <path id="Path_1001343" data-name="Path 1001343" d="M240.149,20.006a5.342,5.342,0,0,1-2.457-2.024,10.746,10.746,0,0,0-14.68-15.609.55.55,0,1,0,.69.857A9.538,9.538,0,0,1,229.746,1.1a9.646,9.646,0,0,1,6.867,16.42.55.55,0,0,0-.09.652,6.458,6.458,0,0,0,1.955,2.17,5.376,5.376,0,0,1-.736.05,5.279,5.279,0,0,1-3.085-.988.55.55,0,0,0-.568-.043,9.545,9.545,0,0,1-4.343,1.031,9.657,9.657,0,0,1-9.646-9.646A9.538,9.538,0,0,1,222.229,4.7a.55.55,0,0,0-.857-.69,10.746,10.746,0,0,0,8.374,17.481,10.63,10.63,0,0,0,4.546-1.007,6.423,6.423,0,0,0,5.857.539.55.55,0,0,0,0-1.02Z" transform="translate(-202.935)" fill="#2142dc"/>
      <path id="Path_1001344" data-name="Path 1001344" d="M10.746,219a10.773,10.773,0,0,0-6.735,2.372.55.55,0,0,0,.69.857,9.539,9.539,0,0,1,6.044-2.129,9.646,9.646,0,0,1,0,19.292A9.544,9.544,0,0,1,6.4,238.362a.55.55,0,0,0-.568.043,5.279,5.279,0,0,1-3.085.988,5.36,5.36,0,0,1-.736-.05,6.461,6.461,0,0,0,1.955-2.17.55.55,0,0,0-.09-.652,9.644,9.644,0,0,1-.65-12.818.55.55,0,0,0-.857-.69,10.745,10.745,0,0,0,.429,13.97,5.342,5.342,0,0,1-2.457,2.024.55.55,0,0,0,0,1.02,6.423,6.423,0,0,0,5.857-.539,10.63,10.63,0,0,0,4.546,1.007,10.746,10.746,0,1,0,0-21.493Z" transform="translate(0 -202.935)" fill="#2142dc"/>
    </g>
  </g>
</svg>
