<svg xmlns="http://www.w3.org/2000/svg" width="70" height="70" viewBox="0 0 70 70">
  <g id="img18" transform="translate(-764.711 -18335)">
    <circle id="Ellipse_13556" data-name="Ellipse 13556" cx="35" cy="35" r="35" transform="translate(764.711 18335)" fill="#e5eaff"/>
    <g id="Group_1187170" data-name="Group 1187170" transform="translate(779.62 18349.91)">
      <path id="Path_1001367" data-name="Path 1001367" d="M1,1V2.232H8.39V13.317H9.622V2.232h9.853V6.356L12.347,17.048a1.561,1.561,0,0,0,1.3,2.427h3.428a3.079,3.079,0,0,0,6.034,0h3.428a1.561,1.561,0,0,0,1.3-2.427L20.707,6.356V2.232H30.56V13.317h1.232V2.232h7.39V1ZM20.091,7.653l2.134,3.2H17.957Zm0,13.054a1.845,1.845,0,0,1-1.734-1.232h3.468a1.844,1.844,0,0,1-1.734,1.232Zm6.774-2.793a.33.33,0,0,1-.329.329H13.646a.329.329,0,0,1-.274-.512l3.764-5.646h5.91l3.764,5.646A.326.326,0,0,1,26.865,17.914Z" transform="translate(0)" fill="#2142dc"/>
      <path id="Path_1001368" data-name="Path 1001368" d="M31,37h1.232v2.463H31Z" transform="translate(-11.525 -13.83)" fill="#2142dc"/>
      <path id="Path_1001369" data-name="Path 1001369" d="M0,0H1.232V2.613H0Z" transform="translate(22.73 22.374) rotate(-45)" fill="#2142dc"/>
      <path id="Path_1001370" data-name="Path 1001370" d="M0,0H2.613V1.232H0Z" transform="translate(14.725 23.35) rotate(-45)" fill="#2142dc"/>
      <path id="Path_1001371" data-name="Path 1001371" d="M9.622,29.124V25H8.39v4.124L1.262,39.816a1.561,1.561,0,0,0,1.3,2.427H5.989a3.079,3.079,0,0,0,6.034,0h3.428a1.561,1.561,0,0,0,1.3-2.427Zm1.518,4.5H6.872l2.134-3.2ZM9.006,43.475a1.845,1.845,0,0,1-1.734-1.232h3.468A1.844,1.844,0,0,1,9.006,43.475Zm6.445-2.463H2.561a.329.329,0,0,1-.274-.512l3.764-5.646h5.91L15.725,40.5a.326.326,0,0,1,.055.183A.33.33,0,0,1,15.451,41.012Z" transform="translate(0 -9.22)" fill="#2142dc"/>
      <path id="Path_1001372" data-name="Path 1001372" d="M13,59h1.232v2.463H13Z" transform="translate(-4.61 -22.282)" fill="#2142dc"/>
      <path id="Path_1001373" data-name="Path 1001373" d="M0,0H1.232V2.613H0Z" transform="translate(11.645 35.92) rotate(-45)" fill="#2142dc"/>
      <path id="Path_1001374" data-name="Path 1001374" d="M0,0H2.613V1.232H0Z" transform="translate(3.64 36.895) rotate(-45)" fill="#2142dc"/>
      <path id="Path_1001375" data-name="Path 1001375" d="M45.622,29.124V25H44.39v4.124L37.262,39.816a1.561,1.561,0,0,0,1.3,2.427h3.428a3.079,3.079,0,0,0,6.034,0h3.428a1.561,1.561,0,0,0,1.3-2.427Zm1.518,4.5H42.872l2.134-3.2Zm-2.134,9.853a1.845,1.845,0,0,1-1.734-1.232h3.468A1.844,1.844,0,0,1,45.006,43.475Zm6.445-2.463H38.561a.329.329,0,0,1-.274-.512l3.764-5.646h5.91L51.725,40.5a.326.326,0,0,1,.055.183A.33.33,0,0,1,51.451,41.012Z" transform="translate(-13.83 -9.22)" fill="#2142dc"/>
      <path id="Path_1001376" data-name="Path 1001376" d="M49,59h1.232v2.463H49Z" transform="translate(-18.44 -22.282)" fill="#2142dc"/>
      <path id="Path_1001377" data-name="Path 1001377" d="M0,0H1.232V2.613H0Z" transform="translate(33.812 35.922) rotate(-45)" fill="#2142dc"/>
      <path id="Path_1001378" data-name="Path 1001378" d="M0,0H2.613V1.232H0Z" transform="translate(25.807 36.897) rotate(-45)" fill="#2142dc"/>
    </g>
  </g>
</svg>
