<svg xmlns="http://www.w3.org/2000/svg" xmlns:xlink="http://www.w3.org/1999/xlink" width="70" height="70" viewBox="0 0 70 70">
  <defs>
    <clipPath id="clip-path">
      <path id="Path_988379" data-name="Path 988379" d="M.6.5h43.69V44.19H.6Z" fill="none"/>
    </clipPath>
  </defs>
  <g id="img11" transform="translate(-269 -958.087)">
    <circle id="Ellipse_5614" data-name="Ellipse 5614" cx="35" cy="35" r="35" transform="translate(269 958.087)" fill="#fff"/>
    <g id="Group_1176356" data-name="Group 1176356" transform="translate(281.553 970.742)" clip-path="url(#clip-path)">
      <path id="Path_988376" data-name="Path 988376" d="M27.774,38.447a3.681,3.681,0,0,1-3.641-3.082l-1.52-7.038a.922.922,0,0,0-.907-.8h-5.74A6.379,6.379,0,0,1,9.6,21.153V10.231A2.734,2.734,0,0,1,12.326,7.5h2.134a4.528,4.528,0,0,1,3.219,1.333l3.863,3.861a.9.9,0,0,0,.643.268h2.885a2.731,2.731,0,0,1,0,5.461H21.117A4.528,4.528,0,0,1,17.9,17.09l-1.021-1.021v3.264a.911.911,0,0,0,.91.91h6.035a6.365,6.365,0,0,1,6.333,5.669l1.282,8.4a3.687,3.687,0,0,1-3.663,4.134ZM12.326,9.32a.911.911,0,0,0-.91.91V21.153A4.557,4.557,0,0,0,15.967,25.7h5.74A2.721,2.721,0,0,1,24.4,27.985l1.52,7.038a1.883,1.883,0,0,0,1.855,1.6,1.868,1.868,0,0,0,1.859-2.075l-1.282-8.4a4.558,4.558,0,0,0-4.529-4.087H17.787a2.734,2.734,0,0,1-2.731-2.731V13.872a.911.911,0,0,1,1.555-.644L19.187,15.8a2.741,2.741,0,0,0,1.93.8h3.952a.91.91,0,0,0,0-1.82H22.184a2.72,2.72,0,0,1-1.931-.8l-3.863-3.861a2.741,2.741,0,0,0-1.93-.8Z" transform="translate(7.378 5.743)" fill="#2142dc"/>
      <path id="Path_988377" data-name="Path 988377" d="M14.057,11.423a5.461,5.461,0,1,1,5.461-5.461A5.468,5.468,0,0,1,14.057,11.423Zm0-9.1A3.641,3.641,0,1,0,17.7,5.961,3.645,3.645,0,0,0,14.057,2.32Z" transform="translate(6.558)" fill="#2142dc"/>
      <path id="Path_988378" data-name="Path 988378" d="M14.428,35.091A11.827,11.827,0,0,1,12.456,11.6a.91.91,0,0,1,.3,1.795,10.006,10.006,0,1,0,11.1,13.2.91.91,0,1,1,1.715.608,11.843,11.843,0,0,1-11.145,7.888Z" transform="translate(1.635 9.099)" fill="#2142dc"/>
    </g>
  </g>
</svg>
