<svg xmlns="http://www.w3.org/2000/svg" xmlns:xlink="http://www.w3.org/1999/xlink" width="295" height="160" viewBox="0 0 295 160">
  <defs>
    <clipPath id="clip-path">
      <rect id="Rectangle_455206" data-name="Rectangle 455206" width="196.311" height="151.574" fill="none"/>
    </clipPath>
    <clipPath id="clip-path-2">
      <path id="Path_1000530" data-name="Path 1000530" d="M57.071,95.387,5.745,125.02a11.489,11.489,0,0,0,0,19.9L85.7,191.067a51.549,51.549,0,0,0,51.542,0l52.18-30.126a13.773,13.773,0,0,0,0-23.856l-72.251-41.7a60.109,60.109,0,0,0-60.1,0" transform="translate(0 -87.334)" fill="none"/>
    </clipPath>
    <linearGradient id="linear-gradient" x1="0.039" y1="0.896" x2="0.041" y2="0.896" gradientUnits="objectBoundingBox">
      <stop offset="0" stop-color="#d7dde6"/>
      <stop offset="1" stop-color="#cacfd6"/>
    </linearGradient>
    <clipPath id="clip-path-4">
      <rect id="Rectangle_455197" data-name="Rectangle 455197" width="179.526" height="141.382" fill="none"/>
    </clipPath>
    <clipPath id="clip-path-5">
      <rect id="Rectangle_455196" data-name="Rectangle 455196" width="179.526" height="119.719" fill="none"/>
    </clipPath>
    <clipPath id="clip-path-6">
      <rect id="Rectangle_455198" data-name="Rectangle 455198" width="45.731" height="60.073" fill="none"/>
    </clipPath>
    <clipPath id="clip-path-7">
      <path id="Path_1000735" data-name="Path 1000735" d="M7.538,80.727l83.88,48.428,35.175-20.309L42.713,60.417Z" transform="translate(-7.538 -60.417)" fill="none"/>
    </clipPath>
    <linearGradient id="linear-gradient-2" x1="-0.168" y1="1.175" x2="-0.163" y2="1.175" gradientUnits="objectBoundingBox">
      <stop offset="0" stop-color="#afb7c1"/>
      <stop offset="1" stop-color="#8793b0"/>
    </linearGradient>
    <clipPath id="clip-path-9">
      <rect id="Rectangle_455201" data-name="Rectangle 455201" width="10.74" height="6.332" fill="none"/>
    </clipPath>
    <clipPath id="clip-path-10">
      <rect id="Rectangle_455202" data-name="Rectangle 455202" width="19.359" height="18.316" fill="none"/>
    </clipPath>
    <clipPath id="clip-path-11">
      <rect id="Rectangle_455203" data-name="Rectangle 455203" width="19.852" height="24.111" fill="none"/>
    </clipPath>
    <clipPath id="clip-path-12">
      <rect id="Rectangle_455204" data-name="Rectangle 455204" width="113.691" height="114.668" fill="none"/>
    </clipPath>
  </defs>
  <g id="img17" transform="translate(-284.711 -3834)">
    <rect id="Rectangle_455061" data-name="Rectangle 455061" width="295" height="160" transform="translate(284.711 3834)" fill="#2142dc"/>
    <g id="Group_1186202" data-name="Group 1186202" transform="translate(334.056 3838.213)">
      <g id="Group_1186201" data-name="Group 1186201" clip-path="url(#clip-path)">
        <g id="Group_1186173" data-name="Group 1186173" transform="translate(0 40.939)">
          <g id="Group_1186172" data-name="Group 1186172" clip-path="url(#clip-path-2)">
            <rect id="Rectangle_455195" data-name="Rectangle 455195" width="210.851" height="136.96" transform="matrix(0.992, -0.126, 0.126, 0.992, -16, 1.785)" fill="url(#linear-gradient)"/>
          </g>
        </g>
        <g id="Group_1186184" data-name="Group 1186184">
          <g id="Group_1186183" data-name="Group 1186183" clip-path="url(#clip-path)">
            <path id="Path_1000531" data-name="Path 1000531" d="M283.579,172.94a1.785,1.785,0,0,1-.536,1.2c-.6.617-1.179.337-1.093-.374a1.9,1.9,0,0,1,.528-1.071c.6-.6,1.115-.312,1.1.249" transform="translate(-149.779 -91.564)" fill="#2b3233"/>
            <path id="Path_1000532" data-name="Path 1000532" d="M278.618,172.367c-2.7-1.571-3.058-1.745-3.132-1.819-.422-.4-.023-1.458.528-1.833a.777.777,0,0,1,.594-.169c.086.017-.066-.05,3.168,1.811v.007c-.205-.1-.506-.022-.821.293a1.9,1.9,0,0,0-.528,1.071.665.665,0,0,0,.191.63Z" transform="translate(-146.256 -89.531)" fill="#2b3233"/>
            <path id="Path_1000533" data-name="Path 1000533" d="M269.57,178.078a22.874,22.874,0,0,0,8.559-4.892,42.507,42.507,0,0,0,11.682-17.278c1.709-4.715,2.8-10.59,1.562-15.444a14.619,14.619,0,0,1,1.643,7.165c0,14.024-12.949,30.552-23.445,30.449" transform="translate(-143.206 -74.62)" fill="#1c2121"/>
            <path id="Path_1000534" data-name="Path 1000534" d="M274.357,143.092v11.939a.778.778,0,0,0-.594.168,1.756,1.756,0,0,0-.484.565c-.147-.088-2.127-1.239-2.208-1.276v-8.06a32.749,32.749,0,0,1,3.286-3.337" transform="translate(-144.004 -76.016)" fill="#b3478f"/>
            <path id="Path_1000535" data-name="Path 1000535" d="M275.17,50.759c7.246-4.17,6.841-3.975,7.084-4.041a1.507,1.507,0,0,1,.938.11,4.422,4.422,0,0,1,2.193,2.8c.009.036.074.3.074.338a2.382,2.382,0,0,1-.117,1.386,1,1,0,0,1-.419.477c-.007.007-.007.007-.015.007a.385.385,0,0,1-.1.051q-3.377,1.958-6.747,3.9a1.442,1.442,0,0,0,.6-1.327c0-2.151-2.227-4.424-3.49-3.7Z" transform="translate(-146.181 -24.802)" fill="#400040"/>
            <path id="Path_1000536" data-name="Path 1000536" d="M240.3,152.321c-.506,5.669.777,12.093,6.109,13.647l.007-.007c4.552,3.356,10.722,1.427,15.342-1.775,8.771-6.08,15.525-18.5,15.525-28.814,0-6.153-2.391-10.377-6.138-12.079-3.431-3.431-8.76-2.226-12.966.205-8.008,4.611-14.7,14.68-17.028,23.981h-.007a31.23,31.23,0,0,0-.843,4.84m-3.887,1.687c.179-12.085,8.88-27.388,19.632-33.625.081-.059.169-.1.249-.154,11.345-6.556,21.033-1.283,21.722,11.089.8,14.315-10.318,32.459-23.049,37.475-10.719,4.22-18.877-2.4-18.554-14.784" transform="translate(-125.585 -62.364)" fill="#525b5b"/>
            <path id="Path_1000537" data-name="Path 1000537" d="M256.642,169.312c1.635-.946,3.278-1.892,4.914-2.838.08.037,2.061,1.188,2.207,1.276a1.66,1.66,0,0,0-.212.653.774.774,0,0,0,.168.616l-10.56,6.094a36.529,36.529,0,0,1,3.484-9.461Z" transform="translate(-134.488 -88.001)" fill="#b3478f"/>
            <path id="Path_1000538" data-name="Path 1000538" d="M277.333,58.552c0-1.359-1.442-3.025-2.376-2.523-.007,0-.007.007-.015.015-.352.2-.7.4-1.056.609-.053-1.747,1.427-2.049,2.735-.741a4.546,4.546,0,0,1,1.364,3.021c0,1.229-.846,1.876-2.039,1.188v-.1c.308-.169.608-.345.909-.528a.932.932,0,0,0,.477-.938" transform="translate(-145.499 -29.273)" fill="#453443"/>
            <path id="Path_1000539" data-name="Path 1000539" d="M254.218,119.078v4.378a42.276,42.276,0,0,0-9.827,11.184l-.015-.007c-1.789,1.034-3.586,2.068-5.375,3.1,3.182-7.3,8.631-14.557,15.217-18.657" transform="translate(-126.967 -63.259)" fill="#b3478f"/>
            <path id="Path_1000540" data-name="Path 1000540" d="M270.152,84.576h-.022v.007h-.015v.008h-.008a.025.025,0,0,1-.015.007c-.081.051-.162.1-.242.147V60.719a3.555,3.555,0,0,1,1.892-3.124c.352-.205.7-.411,1.056-.608.007-.008.007-.015.015-.015.947-.51,2.376,1.182,2.376,2.523a.932.932,0,0,1-.477.938c-.3.183-.6.359-.909.528,0,27.843-.039,27.227.007,27.274a29.041,29.041,0,0,0-3.2,2.178V86.035c.117-.073.242-.146.36-.22l-.008-.015a.026.026,0,0,0,.008-.015c.007,0,.007-.007.015-.007v-.008l.008-.007a.027.027,0,0,1,.007-.015l.008-.007c0-.007.007-.007.007-.015V85.72c.008,0,.008,0,.008-.007a.026.026,0,0,0,.008-.015c0-.008,0-.008.008-.008v-.022c.007,0,.007-.007.007-.007a.026.026,0,0,1,.008-.015v-.022c.009,0,.007-.012.007-.022s.008-.006.008-.022v-.154c-.009-.009-.008-.016-.008-.03V85.39a.027.027,0,0,1-.007-.015V85.36c-.016-.016,0-.013-.015-.03v-.015c-.016-.016,0-.013-.015-.029a1.3,1.3,0,0,0-.836-.719c-.019,0-.022.007-.03.007" transform="translate(-143.356 -30.216)" fill="#b3478f"/>
            <path id="Path_1000541" data-name="Path 1000541" d="M188.814,30.464a4.683,4.683,0,0,1,2.163-3.505,4.794,4.794,0,0,1,2.86-.469,7.54,7.54,0,0,1,2.728,1.019l21.92,12.658A17.391,17.391,0,0,1,226.4,53.859V68.783a33.424,33.424,0,0,0-4.9,3.842c-33.11-19.124-27.122-15.666-32.84-18.965,0-23.434-.066-22.113.154-23.2" transform="translate(-100.219 -14.049)" fill="#2b3233"/>
            <path id="Path_1000542" data-name="Path 1000542" d="M256.867,155.847a45.31,45.31,0,0,0-3.279,6.314l-.007-.007v-3.74c.587-1.144,1.232-2.259,1.921-3.344l1.364-.792Z" transform="translate(-134.712 -81.959)" fill="#b3478f"/>
            <path id="Path_1000543" data-name="Path 1000543" d="M257.68,143.974a37.867,37.867,0,0,1,9.658-10.582V135.4a35.229,35.229,0,0,0-6.5,6.762l-.007-.007c-.006,0-1.069.613-3.146,1.819" transform="translate(-136.89 -70.863)" fill="#b3478f"/>
            <path id="Path_1000544" data-name="Path 1000544" d="M262.458,170.651c9.768-3.718,19.009-17.864,19.009-29.576,0-7.492-4-12.506-11.14-10.67a21.053,21.053,0,0,0-8.316,4.73v.007a38.48,38.48,0,0,0-11.682,20.035,20.526,20.526,0,0,0,.22,10.6c1.878,5.452,6.585,6.9,11.91,4.869M250.064,169.1c-3.113-4.8-2.543-11.6-.887-17.058A40.213,40.213,0,0,1,262.105,132.6c11.4-8.821,21.246-3.886,21.246,8.47,0,10.318-6.754,22.734-15.525,28.814-2.963,2.053-6.557,3.652-10.179,3.52a9.248,9.248,0,0,1-7.583-4.3" transform="translate(-131.657 -68.066)" fill="#e5e5e5"/>
            <path id="Path_1000545" data-name="Path 1000545" d="M247.063,183.539c-.205.11-.4.227-.6.338a3.115,3.115,0,0,0-.7-2.046q.155-.77.352-1.54h.007c.66-.382,1.306-.756,1.958-1.137a32.806,32.806,0,0,0-1.012,4.385" transform="translate(-130.557 -95.174)" fill="#b3478f"/>
            <path id="Path_1000546" data-name="Path 1000546" d="M245.913,186.756a1.109,1.109,0,0,1-.44.975c-.256.147-.506.293-.763.433a29.589,29.589,0,0,1,.491-3.3,3.243,3.243,0,0,1,.712,1.892" transform="translate(-130 -98.207)" fill="#2b3233"/>
            <path id="Path_1000547" data-name="Path 1000547" d="M240.08,231.811v-.557l.521-.3v1.159Z" transform="translate(-127.54 -122.691)" fill="#5a6868"/>
            <path id="Path_1000548" data-name="Path 1000548" d="M240.08,228.228v-.557l.521-.3v1.158Z" transform="translate(-127.54 -120.788)" fill="#5a6868"/>
            <path id="Path_1000549" data-name="Path 1000549" d="M236.944,233.084l-3.747,2.163v-.6l3.226-1.862Z" transform="translate(-123.883 -123.664)" fill="#124f51"/>
            <path id="Path_1000550" data-name="Path 1000550" d="M236.944,229.5l-3.747,2.163v-.6l3.226-1.862Z" transform="translate(-123.883 -121.761)" fill="#124f51"/>
            <path id="Path_1000551" data-name="Path 1000551" d="M236.423,228.569l-3.227,1.863v-.557l3.227-1.863Z" transform="translate(-123.883 -121.129)" fill="#1c2121"/>
            <path id="Path_1000552" data-name="Path 1000552" d="M236.423,232.152l-3.227,1.862v-.557l3.227-1.863Z" transform="translate(-123.883 -123.032)" fill="#2b3233"/>
            <path id="Path_1000553" data-name="Path 1000553" d="M229.583,179.427q-2.816-2.585-5.618-5.177v-.007q.88-.506,1.8-1.034,2.386,2.2,4.774,4.408c-.1.477-.2.946-.271,1.415-.234.132-.462.264-.689.4" transform="translate(-118.979 -92.015)" fill="#2b3233"/>
            <path id="Path_1000554" data-name="Path 1000554" d="M235.165,136.453A48.547,48.547,0,0,1,239.645,128a46.287,46.287,0,0,1,6.549-7.825,32.261,32.261,0,0,1,5.456-4.195.027.027,0,0,0,.015-.007h.008v-.007h.015v-.008h.022c.008,0,.011-.007.029-.007h.008a1.293,1.293,0,0,1,.829.719c.016.016,0,.013.015.029v.015c.016.016,0,.013.015.03v.015a.026.026,0,0,0,.007.015v.007c0,.013,0,.02.008.03v.154c0,.007,0,.007-.008.015s0,.029-.007.029v.022a.027.027,0,0,0-.007.015.007.007,0,0,1-.008.007v.022c-.007,0-.007,0-.007.007a.026.026,0,0,1-.008.015c0,.007,0,.007-.008.007v.007c0,.008-.007.008-.007.015l-.007.007a.026.026,0,0,0-.007.015l-.007.007v.007c-.007,0-.007.007-.015.007a.027.027,0,0,1-.007.015l.007.015c-.117.074-.242.147-.36.22-6.716,4.181-12.439,11.89-15.386,19.046v.007c-.029.059-.052.118-.073.169a.8.8,0,0,1-.257.249.527.527,0,0,1-.088.044c-.007,0-.007.007-.015.007a.022.022,0,0,0-.015.008h-.022v.007h-.015c-.008,0-.008.007-.015.007h-.007a.024.024,0,0,0-.015.007h-.029a.023.023,0,0,1-.015.008H236.2a1.305,1.305,0,0,1-1.019-.338c-.01,0-.011-.022-.022-.022,0-.016-.007-.006-.007-.022a.007.007,0,0,0-.008-.007v-.037h-.007v-.015h.007v-.029a.007.007,0,0,1,.008-.007v-.015h.007v-.015h.007Z" transform="translate(-124.913 -61.597)" fill="#d7768d"/>
            <path id="Path_1000555" data-name="Path 1000555" d="M189.269,192.991c-.107.366-1.118.279-1.5.205a5.507,5.507,0,0,1-1.885-.726c-.235-.161-.477-.381-.418-.579l7.268-25.015a6.553,6.553,0,0,1,3.014-3.85c3.3-1.9,9.431-5.427,13.142-7.576a3.289,3.289,0,0,0-.125.315l-.007.008v.007c-.01.01-.007.028-.007.044h-.008v.015h.008v.037a.007.007,0,0,1,.007.007c0,.016.007.006.007.022.011,0,.012.022.022.022a1.311,1.311,0,0,0,1.02.338h.015a.023.023,0,0,0,.015-.008h.029a.024.024,0,0,1,.015-.007h.008c.007,0,.007-.008.015-.008h.015v-.007h.022a.023.023,0,0,1,.015-.008c.008,0,.008-.007.015-.007a.531.531,0,0,0,.088-.044.8.8,0,0,0,.256-.249c.045-.08.033-.095.242-.564q2.684-1.552,5.375-3.1l.015.007a48.186,48.186,0,0,0-2.867,5.346l-.007-.007c-5.724,3.3-11.138,6.412-13.252,7.634a8.64,8.64,0,0,0-3.967,5.053c-1.58,5.473-2.378,8.147-6.586,22.7" transform="translate(-98.524 -80.887)" fill="#9e3281"/>
            <path id="Path_1000556" data-name="Path 1000556" d="M235.451,186.863c-.535-.44-1.034-.521-1.371-.323l-.007-.007c.116-.068,1.418-.817,1.569-.9-.081.41-.147.821-.191,1.232" transform="translate(-124.348 -98.615)" fill="#2b3233"/>
            <path id="Path_1000557" data-name="Path 1000557" d="M233.837,187.87c-.015,0-.691.4-.7.4.094-1.014.97-1.189,1.819-.491-.022.124-.037.242-.052.366a1.008,1.008,0,0,0-1.063-.278" transform="translate(-123.85 -99.534)" fill="#124f51"/>
            <path id="Path_1000558" data-name="Path 1000558" d="M231.791,230.594l3.747-2.163v-1.159l-3.747,2.163Zm0-1.679,3.747-2.164v-1.158l-3.747,2.163Zm-.645-.953a1.3,1.3,0,0,0-.594-1.027l5.045-2.911a1.3,1.3,0,0,1,.594,1.027v5.544l-5.045,2.911Z" transform="translate(-122.478 -119.01)" fill="#465151"/>
            <path id="Path_1000559" data-name="Path 1000559" d="M229.691,214.131v-2.875c0,.411.829.645,1.357.4a.512.512,0,0,0,.338-.389v2.867c0,.653-1.694.649-1.694,0" transform="translate(-122.021 -112.228)" fill="#2b3233"/>
            <path id="Path_1000560" data-name="Path 1000560" d="M226.484,237.426a9.754,9.754,0,0,1,1.855-3.755v3.879l.521.3,5.045-2.911V232.2a3.615,3.615,0,0,1,.543,2.046c0,3.359-2.86,7.047-5.244,7.568a2.191,2.191,0,0,1-2.728-1.445,4.876,4.876,0,0,1,.008-2.948" transform="translate(-120.193 -123.356)" fill="#2b3233"/>
            <path id="Path_1000561" data-name="Path 1000561" d="M227.266,216.217v-.088c.047-.473.652-.821,1.137-.946v1.034c0,.235.256.382.491.447.468.127,1.2-.026,1.2-.447v-1.034c.774.212,1.429.77,1.019,1.452-.477.777-2.515,1-3.4.315a1.1,1.1,0,0,1-.447-.734" transform="translate(-120.733 -114.314)" fill="#124f51"/>
            <path id="Path_1000562" data-name="Path 1000562" d="M227.731,206.5a3.536,3.536,0,0,0-1.554-2.684c-.352-.205-.139-1.042.345-1.379a.51.51,0,0,1,.506-.1,5.186,5.186,0,0,1,2.4,4.158c0,.156-.133.3-.338.4-.528.25-1.357.015-1.357-.4" transform="translate(-120.061 -107.473)" fill="#2b3233"/>
            <path id="Path_1000563" data-name="Path 1000563" d="M227.706,218.122c.966.75,3.527.444,3.527-.734v3.366c0,.426-.433.756-.858.939-1.108.491-2.7.051-3.022-.579a.856.856,0,0,1-.088-.381h-.015v-3.345h.007a1.094,1.094,0,0,0,.447.734" transform="translate(-120.725 -115.485)" fill="#465151"/>
            <path id="Path_1000564" data-name="Path 1000564" d="M226.542,232.241A9.761,9.761,0,0,0,224.686,236a4.872,4.872,0,0,0-.007,2.948,2.191,2.191,0,0,0,2.728,1.445c2.384-.521,5.244-4.209,5.244-7.568a3.614,3.614,0,0,0-.543-2.046v-1.261a4.491,4.491,0,0,1,.873,2.853c0,4.715-5,10.362-8.6,8.367a3.353,3.353,0,0,1-1.43-2.354,6.379,6.379,0,0,1,.234-2.933,11.672,11.672,0,0,1,2.985-5.119,1.305,1.305,0,0,1,.374.851Z" transform="translate(-118.395 -121.927)" fill="#1c2121"/>
            <path id="Path_1000565" data-name="Path 1000565" d="M224.556,202.884c-.091-.053-1.357-.788-1.43-.829-.352-.205-.139-1.041.345-1.371a.492.492,0,0,1,.506-.1c1.771,1.017,1.354.78,1.43.821a.51.51,0,0,0-.506.1c-.484.337-.7,1.173-.345,1.379" transform="translate(-118.441 -106.54)" fill="#2b3233"/>
            <path id="Path_1000566" data-name="Path 1000566" d="M224.568,191.084c.975-.56,4.706-2.714,4.716-2.714a1.008,1.008,0,0,1,1.063.279,26.847,26.847,0,0,0-.227,3.029c-1.305.748-2.6,1.5-3.909,2.251a3.268,3.268,0,0,0-1.65-2.838Z" transform="translate(-119.295 -100.035)" fill="#b3478f"/>
            <path id="Path_1000567" data-name="Path 1000567" d="M225.349,182.423q-3-2.761-6-5.529c.572-.33,1.174-.675,1.8-1.042l.007.007,5.618,5.177c-.177.1-.353.2-.528.3l.007.008a.968.968,0,0,0-.447.814l-.462.264" transform="translate(-116.528 -93.42)" fill="#2b3233"/>
            <path id="Path_1000568" data-name="Path 1000568" d="M220.657,239.465a3.374,3.374,0,0,1-1.4-2.508,7.264,7.264,0,0,1,.631-3.8,11.917,11.917,0,0,1,2.648-4.1c1.626.943,1.563.889,1.687,1.027a11.668,11.668,0,0,0-2.985,5.119,6.379,6.379,0,0,0-.235,2.933,3.355,3.355,0,0,0,1.43,2.354c-.053-.018-1.637-.945-1.775-1.027" transform="translate(-116.449 -121.685)" fill="#2b3233"/>
            <path id="Path_1000569" data-name="Path 1000569" d="M222.178,227.645l.572-.337.455.264-1.027.586v.873l.007.007a8.749,8.749,0,0,0-.66.975v-2.728c0-.248.158-.61.653-.3Z" transform="translate(-117.683 -120.52)" fill="#465151"/>
            <path id="Path_1000570" data-name="Path 1000570" d="M220.852,222.765c1.005-.586,2-1.159,3-1.738v1.518h.015a.855.855,0,0,0,.088.381c.323.63,1.914,1.071,3.022.579.425-.183.858-.513.858-.938V220.8l2.611,1.511-5.046,2.911-4.158-2.405a.45.45,0,0,0-.389-.052" transform="translate(-117.325 -117.297)" fill="#124f51"/>
            <path id="Path_1000571" data-name="Path 1000571" d="M220.414,225.36a.4.4,0,0,1,.176-.382.057.057,0,0,1,.029-.015.451.451,0,0,1,.389.052l4.158,2.405a1.3,1.3,0,0,1,.594,1.027v5.544l-.521-.3v-4.943a1.3,1.3,0,0,0-.374-.85c-.13-.144-.1-.106-1.687-1.027-1.971-1.138-1.415-.8-1.65-.946-.33-.2-.594-.029-.594.338v2.728c-.191.33-.367.66-.521,1Z" transform="translate(-117.093 -119.497)" fill="#5a6868"/>
            <path id="Path_1000572" data-name="Path 1000572" d="M217.516,198.875c0-1.547-1.591-3.183-2.515-2.735v-.008c1.188-.689,2.376-1.372,3.564-2.061a1.065,1.065,0,0,1,.917.037c1.215.487,2.214,2.875,1.305,3.586l-1.034-.594a.493.493,0,0,0-.506.1c-.484.33-.7,1.166-.345,1.371.066.037.132.081.2.118-.646.374-1.291.741-1.936,1.115a1.141,1.141,0,0,0,.352-.924" transform="translate(-114.217 -103.051)" fill="#465151"/>
            <path id="Path_1000573" data-name="Path 1000573" d="M218.915,236.708a3.371,3.371,0,0,0,1.4,2.508c-1.717-.983-2-3.212-1.6-5.148a10.736,10.736,0,0,1,3.095-5.478l.381.22a11.922,11.922,0,0,0-2.647,4.1,7.259,7.259,0,0,0-.631,3.8" transform="translate(-116.107 -121.436)" fill="#1c2121"/>
            <path id="Path_1000574" data-name="Path 1000574" d="M213.953,199.335a.948.948,0,0,1,.491-.836c.924-.447,2.515,1.188,2.515,2.735,0,.965-.65,1.281-1.364.946.018-.01.69-.4.7-.411a.839.839,0,0,0,.315-.733c0-1.254-1.254-2.421-1.929-2.127-.125.05.1-.036-.733.426" transform="translate(-113.66 -105.411)" fill="#124f51"/>
            <path id="Path_1000575" data-name="Path 1000575" d="M206.943,194.852a3.61,3.61,0,0,1-1.636,2.845H205.3c-.836.477-1.643.191-1.643-.946v-2.786c0-.074-.1.364,1.862-6.417a8.527,8.527,0,0,1,1.423-2.809Z" transform="translate(-108.191 -98.141)" fill="#b3478f"/>
            <path id="Path_1000576" data-name="Path 1000576" d="M211.087,199.408c.675-.293,1.929.873,1.929,2.127a.838.838,0,0,1-.315.733c-.074.074.771-.452-5.522,3.2a3.611,3.611,0,0,0,1.636-2.845v-1.892c2.874-1.643,2.113-1.256,2.273-1.32" transform="translate(-110.061 -105.909)" fill="#b3478f"/>
            <path id="Path_1000577" data-name="Path 1000577" d="M197.432,90.993V89.556l28.733,16.6c-.308.286-.609.572-.9.88-.074,0-27.618-16-27.831-16.039" transform="translate(-104.884 -47.576)" fill="#1c2121"/>
            <path id="Path_1000578" data-name="Path 1000578" d="M132.475,114.112a1.384,1.384,0,0,1-.814-1.144v-2.655a2.792,2.792,0,0,1,1.394-2.42c.042-.024,26.939-15.569,26.988-15.569a2.767,2.767,0,0,1,2.449-.037V92.3c.11.022,1.488.829,27.824,16.039a47.783,47.783,0,0,0-10,15.107c-3.711,2.149-9.842,5.676-13.142,7.576a6.5,6.5,0,0,0-1.892,1.65,3.6,3.6,0,0,1-1.408-.44c-43.283-24.99-27.951-16.138-31.4-18.121" transform="translate(-69.944 -48.885)" fill="#2b3233"/>
            <path id="Path_1000579" data-name="Path 1000579" d="M197.054,22.713a3.821,3.821,0,0,1,1.379-.455,6.349,6.349,0,0,1,4.217,1.012l21.92,12.658a15.556,15.556,0,0,1,5.053,5.024,3.493,3.493,0,0,0-.271,1.349V66.326c-.1.066-.212.132-.315.2V51.608a17.39,17.39,0,0,0-7.913-13.692L199.2,25.258a7.538,7.538,0,0,0-2.728-1.02,4.8,4.8,0,0,0-2.86.469V24.7c.759-.441,2.939-1.694,3.439-1.988" transform="translate(-102.856 -11.798)" fill="#1c2121"/>
            <path id="Path_1000580" data-name="Path 1000580" d="M158.07,91.8c3-6.952,8.125-13.912,14.345-18.136v5.082l4.107,2.369v1.423a2.767,2.767,0,0,0-2.449.037c-.086,0-15.9,9.169-16,9.226" transform="translate(-83.973 -39.132)" fill="#b3478f"/>
            <path id="Path_1000581" data-name="Path 1000581" d="M194.3,4.08q3.421-1.98,6.842-3.953a1.73,1.73,0,0,1,1.731.323,4.633,4.633,0,0,1,1.76,3.044,1.729,1.729,0,0,1-.587,1.657q-3.388,1.958-6.769,3.909a1.343,1.343,0,0,0,.506-.961c.257-1.9-1.869-4.808-3.476-4Z" transform="translate(-103.222 0)" fill="#400040"/>
            <path id="Path_1000582" data-name="Path 1000582" d="M195.088,13.346c.184-.1.987-.571,1-.579.875-.571.176-2.568-.961-3.278a.984.984,0,0,0-1.115-.074c-.322.176-.638.36-.953.543l-.037-.066a1.394,1.394,0,0,1,.609-1.313c1.62-.81,3.731,2.124,3.476,4-.12.99-.916,1.492-2.017.872Z" transform="translate(-102.54 -4.484)" fill="#453443"/>
            <path id="Path_1000583" data-name="Path 1000583" d="M189,21.841v-7.8a3.529,3.529,0,0,1,1.76-3.051c.12-.068.616-.366,1.115-.638a.983.983,0,0,1,1.115.074c1.163.726,1.815,2.721.96,3.278-.01.008-.814.477-1,.579v3.007c-.594.345-1.2.69-1.79,1.034,0,.086-1.622.518-2.163,3.513" transform="translate(-100.404 -5.425)" fill="#b3478f"/>
            <path id="Path_1000584" data-name="Path 1000584" d="M175.214,239.822c-.3-.183-.206-.712-.045-1.049a1.111,1.111,0,0,1,.859-.726.349.349,0,0,1,.234.073c.44.25,2.178,1.247,2.611,1.5.572.338,1.056-.176,1.239-.8.073-.264.147-.521.227-.777a5.5,5.5,0,0,0,1.885.726c-.059.2-.118.389-.176.587a3.088,3.088,0,0,1-2.515,2.369,2.778,2.778,0,0,1-1.68-.367c-.85-.491-1.694-.983-2.537-1.467-.008-.008-.022-.015-.029-.022s-.007-.007-.007-.007a.183.183,0,0,1-.066-.037" transform="translate(-92.976 -126.456)" fill="#2b3233"/>
            <path id="Path_1000585" data-name="Path 1000585" d="M152.157,152.682c1.683,3.049,4.728,4.537,8.749,3.777.77.455,1.547.9,2.318,1.342a11.514,11.514,0,0,1-8.353-.081,10.348,10.348,0,0,1-2.713-5.038" transform="translate(-80.832 -81.111)" fill="#e5e5e5"/>
            <path id="Path_1000586" data-name="Path 1000586" d="M154.436,89.8c3.234-7.788,9-15.547,15.973-19.94v1.782c-6.219,4.224-11.345,11.184-14.345,18.136-1.343.765-1.266.755-1.313.755-.3-.11-.506-.271-.448-.411a3.153,3.153,0,0,1,.132-.323" transform="translate(-81.967 -37.112)" fill="#d7768d"/>
            <path id="Path_1000587" data-name="Path 1000587" d="M148.324,90.379c3.368-8.962,10.3-18.371,18.914-22.617v.983c-6.974,4.393-12.739,12.152-15.973,19.94-.983.557-1.958,1.129-2.941,1.694" transform="translate(-78.796 -35.998)" fill="#525b5b"/>
            <path id="Path_1000588" data-name="Path 1000588" d="M161.01,157.887c1.335.77,2.662,1.54,4,2.31-8.837,4.752-17.469,2.486-20.219-6.747.235-.14.469-.279.7-.411a1.023,1.023,0,0,0,.425-.814c.074,0-.074.038,2.149-1.232,1.241,6.558,6.078,9.573,12.944,6.894" transform="translate(-76.917 -80.214)" fill="#525b5b"/>
            <path id="Path_1000589" data-name="Path 1000589" d="M144.965,220.594c1.478-.166.9-.1,2.53-.286a7.434,7.434,0,0,1,3.813.931l9.563,5.522c.638.367.953.756.843,1.027-.007.007-.007.007-.007.015-.081.154-.308.264-.7.308l-2.53.286a7.293,7.293,0,0,1-3.813-.931l-9.563-5.522c-1-.578-1.245-1.23-.139-1.35" transform="translate(-76.625 -117.026)" fill="#7a207a"/>
            <path id="Path_1000590" data-name="Path 1000590" d="M143.529,221.816c-.022.264.293.608.865.939l9.563,5.522a7.3,7.3,0,0,0,3.813.931l2.53-.286c.389-.044.616-.154.7-.308-.118.406-.279.92-.477,1.635-1.568-.888-1.413-.821-1.555-.821a1.11,1.11,0,0,0-.858.726c-.161.338-.256.865.044,1.049a.2.2,0,0,0,.066.037s.008,0,.008.007.022.015.03.022l-1.115.125a7.3,7.3,0,0,1-3.814-.931l-9.563-5.522c-.33-.191-.953-.616-.851-.983.034-.118.585-2.022.616-2.141" transform="translate(-75.915 -117.838)" fill="#ad5fce"/>
            <path id="Path_1000591" data-name="Path 1000591" d="M143.715,146.91c.33-.2.66-.389,1-.579q1.639.957,3.278,1.9c-2.747,1.553-2.574,1.518-2.648,1.518a3.114,3.114,0,0,0-1.636-2.823Z" transform="translate(-76.343 -77.737)" fill="#b3478f"/>
            <path id="Path_1000592" data-name="Path 1000592" d="M144.348,145.467c-.338.191-.668.381-1,.579l-.008.015c-.259-.141-.27-.047-.249-.11-.052-.572-.074-1.166-.074-1.246.44.257.887.513,1.328.763" transform="translate(-75.978 -76.873)" fill="#1c2121"/>
            <path id="Path_1000593" data-name="Path 1000593" d="M138.792,172.176v1.159l-.528-.3v-.557Z" transform="translate(-73.451 -91.467)" fill="#5a6868"/>
            <path id="Path_1000594" data-name="Path 1000594" d="M138.792,168.593v1.159l-.528-.3v-.557Z" transform="translate(-73.451 -89.563)" fill="#5a6868"/>
            <path id="Path_1000595" data-name="Path 1000595" d="M135.143,174.306,131.4,176.47v-.6l3.219-1.863Z" transform="translate(-69.803 -92.439)" fill="#124f51"/>
            <path id="Path_1000596" data-name="Path 1000596" d="M135.143,170.725l-3.747,2.163v-.6l3.219-1.862Z" transform="translate(-69.803 -90.536)" fill="#124f51"/>
            <path id="Path_1000597" data-name="Path 1000597" d="M134.615,169.8l-3.219,1.863v-.557l3.219-1.855Z" transform="translate(-69.803 -89.913)" fill="#1c2121"/>
            <path id="Path_1000598" data-name="Path 1000598" d="M134.615,173.383l-3.219,1.863v-.557l3.219-1.855Z" transform="translate(-69.803 -91.816)" fill="#2b3233"/>
            <path id="Path_1000599" data-name="Path 1000599" d="M124.053,150.518c-.683.207-1.246-.179-1.246-1.107v-2.794q1.21-4.136,2.405-8.272a3.632,3.632,0,0,1,.88-1.525v8.8c.012-.007,2.223-1.29,2.237-1.29a.871.871,0,0,1,.8.081c.9.513,1.5,2.039.975,2.648l.022.022c-.152.086-2.163,1.254-5.632,3.249a1.581,1.581,0,0,1-.44.19" transform="translate(-65.24 -72.684)" fill="#b3478f"/>
            <path id="Path_1000600" data-name="Path 1000600" d="M135.623,148.562c.675-.4,1.349-.785,2.024-1.173a.821.821,0,0,1,.66-.037.678.678,0,0,1,.256.088,3.106,3.106,0,0,1,1.636,2.824,1.021,1.021,0,0,1-.425.814l-3.571,2.061a1.133,1.133,0,0,0,.381-.7,3.206,3.206,0,0,0-1.716-2.963,1.006,1.006,0,0,0-.836.007l-.007-.007c.528-.308,1.064-.609,1.591-.917Z" transform="translate(-71.199 -78.252)" fill="#465151"/>
            <path id="Path_1000601" data-name="Path 1000601" d="M133.145,148.526a.509.509,0,0,1,.506-.1c.411.234.814.476,1.224.711-.528.308-1.063.609-1.591.917l.007.007c-.177.089.02.095-.491-.161a.016.016,0,0,1-.015-.015c-.323-.22-.11-1.041.359-1.364" transform="translate(-70.459 -78.833)" fill="#2b3233"/>
            <path id="Path_1000602" data-name="Path 1000602" d="M133.1,152.66a.867.867,0,0,1,1.276-.814,3.207,3.207,0,0,1,1.716,2.963,1.133,1.133,0,0,1-.381.7.163.163,0,0,1-.045.03.977.977,0,0,1-.924-.03c.286-.161.565-.33.851-.491l-.022-.022c.521-.608-.074-2.134-.975-2.648a.871.871,0,0,0-.8-.081c-.013,0-.46.267-.7.4" transform="translate(-70.709 -80.619)" fill="#124f51"/>
            <path id="Path_1000603" data-name="Path 1000603" d="M129.982,171.816l3.748-2.164v-1.158l-.528.3v.007l-3.219,1.855Zm0-1.68,3.748-2.163v-1.159l-.528.3v.008l-3.219,1.855Zm-.653-.953a1.291,1.291,0,0,0-.594-1.027l5.045-2.911a1.3,1.3,0,0,1,.594,1.027v5.588l-5.046,2.912Z" transform="translate(-68.39 -87.785)" fill="#465151"/>
            <path id="Path_1000604" data-name="Path 1000604" d="M130.842,149.352c-.2.007-.242.367-.242.565v1c-.264.154-.521.3-.785.455v-3.418a2.2,2.2,0,0,1,2.34.081.508.508,0,0,0-.506.1c-.469.322-.682,1.144-.36,1.364a1.035,1.035,0,0,0-.447-.147" transform="translate(-68.963 -78.441)" fill="#2b3233"/>
            <path id="Path_1000605" data-name="Path 1000605" d="M124.681,178.649a9.639,9.639,0,0,1,1.848-3.755v3.924l.521.3,5.046-2.911v-2.779a3.55,3.55,0,0,1,.55,2.046c0,3.359-2.867,7.047-5.251,7.561a2.188,2.188,0,0,1-2.728-1.438,4.876,4.876,0,0,1,.015-2.948" transform="translate(-66.109 -92.131)" fill="#2b3233"/>
            <path id="Path_1000606" data-name="Path 1000606" d="M128.848,164.214a2.962,2.962,0,0,1-2.809-.008.95.95,0,0,1-.572-.675v-.008c.284-.067.24-.079,3.967-2.222v2.1a1.014,1.014,0,0,1-.586.814" transform="translate(-66.653 -85.691)" fill="#465151"/>
            <path id="Path_1000607" data-name="Path 1000607" d="M124.732,173.456a9.633,9.633,0,0,0-1.848,3.755,4.873,4.873,0,0,0-.015,2.948A2.188,2.188,0,0,0,125.6,181.6c2.383-.513,5.251-4.2,5.251-7.561a3.55,3.55,0,0,0-.55-2.046v-1.268a4.581,4.581,0,0,1,.873,2.853c0,4.715-5.024,10.443-8.661,8.345a3.409,3.409,0,0,1-1.394-2.5,7.307,7.307,0,0,1,.616-3.791,12.1,12.1,0,0,1,2.626-4.085,1.306,1.306,0,0,1,.374.851Z" transform="translate(-64.313 -90.694)" fill="#1c2121"/>
            <path id="Path_1000608" data-name="Path 1000608" d="M120.417,163.555l1.034-.594c.059.8.586,1.144,1.239.946v.008a.953.953,0,0,0,.572.675,2.962,2.962,0,0,0,2.809.008,1.014,1.014,0,0,0,.586-.814v-1.76l2.611,1.511-5.045,2.911-3.983-2.3c.059-.2.118-.389.176-.586" transform="translate(-63.877 -86.073)" fill="#124f51"/>
            <path id="Path_1000609" data-name="Path 1000609" d="M118.845,180.688a3.409,3.409,0,0,1-1.4-2.508,7.331,7.331,0,0,1,.63-3.8,11.867,11.867,0,0,1,2.648-4.1c1.626.943,1.563.889,1.687,1.027a12.1,12.1,0,0,0-2.625,4.085,7.314,7.314,0,0,0-.616,3.792,3.409,3.409,0,0,0,1.394,2.5c-.572-.338-1.144-.668-1.716-1" transform="translate(-62.364 -90.461)" fill="#2b3233"/>
            <path id="Path_1000610" data-name="Path 1000610" d="M119.725,168.5c0-.24.15-.617.645-.308v.66l.572-.33.447.256-1.02.594v.887a8.812,8.812,0,0,0-.645.968Z" transform="translate(-63.603 -89.29)" fill="#465151"/>
            <path id="Path_1000611" data-name="Path 1000611" d="M119.714,167.343c-.323-.183-.586-.037-.586.345v2.728a9.933,9.933,0,0,0-.521,1H118.6v-2.207l.77-2.663,3.983,2.3a1.292,1.292,0,0,1,.594,1.027v5.589l-.521-.3v-4.987a1.3,1.3,0,0,0-.594-1.027c-2.172-1.26-1.742-1.007-2.031-1.181h-.008c-.12-.069-.964-.552-1.078-.623" transform="translate(-63.005 -88.474)" fill="#5a6868"/>
            <path id="Path_1000612" data-name="Path 1000612" d="M108.408,149.931c-.1.378-1.1.273-1.489.19a5.443,5.443,0,0,1-1.892-.711c-.249-.169-.469-.382-.411-.579,2.061-7.084,5.721-19.669,7.283-25.022a6.547,6.547,0,0,1,3.007-3.835c2.948-1.7,12.6-7.273,13.135-7.576a2.957,2.957,0,0,0-.132.323c-.059.14.147.3.447.411-2.765,1.6-5.962,3.447-9.673,5.588a2.792,2.792,0,0,0-1.393,2.42v2.024a3.972,3.972,0,0,0-.866.675v.008a3.629,3.629,0,0,0-.88,1.525c-.788,2.718-6.745,23.215-7.135,24.56" transform="translate(-55.571 -59.71)" fill="#9e3281"/>
            <path id="Path_1000613" data-name="Path 1000613" d="M116.9,175.291A10.837,10.837,0,0,1,120,169.813l.381.22a11.854,11.854,0,0,0-2.647,4.1,7.331,7.331,0,0,0-.63,3.8,3.406,3.406,0,0,0,1.4,2.508c-1.716-.99-2-3.212-1.6-5.148" transform="translate(-62.018 -90.211)" fill="#1c2121"/>
            <path id="Path_1000614" data-name="Path 1000614" d="M112.645,201.929c.994-.112.425-.047,2.53-.286a7.417,7.417,0,0,1,3.806.932l9.563,5.522c.96.554,1.276,1.206.147,1.35l-2.538.286a7.31,7.31,0,0,1-3.806-.931l-9.563-5.522c-1.231-.709-1.027-1.251-.139-1.35" transform="translate(-59.457 -107.111)" fill="#7a207a"/>
            <path id="Path_1000615" data-name="Path 1000615" d="M112.071,204.041l9.563,5.522a7.306,7.306,0,0,0,3.806.931l2.537-.286c.4-.051.623-.161.7-.323-.069.223-.332,1.151-.418,1.423l-1.173.132c-.477.052-.7.205-.726.411-.059.22-.125.447-.191.675l-1.357.154a7.353,7.353,0,0,1-3.813-.931l-9.556-5.522c-.33-.191-.961-.616-.851-.983.5-1.73.512-1.8.63-2.185-.073.249.176.594.851.983" transform="translate(-58.743 -107.873)" fill="#ad5fce"/>
            <path id="Path_1000616" data-name="Path 1000616" d="M106.546,196.966a4.32,4.32,0,0,1-1.709-4.833c.073-.256.147-.52.22-.777a5.4,5.4,0,0,0,1.892.711v.008c-.059.2-.117.4-.176.594a2.378,2.378,0,0,0,.763,2.545h.007c.675.389,1.357.785,2.031,1.173l-.785.088c-.4.044-.653.176-.711.367-.088.286-.169.572-.249.858-.426-.242-.858-.491-1.283-.741Z" transform="translate(-55.601 -101.656)" fill="#2b3233"/>
            <path id="Path_1000617" data-name="Path 1000617" d="M280.638,133.486v-1.947a.092.092,0,0,1,.183,0v1.947a.092.092,0,0,1-.183,0" transform="translate(-149.086 -69.831)"/>
            <path id="Path_1000618" data-name="Path 1000618" d="M280.641,155.062V140.7a.092.092,0,0,1,.183,0v14.366a.092.092,0,0,1-.183,0" transform="translate(-149.087 -74.695)"/>
            <path id="Path_1000619" data-name="Path 1000619" d="M280.646,195.247l0-19.526a.092.092,0,0,1,.183,0l0,19.526a.092.092,0,0,1-.184,0" transform="translate(-149.089 -93.302)"/>
            <path id="Path_1000620" data-name="Path 1000620" d="M266.972,145.89c-.081,0-.027.06-.849-1.6a.092.092,0,0,1,.164-.082l.767,1.545a.092.092,0,0,1-.082.133" transform="translate(-141.37 -76.584)"/>
            <path id="Path_1000621" data-name="Path 1000621" d="M274.6,161.256c-.088,0,.255.627-4.889-9.739a.092.092,0,0,1,.164-.082l4.807,9.688a.092.092,0,0,1-.082.133" transform="translate(-143.274 -80.422)"/>
            <path id="Path_1000622" data-name="Path 1000622" d="M288.826,189.929c-.085,0,.374.869-6.657-13.3a.091.091,0,0,1,.164-.082l6.576,13.251a.092.092,0,0,1-.082.133" transform="translate(-149.894 -93.761)"/>
            <path id="Path_1000623" data-name="Path 1000623" d="M255.744,162.083l-1.436-.663a.091.091,0,0,1,.077-.166l1.435.663a.091.091,0,0,1-.076.166" transform="translate(-135.07 -85.66)"/>
            <path id="Path_1000624" data-name="Path 1000624" d="M269.787,168.563c-.074,0-.128-.05-8.755-4.037a.091.091,0,0,1,.077-.166l8.717,4.028a.092.092,0,0,1-.038.175" transform="translate(-138.642 -87.31)"/>
            <path id="Path_1000625" data-name="Path 1000625" d="M296.1,180.722c-.076,0-.5-.222-11.415-5.265a.092.092,0,0,1,.077-.166l11.376,5.257a.092.092,0,0,1-.038.175" transform="translate(-151.21 -93.116)"/>
            <path id="Path_1000626" data-name="Path 1000626" d="M246.684,180.11a.092.092,0,0,1-.018-.181l1.753-.355a.092.092,0,0,1,.037.18c-1.035.21-1.7.356-1.771.356" transform="translate(-131 -95.396)"/>
            <path id="Path_1000627" data-name="Path 1000627" d="M254.9,176.2a.092.092,0,0,1-.018-.181l11.547-2.336a.092.092,0,0,1,.037.18c-10.66,2.157-11.492,2.338-11.565,2.338" transform="translate(-135.366 -92.267)"/>
            <path id="Path_1000628" data-name="Path 1000628" d="M285.109,169.314a.092.092,0,0,1-.018-.181l14.931-3.022a.092.092,0,0,1,.037.18c-13.98,2.829-14.875,3.023-14.949,3.023" transform="translate(-151.413 -88.244)"/>
            <path id="Path_1000629" data-name="Path 1000629" d="M244.355,197.586l1.584-1.108a.092.092,0,0,1,.105.15l-1.584,1.107a.092.092,0,0,1-.105-.15" transform="translate(-129.79 -104.368)"/>
            <path id="Path_1000630" data-name="Path 1000630" d="M251.927,183.515a.092.092,0,0,1-.053-.167l12.927-9.034a.092.092,0,0,1,.105.15c-13.4,9.367-12.907,9.051-12.98,9.051" transform="translate(-133.785 -92.593)"/>
            <path id="Path_1000631" data-name="Path 1000631" d="M283.491,158.672a.092.092,0,0,1-.052-.167l16.442-11.491a.092.092,0,0,1,.1.15c-17.052,11.917-16.422,11.507-16.495,11.507" transform="translate(-150.553 -78.091)"/>
            <path id="Path_1000632" data-name="Path 1000632" d="M248.42,212.55a.092.092,0,0,1-.072-.149l.906-1.127a.092.092,0,0,1,.143.114c-.933,1.161-.9,1.162-.978,1.162" transform="translate(-131.922 -112.218)"/>
            <path id="Path_1000633" data-name="Path 1000633" d="M253.3,190.418a.092.092,0,0,1-.072-.149l12.3-15.3a.092.092,0,0,1,.143.114c-13.179,16.4-12.3,15.336-12.37,15.336" transform="translate(-134.513 -92.931)"/>
            <path id="Path_1000634" data-name="Path 1000634" d="M282.666,152.116a.092.092,0,0,1-.072-.149c14.46-17.991,13.551-16.942,13.662-16.852a.092.092,0,0,1,.015.129c-14.508,18.051-13.531,16.873-13.6,16.873" transform="translate(-150.115 -71.757)"/>
            <path id="Path_1000635" data-name="Path 1000635" d="M260.282,195.29a.091.091,0,0,1-.083-.13c9.843-21.33,9.206-20.072,9.335-20.011a.091.091,0,0,1,.045.121c-9.863,21.373-9.206,20.02-9.3,20.02" transform="translate(-138.223 -93.029)"/>
            <path id="Path_1000636" data-name="Path 1000636" d="M282.017,150.343a.092.092,0,0,1-.083-.13l8.349-18.091a.091.091,0,0,1,.166.076c-8.941,19.377-8.341,18.145-8.431,18.145" transform="translate(-149.77 -70.16)"/>
            <path id="Path_1000637" data-name="Path 1000637" d="M301.724,126.924a.092.092,0,0,1-.083-.13l.495-1.072a.091.091,0,0,1,.166.077c-.52,1.128-.494,1.125-.578,1.125" transform="translate(-160.239 -66.76)"/>
            <path id="Path_1000638" data-name="Path 1000638" d="M272.951,196.628a.093.093,0,0,1-.091-.107l3.493-21.007a.092.092,0,0,1,.181.03c-3.738,22.482-3.463,21.083-3.584,21.083" transform="translate(-144.953 -93.2)"/>
            <path id="Path_1000639" data-name="Path 1000639" d="M281.153,152.8a.092.092,0,0,1-.09-.107l2.686-16.154a.092.092,0,0,1,.181.03c-2.871,17.265-2.656,16.231-2.777,16.231" transform="translate(-149.311 -72.495)"/>
            <path id="Path_1000640" data-name="Path 1000640" d="M287.622,129.423l.313-1.885a.092.092,0,0,1,.181.03l-.314,1.884a.092.092,0,0,1-.181-.03" transform="translate(-152.796 -67.713)"/>
            <path id="Path_1000641" data-name="Path 1000641" d="M281.157,176.035a.092.092,0,0,1,.18-.037l3.447,16.723a.092.092,0,0,1-.072.108c-.14.03.086.871-3.555-16.794" transform="translate(-149.361 -93.459)"/>
            <path id="Path_1000642" data-name="Path 1000642" d="M274.918,145.77a.092.092,0,0,1,.18-.037l2.5,12.148a.092.092,0,0,1-.071.108c-.14.03.059.743-2.612-12.22" transform="translate(-146.046 -77.381)"/>
            <path id="Path_1000643" data-name="Path 1000643" d="M273.534,139.05l-.376-1.827a.092.092,0,0,1,.18-.037l.376,1.827a.092.092,0,0,1-.18.037" transform="translate(-145.111 -72.84)"/>
            <path id="Path_1000644" data-name="Path 1000644" d="M292.753,185.779c-.074,0,.377.42-9.164-9.231a.092.092,0,0,1,.13-.129l9.1,9.2a.092.092,0,0,1-.065.156" transform="translate(-150.639 -93.706)"/>
            <path id="Path_1000645" data-name="Path 1000645" d="M271.96,164.746c-.073,0,.383.427-6.891-6.932a.092.092,0,0,1,.13-.129l6.826,6.9a.092.092,0,0,1-.065.156" transform="translate(-140.8 -83.754)"/>
            <path id="Path_1000646" data-name="Path 1000646" d="M260.969,153.628c-.074,0-.06-.022-1.194-1.17a.092.092,0,0,1,.13-.129l1.129,1.142a.092.092,0,0,1-.065.156" transform="translate(-137.988 -80.909)"/>
            <path id="Path_1000647" data-name="Path 1000647" d="M298.519,175.207l-13.234-1.179a.092.092,0,0,1,.016-.183l13.234,1.179a.092.092,0,0,1-.016.182" transform="translate(-151.51 -92.353)"/>
            <path id="Path_1000648" data-name="Path 1000648" d="M267.818,172.471l-10.192-.908a.092.092,0,1,1,.016-.182l10.192.908a.092.092,0,0,1-.016.183" transform="translate(-136.817 -91.044)"/>
            <path id="Path_1000649" data-name="Path 1000649" d="M251.555,171.021c-.075,0,.34.03-1.658-.148-.123-.011-.1-.2.016-.182l1.65.147a.092.092,0,0,1-.008.183" transform="translate(-132.711 -90.677)"/>
            <path id="Path_1000650" data-name="Path 1000650" d="M283.9,163.819a.092.092,0,0,1-.038-.175l16.173-7.376a.091.091,0,0,1,.076.166c-16.057,7.324-16.137,7.385-16.211,7.385" transform="translate(-150.769 -83.01)"/>
            <path id="Path_1000651" data-name="Path 1000651" d="M252.956,179.886a.092.092,0,0,1-.038-.175l12.391-5.652a.092.092,0,0,1,.076.167c-12.38,5.647-12.354,5.66-12.429,5.66" transform="translate(-134.332 -92.462)"/>
            <path id="Path_1000652" data-name="Path 1000652" d="M244.762,188.941l1.734-.79a.092.092,0,0,1,.076.166l-1.734.791a.092.092,0,0,1-.076-.167" transform="translate(-129.999 -99.948)"/>
            <path id="Path_1000653" data-name="Path 1000653" d="M283.033,154.832a.092.092,0,0,1-.063-.158l15.374-14.646a.092.092,0,0,1,.127.133c-16.059,15.3-15.364,14.672-15.438,14.672" transform="translate(-150.31 -74.374)"/>
            <path id="Path_1000654" data-name="Path 1000654" d="M251.982,187.186a.092.092,0,0,1-.063-.158l12.807-12.2a.092.092,0,0,1,.127.133c-13.233,12.607-12.8,12.227-12.871,12.227" transform="translate(-133.814 -92.86)"/>
            <path id="Path_1000655" data-name="Path 1000655" d="M245.6,205.691a.092.092,0,0,1-.063-.158l1.3-1.239a.092.092,0,0,1,.127.133c-1.274,1.214-1.289,1.264-1.363,1.264" transform="translate(-130.424 -108.515)"/>
            <path id="Path_1000656" data-name="Path 1000656" d="M308.169,128.632l.192-.311a.092.092,0,0,1,.156.1l-.192.311a.092.092,0,0,1-.156-.1" transform="translate(-163.704 -68.146)"/>
            <path id="Path_1000657" data-name="Path 1000657" d="M282.337,150.657a.092.092,0,0,1-.078-.14l11.115-17.976a.092.092,0,0,1,.156.1c-11.926,19.288-11.113,18.019-11.193,18.019" transform="translate(-149.94 -70.388)"/>
            <path id="Path_1000658" data-name="Path 1000658" d="M256.03,193.208a.092.092,0,0,1-.078-.14l11.113-17.974a.092.092,0,0,1,.156.1c-11.926,19.288-11.112,18.016-11.191,18.016" transform="translate(-135.965 -92.994)"/>
            <path id="Path_1000659" data-name="Path 1000659" d="M252.866,217.936a.092.092,0,0,1-.078-.14l.414-.669a.092.092,0,0,1,.157.1c-.427.69-.419.713-.493.713" transform="translate(-134.284 -115.323)"/>
            <path id="Path_1000660" data-name="Path 1000660" d="M294.7,127.119l.5-1.6a.092.092,0,0,1,.175.055l-.5,1.6a.092.092,0,0,1-.175-.055" transform="translate(-156.553 -66.646)"/>
            <path id="Path_1000661" data-name="Path 1000661" d="M281.673,151.01a.091.091,0,0,1-.087-.119l5.463-17.328a.092.092,0,0,1,.175.055c-5.822,18.466-5.446,17.392-5.551,17.392" transform="translate(-149.587 -70.92)"/>
            <path id="Path_1000662" data-name="Path 1000662" d="M266,196.511a.091.091,0,0,1-.087-.12l6.632-21.036a.091.091,0,0,1,.174.055c-7.112,22.559-6.617,21.1-6.72,21.1" transform="translate(-141.262 -93.122)"/>
            <path id="Path_1000663" data-name="Path 1000663" d="M155,156.909a.092.092,0,0,1-.072-.149l2.117-2.633a.092.092,0,0,1,.142.115c-2.23,2.775-2.115,2.668-2.188,2.668" transform="translate(-82.295 -81.86)"/>
            <path id="Path_1000664" data-name="Path 1000664" d="M165.326,163.272a.092.092,0,0,1-.083-.13l1.66-3.6a.092.092,0,0,1,.166.076c-1.781,3.859-1.655,3.651-1.743,3.651" transform="translate(-87.779 -84.728)"/>
            <path id="Path_1000665" data-name="Path 1000665" d="M152.119,151.97l.956-.91a.092.092,0,0,1,.127.133l-.956.91a.092.092,0,0,1-.127-.133" transform="translate(-80.796 -80.235)"/>
            <path id="Path_1000666" data-name="Path 1000666" d="M159.45,160.641a.092.092,0,0,1-.078-.14l2.248-3.635a.092.092,0,0,1,.156.1c-2.412,3.9-2.247,3.678-2.326,3.678" transform="translate(-84.658 -83.31)"/>
            <path id="Path_1000667" data-name="Path 1000667" d="M172.116,164.8l.754-2.391a.092.092,0,0,1,.175.055l-.754,2.391a.092.092,0,0,1-.175-.055" transform="translate(-91.432 -86.245)"/>
            <g id="Group_1186179" data-name="Group 1186179" transform="translate(11.651 3.06)" style="mix-blend-mode: multiply;isolation: isolate">
              <g id="Group_1186178" data-name="Group 1186178">
                <g id="Group_1186177" data-name="Group 1186177" clip-path="url(#clip-path-4)">
                  <path id="Path_1000668" data-name="Path 1000668" d="M185.947,239.561c.11.574-.952,1.862-1.9,2.3l-.641.3.622-.114a2.942,2.942,0,0,0,2.126-1.761c.447-.875.451-.922.084-1.058-.315-.117-.367-.058-.294.329" transform="translate(-109.085 -130.121)" fill="#938064"/>
                  <path id="Path_1000669" data-name="Path 1000669" d="M171.416,237.248l-.518,1.763c2.477,0,2.444.091,2.444-.583a1.919,1.919,0,0,1,.3-.985c.292-.39.32-.391.966-.03.531.3.7.318.837.1.214-.338.227-.8.021-.758-.262.049-4.1.489-4.051.489" transform="translate(-102.438 -128.834)" fill="#938064"/>
                  <path id="Path_1000670" data-name="Path 1000670" d="M223.642,229.818c0,.245-.4.506-.553.358s.113-.553.358-.553a.2.2,0,0,1,.195.2" transform="translate(-130.141 -125.045)" fill="#938064"/>
                  <path id="Path_1000671" data-name="Path 1000671" d="M360.365,200.689c.45.2.733.589.434.589-.264,0-1.15-.5-1.15-.655,0-.228.086-.22.716.067" transform="translate(-202.71 -109.553)" fill="#938064"/>
                  <path id="Path_1000672" data-name="Path 1000672" d="M108.01,192.971a1.765,1.765,0,0,0,.2.795c.265.41.214.021.291-.864.024-.287-.5-.619-.495.069" transform="translate(-69.03 -105.357)" fill="#938064"/>
                  <path id="Path_1000673" data-name="Path 1000673" d="M131.858,178.088a.207.207,0,0,1-.414,0,.207.207,0,0,1,.414,0" transform="translate(-81.479 -97.558)" fill="#938064"/>
                  <path id="Path_1000674" data-name="Path 1000674" d="M123.326,170.332a6.271,6.271,0,0,1,1.381.737c.632.4,1.111.615,1.064.466a7.871,7.871,0,0,0-2.273-1.618c-.19,0-.478.415-.172.415" transform="translate(-77.095 -93.326)" fill="#938064"/>
                  <path id="Path_1000675" data-name="Path 1000675" d="M120.093,168.363c-.238.238-.184,2.407.056,2.259a1.014,1.014,0,0,0,.207-.713c0-.663.432-.886.933-1.235l-.449-.011c-.247-.006-.482-.11-.523-.231s-.141-.153-.225-.069" transform="translate(-75.367 -92.476)" fill="#938064"/>
                  <path id="Path_1000676" data-name="Path 1000676" d="M253.082,163.231c0,.4-.548,1-.738.807-.146-.147.349-1.2.564-1.2.1,0,.174.175.174.389" transform="translate(-145.692 -89.568)" fill="#938064"/>
                  <path id="Path_1000677" data-name="Path 1000677" d="M205.765,161.261c-1.827,1.6-1.832.434-1.654,2.726l14.6-8.4,1.158-2.7c-2.5,1.446-13.128,7.518-14.1,8.373" transform="translate(-120.043 -84.28)" fill="#938064"/>
                  <path id="Path_1000678" data-name="Path 1000678" d="M227.715,107.776c-.08.42.02.586.495.832.327.169.595.22.595.112a1.681,1.681,0,0,1,.108-.476c.062-.163-.145-.43-.495-.637-.6-.353-.6-.351-.7.169" transform="translate(-132.608 -60.094)" fill="#938064"/>
                  <path id="Path_1000679" data-name="Path 1000679" d="M218.569,102.558c0,.409.1.615.311.615.429,0,.4-.959,0-1.111-.233-.09-.311.034-.311.5" transform="translate(-127.763 -57.265)" fill="#938064"/>
                  <path id="Path_1000680" data-name="Path 1000680" d="M158.939,88.45l-1.181,2.417,2.9-1.665c4.629-2.656,14.442-7.419,15.283-7.419.281,0,.369-.168.369-.705,0-1.352-1.222-.794-1.644-2.339a45.027,45.027,0,0,0-2-6.43c-.307-.1-8.583,5.619-13.724,16.142" transform="translate(-95.458 -41.472)" fill="#938064"/>
                  <g id="Group_1186176" data-name="Group 1186176" transform="translate(0 21.663)" style="mix-blend-mode: multiply;isolation: isolate">
                    <g id="Group_1186175" data-name="Group 1186175">
                      <g id="Group_1186174" data-name="Group 1186174" clip-path="url(#clip-path-5)">
                        <path id="Path_1000681" data-name="Path 1000681" d="M200.926,124.258c-.36-.081-.719-.161-1.071-.249-5.324,3.066-7.077,3.99-7.077,4.525a.641.641,0,0,1-.33.572,8.575,8.575,0,0,1-2.779.015,1.738,1.738,0,0,1,.256-.506c.213-.345.184-.506-.183-.983A13.961,13.961,0,0,0,187,125.255c-.161-.051-.132-.338.1-.938a2.125,2.125,0,0,0-.667-2.692c-1.8-1.694-5.589-1.665-8.9-1.833-13.861-7.965-14.44-8.214-14.337-8.808.044-.286.44-1.7.887-3.154.9-2.992.689-2.588,2.589-3.586-.638-.55-.939-.8-1.452-1.239.074-.557.147-1.107.213-1.658a27.815,27.815,0,0,0-.425-8.294c-.983-3.843-3.058-6.791-5.471-7.759a6.5,6.5,0,0,1-1.775-1.063c-.807-.8-2.068-1.115-4.481-1.108-3.264.007-4.855.748-8.082,2.039.7.162,2.8.521,2.8,1.159a5.34,5.34,0,0,1-1.334.909c-8.016,4.488-15.9,15.086-19,25.572a6.619,6.619,0,0,1-.645,1.709c-.557,0-.96-4.913-.528-6.482.117-.433.081-.572-.162-.572-.432,0-.389-.359.059-.5.337-.11.975-1.335.792-1.518a2.614,2.614,0,0,0-.953.36c-.477.249-.916.4-.983.33-.154-.147-.183-.125,1.247-.939,1.122-.623,1.013-.043,1.9-1.784,6.563-12.86,14.835-17.091,15.26-17.37,0-3.036-.008-24.3-.008-27.341l.528.132c.77.2,7.84-3.858,8.185-4.679.227-.543.11-1.43-.184-1.408-.183.015-6.065,3.476-6.358,3.645v.894c0,1.13-.44,1.357-.63.338a1.8,1.8,0,0,0-.308-.851,3.092,3.092,0,0,0-1.254.535c-1.247.734-1.467.543-2.054.4,0,20.688.03,26.174-.264,26.078-.2-.066-.286-1.906-.381-7.847-.11-7.135-.154-7.877-.572-9.314-.946-3.241-.4-4.077-1.246-3.542-.235.147-.22.418.051,1.643.382,1.658.337,4.165.337,17.864,1.313,0,2.142-.183-.931,2.127a45.81,45.81,0,0,0-12.592,15.6c-1.393,2.787-1.386,2.728-.257,2.852,1.181.132,1.364.3.8.741-.579.462-15.239,8.844-15.973,9.262-.545,1.879-1.873,6.394-3.267,11.2l-3.452,2,2.155-7.419c-.4-.132-.371-.564.076-.711.367-.117.161-.389,1.027-3.366.1-.315.154-.248-1,.242a21.484,21.484,0,0,1-7.6,1.268c-2.684,0-3.747-.308-3.769-1.085a7.381,7.381,0,0,1,2.127-.03,32.257,32.257,0,0,0,8.272-.777c1.87-.374,2.229-.506,2.325-.873a1.026,1.026,0,0,0,.059-.484c-.029-.03-1.122.168-2.427.44-5.207,1.1-9.937,1.2-9.937.2,0-.5,2.611-3.051,4.327-4.231A10.1,10.1,0,0,0,101.293,108a2.974,2.974,0,0,0-.876-.75c-.741-.44-.79-.007-1.832.36a11.37,11.37,0,0,1-3.762.367c-2.494,0-2.787-.037-3.887-.557-.653-.308-1.188-.653-1.188-.77,0-.3-2.493-1.811-2.493-2.1,0-.249-.132-.271,1.423.213a10.018,10.018,0,0,0,4.943.183c1.093-.191,1.276-.279,1.086-.513s-.579-.257-1.613-.162a9.684,9.684,0,0,1-4.862-.99c-1.621-.828-3.872-3.4-3.872-4.415a.88.88,0,0,0-.367-.66c-.3-.184-.638-.052-1.841.726-3.051,1.988-3.4,1.863-3.4,2.714,0,.345-.088.63-.205.63s-.205-.183-.205-.4c0-.935-.692-.4-2.054.367a6.757,6.757,0,0,0-1.928-.792c-.521,0-.484-.77.044-.931.33-.111.411-.315.411-1.071,0-.836-.044-.916-.411-.8-.4.132-.418.037-.418-3.425,0-3.417.015-3.564.425-3.667.5-.132.4-.455.3-1.46-1.137.645-1.628.924-2.076,1.174-.08.282-2.576,8.87-4.71,16.217a15.274,15.274,0,0,1-7.074,8.992l-10.18,5.835-23.116-.263.006,1.389-2.712,1.635,25.816.19,47.242,27.279v-1.211c2.439,1.312,2.854,1.213,4.531.879a5.224,5.224,0,0,1,.874-.13l.006,3.793c.241.137,18.043,10.149,18.043,10.353,0,.1-4.429.145-18.043.145l.116.99-2.821,1.453,26.328.509c1.8,1.03,4.91,2.813,5.467,3.133h1.858l35.243-20.353-16.633-9.617a85.561,85.561,0,0,0,25.647-9.716c.807-.491,1.62-.975,2.427-1.474h13.12c.734-.411,2.017-1.247,2.772-1.188.939.081,7.532-3.872,7.532-4.114,0-.345-2.193-1.445-3.454-1.738m-70.549-8.852a31.793,31.793,0,0,1,3.747-11.228,40.335,40.335,0,0,1,1.958-3.828c1.966-2.149-1,.542,7.569-8.052,0-2.1-.162-1.943,1.085-2.75,4.576-2.919,8.9-3.711,12.071-2.207,2.34,1.1,1.018,1.26,1.018,1.26a12.042,12.042,0,0,0-3.634-.521c-1.811,0-4.358.72-3.515.926.917.213.7.594-.689,1.225-6.732,3.058-13.567,10.949-16.985,19.617a44.939,44.939,0,0,0-2.207,7.613c0,.315-.088.572-.19.572-.374,0-.447-.807-.227-2.626m10.157-9.02a4.418,4.418,0,0,1-3.323.865c-1.7,0-1.855-.029-1.855-.4,0-.609,2.845-2.251,4.246-3.418a2.937,2.937,0,0,1,.777-.52c.205-.015.154,3.153.154,3.476M126.5,143.12c.139,0,2.728,1.239,1.415,1.239-.517,0-2.276.63-2.942.73v-.3a7.7,7.7,0,0,1,1.527-1.665m-5.3-33.757c.675-.249,2.956-.315,2.956-.088a4.66,4.66,0,0,1-1.379.726c-1.3.535-1.408.55-1.76.227-.52-.469-.484-.623.183-.865m-8.5,6.6c.147,0,.264.081.264.191,0,.242-.814.513-1,.33-.154-.154.352-.513.733-.521m-3.452,7.258-.491.284c.112-1.018.312-1.225.491-.284M105.3,120.4c0,.33-8.367,5.082-8.756,5.3l-.383,0c-.579-.331-1.221-.7-1.916-1.1a1.71,1.71,0,0,1,.524-.141,15.025,15.025,0,0,0,3.894-2.288,21.137,21.137,0,0,1,4.613-2.691c.381,0,2.024.557,2.024.916m-13.149,2.332a2.631,2.631,0,0,0-.548.347c-1.282-.741-2.654-1.536-4.062-2.353a2.814,2.814,0,0,1,1.749-.341,9.471,9.471,0,0,1,3.52,1.753c.044.132-.256.4-.66.594m-14.462-20.05a7.584,7.584,0,0,0,2.215-1.012c.909-.557,1.716-1.02,1.782-1.034a2.567,2.567,0,0,1,.242,1.115c.44,4.216,5.464,8.389,10.362,8.4a2.141,2.141,0,0,1,.983.117c0,.264-2.692,3.286-2.692,4.657a2.854,2.854,0,0,0,.308,1.027c.741,1.437,2.963,2.258,6.578,2.435a8.233,8.233,0,0,1,2.333.271,23.74,23.74,0,0,1-4.151,2.273,2.8,2.8,0,0,0-.909.3c-.55.286-.675.257-2.215-.521a13.18,13.18,0,0,0-2.882-1.049c-3.058-.55-2.647-1.32-5.038-2.567-1.027-.535-1.217-.565-2.9-.455-.3.02-.649.057-1,.105l-2.19-1.275c1.455-2.367,1.894-4.946,1.079-6.744a5.148,5.148,0,0,1-.411-1.775,1.5,1.5,0,0,0-.469-1.29c-2.192-1.936-2.852-.477-2.845-1.679,0-.653.895-1.291,1.826-1.306m-6.564-1.855a4.3,4.3,0,0,1,.367,1.4,9.112,9.112,0,0,0,.851,3.029c.088.1.381.03.645-.154,1.137-.8,1.005-.045,1.005,1.525a14.168,14.168,0,0,1,3.315.212c.418.271.433.205-2.9,2.09,0,1.823.008,3.192-.007,4.154l-.789-.459c-.03-.721-.017-1.088-.048-2.161a10.548,10.548,0,0,0-1.054,1.519l-1.885-1.1-3.067,1.757c.04-.137,3.406-11.813,3.564-11.813m26.791,43.413V127.692a8.512,8.512,0,0,0,.93-.244c.653-.286.733-.286,1.144.088a14.042,14.042,0,0,0,2.975,1.807l.317-1.092.017,10.283a6.761,6.761,0,0,0-.309,1.529.372.372,0,0,0,.312.145l.012,7.207c-1.551-.936-3.663-2.178-5.4-3.174m29.764,8.99-2.652-1.546c2.111-.4,3.849-.727,5.287-1.005l0,1ZM159.719,109.9a8.688,8.688,0,0,1-2.288-.821c-.345-.323.521-.785,1.481-.785a1.7,1.7,0,0,0,1.012-.213c.125-.205.513-.286.513-.1,0,.088-.645,1.8-.719,1.921m2.288-9.886c-.051.719-.1,1.452-.154,2.171-4.628,2.677-6.916,3.931-6.872,4.378a.609.609,0,0,1-.205.528c-.293.184-11.246-.5-11.246-.5l.048-11.288s5.208-5.463,11.359-5.322c2.024.047,2.414.056,3.382.555a7.946,7.946,0,0,1,3.043,2.809c.492.96.807,4.209.645,6.673" transform="translate(-24.854 -52.741)" fill="#938064"/>
                      </g>
                    </g>
                  </g>
                  <path id="Path_1000682" data-name="Path 1000682" d="M197.116,10c.159,1.407.259,1.8-.135,1.8a.321.321,0,0,1-.338-.3,5.242,5.242,0,0,0-.4-1.355c-1.951,1.143-2.425,1.5-2.912,1.239s-.417-.152-.417,4.97l2.073-1.275V12.227c1.051.21.846.461,4.6-1.694,3.662-2.1,4.314-2.606,4.309-3.334-.008-1.285-.353-.921-6.78,2.8" transform="translate(-114.13 -6.527)" fill="#938064"/>
                </g>
              </g>
            </g>
            <g id="Group_1186182" data-name="Group 1186182" transform="translate(74.477 18.88)" style="mix-blend-mode: multiply;isolation: isolate">
              <g id="Group_1186181" data-name="Group 1186181">
                <g id="Group_1186180" data-name="Group 1186180" clip-path="url(#clip-path-6)">
                  <path id="Path_1000683" data-name="Path 1000683" d="M158.882,92.3l17.736,8.045,11.063-3.278a15.476,15.476,0,0,0,8.631-6.485l6.536-10.194,1.695-18.4a16.4,16.4,0,0,0-6.551-14.669l-9.48-7.044Z" transform="translate(-158.882 -40.276)" fill="#877f63"/>
                </g>
              </g>
            </g>
            <path id="Path_1000684" data-name="Path 1000684" d="M230.826,74.99a25.757,25.757,0,0,1-1.087,7.647v0a20.314,20.314,0,0,1-.748,2.022,3.5,3.5,0,0,0-1.51-1.844,61,61,0,0,0,.547-10.321,23.834,23.834,0,0,0-2.388-10.155,6.109,6.109,0,0,1,1.773-.282,4.639,4.639,0,0,1,.76.06c.148.379.353.84.586,1.405a28.409,28.409,0,0,1,2.066,11.465" transform="translate(-119.87 -32.968)" fill="#dd5c67"/>
            <path id="Path_1000685" data-name="Path 1000685" d="M229.589,110.188c.049-.307.128-.824.128-.926a1.871,1.871,0,0,0-.407-1.155,2.828,2.828,0,0,0-.489-.494,7.2,7.2,0,0,0,.351-1.272,3.488,3.488,0,0,1,1.509,1.844,5.906,5.906,0,0,1-1.091,2" transform="translate(-121.558 -56.493)" fill="#c64550"/>
            <path id="Path_1000686" data-name="Path 1000686" d="M222.489,72.816a61.032,61.032,0,0,1-.547,10.321,4.64,4.64,0,0,0-2.391-.611,3.968,3.968,0,0,0-.532.034c-.093.012-.184.028-.272.048a24.6,24.6,0,0,0-1.529-6.07,30.041,30.041,0,0,1-2.005-9.261,6.269,6.269,0,0,1,.1-1.178c.075-.1.152-.2.233-.3A9.878,9.878,0,0,1,220.1,62.66a23.836,23.836,0,0,1,2.388,10.156" transform="translate(-114.33 -33.288)" fill="#e48c79"/>
            <path id="Path_1000687" data-name="Path 1000687" d="M222.557,105.037a4.635,4.635,0,0,1,2.391.612,7.162,7.162,0,0,1-.35,1.272,7.215,7.215,0,0,0-3.726-1.282c.4-.178.791-.359,1.153-.567a3.968,3.968,0,0,1,.532-.035" transform="translate(-117.336 -55.8)" fill="#cd725f"/>
            <path id="Path_1000688" data-name="Path 1000688" d="M207.953,21.785a5.491,5.491,0,0,1,.389,2.183,13.935,13.935,0,0,1-2.063,6.817,7.856,7.856,0,0,1-.554.763c-1.715,2.879-4.151,4.081-6.24,4.081-.711,0-.871-.263-.871-.746v-.015c.006-.991.582-1.482,1.139-2.3a22.219,22.219,0,0,0,.588-3.147A2.941,2.941,0,0,0,198.7,26.8c3.991-.2,8.447-3.081,8.718-6.861a8.852,8.852,0,0,1,.537,1.842m-8.259,11.372c0-.009,0-.02,0-.03h0l0,.03" transform="translate(-105.511 -10.595)" fill="#723c1f"/>
            <path id="Path_1000689" data-name="Path 1000689" d="M203.184,44.168h0c-.92,3.127-3.841,6.356-7.007,6.356a4.3,4.3,0,0,1-1.028-.132,22.582,22.582,0,0,1-4.855,11.543c-.04-.791-.067-1.581-.067-2.369,0-7.651,2.222-8.559,3.061-9.992a5.666,5.666,0,0,1-1.657-1.54c.3-.024.608-.06.913-.1a5.031,5.031,0,0,0,3.577,1.509c2.375,0,5.208-1.506,6.636-5.5.142.07.284.145.426.223" transform="translate(-101.057 -23.345)" fill="#61342f"/>
            <path id="Path_1000690" data-name="Path 1000690" d="M205.385,43.48h0c-1.428,3.989-4.261,5.5-6.636,5.5a5.031,5.031,0,0,1-3.577-1.509c.539-.079,1.08-.186,1.613-.313v.015c0,.484.16.747.871.747,2.089,0,4.525-1.2,6.24-4.081a7.915,7.915,0,0,0,.554-.763,9.71,9.71,0,0,1,.935.408" transform="translate(-103.683 -22.882)" fill="#d8aa7d"/>
            <path id="Path_1000691" data-name="Path 1000691" d="M212.968,69.655a6.274,6.274,0,0,0-.1,1.178,30.042,30.042,0,0,0,2.005,9.261,10.679,10.679,0,0,1-2.538,2.161c-.121-1.564-1.539-2.538-1.539-6.432,0-2.45.693-5.013,2.408-6.466h0c-.081.1-.158.2-.233.3" transform="translate(-111.982 -36.845)" fill="#dd5c67"/>
            <path id="Path_1000692" data-name="Path 1000692" d="M216.222,99.331c-.094-1.848-.473-4.776-2.061-4.776l-.076,0v.025c0-.053,0-.106-.008-.159a10.69,10.69,0,0,0,2.538-2.161,24.629,24.629,0,0,1,1.529,6.07c.088-.02.179-.035.271-.047-.361.208-.757.389-1.153.567h0c-.353.158-.707.312-1.04.479" transform="translate(-113.726 -49.013)" fill="#dd5c67"/>
            <path id="Path_1000693" data-name="Path 1000693" d="M161.145,111.878a.619.619,0,0,0,.546.5c.124-.026.249-.057.373-.091.007.738.33,1.02.817,1.02a3.361,3.361,0,0,0,1.43-.467,1.026,1.026,0,0,0-.013.166,1.076,1.076,0,0,0,.023.221,2.716,2.716,0,0,0,.67.085c2.976,0,3.736-3.678,7.42-5.755l.08-.006c4.382-.325,11.078-1.465,13.92-4.945a5.9,5.9,0,0,0,1.092-2,20.361,20.361,0,0,0,.749-2.022,22.348,22.348,0,0,1,.488,3.745c0,1.7-.2,3.4-.2,5.1,0,1.139.117,3.7.117,5.228a21.731,21.731,0,0,1-.389,4.363c-4.676,8.324-13.336,8.726-13.955,8.9a18.689,18.689,0,0,0-2.384,1.135,10.574,10.574,0,0,1-1.688-3.769,11.007,11.007,0,0,0-.823-2.009c-.867-1.561-4.256-4.362-6.254-4.362a4.559,4.559,0,0,0-.468.025c.055-.06.113-.12.17-.181-2.158-.2-3.083-1.856-3.953-3.749-1.279-2.784-2.439-6.091-7.228-6.091h-.154a5.975,5.975,0,0,0-3.987,1.453c5.186-7.765,13.676-8.009,18.482-12.379a4.883,4.883,0,0,0,.525-2.1,5.721,5.721,0,0,0-.326-1.817,12.884,12.884,0,0,0,8.293,3.338,7.974,7.974,0,0,0,4.215-1.083c0,.053.007.105.008.159v-.025l.076,0c1.589,0,1.966,2.928,2.061,4.776a6.393,6.393,0,0,0-.637.36c-4.007,2.618-3.764,4.313-10.264,5.4a4.694,4.694,0,0,0-2.021-.4,13.672,13.672,0,0,0-3.651.63,19.38,19.38,0,0,1-1.848,1.074c-.3.465-.58.951-.846,1.442.069.11.145.214.224.316a12.939,12.939,0,0,0-1.716,1.169c0,.022,0,.044,0,.065a2.133,2.133,0,0,0,.1.657,1.282,1.282,0,0,0,.155.009c1.076,0,1.317-.572,5.192-1.621l.365.043c-.079.114-.164.23-.249.345-1.506.789-2.971,1.634-4.419,2.52a1.39,1.39,0,0,0-.125.525.73.73,0,0,0,.009.118" transform="translate(-78.38 -48.908)" fill="#dd5c67"/>
            <path id="Path_1000694" data-name="Path 1000694" d="M193.506,10.16a7.1,7.1,0,0,1,6.679,4.586c-.271,3.781-4.727,6.664-8.718,6.861a12.338,12.338,0,0,0-2.3-.986,11.108,11.108,0,0,1-3.318-1.476,1.885,1.885,0,0,1-.742-1.5,1.915,1.915,0,0,1,.022-.278,2.663,2.663,0,0,1-.132-.843,5.9,5.9,0,0,1,1.689-3.6,5.5,5.5,0,0,1,3.1-1.852,8.071,8.071,0,0,1,3.718-.913" transform="translate(-98.28 -5.397)" fill="#99634b"/>
            <path id="Path_1000695" data-name="Path 1000695" d="M200.917,48.069c0,.009,0,.02,0,.03,0-.01,0-.02,0-.03Z" transform="translate(-106.733 -25.536)" fill="#e6e6e6"/>
            <path id="Path_1000696" data-name="Path 1000696" d="M200.9,48.1a.011.011,0,0,1-.011-.01l0-.03a.01.01,0,0,1,0-.008.012.012,0,0,1,.008,0h0a.011.011,0,0,1,.008,0,.011.011,0,0,1,0,.008c0,.005,0,.01,0,.015v.015a.011.011,0,0,1-.011.01" transform="translate(-106.721 -25.524)"/>
            <path id="Path_1000697" data-name="Path 1000697" d="M200.674,125.088l-.081.006.023-.013.058.007" transform="translate(-106.563 -66.448)" fill="#e6e6e6"/>
            <path id="Path_1000698" data-name="Path 1000698" d="M200.581,125.093a.011.011,0,0,1-.011-.007.011.011,0,0,1,0-.013l.023-.013h.007l.029,0,.029,0a.011.011,0,0,1,0,.022l-.081.006Z" transform="translate(-106.551 -66.436)"/>
            <path id="Path_1000699" data-name="Path 1000699" d="M168.19,176.082a17.462,17.462,0,0,0,.42-4.441c0-1.385-.062-2.775-.062-4.156,0-3.09.536-5.027.536-6.776,0-.349-.023-1.036-.056-1.843.532-5.048.822-9.805,4.514-13.783h0a4.44,4.44,0,0,1,.468-.025c2,0,5.387,2.8,6.254,4.362a10.981,10.981,0,0,1,.824,2.009h0c-.709.392-1.348.772-1.9,1.126a12.565,12.565,0,0,0-2.132,4.5,15.165,15.165,0,0,1,1.081,4.7c0,3.045-3.347,11.1-5.064,15.585-.137.36-.265.7-.38,1.008a10.549,10.549,0,0,1-1.9-.349,22.277,22.277,0,0,1-2.826-.969h0c.075-.326.151-.626.226-.941" transform="translate(-89.229 -77.061)" fill="#3f4f5d"/>
            <path id="Path_1000700" data-name="Path 1000700" d="M186.1,29.328a11.084,11.084,0,0,0,3.318,1.476,3.621,3.621,0,0,0-.606,1.862,2.381,2.381,0,0,0,.062.563,1.524,1.524,0,0,0-.353-.04,1.771,1.771,0,0,0-.252.019,25.587,25.587,0,0,0-2.384,3.772.548.548,0,0,0,.006.083c-.236-.124-.4-.257-.428-.391a.184.184,0,0,1,0-.036c0-.558.961-1.5,1.447-2.388a1.9,1.9,0,0,0,.273-.87c0-.881-.818-1.4-1.671-1.771,0-.035,0-.07,0-.1q0-.288.015-.575c.178-.543.369-1.072.575-1.6" transform="translate(-98.522 -15.58)" fill="#e0be95"/>
            <path id="Path_1000701" data-name="Path 1000701" d="M190.348,41.839c-.306.045-.611.081-.914.1s-.6.037-.89.037a7.964,7.964,0,0,1-1.833-.2l-.017-.018c.818-.623,1.722-.4,2.062-.78a5,5,0,0,1-.555.033,1.9,1.9,0,0,1-2.11-1.959,1.737,1.737,0,0,0,1.308.794.162.162,0,0,1-.017-.075c0-.112.093-.274.326-.517a7.905,7.905,0,0,1-1.483-.525.548.548,0,0,1-.006-.083A25.592,25.592,0,0,1,188.6,34.88a1.762,1.762,0,0,1,.252-.019,1.523,1.523,0,0,1,.352.04,2.381,2.381,0,0,1-.062-.563,3.618,3.618,0,0,1,.606-1.861,12.338,12.338,0,0,1,2.3.986,2.94,2.94,0,0,1,1.642,2.618,22.207,22.207,0,0,1-.588,3.147c-.556.815-1.133,1.306-1.139,2.3-.533.127-1.073.234-1.613.313" transform="translate(-98.859 -17.253)" fill="#c79a6d"/>
            <path id="Path_1000702" data-name="Path 1000702" d="M187.707,47.665a5,5,0,0,0,.555-.033c-.34.38-1.243.157-2.062.78a6.811,6.811,0,0,1-.7-.875c-.124-1.15-.238-1.945-.337-2.523l.142-.023c.026.134.192.268.428.391a7.882,7.882,0,0,0,1.483.525c-.232.243-.326.405-.326.517a.161.161,0,0,0,.017.075,1.737,1.737,0,0,1-1.308-.794,1.9,1.9,0,0,0,2.11,1.959" transform="translate(-98.365 -23.902)" fill="#e0be95"/>
            <path id="Path_1000703" data-name="Path 1000703" d="M187,35.958a1.9,1.9,0,0,1-.273.87,4.336,4.336,0,0,1-1.6-1.353,4.72,4.72,0,0,1,.221-.741c-.009-.182-.015-.365-.016-.548.853.37,1.671.89,1.671,1.771" transform="translate(-98.345 -18.162)" fill="#d8aa7d"/>
            <path id="Path_1000704" data-name="Path 1000704" d="M184.965,40.735c-.028-.162-.054-.306-.08-.437-.008-.083-.015-.166-.023-.251-.04-.472-.071-.96-.071-1.448a7.947,7.947,0,0,1,.156-1.665,4.336,4.336,0,0,0,1.6,1.353c-.485.892-1.447,1.831-1.447,2.388a.153.153,0,0,0,0,.036Z" transform="translate(-98.169 -19.621)" fill="#e0be95"/>
            <path id="Path_1000705" data-name="Path 1000705" d="M181.891,29.412l-.015-.035a2.722,2.722,0,0,1-.2-1.089c0-.78.2-1.615.2-2.333,0-.539-.008-1.07-.011-1.591,0-.151,0-.3,0-.45,0-4.141,1.511-6.528,3.055-7.855a5.9,5.9,0,0,0-1.688,3.6,2.663,2.663,0,0,0,.131.843,1.989,1.989,0,0,0-.022.278,1.887,1.887,0,0,0,.742,1.5c-.206.526-.4,1.054-.575,1.6q-.015.287-.015.576c0,.035,0,.07,0,.1,0,.182.007.365.016.548a4.769,4.769,0,0,0-.222.741,7.979,7.979,0,0,0-.156,1.665c0,.487.03.976.071,1.448a2.322,2.322,0,0,1-1.223.459c-.032,0-.064,0-.1,0" transform="translate(-96.516 -8.531)" fill="#915b46"/>
            <path id="Path_1000706" data-name="Path 1000706" d="M180.308,43.994l.015.035c.031,0,.063,0,.1,0a2.318,2.318,0,0,0,1.223-.459c.007.085.015.168.022.251.025.131.052.275.08.437.1.578.213,1.373.337,2.522a6.81,6.81,0,0,0,.7.875l.017.018a7.964,7.964,0,0,0,1.833.2c.293,0,.591-.013.89-.036a5.679,5.679,0,0,0,1.657,1.54c-.838,1.433-3.061,2.34-3.061,9.991,0,.788.026,1.578.067,2.369a22.583,22.583,0,0,0,4.855-11.543,4.306,4.306,0,0,0,1.028.132c3.166,0,6.087-3.229,7.007-6.356a13.711,13.711,0,0,1,6.764,9.733c-.233-.566-.439-1.027-.587-1.406a4.637,4.637,0,0,0-.759-.06,6.092,6.092,0,0,0-1.773.282,9.879,9.879,0,0,0-4.552,3.14h0c-1.715,1.453-2.408,4.016-2.408,6.466,0,3.894,1.418,4.868,1.539,6.432a7.97,7.97,0,0,1-4.215,1.083,12.884,12.884,0,0,1-8.293-3.338,11.415,11.415,0,0,1-4.062-8.481c0-2.731.932-5.306,1.324-8.025-.055.152-.11.3-.166.457.155-1.576.116-3.52.325-5.489.027-.257.059-.514.1-.771" transform="translate(-94.948 -23.148)" fill="#e48c79"/>
            <path id="Path_1000707" data-name="Path 1000707" d="M170.472,38.79c-.036.257-.068.514-.1.771-2.781.9-2.7,5.217-3.774,7.365-.752,1.5-1.722,2.666-2.568,4.054v0s0,.007-.006.01a4.476,4.476,0,0,0-2.261-.6c-.5,0-1.042.11-1.554.135a9.764,9.764,0,0,1,1.657-2.229c.944-1.608,1.942-3.177,2.907-4.794.578-2.572.734-4.538,1.2-6.181a9.71,9.71,0,0,1,4.494-3.537c0,.521.011,1.052.011,1.591,0,.718-.2,1.554-.2,2.333a2.722,2.722,0,0,0,.195,1.089" transform="translate(-85.112 -17.944)" fill="#e48c79"/>
            <path id="Path_1000708" data-name="Path 1000708" d="M174.706,46.117c-.21,1.969-.171,3.913-.325,5.489a9.687,9.687,0,0,1-.817,1.781c-.644,1.035-1.342,2.041-2.045,3.043a12.57,12.57,0,0,1-1.348,3.058h0a4.653,4.653,0,0,0-1.807-1.943v-.01c.846-1.388,1.816-2.551,2.568-4.054,1.075-2.148.994-6.461,3.774-7.365" transform="translate(-89.442 -24.499)" fill="#dd5c67"/>
            <path id="Path_1000709" data-name="Path 1000709" d="M180.192,215.464a.657.657,0,0,1-.011.114.99.99,0,0,1-.1.03c.03-.1.06-.193.09-.287a.557.557,0,0,1,.019.143" transform="translate(-95.667 -114.387)" fill="#e6e6e6"/>
            <path id="Path_1000710" data-name="Path 1000710" d="M180.071,215.607a.01.01,0,0,1-.008,0,.011.011,0,0,1,0-.01c.027-.09.057-.183.09-.287a.011.011,0,0,1,.01-.007h0a.011.011,0,0,1,.01.008.581.581,0,0,1,.019.145.679.679,0,0,1-.011.116.013.013,0,0,1-.007.008c-.034.012-.067.022-.1.03h0m.089-.257c-.026.082-.05.158-.072.231l.072-.023a.646.646,0,0,0,.01-.106.542.542,0,0,0-.01-.1m.009.216h0Z" transform="translate(-95.655 -114.375)"/>
            <path id="Path_1000711" data-name="Path 1000711" d="M179.095,214.572c-.03.094-.06.19-.09.287a2.4,2.4,0,0,1-.636.073c-.1,0-.207,0-.317-.012.114-.311.242-.648.38-1.009h0a1.277,1.277,0,0,1,.662.661" transform="translate(-94.588 -113.638)" fill="#203844"/>
            <path id="Path_1000712" data-name="Path 1000712" d="M163.65,215.667q.165.012.316.012a2.407,2.407,0,0,0,.636-.073,23.065,23.065,0,0,0-.774,3.961,16.365,16.365,0,0,0-.938,3.944c-1.793,3.023-4.755,7.17-9.28,7.17a7.278,7.278,0,0,1-2.668-.465c.667-1.273,2.235-.941,3.519-1.518,6.1-2.742,6.085-10.105,7.286-13.38a10.553,10.553,0,0,0,1.9.35" transform="translate(-80.186 -114.385)" fill="#1a2738"/>
            <path id="Path_1000713" data-name="Path 1000713" d="M160.536,232.8c-.009.071-.017.143-.026.215-1.227,2.788-.991,3.705-4.092,6.42a9.183,9.183,0,0,1-4.721,1.314c-1.863,0-4.14-.324-5.185-1.536a6.886,6.886,0,0,1,.133-.972c-.007-.039-.015-.079-.022-.119a4.728,4.728,0,0,0,1.965,1.382,7.278,7.278,0,0,0,2.668.465c4.525,0,7.488-4.148,9.281-7.17" transform="translate(-77.833 -123.671)" fill="#1a2738"/>
            <path id="Path_1000714" data-name="Path 1000714" d="M156.567,212.917a22.222,22.222,0,0,0,2.825.969c-1.2,3.274-1.182,10.638-7.286,13.38-1.284.577-2.852.245-3.519,1.518a4.714,4.714,0,0,1-1.965-1.382h0a7.56,7.56,0,0,1-.112-1.248c0-.113,0-.227.01-.338,1.269-2.339,4.387-3,7.18-5.921a20.609,20.609,0,0,0,2.228-7.27c.174.088.391.187.639.293Z" transform="translate(-77.833 -112.954)" fill="#283c48"/>
            <path id="Path_1000715" data-name="Path 1000715" d="M169.991,72.44h0c-.174.3-.359.6-.553.9a3.833,3.833,0,0,0-1.414-1.658,4.814,4.814,0,0,0,.159-1.189,4.652,4.652,0,0,1,1.807,1.942" transform="translate(-89.262 -37.451)" fill="#c64550"/>
            <path id="Path_1000716" data-name="Path 1000716" d="M141.019,123.734c4.789,0,5.949,3.307,7.228,6.091-2.464,1.15-7.979,4.279-10.535,6.86a16.131,16.131,0,0,1,.525,3.065c0,2.611-1.5,5.083-2.412,7.628-.832,1.548-1.62,3.17-2.233,4.658a23.7,23.7,0,0,0-.87,2.441,2.672,2.672,0,0,1-.427.033,5.458,5.458,0,0,1-1.067-.18,16.962,16.962,0,0,1-3.759-1.378q.1-1.1.211-2.224a106.809,106.809,0,0,1,2.756-16.642,46.126,46.126,0,0,1,4.1-5.993c.9-.738,1.8-1.426,2.719-2.072a42.568,42.568,0,0,1,3.609-2.285h.154" transform="translate(-67.717 -65.732)" fill="#3f4f5d"/>
            <path id="Path_1000717" data-name="Path 1000717" d="M168.359,70.476v.01l-.005,0,.005-.008" transform="translate(-89.436 -37.44)" fill="#e6e6e6"/>
            <path id="Path_1000718" data-name="Path 1000718" d="M168.346,70.485a.009.009,0,0,1-.007,0,.009.009,0,0,1-.008-.005.011.011,0,0,1,0-.011l.005-.007a.01.01,0,0,1,.012,0,.011.011,0,0,1,.007.01v.01a.01.01,0,0,1-.007.01h0" transform="translate(-89.423 -37.427)"/>
            <path id="Path_1000719" data-name="Path 1000719" d="M168.358,70.468v0l-.005.008h0l.006-.01" transform="translate(-89.435 -37.435)" fill="#e6e6e6"/>
            <path id="Path_1000720" data-name="Path 1000720" d="M168.34,70.478a.013.013,0,0,1-.008,0,.012.012,0,0,1,0-.013l0-.006,0,0a.012.012,0,0,1,.012-.006.012.012,0,0,1,.008.011v0a.009.009,0,0,1,0,.006l-.005.008a.011.011,0,0,1-.008,0h0" transform="translate(-89.423 -37.423)"/>
            <path id="Path_1000721" data-name="Path 1000721" d="M163.495,69.808l.005,0a4.822,4.822,0,0,1-.159,1.19,5.185,5.185,0,0,0-2.844-.783,3.028,3.028,0,0,0-1.289.262,7.476,7.476,0,0,1,.472-1.14c.512-.025,1.052-.135,1.554-.135a4.473,4.473,0,0,1,2.26.6l-.011.021a.208.208,0,0,0,.012-.02" transform="translate(-84.578 -36.764)" fill="#cd725f"/>
            <path id="Path_1000722" data-name="Path 1000722" d="M168.339,70.491h0l-.012.02.011-.021" transform="translate(-89.423 -37.448)" fill="#e6e6e6"/>
            <path id="Path_1000723" data-name="Path 1000723" d="M168.316,70.51h-.005a.011.011,0,0,1,0-.014l.012-.022a.01.01,0,0,1,.008,0,.009.009,0,0,1,.009,0h0a.011.011,0,0,1,0,.013l-.012.02a.011.011,0,0,1-.009.005" transform="translate(-89.41 -37.435)"/>
            <path id="Path_1000724" data-name="Path 1000724" d="M167.466,211.241c-.075.315-.151.615-.226.941-.248-.105-.465-.205-.639-.292.022-.145.044-.292.066-.441a5,5,0,0,1,.8-.208" transform="translate(-88.505 -112.22)" fill="#203844"/>
            <path id="Path_1000725" data-name="Path 1000725" d="M166.572,211.683c-.022.15-.044.3-.066.441l-.083-.042a1.152,1.152,0,0,1,.056-.374c.029-.007.059-.015.092-.025" transform="translate(-88.411 -112.454)" fill="#203844"/>
            <path id="Path_1000726" data-name="Path 1000726" d="M147.541,125.191a5.977,5.977,0,0,1,3.987-1.453,42.5,42.5,0,0,0-3.609,2.285h0a1.865,1.865,0,0,1-.378-.832" transform="translate(-78.38 -65.735)" fill="#61342f"/>
            <path id="Path_1000727" data-name="Path 1000727" d="M121.692,186.863c.018.261.081.521.081.79a24.462,24.462,0,0,1-.732,3.631c-.262,1.3-.483,2.64-.674,3.967-5.517,1.994-8.353,5.13-14.2,5.13a8.6,8.6,0,0,1-2.133-.274c1.583-3.634,9.705-3.694,13.947-10.146a6.368,6.368,0,0,0,.8-2.094,5.5,5.5,0,0,0,1.066.18,2.623,2.623,0,0,0,.428-.033,1.587,1.587,0,0,0,1.419-1.15" transform="translate(-55.268 -99.269)" fill="#1a2738"/>
            <path id="Path_1000728" data-name="Path 1000728" d="M141.7,186.32a1,1,0,0,1,.009.134.82.82,0,0,1-.009.12c0-.045-.005-.09-.005-.134s0-.081.005-.121" transform="translate(-75.272 -98.981)" fill="#e6e6e6"/>
            <path id="Path_1000729" data-name="Path 1000729" d="M141.684,186.573h0a.011.011,0,0,1-.01-.01c0-.045-.005-.09-.005-.134s0-.083.005-.122a.011.011,0,0,1,.01-.01h0a.011.011,0,0,1,.011.009,1.081,1.081,0,0,1,.009.135.878.878,0,0,1-.009.122.011.011,0,0,1-.011.009" transform="translate(-75.26 -98.968)"/>
            <path id="Path_1000730" data-name="Path 1000730" d="M140.094,185.145c0,.04-.005.082-.005.121s0,.089.005.134a1.587,1.587,0,0,1-1.419,1.15,23.7,23.7,0,0,1,.87-2.441,2.17,2.17,0,0,1,.548,1.036" transform="translate(-73.67 -97.806)" fill="#203844"/>
            <path id="Path_1000731" data-name="Path 1000731" d="M120.1,204.757q-.086.592-.164,1.178a7.963,7.963,0,0,1-.916,1.305c-1.115.28-2.25.592-3.385.81a13.888,13.888,0,0,0-2.692,1.388,37.127,37.127,0,0,1-7.928,1.355,12.1,12.1,0,0,1-1.486-.316,3.2,3.2,0,0,1,.24-.864,8.62,8.62,0,0,0,2.132.274c5.845,0,8.681-3.136,14.2-5.13" transform="translate(-54.997 -108.775)" fill="#1a2738"/>
            <path id="Path_1000732" data-name="Path 1000732" d="M112.549,185.217a16.977,16.977,0,0,0,3.759,1.378,6.379,6.379,0,0,1-.8,2.094c-4.243,6.452-12.365,6.512-13.947,10.146a5.786,5.786,0,0,1-2.181-1.028,7.5,7.5,0,0,1,.206-1.206,16.764,16.764,0,0,1,5.7-3.077c1.051-.75,2.528-1.818,3.75-2.763,1.833-2.644,2-2.924,2.673-6.291.068.234.385.492.84.748" transform="translate(-52.797 -97.997)" fill="#283c48"/>
            <path id="Path_1000733" data-name="Path 1000733" d="M126.713,181.319q-.112,1.12-.211,2.224c-.455-.256-.773-.514-.84-.748a.294.294,0,0,1-.014-.091c0-.578.54-1.02,1.065-1.386" transform="translate(-66.749 -96.324)" fill="#203844"/>
            <path id="Path_1000734" data-name="Path 1000734" d="M99.207,212.922a5.785,5.785,0,0,0,2.181,1.028,3.208,3.208,0,0,0-.24.864,5.3,5.3,0,0,1-2.077-1.045c-.006-.161-.012-.322-.021-.483.047-.071.094-.141.143-.21,0-.051.009-.1.014-.155" transform="translate(-52.619 -113.113)" fill="#1a2738"/>
          </g>
        </g>
        <g id="Group_1186186" data-name="Group 1186186" transform="translate(3.534 28.321)">
          <g id="Group_1186185" data-name="Group 1186185" clip-path="url(#clip-path-7)">
            <rect id="Rectangle_455200" data-name="Rectangle 455200" width="94.467" height="131.747" transform="matrix(0.232, -0.973, 0.973, 0.232, -15.502, 65.043)" fill="url(#linear-gradient-2)"/>
          </g>
        </g>
        <g id="Group_1186200" data-name="Group 1186200">
          <g id="Group_1186199" data-name="Group 1186199" clip-path="url(#clip-path)">
            <path id="Path_1000736" data-name="Path 1000736" d="M140.154,118.88l2.216,1.28,1.494-.862-2.216-1.282Zm-1.84,1.063,2.216,1.279,1.5-.864-2.218-1.279Zm-.682-2.518,2.216,1.279,1.494-.864-2.216-1.279ZM136.475,121l2.218,1.279,1.494-.862-2.218-1.279Zm-1.364-5.035,2.216,1.28,1.494-.862-2.216-1.279Zm.682,2.518,2.216,1.279,1.5-.862-2.218-1.28Zm.339,2.716-1.494.864,2.216,1.28,1.494-.862Zm-2.178-1.653,2.218,1.279,1.494-.862-2.218-1.282Zm.506-3.557-1.114-.645-.06-.432,1.519.878,1.494-.864-2.215-1.28-.9.521-.045-.326.641-.37-.752-.436-.188-1.348,4.983,2.875L142.6,111.8l-8.284-4.783-2.063,1.191L124.1,103.5l3.253-1.877,9.159,5.287-.424.246c.524.3-.387-.225,6.269,3.619l.424-.244,9.161,5.287-17.073,9.857-.1-.056-.2-1.474.443.256,1.494-.864-2.2-1.269-.06-.432.083.047,1.494-.864-1.838-1.06-.1-.732,1.257-.725-1.476-.852-.062-.434,1.881,1.087,1.5-.864-2.218-1.279-1.209.7-.045-.327Z" transform="translate(-65.929 -53.988)" fill="#506278"/>
            <g id="Group_1186189" data-name="Group 1186189" transform="translate(66.084 46.594)" style="mix-blend-mode: multiply;isolation: isolate">
              <g id="Group_1186188" data-name="Group 1186188">
                <g id="Group_1186187" data-name="Group 1186187" clip-path="url(#clip-path-9)">
                  <path id="Path_1000737" data-name="Path 1000737" d="M145.324,99.4l-4.348,3.7,4.5,2.634,6.236-2.6Z" transform="translate(-140.976 -99.399)" fill="#938064"/>
                </g>
              </g>
            </g>
            <path id="Path_1000738" data-name="Path 1000738" d="M221.654,163.729v3.125l-35.175,20.308v-3.123Z" transform="translate(-99.065 -86.979)" fill="#a5b3bf"/>
            <path id="Path_1000739" data-name="Path 1000739" d="M246.908,177.058v40.617l-2.706,1.563V178.621Z" transform="translate(-129.73 -94.06)" fill="#717f90"/>
            <path id="Path_1000740" data-name="Path 1000740" d="M241.136,180.392v40.617l-2.706-1.562V181.955Z" transform="translate(-126.664 -95.831)" fill="#dfe3e7"/>
            <path id="Path_1000741" data-name="Path 1000741" d="M189.3,152.216l-16.562,9.562L160.6,154.771l16.563-9.562c1.814,1.048,5.022,2.9,12.135,7.007" transform="translate(-85.317 -77.141)" fill="#f5f6e7"/>
            <path id="Path_1000742" data-name="Path 1000742" d="M213.817,154.3l-.786.783-4.28-2.47Z" transform="translate(-110.897 -81.074)" fill="#dbdbd1"/>
            <path id="Path_1000743" data-name="Path 1000743" d="M217.883,156.994l.786-.783v.252l-.626.624Z" transform="translate(-115.748 -82.985)" fill="#c6c6be"/>
            <path id="Path_1000744" data-name="Path 1000744" d="M197.079,169.911,191.79,175.2l-2.457-.817Z" transform="translate(-100.581 -90.263)" fill="#dbdbd1"/>
            <path id="Path_1000745" data-name="Path 1000745" d="M194.575,174.811l5.289-5.289.593-.343-5.882,5.885Z" transform="translate(-103.366 -89.874)" fill="#c6c6be"/>
            <path id="Path_1000746" data-name="Path 1000746" d="M191.478,180.269v.252l-2.732-.912.275-.157Z" transform="translate(-100.269 -95.332)" fill="#c6c6be"/>
            <path id="Path_1000747" data-name="Path 1000747" d="M184.707,146.369l-6.875,3.969,4.694-4.7Z" transform="translate(-94.472 -77.371)" fill="#dbdbd1"/>
            <path id="Path_1000748" data-name="Path 1000748" d="M189.185,210.384V251l-2.706,1.563V211.947Z" transform="translate(-99.065 -111.765)" fill="#717f90"/>
            <path id="Path_1000749" data-name="Path 1000749" d="M186.488,169.719l16.562-9.562v.252l-16.562,9.562Z" transform="translate(-99.07 -85.082)" fill="#c6c6be"/>
            <path id="Path_1000750" data-name="Path 1000750" d="M183.413,211.947v40.617L180.707,251V210.385Z" transform="translate(-95.999 -111.765)" fill="#dfe3e7"/>
            <path id="Path_1000751" data-name="Path 1000751" d="M91.418,155.3c-8.592-4.962-71.387-41.213-83.88-48.428v-3.123l83.88,48.428Z" transform="translate(-4.004 -55.113)" fill="#dfe3e7"/>
            <path id="Path_1000752" data-name="Path 1000752" d="M164.15,131.911V133.2l-17.073,9.857v-1.286Z" transform="translate(-78.134 -70.076)" fill="#596876"/>
            <path id="Path_1000753" data-name="Path 1000753" d="M168.965,171.59l-6.1-2.034.942-.943Z" transform="translate(-86.519 -89.574)" fill="#dbdbd1"/>
            <path id="Path_1000754" data-name="Path 1000754" d="M162.053,137.87l-1.494.862-2.216-1.28,1.494-.864Z" transform="translate(-84.118 -72.561)" fill="#1a2738"/>
            <path id="Path_1000755" data-name="Path 1000755" d="M162.863,170.625l6.1,2.034,1.028.6-7.129-2.377Z" transform="translate(-86.519 -90.643)" fill="#c6c6be"/>
            <path id="Path_1000756" data-name="Path 1000756" d="M158.131,140.135l-1.5.864-2.216-1.279,1.494-.864Z" transform="translate(-82.034 -73.766)" fill="#1a2738"/>
            <path id="Path_1000757" data-name="Path 1000757" d="M156.674,134.764l-1.494.864-2.216-1.279,1.494-.864Z" transform="translate(-81.26 -70.913)" fill="#1a2738"/>
            <path id="Path_1000758" data-name="Path 1000758" d="M160.6,165.607l12.135,7.007v.252L160.6,165.859Z" transform="translate(-85.318 -87.977)" fill="#f9f9f4"/>
            <path id="Path_1000759" data-name="Path 1000759" d="M154.207,142.4l-1.494.862-2.218-1.28,1.494-.862Z" transform="translate(-79.949 -74.97)" fill="#1a2738"/>
            <path id="Path_1000760" data-name="Path 1000760" d="M152.752,137.031l-1.5.862-2.216-1.28,1.494-.862Z" transform="translate(-79.176 -72.117)" fill="#1a2738"/>
            <path id="Path_1000761" data-name="Path 1000761" d="M151.294,131.66l-1.494.862-2.216-1.28,1.494-.862Z" transform="translate(-78.403 -69.264)" fill="#1a2738"/>
            <path id="Path_1000762" data-name="Path 1000762" d="M150.285,144.665l-1.494.862-2.216-1.28,1.494-.864Z" transform="translate(-77.866 -76.171)" fill="#1a2738"/>
            <path id="Path_1000763" data-name="Path 1000763" d="M148.827,139.295l-1.494.862-2.218-1.28,1.494-.864Z" transform="translate(-77.091 -73.318)" fill="#1a2738"/>
            <path id="Path_1000764" data-name="Path 1000764" d="M147.7,133.922l-1.5.864-1.881-1.087-.05-.358,1.209-.7Z" transform="translate(-76.641 -70.465)" fill="#1a2738"/>
            <path id="Path_1000765" data-name="Path 1000765" d="M150.5,113.731l5.936,3.427-.091.052-5.916-3.417Z" transform="translate(-79.916 -60.418)" fill="#a5b3bf"/>
            <path id="Path_1000766" data-name="Path 1000766" d="M148.072,146.942l-1.494.864-.443-.256-.263-1.876Z" transform="translate(-77.494 -77.387)" fill="#1a2738"/>
            <path id="Path_1000767" data-name="Path 1000767" d="M149.679,113.152l.424-.246v.387l-.07.062Z" transform="translate(-79.515 -59.98)" fill="#596876"/>
            <path id="Path_1000768" data-name="Path 1000768" d="M146.587,128.552l-1.494.864-1.519-.878-.1-.744.9-.521Z" transform="translate(-76.217 -67.612)" fill="#1a2738"/>
            <path id="Path_1000769" data-name="Path 1000769" d="M147.027,141.807l-1.494.864-.083-.047-.261-1.877Z" transform="translate(-77.131 -74.771)" fill="#1a2738"/>
            <path id="Path_1000770" data-name="Path 1000770" d="M145.982,136.673l-1.257.726-.219-1.577Z" transform="translate(-76.768 -72.154)" fill="#1a2738"/>
            <path id="Path_1000771" data-name="Path 1000771" d="M146.967,152.876v.643l-.1-.7Z" transform="translate(-78.023 -81.184)" fill="#283c48"/>
            <path id="Path_1000772" data-name="Path 1000772" d="M146.527,154.31v.643l-.486-.279Z" transform="translate(-77.583 -81.976)" fill="#283c48"/>
            <path id="Path_1000773" data-name="Path 1000773" d="M144.933,131.537l-.949.548-.165-1.193Z" transform="translate(-76.402 -69.535)" fill="#1a2738"/>
            <path id="Path_1000774" data-name="Path 1000774" d="M142.98,133.854c-.612.458-.362.271-1.1.825l-2.511-18.048,1.1-.827c.549,3.951,1.928,13.856,2.511,18.051" transform="translate(-74.036 -61.519)" fill="#596876"/>
            <path id="Path_1000775" data-name="Path 1000775" d="M143.888,126.4l-.641.37-.112-.806Z" transform="translate(-76.039 -66.919)" fill="#1a2738"/>
            <path id="Path_1000776" data-name="Path 1000776" d="M111.5,101.479l2.511,18.049-24.586-14.2c-2.695-19.377.083.6-2.511-18.048Z" transform="translate(-46.173 -46.369)" fill="#506278"/>
            <path id="Path_1000777" data-name="Path 1000777" d="M141.495,114.322l2.063-1.191,8.284,4.783-4.783,2.761-4.983-2.875-.475-3.417Z" transform="translate(-75.168 -60.1)" fill="#405060"/>
            <path id="Path_1000778" data-name="Path 1000778" d="M112.606,99.715l-1.1.827-24.586-14.2,1.1-.827c.724.418,24.356,14.059,24.588,14.2" transform="translate(-46.173 -45.431)" fill="#6a7f93"/>
            <g id="Group_1186192" data-name="Group 1186192" transform="translate(50.588 1.55)" style="mix-blend-mode: multiply;isolation: isolate">
              <g id="Group_1186191" data-name="Group 1186191">
                <g id="Group_1186190" data-name="Group 1186190" clip-path="url(#clip-path-10)">
                  <path id="Path_1000779" data-name="Path 1000779" d="M127.277,17.957a4.983,4.983,0,0,1-.3,1.964c-.8,1.969-2.722,2.105-4.572,1.044l-9.617-5.554a10.716,10.716,0,0,1-4.872-8.632c0-3.14,2.225-4.34,4.872-2.811l9.617,5.552a10.772,10.772,0,0,1,4.87,8.437" transform="translate(-107.918 -3.307)" fill="#eed1e1"/>
                </g>
              </g>
            </g>
            <g id="Group_1186195" data-name="Group 1186195" transform="translate(41.768 5.395)" style="mix-blend-mode: multiply;isolation: isolate">
              <g id="Group_1186194" data-name="Group 1186194">
                <g id="Group_1186193" data-name="Group 1186193" clip-path="url(#clip-path-11)">
                  <path id="Path_1000780" data-name="Path 1000780" d="M107.671,35.619l-4.007-6.077-9.5-5.481A11.21,11.21,0,0,1,89.1,15.29c0-3.347,2.417-4.746,5.317-3.071l9.47,5.469a11.207,11.207,0,0,1,5.064,8.772,3.922,3.922,0,0,1-1.285,3.223ZM89.61,15.29a10.648,10.648,0,0,0,4.811,8.334c.546.316,9.476,5.469,9.6,5.542l3.144,4.769V29.421l.109-.075a3.362,3.362,0,0,0,1.177-2.886,10.648,10.648,0,0,0-4.812-8.334l-9.47-5.469c-2.553-1.473-4.559-.337-4.559,2.633" transform="translate(-89.104 -11.509)" fill="#ebbed5"/>
                </g>
              </g>
            </g>
            <path id="Path_1000781" data-name="Path 1000781" d="M81.8,114.589l.1.715c-.048,0,.387-.106-7.97,2.181v-.743c8.37-2.291,7.822-2.153,7.871-2.153" transform="translate(-39.272 -60.874)" fill="#203844"/>
            <path id="Path_1000782" data-name="Path 1000782" d="M78.619,106.35l.5,3.617-7.646,2.094-2.52-3.069c9.892-2.7,9.616-2.641,9.663-2.641" transform="translate(-36.632 -56.497)" fill="#5d6571"/>
            <path id="Path_1000783" data-name="Path 1000783" d="M85.282,155.293v6.25l-2.706,1.562v-9.373Z" transform="translate(-43.868 -81.669)" fill="#717f90"/>
            <path id="Path_1000784" data-name="Path 1000784" d="M76.805,150.4l2.706,1.562v9.374l-2.706-1.563Z" transform="translate(-40.802 -79.898)" fill="#dfe3e7"/>
            <path id="Path_1000785" data-name="Path 1000785" d="M70.876,111.782l7.645-2.094.035.246c-.047,0,.42-.115-7.871,2.153l-2.858-3.482,10.157-2.78.035.246c-.047,0,.237-.065-9.663,2.641Z" transform="translate(-36.032 -56.218)" fill="#7e8d9e"/>
            <path id="Path_1000786" data-name="Path 1000786" d="M67.828,111.755l2.858,3.483v.742L67.828,112.5Z" transform="translate(-36.033 -59.369)" fill="#3f4f5d"/>
            <path id="Path_1000787" data-name="Path 1000787" d="M51.747,42.987a17.742,17.742,0,0,1,0,8.086c-2.611,9.746-.941,3.514-2.311,8.629l-1.37-.789-.292-1.422,1.364-4.09a9.747,9.747,0,0,0,0-5.928L47.9,43.361,50,34.424Z" transform="translate(-25.379 -18.287)" fill="#99c567"/>
            <path id="Path_1000788" data-name="Path 1000788" d="M46.682,86.219c-.951,1.354-4.344,1.858-6.281.562a1.543,1.543,0,0,1-.041-2.792l.692,2.29,1.37.213.953-2.859.292,1.422,1.37.789.575-2.146c1.126.537,1.789,1.5,1.071,2.52" transform="translate(-20.98 -44.429)" fill="#5a3c24"/>
            <path id="Path_1000789" data-name="Path 1000789" d="M44.97,55.675a9.751,9.751,0,0,1,0,5.928c-1.644,4.931-1.13,3.386-2.317,6.949l-1.37-.213c-1.053-3.482-.773-2.56-.893-2.954a9.821,9.821,0,0,1-.093-5.639c.756-2.558,1.48-5.014,2.918-9.882.647,2.145.25.829,1.755,5.81" transform="translate(-21.211 -26.49)" fill="#81b66b"/>
            <path id="Path_1000790" data-name="Path 1000790" d="M42.6,46.755,40.7,53.2a23.438,23.438,0,0,1-.244-8.469l1.129-5.378Z" transform="translate(-21.332 -20.904)" fill="#6b9a55"/>
            <path id="Path_1000791" data-name="Path 1000791" d="M40.8,87.313c-2.966-.71-3.682-2.955-1.343-4.225h0l.143.473a1.543,1.543,0,0,0,.041,2.792c1.943,1.3,5.334.787,6.281-.562.712-1.014.061-1.98-1.071-2.52l.118-.443c2.327.9,2.608,2.8.657,3.929a6.986,6.986,0,0,1-4.828.554" transform="translate(-20.221 -44.003)" fill="#e0be95"/>
            <path id="Path_1000792" data-name="Path 1000792" d="M38.394,88.4c1.237,1.726,5.051,2.086,7.226.831a2.416,2.416,0,0,0,1.257-1.468c.281,1.231-.954,2.152-2.144,2.549a6.826,6.826,0,0,1-5.667-.581,2.718,2.718,0,0,1-.744-.752.066.066,0,0,1-.007-.01,2.36,2.36,0,0,1-.26-1.484,1.687,1.687,0,0,0,.339.915" transform="translate(-20.214 -46.477)" fill="#e48c79"/>
            <path id="Path_1000793" data-name="Path 1000793" d="M36.047,87.32a2.343,2.343,0,0,0,.261,1.484,2.253,2.253,0,0,0,.27.347,3.362,3.362,0,0,0,.874.657,6.107,6.107,0,0,0,2.239.649,6.751,6.751,0,0,0,3.921-.707A2.057,2.057,0,0,0,44.868,87.6a1.4,1.4,0,0,0,.035-.426h0c3,3.078,1.981,7.5-1.389,10.241a5.481,5.481,0,0,1-6.077,0c-3.747-3.137-4.121-7.437-1.391-10.24a1.238,1.238,0,0,0,0,.145" transform="translate(-18.206 -46.31)" fill="#dd5c67"/>
            <path id="Path_1000794" data-name="Path 1000794" d="M27.559,121.967v37.494l-2.706,1.562V120.407Z" transform="translate(-13.203 -63.965)" fill="#717f90"/>
            <path id="Path_1000795" data-name="Path 1000795" d="M19.082,117.073l2.706,1.562v40.618l-2.706-1.563Z" transform="translate(-10.137 -62.194)" fill="#dfe3e7"/>
            <g id="Group_1186198" data-name="Group 1186198" transform="translate(8.945 29.315)" opacity="0.74" style="mix-blend-mode: multiply;isolation: isolate">
              <g id="Group_1186197" data-name="Group 1186197">
                <g id="Group_1186196" data-name="Group 1186196" clip-path="url(#clip-path-12)">
                  <path id="Path_1000796" data-name="Path 1000796" d="M82.577,153.733v9.373l15.583-.378-4.851-2.911-8.026.045v-4.569Z" transform="translate(-52.813 -110.984)" fill="#938064"/>
                  <path id="Path_1000797" data-name="Path 1000797" d="M24.493,120.2c-2.881-1.658-3.464-2.017-5.411-3.123v4.469c1.207.717.232.256,2.706,1.726v35.986l2.712-1.635c-.045-10.229.027-25.446-.006-37.422M94.846,165.5v21.221c.027-5.366,0-21.221,0-21.221m37.88-23.433a30.318,30.318,0,0,0,0-3.125c-.044,0-29.342,16.945-35.175,20.31-.01.434.01,2.693,0,3.123-.165-.062-1.163-.618-2.705-1.494v4.62l2.705,1.37v36.122l2.821-1.453c-.178-1.523-.091,3.832-.163-40.686,0,0,21.513-12.517,21.695-12.538.077,0,0,3.008,0,37.513l2.705,1.577,2.632-1.554c.1-26.63.085-17.4.074-40.661l5.411-3.123" transform="translate(-19.082 -91.509)" fill="#938064"/>
                  <path id="Path_1000798" data-name="Path 1000798" d="M140.469,115.731s-.978.717-1.1.827c2.215,15.8,2.512,18.048,2.512,18.048s10.985,1.692,11.469,1.755c.171-.078.907-.384.907-.526s-6.268-3.676-6.268-3.871c0-.17,9.681-5.72,12.731-7.478-.125-.085-.662-.347-.662-.347v-.856s-6.341,3.7-12.97,7.536c-2.042-1.172-3.218-1.761-4.895-2.723-.051-.373-1.72-12.363-1.72-12.363" transform="translate(-82.981 -90.796)" fill="#938064"/>
                  <path id="Path_1000799" data-name="Path 1000799" d="M73.836,116.745v.742l1.192.155,6.863-1.728-.184-1.322Z" transform="translate(-48.169 -90.19)" fill="#938064"/>
                  <path id="Path_1000800" data-name="Path 1000800" d="M45.2,62.537c-.083,1.741-.244,5.135-.294,6.191l-.207-.069a2.19,2.19,0,0,1-.418-1.068c-.116-.549-.506-.273-.506-.273-1.375,4.519-1.108,3.523-2.589,7.966,0,0,2.636.029,4.87.065v.171c0,.215-1.582.945-1.954,1.126l-2.47.231c0,.159-.158.4,0,.47,1.6.675,4.726.084,4.887.246a.61.61,0,0,1,.006.5,6.066,6.066,0,0,1-1.1,1.351,12.74,12.74,0,0,1-1.986,1.58,14.156,14.156,0,0,1-2.095.992,10.964,10.964,0,0,1-2.439.484,15.927,15.927,0,0,1-1.734-.117,17.058,17.058,0,0,0,1.808,1.948,13.74,13.74,0,0,0,3.852,2.112l3.712.2c2.757-.474,3.61-.649,5.79-2.312l3.033.238,2.217-.681c.2.025,4.408.47,4.408.47L61.821,83s-.59-.027-1.106-.061c-.254-.017-.461-.113-.461-.215s.166-.184.368-.184.369-.062.369-.139c0-.184-5.921-1.189-6.176-1.234l-3.318.054a15.119,15.119,0,0,0-2.76-1.181l-.6-.112c.014-.207.155-2.254.169-2.458L47.9,76.394a6.615,6.615,0,0,0-.94-1.683,2.133,2.133,0,0,1-.534-.921,1.881,1.881,0,0,0-.558-.87l-.558-.558c-.157.04-.912.253-.912.139s1.284-4.813,1.332-4.986a35.2,35.2,0,0,0-.53-4.977" transform="translate(-28.693 -62.537)" fill="#938064"/>
                  <path id="Path_1000801" data-name="Path 1000801" d="M150.424,192.972c-6.664-3.793-23.253-13.468-26.633-15.442Z" transform="translate(-74.708 -123.626)" fill="#938064"/>
                  <path id="Path_1000802" data-name="Path 1000802" d="M244.727,302.641l.444.254Z" transform="translate(-138.954 -190.09)" fill="#938064"/>
                  <path id="Path_1000803" data-name="Path 1000803" d="M245.675,303.184c.207.118.426.244.661.38Z" transform="translate(-139.457 -190.378)" fill="#938064"/>
                  <path id="Path_1000804" data-name="Path 1000804" d="M250.6,306.01c.292.165.6.345.938.537Z" transform="translate(-142.076 -191.88)" fill="#938064"/>
                </g>
              </g>
            </g>
            <path id="Path_1000805" data-name="Path 1000805" d="M182.008,121.8a2.01,2.01,0,0,1,.337.032,11.359,11.359,0,0,1-3.924,2,4.822,4.822,0,0,1,3.588-2.031" transform="translate(-94.784 -64.704)" fill="#d8aa7d"/>
            <path id="Path_1000806" data-name="Path 1000806" d="M179.637,122.375a3.382,3.382,0,0,1-1.438.47c-.49,0-.814-.284-.821-1.026-.124.035-.249.066-.375.092a.621.621,0,0,1-.549-.5c2.063-.615,6.134-3.656,9.452-4.29,4.026-1.941,11.407-3.173,15.673-7.13a1.884,1.884,0,0,1,.41,1.162c0,.1-.079.622-.129.931-2.858,3.5-9.591,4.645-14,4.972l-.059-.007-.023.013c-3.7,2.089-4.469,5.787-7.461,5.787a2.7,2.7,0,0,1-.674-.085,1.082,1.082,0,0,1-.023-.222,1.042,1.042,0,0,1,.013-.167" transform="translate(-93.739 -58.432)" fill="#c79a6d"/>
            <path id="Path_1000807" data-name="Path 1000807" d="M175.969,115.535a3.9,3.9,0,0,1-.225-.319c.267-.494.547-.982.851-1.45a19.594,19.594,0,0,0,1.858-1.08,13.748,13.748,0,0,1,3.671-.633,4.723,4.723,0,0,1,2.033.4c6.536-1.089,6.293-2.792,10.322-5.426a6.412,6.412,0,0,1,.64-.362c.334-.168.69-.323,1.045-.482h0a7.259,7.259,0,0,1,3.747,1.289,2.845,2.845,0,0,1,.492.5c-4.266,3.957-11.647,5.189-15.673,7.13-3.318.633-7.389,3.676-9.452,4.29a.738.738,0,0,1-.01-.118,1.394,1.394,0,0,1,.127-.528c1.455-.891,2.929-1.741,4.443-2.534.086-.115.172-.232.251-.347l-.368-.044c-3.9,1.054-4.138,1.629-5.22,1.629a1.294,1.294,0,0,1-.156-.008,2.144,2.144,0,0,1-.1-.661c0-.022,0-.044,0-.065a12.912,12.912,0,0,1,1.726-1.175m.232,0a11.38,11.38,0,0,0,3.924-2,2.063,2.063,0,0,0-.337-.032,4.82,4.82,0,0,0-3.588,2.031" transform="translate(-92.565 -56.408)" fill="#e0be95"/>
            <path id="Path_1000808" data-name="Path 1000808" d="M143.156,91.068a1.96,1.96,0,0,1-.928.767,1.56,1.56,0,0,1-.328-.391,13.444,13.444,0,0,1,.48-1.948c.028-.013.055-.027.083-.041a8.664,8.664,0,0,1,.632-1.935c2-3.414,3.392-2.929,3.831-6.022,2.6-5.44,2.49-7.83,3.163-9.919a2.988,2.988,0,0,1,1.269-.258,5.106,5.106,0,0,1,2.8.771c-.773,3.042-4.153,6.14-4.153,9.139a3.677,3.677,0,0,0,.22,1.266h0a13.421,13.421,0,0,0,1.082,4c.033.465.057.925.057,1.391a11.041,11.041,0,0,1-.066,1.239c-.359.638-.751,1.235-1.154,1.835a.855.855,0,0,1-.218.027,1.305,1.305,0,0,1-.505-.116,1.259,1.259,0,0,1-.016-.21,5.675,5.675,0,0,1,.6-1.955,3.448,3.448,0,0,0-.717-1.752,1.37,1.37,0,0,0-.269-.026,2.072,2.072,0,0,0-1,.3,10.235,10.235,0,0,0-1.178,4.715,2.058,2.058,0,0,1-.547.744,1.312,1.312,0,0,1-.224.02,1.345,1.345,0,0,1-.4-.063,2.365,2.365,0,0,1-.187-.393c0-.032,0-.064,0-.1a22.025,22.025,0,0,1,.973-4.947q-.05-.144-.114-.288a2.1,2.1,0,0,0-.666.475,1.6,1.6,0,0,0-.062.151c-.638,1.8-.941,3.237-1.582,4.7-.041.052-.082.1-.124.155-.128.022-.255.046-.381.069a2.009,2.009,0,0,1-.441-.492,6.532,6.532,0,0,1,.074-.91" transform="translate(-75.383 -37.889)" fill="#e0be95"/>
            <path id="Path_1000809" data-name="Path 1000809" d="M159.41,83.371a3.664,3.664,0,0,1-.22-1.266c0-3,3.381-6.1,4.153-9.138a3.769,3.769,0,0,1,1.391,1.632c-1.65,2.6-3.9,5.363-5.331,8.487v.027c0,.085,0,.172.007.258" transform="translate(-84.568 -38.763)" fill="#c79a6d"/>
            <path id="Path_1000810" data-name="Path 1000810" d="M146.475,93.032c-.439,3.094-1.826,2.609-3.831,6.022a8.69,8.69,0,0,0-.632,1.934l-.083.041a3.6,3.6,0,0,1-.552.218,3.653,3.653,0,0,1-.326-.5c1.047-3.147,3.864-6.224,5.424-7.719" transform="translate(-74.932 -49.422)" fill="#d8aa7d"/>
            <path id="Path_1000811" data-name="Path 1000811" d="M98.249,23.714a1.613,1.613,0,0,0-.841-1.272c-.491-.256-.637.036-.666.114a1.548,1.548,0,0,0-.666-.883c-.327-.207-.829-.3-.841.3-.024,1.2,1.507,2.916,1.507,2.916s1.531.049,1.507-1.176" transform="translate(-50.592 -11.43)" fill="#e5332a"/>
            <path id="Path_1000812" data-name="Path 1000812" d="M109.077,29.965a1.613,1.613,0,0,0-.841-1.272c-.491-.256-.637.036-.666.114a1.548,1.548,0,0,0-.666-.883c-.327-.207-.829-.3-.841.3-.024,1.2,1.507,2.916,1.507,2.916s1.531.049,1.507-1.176" transform="translate(-56.345 -14.751)" fill="#e5332a"/>
            <path id="Path_1000813" data-name="Path 1000813" d="M119.905,36.217a1.614,1.614,0,0,0-.841-1.272c-.491-.256-.637.036-.666.114a1.548,1.548,0,0,0-.666-.883c-.327-.207-.829-.3-.841.3-.024,1.2,1.507,2.916,1.507,2.916s1.531.049,1.507-1.176" transform="translate(-62.097 -18.072)" fill="#e5332a"/>
          </g>
        </g>
      </g>
    </g>
  </g>
</svg>
