<svg xmlns="http://www.w3.org/2000/svg" xmlns:xlink="http://www.w3.org/1999/xlink" width="820" height="441" viewBox="0 0 820 441">
  <defs>
    <linearGradient id="linear-gradient" y1="0.5" x2="1" y2="0.5" gradientUnits="objectBoundingBox">
      <stop offset="0" stop-color="#b39fa8"/>
      <stop offset="1" stop-color="#d4c9ce"/>
    </linearGradient>
    <linearGradient id="linear-gradient-2" y1="0.5" x2="1" y2="0.5" gradientUnits="objectBoundingBox">
      <stop offset="0.049" stop-color="#feb9b8"/>
      <stop offset="0.992" stop-color="#fea5a4"/>
    </linearGradient>
    <linearGradient id="linear-gradient-3" x1="0.047" y1="0.483" x2="3.195" y2="0.626" gradientUnits="objectBoundingBox">
      <stop offset="0.266" stop-color="#f07a7a"/>
      <stop offset="0.992" stop-color="#fea5a4"/>
    </linearGradient>
    <linearGradient id="linear-gradient-4" x1="0" y1="0.5" y2="0.5" xlink:href="#linear-gradient-2"/>
    <linearGradient id="linear-gradient-5" x1="0" y1="0.5" y2="0.5" xlink:href="#linear-gradient-2"/>
    <linearGradient id="linear-gradient-6" x1="0" y1="0.5" x2="1" y2="0.5" xlink:href="#linear-gradient-3"/>
    <linearGradient id="linear-gradient-7" x1="0" y1="0.5" y2="0.5" xlink:href="#linear-gradient-2"/>
    <linearGradient id="linear-gradient-8" x1="0" y1="0.5" x2="1" y2="0.5" xlink:href="#linear-gradient-3"/>
    <linearGradient id="linear-gradient-9" x1="0" y1="0.5" y2="0.5" xlink:href="#linear-gradient-2"/>
    <linearGradient id="linear-gradient-10" x1="0" y1="0.5" x2="1" y2="0.5" xlink:href="#linear-gradient-3"/>
    <linearGradient id="linear-gradient-11" x1="0" y1="0.5" y2="0.5" xlink:href="#linear-gradient-2"/>
    <linearGradient id="linear-gradient-12" x1="0.536" y1="0.499" x2="0.258" y2="0.552" xlink:href="#linear-gradient-2"/>
    <linearGradient id="linear-gradient-14" x1="0.002" y1="0.5" x2="1.001" y2="0.5" xlink:href="#linear-gradient-3"/>
    <linearGradient id="linear-gradient-15" x1="-0.004" y1="0.499" x2="1" y2="0.499" xlink:href="#linear-gradient-3"/>
    <linearGradient id="linear-gradient-16" x1="0.001" y1="0.5" x2="1.003" y2="0.5" xlink:href="#linear-gradient-3"/>
    <linearGradient id="linear-gradient-17" x1="0" y1="0.5" x2="1" y2="0.5" xlink:href="#linear-gradient-3"/>
    <linearGradient id="linear-gradient-18" x1="-0.001" y1="0.5" x2="1" y2="0.5" xlink:href="#linear-gradient-3"/>
    <linearGradient id="linear-gradient-19" x1="0" y1="0.498" y2="0.498" xlink:href="#linear-gradient-2"/>
    <linearGradient id="linear-gradient-20" x1="0" y1="0.5" y2="0.5" xlink:href="#linear-gradient-2"/>
    <linearGradient id="linear-gradient-21" x1="33.915" y1="0.5" x2="34.915" y2="0.5" xlink:href="#linear-gradient"/>
    <linearGradient id="linear-gradient-22" x1="248.524" y1="0.5" x2="249.524" y2="0.5" xlink:href="#linear-gradient-2"/>
    <linearGradient id="linear-gradient-23" x1="259.544" y1="8.051" x2="260.775" y2="8.051" xlink:href="#linear-gradient-2"/>
    <linearGradient id="linear-gradient-24" x1="406.624" y1="9.923" x2="407.97" y2="9.923" xlink:href="#linear-gradient-3"/>
    <linearGradient id="linear-gradient-25" x1="177.75" y1="0.5" x2="178.75" y2="0.5" xlink:href="#linear-gradient-2"/>
    <linearGradient id="linear-gradient-26" x1="1847.363" y1="0.5" x2="1848.365" y2="0.5" xlink:href="#linear-gradient-2"/>
    <linearGradient id="linear-gradient-27" x1="513.378" y1="0.499" x2="514.378" y2="0.499" xlink:href="#linear-gradient-2"/>
    <linearGradient id="linear-gradient-28" x1="452.433" y1="0.5" x2="453.434" y2="0.5" xlink:href="#linear-gradient-3"/>
    <linearGradient id="linear-gradient-29" x1="632.599" y1="0.501" x2="633.599" y2="0.501" xlink:href="#linear-gradient-3"/>
    <linearGradient id="linear-gradient-30" x1="269.339" y1="0.5" x2="270.339" y2="0.5" xlink:href="#linear-gradient-2"/>
    <linearGradient id="linear-gradient-31" x1="661.085" y1="0.5" x2="662.086" y2="0.5" xlink:href="#linear-gradient-3"/>
    <linearGradient id="linear-gradient-32" x1="75.371" y1="0.5" x2="76.371" y2="0.5" xlink:href="#linear-gradient-2"/>
    <linearGradient id="linear-gradient-33" x1="2624.142" y1="0.499" x2="2625.143" y2="0.499" xlink:href="#linear-gradient-3"/>
    <linearGradient id="linear-gradient-34" x1="871.905" y1="0.5" x2="872.906" y2="0.5" xlink:href="#linear-gradient-3"/>
    <linearGradient id="linear-gradient-35" x1="1383.414" y1="0.5" x2="1384.415" y2="0.5" xlink:href="#linear-gradient-3"/>
    <linearGradient id="linear-gradient-36" x1="79.695" y1="0.854" x2="79.666" y2="-0.321" xlink:href="#linear-gradient-3"/>
  </defs>
  <g id="img1" transform="translate(415.14)">
    <g id="Group_1183432" data-name="Group 1183432" transform="translate(-415.14)">
      <g id="Group_1183431" data-name="Group 1183431">
        <rect id="Rectangle_455032" data-name="Rectangle 455032" width="820" height="441" fill="#41ab72"/>
      </g>
    </g>
    <g id="Group_1183479" data-name="Group 1183479" transform="translate(-243.599 52.124)">
      <g id="Group_1183443" data-name="Group 1183443" transform="translate(0 0)">
        <path id="Path_999149" data-name="Path 999149" d="M236.614,415.661,19.038,290.045l256.873-148.86L493.486,266.8Z" transform="translate(-19.038 -78.248)" fill="#28925f"/>
        <path id="Path_999150" data-name="Path 999150" d="M236.932,384.774,19.356,259.157V241.692L480.8,243.973Z" transform="translate(-18.992 -63.716)" fill="#a79e81"/>
        <path id="Path_999151" data-name="Path 999151" d="M209.448,370.147v17.465l256.5-148.089.01-17.466Z" transform="translate(8.492 -66.555)" fill="#a79e81"/>
        <path id="Path_999152" data-name="Path 999152" d="M236.932,385.094,19.356,259.478l243.874-140.8L480.8,244.295Z" transform="translate(-18.992 -81.502)" fill="#e7dab2"/>
        <g id="Group_1183441" data-name="Group 1183441" transform="translate(111.157)">
          <g id="Group_1183435" data-name="Group 1183435" transform="translate(30.465)">
            <g id="Group_1183433" data-name="Group 1183433" transform="translate(0 10.772)">
              <path id="Path_999153" data-name="Path 999153" d="M189.574,194.77l-46.8-29.99,119.806-69.17,46.8,29.99Z" transform="translate(-142.771 -95.609)" fill="#e7dab2"/>
            </g>
            <g id="Group_1183434" data-name="Group 1183434" transform="translate(119.806)">
              <path id="Path_999154" data-name="Path 999154" d="M288.676,119.59,389.116,204.5l12.626-7.29L301.3,112.3Z" transform="translate(-241.481 -82.424)" fill="#e7e0de"/>
              <path id="Path_999155" data-name="Path 999155" d="M247.443,93.487l47.195,29.877,12.626-7.289L260.068,86.2Z" transform="translate(-247.443 -86.198)" fill="#f7f5e0"/>
              <path id="Path_999156" data-name="Path 999156" d="M389.055,186.486l52.759,30.461-12.626,7.289-52.76-30.46Z" transform="translate(-228.794 -71.698)" fill="#f7f5e0"/>
              <path id="Path_999157" data-name="Path 999157" d="M435.15,223.352V213.1l-12.626,7.289v10.254Z" transform="translate(-222.13 -67.851)" fill="#c8b7b0"/>
              <path id="Path_999158" data-name="Path 999158" d="M395.078,207.355l52.759,30.46v10.254l-51.2-29.559L294.246,126.039l-46.8-29.99V92.566l47.195,29.877Z" transform="translate(-247.443 -85.277)" fill="#9b8081"/>
            </g>
          </g>
          <g id="Group_1183440" data-name="Group 1183440" transform="translate(0 10.772)">
            <g id="Group_1183438" data-name="Group 1183438" transform="translate(99.593)">
              <g id="Group_1183437" data-name="Group 1183437">
                <g id="Group_1183436" data-name="Group 1183436">
                  <path id="Path_999159" data-name="Path 999159" d="M342.728,289.073l-50.1-30.192,97.48-56.28,51.2,29.559Z" transform="translate(-190.233 -80.14)" fill="#e7dab2"/>
                  <path id="Path_999160" data-name="Path 999160" d="M203.167,178.091l102.394,92.471,97.48-56.28L300.648,121.811Z" transform="translate(-203.167 -91.821)" fill="#d0c39a"/>
                  <path id="Path_999161" data-name="Path 999161" d="M448.477,247.629H434.333l-45.886-24.46L291.841,128.92l-48.82-30.684,5.061-2.627,46.8,29.99L397.28,218.07Z" transform="translate(-197.405 -95.609)" fill="#d9d4de"/>
                </g>
              </g>
            </g>
            <g id="Group_1183439" data-name="Group 1183439" transform="translate(21.886 46.141)">
              <path id="Path_999162" data-name="Path 999162" d="M191.882,177.64l100.44,84.911,12.626-7.29L204.508,170.35Z" transform="translate(-127.091 -130.944)" fill="#e7e0de"/>
              <path id="Path_999163" data-name="Path 999163" d="M135.275,143.212l64.791,39.406,12.626-7.29L147.9,135.922Z" transform="translate(-135.275 -135.922)" fill="#f7f5e0"/>
              <path id="Path_999164" data-name="Path 999164" d="M292.261,244.535l52.345,28.222-12.626,7.289-52.345-28.221Z" transform="translate(-114.403 -120.219)" fill="#f7f5e0"/>
              <path id="Path_999165" data-name="Path 999165" d="M337.994,279.445V269.192l-12.626,7.289v10.254Z" transform="translate(-107.791 -116.654)" fill="#c8b7b0"/>
              <path id="Path_999166" data-name="Path 999166" d="M300.507,266.607l52.345,28.221v10.254L135.275,179.466V142.291L200.066,181.7Z" transform="translate(-135.275 -135.001)" fill="#9b8081"/>
            </g>
            <path id="Path_999167" data-name="Path 999167" d="M355.606,300.388H334.389l-52.307-27.37L214.352,250.24l-98.2-62.839,21.878-12.63h0Z" transform="translate(-116.154 -84.164)" fill="#c3bbcb"/>
          </g>
        </g>
        <g id="Group_1183442" data-name="Group 1183442" transform="translate(45.044 137.803)">
          <g id="XMLID_2084_">
            <g id="XMLID_2741_" transform="translate(217.575 125.618)">
              <path id="Path_999168" data-name="Path 999168" d="M273.615,329.665l-25.132,14.462V330.806l25.132-14.462Z" transform="translate(-248.483 -316.344)" fill="#b56400"/>
            </g>
            <g id="XMLID_2739_">
              <path id="Path_999169" data-name="Path 999169" d="M275.967,346.674,58.392,221.057l25.132-14.463L301.1,332.212Z" transform="translate(-58.392 -206.594)" fill="#ffb71a"/>
            </g>
          </g>
          <g id="XMLID_1252_" transform="translate(19.548 1.607)">
            <g id="XMLID_1254_" transform="translate(2.792)">
              <path id="Path_999170" data-name="Path 999170" d="M295.483,335.588,77.91,209.971V208L295.483,333.616Z" transform="translate(-77.91 -207.998)" fill="#d98600"/>
            </g>
            <g id="XMLID_1253_" transform="translate(1.71 1.972)">
              <path id="Path_999171" data-name="Path 999171" d="M76.965,210.342,292.828,334.974v1.973l2.79-1.606L78.045,209.721Z" transform="translate(-76.965 -209.721)" fill="#f29900"/>
            </g>
            <g id="XMLID_1263_">
              <path id="Path_999172" data-name="Path 999172" d="M75.471,209.607,78.263,208v1.973l-1.082.62Z" transform="translate(-75.471 -207.998)" fill="#a8592c"/>
            </g>
          </g>
          <g id="XMLID_5048_" transform="translate(13.963 4.821)">
            <g id="XMLID_5051_" transform="translate(2.792)">
              <path id="Path_999173" data-name="Path 999173" d="M290.6,338.4,73.03,212.779v-1.973L290.6,336.424Z" transform="translate(-73.03 -210.806)" fill="#d98600"/>
            </g>
            <g id="XMLID_5050_" transform="translate(1.711 1.972)">
              <path id="Path_999174" data-name="Path 999174" d="M72.086,213.151,287.948,337.782v1.973l2.792-1.607L73.166,212.529Z" transform="translate(-72.086 -212.529)" fill="#f29900"/>
            </g>
            <g id="XMLID_5049_">
              <path id="Path_999175" data-name="Path 999175" d="M70.591,212.415l2.792-1.609v1.973l-1.08.62Z" transform="translate(-70.591 -210.806)" fill="#a8592c"/>
            </g>
          </g>
          <g id="XMLID_5056_" transform="translate(8.378 8.035)">
            <g id="XMLID_5059_" transform="translate(2.792)">
              <path id="Path_999176" data-name="Path 999176" d="M285.726,341.2,68.151,215.586v-1.972L285.726,339.231Z" transform="translate(-68.151 -213.614)" fill="#d98600"/>
            </g>
            <g id="XMLID_5058_" transform="translate(1.711 1.972)">
              <path id="Path_999177" data-name="Path 999177" d="M67.207,215.959l215.862,124.63v1.974l2.79-1.607L68.286,215.337Z" transform="translate(-67.207 -215.337)" fill="#f29900"/>
            </g>
            <g id="XMLID_5057_">
              <path id="Path_999178" data-name="Path 999178" d="M65.712,215.223l2.792-1.609v1.972l-1.08.622Z" transform="translate(-65.712 -213.614)" fill="#a8592c"/>
            </g>
          </g>
          <g id="XMLID_5052_" transform="translate(2.794 11.249)">
            <g id="XMLID_5055_" transform="translate(2.79)">
              <path id="Path_999179" data-name="Path 999179" d="M280.846,344.012,63.271,218.394v-1.972L280.846,342.039Z" transform="translate(-63.271 -216.422)" fill="#d98600"/>
            </g>
            <g id="XMLID_5054_" transform="translate(1.71 1.971)">
              <path id="Path_999180" data-name="Path 999180" d="M62.327,218.767,278.19,343.4v1.974l2.79-1.607L63.407,218.144Z" transform="translate(-62.327 -218.144)" fill="#f29900"/>
            </g>
            <g id="XMLID_5053_">
              <path id="Path_999181" data-name="Path 999181" d="M60.833,218.03l2.79-1.608v1.972l-1.08.622Z" transform="translate(-60.833 -216.422)" fill="#a8592c"/>
            </g>
          </g>
        </g>
      </g>
      <g id="Group_1183448" data-name="Group 1183448" transform="translate(65.329 14.845)">
        <path id="Path_999182" data-name="Path 999182" d="M160.041,259.744c-.095-.483-4.173-1.647-4.173-1.647l-.372.087L118.075,240.73c7.5-4.764,7.252-12.154-.767-16.784-8.259-4.768-21.609-4.792-29.816-.054s-8.167,12.446.093,17.214c7.3,4.218,18.575,4.709,26.765,1.491l39.55,18.447c.007.018.118.278.146.326s2.951,1.743,3.443,2.027,1.567-.607,2.1-1.612A2.877,2.877,0,0,0,160.041,259.744Z" transform="translate(-75.356 -81.647)" fill="url(#linear-gradient)"/>
        <g id="Group_1183446" data-name="Group 1183446">
          <path id="Path_999183" data-name="Path 999183" d="M110.923,225.774a29.861,29.861,0,0,1-1.847-2.847c-.243-.605-1.332-1.09-1.332-1.09a34.062,34.062,0,0,0-3.544,2c-.423.423-1.665,1.544-1.665,1.544l-1.211.151s-1.847-1-2.211-1.726a3.832,3.832,0,0,1,0-2.1l.287-1.716a4.852,4.852,0,0,0-1.256,2.056c-.09.878-.16,2.744-.16,2.744a4.564,4.564,0,0,0-.082,1.86,4.914,4.914,0,0,0,2.786,2.544c1.665.666,1.522.272,2.563,1.03s3.706,3.422,5.916,4.119a9.547,9.547,0,0,0,5.632,0,10.528,10.528,0,0,0,1.938-1.847l.243-2a15.918,15.918,0,0,0-.909-2.271C115.829,227.955,110.923,225.774,110.923,225.774Z" transform="translate(-72.976 -81.699)" fill="#f04340"/>
          <path id="Path_999184" data-name="Path 999184" d="M102.108,229.919s-1.031-3.411-1.636-3.483a11.692,11.692,0,0,0-4.179,1.15c-.817.545-2.877,1.575-2.877,1.575a6.8,6.8,0,0,1-1.454-1.15,7.951,7.951,0,0,1-.394-2.119l.224-1.387s-.528-.174-.618,0a29.912,29.912,0,0,0-.666,3.839c0,.636.061,2,.061,2a16.9,16.9,0,0,0,1.726,2.84,15.23,15.23,0,0,1,1.393,1.764s1.332,3.089,3.211,4.149,2.817,1.211,5.481,1.091,4.361-.848,4.937-1.424a2.387,2.387,0,0,0,.636-1.363,4.143,4.143,0,0,0-.7-2.544Z" transform="translate(-74.034 -81.058)" fill="#f04340"/>
          <path id="Path_999185" data-name="Path 999185" d="M125.3,181.844a6.118,6.118,0,0,1-1.36,2.769,3.783,3.783,0,0,1-1.178.734l-.124.044-.588-.189-.225.174a2.94,2.94,0,0,1-.844.486.826.826,0,0,1-.407-.225v-.008a3.3,3.3,0,0,1-.291-.262l-.007-.007s-.065.029-.232-.05c-.247-.117-.466-.13-.56-.451a.6.6,0,0,1-.043-.174,1.165,1.165,0,0,1,.2-.844l.473-.981.334-1.562-.508,1.032v.015l-.429.865a3.125,3.125,0,0,1-.5.676c-.174.13-.356.117-.473-.145a.575.575,0,0,1-.052-.13c-.117-.386.451-1.766.48-2.267s-.117-2.98-.117-2.98a28,28,0,0,0-2.289-4.042c-1.141-1.527-3.38-10.772-4.623-13.192-.429-.836-1.432-5.684-2.421-11.687-1.875-11.4-3.686-26.958-1.3-27.017,3.634-.094,4.092,6.483,4.027,7.843s1.091,14.3,1.606,15.736,2.82,7.152,3.2,9.762,3.7,15.06,4.448,16.4,3.111,4.4,3.315,5.016A32.351,32.351,0,0,1,125.3,181.844Z" transform="translate(-71.638 -95.806)" fill="url(#linear-gradient-2)"/>
          <path id="Path_999186" data-name="Path 999186" d="M87.944,123.578s-11.1,5.075-11.767,6.34,4.246,29.719,4.989,31.966,11.719-4.452,11.719-4.452l9.232-19.965S92.944,121.659,87.944,123.578Z" transform="translate(-76.115 -95.662)" fill="#b42a03"/>
          <path id="Path_999187" data-name="Path 999187" d="M122.857,180.48a11.49,11.49,0,0,0-.727,1.091c-.022.087.13.261.327.443l-.124.043-.588-.189-.225.174c-.052-.1-.087-.189-.087-.189l.334-.887.668-1-.458-.72-.421.341-.937,2.028s-.371.371-.349.683a3.285,3.285,0,0,1-.291-.262,1.191,1.191,0,0,1,.109-.465c.152-.349.7-1.439.7-1.439l.436-1.2h-.844l-.5.924s-.414.989-.7,1.671a.6.6,0,0,1-.043-.174,1.164,1.164,0,0,1,.2-.844l.473-.981.334-1.562L119.639,179a1,1,0,0,0-.037-.516,1.269,1.269,0,0,0-.269-.319,4.6,4.6,0,0,0-.785,1.1,11.773,11.773,0,0,1-.312,1.141.574.574,0,0,1-.051-.13c-.117-.386.451-1.766.48-2.267s-.117-2.98-.117-2.98a28,28,0,0,0-2.289-4.042c-1.141-1.527-3.38-10.772-4.623-13.192-.429-.836-1.432-5.684-2.421-11.687.807-.588,1.526-.879,1.649-.349.276,1.134,1.09,8.678,1.5,10.038s3.584,4.819,4.172,9.492.64,5.183,1,5.677.9,3.263,2.69,3.619,1.992-1.723,1.992-1.723a15.629,15.629,0,0,1,.894,1.345c.087.247.56,2.835.56,2.835l.3,1.425S123.039,180.174,122.857,180.48Z" transform="translate(-71.329 -92.472)" fill="url(#linear-gradient-3)"/>
          <path id="Path_999188" data-name="Path 999188" d="M121.327,176.726a.628.628,0,0,0,.8-.591c.046-.757-.591-2.62-.576-3.71s-.09-2.256-.09-2.256a10.857,10.857,0,0,0-.742-2.589,3.162,3.162,0,0,0-1.59-1.59s-1.862.272-2.1.848a6.37,6.37,0,0,0,1.257,3.906,11.451,11.451,0,0,1,1.3,1.469s.324,1.075.567,1.8.182,1.09.363,1.665A2.549,2.549,0,0,0,121.327,176.726Z" transform="translate(-70.206 -89.507)" fill="url(#linear-gradient-4)"/>
          <path id="Path_999189" data-name="Path 999189" d="M107.475,200.611s-1.272,15.221-.865,20.083.588,6.352,1.592,8.359-1.868,4.63-1.868,4.63-.967-.3-2.159-.676c-1.577-.494-3.547-1.126-4.194-1.41a2.429,2.429,0,0,1-1.141-2.864,16.26,16.26,0,0,0,.727-3.866c.05-1.766-.581-8.693-1.541-11.4s-1.272-7.676-1.141-12.763,1.41-20.352,3.1-21.63a14.4,14.4,0,0,1,3.061-1.468c2.261-.865,4.8-1.614,4.8-1.614l4.812-1.141s-1.09,10.677-3.046,17.176A53.74,53.74,0,0,0,107.475,200.611Z" transform="translate(-73.116 -88.226)" fill="url(#linear-gradient-5)"/>
          <path id="Path_999190" data-name="Path 999190" d="M104.757,230.928s-.211.647-.581,1.729c-1.577-.494-3.547-1.126-4.194-1.41a2.429,2.429,0,0,1-1.141-2.864,16.259,16.259,0,0,0,.727-3.866c.05-1.766-.581-8.693-1.541-11.4s-1.272-7.676-1.141-12.763,1.41-20.352,3.1-21.63a14.4,14.4,0,0,1,3.061-1.469,4.133,4.133,0,0,1,1.6,2.849c-.247,2.013-2.53,15.067-2.777,17.568s-2.842,9.812-2.885,11.717,1.272,11.993,1.272,11.993.225,4.456.138,5.139-.225,3.293.3,3.649A21.747,21.747,0,0,0,104.757,230.928Z" transform="translate(-73.116 -87.878)" fill="url(#linear-gradient-6)"/>
          <path id="Path_999191" data-name="Path 999191" d="M110.923,224.838a29.857,29.857,0,0,1-1.847-2.847c-.243-.605-1.332-1.091-1.332-1.091a34.062,34.062,0,0,0-3.544,2c-.423.424-1.665,1.544-1.665,1.544l-1.211.151s-1.847-1-2.211-1.726a3.832,3.832,0,0,1,0-2.1l.287-1.716a4.852,4.852,0,0,0-1.256,2.056c-.09.878-.16,2.744-.16,2.744a4.564,4.564,0,0,0-.082,1.86,4.914,4.914,0,0,0,2.786,2.544c1.665.666,1.522.272,2.563,1.03s3.706,3.422,5.916,4.118a9.538,9.538,0,0,0,5.632,0,10.529,10.529,0,0,0,1.938-1.847l.243-2a15.918,15.918,0,0,0-.909-2.271C115.829,227.019,110.923,224.838,110.923,224.838Z" transform="translate(-72.976 -81.835)" fill="#e6e5e0"/>
          <path id="Path_999192" data-name="Path 999192" d="M99.486,205.643c-.865,1.773-2.042,15.627-1.868,18.222s2.595,8.038,3.046,9.624.414,6.272-3.584,6.047a7.553,7.553,0,0,1-1.243-.167c-2.9-.625-3.46-2.718-3.94-3.925-.545-1.36.269-2.544.458-4.768s-3.365-11.949-4.23-16.987,1.773-9.725,1.911-13.4-3.271-20.031-3.271-20.031l.712-.421,11.368-6.8s6.178,5.408,6,8.541-2.813,17.219-3.4,18.985A38.7,38.7,0,0,1,99.486,205.643Z" transform="translate(-74.575 -88.489)" fill="url(#linear-gradient-7)"/>
          <path id="Path_999193" data-name="Path 999193" d="M95.837,238.509c-2.9-.625-3.46-2.718-3.94-3.925-.545-1.36.269-2.544.458-4.768s-3.365-11.949-4.23-16.987,1.773-9.725,1.911-13.4S86.765,179.4,86.765,179.4l.712-.421a21.738,21.738,0,0,1,.755,4.717c.087,2.638,1.483,7.843,1.9,10.175a73.617,73.617,0,0,1,.486,8.177,33.311,33.311,0,0,0-2.18,7.756c-.421,3.634,1.818,10.175,2.725,13.475a65.605,65.605,0,0,1,1.425,6.782L92.4,233.3l.611,1.243,1.911.727S95.452,237.092,95.837,238.509Z" transform="translate(-74.575 -87.63)" fill="url(#linear-gradient-8)"/>
          <path id="Path_999194" data-name="Path 999194" d="M102.108,228.983s-1.031-3.411-1.636-3.483a11.693,11.693,0,0,0-4.179,1.15c-.817.545-2.877,1.575-2.877,1.575a6.774,6.774,0,0,1-1.454-1.151,7.951,7.951,0,0,1-.394-2.119l.224-1.387s-.528-.175-.618,0a29.914,29.914,0,0,0-.666,3.839c0,.636.061,2,.061,2a16.9,16.9,0,0,0,1.726,2.84,15.236,15.236,0,0,1,1.393,1.764s1.332,3.089,3.211,4.149,2.817,1.211,5.481,1.09,4.361-.848,4.937-1.424a2.387,2.387,0,0,0,.636-1.363,4.143,4.143,0,0,0-.7-2.544C106.5,233.193,102.108,228.983,102.108,228.983Z" transform="translate(-74.034 -81.194)" fill="#e6e5e0"/>
          <path id="Path_999195" data-name="Path 999195" d="M122.453,177.546s-.5,3.315-2.232,4.63-10.9,4.5-13.854,6.04a16.882,16.882,0,0,1-4.812,1.3c-.61.094-1.228.174-1.846.24a61.915,61.915,0,0,1-6.2.371c-2.187,0-6.651-1.039-8.86-1.417a9.144,9.144,0,0,0-.952-.13c-1.454-.087-1.5-2.137-1.5-2.5s.451-11.216.952-12.72.909-7.676,2.18-9.624,1.883-5.677,3.372-6.7c.7-.473,6.2-1.163,11.869-1.751h.007c6.447-.676,13.1-1.228,13.1-1.228s.254.189.64.523a16.038,16.038,0,0,1,3.089,3.475c1.41,2.275,2.267,9.086,2.406,10.22S122.453,177.546,122.453,177.546Z" transform="translate(-75.235 -91.232)" fill="#f04340"/>
          <path id="Path_999196" data-name="Path 999196" d="M101.556,191.894a.579.579,0,0,1-.051.232c-.284.363-1.795.015-1.795.015v-4.906s-1.032-4.8-2.667-6.68-5.335-9.4-5.335-9.4l-3.089-9.078s-1.933,3.94-2.6,5.575S84.2,177.1,84.2,178.434v10.242s.232,1.024.451,2.413a9.134,9.134,0,0,0-.952-.13c-1.454-.087-1.5-2.137-1.5-2.5s.451-11.216.952-12.72.909-7.676,2.18-9.624,1.883-5.677,3.372-6.7a.68.68,0,0,1-.1-.2c-.588-1.868-.225-5.364-1.134-9.769a84.759,84.759,0,0,0-2.922-8.933c2.762-1.686,4.979-2.892,4.979-2.892s4.484,7.93,4.906,10.234a3.294,3.294,0,0,0,2.725,2.6l-.69,2.61.69,3.089,3.417,1.512-3.133,1.272a10.278,10.278,0,0,1,1.113,2.69v.015c.124.989-.6,2.508-1.119,4.143s4.07,15.067,4.07,15.067S101.753,190.274,101.556,191.894Z" transform="translate(-75.235 -93.61)" fill="#c9b9b3"/>
          <g id="Group_1183444" data-name="Group 1183444" transform="translate(21.087 90.243)">
            <path id="Path_999197" data-name="Path 999197" d="M94.83,181.924l-.292-.478,5.583-3.434.292.478Z" transform="translate(-94.538 -178.012)" fill="#1d1800"/>
          </g>
          <path id="Path_999198" data-name="Path 999198" d="M117.762,145.539c-.857,2.544-2.835,11.448-3.358,13.876-.087.386-.138.611-.138.611-1.09,1.367-3.547,2.777-10.038,3.729a34.458,34.458,0,0,1-5.589.327c-4.71-.073-9.064-.959-9.849-2.21a.679.679,0,0,1-.1-.2c-.588-1.868-.225-5.364-1.134-9.769a84.764,84.764,0,0,0-2.922-8.933c-1.636-4.491-3.263-8.832-2.987-9.238.5-.727,9.637-11.542,9.637-11.542s6.083-1.636,8.359-1.584,12.444,1.5,13.577,2.312,1.549,4.5,2.05,7.407S118.765,142.582,117.762,145.539Z" transform="translate(-75.32 -96.069)" fill="#fff269"/>
          <path id="Path_999199" data-name="Path 999199" d="M100.309,123.008l9.175,9.457,4.4,4.752.6-.081-.516-4.908-2.877-4.665-3.366-4.852-4.385-2.179s-2.659-.174-2.948.4A5.26,5.26,0,0,0,100.309,123.008Z" transform="translate(-72.627 -96.083)" fill="#f83600"/>
          <path id="Path_999200" data-name="Path 999200" d="M98,135.7l.317,7.987s-1.75,5.488-2.343,6.278a15.521,15.521,0,0,0-1.414,2.374c-.15.361-2.607,4.533-2.607,4.533s-2.247-.638-2.58-1.521S91.8,143.006,91.8,143.006a16.98,16.98,0,0,0-1.479-7.853,22.64,22.64,0,0,0-4.694-6.461l-.711-.01-1.859,2.4-.9-2.734,1.98-2.147s4.226-2.033,4.917-1.958a9.918,9.918,0,0,1,4.788,3.264C95.266,129.416,98,135.7,98,135.7Z" transform="translate(-75.241 -95.543)" fill="#f83600"/>
          <path id="Path_999201" data-name="Path 999201" d="M102.587,118.5a10.106,10.106,0,0,0-.522,4.14c.279,1.917.975,3.886.522,5.491s-1.908,2.907-4.755,2.574-6.359-1.969-7.178-3.18-.848-2.18-.605-2.6a16.179,16.179,0,0,0,1.121-4.543,32.493,32.493,0,0,0-.182-5.542c-.333-1.877,2.453-5.906,2.453-5.906l7.42,1.121Z" transform="translate(-74.119 -97.757)" fill="url(#linear-gradient-9)"/>
          <path id="Path_999202" data-name="Path 999202" d="M93.971,118.9a15.761,15.761,0,0,1,3.3,2.1,19.312,19.312,0,0,1,1.61,2.071,22.658,22.658,0,0,0,.849,2.818c.424,1,.817-2.938,1-3.3l.837-1.667-2.472-3Z" transform="translate(-73.533 -96.456)" fill="url(#linear-gradient-10)"/>
          <path id="Path_999203" data-name="Path 999203" d="M105.095,122.4a3.554,3.554,0,0,1-2.241.908c-1.3,0-7.178-1.127-8.964-2.441s-3.483-5.583-3.483-6.764-.454-6.148,2.484-7.995,3.846-4.512,7.571-4.24,4.725,1.818,5.27,3.573a39.47,39.47,0,0,1,1.363,7.42,35.842,35.842,0,0,1-1,6.874C105.669,120.977,105.095,122.4,105.095,122.4Z" transform="translate(-74.052 -98.781)" fill="url(#linear-gradient-11)"/>
          <g id="Group_1183445" data-name="Group 1183445" transform="translate(26.195 94.005)">
            <rect id="Rectangle_455033" data-name="Rectangle 455033" width="3.267" height="102.414" transform="matrix(0.835, -0.55, 0.55, 0.835, 0, 1.798)" fill="#a1bdcc"/>
          </g>
          <path id="Path_999204" data-name="Path 999204" d="M149.516,253.291l-.389-.13a1.564,1.564,0,0,1-1.051,1.53c-1.178.548-1.782.063-1.782.063s-.048.308-.048.365,1.594,3.034,1.863,3.533,1.652.307,2.631-.269a2.874,2.874,0,0,0,1.459-1.5C152.373,256.426,149.516,253.291,149.516,253.291Z" transform="translate(-65.975 -76.904)" fill="#827c62"/>
          <path id="Path_999205" data-name="Path 999205" d="M111.218,198.278a.75.75,0,0,1-.662.458,1.36,1.36,0,0,1-.167-.007h-.007a1.137,1.137,0,0,1-.6-.269,1.349,1.349,0,0,1-.356-.523c-.225-.567-.952-2.064-.952-2.064l-.393.865-.56,1.228-.065.334-.117.545a1.425,1.425,0,0,1-.174.008,5.163,5.163,0,0,1-1.054-.1,1.1,1.1,0,0,1-.538-.262,1.243,1.243,0,0,1-.371-.56l-.043.008c-.037,0-.1.007-.226.015-.262.03-.974-.894-1.061-1l-.007-.015s-.1-.029-.254-.058a4.109,4.109,0,0,0-.567-.08c-.386-.022-1.134-1.432-1.134-1.432l-.16-.217-.683-.959s-.037-.043-.095-.124a3.139,3.139,0,0,1-.647-1.193c.007-.378.538-4.3.538-4.3a1.407,1.407,0,0,0,.007-.5v-.065a10.841,10.841,0,0,0-.393-1.861c-.545-1.911-4.042-7.138-6.272-11.455s-4.324-9.9-4.391-10.99-6.6-14.26-8.722-21.166c-1.948-6.359-.124-8.795.836-9.674.007-.007.007-.007.007-.015.08-.072.152-.138.219-.189.85-.7,3.634-.7,5.546.967s2.115,3.241,3.061,5.814,2.907,10.969,2.907,10.969,1.926,5.727,3.2,9.544,2.725,9.136,4.07,13.017,5.677,12.989,5.677,12.989l3.22,4.862a6.64,6.64,0,0,1,.727,2.254c-.043.312.05,3.176.05,3.4A16.168,16.168,0,0,0,111.218,198.278Z" transform="translate(-75.52 -94.389)" fill="url(#linear-gradient-12)"/>
          <path id="Path_999206" data-name="Path 999206" d="M99.93,183.979a6.634,6.634,0,0,1,.937,3.955,10.841,10.841,0,0,0-.393-1.861c-.545-1.911-4.042-7.138-6.272-11.455s-4.324-9.9-4.391-10.99-6.6-14.26-8.722-21.166c-1.948-6.359-.124-8.795.836-9.674-2.682,3.41-.2,10.576.56,13s7.086,16.048,7.086,16.048,2.362,6.934,4.056,10.787S99.414,182.977,99.93,183.979Z" transform="translate(-75.52 -94.307)" fill="url(#linear-gradient-6)"/>
          <path id="Path_999207" data-name="Path 999207" d="M98.6,186.381l.567.567-.044.393-.683-.959s-.037-.043-.095-.124Z" transform="translate(-72.9 -86.577)" fill="url(#linear-gradient-14)"/>
          <path id="Path_999208" data-name="Path 999208" d="M100.749,187.921l.16.967s-.1-.029-.254-.058a2.727,2.727,0,0,1,.095-.625v-.284Z" transform="translate(-72.567 -86.336)" fill="url(#linear-gradient-15)"/>
          <path id="Path_999209" data-name="Path 999209" d="M102.171,187.921l.254,2.521a1.243,1.243,0,0,1-.371-.56l-.044.008a1.728,1.728,0,0,0-.022-.319A8.456,8.456,0,0,1,102.171,187.921Z" transform="translate(-72.376 -86.336)" fill="url(#linear-gradient-16)"/>
          <path id="Path_999210" data-name="Path 999210" d="M104.043,190.2l.007.007-.117.545a1.43,1.43,0,0,1-.174.008V189.8l.152-1.636Z" transform="translate(-72.118 -86.3)" fill="url(#linear-gradient-17)"/>
          <path id="Path_999211" data-name="Path 999211" d="M105.487,188.351a17.411,17.411,0,0,0,.785,2.588,1.349,1.349,0,0,1-.356-.523c-.225-.567-.952-2.064-.952-2.064l-.393.865c-.043-.655-.087-1.293-.087-1.293l.3-1.505.451-2.18s.052.981.052,1.069S105.348,187.443,105.487,188.351Z" transform="translate(-72.013 -86.869)" fill="url(#linear-gradient-18)"/>
          <path id="Path_999212" data-name="Path 999212" d="M106.649,190.362a1.137,1.137,0,0,1-.6-.269Z" transform="translate(-71.787 -86.022)" fill="url(#linear-gradient-19)"/>
          <path id="Path_999213" data-name="Path 999213" d="M102.142,104.8s-2.151-.151-4.633,2.151-3.058,3.967-3.119,4.452-.333,2.907-.333,2.907-.605,2.665-.576,2.877-.715-2.12-.715-2.12l-1.2-.423.216,3.695a14.631,14.631,0,0,1-.216,5,9.6,9.6,0,0,1-1.933,3.967l-2.09,1.787a20.94,20.94,0,0,0,1.091-7.36c-.212-3.785-.394-6.118-.394-6.118a16.444,16.444,0,0,1-.848-6.784c.333-3.785,2.7-7.571,5.936-9.055a9.763,9.763,0,0,1,3.695-.423s.454-.727,3.755.727,4.543,3.24,4.785,3.755a10.5,10.5,0,0,1,.483,1.636s-1.574-1.757-2.634-1.485S102.142,104.8,102.142,104.8Z" transform="translate(-74.493 -99.168)" fill="#7c3f4e"/>
        </g>
        <g id="Group_1183447" data-name="Group 1183447" transform="translate(19.909 85.772)">
          <path id="Path_999214" data-name="Path 999214" d="M107.04,195.181l-.251-.072c-4.753-1.387-13.705-6.255-13.265-8.858.349-2.052,1.811-7.87,4.361-10.093,1.881-1.644,4.365-2.3,5.7-1.966a1.163,1.163,0,0,1,.9.665c.472,1.2-.806,2.5-.861,2.552l-.4-.4c.009-.009,1.074-1.093.737-1.949a.7.7,0,0,0-.512-.327c-1.174-.279-3.476.342-5.2,1.844-2.425,2.117-3.837,7.767-4.174,9.767-.325,1.9,7.385,6.55,12.628,8.153a4.087,4.087,0,0,1,2.686-1.976l.114.551a3.469,3.469,0,0,0-2.377,1.863Z" transform="translate(-93.509 -174.106)" fill="#1d1800"/>
        </g>
        <path id="XMLID_165_" d="M103.455,112.931a2.71,2.71,0,0,0,.422-1.4c0-.175-.1-.442.089-.526a.55.55,0,0,1,.507.12c.118.073.725,1.384.975,1.606a1.178,1.178,0,0,0,.913.1c.243-.041.476-.164.714-.2s.456.031.686-.1a1.266,1.266,0,0,0,.382-.414,2.656,2.656,0,0,0,.454-.939,2.811,2.811,0,0,0-.072-1.086c-.089-.442-.114-.855-.167-1.3l-.184-.723a.88.88,0,0,0-.3-.022,6.5,6.5,0,0,0-1.028.25l-.991.314a3.227,3.227,0,0,0-1.157.615,1.983,1.983,0,0,1-.34.314c-.235.121-.481.2-.708.339a.576.576,0,0,1-.569.074,8.057,8.057,0,0,0-2.761.29,28.318,28.318,0,0,0-2.866.892l-6.777,1.066c-.525.177-.4.8-.4.8l.4-.155,7.371-.889a6.135,6.135,0,0,0,.8,2.033c.611.933,2.451.82,3.7-.114.145-.109.262-.258.411-.357a1.421,1.421,0,0,0,.354-.294,1.677,1.677,0,0,0,.373-.984c.007-.216-.029-.43-.03-.646a.963.963,0,0,1,.175-.613Zm1.747-3.309a2.545,2.545,0,0,1,2.017-.992s.657.023.713.251.084,1.252.1,1.392a1.813,1.813,0,0,1-.815,1.961c-1.068.523-1.623.117-1.816-.068a5.665,5.665,0,0,1-.579-1.42A1.215,1.215,0,0,1,105.2,109.622Zm-6.61,2.077c.021-.4.173-.692.469-.781a17.534,17.534,0,0,1,2.874-.605s1-.248,1.282.22a3.74,3.74,0,0,1-.878,3.047,2.6,2.6,0,0,1-2.915.253A3.359,3.359,0,0,1,98.592,111.7Z" transform="translate(-74.069 -97.886)" fill="#202020"/>
        <path id="Path_999215" data-name="Path 999215" d="M106.859,108.569a2.707,2.707,0,0,0-2.55.711c-1,1.119-1.345.983-1.345.983a6.121,6.121,0,0,0-2.755.022c-1.744.339-2.539.557-2.627,1.055s.008,3.061,1.877,3.077a3.062,3.062,0,0,0,2.666-1.656c.054-.05.456-1.585.5-1.648a5.246,5.246,0,0,1,.731-.34s.555,1.871,1.683,1.934,2.116-.585,2.182-1.071.261-3.056-.136-3.078S106.859,108.569,106.859,108.569Z" transform="translate(-73.014 -97.82)" fill="#202020"/>
        <path id="Path_999216" data-name="Path 999216" d="M106.122,108.062l-1.658-.014.358,1.124S106.973,108.864,106.122,108.062Z" transform="translate(-72.016 -97.884)" fill="#202020"/>
        <path id="XMLID_87_" d="M106.278,108.719a3.374,3.374,0,0,0-1.034.514,2.138,2.138,0,0,0-.3.271c-.037.041-.068.087-.1.127a2.089,2.089,0,0,1-.3.222c-.394-.006-.635.369-1.037.208a8.058,8.058,0,0,0-2.761.29,28.317,28.317,0,0,0-2.866.892l-7.445,1.028c-.525.177-.4.8-.4.8l1.064-.117,7.371-.889a6.134,6.134,0,0,0,.8,2.033c.611.933,2.451.82,3.7-.114a2.735,2.735,0,0,0,.964-2.535l.294-.238c.3-.239.43-.015.548.063s.846,1.347,1.1,1.57,1.167.206,2.224-.4.687-3.544.687-3.544-.183-.719-.183-.723a1.54,1.54,0,0,0-.2-.041,1.232,1.232,0,0,0-.4.072,1.592,1.592,0,0,0-.286.073c-.1.026-.213.048-.315.081-.076.024-.152.053-.229.077C106.866,108.532,106.572,108.626,106.278,108.719Zm-.926,1.082a2.465,2.465,0,0,1,2.288-1.056s.657.023.713.251.084,1.252.1,1.392a1.813,1.813,0,0,1-.815,1.961c-1.068.523-1.623.117-1.816-.068a5.405,5.405,0,0,1-.742-1.216A1.5,1.5,0,0,1,105.352,109.8Zm-6.339,2.013c.021-.4.173-.692.469-.782a17.534,17.534,0,0,1,2.874-.605s1-.248,1.282.22a3.74,3.74,0,0,1-.878,3.047,2.6,2.6,0,0,1-2.915.253A3.356,3.356,0,0,1,99.013,111.814Z" transform="translate(-74.105 -97.871)"/>
        <path id="Path_999217" data-name="Path 999217" d="M91.943,112.73a2.174,2.174,0,0,0-1.708-1.181c-1.109,0-1.17,1.332-1.079,2.362a3.632,3.632,0,0,0,3.116,2.481C93.427,116.243,91.943,112.73,91.943,112.73Z" transform="translate(-74.234 -97.378)" fill="url(#linear-gradient-20)"/>
      </g>
      <g id="Group_1183478" data-name="Group 1183478" transform="translate(286.988 24.725)">
        <path id="Path_999218" data-name="Path 999218" d="M340.582,248.82l41.48-24.079a3.429,3.429,0,0,0,0-5.94L323.1,185.028a13.226,13.226,0,0,0-13.226,0L272.3,206.853a5.049,5.049,0,0,0,0,8.746h0l58.007,33.223A10.278,10.278,0,0,0,340.582,248.82Z" transform="translate(-269.774 -96.89)" fill="url(#linear-gradient-21)"/>
        <g id="Group_1183477" data-name="Group 1183477" transform="translate(0.983)">
          <g id="Group_1183459" data-name="Group 1183459" transform="translate(35.33 43.276)">
            <path id="Path_999219" data-name="Path 999219" d="M351.088,161.584c-7.887-4.55-14.915-4.4-19.473-.446-3.379,2.916-5.394,7.919-5.394,14.62,0,15.76,11.131,34.953,24.866,42.881,6.374,3.681,12.19,4.286,16.588,2.287,5.075-2.287,8.271-8.023,8.271-16.461C375.947,188.714,364.816,169.513,351.088,161.584Zm13.258,53.885c-3.713,3.426-9.569,3.633-16.15-.167-11.234-6.485-20.341-22.189-20.341-35.08,0-7.075,2.749-11.84,7.083-13.616,3.713-3.426,9.569-3.633,16.15.167,11.234,6.485,20.333,22.2,20.333,35.08C371.422,208.927,368.68,213.691,364.346,215.469Z" transform="translate(-297.926 -143.793)" fill="#2c2c2c"/>
            <path id="Path_999220" data-name="Path 999220" d="M348.56,163.2c-6.374-3.681-12.182-4.286-16.58-2.295-5.083,2.295-8.279,8.032-8.279,16.469,0,15.76,11.131,34.953,24.858,42.881,7.9,4.558,14.931,4.4,19.481.438,3.371-2.916,5.378-7.911,5.378-14.613C373.419,190.329,362.288,171.128,348.56,163.2ZM335.3,166.371c3.562-1.458,8.191-.909,13.258,2.016,11.234,6.485,20.341,22.2,20.341,35.08,0,5.338-1.561,9.354-4.19,11.767-3.713,3.426-9.569,3.633-16.15-.167-11.234-6.485-20.342-22.189-20.342-35.08C328.22,172.912,330.968,168.147,335.3,166.371Z" transform="translate(-298.29 -143.56)" fill="#292929"/>
            <path id="Path_999221" data-name="Path 999221" d="M364.139,214.4c-3.713,3.426-9.569,3.633-16.15-.167-11.234-6.485-20.341-22.189-20.341-35.08,0-7.075,2.749-11.84,7.083-13.616-2.629,2.414-4.191,6.43-4.191,11.767,0,12.891,9.107,28.6,20.341,35.08C355.95,215.311,360.579,215.862,364.139,214.4Z" transform="translate(-297.719 -142.727)" fill="#8e8e8e"/>
            <g id="Group_1183449" data-name="Group 1183449" transform="translate(28.34 16.234)">
              <path id="Path_999222" data-name="Path 999222" d="M347.352,163.2c-5.764-3.328-11.066-4.132-15.282-2.788,3.927-.712,8.63.266,13.689,3.187,13.73,7.927,24.86,27.125,24.86,42.881,0,9.141-3.751,15.105-9.578,16.962,6.729-1.22,11.171-7.411,11.171-17.36C372.213,190.326,361.082,171.128,347.352,163.2Z" transform="translate(-325.42 -159.793)" fill="#363636"/>
              <path id="Path_999223" data-name="Path 999223" d="M335.529,165.356c-5.578.942-9.269,6.02-9.269,14.224,0,12.889,9.106,28.6,20.339,35.081,4.789,2.765,9.188,3.4,12.662,2.229-3.186.538-6.985-.269-11.069-2.627-11.233-6.485-20.339-22.191-20.339-35.081C327.853,171.786,330.853,166.932,335.529,165.356Z" transform="translate(-326.26 -158.988)" fill="#363636"/>
            </g>
            <g id="Group_1183450" data-name="Group 1183450" transform="translate(28.093 21.694)">
              <path id="Path_999224" data-name="Path 999224" d="M356.3,218.382a19.3,19.3,0,0,1-9.492-2.9c-11.449-6.61-20.764-22.678-20.764-35.817,0-6.473,2.222-11.321,6.256-13.649,4.07-2.35,9.443-1.834,15.129,1.45,11.449,6.61,20.765,22.678,20.765,35.817,0,6.473-2.222,11.32-6.256,13.649A11.141,11.141,0,0,1,356.3,218.382Zm-18.359-52.576a9.9,9.9,0,0,0-5.02,1.284c-3.634,2.1-5.635,6.563-5.635,12.573,0,12.744,9.036,28.328,20.142,34.741,5.287,3.053,10.221,3.568,13.887,1.45,3.634-2.1,5.635-6.563,5.635-12.573,0-12.745-9.036-28.33-20.143-34.741A18.084,18.084,0,0,0,337.941,165.806Z" transform="translate(-326.044 -164.563)" fill="#e0e0e0"/>
            </g>
            <path id="Path_999225" data-name="Path 999225" d="M342.4,185.631c0,2.23,1.875,5.723,3.818,6.845A3,3,0,0,0,350.6,189.8a7.752,7.752,0,0,0-3.518-6.069C345.136,182.608,342.4,183.4,342.4,185.631Z" transform="translate(-295.587 -140.171)" fill="#686868"/>
            <path id="Path_999226" data-name="Path 999226" d="M307.763,182.238a4.77,4.77,0,0,0,2.164,3.734c1.195.69,2.164.137,2.164-1.234A4.772,4.772,0,0,0,309.927,181C308.731,180.313,307.763,180.866,307.763,182.238Z" transform="translate(-300.594 -140.535)" fill="#8e8e8e"/>
            <path id="Path_999227" data-name="Path 999227" d="M308.613,182.642A2.624,2.624,0,0,0,309.8,184.7c.658.38,1.191.076,1.191-.679a2.624,2.624,0,0,0-1.191-2.055C309.146,181.584,308.613,181.887,308.613,182.642Z" transform="translate(-300.472 -140.377)" fill="#aeaeae"/>
            <g id="Group_1183451" data-name="Group 1183451" transform="translate(14.898 18.49)">
              <rect id="Rectangle_455034" data-name="Rectangle 455034" width="1.479" height="41.469" transform="matrix(0.5, -0.866, 0.866, 0.5, 0, 1.281)" fill="#e0e0e0"/>
            </g>
            <path id="Path_999228" data-name="Path 999228" d="M311.968,173.772c-2.415-1.39-4.6-1.538-6.193-.649-.251.141-1.66.9-1.879,1.094-1.2,1.028-.731,2.2-.731,4.567,0,5.578,3.944,12.373,8.8,15.186,2.1,1.211,3.049,2.117,4.554,1.583a11.414,11.414,0,0,0,2.491-1.567,6.782,6.782,0,0,0,1.751-5.035C320.764,183.374,316.828,176.578,311.968,173.772Zm3.394,17.449c-1.052,1.116-2.788,1.243-4.757.1a12.8,12.8,0,0,1-5.809-10.007c0-2.223.956-3.649,2.414-4.007,1.044-1.116,2.788-1.243,4.757-.1a12.793,12.793,0,0,1,5.8,10.015C317.769,189.437,316.82,190.863,315.362,191.221Z" transform="translate(-301.272 -141.711)" fill="#2c2c2c"/>
            <path id="Path_999229" data-name="Path 999229" d="M310.767,174.47c-2.1-1.211-4.023-1.482-5.538-.948-1.992.7-3.267,2.788-3.267,5.96,0,5.578,3.944,12.373,8.8,15.186,2.8,1.609,5.282,1.553,6.891.151a6.6,6.6,0,0,0,1.9-5.171C319.563,184.07,315.627,177.274,310.767,174.47Zm-3.395,2.74a4.569,4.569,0,0,1,3.394.694,12.793,12.793,0,0,1,5.8,10.015,4.569,4.569,0,0,1-1.044,3.2c-1.052,1.116-2.788,1.243-4.757.1a12.8,12.8,0,0,1-5.809-10.007C304.958,179,305.914,177.569,307.372,177.21Z" transform="translate(-301.433 -141.611)" fill="#292929"/>
            <path id="Path_999230" data-name="Path 999230" d="M315.145,190.622c-1.052,1.116-2.788,1.243-4.757.1a12.8,12.8,0,0,1-5.809-10.007c0-2.223.956-3.649,2.414-4.007a4.58,4.58,0,0,0-1.052,3.211,12.8,12.8,0,0,0,5.809,10.007A4.574,4.574,0,0,0,315.145,190.622Z" transform="translate(-301.055 -141.112)" fill="#8e8e8e"/>
            <g id="Group_1183452" data-name="Group 1183452" transform="translate(1.982 31.652)">
              <path id="Path_999231" data-name="Path 999231" d="M310.584,174.468c-3.073-1.773-5.777-1.522-7.352.307,1.6-1.018,3.871-.931,6.389.522,4.86,2.8,8.8,9.6,8.8,15.178a7.1,7.1,0,0,1-1.454,4.715c1.494-.947,2.416-2.852,2.416-5.543C319.38,184.069,315.444,177.272,310.584,174.468Z" transform="translate(-303.232 -173.263)" fill="#363636"/>
              <path id="Path_999232" data-name="Path 999232" d="M304.184,180.831a12.8,12.8,0,0,0,5.809,10.007c2.111,1.218,3.444,1.563,4.458.215a4.156,4.156,0,0,1-4-.462,12.8,12.8,0,0,1-5.809-10.007,4.828,4.828,0,0,1,.836-2.946C304.367,178.214,304.184,178.938,304.184,180.831Z" transform="translate(-303.094 -172.63)" fill="#363636"/>
            </g>
            <path id="Path_999233" data-name="Path 999233" d="M310.44,181.879l.292-8.127,1.939-.853,3.494,2.043.679,1.092-1.266,6.014-1.939.853a11.74,11.74,0,0,1-2.159.641C311.367,183.427,310.44,181.879,310.44,181.879Z" transform="translate(-300.207 -141.663)" fill="#8e8e8e"/>
            <path id="Path_999234" data-name="Path 999234" d="M308.177,182.9l2.441-3.286.44-5.972,3.494,2.043.679,1.092-1.266,6.014-3.526,1.415s-1.108.476-1.221.358S308.177,182.9,308.177,182.9Z" transform="translate(-300.535 -141.556)" fill="#cfcfcf"/>
            <g id="Group_1183453" data-name="Group 1183453" transform="translate(13.821 16.295)">
              <path id="Path_999235" data-name="Path 999235" d="M353.824,200.321l-40.249-23.237V159.846h1.478V176.23l39.512,22.811Z" transform="translate(-313.575 -159.846)" fill="#e0e0e0"/>
            </g>
            <path id="Path_999236" data-name="Path 999236" d="M323.919,150.451l26.27,31.582,1.062-.763V164.856l-26.27-15.168Z" transform="translate(-298.259 -145.019)" fill="#8b6865"/>
            <path id="Path_999237" data-name="Path 999237" d="M323.919,166.771l26.27,15.167V165.523l-26.27-15.168Z" transform="translate(-298.259 -144.923)" fill="#764d4a"/>
            <g id="Group_1183454" data-name="Group 1183454" transform="translate(18.773 2.67)">
              <path id="Path_999238" data-name="Path 999238" d="M352.076,187.739H350.6V163.495L326.445,149.55a.944.944,0,0,0-1.415.817v3.361a2.6,2.6,0,0,1-3.9,2.25l-.339-.2a.943.943,0,0,0-1.415.817v10.238H317.9V156.6a2.421,2.421,0,0,1,3.632-2.1l.339.195a1.121,1.121,0,0,0,1.681-.971v-3.36a2.422,2.422,0,0,1,3.633-2.1l24.89,14.37v25.1Z" transform="translate(-317.902 -147.941)" fill="#e0e0e0"/>
            </g>
            <path id="Path_999239" data-name="Path 999239" d="M342.348,186.233a7.751,7.751,0,0,0,3.518,6.069c1.943,1.122,3.518.224,3.518-2.005a7.752,7.752,0,0,0-3.518-6.069C343.923,183.105,342.348,184,342.348,186.233Z" transform="translate(-295.594 -140.095)" fill="#8e8e8e"/>
            <path id="Path_999240" data-name="Path 999240" d="M343.73,186.89a4.264,4.264,0,0,0,1.935,3.339c1.069.617,1.935.122,1.935-1.1a4.264,4.264,0,0,0-1.935-3.339C344.6,185.17,343.73,185.663,343.73,186.89Z" transform="translate(-295.394 -139.839)" fill="#aeaeae"/>
            <g id="Group_1183455" data-name="Group 1183455" transform="translate(0 15.811)">
              <path id="Path_999241" data-name="Path 999241" d="M302.964,183.276l-1.464-.211,3.111-21.605a3.088,3.088,0,0,1,4.448-1.624l7.371,4.256-.741,1.28-7.37-4.256a1.61,1.61,0,0,0-2.294.783Z" transform="translate(-301.5 -159.423)" fill="#e0e0e0"/>
            </g>
            <g id="Group_1183456" data-name="Group 1183456" transform="translate(2.695 19.494)">
              <rect id="Rectangle_455035" data-name="Rectangle 455035" width="1.479" height="13.265" transform="matrix(0.5, -0.866, 0.866, 0.5, 0, 1.281)" fill="#e0e0e0"/>
            </g>
            <g id="Group_1183457" data-name="Group 1183457" transform="translate(12.328 25.902)">
              <rect id="Rectangle_455036" data-name="Rectangle 455036" width="1.478" height="6.396" fill="#e0e0e0"/>
            </g>
            <g id="Group_1183458" data-name="Group 1183458" transform="translate(49.478 39.354)">
              <rect id="Rectangle_455037" data-name="Rectangle 455037" width="1.478" height="14.398" fill="#e0e0e0"/>
            </g>
            <path id="Path_999242" data-name="Path 999242" d="M344.257,160.165l-19.2-11.086c-.776-.448-1.157-2.247-.261-2.764l.48,1.008a3.389,3.389,0,0,1,3.04-.126l19.481,9.91c.776.448.4,2.414-.5,2.931h0A3.389,3.389,0,0,1,344.257,160.165Z" transform="translate(-298.207 -145.507)" fill="#48110d"/>
            <path id="Path_999243" data-name="Path 999243" d="M344.225,158.877l-19.2-11.085c-.776-.448-.678-1.237.219-1.755h0a3.393,3.393,0,0,1,3.04-.126L347.483,157c.776.448.678,1.237-.219,1.755h0A3.4,3.4,0,0,1,344.225,158.877Z" transform="translate(-298.175 -145.609)" fill="#633431"/>
          </g>
          <path id="Path_999244" data-name="Path 999244" d="M277.358,206.495,309.3,188.053v-1.142l-38.382,14.724v1.142Z" transform="translate(-270.592 -96.362)" fill="#6d6d6d"/>
          <path id="Path_999245" data-name="Path 999245" d="M277.358,205.823,309.3,187.381l-6.439-3.718L270.917,202.1Z" transform="translate(-270.592 -96.831)" fill="#8e8e8e"/>
          <path id="Path_999246" data-name="Path 999246" d="M283.445,189.438s-7.035-1.406-8.167-1.36-3.977,1.636-4.266,2.243a9.266,9.266,0,0,0-.38,2.281l3.27,2.889s8.631,3.641,9,3.983a6.151,6.151,0,0,0,4.921,1.148c2.571-.509,2.35-2.281,2.319-4.069s.129-3.026-.692-4.007a6.324,6.324,0,0,0-2.807-1.452Z" transform="translate(-270.633 -96.193)" fill="#e6e5e0"/>
          <path id="Path_999247" data-name="Path 999247" d="M294.792,182.436l-6.892-.324s-5.735-.925-6.059-.37a4.026,4.026,0,0,0,.139,3.624c.833,1.094,5.643,1.881,7.215,2.76s7.678,3.977,8.835,4.07,3.349-1.018,3.719-2.452a9.921,9.921,0,0,0-.145-4.856,5.417,5.417,0,0,0-1.122-2.637Z" transform="translate(-269.066 -97.135)" fill="#e6e5e0"/>
          <path id="Path_999248" data-name="Path 999248" d="M302.9,157.83a26.942,26.942,0,0,0-6.722-1.357c-3.7-.246-4.687,1.727-4.872,3.515s1.172,10.176,3.022,18.564,2.22,13.136,1.665,14.123,3.948,3.515,4.872,3.515,3.269-.863,3.083-1.6.308-12.581.308-13.63,2.035-13.691.247-15.11S302.9,157.83,302.9,157.83Z" transform="translate(-267.647 -100.766)" fill="url(#linear-gradient-22)"/>
          <path id="Path_999249" data-name="Path 999249" d="M276.971,176.115c1.018,5.916,4.063,18.8,4.071,19.12s1.214,3.2,3.711,3.619a4.547,4.547,0,0,0,1.1.056,3.284,3.284,0,0,0,2.681-1.362c.031-.182-.982-7.981-.258-12.737s2.374-12.359,1.948-15.619c-.014-.1-.026-.2-.046-.308-.469-3.4-1.832-10.576-1.832-10.576a14.334,14.334,0,0,0-6.1-.7c-2.89.457-3.9,1.669-5.049,4.411S275.961,170.193,276.971,176.115Z" transform="translate(-269.818 -100.614)" fill="url(#linear-gradient-23)"/>
          <path id="Path_999250" data-name="Path 999250" d="M281,164.664s-.611,4.8-.06,5.992,4.67,4.62,5.045,6.287-.682,10.855-.852,13.04c-.1,1.2-.018,4.836.074,7.89a3.284,3.284,0,0,0,2.681-1.362c.031-.182-.982-7.981-.258-12.737s2.374-12.359,1.948-15.619c-.014-.1-.026-.2-.046-.308C286.727,166.66,281,164.664,281,164.664Z" transform="translate(-269.176 -99.578)" fill="url(#linear-gradient-24)"/>
          <g id="Group_1183460" data-name="Group 1183460" transform="translate(13.809 63.888)">
            <path id="Path_999251" data-name="Path 999251" d="M284.876,179.944c.446-1.026,10.579-6.968,22.562-14.139.537-.32,1.042-.612,1.535-.892a11.54,11.54,0,0,1,4.891-.878,41.494,41.494,0,0,1,17.994,7.285c4.182,3.171,8.881,5.523,11.939,9.411,2.058,2.617,1.458,5.36-.223,7.959a7.174,7.174,0,0,1-2.088,2.058c-7.581,5.055-16.84,10.69-20.985,11.849-7.283,2.036-11.928-5.049-19.988-11.159a36.934,36.934,0,0,0-17.006-6.946C281.231,180.522,284.43,180.969,284.876,179.944Z" transform="translate(-282.697 -163.559)" fill="#5c2c28"/>
            <path id="Path_999252" data-name="Path 999252" d="M282.75,182.472a1.813,1.813,0,0,0,.322.039,4.568,4.568,0,0,1,.711-.049,11.823,11.823,0,0,1,4.075.852c2,.741,10.455,4.2,13.641,6.613,2.106,1.6,3.941,3.223,5.715,4.8.808.718,1.584,1.4,2.34,2.047,3.116,2.655,5.861,4.542,9.04,4.542a8.666,8.666,0,0,0,2.334-.333c4.191-1.171,13.927-6.922,21.2-11.771a5.687,5.687,0,0,0,2.673-3.872,7.616,7.616,0,0,0-1.819-5.741q-.6-.759-1.214-1.422a38.558,38.558,0,0,0-6.251-5.131c-.974-.694-1.984-1.409-3.053-2.219-2.644-2.005-10.7-5.336-12.443-6.08a13.3,13.3,0,0,0-3.9-1.1c-.119-.009-.229-.017-.331-.022a4.849,4.849,0,0,0-.674.009,1.1,1.1,0,0,0-.127.019l-.073.015-.054,0h-.029c-.085,0-.171,0-.255,0-.231,0-.453,0-.674,0a11.88,11.88,0,0,0-3.678.825c-.473.268-.957.547-1.47.854l-.974.584c-10.483,6.272-23.53,14.078-24.36,15.21a6.539,6.539,0,0,1-.335.652A5.315,5.315,0,0,0,282.75,182.472Z" transform="translate(-282.69 -163.618)" fill="#55221f"/>
            <path id="Path_999253" data-name="Path 999253" d="M306.166,194.933c3.116,2.655,5.861,4.542,9.04,4.542a8.668,8.668,0,0,0,2.334-.333c4.191-1.171,13.927-6.922,21.2-11.771a5.687,5.687,0,0,0,2.673-3.872,7.617,7.617,0,0,0-1.819-5.741q-.6-.759-1.214-1.422Z" transform="translate(-279.304 -161.779)" fill="#5c2c28"/>
          </g>
          <g id="Group_1183461" data-name="Group 1183461" transform="translate(12.118)">
            <path id="Path_999254" data-name="Path 999254" d="M281.6,174.7c.222.607.459,1.17.681,1.636a3.986,3.986,0,0,0,.858,1.324c.311.185,26.518,9.5,28.619,10.235s5.921,1.606,11.531,0a27.574,27.574,0,0,0,7.416-3.064,2.038,2.038,0,0,1,.355-.2c.37-.126.06-7.9.06-7.9l-6.128-4.07L312.876,164.1s-23.972-5.8-25.082-6.043-3.389-.555-3.389-.555-.283,5.913-1.882,8.933A11.742,11.742,0,0,0,281.6,174.7Z" transform="translate(-281.22 -100.614)" fill="#382f2f"/>
            <path id="Path_999255" data-name="Path 999255" d="M282.144,173.956A3.986,3.986,0,0,0,283,175.28c.311.185,26.518,9.5,28.619,10.235s5.921,1.606,11.53,0a27.573,27.573,0,0,0,7.416-3.064,64.947,64.947,0,0,0-5.714-4.581s-5.343,6.6-9.288,7.119-11.8-3.419-15.985-5.18C295.887,178.263,284.712,174.756,282.144,173.956Z" transform="translate(-281.086 -98.235)" fill="#c9b9b3"/>
            <path id="Path_999256" data-name="Path 999256" d="M296.795,167.07l9.066,8.836,12.44-2.317a30.429,30.429,0,0,0,4.567-5.025,11.759,11.759,0,0,0,1.68-3.346c1.11-3.974-6.7-7.119-6.7-7.119l-12.581-2.08-4.484-.88a22.836,22.836,0,0,0-3.2,3.7,25.128,25.128,0,0,0-.6,4.93C296.861,165.531,296.795,167.07,296.795,167.07Z" transform="translate(-278.968 -100.955)" fill="#332b2b"/>
            <path id="Path_999257" data-name="Path 999257" d="M296.795,165.98l9.066,8.836L318.3,172.5a30.431,30.431,0,0,0,4.567-5.025l-13.255-3.294-12.633-1.5C296.861,164.44,296.795,165.98,296.795,165.98Z" transform="translate(-278.968 -99.865)" fill="#c9b9b3"/>
            <path id="Path_999258" data-name="Path 999258" d="M306.506,173.742s.992,4.441,1.547,6.476a22.181,22.181,0,0,0,3.944,6.35c.355.267,2.693,1.606,7.171,1.806a29.544,29.544,0,0,0,6.335-.444c8.637-1.48,10.117-5.121,12.581-8.511s9.25-16.222,9.25-16.222,2.62-9.31,2.96-10.858,1.821-9.28,1.236-13.1a7.554,7.554,0,0,0-3.36-5.522c-.622-.525-2.716-.9-4.781-.621s-12.522,2.22-13.262,2.657-3.331,3.361-6.446,5.58a21.537,21.537,0,0,0-4.567,4.2c-3.109,3.235-6.069,14.025-6.069,14.025s-3.575,5.358-4.655,7.149c-.141.237-.237.407-.282.5C307.742,168.006,306.506,173.742,306.506,173.742Z" transform="translate(-277.564 -104.156)" fill="#fc7303"/>
            <path id="Path_999259" data-name="Path 999259" d="M306.506,171.229s.992,4.441,1.547,6.476a22.18,22.18,0,0,0,3.944,6.35c.355.267,2.693,1.606,7.171,1.806l-.754-2.109.118-3.145s-1.169-2.531-.858-3.4a25.86,25.86,0,0,1,1.414-2.776h1.665l4.138-3.2a4.884,4.884,0,0,1-.066-1.976c.252-.489,1.362-3.634,1.362-3.634l2.153-2.776,2.22-5.432-.37-2.59a2.638,2.638,0,0,1-.613-.8,34.717,34.717,0,0,1-.8-3.641l-8.452.741-11.93,13.07c-.141.237-.237.407-.282.5C307.742,165.494,306.506,171.229,306.506,171.229Z" transform="translate(-277.564 -101.643)" fill="#c9b9b3"/>
            <path id="Path_999260" data-name="Path 999260" d="M323.472,123.751a35.259,35.259,0,0,0,.5,6.395,2.217,2.217,0,0,0,.267.762,13.458,13.458,0,0,0,3.175,1.879l.437,1.85s-.252,4.685,0,5.092a1.8,1.8,0,0,0,.718.355,24.888,24.888,0,0,0,8.563,1.088c4.285-.274,5.114-2.25,5.054-2.99s-1.755-3.145-1.969-4.685a35.925,35.925,0,0,1,.547-6.261l.038-8.452-11.411-7.09s-3.235.126-4.256,1.021-1.606,5.3-1.606,5.3l.467,1.909a12.486,12.486,0,0,0-.865,1.546c-.089.34.585.925.585.925A8.165,8.165,0,0,0,323.472,123.751Z" transform="translate(-275.161 -107.237)" fill="url(#linear-gradient-25)"/>
            <path id="Path_999261" data-name="Path 999261" d="M327.339,124.333s-.124-1.234-.185-1.973-.216-1.265.308-.925,1.172.648,1.234,1.234a21.915,21.915,0,0,1,.216,2.837c-.062.586-1.172,1.234-1.172,1.234A2.81,2.81,0,0,1,327.339,124.333Z" transform="translate(-274.589 -105.844)" fill="url(#linear-gradient-26)"/>
            <path id="Path_999262" data-name="Path 999262" d="M308.088,159.869c-.333.045-1.894.489-2.539.608l.044.045,2.332-.282,3.656-.666.673-.547-.607.081S308.48,159.825,308.088,159.869Z" transform="translate(-277.702 -100.393)" fill="url(#linear-gradient-27)"/>
            <path id="Path_999263" data-name="Path 999263" d="M305.936,157.846l-2.6,1.548c.133.06.237.1.237.1l1.435-.666,3.235-1.873,1.642.045.674.7s-.363.141-.829.325l1.221-.215-.1-.348-1.081-.969-1.48-.1Z" transform="translate(-278.022 -100.775)" fill="url(#linear-gradient-28)"/>
            <path id="Path_999264" data-name="Path 999264" d="M302.789,156.426c-.073.406.636.6.636.6l1.866-.215.466-.252,2.479-1.362-3.124,1.089s-1.6.252-1.783.252A5.381,5.381,0,0,1,302.789,156.426Z" transform="translate(-278.102 -100.947)" fill="url(#linear-gradient-29)"/>
            <path id="Path_999265" data-name="Path 999265" d="M302.938,159.294c-.045.133.259.288.481.385.133.059.237.1.237.1l1.435-.666,3.235-1.873,1.642.045.674.7s-.363.141-.829.325c-.837.326-2.028.784-2.087.784-.089,0-2.176.689-2.265,1.11-.081.348.348.814.489.948l.043.045,2.332-.282,3.656-.666.673-.547,2.908-2.346-1.339-2.309s-2.731-.63-3.049-.63-5.3,1.021-5.3,1.021-2.938.622-3.079,1.066c0,.015-.008.03-.008.045-.073.406.636.6.636.6l1.866-.215.5-.059S303,159.087,302.938,159.294Z" transform="translate(-278.102 -101.061)" fill="url(#linear-gradient-30)"/>
            <path id="Path_999266" data-name="Path 999266" d="M323.867,127.815a2.217,2.217,0,0,0,.267.762,13.459,13.459,0,0,0,3.175,1.879l.437,1.85s-.252,4.685,0,5.092a1.8,1.8,0,0,0,.718.355,1.422,1.422,0,0,1-.148-.31,22.654,22.654,0,0,1-.325-3.331l1.021-3.145-1.11-.326-3.841-2.82Z" transform="translate(-275.054 -104.906)" fill="url(#linear-gradient-31)"/>
            <path id="Path_999267" data-name="Path 999267" d="M325.19,114.726a7.8,7.8,0,0,1-.4,1.851,5.938,5.938,0,0,0-.277,1.942l.925,2.19,1.018,2.807.154,1.573,1.141.863a2.581,2.581,0,0,1,1.7.863c.648.8,1.973,2.991,1.973,2.991s2.313,2.929,3.238,3.238,4.625-.308,5.458-.555,1.6-1.48,1.6-1.48a28.967,28.967,0,0,0,3.546-5.8,14.692,14.692,0,0,0,.741-9.621c-.432-1.234-3.207-3.7-3.207-3.7s-.741-3.207-6.445-3.886-9.683.493-10.947,1.356a6.857,6.857,0,0,0-2,2.714l.185,3.207,1.048-1.789Z" transform="translate(-275.121 -107.8)" fill="#7c3f4e"/>
          </g>
          <g id="Group_1183462" data-name="Group 1183462" transform="translate(52.093 59.23)">
            <path id="Path_999268" data-name="Path 999268" d="M316.146,207.831c14.627-3.953,23.286-6.089,31.525-18.2.763-9.376,3.293-19.739,4.09-29.173.033-.389-.84-.864-1.258-.909-8.778,9.262-14.921,12.115-31.524,18.2C318.183,187.511,316.941,198.068,316.146,207.831Z" transform="translate(-316.146 -159.548)" fill="#6b403c"/>
          </g>
          <g id="Group_1183463" data-name="Group 1183463" transform="translate(53.351 60.139)">
            <path id="Path_999269" data-name="Path 999269" d="M317.245,208.625c14.627-3.953,23.286-6.089,31.524-18.2.8-9.763,2.037-20.32,2.832-30.082-8.778,9.262-14.921,12.115-31.525,18.2C319.282,188.305,318.04,198.863,317.245,208.625Z" transform="translate(-317.245 -160.342)" fill="#5c2c28"/>
          </g>
          <g id="Group_1183464" data-name="Group 1183464" transform="translate(82.008 54.916)">
            <path id="Path_999270" data-name="Path 999270" d="M343.76,191.652h-1.478V169.26l8.428-13.481,6.178,3.568-.741,1.28-4.942-2.853-7.445,11.911Z" transform="translate(-342.282 -155.779)" fill="#a1a1a1"/>
          </g>
          <g id="Group_1183465" data-name="Group 1183465" transform="translate(57.524 69.646)">
            <path id="Path_999271" data-name="Path 999271" d="M322.369,204.521h-1.478V182.129l8.426-13.481,6.178,3.568-.739,1.28-4.943-2.853-7.444,11.91Z" transform="translate(-320.891 -168.648)" fill="#e0e0e0"/>
          </g>
          <g id="Group_1183476" data-name="Group 1183476" transform="translate(0.909 39.52)">
            <path id="Path_999272" data-name="Path 999272" d="M312.323,206.486c0,2.23,1.875,5.723,3.818,6.845a3,3,0,0,0,4.384-2.677,7.752,7.752,0,0,0-3.518-6.069C315.063,203.463,312.323,204.256,312.323,206.486Z" transform="translate(-265.514 -133.4)" fill="#686868"/>
            <path id="Path_999273" data-name="Path 999273" d="M277.69,203.093a4.77,4.77,0,0,0,2.164,3.734c1.195.69,2.164.137,2.164-1.234a4.77,4.77,0,0,0-2.164-3.734C278.658,201.169,277.69,201.721,277.69,203.093Z" transform="translate(-270.521 -133.764)" fill="#8e8e8e"/>
            <path id="Path_999274" data-name="Path 999274" d="M278.54,203.5a2.625,2.625,0,0,0,1.191,2.055c.658.38,1.191.076,1.191-.679a2.625,2.625,0,0,0-1.191-2.055C279.073,202.439,278.54,202.743,278.54,203.5Z" transform="translate(-270.399 -133.606)" fill="#aeaeae"/>
            <g id="Group_1183466" data-name="Group 1183466" transform="translate(14.896 46.109)">
              <rect id="Rectangle_455038" data-name="Rectangle 455038" width="1.479" height="41.468" transform="matrix(0.5, -0.866, 0.866, 0.5, 0, 1.281)" fill="#e0e0e0"/>
            </g>
            <path id="Path_999275" data-name="Path 999275" d="M281.9,194.628c-2.415-1.39-4.6-1.538-6.193-.649-.251.141-1.66.9-1.879,1.094-1.2,1.028-.731,2.2-.731,4.567,0,5.578,3.944,12.373,8.8,15.186,2.1,1.211,3.048,2.117,4.554,1.583a11.411,11.411,0,0,0,2.491-1.567,6.783,6.783,0,0,0,1.751-5.036C290.691,204.229,286.755,197.432,281.9,194.628Zm3.394,17.448c-1.052,1.116-2.788,1.243-4.757.1a12.8,12.8,0,0,1-5.809-10.007c0-2.223.956-3.649,2.414-4.007,1.044-1.116,2.788-1.243,4.757-.1a12.793,12.793,0,0,1,5.8,10.015C287.7,210.292,286.747,211.718,285.289,212.076Z" transform="translate(-271.199 -134.941)" fill="#2c2c2c"/>
            <path id="Path_999276" data-name="Path 999276" d="M280.694,195.325c-2.1-1.211-4.023-1.482-5.538-.948-1.992.7-3.267,2.788-3.267,5.96,0,5.578,3.944,12.373,8.8,15.186,2.8,1.609,5.282,1.553,6.892.151a6.6,6.6,0,0,0,1.9-5.171C289.49,204.925,285.554,198.129,280.694,195.325Zm-3.395,2.74a4.569,4.569,0,0,1,3.394.694,12.793,12.793,0,0,1,5.8,10.015,4.569,4.569,0,0,1-1.044,3.2c-1.052,1.116-2.788,1.243-4.757.1a12.8,12.8,0,0,1-5.809-10.007C274.885,199.85,275.841,198.424,277.3,198.065Z" transform="translate(-271.36 -134.84)" fill="#292929"/>
            <path id="Path_999277" data-name="Path 999277" d="M285.072,211.477c-1.052,1.116-2.788,1.243-4.757.1a12.8,12.8,0,0,1-5.809-10.007c0-2.223.956-3.649,2.414-4.007a4.58,4.58,0,0,0-1.052,3.211,12.8,12.8,0,0,0,5.809,10.007A4.573,4.573,0,0,0,285.072,211.477Z" transform="translate(-270.982 -134.342)" fill="#8e8e8e"/>
            <g id="Group_1183467" data-name="Group 1183467" transform="translate(1.982 59.278)">
              <path id="Path_999278" data-name="Path 999278" d="M280.511,195.323c-3.073-1.773-5.777-1.522-7.352.307,1.6-1.018,3.871-.931,6.389.522,4.86,2.8,8.8,9.6,8.8,15.178a7.1,7.1,0,0,1-1.454,4.715c1.494-.947,2.416-2.852,2.416-5.543C289.307,204.924,285.371,198.128,280.511,195.323Z" transform="translate(-273.159 -194.118)" fill="#363636"/>
              <path id="Path_999279" data-name="Path 999279" d="M274.111,201.686a12.8,12.8,0,0,0,5.809,10.007c2.111,1.218,3.444,1.564,4.458.215a4.156,4.156,0,0,1-4-.462,12.8,12.8,0,0,1-5.809-10.007,4.828,4.828,0,0,1,.836-2.946C274.294,199.069,274.111,199.793,274.111,201.686Z" transform="translate(-273.021 -193.485)" fill="#363636"/>
            </g>
            <path id="Path_999280" data-name="Path 999280" d="M280.367,202.735l.292-8.127,1.939-.853,3.494,2.043.678,1.092L285.5,202.9l-1.939.853a11.74,11.74,0,0,1-2.159.641C281.294,204.282,280.367,202.735,280.367,202.735Z" transform="translate(-270.134 -134.892)" fill="#8e8e8e"/>
            <path id="Path_999281" data-name="Path 999281" d="M278.105,203.76l2.441-3.286.44-5.972,3.494,2.043.678,1.092-1.266,6.014-3.526,1.415s-1.108.476-1.221.358S278.105,203.76,278.105,203.76Z" transform="translate(-270.462 -134.785)" fill="#cfcfcf"/>
            <g id="Group_1183468" data-name="Group 1183468" transform="translate(13.821 43.921)">
              <path id="Path_999282" data-name="Path 999282" d="M323.751,221.177,283.5,197.938V180.7h1.478v16.384L324.491,219.9Z" transform="translate(-283.502 -180.701)" fill="#e0e0e0"/>
            </g>
            <path id="Path_999283" data-name="Path 999283" d="M293.846,171.307l26.27,31.581,1.062-.763V185.711l-26.271-15.167Z" transform="translate(-268.186 -138.248)" fill="#8b6865"/>
            <path id="Path_999284" data-name="Path 999284" d="M293.846,187.625l26.27,15.167V186.378l-26.27-15.167Z" transform="translate(-268.186 -138.152)" fill="#764d4a"/>
            <g id="Group_1183469" data-name="Group 1183469" transform="translate(18.771 30.297)">
              <path id="Path_999285" data-name="Path 999285" d="M322,208.594h-1.478V184.349l-24.153-13.944a.944.944,0,0,0-1.414.818v3.359a2.6,2.6,0,0,1-3.9,2.25l-.339-.2a.937.937,0,0,0-.943,0,.927.927,0,0,0-.472.817v10.238h-1.478V177.454a2.422,2.422,0,0,1,3.633-2.1l.339.2a1.121,1.121,0,0,0,1.681-.971v-3.359a2.421,2.421,0,0,1,3.632-2.1L322,183.5v25.1Z" transform="translate(-287.827 -168.798)" fill="#e0e0e0"/>
            </g>
            <path id="Path_999286" data-name="Path 999286" d="M314.184,181.019l-19.2-11.085c-.776-.448-1.157-2.247-.261-2.764l.48,1.01a3.389,3.389,0,0,1,3.04-.126l19.48,9.91c.776.448.4,2.414-.5,2.931h0A3.393,3.393,0,0,1,314.184,181.019Z" transform="translate(-268.134 -138.736)" fill="#48110d"/>
            <path id="Path_999287" data-name="Path 999287" d="M314.152,179.732l-19.2-11.086c-.776-.448-.678-1.237.219-1.755h0a3.389,3.389,0,0,1,3.04-.126l19.2,11.085c.776.448.678,1.237-.219,1.755h0A3.389,3.389,0,0,1,314.152,179.732Z" transform="translate(-268.102 -138.839)" fill="#633431"/>
            <path id="Path_999288" data-name="Path 999288" d="M276.594,161.071a.026.026,0,0,0,.007.022,4.424,4.424,0,0,0,.688.858l-.414.5s.015.133.045.31a9.277,9.277,0,0,0,.177,1c0,.015,0,.03.008.037.052.134.318.237.532.3.163.045.3.074.3.074l-.177.555.037.141.282,1.2a8.543,8.543,0,0,0,.948.741,2.547,2.547,0,0,0,.762.37,4.011,4.011,0,0,0,1.533-.089l1.339.688a65.8,65.8,0,0,1,9.709,3.382c6.2,2.59,18.5,5.455,20.035,4.67s10.176-9.673,10.176-9.673l-2.265-6.128-.141-.393s-.407.045-1.021.118c-1.984.237-6.188.726-6.291.762a4.979,4.979,0,0,0-.437.674c-.7,1.14-2.1,3.412-3.538,4.367-1.251,1.3-18.917-1.939-19.48-2.035-.547-.089-2.4-2.679-2.4-2.679l-5.232-4.537-2.035-.925-1.339.37a9.564,9.564,0,0,0-1.48,1.665.345.345,0,0,0,.03.4.784.784,0,0,0,.436.252l-.081.1c-.06.074-.177.215-.385.459A4.43,4.43,0,0,0,276.594,161.071Z" transform="translate(-270.686 -140.441)" fill="url(#linear-gradient-32)"/>
            <path id="Path_999289" data-name="Path 999289" d="M278.219,162.537l-.718.555c.163.045.3.074.3.074l-.177.555.037.141c.326-.444.651-.814.651-.814l.532-.718Z" transform="translate(-270.549 -139.436)" fill="url(#linear-gradient-33)"/>
            <path id="Path_999290" data-name="Path 999290" d="M280.881,158.786l.045-.355-1.48-1.74s-.822-.615-1.036-.555a7.31,7.31,0,0,0-1.029,1.4l-.481.171a.784.784,0,0,0,.436.252l-.081.1.4-.148.969.325Z" transform="translate(-270.636 -140.332)" fill="url(#linear-gradient-34)"/>
            <path id="Path_999291" data-name="Path 999291" d="M277.283,161.4l-.414.5s.015.133.045.31l.045-.192,2.176-1.177-.141-.259-2.035-1.428-.348.829-.015.555A4.423,4.423,0,0,0,277.283,161.4Z" transform="translate(-270.68 -139.894)" fill="url(#linear-gradient-35)"/>
            <path id="Path_999292" data-name="Path 999292" d="M279.166,165.094l-.651.3.222.9a2.549,2.549,0,0,0,.762.37,4.01,4.01,0,0,0,1.533-.089l1.339.688a65.8,65.8,0,0,1,9.709,3.382c6.2,2.59,18.5,5.455,20.035,4.67s10.176-9.673,10.176-9.673l-2.265-6.128a11.81,11.81,0,0,0-1.162-.274,25.642,25.642,0,0,0-7.134-.1s-.156.5.406,1.539a6.676,6.676,0,0,0,.636.991c1.3,1.725,7.031,5.492,7.031,5.492l-2.62,3.264s-5.366,4.537-6.135,4.537-5.18-.807-7.741-1.324-12.271-3.73-13.108-4.166-6.35-2.31-6.35-2.31l-3.389-.955Z" transform="translate(-270.402 -139.928)" fill="url(#linear-gradient-36)"/>
            <path id="Path_999293" data-name="Path 999293" d="M307.479,162.248s2.343,2.19,4.039,3.608a67.274,67.274,0,0,0,6.846,4.256s7.062-8.573,7.987-9.529,5-7.277,2.282-12.581a10.028,10.028,0,0,0-7.555-5.674,8.832,8.832,0,0,0-3.022,1.727c-1.11,1.11-4.656,10.67-4.656,10.67Z" transform="translate(-266.215 -142.328)" fill="#ff7c12"/>
            <path id="Path_999294" data-name="Path 999294" d="M321.015,182.439c-7.887-4.55-14.915-4.4-19.473-.446-3.378,2.916-5.394,7.919-5.394,14.621,0,15.76,11.131,34.953,24.866,42.881,6.374,3.681,12.19,4.286,16.588,2.287,5.075-2.287,8.271-8.023,8.271-16.461C345.874,209.569,334.743,190.367,321.015,182.439Zm13.258,53.885c-3.713,3.426-9.569,3.633-16.15-.167-11.234-6.485-20.341-22.189-20.341-35.08,0-7.075,2.749-11.84,7.083-13.616,3.713-3.426,9.569-3.633,16.15.167,11.234,6.485,20.333,22.2,20.333,35.08C341.349,229.782,338.607,234.547,334.273,236.324Z" transform="translate(-267.853 -137.022)" fill="#2c2c2c"/>
            <path id="Path_999295" data-name="Path 999295" d="M318.488,184.055c-6.374-3.681-12.182-4.286-16.58-2.295-5.083,2.295-8.279,8.032-8.279,16.469,0,15.76,11.131,34.953,24.859,42.881,7.9,4.558,14.931,4.4,19.481.438,3.371-2.916,5.378-7.911,5.378-14.612C343.346,211.184,332.215,191.983,318.488,184.055Zm-13.259,3.17c3.562-1.458,8.191-.909,13.258,2.016,11.234,6.485,20.34,22.2,20.34,35.08,0,5.338-1.561,9.353-4.19,11.767-3.713,3.426-9.569,3.633-16.15-.167-11.234-6.485-20.341-22.189-20.341-35.08C298.147,193.767,300.9,189,305.229,187.226Z" transform="translate(-268.217 -136.789)" fill="#292929"/>
            <path id="Path_999296" data-name="Path 999296" d="M334.067,235.258c-3.713,3.426-9.569,3.633-16.15-.167-11.234-6.485-20.341-22.189-20.341-35.08,0-7.075,2.749-11.84,7.083-13.616-2.629,2.414-4.19,6.43-4.19,11.767,0,12.891,9.106,28.6,20.34,35.081C325.877,236.167,330.506,236.717,334.067,235.258Z" transform="translate(-267.646 -135.957)" fill="#8e8e8e"/>
            <g id="Group_1183470" data-name="Group 1183470" transform="translate(28.34 43.86)">
              <path id="Path_999297" data-name="Path 999297" d="M317.279,184.055c-5.764-3.328-11.066-4.132-15.282-2.788,3.926-.712,8.63.266,13.689,3.187,13.73,7.927,24.86,27.125,24.86,42.881,0,9.141-3.751,15.105-9.578,16.962,6.729-1.219,11.171-7.411,11.171-17.36C342.14,211.181,331.009,191.983,317.279,184.055Z" transform="translate(-295.347 -180.648)" fill="#363636"/>
              <path id="Path_999298" data-name="Path 999298" d="M305.457,186.211c-5.578.941-9.27,6.021-9.27,14.224,0,12.889,9.106,28.6,20.339,35.081,4.789,2.765,9.188,3.4,12.664,2.228-3.186.538-6.985-.269-11.069-2.627-11.233-6.485-20.338-22.191-20.338-35.081C297.78,192.641,300.78,187.787,305.457,186.211Z" transform="translate(-296.187 -179.843)" fill="#363636"/>
            </g>
            <g id="Group_1183471" data-name="Group 1183471" transform="translate(28.091 49.32)">
              <path id="Path_999299" data-name="Path 999299" d="M326.227,239.237a19.305,19.305,0,0,1-9.492-2.9c-11.449-6.61-20.765-22.678-20.765-35.816,0-6.473,2.222-11.32,6.256-13.649,4.07-2.351,9.442-1.834,15.13,1.449,11.449,6.611,20.765,22.679,20.765,35.819,0,6.473-2.222,11.32-6.256,13.648A11.134,11.134,0,0,1,326.227,239.237Zm-18.358-52.575a9.909,9.909,0,0,0-5.021,1.284c-3.634,2.1-5.635,6.563-5.635,12.573,0,12.744,9.036,28.328,20.143,34.741,5.287,3.053,10.219,3.57,13.887,1.45,3.634-2.1,5.635-6.563,5.635-12.573,0-12.744-9.036-28.33-20.143-34.741A18.069,18.069,0,0,0,307.869,186.662Z" transform="translate(-295.97 -185.418)" fill="#e0e0e0"/>
            </g>
            <path id="Path_999300" data-name="Path 999300" d="M312.275,207.088a7.751,7.751,0,0,0,3.519,6.069c1.943,1.122,3.518.223,3.518-2.006a7.752,7.752,0,0,0-3.518-6.069C313.85,203.96,312.275,204.859,312.275,207.088Z" transform="translate(-265.521 -133.325)" fill="#8e8e8e"/>
            <path id="Path_999301" data-name="Path 999301" d="M313.658,207.745a4.264,4.264,0,0,0,1.936,3.339c1.069.617,1.935.124,1.935-1.1a4.264,4.264,0,0,0-1.935-3.339C314.524,206.025,313.658,206.518,313.658,207.745Z" transform="translate(-265.321 -133.068)" fill="#aeaeae"/>
            <g id="Group_1183472" data-name="Group 1183472" transform="translate(0 43.436)">
              <path id="Path_999302" data-name="Path 999302" d="M272.891,204.131l-1.464-.211,3.111-21.605a3.088,3.088,0,0,1,4.448-1.624l7.371,4.256-.741,1.28-7.37-4.256a1.609,1.609,0,0,0-2.294.783Z" transform="translate(-271.427 -180.277)" fill="#e0e0e0"/>
            </g>
            <g id="Group_1183473" data-name="Group 1183473" transform="translate(2.692 47.11)">
              <rect id="Rectangle_455039" data-name="Rectangle 455039" width="1.479" height="13.265" transform="matrix(0.5, -0.866, 0.866, 0.5, 0, 1.281)" fill="#e0e0e0"/>
            </g>
            <g id="Group_1183474" data-name="Group 1183474" transform="translate(12.329 53.527)">
              <rect id="Rectangle_455040" data-name="Rectangle 455040" width="1.478" height="6.397" fill="#e0e0e0"/>
            </g>
            <g id="Group_1183475" data-name="Group 1183475" transform="translate(49.478 66.98)">
              <rect id="Rectangle_455041" data-name="Rectangle 455041" width="1.478" height="14.399" fill="#e0e0e0"/>
            </g>
          </g>
        </g>
      </g>
    </g>
    <g id="Group_1186137" data-name="Group 1186137" transform="translate(-248.288 384.625)">
      <path id="Path_1000238" data-name="Path 1000238" d="M35.991,406.43a2.493,2.493,0,0,1,1.388,2.693c-.25,1.583-1.319,2.54-3.5,2.54H29.87v-9.827h3.942a2.883,2.883,0,0,1,3.192,3A1.979,1.979,0,0,1,35.991,406.43Zm-2.179-.749a.876.876,0,1,0,0-1.749H32.368v1.749Zm0,3.8a1.012,1.012,0,1,0,0-2.013H32.368v2.013Z" transform="translate(-29.87 -401.836)" fill="#fff"/>
      <path id="Path_1000239" data-name="Path 1000239" d="M51.184,411.663H48.519l-.638-1.971H45.258l-.611,1.971H41.982l3.429-9.827h2.262Zm-3.9-4.178-.68-2.873h-.069l-.722,2.873Z" transform="translate(-34.379 -401.836)" fill="#fff"/>
      <path id="Path_1000240" data-name="Path 1000240" d="M60.632,408.54h-.444v3.123H57.675v-9.827H61.6c2.026,0,3.6.93,3.65,3.234,0,1.819-.736,2.845-1.929,3.22L66,411.663h-3.1Zm1.014-2.137a1.125,1.125,0,1,0,0-2.248H60.188V406.4Z" transform="translate(-40.221 -401.836)" fill="#fff"/>
      <path id="Path_1000241" data-name="Path 1000241" d="M74.91,408.54h-.444v3.123H71.954v-9.827h3.928c2.027,0,3.6.93,3.65,3.234,0,1.819-.736,2.845-1.929,3.22l2.679,3.373h-3.1Zm1.013-2.137a1.125,1.125,0,1,0,0-2.248H74.466V406.4Z" transform="translate(-45.537 -401.836)" fill="#fff"/>
      <path id="Path_1000242" data-name="Path 1000242" d="M88.717,411.663H86.232v-9.827h2.485Z" transform="translate(-50.852 -401.836)" fill="#fff"/>
      <path id="Path_1000243" data-name="Path 1000243" d="M95.176,405.694H99.16v2.152H95.176v1.471h4.33v2.345H92.664v-9.827h6.842v2.332h-4.33Z" transform="translate(-53.246 -401.836)" fill="#fff"/>
      <path id="Path_1000244" data-name="Path 1000244" d="M108.616,408.54h-.444v3.123H105.66v-9.827h3.928c2.027,0,3.6.93,3.65,3.234,0,1.819-.736,2.845-1.929,3.22l2.679,3.373h-3.1Zm1.013-2.137a1.125,1.125,0,1,0,0-2.248h-1.457V406.4Z" transform="translate(-58.084 -401.836)" fill="#fff"/>
      <path id="Path_1000245" data-name="Path 1000245" d="M126.473,405.958h3.789v2.318h-3.789v3.387h-2.512v-9.827H130.8v2.36h-4.33Z" transform="translate(-64.897 -401.836)" fill="#fff"/>
      <path id="Path_1000246" data-name="Path 1000246" d="M139.648,408.54H139.2v3.123h-2.512v-9.827h3.928c2.027,0,3.6.93,3.65,3.234,0,1.819-.736,2.845-1.929,3.22l2.679,3.373h-3.1Zm1.013-2.137a1.125,1.125,0,1,0,0-2.248H139.2V406.4Z" transform="translate(-69.636 -401.836)" fill="#fff"/>
      <path id="Path_1000247" data-name="Path 1000247" d="M153.481,405.694h3.984v2.152h-3.984v1.471h4.33v2.345h-6.842v-9.827h6.842v2.332h-4.33Z" transform="translate(-74.951 -401.836)" fill="#fff"/>
      <path id="Path_1000248" data-name="Path 1000248" d="M166.478,405.694h3.984v2.152h-3.984v1.471h4.33v2.345h-6.842v-9.827h6.842v2.332h-4.33Z" transform="translate(-79.79 -401.836)" fill="#fff"/>
    </g>
  </g>
</svg>
