<svg xmlns="http://www.w3.org/2000/svg" xmlns:xlink="http://www.w3.org/1999/xlink" width="369" height="326" viewBox="0 0 369 326">
  <defs>
    <linearGradient id="linear-gradient" y1="0.5" x2="1" y2="0.5" gradientUnits="objectBoundingBox">
      <stop offset="0" stop-color="#b39fa8"/>
      <stop offset="1" stop-color="#d4c9ce"/>
    </linearGradient>
    <linearGradient id="linear-gradient-2" y1="0.5" x2="1" y2="0.5" gradientUnits="objectBoundingBox">
      <stop offset="0.049" stop-color="#feb9b8"/>
      <stop offset="0.992" stop-color="#fea5a4"/>
    </linearGradient>
    <linearGradient id="linear-gradient-3" x1="0.047" y1="0.483" x2="3.195" y2="0.626" gradientUnits="objectBoundingBox">
      <stop offset="0.266" stop-color="#f07a7a"/>
      <stop offset="0.992" stop-color="#fea5a4"/>
    </linearGradient>
    <linearGradient id="linear-gradient-4" x1="0" y1="0.5" y2="0.5" xlink:href="#linear-gradient-2"/>
    <linearGradient id="linear-gradient-5" x1="0" y1="0.5" y2="0.5" xlink:href="#linear-gradient-2"/>
    <linearGradient id="linear-gradient-6" x1="0" y1="0.5" x2="1" y2="0.5" xlink:href="#linear-gradient-3"/>
    <linearGradient id="linear-gradient-7" x1="0" y1="0.5" y2="0.5" xlink:href="#linear-gradient-2"/>
    <linearGradient id="linear-gradient-8" x1="0" y1="0.5" x2="1" y2="0.5" xlink:href="#linear-gradient-3"/>
    <linearGradient id="linear-gradient-9" x1="0" y1="0.5" y2="0.5" xlink:href="#linear-gradient-2"/>
    <linearGradient id="linear-gradient-10" x1="0" y1="0.5" x2="1" y2="0.5" xlink:href="#linear-gradient-3"/>
    <linearGradient id="linear-gradient-11" x1="0" y1="0.5" y2="0.5" xlink:href="#linear-gradient-2"/>
    <linearGradient id="linear-gradient-12" x1="0.536" y1="0.499" x2="0.258" y2="0.552" xlink:href="#linear-gradient-2"/>
    <linearGradient id="linear-gradient-14" x1="0.002" y1="0.5" x2="1.001" y2="0.5" xlink:href="#linear-gradient-3"/>
    <linearGradient id="linear-gradient-15" x1="-0.004" y1="0.499" x2="1" y2="0.499" xlink:href="#linear-gradient-3"/>
    <linearGradient id="linear-gradient-16" x1="0.001" y1="0.5" x2="1.003" y2="0.5" xlink:href="#linear-gradient-3"/>
    <linearGradient id="linear-gradient-17" x1="0" y1="0.5" x2="1" y2="0.5" xlink:href="#linear-gradient-3"/>
    <linearGradient id="linear-gradient-18" x1="-0.001" y1="0.5" x2="1" y2="0.5" xlink:href="#linear-gradient-3"/>
    <linearGradient id="linear-gradient-19" x1="0" y1="0.498" y2="0.498" xlink:href="#linear-gradient-2"/>
    <linearGradient id="linear-gradient-20" x1="0" y1="0.5" y2="0.5" xlink:href="#linear-gradient-2"/>
    <linearGradient id="linear-gradient-21" x1="33.915" y1="0.5" x2="34.915" y2="0.5" xlink:href="#linear-gradient"/>
    <linearGradient id="linear-gradient-22" x1="248.524" y1="0.5" x2="249.524" y2="0.5" xlink:href="#linear-gradient-2"/>
    <linearGradient id="linear-gradient-23" x1="259.544" y1="8.051" x2="260.775" y2="8.051" xlink:href="#linear-gradient-2"/>
    <linearGradient id="linear-gradient-24" x1="406.624" y1="9.923" x2="407.97" y2="9.923" xlink:href="#linear-gradient-3"/>
    <linearGradient id="linear-gradient-25" x1="177.75" y1="0.5" x2="178.75" y2="0.5" xlink:href="#linear-gradient-2"/>
    <linearGradient id="linear-gradient-26" x1="1847.363" y1="0.5" x2="1848.365" y2="0.5" xlink:href="#linear-gradient-2"/>
    <linearGradient id="linear-gradient-27" x1="513.378" y1="0.499" x2="514.378" y2="0.499" xlink:href="#linear-gradient-2"/>
    <linearGradient id="linear-gradient-28" x1="452.433" y1="0.5" x2="453.434" y2="0.5" xlink:href="#linear-gradient-3"/>
    <linearGradient id="linear-gradient-29" x1="632.599" y1="0.501" x2="633.599" y2="0.501" xlink:href="#linear-gradient-3"/>
    <linearGradient id="linear-gradient-30" x1="269.339" y1="0.5" x2="270.339" y2="0.5" xlink:href="#linear-gradient-2"/>
    <linearGradient id="linear-gradient-31" x1="661.085" y1="0.5" x2="662.086" y2="0.5" xlink:href="#linear-gradient-3"/>
    <linearGradient id="linear-gradient-32" x1="75.371" y1="0.5" x2="76.371" y2="0.5" xlink:href="#linear-gradient-2"/>
    <linearGradient id="linear-gradient-33" x1="2624.142" y1="0.499" x2="2625.143" y2="0.499" xlink:href="#linear-gradient-3"/>
    <linearGradient id="linear-gradient-34" x1="871.905" y1="0.5" x2="872.906" y2="0.5" xlink:href="#linear-gradient-3"/>
    <linearGradient id="linear-gradient-35" x1="1383.414" y1="0.5" x2="1384.415" y2="0.5" xlink:href="#linear-gradient-3"/>
    <linearGradient id="linear-gradient-36" x1="79.695" y1="0.854" x2="79.666" y2="-0.321" xlink:href="#linear-gradient-3"/>
  </defs>
  <g id="img1_1" transform="translate(332 20)">
    <g id="Group_1183432" data-name="Group 1183432" transform="translate(-332 -19.903)">
      <g id="Group_1183431" data-name="Group 1183431" transform="translate(0)">
        <rect id="Rectangle_455032" data-name="Rectangle 455032" width="369" height="326" transform="translate(0 -0.097)" fill="#41ab72"/>
      </g>
    </g>
    <g id="Group_1183479" data-name="Group 1183479" transform="translate(-301.768 33.809)">
      <g id="Group_1183443" data-name="Group 1183443" transform="translate(0 0)">
        <path id="Path_999149" data-name="Path 999149" d="M160.162,319.216,19.038,237.738l166.613-96.553,141.124,81.478Z" transform="translate(-19.038 -100.363)" fill="#28925f"/>
        <path id="Path_999150" data-name="Path 999150" d="M160.48,334.5,19.356,253.02V241.692l299.3,1.48Z" transform="translate(-19.12 -126.253)" fill="#a79e81"/>
        <path id="Path_999151" data-name="Path 999151" d="M209.448,318.112V329.44l166.37-96.054.007-11.329Z" transform="translate(-68.088 -121.195)" fill="#a79e81"/>
        <path id="Path_999152" data-name="Path 999152" d="M160.48,291.481,19.356,210l158.181-91.326,141.123,81.478Z" transform="translate(-19.12 -94.565)" fill="#e7dab2"/>
        <g id="Group_1183441" data-name="Group 1183441" transform="translate(72.099)">
          <g id="Group_1183435" data-name="Group 1183435" transform="translate(19.76)">
            <g id="Group_1183433" data-name="Group 1183433" transform="translate(0 6.987)">
              <path id="Path_999153" data-name="Path 999153" d="M173.128,159.927l-30.357-19.452,77.708-44.865,30.357,19.452Z" transform="translate(-142.771 -95.609)" fill="#e7dab2"/>
            </g>
            <g id="Group_1183434" data-name="Group 1183434" transform="translate(77.708)">
              <path id="Path_999154" data-name="Path 999154" d="M288.676,117.029,353.824,172.1l8.189-4.728L296.865,112.3Z" transform="translate(-258.065 -92.922)" fill="#e7e0de"/>
              <path id="Path_999155" data-name="Path 999155" d="M247.443,90.926,278.054,110.3l8.189-4.728L255.632,86.2Z" transform="translate(-247.443 -86.198)" fill="#f7f5e0"/>
              <path id="Path_999156" data-name="Path 999156" d="M384.618,186.486l34.221,19.757-8.189,4.728-34.221-19.757Z" transform="translate(-280.67 -112.032)" fill="#f7f5e0"/>
              <path id="Path_999157" data-name="Path 999157" d="M430.713,219.749V213.1l-8.189,4.728v6.651Z" transform="translate(-292.544 -118.888)" fill="#c8b7b0"/>
              <path id="Path_999158" data-name="Path 999158" d="M343.2,167.02l34.221,19.757v6.651l-33.208-19.172L277.8,114.277,247.443,94.825V92.566l30.611,19.379Z" transform="translate(-247.443 -87.838)" fill="#9b8081"/>
            </g>
          </g>
          <g id="Group_1183440" data-name="Group 1183440" transform="translate(0 6.987)">
            <g id="Group_1183438" data-name="Group 1183438" transform="translate(64.598)">
              <g id="Group_1183437" data-name="Group 1183437">
                <g id="Group_1183436" data-name="Group 1183436">
                  <path id="Path_999159" data-name="Path 999159" d="M325.123,258.688l-32.5-19.583,63.228-36.5,33.208,19.172Z" transform="translate(-226.212 -123.17)" fill="#e7dab2"/>
                  <path id="Path_999160" data-name="Path 999160" d="M203.167,158.315l66.415,59.978,63.228-36.5-66.415-59.978Z" transform="translate(-203.167 -102.359)" fill="#d0c39a"/>
                  <path id="Path_999161" data-name="Path 999161" d="M376.284,194.212H367.11l-29.763-15.865-62.661-61.132-31.666-19.9,3.283-1.7,30.357,19.452,66.415,59.978Z" transform="translate(-213.433 -95.609)" fill="#d9d4de"/>
                </g>
              </g>
            </g>
            <g id="Group_1183439" data-name="Group 1183439" transform="translate(14.195 29.928)">
              <path id="Path_999162" data-name="Path 999162" d="M191.882,175.078l65.148,55.075,8.189-4.728L200.071,170.35Z" transform="translate(-149.857 -144.791)" fill="#e7e0de"/>
              <path id="Path_999163" data-name="Path 999163" d="M135.275,140.65,177.3,166.21l8.189-4.728-42.026-25.559Z" transform="translate(-135.275 -135.922)" fill="#f7f5e0"/>
              <path id="Path_999164" data-name="Path 999164" d="M287.824,244.535l33.952,18.305-8.189,4.728-33.952-18.3Z" transform="translate(-172.462 -163.901)" fill="#f7f5e0"/>
              <path id="Path_999165" data-name="Path 999165" d="M333.557,275.842v-6.65l-8.189,4.728v6.651Z" transform="translate(-184.243 -170.253)" fill="#c8b7b0"/>
              <path id="Path_999166" data-name="Path 999166" d="M242.448,222.925l33.952,18.3v6.651L135.275,166.4V142.291L177.3,167.85Z" transform="translate(-135.275 -137.563)" fill="#9b8081"/>
            </g>
            <path id="Path_999167" data-name="Path 999167" d="M271.468,256.249H257.706L223.778,238.5l-43.931-14.774-63.693-40.758,14.19-8.192h0Z" transform="translate(-116.154 -116.001)" fill="#c3bbcb"/>
          </g>
        </g>
        <g id="Group_1183442" data-name="Group 1183442" transform="translate(29.216 89.382)">
          <g id="XMLID_2084_">
            <g id="XMLID_2741_" transform="translate(141.123 81.478)">
              <path id="Path_999168" data-name="Path 999168" d="M264.784,324.984l-16.3,9.38v-8.64l16.3-9.38Z" transform="translate(-248.483 -316.344)" fill="#b56400"/>
            </g>
            <g id="XMLID_2739_">
              <path id="Path_999169" data-name="Path 999169" d="M199.515,297.453,58.392,215.975l16.3-9.381,141.123,81.478Z" transform="translate(-58.392 -206.594)" fill="#ffb71a"/>
            </g>
          </g>
          <g id="XMLID_1252_" transform="translate(12.679 1.042)">
            <g id="XMLID_1254_" transform="translate(1.811)">
              <path id="Path_999170" data-name="Path 999170" d="M219.033,290.755,77.91,209.278V208l141.123,81.478Z" transform="translate(-77.91 -207.998)" fill="#d98600"/>
            </g>
            <g id="XMLID_1253_" transform="translate(1.109 1.279)">
              <path id="Path_999171" data-name="Path 999171" d="M76.965,210.124l140.013,80.838v1.28l1.81-1.042L77.666,209.721Z" transform="translate(-76.965 -209.721)" fill="#f29900"/>
            </g>
            <g id="XMLID_1263_">
              <path id="Path_999172" data-name="Path 999172" d="M75.471,209.042,77.282,208v1.28l-.7.4Z" transform="translate(-75.471 -207.998)" fill="#a8592c"/>
            </g>
          </g>
          <g id="XMLID_5048_" transform="translate(9.057 3.127)">
            <g id="XMLID_5051_" transform="translate(1.811)">
              <path id="Path_999173" data-name="Path 999173" d="M214.153,293.563,73.03,212.086v-1.28l141.123,81.478Z" transform="translate(-73.03 -210.806)" fill="#d98600"/>
            </g>
            <g id="XMLID_5050_" transform="translate(1.11 1.279)">
              <path id="Path_999174" data-name="Path 999174" d="M72.086,212.932,212.1,293.77v1.28l1.811-1.042L72.787,212.529Z" transform="translate(-72.086 -212.529)" fill="#f29900"/>
            </g>
            <g id="XMLID_5049_">
              <path id="Path_999175" data-name="Path 999175" d="M70.591,211.85l1.811-1.044v1.28l-.7.4Z" transform="translate(-70.591 -210.806)" fill="#a8592c"/>
            </g>
          </g>
          <g id="XMLID_5056_" transform="translate(5.434 5.212)">
            <g id="XMLID_5059_" transform="translate(1.811)">
              <path id="Path_999176" data-name="Path 999176" d="M209.274,296.371,68.151,214.893v-1.279l141.123,81.478Z" transform="translate(-68.151 -213.614)" fill="#d98600"/>
            </g>
            <g id="XMLID_5058_" transform="translate(1.11 1.279)">
              <path id="Path_999177" data-name="Path 999177" d="M67.207,215.74,207.22,296.578v1.281l1.81-1.042L67.907,215.337Z" transform="translate(-67.207 -215.337)" fill="#f29900"/>
            </g>
            <g id="XMLID_5057_">
              <path id="Path_999178" data-name="Path 999178" d="M65.712,214.658l1.811-1.044v1.279l-.7.4Z" transform="translate(-65.712 -213.614)" fill="#a8592c"/>
            </g>
          </g>
          <g id="XMLID_5052_" transform="translate(1.812 7.296)">
            <g id="XMLID_5055_" transform="translate(1.81)">
              <path id="Path_999179" data-name="Path 999179" d="M204.394,299.179,63.271,217.7v-1.279L204.394,297.9Z" transform="translate(-63.271 -216.422)" fill="#d98600"/>
            </g>
            <g id="XMLID_5054_" transform="translate(1.109 1.278)">
              <path id="Path_999180" data-name="Path 999180" d="M62.327,218.548l140.014,80.838v1.281l1.81-1.042L63.028,218.144Z" transform="translate(-62.327 -218.144)" fill="#f29900"/>
            </g>
            <g id="XMLID_5053_">
              <path id="Path_999181" data-name="Path 999181" d="M60.833,217.465l1.81-1.043V217.7l-.7.4Z" transform="translate(-60.833 -216.422)" fill="#a8592c"/>
            </g>
          </g>
        </g>
      </g>
      <g id="Group_1183448" data-name="Group 1183448" transform="translate(42.374 9.629)">
        <path id="Path_999182" data-name="Path 999182" d="M132.4,245.9c-.062-.313-2.707-1.068-2.707-1.068l-.241.056L105.176,233.57c4.865-3.09,4.7-7.884-.5-10.887-5.357-3.093-14.016-3.108-19.34-.035s-5.3,8.073.06,11.166c4.738,2.736,12.048,3.054,17.36.967l25.653,11.965c0,.012.076.18.1.212s1.914,1.131,2.233,1.315,1.016-.393,1.36-1.045A1.866,1.866,0,0,0,132.4,245.9Z" transform="translate(-77.467 -130.386)" fill="url(#linear-gradient)"/>
        <g id="Group_1183446" data-name="Group 1183446">
          <path id="Path_999183" data-name="Path 999183" d="M106.32,223.743a19.366,19.366,0,0,1-1.2-1.846c-.157-.393-.864-.707-.864-.707a22.1,22.1,0,0,0-2.3,1.3c-.275.275-1.08,1-1.08,1l-.785.1s-1.2-.649-1.434-1.12a2.486,2.486,0,0,1,0-1.36l.186-1.113a3.147,3.147,0,0,0-.814,1.333c-.059.569-.1,1.78-.1,1.78a2.96,2.96,0,0,0-.053,1.206,3.188,3.188,0,0,0,1.807,1.65c1.08.432.987.177,1.662.668s2.4,2.22,3.837,2.672a6.192,6.192,0,0,0,3.653,0,6.828,6.828,0,0,0,1.257-1.2l.157-1.3a10.325,10.325,0,0,0-.589-1.473C109.5,225.157,106.32,223.743,106.32,223.743Z" transform="translate(-81.707 -130.293)" fill="#f04340"/>
          <path id="Path_999184" data-name="Path 999184" d="M98.032,227.989s-.669-2.212-1.061-2.259a7.584,7.584,0,0,0-2.71.746c-.53.353-1.866,1.022-1.866,1.022a4.408,4.408,0,0,1-.943-.746,5.157,5.157,0,0,1-.255-1.374l.146-.9s-.342-.113-.4,0a19.4,19.4,0,0,0-.432,2.49c0,.413.039,1.3.039,1.3a10.963,10.963,0,0,0,1.12,1.842,9.878,9.878,0,0,1,.9,1.144,6.655,6.655,0,0,0,2.082,2.691,5.286,5.286,0,0,0,3.555.708,5.34,5.34,0,0,0,3.2-.924,1.548,1.548,0,0,0,.413-.884,2.687,2.687,0,0,0-.451-1.65Z" transform="translate(-79.823 -131.435)" fill="#f04340"/>
          <path id="Path_999185" data-name="Path 999185" d="M118.9,160.965a3.968,3.968,0,0,1-.882,1.8,2.454,2.454,0,0,1-.764.476l-.08.028-.382-.123-.146.113a1.907,1.907,0,0,1-.547.316.536.536,0,0,1-.264-.146v-.005a2.137,2.137,0,0,1-.189-.17l0,0s-.042.019-.151-.033c-.16-.076-.3-.085-.363-.292a.387.387,0,0,1-.028-.113.755.755,0,0,1,.132-.547l.307-.636.217-1.013-.33.67v.01l-.278.561a2.027,2.027,0,0,1-.325.439c-.113.085-.231.076-.307-.094a.374.374,0,0,1-.033-.085c-.076-.25.293-1.146.311-1.471s-.076-1.933-.076-1.933a18.161,18.161,0,0,0-1.485-2.621c-.74-.99-2.192-6.987-3-8.557a55.155,55.155,0,0,1-1.57-7.581c-1.216-7.4-2.391-17.486-.844-17.524,2.357-.061,2.654,4.2,2.612,5.087a96.121,96.121,0,0,0,1.042,10.207,46.126,46.126,0,0,1,2.079,6.332,91.269,91.269,0,0,0,2.885,10.64c.486.867,2.018,2.857,2.15,3.253A20.984,20.984,0,0,1,118.9,160.965Z" transform="translate(-84.092 -105.159)" fill="url(#linear-gradient-2)"/>
          <path id="Path_999186" data-name="Path 999186" d="M83.788,123.522s-7.2,3.292-7.633,4.112,2.754,19.276,3.236,20.734,7.6-2.888,7.6-2.888l5.988-12.95S87.03,122.277,83.788,123.522Z" transform="translate(-76.115 -105.415)" fill="#b42a03"/>
          <path id="Path_999187" data-name="Path 999187" d="M118.063,168.182a7.452,7.452,0,0,0-.471.708c-.014.056.085.169.212.287l-.08.028-.382-.122-.146.113c-.033-.066-.056-.122-.056-.122l.217-.575.434-.65-.3-.467-.273.221-.608,1.316s-.241.241-.226.443a2.132,2.132,0,0,1-.189-.17.772.772,0,0,1,.071-.3c.1-.226.453-.933.453-.933l.283-.778h-.547l-.325.6s-.269.641-.453,1.084a.388.388,0,0,1-.028-.113.755.755,0,0,1,.132-.547l.307-.636.217-1.013-.33.67a.649.649,0,0,0-.024-.335.823.823,0,0,0-.174-.207,2.982,2.982,0,0,0-.509.716,7.632,7.632,0,0,1-.2.74.372.372,0,0,1-.033-.085c-.076-.25.292-1.146.311-1.471s-.076-1.933-.076-1.933a18.16,18.16,0,0,0-1.485-2.621c-.74-.99-2.192-6.987-3-8.557a55.153,55.153,0,0,1-1.57-7.581c.523-.382.99-.57,1.07-.226.179.736.707,5.629.976,6.511s2.324,3.125,2.706,6.157.415,3.362.65,3.682.584,2.117,1.745,2.347,1.292-1.117,1.292-1.117a10.139,10.139,0,0,1,.58.872c.056.16.363,1.839.363,1.839l.193.924S118.181,167.984,118.063,168.182Z" transform="translate(-84.641 -111.099)" fill="url(#linear-gradient-3)"/>
          <path id="Path_999188" data-name="Path 999188" d="M119.8,172.954a.407.407,0,0,0,.52-.383c.03-.491-.383-1.7-.373-2.406s-.059-1.463-.059-1.463a7.042,7.042,0,0,0-.481-1.679,2.051,2.051,0,0,0-1.031-1.031s-1.208.177-1.365.55a4.132,4.132,0,0,0,.815,2.534,7.428,7.428,0,0,1,.84.953s.21.7.368,1.169.118.707.235,1.08A1.653,1.653,0,0,0,119.8,172.954Z" transform="translate(-86.642 -116.382)" fill="url(#linear-gradient-4)"/>
          <path id="Path_999189" data-name="Path 999189" d="M103.744,191.56s-.825,9.872-.561,13.026.382,4.12,1.033,5.422-1.212,3-1.212,3-.627-.193-1.4-.439c-1.023-.321-2.3-.73-2.72-.915a1.575,1.575,0,0,1-.74-1.857,10.547,10.547,0,0,0,.471-2.508,32.637,32.637,0,0,0-1-7.392c-.622-1.754-.825-4.979-.74-8.279s.915-13.2,2.008-14.03a9.343,9.343,0,0,1,1.985-.952c1.466-.561,3.111-1.047,3.111-1.047l3.121-.74a76.269,76.269,0,0,1-1.976,11.14A34.855,34.855,0,0,0,103.744,191.56Z" transform="translate(-81.458 -118.664)" fill="url(#linear-gradient-5)"/>
          <path id="Path_999190" data-name="Path 999190" d="M101.981,212.07s-.137.419-.377,1.122c-1.023-.321-2.3-.73-2.72-.915a1.576,1.576,0,0,1-.74-1.857,10.546,10.546,0,0,0,.471-2.508,32.635,32.635,0,0,0-1-7.392c-.622-1.754-.825-4.979-.74-8.279s.915-13.2,2.008-14.03a9.338,9.338,0,0,1,1.985-.952,2.681,2.681,0,0,1,1.037,1.848c-.16,1.306-1.641,9.773-1.8,11.4s-1.843,6.365-1.872,7.6.825,7.779.825,7.779.146,2.89.09,3.333-.146,2.136.193,2.367A14.107,14.107,0,0,0,101.981,212.07Z" transform="translate(-81.458 -119.285)" fill="url(#linear-gradient-6)"/>
          <path id="Path_999191" data-name="Path 999191" d="M106.32,222.807a19.366,19.366,0,0,1-1.2-1.846c-.157-.393-.864-.708-.864-.708a22.1,22.1,0,0,0-2.3,1.3c-.275.275-1.08,1-1.08,1l-.785.1s-1.2-.649-1.434-1.12a2.486,2.486,0,0,1,0-1.36l.186-1.113a3.147,3.147,0,0,0-.814,1.333c-.059.569-.1,1.78-.1,1.78a2.96,2.96,0,0,0-.053,1.206,3.187,3.187,0,0,0,1.807,1.65c1.08.432.987.177,1.662.668s2.4,2.22,3.837,2.671a6.187,6.187,0,0,0,3.653,0,6.829,6.829,0,0,0,1.257-1.2l.157-1.3a10.325,10.325,0,0,0-.589-1.473C109.5,224.221,106.32,222.807,106.32,222.807Z" transform="translate(-81.707 -130.051)" fill="#e6e5e0"/>
          <path id="Path_999192" data-name="Path 999192" d="M95.016,194.183c-.561,1.15-1.324,10.136-1.212,11.819s1.683,5.214,1.976,6.242.269,4.068-2.324,3.922a4.9,4.9,0,0,1-.806-.108,3.329,3.329,0,0,1-2.555-2.546c-.353-.882.174-1.65.3-3.093s-2.183-7.751-2.744-11.018,1.15-6.308,1.24-8.693-2.122-12.993-2.122-12.993l.462-.273,7.374-4.413s4.007,3.508,3.889,5.54-1.825,11.169-2.206,12.314A25.1,25.1,0,0,1,95.016,194.183Z" transform="translate(-78.858 -118.195)" fill="url(#linear-gradient-7)"/>
          <path id="Path_999193" data-name="Path 999193" d="M92.649,217.59a3.329,3.329,0,0,1-2.555-2.546c-.353-.882.174-1.65.3-3.093s-2.183-7.751-2.744-11.018,1.15-6.308,1.24-8.693-2.122-12.993-2.122-12.993l.462-.273a14.1,14.1,0,0,1,.49,3.059,60.246,60.246,0,0,0,1.235,6.6,47.75,47.75,0,0,1,.316,5.3,21.606,21.606,0,0,0-1.414,5.031c-.273,2.357,1.179,6.6,1.768,8.74a42.552,42.552,0,0,1,.924,4.4l-.123,2.1.4.806,1.24.471S92.4,216.671,92.649,217.59Z" transform="translate(-78.858 -119.726)" fill="url(#linear-gradient-8)"/>
          <path id="Path_999194" data-name="Path 999194" d="M98.032,227.053s-.669-2.212-1.061-2.259a7.583,7.583,0,0,0-2.71.746c-.53.353-1.866,1.022-1.866,1.022a4.393,4.393,0,0,1-.943-.747,5.157,5.157,0,0,1-.255-1.374l.146-.9s-.342-.114-.4,0a19.4,19.4,0,0,0-.432,2.49c0,.413.039,1.3.039,1.3a10.961,10.961,0,0,0,1.12,1.842,9.885,9.885,0,0,1,.9,1.144A6.656,6.656,0,0,0,94.654,233a5.282,5.282,0,0,0,3.555.707,5.34,5.34,0,0,0,3.2-.924,1.548,1.548,0,0,0,.413-.884,2.687,2.687,0,0,0-.451-1.65C100.88,229.783,98.032,227.053,98.032,227.053Z" transform="translate(-79.823 -131.194)" fill="#e6e5e0"/>
          <path id="Path_999195" data-name="Path 999195" d="M108.308,169.292a5.461,5.461,0,0,1-1.448,3c-1.117.853-7.071,2.918-8.986,3.918a10.951,10.951,0,0,1-3.121.844c-.4.061-.8.113-1.2.156a40.159,40.159,0,0,1-4.022.241,47.146,47.146,0,0,1-5.747-.919,5.93,5.93,0,0,0-.618-.085c-.943-.056-.971-1.386-.971-1.621s.293-7.275.618-8.25.589-4.979,1.414-6.242,1.221-3.682,2.187-4.347c.453-.307,4.022-.754,7.7-1.136h0c4.182-.439,8.5-.8,8.5-.8s.165.122.415.339a10.4,10.4,0,0,1,2,2.254c.915,1.476,1.471,5.893,1.561,6.629S108.308,169.292,108.308,169.292Z" transform="translate(-77.682 -113.308)" fill="#f04340"/>
          <path id="Path_999196" data-name="Path 999196" d="M94.755,172.822a.375.375,0,0,1-.033.151c-.184.235-1.164.01-1.164.01V169.8s-.67-3.116-1.73-4.333a49.483,49.483,0,0,1-3.46-6.1l-2-5.888s-1.254,2.555-1.687,3.616a42.507,42.507,0,0,0-1.179,6.991v6.643s.151.664.293,1.565a5.926,5.926,0,0,0-.618-.085c-.943-.056-.971-1.386-.971-1.621s.293-7.275.618-8.25.589-4.979,1.414-6.242,1.221-3.682,2.187-4.347a.441.441,0,0,1-.066-.132c-.382-1.212-.146-3.479-.736-6.336a54.977,54.977,0,0,0-1.9-5.794c1.791-1.094,3.229-1.876,3.229-1.876s2.909,5.143,3.182,6.638A2.136,2.136,0,0,0,91.9,145.94l-.448,1.693.448,2,2.216.981-2.032.825a6.666,6.666,0,0,1,.722,1.745v.01a8.757,8.757,0,0,1-.726,2.687c-.335,1.061,2.64,9.773,2.64,9.773S94.883,171.771,94.755,172.822Z" transform="translate(-77.683 -109.072)" fill="#c9b9b3"/>
          <g id="Group_1183444" data-name="Group 1183444" transform="translate(13.677 58.534)">
            <path id="Path_999197" data-name="Path 999197" d="M94.727,180.55l-.189-.31,3.621-2.227.189.31Z" transform="translate(-94.538 -178.012)" fill="#1d1800"/>
          </g>
          <path id="Path_999198" data-name="Path 999198" d="M105.06,136.776c-.556,1.65-1.839,7.425-2.178,9-.056.25-.09.4-.09.4-.707.886-2.3,1.8-6.511,2.419a22.349,22.349,0,0,1-3.625.212c-3.055-.048-5.879-.622-6.388-1.434a.44.44,0,0,1-.066-.132c-.382-1.212-.146-3.479-.736-6.336a54.98,54.98,0,0,0-1.9-5.794c-1.061-2.913-2.117-5.728-1.938-5.992.325-.471,6.251-7.486,6.251-7.486a31.786,31.786,0,0,1,5.422-1.027c1.471.028,8.071.971,8.806,1.5s1,2.918,1.33,4.8S105.711,134.858,105.06,136.776Z" transform="translate(-77.531 -104.689)" fill="#fff269"/>
          <path id="Path_999199" data-name="Path 999199" d="M100.285,122.129l5.951,6.134,2.855,3.082.391-.053-.335-3.183-1.866-3.026-2.183-3.147-2.844-1.414s-1.725-.113-1.912.257A3.412,3.412,0,0,0,100.285,122.129Z" transform="translate(-82.329 -104.665)" fill="#f83600"/>
          <path id="Path_999200" data-name="Path 999200" d="M92.436,131.672l.206,5.18a34.4,34.4,0,0,1-1.52,4.072,10.066,10.066,0,0,0-.917,1.54c-.1.234-1.691,2.94-1.691,2.94s-1.457-.414-1.673-.987,1.572-8,1.572-8a11.014,11.014,0,0,0-.959-5.094,14.685,14.685,0,0,0-3.045-4.191l-.461-.007-1.206,1.559-.583-1.774,1.284-1.393a18.54,18.54,0,0,1,3.189-1.27,6.433,6.433,0,0,1,3.105,2.117A43.561,43.561,0,0,1,92.436,131.672Z" transform="translate(-77.672 -105.628)" fill="#f83600"/>
          <path id="Path_999201" data-name="Path 999201" d="M98.135,115.137a6.555,6.555,0,0,0-.339,2.685c.181,1.244.633,2.52.339,3.561s-1.238,1.886-3.084,1.67-4.125-1.277-4.656-2.062-.55-1.414-.393-1.689a10.494,10.494,0,0,0,.727-2.947,21.076,21.076,0,0,0-.118-3.595c-.216-1.218,1.591-3.831,1.591-3.831l4.813.727Z" transform="translate(-79.67 -101.683)" fill="url(#linear-gradient-9)"/>
          <path id="Path_999202" data-name="Path 999202" d="M93.971,118.561a10.223,10.223,0,0,1,2.139,1.361,12.526,12.526,0,0,1,1.045,1.343,14.694,14.694,0,0,0,.551,1.828c.275.648.53-1.906.648-2.141l.543-1.081-1.6-1.944Z" transform="translate(-80.715 -104)" fill="url(#linear-gradient-10)"/>
          <path id="Path_999203" data-name="Path 999203" d="M99.924,115.18a2.305,2.305,0,0,1-1.454.589c-.845,0-4.656-.731-5.814-1.584A8.309,8.309,0,0,1,90.4,109.8c0-.766-.295-3.987,1.611-5.186s2.494-2.927,4.911-2.75,3.065,1.179,3.418,2.318a25.6,25.6,0,0,1,.884,4.813,23.247,23.247,0,0,1-.648,4.459C100.3,114.256,99.924,115.18,99.924,115.18Z" transform="translate(-79.79 -99.859)" fill="url(#linear-gradient-11)"/>
          <g id="Group_1183445" data-name="Group 1183445" transform="translate(16.991 60.974)">
            <rect id="Rectangle_455033" data-name="Rectangle 455033" width="2.119" height="66.428" transform="matrix(0.835, -0.55, 0.55, 0.835, 0, 1.166)" fill="#a1bdcc"/>
          </g>
          <path id="Path_999204" data-name="Path 999204" d="M148.367,253.246l-.252-.085a1.015,1.015,0,0,1-.682.993c-.764.356-1.156.041-1.156.041s-.031.2-.031.237,1.034,1.968,1.209,2.292,1.071.2,1.707-.174a1.864,1.864,0,0,0,.947-.972C150.22,255.279,148.367,253.246,148.367,253.246Z" transform="translate(-94.181 -138.837)" fill="#827c62"/>
          <path id="Path_999205" data-name="Path 999205" d="M100.328,175.068a.486.486,0,0,1-.429.3.885.885,0,0,1-.108,0h0a.738.738,0,0,1-.391-.174.875.875,0,0,1-.231-.339c-.146-.367-.618-1.339-.618-1.339l-.255.561-.363.8-.042.217-.076.353a.926.926,0,0,1-.113.005,3.347,3.347,0,0,1-.684-.062.71.71,0,0,1-.349-.17.806.806,0,0,1-.241-.363l-.028.005c-.024,0-.066,0-.146.01-.17.019-.632-.58-.688-.65l0-.01s-.066-.019-.165-.038a2.666,2.666,0,0,0-.367-.052c-.25-.014-.736-.929-.736-.929l-.1-.141-.443-.622s-.024-.028-.062-.08a2.036,2.036,0,0,1-.419-.774c0-.245.349-2.786.349-2.786a.913.913,0,0,0,0-.325v-.042a7.032,7.032,0,0,0-.255-1.207c-.353-1.24-2.621-4.63-4.068-7.43a35.38,35.38,0,0,1-2.848-7.129c-.038-.707-4.281-9.25-5.657-13.728-1.264-4.125-.08-5.7.542-6.275,0,0,0,0,0-.01.052-.047.1-.09.142-.122.552-.453,2.357-.453,3.6.627s1.372,2.1,1.985,3.771,1.886,7.114,1.886,7.114,1.249,3.715,2.074,6.19,1.768,5.926,2.64,8.443,3.682,8.425,3.682,8.425l2.088,3.154A4.307,4.307,0,0,1,99.9,171.7c-.028.2.033,2.06.033,2.206A10.487,10.487,0,0,0,100.328,175.068Z" transform="translate(-77.174 -107.684)" fill="url(#linear-gradient-12)"/>
          <path id="Path_999206" data-name="Path 999206" d="M93.007,165.992a4.3,4.3,0,0,1,.608,2.565,7.032,7.032,0,0,0-.255-1.207c-.353-1.24-2.621-4.63-4.068-7.43a35.378,35.378,0,0,1-2.848-7.128c-.038-.707-4.281-9.25-5.657-13.728-1.264-4.125-.08-5.7.542-6.275-1.739,2.212-.127,6.86.363,8.434s4.6,10.409,4.6,10.409,1.532,4.5,2.631,7S92.672,165.341,93.007,165.992Z" transform="translate(-77.174 -107.829)" fill="url(#linear-gradient-6)"/>
          <path id="Path_999207" data-name="Path 999207" d="M98.514,186.337l.367.368-.028.255-.443-.622s-.024-.028-.062-.08Z" transform="translate(-81.842 -121.602)" fill="url(#linear-gradient-14)"/>
          <path id="Path_999208" data-name="Path 999208" d="M100.716,187.921l.1.627s-.066-.019-.165-.038a1.769,1.769,0,0,1,.062-.405v-.184Z" transform="translate(-82.436 -122.031)" fill="url(#linear-gradient-15)"/>
          <path id="Path_999209" data-name="Path 999209" d="M102.1,187.921l.165,1.635a.806.806,0,0,1-.241-.363L102,189.2a1.121,1.121,0,0,0-.014-.207A5.485,5.485,0,0,1,102.1,187.921Z" transform="translate(-82.777 -122.031)" fill="url(#linear-gradient-16)"/>
          <path id="Path_999210" data-name="Path 999210" d="M103.943,189.489l0,0-.076.353a.926.926,0,0,1-.113.005v-.622l.1-1.061Z" transform="translate(-83.236 -122.095)" fill="url(#linear-gradient-17)"/>
          <path id="Path_999211" data-name="Path 999211" d="M105.134,186.906a11.293,11.293,0,0,0,.509,1.679.875.875,0,0,1-.231-.339c-.146-.367-.618-1.339-.618-1.339l-.255.561c-.028-.425-.056-.839-.056-.839l.193-.976.293-1.414s.033.636.033.693S105.045,186.317,105.134,186.906Z" transform="translate(-83.423 -121.083)" fill="url(#linear-gradient-18)"/>
          <path id="Path_999212" data-name="Path 999212" d="M106.437,190.267a.738.738,0,0,1-.391-.174Z" transform="translate(-83.825 -122.591)" fill="url(#linear-gradient-19)"/>
          <path id="Path_999213" data-name="Path 999213" d="M96.939,102.821a4.4,4.4,0,0,0-3.005,1.395,5.867,5.867,0,0,0-2.023,2.888c-.039.314-.216,1.886-.216,1.886s-.393,1.728-.373,1.866-.464-1.375-.464-1.375l-.777-.275.14,2.4a9.49,9.49,0,0,1-.14,3.241,6.226,6.226,0,0,1-1.254,2.573l-1.356,1.159a13.582,13.582,0,0,0,.708-4.774c-.137-2.455-.255-3.968-.255-3.968a10.666,10.666,0,0,1-.55-4.4,7.308,7.308,0,0,1,3.85-5.873,6.332,6.332,0,0,1,2.4-.275s.295-.471,2.436.471a6.2,6.2,0,0,1,3.1,2.436,6.81,6.81,0,0,1,.313,1.061s-1.021-1.14-1.708-.963S96.939,102.821,96.939,102.821Z" transform="translate(-79.005 -99.168)" fill="#7c3f4e"/>
        </g>
        <g id="Group_1183447" data-name="Group 1183447" transform="translate(12.914 55.634)">
          <path id="Path_999214" data-name="Path 999214" d="M102.286,187.776l-.163-.047c-3.083-.9-8.889-4.057-8.6-5.745.226-1.331,1.174-5.1,2.829-6.546a4.754,4.754,0,0,1,3.7-1.275.755.755,0,0,1,.585.431c.306.777-.523,1.62-.558,1.656l-.258-.258c.006-.006.7-.709.478-1.264a.452.452,0,0,0-.332-.212,4.489,4.489,0,0,0-3.372,1.2c-1.573,1.373-2.489,5.038-2.708,6.335-.211,1.235,4.79,4.249,8.191,5.288a2.651,2.651,0,0,1,1.742-1.281l.074.357a2.25,2.25,0,0,0-1.542,1.209Z" transform="translate(-93.509 -174.106)" fill="#1d1800"/>
        </g>
        <path id="XMLID_165_" d="M98.82,111.211a1.758,1.758,0,0,0,.274-.91c0-.114-.066-.287.058-.341a.357.357,0,0,1,.329.078c.076.048.47.9.633,1.042a.764.764,0,0,0,.592.063c.157-.027.309-.106.463-.128s.3.02.445-.067a.821.821,0,0,0,.248-.269,1.723,1.723,0,0,0,.295-.609,1.823,1.823,0,0,0-.047-.7c-.058-.287-.074-.555-.108-.841l-.12-.469a.571.571,0,0,0-.195-.014,4.215,4.215,0,0,0-.667.162l-.643.2a2.093,2.093,0,0,0-.751.4,1.285,1.285,0,0,1-.221.2c-.152.079-.312.128-.46.22a.374.374,0,0,1-.369.048,5.226,5.226,0,0,0-1.791.188,18.368,18.368,0,0,0-1.859.578l-4.4.691c-.341.115-.26.52-.26.52l.257-.1,4.781-.577a3.979,3.979,0,0,0,.521,1.318c.4.605,1.589.532,2.4-.074.094-.071.17-.167.267-.232a.922.922,0,0,0,.229-.191,1.088,1.088,0,0,0,.242-.638c0-.14-.019-.279-.019-.419a.625.625,0,0,1,.114-.4Zm1.133-2.146a1.651,1.651,0,0,1,1.308-.644s.426.015.463.163.054.812.067.9a1.176,1.176,0,0,1-.529,1.272c-.693.339-1.053.076-1.178-.044a3.674,3.674,0,0,1-.376-.921A.788.788,0,0,1,99.953,109.065Zm-4.287,1.347c.013-.259.112-.449.3-.506a11.371,11.371,0,0,1,1.864-.393s.648-.161.831.143a2.426,2.426,0,0,1-.569,1.976,1.685,1.685,0,0,1-1.891.164A2.179,2.179,0,0,1,95.666,110.413Z" transform="translate(-79.76 -101.453)" fill="#202020"/>
        <path id="Path_999215" data-name="Path 999215" d="M103.591,108.544a1.756,1.756,0,0,0-1.654.461c-.646.726-.872.638-.872.638a3.97,3.97,0,0,0-1.787.014c-1.131.22-1.647.362-1.7.684s.005,1.985,1.218,2a1.986,1.986,0,0,0,1.729-1.074c.035-.033.3-1.028.321-1.069a3.4,3.4,0,0,1,.474-.22s.36,1.214,1.091,1.255,1.373-.379,1.415-.695.169-1.982-.088-2S103.591,108.544,103.591,108.544Z" transform="translate(-81.639 -101.571)" fill="#202020"/>
        <path id="Path_999216" data-name="Path 999216" d="M105.54,108.057l-1.076-.009.232.729S106.091,108.577,105.54,108.057Z" transform="translate(-83.418 -101.456)" fill="#202020"/>
        <path id="XMLID_87_" d="M100.564,108.515a2.188,2.188,0,0,0-.67.333,1.387,1.387,0,0,0-.192.176c-.024.027-.044.056-.068.082a1.356,1.356,0,0,1-.2.144c-.255,0-.412.239-.673.135a5.226,5.226,0,0,0-1.791.188,18.368,18.368,0,0,0-1.859.578l-4.829.667c-.341.115-.26.52-.26.52l.69-.076,4.781-.577a3.979,3.979,0,0,0,.521,1.318c.4.605,1.589.532,2.4-.074a1.774,1.774,0,0,0,.625-1.644l.191-.154c.194-.155.279-.01.356.041s.549.874.711,1.019.757.134,1.442-.258.445-2.3.445-2.3-.119-.466-.119-.469a1,1,0,0,0-.131-.027.8.8,0,0,0-.261.047,1.033,1.033,0,0,0-.186.048c-.068.017-.138.031-.2.053-.049.016-.1.034-.148.05C100.946,108.393,100.755,108.454,100.564,108.515Zm-.6.7a1.6,1.6,0,0,1,1.484-.685s.426.015.463.163.054.812.067.9a1.176,1.176,0,0,1-.529,1.272c-.693.339-1.053.076-1.178-.044a3.506,3.506,0,0,1-.481-.788A.97.97,0,0,1,99.964,109.217Zm-4.111,1.306c.013-.259.112-.449.3-.507a11.372,11.372,0,0,1,1.864-.393s.648-.161.831.143a2.426,2.426,0,0,1-.569,1.976,1.685,1.685,0,0,1-1.891.164A2.177,2.177,0,0,1,95.852,110.523Z" transform="translate(-79.696 -101.479)"/>
        <path id="Path_999217" data-name="Path 999217" d="M90.953,112.315a1.41,1.41,0,0,0-1.108-.766c-.719,0-.759.864-.7,1.532a2.356,2.356,0,0,0,2.021,1.61C91.916,114.594,90.953,112.315,90.953,112.315Z" transform="translate(-79.467 -102.358)" fill="url(#linear-gradient-20)"/>
      </g>
      <g id="Group_1183478" data-name="Group 1183478" transform="translate(186.146 16.037)">
        <path id="Path_999218" data-name="Path 999218" d="M315.7,225.782l26.9-15.618a2.224,2.224,0,0,0,0-3.853l-38.244-21.906a8.579,8.579,0,0,0-8.578,0l-24.372,14.156a3.275,3.275,0,0,0,0,5.673h0l37.625,21.549A6.666,6.666,0,0,0,315.7,225.782Z" transform="translate(-269.774 -127.237)" fill="url(#linear-gradient-21)"/>
        <g id="Group_1183477" data-name="Group 1183477" transform="translate(0.638)">
          <g id="Group_1183459" data-name="Group 1183459" transform="translate(22.916 28.07)">
            <path id="Path_999219" data-name="Path 999219" d="M342.35,160.385c-5.116-2.951-9.674-2.852-12.63-.29-2.192,1.892-3.5,5.137-3.5,9.483,0,10.222,7.22,22.671,16.129,27.813,4.134,2.388,7.907,2.78,10.76,1.483,3.292-1.483,5.365-5.2,5.365-10.677C358.475,177.982,351.255,165.528,342.35,160.385Zm8.6,34.951c-2.408,2.222-6.206,2.356-10.475-.108-7.287-4.206-13.194-14.392-13.194-22.754,0-4.589,1.783-7.679,4.594-8.832,2.408-2.222,6.206-2.356,10.475.108,7.287,4.206,13.189,14.4,13.189,22.754C355.539,191.093,353.761,194.183,350.95,195.336Z" transform="translate(-307.868 -148.845)" fill="#2c2c2c"/>
            <path id="Path_999220" data-name="Path 999220" d="M339.825,162c-4.134-2.388-7.9-2.78-10.754-1.488-3.3,1.488-5.37,5.209-5.37,10.682,0,10.222,7.22,22.671,16.123,27.813,5.121,2.956,9.685,2.852,12.636.284,2.186-1.892,3.489-5.131,3.489-9.478C355.949,179.6,348.73,167.142,339.825,162Zm-8.6,2.057c2.31-.946,5.313-.589,8.6,1.307,7.287,4.206,13.194,14.4,13.194,22.754,0,3.463-1.013,6.067-2.718,7.633-2.408,2.222-6.206,2.356-10.475-.108-7.287-4.206-13.194-14.392-13.194-22.754C326.632,168.3,328.414,165.209,331.226,164.057Z" transform="translate(-307.219 -149.261)" fill="#292929"/>
            <path id="Path_999221" data-name="Path 999221" d="M351.317,197.234c-2.408,2.222-6.206,2.356-10.475-.108-7.287-4.206-13.194-14.392-13.194-22.754,0-4.589,1.783-7.679,4.594-8.832-1.705,1.566-2.719,4.171-2.719,7.633,0,8.362,5.907,18.547,13.194,22.754C346.005,197.822,349.008,198.18,351.317,197.234Z" transform="translate(-308.236 -150.743)" fill="#8e8e8e"/>
            <g id="Group_1183449" data-name="Group 1183449" transform="translate(18.382 10.53)">
              <path id="Path_999222" data-name="Path 999222" d="M341.983,162c-3.739-2.159-7.177-2.68-9.912-1.808,2.547-.462,5.6.172,8.879,2.067,8.906,5.142,16.125,17.594,16.125,27.813,0,5.929-2.433,9.8-6.212,11,4.365-.791,7.246-4.807,7.246-11.26C358.108,179.6,350.888,167.145,341.983,162Z" transform="translate(-327.757 -159.793)" fill="#363636"/>
              <path id="Path_999223" data-name="Path 999223" d="M332.272,165.356c-3.618.611-6.012,3.905-6.012,9.226,0,8.36,5.907,18.548,13.192,22.755,3.106,1.794,5.959,2.206,8.213,1.445a10.933,10.933,0,0,1-7.18-1.7c-7.286-4.206-13.192-14.394-13.192-22.755C327.293,169.527,329.239,166.378,332.272,165.356Z" transform="translate(-326.26 -161.226)" fill="#363636"/>
            </g>
            <g id="Group_1183450" data-name="Group 1183450" transform="translate(18.221 14.071)">
              <path id="Path_999224" data-name="Path 999224" d="M345.669,199.471a12.522,12.522,0,0,1-6.157-1.882c-7.426-4.287-13.468-14.709-13.468-23.232,0-4.2,1.441-7.343,4.058-8.853,2.64-1.524,6.125-1.189,9.813.941,7.426,4.287,13.469,14.709,13.469,23.232,0,4.2-1.441,7.342-4.058,8.853A7.226,7.226,0,0,1,345.669,199.471Zm-11.908-34.1a6.423,6.423,0,0,0-3.256.833c-2.357,1.361-3.655,4.257-3.655,8.155,0,8.266,5.861,18.374,13.065,22.534,3.429,1.98,6.63,2.314,9.008.941,2.357-1.361,3.655-4.257,3.655-8.155,0-8.267-5.861-18.375-13.065-22.534A11.73,11.73,0,0,0,333.76,165.369Z" transform="translate(-326.044 -164.563)" fill="#e0e0e0"/>
            </g>
            <path id="Path_999225" data-name="Path 999225" d="M342.4,184.785a6.209,6.209,0,0,0,2.477,4.44,1.944,1.944,0,0,0,2.843-1.736,5.028,5.028,0,0,0-2.282-3.936C344.173,182.825,342.4,183.339,342.4,184.785Z" transform="translate(-312.035 -155.299)" fill="#686868"/>
            <path id="Path_999226" data-name="Path 999226" d="M307.763,181.7a3.094,3.094,0,0,0,1.4,2.422c.775.448,1.4.089,1.4-.8a3.1,3.1,0,0,0-1.4-2.422C308.391,180.452,307.763,180.81,307.763,181.7Z" transform="translate(-303.113 -154.65)" fill="#8e8e8e"/>
            <path id="Path_999227" data-name="Path 999227" d="M308.613,182.346a1.7,1.7,0,0,0,.773,1.333c.427.246.773.049.773-.44a1.7,1.7,0,0,0-.773-1.333C308.959,181.66,308.613,181.856,308.613,182.346Z" transform="translate(-303.332 -154.932)" fill="#aeaeae"/>
            <g id="Group_1183451" data-name="Group 1183451" transform="translate(9.663 11.993)">
              <rect id="Rectangle_455034" data-name="Rectangle 455034" width="0.959" height="26.898" transform="matrix(0.5, -0.866, 0.866, 0.5, 0, 0.831)" fill="#e0e0e0"/>
            </g>
            <path id="Path_999228" data-name="Path 999228" d="M308.844,173.349a4.056,4.056,0,0,0-4.017-.421c-.163.091-1.076.586-1.219.71-.775.667-.474,1.427-.474,2.962a12.6,12.6,0,0,0,5.711,9.85c1.359.785,1.978,1.373,2.954,1.027a7.4,7.4,0,0,0,1.615-1.016,4.4,4.4,0,0,0,1.136-3.266A12.575,12.575,0,0,0,308.844,173.349Zm2.2,11.318c-.682.724-1.808.806-3.085.067a8.3,8.3,0,0,1-3.768-6.491c0-1.442.62-2.367,1.566-2.6.677-.724,1.809-.806,3.085-.067a8.3,8.3,0,0,1,3.763,6.5C312.606,183.509,311.991,184.434,311.045,184.667Z" transform="translate(-301.906 -152.553)" fill="#2c2c2c"/>
            <path id="Path_999229" data-name="Path 999229" d="M307.674,174.045a4.352,4.352,0,0,0-3.592-.615c-1.292.455-2.119,1.808-2.119,3.866a12.6,12.6,0,0,0,5.711,9.85c1.814,1.044,3.426,1.007,4.47.1a4.28,4.28,0,0,0,1.235-3.354A12.572,12.572,0,0,0,307.674,174.045Zm-2.2,1.777a2.964,2.964,0,0,1,2.2.45,8.3,8.3,0,0,1,3.763,6.5,2.964,2.964,0,0,1-.677,2.077c-.682.724-1.808.806-3.085.067a8.3,8.3,0,0,1-3.768-6.491C303.906,176.98,304.526,176.055,305.472,175.822Z" transform="translate(-301.619 -152.732)" fill="#292929"/>
            <path id="Path_999230" data-name="Path 999230" d="M311.432,185.734c-.682.724-1.808.806-3.085.067a8.3,8.3,0,0,1-3.768-6.491c0-1.442.62-2.367,1.566-2.6a2.971,2.971,0,0,0-.682,2.082,8.3,8.3,0,0,0,3.768,6.491A2.967,2.967,0,0,0,311.432,185.734Z" transform="translate(-302.293 -153.621)" fill="#8e8e8e"/>
            <g id="Group_1183452" data-name="Group 1183452" transform="translate(1.286 20.53)">
              <path id="Path_999231" data-name="Path 999231" d="M308,174.045c-1.993-1.15-3.747-.987-4.768.2,1.041-.66,2.511-.6,4.144.338a12.572,12.572,0,0,1,5.705,9.845,4.605,4.605,0,0,1-.943,3.058,4.026,4.026,0,0,0,1.567-3.6A12.572,12.572,0,0,0,308,174.045Z" transform="translate(-303.232 -173.263)" fill="#363636"/>
              <path id="Path_999232" data-name="Path 999232" d="M304.184,179.709a8.3,8.3,0,0,0,3.768,6.491c1.369.79,2.234,1.014,2.892.14a2.7,2.7,0,0,1-2.6-.3,8.3,8.3,0,0,1-3.768-6.491,3.132,3.132,0,0,1,.542-1.911C304.3,178.011,304.184,178.481,304.184,179.709Z" transform="translate(-303.477 -174.39)" fill="#363636"/>
            </g>
            <path id="Path_999233" data-name="Path 999233" d="M310.44,178.724l.189-5.271,1.258-.553,2.267,1.325.44.708-.821,3.9-1.258.553a7.615,7.615,0,0,1-1.4.416C311.041,179.728,310.44,178.724,310.44,178.724Z" transform="translate(-303.803 -152.639)" fill="#8e8e8e"/>
            <path id="Path_999234" data-name="Path 999234" d="M308.177,179.65l1.584-2.131.285-3.874,2.267,1.325.44.708-.821,3.9-2.287.918s-.719.309-.792.232S308.177,179.65,308.177,179.65Z" transform="translate(-303.22 -152.831)" fill="#cfcfcf"/>
            <g id="Group_1183453" data-name="Group 1183453" transform="translate(8.964 10.569)">
              <path id="Path_999235" data-name="Path 999235" d="M339.681,186.1l-26.106-15.072V159.846h.958v10.627l25.628,14.8Z" transform="translate(-313.575 -159.846)" fill="#e0e0e0"/>
            </g>
            <path id="Path_999236" data-name="Path 999236" d="M323.919,150.183l17.039,20.485.689-.5V159.526l-17.04-9.838Z" transform="translate(-307.275 -146.66)" fill="#8b6865"/>
            <path id="Path_999237" data-name="Path 999237" d="M323.919,161l17.039,9.837V160.193l-17.039-9.838Z" transform="translate(-307.275 -146.832)" fill="#764d4a"/>
            <g id="Group_1183454" data-name="Group 1183454" transform="translate(12.177 1.732)">
              <path id="Path_999238" data-name="Path 999238" d="M340.068,173.755h-.958V158.03l-15.666-9.045a.612.612,0,0,0-.918.53v2.18a1.685,1.685,0,0,1-2.528,1.46l-.22-.127a.612.612,0,0,0-.918.53V160.2H317.9v-6.641a1.571,1.571,0,0,1,2.356-1.36l.22.126a.727.727,0,0,0,1.091-.63v-2.18a1.571,1.571,0,0,1,2.356-1.36l16.144,9.321v16.28Z" transform="translate(-317.902 -147.941)" fill="#e0e0e0"/>
            </g>
            <path id="Path_999239" data-name="Path 999239" d="M342.348,185.359a5.028,5.028,0,0,0,2.282,3.936c1.261.728,2.282.146,2.282-1.3a5.028,5.028,0,0,0-2.282-3.936C343.37,183.33,342.348,183.913,342.348,185.359Z" transform="translate(-312.023 -155.433)" fill="#8e8e8e"/>
            <path id="Path_999240" data-name="Path 999240" d="M343.73,186.409a2.766,2.766,0,0,0,1.255,2.166c.693.4,1.255.079,1.255-.716a2.766,2.766,0,0,0-1.255-2.166C344.293,185.293,343.73,185.613,343.73,186.409Z" transform="translate(-312.379 -155.89)" fill="#aeaeae"/>
            <g id="Group_1183455" data-name="Group 1183455" transform="translate(0 10.255)">
              <path id="Path_999241" data-name="Path 999241" d="M302.45,174.894l-.95-.137,2.018-14.014a2,2,0,0,1,2.885-1.053l4.781,2.76-.48.83-4.78-2.76a1.044,1.044,0,0,0-1.488.508Z" transform="translate(-301.5 -159.423)" fill="#e0e0e0"/>
            </g>
            <g id="Group_1183456" data-name="Group 1183456" transform="translate(1.748 12.644)">
              <rect id="Rectangle_455035" data-name="Rectangle 455035" width="0.959" height="8.604" transform="matrix(0.5, -0.866, 0.866, 0.5, 0, 0.831)" fill="#e0e0e0"/>
            </g>
            <g id="Group_1183457" data-name="Group 1183457" transform="translate(7.996 16.8)">
              <rect id="Rectangle_455036" data-name="Rectangle 455036" width="0.958" height="4.149" fill="#e0e0e0"/>
            </g>
            <g id="Group_1183458" data-name="Group 1183458" transform="translate(32.092 25.526)">
              <rect id="Rectangle_455037" data-name="Rectangle 455037" width="0.958" height="9.339" fill="#e0e0e0"/>
            </g>
            <path id="Path_999242" data-name="Path 999242" d="M337.236,155.3l-12.455-7.191c-.5-.29-.751-1.457-.169-1.793l.311.654a2.2,2.2,0,0,1,1.972-.082l12.636,6.428c.5.29.258,1.566-.322,1.9h0A2.2,2.2,0,0,1,337.236,155.3Z" transform="translate(-307.367 -145.791)" fill="#48110d"/>
            <path id="Path_999243" data-name="Path 999243" d="M337.294,154.215l-12.454-7.19c-.5-.29-.44-.8.142-1.138h0a2.2,2.2,0,0,1,1.972-.082L339.407,153c.5.29.44.8-.142,1.138h0A2.2,2.2,0,0,1,337.294,154.215Z" transform="translate(-307.425 -145.609)" fill="#633431"/>
          </g>
          <path id="Path_999244" data-name="Path 999244" d="M275.094,199.613l20.718-11.962v-.741l-24.9,9.55v.741Z" transform="translate(-270.706 -128.179)" fill="#6d6d6d"/>
          <path id="Path_999245" data-name="Path 999245" d="M275.094,198.037l20.718-11.962-4.177-2.411-20.719,11.962Z" transform="translate(-270.706 -127.342)" fill="#8e8e8e"/>
          <path id="Path_999246" data-name="Path 999246" d="M278.943,188.96s-4.563-.912-5.3-.882a5.717,5.717,0,0,0-2.767,1.455,6.008,6.008,0,0,0-.247,1.48l2.121,1.874s5.6,2.362,5.835,2.584a3.99,3.99,0,0,0,3.192.745c1.667-.33,1.524-1.48,1.5-2.639s.084-1.963-.449-2.6a4.1,4.1,0,0,0-1.82-.942Z" transform="translate(-270.633 -128.479)" fill="#e6e5e0"/>
          <path id="Path_999247" data-name="Path 999247" d="M290.112,182.13l-4.47-.21s-3.72-.6-3.93-.24a2.611,2.611,0,0,0,.09,2.35c.54.71,3.66,1.22,4.68,1.79a37.809,37.809,0,0,0,5.731,2.64,2.718,2.718,0,0,0,2.412-1.59,6.435,6.435,0,0,0-.094-3.15,3.513,3.513,0,0,0-.728-1.71Z" transform="translate(-273.425 -126.802)" fill="#e6e5e0"/>
          <path id="Path_999248" data-name="Path 999248" d="M298.817,157.346a17.474,17.474,0,0,0-4.36-.88c-2.4-.16-3.04,1.12-3.16,2.28s.76,6.6,1.96,12.041,1.44,8.521,1.08,9.16,2.561,2.28,3.16,2.28,2.12-.56,2-1.04.2-8.16.2-8.84,1.32-8.881.16-9.8S298.817,157.346,298.817,157.346Z" transform="translate(-275.953 -120.333)" fill="url(#linear-gradient-22)"/>
          <path id="Path_999249" data-name="Path 999249" d="M276.724,169.575c.66,3.837,2.636,12.2,2.641,12.4a3.468,3.468,0,0,0,2.407,2.347,2.95,2.95,0,0,0,.714.036,2.13,2.13,0,0,0,1.739-.883,41.548,41.548,0,0,1-.167-8.261c.474-3.084,1.54-8.016,1.264-10.131-.009-.065-.017-.129-.03-.2-.3-2.206-1.189-6.86-1.189-6.86a9.3,9.3,0,0,0-3.958-.455c-1.875.3-2.531,1.082-3.275,2.861S276.069,165.733,276.724,169.575Z" transform="translate(-272.085 -120.603)" fill="url(#linear-gradient-23)"/>
          <path id="Path_999250" data-name="Path 999250" d="M280.9,164.664s-.4,3.111-.039,3.886,3.029,3,3.272,4.078-.442,7.041-.552,8.458c-.066.777-.012,3.137.048,5.117a2.13,2.13,0,0,0,1.739-.883,41.545,41.545,0,0,1-.167-8.261c.474-3.084,1.54-8.016,1.264-10.131-.009-.065-.017-.129-.03-.2C284.614,165.959,280.9,164.664,280.9,164.664Z" transform="translate(-273.23 -122.448)" fill="url(#linear-gradient-24)"/>
          <g id="Group_1183460" data-name="Group 1183460" transform="translate(8.957 41.439)">
            <path id="Path_999251" data-name="Path 999251" d="M284.111,174.351c.29-.665,6.862-4.52,14.634-9.171.348-.208.676-.4,1-.578a7.485,7.485,0,0,1,3.172-.569,26.914,26.914,0,0,1,11.671,4.725c2.713,2.056,5.76,3.582,7.744,6.1,1.335,1.7.946,3.477-.145,5.163a4.654,4.654,0,0,1-1.354,1.335c-4.917,3.278-10.923,6.934-13.611,7.685-4.724,1.321-7.737-3.275-12.965-7.238a23.956,23.956,0,0,0-11.031-4.506C281.746,174.726,283.821,175.016,284.111,174.351Z" transform="translate(-282.697 -163.723)" fill="#5c2c28"/>
            <path id="Path_999252" data-name="Path 999252" d="M282.75,175.847a1.175,1.175,0,0,0,.209.025,2.962,2.962,0,0,1,.461-.032,7.669,7.669,0,0,1,2.643.552c1.3.48,6.781,2.722,8.848,4.29,1.366,1.036,2.556,2.091,3.707,3.111.524.465,1.027.911,1.517,1.327,2.021,1.722,3.8,2.946,5.863,2.946a5.622,5.622,0,0,0,1.514-.216c2.719-.759,9.034-4.49,13.751-7.635A3.689,3.689,0,0,0,323,177.7a4.94,4.94,0,0,0-1.18-3.724q-.389-.492-.788-.922a25.008,25.008,0,0,0-4.054-3.328c-.632-.45-1.287-.914-1.98-1.439-1.715-1.3-6.941-3.461-8.071-3.944a8.628,8.628,0,0,0-2.526-.71c-.077-.006-.148-.011-.215-.014a3.146,3.146,0,0,0-.437.006.722.722,0,0,0-.082.013l-.047.01h-.053l-.166,0c-.15,0-.294,0-.437,0a7.7,7.7,0,0,0-2.385.535c-.307.174-.621.355-.953.554l-.632.379c-6.8,4.068-15.262,9.132-15.8,9.866a4.237,4.237,0,0,1-.217.423A3.449,3.449,0,0,0,282.75,175.847Z" transform="translate(-282.711 -163.618)" fill="#55221f"/>
            <path id="Path_999253" data-name="Path 999253" d="M306.166,188.4c2.021,1.722,3.8,2.946,5.863,2.946a5.622,5.622,0,0,0,1.514-.216c2.719-.759,9.034-4.49,13.751-7.635a3.689,3.689,0,0,0,1.733-2.511,4.94,4.94,0,0,0-1.18-3.724q-.389-.492-.788-.922Z" transform="translate(-288.743 -166.894)" fill="#5c2c28"/>
          </g>
          <g id="Group_1183461" data-name="Group 1183461" transform="translate(7.86)">
            <path id="Path_999254" data-name="Path 999254" d="M281.464,168.656c.144.393.3.759.442,1.061a2.586,2.586,0,0,0,.557.859c.2.12,17.2,6.159,18.563,6.639a11.927,11.927,0,0,0,7.479,0,17.886,17.886,0,0,0,4.81-1.987,1.321,1.321,0,0,1,.23-.13c.24-.082.039-5.122.039-5.122l-3.975-2.64-7.856-5.556s-15.549-3.762-16.269-3.92-2.2-.36-2.2-.36-.183,3.835-1.221,5.794A7.617,7.617,0,0,0,281.464,168.656Z" transform="translate(-281.22 -120.602)" fill="#382f2f"/>
            <path id="Path_999255" data-name="Path 999255" d="M282.144,173.956a2.586,2.586,0,0,0,.557.859c.2.12,17.2,6.159,18.563,6.638a11.926,11.926,0,0,0,7.479,0,17.885,17.885,0,0,0,4.81-1.987,42.129,42.129,0,0,0-3.706-2.971s-3.466,4.282-6.025,4.618-7.656-2.218-10.368-3.36C291.058,176.75,283.81,174.475,282.144,173.956Z" transform="translate(-281.458 -124.842)" fill="#c9b9b3"/>
            <path id="Path_999256" data-name="Path 999256" d="M296.795,162.878l5.881,5.731,8.069-1.5a19.738,19.738,0,0,0,2.962-3.259,7.627,7.627,0,0,0,1.09-2.17c.72-2.578-4.349-4.618-4.349-4.618l-8.16-1.349-2.909-.571a14.811,14.811,0,0,0-2.074,2.4,16.3,16.3,0,0,0-.388,3.2C296.838,161.88,296.795,162.878,296.795,162.878Z" transform="translate(-285.232 -119.995)" fill="#332b2b"/>
            <path id="Path_999257" data-name="Path 999257" d="M296.795,164.82l5.881,5.731,8.069-1.5a19.739,19.739,0,0,0,2.962-3.259l-8.6-2.137-8.194-.974C296.838,163.822,296.795,164.82,296.795,164.82Z" transform="translate(-285.232 -121.937)" fill="#c9b9b3"/>
            <path id="Path_999258" data-name="Path 999258" d="M306.506,159.427s.644,2.881,1,4.2a14.386,14.386,0,0,0,2.558,4.119,9.416,9.416,0,0,0,4.651,1.172,19.164,19.164,0,0,0,4.109-.288c5.6-.96,6.562-3.322,8.16-5.52s6-10.522,6-10.522,1.7-6.039,1.92-7.042,1.181-6.019.8-8.5a4.9,4.9,0,0,0-2.18-3.581,5.047,5.047,0,0,0-3.1-.4c-1.344.183-8.122,1.44-8.6,1.723s-2.16,2.18-4.181,3.619a13.969,13.969,0,0,0-2.962,2.722c-2.016,2.1-3.936,9.1-3.936,9.1s-2.319,3.475-3.019,4.637c-.091.154-.154.264-.183.327C307.308,155.707,306.506,159.427,306.506,159.427Z" transform="translate(-287.734 -114.292)" fill="#fc7303"/>
            <path id="Path_999259" data-name="Path 999259" d="M306.506,163.9s.644,2.88,1,4.2a14.386,14.386,0,0,0,2.558,4.119,9.416,9.416,0,0,0,4.651,1.172l-.489-1.368.076-2.04s-.758-1.641-.557-2.2a16.774,16.774,0,0,1,.917-1.8h1.08l2.684-2.079a3.168,3.168,0,0,1-.043-1.281c.163-.317.883-2.357.883-2.357l1.4-1.8,1.44-3.523-.24-1.68a1.711,1.711,0,0,1-.4-.518,22.515,22.515,0,0,1-.518-2.362l-5.482.48-7.738,8.477c-.091.154-.154.264-.183.327C307.308,160.184,306.506,163.9,306.506,163.9Z" transform="translate(-287.734 -118.769)" fill="#c9b9b3"/>
            <path id="Path_999260" data-name="Path 999260" d="M323.35,119.515a22.866,22.866,0,0,0,.326,4.148,1.438,1.438,0,0,0,.173.494,8.729,8.729,0,0,0,2.059,1.219l.284,1.2a22.22,22.22,0,0,0,0,3.3,1.166,1.166,0,0,0,.466.23,16.143,16.143,0,0,0,5.554.706c2.78-.177,3.317-1.46,3.278-1.939s-1.138-2.04-1.277-3.039a23.3,23.3,0,0,1,.355-4.061l.025-5.482-7.4-4.6s-2.1.082-2.76.662-1.042,3.437-1.042,3.437l.3,1.238a8.1,8.1,0,0,0-.561,1c-.058.22.379.6.379.6A5.3,5.3,0,0,0,323.35,119.515Z" transform="translate(-292.015 -108.803)" fill="url(#linear-gradient-25)"/>
            <path id="Path_999261" data-name="Path 999261" d="M327.25,123.278s-.08-.8-.12-1.28-.14-.82.2-.6.76.42.8.8a14.216,14.216,0,0,1,.14,1.84c-.04.38-.76.8-.76.8A1.823,1.823,0,0,1,327.25,123.278Z" transform="translate(-293.035 -111.285)" fill="url(#linear-gradient-26)"/>
            <path id="Path_999262" data-name="Path 999262" d="M307.2,159.573c-.216.029-1.229.317-1.647.394l.028.029,1.512-.183,2.371-.432.437-.355-.393.053S307.45,159.544,307.2,159.573Z" transform="translate(-287.487 -120.996)" fill="url(#linear-gradient-27)"/>
            <path id="Path_999263" data-name="Path 999263" d="M305.023,157.334l-1.685,1c.086.039.154.062.154.062l.931-.432,2.1-1.215,1.065.029.437.451-.537.211.792-.14-.062-.226-.7-.629-.96-.062Z" transform="translate(-286.917 -120.316)" fill="url(#linear-gradient-28)"/>
            <path id="Path_999264" data-name="Path 999264" d="M302.787,155.994c-.047.264.413.389.413.389l1.21-.14.3-.163,1.608-.883-2.026.706s-1.036.163-1.157.163A3.494,3.494,0,0,1,302.787,155.994Z" transform="translate(-286.775 -120.009)" fill="url(#linear-gradient-29)"/>
            <path id="Path_999265" data-name="Path 999265" d="M302.883,157.578c-.029.086.168.187.312.249.086.039.154.062.154.062l.931-.432,2.1-1.215,1.065.029.437.451-.538.211c-.543.212-1.316.509-1.353.509-.058,0-1.411.447-1.469.72-.053.226.226.528.317.615l.028.029,1.512-.183,2.371-.432.437-.355,1.886-1.522-.869-1.5s-1.771-.408-1.978-.408-3.437.662-3.437.662-1.906.4-2,.691c0,.01-.005.019-.005.029-.047.264.413.389.413.389l1.21-.14.321-.039S302.926,157.443,302.883,157.578Z" transform="translate(-286.775 -119.806)" fill="url(#linear-gradient-30)"/>
            <path id="Path_999266" data-name="Path 999266" d="M323.867,127.815a1.436,1.436,0,0,0,.173.494,8.729,8.729,0,0,0,2.059,1.219l.284,1.2a22.224,22.224,0,0,0,0,3.3,1.166,1.166,0,0,0,.466.23.92.92,0,0,1-.1-.2,14.694,14.694,0,0,1-.211-2.16l.662-2.04-.72-.212-2.492-1.829Z" transform="translate(-292.206 -112.956)" fill="url(#linear-gradient-31)"/>
            <path id="Path_999267" data-name="Path 999267" d="M324.562,112.292a5.057,5.057,0,0,1-.26,1.2,3.853,3.853,0,0,0-.18,1.26l.6,1.42.66,1.82.1,1.02.74.56a1.674,1.674,0,0,1,1.1.56c.42.52,1.28,1.94,1.28,1.94s1.5,1.9,2.1,2.1a11.659,11.659,0,0,0,3.54-.36c.54-.16,1.04-.96,1.04-.96a18.788,18.788,0,0,0,2.3-3.76,9.53,9.53,0,0,0,.48-6.241,10.445,10.445,0,0,0-2.08-2.4s-.48-2.08-4.18-2.52-6.281.32-7.1.88a4.448,4.448,0,0,0-1.3,1.76l.12,2.08.68-1.16Z" transform="translate(-292.086 -107.8)" fill="#7c3f4e"/>
          </g>
          <g id="Group_1183462" data-name="Group 1183462" transform="translate(33.789 38.418)">
            <path id="Path_999268" data-name="Path 999268" d="M316.146,190.865c9.487-2.564,15.1-3.95,20.448-11.806.5-6.082,2.136-12.8,2.653-18.922.022-.252-.545-.561-.816-.589-5.694,6.007-9.678,7.858-20.447,11.806C317.467,177.686,316.662,184.533,316.146,190.865Z" transform="translate(-316.146 -159.548)" fill="#6b403c"/>
          </g>
          <g id="Group_1183463" data-name="Group 1183463" transform="translate(34.605 39.007)">
            <path id="Path_999269" data-name="Path 999269" d="M317.245,191.659c9.487-2.564,15.1-3.95,20.447-11.806.516-6.333,1.321-13.18,1.837-19.512-5.694,6.007-9.678,7.858-20.448,11.806C318.566,178.48,317.761,185.327,317.245,191.659Z" transform="translate(-317.245 -160.342)" fill="#5c2c28"/>
          </g>
          <g id="Group_1183464" data-name="Group 1183464" transform="translate(53.192 35.62)">
            <path id="Path_999270" data-name="Path 999270" d="M343.241,179.047h-.958V164.523l5.466-8.744,4.007,2.314-.48.83-3.206-1.851-4.829,7.725Z" transform="translate(-342.282 -155.779)" fill="#a1a1a1"/>
          </g>
          <g id="Group_1183465" data-name="Group 1183465" transform="translate(37.311 45.174)">
            <path id="Path_999271" data-name="Path 999271" d="M321.849,191.916h-.958V177.392l5.466-8.744,4.007,2.314-.48.83-3.206-1.851-4.829,7.725Z" transform="translate(-320.891 -168.648)" fill="#e0e0e0"/>
          </g>
          <g id="Group_1183476" data-name="Group 1183476" transform="translate(0.589 25.634)">
            <path id="Path_999272" data-name="Path 999272" d="M312.323,205.64a6.209,6.209,0,0,0,2.477,4.44,1.944,1.944,0,0,0,2.843-1.736,5.028,5.028,0,0,0-2.282-3.936C314.1,203.68,312.323,204.194,312.323,205.64Z" transform="translate(-281.962 -158.235)" fill="#686868"/>
            <path id="Path_999273" data-name="Path 999273" d="M277.69,202.555a3.094,3.094,0,0,0,1.4,2.422c.775.448,1.4.089,1.4-.8a3.094,3.094,0,0,0-1.4-2.422C278.318,201.307,277.69,201.665,277.69,202.555Z" transform="translate(-273.04 -157.587)" fill="#8e8e8e"/>
            <path id="Path_999274" data-name="Path 999274" d="M278.54,203.2a1.7,1.7,0,0,0,.773,1.333c.427.247.773.049.773-.44a1.7,1.7,0,0,0-.773-1.333C278.886,202.515,278.54,202.712,278.54,203.2Z" transform="translate(-273.259 -157.868)" fill="#aeaeae"/>
            <g id="Group_1183466" data-name="Group 1183466" transform="translate(9.662 29.907)">
              <rect id="Rectangle_455038" data-name="Rectangle 455038" width="0.959" height="26.897" transform="matrix(0.5, -0.866, 0.866, 0.5, 0, 0.831)" fill="#e0e0e0"/>
            </g>
            <path id="Path_999275" data-name="Path 999275" d="M278.771,194.2a4.056,4.056,0,0,0-4.017-.421c-.163.091-1.077.586-1.219.71-.775.667-.474,1.427-.474,2.962a12.6,12.6,0,0,0,5.711,9.85c1.359.785,1.977,1.373,2.954,1.027a7.4,7.4,0,0,0,1.615-1.016,4.4,4.4,0,0,0,1.136-3.267A12.572,12.572,0,0,0,278.771,194.2Zm2.2,11.317c-.682.724-1.808.806-3.085.067a8.3,8.3,0,0,1-3.768-6.491c0-1.442.62-2.367,1.566-2.6.677-.724,1.809-.806,3.085-.067a8.3,8.3,0,0,1,3.762,6.5C282.533,204.364,281.918,205.289,280.972,205.522Z" transform="translate(-271.833 -155.49)" fill="#2c2c2c"/>
            <path id="Path_999276" data-name="Path 999276" d="M277.6,194.9a4.352,4.352,0,0,0-3.592-.615c-1.292.454-2.119,1.809-2.119,3.866A12.6,12.6,0,0,0,277.6,208c1.814,1.044,3.426,1.007,4.47.1a4.28,4.28,0,0,0,1.235-3.354A12.572,12.572,0,0,0,277.6,194.9Zm-2.2,1.777a2.964,2.964,0,0,1,2.2.45,8.3,8.3,0,0,1,3.762,6.5,2.963,2.963,0,0,1-.677,2.077c-.682.724-1.808.806-3.085.067a8.3,8.3,0,0,1-3.768-6.491C273.833,197.835,274.453,196.91,275.4,196.677Z" transform="translate(-271.546 -155.669)" fill="#292929"/>
            <path id="Path_999277" data-name="Path 999277" d="M281.359,206.589c-.682.724-1.808.806-3.085.067a8.3,8.3,0,0,1-3.768-6.491c0-1.442.62-2.367,1.566-2.6a2.971,2.971,0,0,0-.682,2.082,8.3,8.3,0,0,0,3.768,6.491A2.966,2.966,0,0,0,281.359,206.589Z" transform="translate(-272.22 -156.557)" fill="#8e8e8e"/>
            <g id="Group_1183467" data-name="Group 1183467" transform="translate(1.286 38.449)">
              <path id="Path_999278" data-name="Path 999278" d="M277.927,194.9c-1.993-1.15-3.747-.987-4.768.2,1.041-.66,2.511-.6,4.144.339a12.572,12.572,0,0,1,5.705,9.845,4.605,4.605,0,0,1-.943,3.058,4.026,4.026,0,0,0,1.567-3.6A12.572,12.572,0,0,0,277.927,194.9Z" transform="translate(-273.159 -194.118)" fill="#363636"/>
              <path id="Path_999279" data-name="Path 999279" d="M274.111,200.564a8.3,8.3,0,0,0,3.768,6.491c1.369.79,2.234,1.014,2.892.14a2.7,2.7,0,0,1-2.6-.3A8.3,8.3,0,0,1,274.4,200.4a3.131,3.131,0,0,1,.542-1.911C274.23,198.866,274.111,199.336,274.111,200.564Z" transform="translate(-273.404 -195.245)" fill="#363636"/>
            </g>
            <path id="Path_999280" data-name="Path 999280" d="M280.367,199.58l.189-5.271,1.258-.553,2.267,1.325.44.708-.821,3.9-1.258.553a7.613,7.613,0,0,1-1.4.416C280.968,200.583,280.367,199.58,280.367,199.58Z" transform="translate(-273.73 -155.576)" fill="#8e8e8e"/>
            <path id="Path_999281" data-name="Path 999281" d="M278.105,200.506l1.583-2.131.285-3.874,2.267,1.325.44.708-.821,3.9-2.287.918s-.719.309-.792.232S278.105,200.506,278.105,200.506Z" transform="translate(-273.147 -155.768)" fill="#cfcfcf"/>
            <g id="Group_1183468" data-name="Group 1183468" transform="translate(8.964 28.488)">
              <path id="Path_999282" data-name="Path 999282" d="M309.608,206.954,283.5,191.882V180.7h.958v10.627l25.628,14.8Z" transform="translate(-283.502 -180.701)" fill="#e0e0e0"/>
            </g>
            <path id="Path_999283" data-name="Path 999283" d="M293.846,171.039l17.04,20.484.689-.5V180.382l-17.04-9.838Z" transform="translate(-277.202 -149.596)" fill="#8b6865"/>
            <path id="Path_999284" data-name="Path 999284" d="M293.846,181.858l17.04,9.838V181.049l-17.04-9.838Z" transform="translate(-277.202 -149.768)" fill="#764d4a"/>
            <g id="Group_1183469" data-name="Group 1183469" transform="translate(12.175 19.651)">
              <path id="Path_999285" data-name="Path 999285" d="M309.994,194.61h-.958V178.885l-15.666-9.045a.612.612,0,0,0-.917.531v2.179a1.686,1.686,0,0,1-2.529,1.46l-.22-.127a.608.608,0,0,0-.612,0,.6.6,0,0,0-.306.53v6.641h-.958v-6.641a1.571,1.571,0,0,1,2.356-1.36l.22.127a.727.727,0,0,0,1.091-.63v-2.179a1.571,1.571,0,0,1,2.356-1.36l16.144,9.321V194.61Z" transform="translate(-287.827 -168.798)" fill="#e0e0e0"/>
            </g>
            <path id="Path_999286" data-name="Path 999286" d="M307.163,176.153l-12.455-7.19c-.5-.29-.751-1.457-.169-1.793l.311.655a2.2,2.2,0,0,1,1.972-.082l12.635,6.428c.5.29.258,1.566-.322,1.9h0A2.2,2.2,0,0,1,307.163,176.153Z" transform="translate(-277.294 -148.727)" fill="#48110d"/>
            <path id="Path_999287" data-name="Path 999287" d="M307.221,175.07l-12.454-7.191c-.5-.29-.44-.8.142-1.138h0a2.2,2.2,0,0,1,1.972-.082l12.454,7.19c.5.29.44.8-.142,1.138h0A2.2,2.2,0,0,1,307.221,175.07Z" transform="translate(-277.352 -148.545)" fill="#633431"/>
            <path id="Path_999288" data-name="Path 999288" d="M276.58,159.071a.017.017,0,0,0,0,.014,2.869,2.869,0,0,0,.446.557l-.269.327s.01.086.029.2a6.017,6.017,0,0,0,.115.648c0,.01,0,.019.005.024.033.087.206.154.345.192.105.029.192.048.192.048l-.115.36.024.091.183.778a5.543,5.543,0,0,0,.615.48,1.653,1.653,0,0,0,.494.24,2.6,2.6,0,0,0,.994-.058l.869.446a42.683,42.683,0,0,1,6.3,2.194c4.023,1.68,12,3.538,12.995,3.029s6.6-6.274,6.6-6.274l-1.469-3.975-.091-.255s-.264.029-.662.076c-1.287.154-4.013.471-4.08.494a3.23,3.23,0,0,0-.284.437,9.934,9.934,0,0,1-2.295,2.832c-.811.84-12.27-1.258-12.635-1.32s-1.555-1.738-1.555-1.738l-3.394-2.943-1.32-.6-.869.24a6.2,6.2,0,0,0-.96,1.08.224.224,0,0,0,.019.259.508.508,0,0,0,.283.163l-.053.062c-.039.048-.115.14-.249.3A2.874,2.874,0,0,0,276.58,159.071Z" transform="translate(-272.748 -145.69)" fill="url(#linear-gradient-32)"/>
            <path id="Path_999289" data-name="Path 999289" d="M277.966,162.465l-.465.36c.105.029.191.048.191.048l-.115.36.024.091c.212-.288.422-.528.422-.528l.345-.465Z" transform="translate(-272.992 -147.481)" fill="url(#linear-gradient-33)"/>
            <path id="Path_999290" data-name="Path 999290" d="M279.482,157.854l.029-.23-.96-1.128s-.533-.4-.672-.36a4.743,4.743,0,0,0-.667.907l-.312.111a.508.508,0,0,0,.283.163l-.053.062.259-.1.629.211Z" transform="translate(-272.837 -145.884)" fill="url(#linear-gradient-34)"/>
            <path id="Path_999291" data-name="Path 999291" d="M277.041,160.616l-.269.327s.01.086.029.2l.029-.125,1.411-.763-.091-.168-1.32-.926-.226.537-.01.36A2.869,2.869,0,0,0,277.041,160.616Z" transform="translate(-272.758 -146.664)" fill="url(#linear-gradient-35)"/>
            <path id="Path_999292" data-name="Path 999292" d="M278.937,162.927l-.422.2.144.581a1.653,1.653,0,0,0,.494.24,2.6,2.6,0,0,0,.994-.058l.869.446a42.679,42.679,0,0,1,6.3,2.194c4.023,1.68,12,3.538,12.995,3.029s6.6-6.274,6.6-6.274l-1.469-3.975a7.66,7.66,0,0,0-.754-.177,16.632,16.632,0,0,0-4.627-.068s-.1.321.264,1a4.338,4.338,0,0,0,.413.643c.84,1.119,4.561,3.562,4.561,3.562l-1.7,2.117s-3.48,2.943-3.979,2.943-3.36-.523-5.021-.859-7.959-2.419-8.5-2.7-4.119-1.5-4.119-1.5l-2.2-.619Z" transform="translate(-273.253 -146.604)" fill="url(#linear-gradient-36)"/>
            <path id="Path_999293" data-name="Path 999293" d="M307.479,155.249s1.52,1.42,2.62,2.34a43.635,43.635,0,0,0,4.44,2.76s4.581-5.561,5.18-6.18,3.241-4.72,1.48-8.16a6.5,6.5,0,0,0-4.9-3.68,5.729,5.729,0,0,0-1.96,1.12c-.72.72-3.02,6.921-3.02,6.921Z" transform="translate(-280.714 -142.328)" fill="#ff7c12"/>
            <path id="Path_999294" data-name="Path 999294" d="M312.277,181.24c-5.116-2.951-9.674-2.852-12.63-.29-2.191,1.892-3.5,5.137-3.5,9.483,0,10.222,7.22,22.671,16.129,27.813,4.134,2.388,7.907,2.78,10.76,1.483,3.292-1.483,5.365-5.2,5.365-10.677C328.4,198.837,321.182,186.383,312.277,181.24Zm8.6,34.951c-2.408,2.222-6.206,2.356-10.475-.108-7.287-4.206-13.194-14.392-13.194-22.754,0-4.589,1.783-7.679,4.594-8.832,2.408-2.222,6.206-2.356,10.475.108,7.287,4.206,13.189,14.4,13.189,22.754C325.466,211.948,323.688,215.039,320.877,216.191Z" transform="translate(-277.795 -151.782)" fill="#2c2c2c"/>
            <path id="Path_999295" data-name="Path 999295" d="M309.753,182.855c-4.134-2.388-7.9-2.78-10.754-1.489-3.3,1.489-5.37,5.209-5.37,10.682,0,10.222,7.22,22.671,16.124,27.813,5.121,2.956,9.685,2.852,12.636.284,2.186-1.892,3.489-5.131,3.489-9.477C325.877,200.452,318.657,188,309.753,182.855Zm-8.6,2.056c2.31-.946,5.313-.589,8.6,1.307,7.287,4.206,13.193,14.4,13.193,22.754,0,3.463-1.013,6.067-2.718,7.633-2.408,2.222-6.206,2.356-10.475-.108-7.287-4.206-13.194-14.392-13.194-22.754C296.559,189.155,298.342,186.064,301.153,184.912Z" transform="translate(-277.146 -152.197)" fill="#292929"/>
            <path id="Path_999296" data-name="Path 999296" d="M321.244,218.089c-2.408,2.222-6.206,2.356-10.475-.108-7.287-4.206-13.194-14.392-13.194-22.754,0-4.589,1.783-7.679,4.594-8.832-1.705,1.566-2.718,4.171-2.718,7.633,0,8.362,5.906,18.547,13.193,22.755C315.932,218.678,318.935,219.035,321.244,218.089Z" transform="translate(-278.163 -153.68)" fill="#8e8e8e"/>
            <g id="Group_1183470" data-name="Group 1183470" transform="translate(18.382 28.449)">
              <path id="Path_999297" data-name="Path 999297" d="M311.91,182.858c-3.739-2.159-7.178-2.68-9.912-1.808,2.546-.462,5.6.172,8.879,2.067C319.782,188.258,327,200.711,327,210.93c0,5.929-2.433,9.8-6.212,11,4.365-.791,7.246-4.807,7.246-11.26C328.034,200.452,320.815,188,311.91,182.858Z" transform="translate(-297.684 -180.648)" fill="#363636"/>
              <path id="Path_999298" data-name="Path 999298" d="M302.2,186.211c-3.618.61-6.013,3.905-6.013,9.226,0,8.36,5.907,18.548,13.192,22.755,3.106,1.794,5.959,2.206,8.214,1.445a10.933,10.933,0,0,1-7.18-1.7c-7.286-4.206-13.192-14.394-13.192-22.755C297.22,190.382,299.166,187.233,302.2,186.211Z" transform="translate(-296.187 -182.081)" fill="#363636"/>
            </g>
            <g id="Group_1183471" data-name="Group 1183471" transform="translate(18.221 31.99)">
              <path id="Path_999299" data-name="Path 999299" d="M315.6,220.326a12.522,12.522,0,0,1-6.157-1.882c-7.426-4.287-13.469-14.709-13.469-23.231,0-4.2,1.441-7.342,4.058-8.853,2.64-1.525,6.124-1.189,9.814.94,7.426,4.288,13.469,14.71,13.469,23.233,0,4.2-1.441,7.342-4.058,8.852A7.222,7.222,0,0,1,315.6,220.326Zm-11.907-34.1a6.428,6.428,0,0,0-3.257.833c-2.357,1.361-3.655,4.257-3.655,8.155,0,8.266,5.861,18.374,13.065,22.534,3.429,1.98,6.628,2.316,9.008.941,2.357-1.361,3.655-4.257,3.655-8.155,0-8.266-5.861-18.375-13.065-22.534A11.72,11.72,0,0,0,303.688,186.225Z" transform="translate(-295.97 -185.418)" fill="#e0e0e0"/>
            </g>
            <path id="Path_999300" data-name="Path 999300" d="M312.275,206.214a5.028,5.028,0,0,0,2.282,3.936c1.261.728,2.282.145,2.282-1.3a5.028,5.028,0,0,0-2.282-3.936C313.3,204.185,312.275,204.768,312.275,206.214Z" transform="translate(-281.949 -158.369)" fill="#8e8e8e"/>
            <path id="Path_999301" data-name="Path 999301" d="M313.658,207.264a2.766,2.766,0,0,0,1.255,2.166c.693.4,1.255.08,1.255-.716a2.766,2.766,0,0,0-1.255-2.166C314.22,206.148,313.658,206.468,313.658,207.264Z" transform="translate(-282.306 -158.827)" fill="#aeaeae"/>
            <g id="Group_1183472" data-name="Group 1183472" transform="translate(0 28.173)">
              <path id="Path_999302" data-name="Path 999302" d="M272.376,195.749l-.95-.137,2.018-14.014a2,2,0,0,1,2.885-1.053l4.781,2.76-.48.83-4.78-2.76a1.044,1.044,0,0,0-1.488.508Z" transform="translate(-271.427 -180.277)" fill="#e0e0e0"/>
            </g>
            <g id="Group_1183473" data-name="Group 1183473" transform="translate(1.746 30.557)">
              <rect id="Rectangle_455039" data-name="Rectangle 455039" width="0.959" height="8.604" transform="matrix(0.5, -0.866, 0.866, 0.5, 0, 0.831)" fill="#e0e0e0"/>
            </g>
            <g id="Group_1183474" data-name="Group 1183474" transform="translate(7.997 34.719)">
              <rect id="Rectangle_455040" data-name="Rectangle 455040" width="0.958" height="4.149" fill="#e0e0e0"/>
            </g>
            <g id="Group_1183475" data-name="Group 1183475" transform="translate(32.092 43.444)">
              <rect id="Rectangle_455041" data-name="Rectangle 455041" width="0.958" height="9.339" fill="#e0e0e0"/>
            </g>
          </g>
        </g>
      </g>
    </g>
    <path id="Path_1006964" data-name="Path 1006964" d="M.016,0,1.984-11.375l3.617.008a5.273,5.273,0,0,1,3.2.813A2.459,2.459,0,0,1,9.758-8.3,2.823,2.823,0,0,1,7.789-5.75,1.929,1.929,0,0,1,8.824-4.9,2.477,2.477,0,0,1,9.141-3.43,3.271,3.271,0,0,1,7.84-.891,5.336,5.336,0,0,1,4.578,0ZM3.531-4.836,3.055-2.117l1.6.008a2.044,2.044,0,0,0,1.25-.37A1.454,1.454,0,0,0,6.5-3.465q.219-1.3-1-1.363Zm.3-1.8,1.258.008q1.742-.039,1.953-1.34Q7.234-9.25,5.719-9.258L4.3-9.266Zm12.945,4.5H13.148L12.141,0H9.2l6.023-11.375h2.516L19.836,0H17.055ZM14.148-4.242h2.359l-.5-3.922Zm11.461.219H24.125L23.422,0H20.75l1.969-11.375,4.016.008a4.412,4.412,0,0,1,2.973.9A2.8,2.8,0,0,1,30.641-8a3.67,3.67,0,0,1-.711,2.041,4.185,4.185,0,0,1-1.75,1.276L29.711-.133V0H26.859ZM24.484-6.133l1.563.016A1.968,1.968,0,0,0,27.16-6.43a1.725,1.725,0,0,0,.676-.858,2.016,2.016,0,0,0,.117-1.053,1.049,1.049,0,0,0-1.109-.916l-1.812-.008ZM35.813-4.023H34.328L33.625,0H30.953l1.969-11.375,4.016.008a4.412,4.412,0,0,1,2.973.9A2.8,2.8,0,0,1,40.844-8a3.67,3.67,0,0,1-.711,2.041,4.185,4.185,0,0,1-1.75,1.276L39.914-.133V0H37.063ZM34.688-6.133l1.563.016a1.968,1.968,0,0,0,1.113-.313,1.725,1.725,0,0,0,.676-.858,2.016,2.016,0,0,0,.117-1.053,1.049,1.049,0,0,0-1.109-.916l-1.812-.008ZM44.008,0H41.336l1.977-11.375h2.664Zm9.6-4.828H49.43l-.477,2.719H53.9L53.531,0H45.914l1.969-11.375h7.633l-.367,2.117H50.2l-.422,2.4h4.188Zm5.93.8H58.055L57.352,0H54.68l1.969-11.375,4.016.008a4.412,4.412,0,0,1,2.973.9A2.8,2.8,0,0,1,64.57-8a3.67,3.67,0,0,1-.711,2.041,4.185,4.185,0,0,1-1.75,1.276L63.641-.133V0H60.789ZM58.414-6.133l1.563.016A1.968,1.968,0,0,0,61.09-6.43a1.725,1.725,0,0,0,.676-.858,2.016,2.016,0,0,0,.117-1.053,1.049,1.049,0,0,0-1.109-.916l-1.812-.008Zm18.164,1.6H72.289L71.5,0H68.828L70.8-11.375h7.4l-.367,2.117H73.109l-.453,2.617h4.289Zm5.672.508H80.766L80.063,0H77.391l1.969-11.375,4.016.008a4.412,4.412,0,0,1,2.973.9A2.8,2.8,0,0,1,87.281-8a3.67,3.67,0,0,1-.711,2.041,4.185,4.185,0,0,1-1.75,1.276L86.352-.133V0H83.5ZM81.125-6.133l1.563.016A1.968,1.968,0,0,0,83.8-6.43a1.725,1.725,0,0,0,.676-.858,2.016,2.016,0,0,0,.117-1.053,1.049,1.049,0,0,0-1.109-.916l-1.812-.008Zm14.164,1.3h-4.18l-.477,2.719h4.945L95.211,0H87.594l1.969-11.375H97.2l-.367,2.117H91.875l-.422,2.4h4.188Zm8.766,0h-4.18L99.4-2.109h4.945L103.977,0H96.359l1.969-11.375h7.633l-.367,2.117h-4.953l-.422,2.4h4.188Z" transform="translate(-300.186 252.662)" fill="#fff"/>
  </g>
</svg>
