<svg xmlns="http://www.w3.org/2000/svg" width="70" height="70" viewBox="0 0 70 70">
  <g id="img10" transform="translate(-269 -958.087)">
    <circle id="Ellipse_5614" data-name="Ellipse 5614" cx="35" cy="35" r="35" transform="translate(269 958.087)" fill="#fff"/>
    <g id="Group_1186138" data-name="Group 1186138" transform="translate(260.564 975.856)">
      <path id="Path_1000249" data-name="Path 1000249" d="M278.479,27.366a2.654,2.654,0,0,0,2.651-2.651v-.622a7.314,7.314,0,0,0-3.092-5.971h2.04a.673.673,0,0,0,.673-.673V16.187a3.662,3.662,0,0,0-3.658-3.658h-.447V10.343A4.685,4.685,0,0,0,278.491,6.9h.1a.673.673,0,0,0,0-1.346h-.006V4.773a4.773,4.773,0,1,0-9.545,0v.778h-.006a.673.673,0,0,0,0,1.346h.1a4.685,4.685,0,0,0,1.845,3.445v2.186h-.447a3.662,3.662,0,0,0-3.658,3.658v1.262a.673.673,0,0,0,.673.673h2.04a7.314,7.314,0,0,0-3.092,5.971v.622a2.654,2.654,0,0,0,2.651,2.651h1.833v1.505h-.447a3.662,3.662,0,0,0-3.658,3.658v1.263a.673.673,0,0,0,.673.673h12.53a.673.673,0,0,0,.673-.673V32.529a3.662,3.662,0,0,0-3.658-3.658h-.447V27.366Zm-4.666-1.088a3.112,3.112,0,0,1-3.092-2.791l3.092-2.4,3.092,2.4A3.112,3.112,0,0,1,273.812,26.278Zm-1.487,1.09a4.444,4.444,0,0,0,2.974,0V29.21a2.678,2.678,0,0,1-2.974,0Zm1.487-26.022a3.432,3.432,0,0,1,3.36,2.753,2.4,2.4,0,0,0-1.939-.094l-1.04.4a1.055,1.055,0,0,1-.76,0l-1.04-.4a2.4,2.4,0,0,0-1.939.094,3.432,3.432,0,0,1,3.36-2.753ZM270.47,6.611V6.248a1.061,1.061,0,0,1,1.053-1.059,1.066,1.066,0,0,1,.384.072l1.04.4a2.4,2.4,0,0,0,1.729,0l1.04-.4a1.057,1.057,0,0,1,1.437.986v.363a3.342,3.342,0,1,1-6.684,0Zm3.342,4.688a4.667,4.667,0,0,0,1.487-.243v1.811a2.678,2.678,0,0,1-2.974,0V11.056A4.667,4.667,0,0,0,273.812,11.3Zm-5.592,5.477v-.589a2.314,2.314,0,0,1,2.311-2.311h.889a4.017,4.017,0,0,0,4.783,0h.889a2.314,2.314,0,0,1,2.311,2.311v.589Zm-.379,7.939v-.622a5.971,5.971,0,0,1,11.942,0v.622a1.306,1.306,0,0,1-1.3,1.3h-1.246a4.434,4.434,0,0,0,1.034-2.85.673.673,0,0,0-.26-.531L274.226,19.7a.673.673,0,0,0-.826,0l-3.781,2.939a.673.673,0,0,0-.26.531,4.434,4.434,0,0,0,1.034,2.85h-1.246A1.306,1.306,0,0,1,267.841,24.715ZM279.4,32.529v.589H268.22v-.589a2.314,2.314,0,0,1,2.311-2.311h.889a4.017,4.017,0,0,0,4.783,0h.889A2.314,2.314,0,0,1,279.4,32.529Z" transform="translate(-222.351 0)" fill="#2142dc"/>
      <path id="Path_1000250" data-name="Path 1000250" d="M35.413,0A7.326,7.326,0,0,0,28.1,7.317v5.065a2.632,2.632,0,0,0,.875,1.97,3.634,3.634,0,0,0-.5,1.835v1.262a.673.673,0,0,0,.673.673H31.92a4.458,4.458,0,0,0-1.279,3.128v.643h-.006a.673.673,0,1,0,0,1.346h.1a4.685,4.685,0,0,0,1.845,3.445v2.186h-.447a3.662,3.662,0,0,0-3.658,3.658v1.263a.673.673,0,0,0,.673.673h3.236a.673.673,0,0,0,0-1.346H29.821v-.589a2.314,2.314,0,0,1,2.311-2.311h.889a4.017,4.017,0,0,0,4.783,0h.889a2.314,2.314,0,0,1,2.311,2.311v.589H38.443a.673.673,0,0,0,0,1.346h3.236a.673.673,0,0,0,.673-.673V32.529a3.662,3.662,0,0,0-3.658-3.658h-.447V26.685a4.685,4.685,0,0,0,1.845-3.445h.1a.673.673,0,0,0,0-1.346h-.006V18.122h1.492a.673.673,0,0,0,.673-.673V16.187a3.634,3.634,0,0,0-.5-1.835,2.632,2.632,0,0,0,.875-1.97V7.317A7.326,7.326,0,0,0,35.413,0ZM36.9,29.21a2.678,2.678,0,0,1-2.974,0V27.4a4.669,4.669,0,0,0,2.974,0Zm1.855-6.257a3.342,3.342,0,0,1-6.684,0V22.59a1.055,1.055,0,0,1,.887-1.045c.391-.033,4.468-.036,4.884,0a1.063,1.063,0,0,1,.913,1.049Zm.084-2.478a2.386,2.386,0,0,0-.83-.27c-.283-.037-4.86-.052-5.245.008a2.436,2.436,0,0,0-.664.2,3.133,3.133,0,0,1,3.014-2.293H38.84Zm2.166-3.7H29.821v-.589a2.314,2.314,0,0,1,2.311-2.311h.889a4.017,4.017,0,0,0,4.783,0h.889a2.314,2.314,0,0,1,2.311,2.311v.589Zm-5.592-6.84a3.112,3.112,0,0,1-3.092-2.791l3.092-2.4,3.092,2.4A3.112,3.112,0,0,1,35.413,9.936Zm0,1.346a4.431,4.431,0,0,0,1.487-.256v1.841a2.678,2.678,0,0,1-2.974,0V11.026A4.433,4.433,0,0,0,35.413,11.282Zm5.971,1.1a1.3,1.3,0,0,1-.409.949,3.639,3.639,0,0,0-2.282-.8h-.447V10.262a4.447,4.447,0,0,0,1.621-3.434.673.673,0,0,0-.26-.531L35.826,3.357a.673.673,0,0,0-.826,0L31.219,6.3a.673.673,0,0,0-.26.531,4.447,4.447,0,0,0,1.621,3.434v2.267h-.447a3.639,3.639,0,0,0-2.282.8,1.3,1.3,0,0,1-.409-.949V7.317a5.971,5.971,0,0,1,11.942,0v5.065Z" fill="#2142dc"/>
      <path id="Path_1000251" data-name="Path 1000251" d="M128.106,492.457a.673.673,0,1,0-.622.93A.678.678,0,0,0,128.106,492.457Z" transform="translate(-92.07 -458.922)" fill="#2142dc"/>
    </g>
  </g>
</svg>
