<svg xmlns="http://www.w3.org/2000/svg" width="130" height="130" viewBox="0 0 130 130">
  <g id="img2" transform="translate(-199.711 -947)">
    <rect id="Rectangle_455042" data-name="Rectangle 455042" width="130" height="130" rx="20" transform="translate(199.711 947)" fill="#a8b8ff"/>
    <g id="Group_1183703" data-name="Group 1183703" transform="translate(205.542 974)">
      <g id="Group_1183701" data-name="Group 1183701" transform="translate(25.296 5.635)">
        <g id="Group_1183700" data-name="Group 1183700" transform="translate(0)">
          <path id="Path_999621" data-name="Path 999621" d="M84.864,125.409l-4.4.3H33.185a1.519,1.519,0,0,1-1.519-1.519V60.236a1.519,1.519,0,0,1,1.519-1.519h3.494l3.793,1.5H77l4.669-1.5,3.193.3a1.519,1.519,0,0,1,1.519,1.519V123.89a1.519,1.519,0,0,1-1.519,1.519Z" transform="translate(-31.666 -55.528)" fill="#c68d7a"/>
          <path id="Path_999622" data-name="Path 999622" d="M356.1,58.717h-3.494l-2.088,1.5v57.814l2.088,2.061v4.1a1.512,1.512,0,0,1-1.512,1.512H356.1a1.519,1.519,0,0,0,1.519-1.519V60.236a1.519,1.519,0,0,0-1.519-1.519Z" transform="translate(-302.6 -55.528)" fill="#bc7c63"/>
          <path id="Path_999623" data-name="Path 999623" d="M65.022,120.1V58.717h44.992V120.1a.6.6,0,0,1-.6.6H65.623A.6.6,0,0,1,65.022,120.1Z" transform="translate(-60.009 -55.528)" fill="#f2fbff"/>
          <path id="Path_999624" data-name="Path 999624" d="M159.682,43.574l-4.167.3H138.287a.751.751,0,0,1-.751-.751V40.931A3.434,3.434,0,0,1,140.97,37.5h10.483l5.546.3a3.434,3.434,0,0,1,3.434,3.434v1.591A.751.751,0,0,1,159.682,43.574Z" transform="translate(-121.626 -37.497)" fill="#918291"/>
          <path id="Path_999625" data-name="Path 999625" d="M241.089,37.5h-4.944a3.434,3.434,0,0,1,3.434,3.434v2.192a.751.751,0,0,1-.751.751h4.944a.751.751,0,0,0,.751-.751V40.931A3.434,3.434,0,0,0,241.089,37.5Z" transform="translate(-205.416 -37.497)" fill="#7a6d79"/>
          <path id="Path_999626" data-name="Path 999626" d="M95.986,117.4h34.072a.95.95,0,0,0,.95-.95v-4.561a.95.95,0,0,0-.95-.95H95.986a.95.95,0,0,0-.95.95v4.561A.95.95,0,0,0,95.986,117.4Z" transform="translate(-85.513 -99.9)" fill="#72d3c1"/>
          <g id="Group_1183698" data-name="Group 1183698" transform="translate(37.598 31.402)">
            <path id="Path_999627" data-name="Path 999627" d="M311.251,261.368c0,8.236-6.247,14-14.483,14-4.808,0-9.084-1.362-11.811-4.895a14.914,14.914,0,0,1,20.917-20.917,14.526,14.526,0,0,1,5.378,11.811Z" transform="translate(-281.855 -246.455)" fill="#72d3c1"/>
            <path id="Path_999628" data-name="Path 999628" d="M323.413,267.1a14.92,14.92,0,0,1,.876,16.948c-.2.316-.486.529-.7.829s-.375.7-.62.987a14.915,14.915,0,0,1-20.469,2.153A14.914,14.914,0,1,0,323.413,267.1Z" transform="translate(-299.394 -263.995)" fill="#5bc1ad"/>
          </g>
          <path id="Path_999629" data-name="Path 999629" d="M95.693,192.569H103.5a.656.656,0,0,0,.656-.656v-7.89a.656.656,0,0,0-.656-.656H95.693a.656.656,0,0,0-.656.656v7.89A.656.656,0,0,0,95.693,192.569Z" transform="translate(-85.514 -161.446)" fill="#dff6fd"/>
          <path id="Path_999630" data-name="Path 999630" d="M95.693,290.52H103.5a.656.656,0,0,0,.656-.656v-7.89a.656.656,0,0,0-.656-.656H95.693a.656.656,0,0,0-.656.656v7.89A.656.656,0,0,0,95.693,290.52Z" transform="translate(-85.514 -244.677)" fill="#dff6fd"/>
          <g id="Group_1183699" data-name="Group 1183699" transform="translate(9.523 51.355)">
            <path id="Path_999631" data-name="Path 999631" d="M95.693,388.427H103.5a.656.656,0,0,0,.656-.656v-7.89a.656.656,0,0,0-.656-.656H95.693a.656.656,0,0,0-.656.656v7.89a.656.656,0,0,0,.656.656Z" transform="translate(-95.037 -379.225)" fill="#dff6fd"/>
          </g>
        </g>
      </g>
      <g id="Group_1183702" data-name="Group 1183702" transform="translate(24.17 0)">
        <path id="Path_999632" data-name="Path 999632" d="M42.083,369.627H26.815a.392.392,0,0,1-.391-.392V348.227a1.127,1.127,0,1,0-2.254,0v21.008a2.649,2.649,0,0,0,2.645,2.646H42.083a1.127,1.127,0,1,0,0-2.254Z" transform="translate(-24.17 -294.938)"/>
        <path id="Path_999633" data-name="Path 999633" d="M123.676,103.437H89.6a2.08,2.08,0,0,0-2.077,2.077v4.561a2.08,2.08,0,0,0,2.077,2.077h34.074a2.08,2.08,0,0,0,2.077-2.077v-4.561a2.08,2.08,0,0,0-2.077-2.077ZM123.5,109.9H89.779v-4.208H123.5Z" transform="translate(-78.004 -87.892)"/>
        <path id="Path_999634" data-name="Path 999634" d="M81.442,36.325V10.343A2.649,2.649,0,0,0,78.8,7.7H65.32a4.569,4.569,0,0,0-4.35-3.188H56.921V4.116a4.116,4.116,0,1,0-8.232,0v.393H44.641A4.569,4.569,0,0,0,40.291,7.7H26.815a2.649,2.649,0,0,0-2.645,2.646V48.029a1.127,1.127,0,1,0,2.254,0V10.344a.392.392,0,0,1,.391-.392h2.367V70.8a1.127,1.127,0,0,0,1.127,1.127H75.3A1.127,1.127,0,0,0,76.429,70.8V67.931c.455.039.914.06,1.379.06s.923-.02,1.38-.059V74.3a.393.393,0,0,1-.392.392H47.343a1.127,1.127,0,0,0,0,2.254H78.8A2.649,2.649,0,0,0,81.442,74.3V67.578a15.869,15.869,0,0,0,6.125-2.9,1.127,1.127,0,1,0-1.374-1.787,13.644,13.644,0,0,1-8.386,2.844,13.788,13.788,0,1,1,11.668-6.444,1.127,1.127,0,0,0,1.906,1.2,16.042,16.042,0,0,0-9.939-24.173ZM50.944,4.116a1.862,1.862,0,1,1,3.723,0v.393H50.944ZM61.769,51.95A16.069,16.069,0,0,0,74.175,67.576v2.1H31.436V9.952H40.08v2.062a1.127,1.127,0,0,0,1.127,1.127H54.382a1.127,1.127,0,0,0,0-2.254H42.334V9.069a2.309,2.309,0,0,1,2.307-2.307H60.971a2.309,2.309,0,0,1,2.307,2.307v1.817H59.642a1.127,1.127,0,1,0,0,2.254H64.4a1.127,1.127,0,0,0,1.127-1.127V9.951h8.643V36.325A16.069,16.069,0,0,0,61.769,51.95Zm14.66-15.981V9.951H78.8a.392.392,0,0,1,.392.392V35.969c-.455-.039-.915-.06-1.38-.06S76.884,35.93,76.429,35.969Z" transform="translate(-24.17 0)"/>
        <path id="Path_999635" data-name="Path 999635" d="M337.642,281.018a1.127,1.127,0,0,0-1.576.238l-.618.838-2.993-2.285a1.15,1.15,0,0,0-.684-.231h-5.124v-4h4.127a1.127,1.127,0,0,0,0-2.254h-4.127v-1.454a3.489,3.489,0,1,0-2.254,0v1.54a7.378,7.378,0,1,0,8.212,9.346l2.386,1.822a1.127,1.127,0,0,0,1.591-.227l1.3-1.76A1.127,1.127,0,0,0,337.642,281.018ZM325.52,267.336a1.235,1.235,0,1,1-1.235,1.235A1.236,1.236,0,0,1,325.52,267.336Zm0,18.491a5.124,5.124,0,0,1-1.127-10.122v5a1.127,1.127,0,0,0,1.127,1.127h5A5.133,5.133,0,0,1,325.52,285.828Z" transform="translate(-273.964 -225.246)"/>
        <path id="Path_999636" data-name="Path 999636" d="M99.207,172.629a1.127,1.127,0,0,0-1.573.255l-.048.067H89.31a1.787,1.787,0,0,0-1.785,1.785v7.916a1.787,1.787,0,0,0,1.785,1.785h7.837a1.787,1.787,0,0,0,1.785-1.785v-7.716l.529-.734a1.127,1.127,0,0,0-.255-1.573Zm-2.529,9.554h-6.9V175.2h6.18l-2.254,3.126-.823-.747a1.127,1.127,0,0,0-1.515,1.669l1.757,1.6a1.127,1.127,0,0,0,.758.293,1.147,1.147,0,0,0,.118-.006,1.127,1.127,0,0,0,.8-.462l1.881-2.609Z" transform="translate(-78.004 -146.505)"/>
        <path id="Path_999637" data-name="Path 999637" d="M99.207,270.9a1.127,1.127,0,0,0-1.573.255l-.048.067H89.31a1.787,1.787,0,0,0-1.785,1.785v7.916a1.787,1.787,0,0,0,1.785,1.785h7.837a1.787,1.787,0,0,0,1.785-1.785v-7.716l.529-.734a1.127,1.127,0,0,0-.255-1.573Zm-2.529,9.555h-6.9v-6.978h6.18L93.706,276.6l-.823-.747a1.127,1.127,0,1,0-1.515,1.669l1.757,1.6a1.127,1.127,0,0,0,.758.293,1.147,1.147,0,0,0,.118-.006,1.127,1.127,0,0,0,.8-.462l1.881-2.609Z" transform="translate(-78.004 -230.01)"/>
        <path id="Path_999638" data-name="Path 999638" d="M184.615,224.861h6.742a1.127,1.127,0,0,0,0-2.254h-6.742a1.127,1.127,0,0,0,0,2.254Z" transform="translate(-159.546 -189.154)"/>
        <path id="Path_999639" data-name="Path 999639" d="M195.628,190.779H184.616a1.127,1.127,0,1,0,0,2.254h11.011a1.127,1.127,0,1,0,0-2.254Z" transform="translate(-159.547 -162.109)"/>
        <path id="Path_999640" data-name="Path 999640" d="M184.615,323.135h6.742a1.127,1.127,0,1,0,0-2.254h-6.742a1.127,1.127,0,1,0,0,2.254Z" transform="translate(-159.546 -272.659)"/>
        <path id="Path_999641" data-name="Path 999641" d="M195.628,289.053H184.616a1.127,1.127,0,1,0,0,2.254h11.011a1.127,1.127,0,1,0,0-2.254Z" transform="translate(-159.547 -245.614)"/>
        <path id="Path_999642" data-name="Path 999642" d="M99.207,369.176a1.127,1.127,0,0,0-1.573.255l-.048.067H89.31a1.787,1.787,0,0,0-1.785,1.785V379.2a1.787,1.787,0,0,0,1.785,1.785h7.837a1.787,1.787,0,0,0,1.785-1.785v-7.716l.529-.734a1.127,1.127,0,0,0-.255-1.573Zm-2.529,9.555h-6.9v-6.978h6.18l-2.254,3.126-.823-.747a1.127,1.127,0,1,0-1.515,1.669l1.757,1.6a1.127,1.127,0,0,0,.758.293,1.147,1.147,0,0,0,.118-.006,1.127,1.127,0,0,0,.8-.462l1.881-2.609Z" transform="translate(-78.004 -313.515)"/>
        <path id="Path_999643" data-name="Path 999643" d="M191.358,419.155h-6.742a1.127,1.127,0,1,0,0,2.254h6.742a1.127,1.127,0,1,0,0-2.254Z" transform="translate(-159.547 -356.164)"/>
        <path id="Path_999644" data-name="Path 999644" d="M195.628,387.327H184.616a1.127,1.127,0,1,0,0,2.254h11.011a1.127,1.127,0,1,0,0-2.254Z" transform="translate(-159.547 -329.12)"/>
      </g>
    </g>
  </g>
</svg>
