<svg xmlns="http://www.w3.org/2000/svg" width="70" height="70" viewBox="0 0 70 70">
  <g id="img20" transform="translate(-764.711 -18335)">
    <circle id="Ellipse_13556" data-name="Ellipse 13556" cx="35" cy="35" r="35" transform="translate(764.711 18335)" fill="#e5eaff"/>
    <g id="Group_1187172" data-name="Group 1187172" transform="translate(780.885 18350.621)">
      <path id="Path_1001383" data-name="Path 1001383" d="M20.531,25.159H13.579a.579.579,0,0,1,0-1.159h6.951a.579.579,0,1,1,0,1.159Z" transform="translate(-5.469 -9.256)" fill="#2142dc"/>
      <path id="Path_1001384" data-name="Path 1001384" d="M20.531,30.159H13.579a.579.579,0,0,1,0-1.159h6.951a.579.579,0,1,1,0,1.159Z" transform="translate(-5.469 -11.36)" fill="#2142dc"/>
      <path id="Path_1001385" data-name="Path 1001385" d="M20.531,35.159H13.579a.579.579,0,1,1,0-1.159h6.951a.579.579,0,1,1,0,1.159Z" transform="translate(-5.469 -13.463)" fill="#2142dc"/>
      <path id="Path_1001386" data-name="Path 1001386" d="M20.531,40.159H13.579a.579.579,0,1,1,0-1.159h6.951a.579.579,0,1,1,0,1.159Z" transform="translate(-5.469 -15.567)" fill="#2142dc"/>
      <path id="Path_1001387" data-name="Path 1001387" d="M44.531,25.159H37.579a.579.579,0,1,1,0-1.159h6.951a.579.579,0,0,1,0,1.159Z" transform="translate(-15.567 -9.256)" fill="#2142dc"/>
      <path id="Path_1001388" data-name="Path 1001388" d="M44.531,30.159H37.579a.579.579,0,0,1,0-1.159h6.951a.579.579,0,0,1,0,1.159Z" transform="translate(-15.567 -11.36)" fill="#2142dc"/>
      <path id="Path_1001389" data-name="Path 1001389" d="M44.531,35.159H37.579a.579.579,0,0,1,0-1.159h6.951a.579.579,0,1,1,0,1.159Z" transform="translate(-15.567 -13.463)" fill="#2142dc"/>
      <path id="Path_1001390" data-name="Path 1001390" d="M44.531,40.159H37.579a.579.579,0,0,1,0-1.159h6.951a.579.579,0,1,1,0,1.159Z" transform="translate(-15.567 -15.567)" fill="#2142dc"/>
      <path id="Path_1001391" data-name="Path 1001391" d="M28.213,12.427a5.213,5.213,0,1,1,5.213-5.213A5.219,5.219,0,0,1,28.213,12.427Zm0-9.268a4.055,4.055,0,1,0,4.055,4.055A4.06,4.06,0,0,0,28.213,3.159Z" transform="translate(-9.677)" fill="#2142dc"/>
      <path id="Path_1001392" data-name="Path 1001392" d="M35.6,16.192A19.475,19.475,0,0,0,28.434,15c-.489.009-.906.013-1.331.036a.58.58,0,0,0,.061,1.157c.405-.022.82-.025,1.268-.035a19.835,19.835,0,0,1,6.375.972V37.592H22.061V35.667a19.256,19.256,0,0,1,6.332-.972h.041a20.769,20.769,0,0,1,5.072.586.58.58,0,1,0,.28-1.125,21.984,21.984,0,0,0-5.308-.619h-.087a21,21,0,0,0-6.331.91V19.055a.579.579,0,1,0-1.159,0V34.443a21.4,21.4,0,0,0-6.371-.907H14.49a20.849,20.849,0,0,0-6.331.909V17.135a19.25,19.25,0,0,1,6.332-.976c.452,0,.892.015,1.31.038a.59.59,0,0,0,.611-.546.579.579,0,0,0-.546-.611c-.44-.024-.91-.032-1.375-.041a18.8,18.8,0,0,0-7.146,1.209A.58.58,0,0,0,7,16.738V38.171a.579.579,0,0,0,.579.579H35.386a.579.579,0,0,0,.579-.579V16.73a.581.581,0,0,0-.367-.539ZM8.159,35.672a19.2,19.2,0,0,1,6.332-.977h.039a19.753,19.753,0,0,1,6.373.972v1.924H8.159Z" transform="translate(-2.946 -5.469)" fill="#2142dc"/>
      <path id="Path_1001393" data-name="Path 1001393" d="M33.317,9.476H31.579A.579.579,0,0,1,31,8.9V6.579a.579.579,0,1,1,1.159,0V8.317h1.159a.579.579,0,0,1,0,1.159Z" transform="translate(-13.043 -1.683)" fill="#2142dc"/>
      <path id="Path_1001394" data-name="Path 1001394" d="M35.335,20H34.177a.579.579,0,0,0,0,1.159h1.159a.579.579,0,0,1,.579.579V42.592a.579.579,0,0,1-.579.579H20.854V42.012a.579.579,0,1,0-1.159,0v1.159H17.378V42.012a.579.579,0,0,0-1.159,0v1.159H1.738a.579.579,0,0,1-.579-.579V21.738a.579.579,0,0,1,.579-.579H2.9A.579.579,0,0,0,2.9,20H1.738A1.74,1.74,0,0,0,0,21.738V42.592a1.74,1.74,0,0,0,1.738,1.738h33.6a1.74,1.74,0,0,0,1.738-1.738V21.738A1.74,1.74,0,0,0,35.335,20Z" transform="translate(0 -7.573)" fill="#2142dc"/>
    </g>
  </g>
</svg>
