<svg xmlns="http://www.w3.org/2000/svg" width="100" height="100" viewBox="0 0 100 100">
  <g id="img29" transform="translate(-315.711 -8156)">
    <rect id="Rectangle_454449" data-name="Rectangle 454449" width="100" height="100" rx="10" transform="translate(315.711 8156)" fill="#a8b8ff"/>
    <g id="Group_1187325" data-name="Group 1187325" transform="translate(333.965 8173.879)">
      <g id="Group_1187323" data-name="Group 1187323" transform="translate(0.93 1.358)">
        <path id="Path_1001615" data-name="Path 1001615" d="M140.443,318.334h18.268v9.741H140.443Z" transform="translate(-123.957 -279.841)" fill="#365e7d"/>
        <path id="Path_1001616" data-name="Path 1001616" d="M51.178,48.566H15.062A7.562,7.562,0,0,1,7.5,41V15.491a7.562,7.562,0,0,1,7.562-7.562H51.178a7.562,7.562,0,0,1,7.562,7.562V41A7.562,7.562,0,0,1,51.178,48.566Z" transform="translate(-7.5 -7.929)" fill="#407093"/>
        <path id="Path_1001617" data-name="Path 1001617" d="M17.536,48.567H15.062A7.563,7.563,0,0,1,7.5,41V15.491a7.562,7.562,0,0,1,7.562-7.562h2.474a7.562,7.562,0,0,0-7.562,7.562V41a7.563,7.563,0,0,0,7.562,7.562Z" transform="translate(-7.5 -7.929)" fill="#365e7d"/>
        <path id="Path_1001618" data-name="Path 1001618" d="M44.76,74.059A3.362,3.362,0,0,1,41.4,70.7V45.189a3.362,3.362,0,0,1,3.358-3.358H80.876a3.362,3.362,0,0,1,3.358,3.358V70.7a3.362,3.362,0,0,1-3.358,3.358H44.76Z" transform="translate(-37.198 -37.627)" fill="#bed8fb"/>
        <path id="Path_1001619" data-name="Path 1001619" d="M122.874,382.271H99.85a3.032,3.032,0,0,1,0-6.064h23.024a3.032,3.032,0,1,1,0,6.064Z" transform="translate(-85.742 -330.537)" fill="#407093"/>
        <path id="Path_1001620" data-name="Path 1001620" d="M107.321,382.266H99.849a3.033,3.033,0,0,1,0-6.065h7.472a3.033,3.033,0,1,0,0,6.065Z" transform="translate(-85.742 -330.532)" fill="#365e7d"/>
        <g id="Group_1187322" data-name="Group 1187322" transform="translate(21.763 21.654)">
          <path id="Path_1001621" data-name="Path 1001621" d="M379.049,377.344l-1.264,1.264a2.313,2.313,0,0,1-3.271,0l-12.451-12.451,4.535-4.534,12.452,12.451A2.313,2.313,0,0,1,379.049,377.344Z" transform="translate(-339.857 -339.415)" fill="#ffe07d"/>
          <path id="Path_1001622" data-name="Path 1001622" d="M379.2,397.957a2.227,2.227,0,0,1-.154.17l-1.264,1.264a2.313,2.313,0,0,1-3.271,0l-12.451-12.452,1.592-1.592L376.106,397.8a2.313,2.313,0,0,0,3.1.158Z" transform="translate(-339.856 -360.198)" fill="#f1cb86"/>
          <circle id="Ellipse_13667" data-name="Ellipse 13667" cx="16.853" cy="16.853" r="16.853" fill="#df75a5"/>
          <path id="Path_1001623" data-name="Path 1001623" d="M200.991,216.216q-.568.039-1.146.039a16.853,16.853,0,0,1,0-33.706q.578,0,1.146.039a16.853,16.853,0,0,0,0,33.628Z" transform="translate(-182.992 -182.549)" fill="#dd5790"/>
          <circle id="Ellipse_13668" data-name="Ellipse 13668" cx="12.394" cy="12.394" r="12.394" transform="translate(4.459 4.459)" fill="#f9f6f9"/>
          <path id="Path_1001624" data-name="Path 1001624" d="M218.947,230.9A12.4,12.4,0,0,1,231.341,218.5a12.254,12.254,0,0,1,1.391.078,12.394,12.394,0,0,0,0,24.631,12.266,12.266,0,0,1-1.391.078A12.393,12.393,0,0,1,218.947,230.9Z" transform="translate(-214.488 -214.043)" fill="#dddaec"/>
        </g>
      </g>
      <g id="Group_1187324" data-name="Group 1187324" transform="translate(0 0.428)">
        <path id="Path_1001625" data-name="Path 1001625" d="M62.543,57.014,54.7,49.166a17.746,17.746,0,0,0-1.6-20.8V8.92A8.5,8.5,0,0,0,44.609.428H8.492A8.5,8.5,0,0,0,0,8.92V34.432a8.5,8.5,0,0,0,8.492,8.492h7.994V46.1H15.039a3.962,3.962,0,1,0,0,7.924H28.8a17.745,17.745,0,0,0,20.049.994l7.846,7.846a3.242,3.242,0,0,0,4.587,0L62.543,61.6A3.246,3.246,0,0,0,62.543,57.014ZM1.86,34.432V8.92A6.64,6.64,0,0,1,8.492,2.288H44.608A6.64,6.64,0,0,1,51.24,8.92V26.481A17.878,17.878,0,0,0,48.9,24.746V8.92a4.293,4.293,0,0,0-4.288-4.288H17.4a.93.93,0,1,0,0,1.86H44.608A2.431,2.431,0,0,1,47.037,8.92V23.74a17.768,17.768,0,0,0-14.43-.247H10.163a.93.93,0,1,0,0,1.86H29.279a17.933,17.933,0,0,0-3.427,3.18H10.163a.93.93,0,1,0,0,1.86H24.5a17.67,17.67,0,0,0-2.485,6.468H8.492a2.431,2.431,0,0,1-2.428-2.428V8.92A2.431,2.431,0,0,1,8.492,6.492h5.195a.93.93,0,1,0,0-1.86H8.492A4.293,4.293,0,0,0,4.2,8.92V34.432A4.293,4.293,0,0,0,8.492,38.72H21.8c-.024.379-.038.76-.038,1.145,0,.4.015.8.041,1.2H8.492A6.64,6.64,0,0,1,1.86,34.432Zm16.486,8.492h3.681a17.627,17.627,0,0,0,.864,3.173H18.346ZM12.937,50.06a2.1,2.1,0,0,1,2.1-2.1h8.675a17.872,17.872,0,0,0,3,4.2H15.039A2.1,2.1,0,0,1,12.937,50.06Zm10.686-10.2A15.923,15.923,0,1,1,39.545,55.788,15.941,15.941,0,0,1,23.623,39.865ZM61.228,60.284l-1.264,1.264a1.382,1.382,0,0,1-1.956,0L50.4,53.94a17.933,17.933,0,0,0,3.219-3.219l7.608,7.608a1.384,1.384,0,0,1,0,1.955Z" transform="translate(0 -0.428)"/>
        <path id="Path_1001626" data-name="Path 1001626" d="M235.728,230.2a.93.93,0,0,0-1.284.284,11.416,11.416,0,1,1,1.389-3.128.93.93,0,1,0,1.794.492,13.334,13.334,0,1,0-1.615,3.636A.93.93,0,0,0,235.728,230.2Z" transform="translate(-185.228 -184.889)"/>
        <path id="Path_1001627" data-name="Path 1001627" d="M266.2,273.211a.93.93,0,0,0,.93-.93v-5.6h5.6a.93.93,0,1,0,0-1.86h-5.6v-5.6a.93.93,0,0,0-1.86,0v5.6h-5.6a.93.93,0,1,0,0,1.86h5.6v5.6A.93.93,0,0,0,266.2,273.211Z" transform="translate(-226.651 -226.314)"/>
        <path id="Path_1001628" data-name="Path 1001628" d="M74.45,106.079a.93.93,0,0,0,.93.93h32.775a.93.93,0,0,0,0-1.86H75.38A.93.93,0,0,0,74.45,106.079Z" transform="translate(-65.218 -92.163)"/>
        <path id="Path_1001629" data-name="Path 1001629" d="M108.155,145.785H75.38a.93.93,0,0,0,0,1.86h32.775a.93.93,0,0,0,0-1.86Z" transform="translate(-65.218 -127.759)"/>
      </g>
    </g>
  </g>
</svg>
