<svg xmlns="http://www.w3.org/2000/svg" width="100" height="100" viewBox="0 0 100 100">
  <g id="img26" transform="translate(-315.711 -8156)">
    <rect id="Rectangle_454449" data-name="Rectangle 454449" width="100" height="100" rx="10" transform="translate(315.711 8156)" fill="#a8b8ff"/>
    <g id="Group_1187315" data-name="Group 1187315" transform="translate(333.942 8174.251)">
      <g id="Group_1187313" data-name="Group 1187313" transform="translate(0.953 0.93)">
        <path id="Path_1001587" data-name="Path 1001587" d="M51.977,19.014V56.558a4.158,4.158,0,0,1-4.158,4.158H11.681a4.158,4.158,0,0,1-4.158-4.158v-44.9A4.158,4.158,0,0,1,11.681,7.5H40.462Z" transform="translate(-7.523 -7.5)" fill="#f9f6f9"/>
        <path id="Path_1001588" data-name="Path 1001588" d="M284.626,19.014H277.27a4.158,4.158,0,0,1-4.158-4.158V7.5" transform="translate(-240.173 -7.5)" fill="#dddaec"/>
        <g id="Group_1187312" data-name="Group 1187312" transform="translate(32.188 39.164)">
          <path id="Path_1001589" data-name="Path 1001589" d="M278.372,360.887h-8.329a2.991,2.991,0,0,0-2.991,2.991v6.405a2.992,2.992,0,0,0,2.991,2.991h8.329Z" transform="translate(-267.052 -356.222)" fill="#407093"/>
          <path id="Path_1001590" data-name="Path 1001590" d="M278.372,405.01v4.3h-8.329a2.992,2.992,0,0,1-2.991-2.991v-4.3a2.992,2.992,0,0,0,2.991,2.991Z" transform="translate(-267.052 -392.253)" fill="#365e7d"/>
          <path id="Path_1001591" data-name="Path 1001591" d="M339.477,323.276h-3.3a5.4,5.4,0,0,0-5.4,5.4v10.916a5.4,5.4,0,0,0,5.4,5.4h3.3Z" transform="translate(-322.868 -323.276)" fill="#df75a5"/>
          <path id="Path_1001592" data-name="Path 1001592" d="M339.468,400.83V408.2h-3.3a5.4,5.4,0,0,1-5.4-5.4V395.43a5.4,5.4,0,0,0,5.4,5.4Z" transform="translate(-322.86 -386.481)" fill="#dd5790"/>
        </g>
      </g>
      <g id="Group_1187314" data-name="Group 1187314" transform="translate(0.023 0)">
        <path id="Path_1001593" data-name="Path 1001593" d="M49.749,39.164H46.444l-.107,0V12.444a.93.93,0,0,0-.272-.658L34.551.272A.93.93,0,0,0,33.893,0H5.112A5.094,5.094,0,0,0,.023,5.089v44.9a5.094,5.094,0,0,0,5.089,5.089h27.21a3.928,3.928,0,0,0,3.811,3h4.2a6.323,6.323,0,0,0,1.354,2.517.93.93,0,0,0,1.4-1.229,4.468,4.468,0,0,1-1.114-2.954V45.495a4.475,4.475,0,0,1,4.47-4.47h2.375V60.881H46.444a4.573,4.573,0,0,1-.676-.051.93.93,0,0,0-.275,1.84,6.452,6.452,0,0,0,.951.071h3.305a.93.93,0,0,0,.93-.93V40.095a.93.93,0,0,0-.93-.93ZM34.823,3.176l8.339,8.339H38.051a3.232,3.232,0,0,1-3.228-3.228Zm5.291,53.041H36.132a2.064,2.064,0,0,1-2.061-2.061V47.75a2.064,2.064,0,0,1,2.061-2.061h3.981Zm.224-12.388H36.132a3.926,3.926,0,0,0-3.922,3.922v5.467H5.112a3.232,3.232,0,0,1-3.228-3.228V5.089A3.232,3.232,0,0,1,5.112,1.86H32.962V8.286a5.094,5.094,0,0,0,5.088,5.088h6.426v26.1A6.355,6.355,0,0,0,40.338,43.828Z" transform="translate(-0.023 0)"/>
        <path id="Path_1001594" data-name="Path 1001594" d="M431.689,338.081a.93.93,0,1,0-1.315,1.315,10.562,10.562,0,0,1,0,14.937.93.93,0,1,0,1.315,1.315A12.436,12.436,0,0,0,431.689,338.081Z" transform="translate(-376.761 -295.912)"/>
        <path id="Path_1001595" data-name="Path 1001595" d="M459.82,309.95a.93.93,0,0,0-1.315,1.315,15.514,15.514,0,0,1,0,21.915.93.93,0,1,0,1.315,1.315A17.376,17.376,0,0,0,459.82,309.95Z" transform="translate(-401.403 -271.27)"/>
        <path id="Path_1001596" data-name="Path 1001596" d="M107.843,103.627h17.94a.93.93,0,0,0,0-1.86h-17.94a.93.93,0,0,0,0,1.86Z" transform="translate(-93.656 -89.145)"/>
        <path id="Path_1001597" data-name="Path 1001597" d="M48.024,162.484H80.8a.93.93,0,1,0,0-1.86H48.024a.93.93,0,1,0,0,1.86Z" transform="translate(-41.256 -140.703)"/>
        <path id="Path_1001598" data-name="Path 1001598" d="M152.43,201.261H129.793a.93.93,0,1,0,0,1.86H152.43a.93.93,0,0,0,0-1.86Z" transform="translate(-112.884 -176.3)"/>
        <path id="Path_1001599" data-name="Path 1001599" d="M48.023,203.121h6.421a.93.93,0,1,0,0-1.86H48.023a.93.93,0,0,0,0,1.86Z" transform="translate(-41.255 -176.3)"/>
        <path id="Path_1001600" data-name="Path 1001600" d="M80.8,241.893H48.024a.93.93,0,1,0,0,1.86H80.8a.93.93,0,1,0,0-1.86Z" transform="translate(-41.256 -211.893)"/>
        <path id="Path_1001601" data-name="Path 1001601" d="M80.8,282.527H48.024a.93.93,0,0,0,0,1.86H80.8a.93.93,0,1,0,0-1.86Z" transform="translate(-41.256 -247.487)"/>
      </g>
    </g>
  </g>
</svg>
