<svg xmlns="http://www.w3.org/2000/svg" width="70" height="70" viewBox="0 0 70 70">
  <g id="img22" transform="translate(-764.711 -18335)">
    <circle id="Ellipse_13556" data-name="Ellipse 13556" cx="35" cy="35" r="35" transform="translate(764.711 18335)" fill="#e5eaff"/>
    <g id="Layer_2" data-name="Layer 2" transform="translate(781.055 18350.449)">
      <g id="Layer_1" data-name="Layer 1" transform="translate(0 -0.014)">
        <path id="schedule_of_classes" data-name="schedule of classes" d="M9.77,24.984h-5.6a.593.593,0,0,0-.6.6v4.731a.592.592,0,0,0,.6.6h5.6a.59.59,0,0,0,.588-.6V25.583a.592.592,0,0,0-.588-.6Zm-.59,4.749H4.759V26.18H9.18Zm7.4-4.15a.6.6,0,0,1-.59.6H13.788v3.553h1.767a.59.59,0,1,1,0,1.178H13.189a.59.59,0,0,1-.588-.6V25.583a.593.593,0,0,1,.588-.6H16a.592.592,0,0,1,.586.6ZM9.77,16.929h-5.6a.6.6,0,0,0-.6.6v4.749a.588.588,0,0,0,.6.58h5.6a.586.586,0,0,0,.588-.58V17.526a.6.6,0,0,0-.588-.6Zm-.59,4.749H4.759V18.125H9.18Zm4.009,1.178h5.6a.6.6,0,0,0,.6-.58V17.526a.612.612,0,0,0-.6-.6h-5.6a.6.6,0,0,0-.588.6v4.749a.586.586,0,0,0,.588.58Zm.6-4.731H18.2v3.553H13.788Zm7.843.316v-.915a.6.6,0,0,1,.59-.6h5.6a.6.6,0,0,1,.59.6.592.592,0,0,1-.59.6H22.81v.316a.59.59,0,0,1-1.179,0Zm-8.442-3.622h5.6a.6.6,0,0,0,.6-.6V9.473a.593.593,0,0,0-.6-.579h-5.6a.586.586,0,0,0-.588.579v4.749a.592.592,0,0,0,.588.6Zm.6-4.747H18.2v3.551H13.788Zm8.432,4.747h5.6a.592.592,0,0,0,.59-.6V9.473a.586.586,0,0,0-.59-.579h-5.6a.586.586,0,0,0-.59.579v4.749a.592.592,0,0,0,.59.6Zm.59-4.747h4.412v3.551H22.81ZM32,20.235V5.5a4.148,4.148,0,0,0-4.12-4.133V.609a.6.6,0,0,0-.6-.6.59.59,0,0,0-.588.6v.757H22.224V.609a.593.593,0,0,0-1.187,0v.757H16.573V.609a.59.59,0,1,0-1.178,0v.757H10.938V.609a.59.59,0,1,0-1.178,0v.757H5.3V.609A.6.6,0,0,0,4.7.012a.59.59,0,0,0-.59.6v.757A4.143,4.143,0,0,0,0,5.5V30.261A4.15,4.15,0,0,0,4.143,34.41H18.788A10.027,10.027,0,1,0,32,20.235ZM4.115,2.544V3.3a.586.586,0,0,0,.59.579A.6.6,0,0,0,5.3,3.3V2.544H9.768V3.3a.59.59,0,0,0,1.178,0V2.544H15.41V3.3a.59.59,0,0,0,1.178,0V2.544h4.465V3.3a.593.593,0,1,0,1.187,0V2.544H26.7V3.3a.584.584,0,0,0,.588.579.6.6,0,0,0,.6-.579V2.544a2.96,2.96,0,0,1,2.928,2.85H1.187a2.96,2.96,0,0,1,2.928-2.85Zm.028,30.67a2.976,2.976,0,0,1-2.965-2.952V6.571H30.8V19.708a10.2,10.2,0,0,0-3.534-.651,10.014,10.014,0,0,0-9.128,14.156Zm29.7.353.774.439A8.613,8.613,0,0,1,32.2,36.424l-.448-.774a.6.6,0,0,0-.809-.21.558.558,0,0,0-.21.791l.439.774a8.71,8.71,0,0,1-3.3.9V37a.6.6,0,0,0-.6-.58.586.586,0,0,0-.588.58v.9a8.743,8.743,0,0,1-3.308-.9l.448-.774a.579.579,0,0,0-.22-.791.6.6,0,0,0-.809.21l-.448.774a8.7,8.7,0,0,1-2.418-2.418l.772-.439a.6.6,0,0,0,.22-.811.584.584,0,0,0-.809-.21l-.774.439a8.846,8.846,0,0,1-.878-3.3h.882a.59.59,0,1,0,0-1.179h-.88a8.968,8.968,0,0,1,.878-3.308l.774.441a.575.575,0,0,0,.809-.212.6.6,0,0,0-.22-.807l-.772-.439a8.678,8.678,0,0,1,2.418-2.418l.448.774a.6.6,0,0,0,.519.3.625.625,0,0,0,.29-.089.6.6,0,0,0,.22-.809l-.448-.755a8.743,8.743,0,0,1,3.308-.9v.9a.586.586,0,0,0,.588.58.6.6,0,0,0,.6-.58v-.9a8.71,8.71,0,0,1,3.3.9l-.439.755a.584.584,0,0,0,.21.809.634.634,0,0,0,.3.089.586.586,0,0,0,.51-.3l.448-.774a8.589,8.589,0,0,1,2.418,2.418l-.774.439a.586.586,0,0,0-.21.807.577.577,0,0,0,.51.3.558.558,0,0,0,.288-.087l.776-.441A8.836,8.836,0,0,1,36.1,28.5h-.887a.59.59,0,1,0,0,1.179h.878a8.715,8.715,0,0,1-.887,3.3l-.776-.439a.569.569,0,0,0-.8.21.59.59,0,0,0,.218.811Zm-5.97-9.074V29.1a.586.586,0,0,1-.3.51.651.651,0,0,1-.6,0L23,27.305a.6.6,0,0,1-.22-.809.582.582,0,0,1,.809-.21l3.1,1.777v-3.57a.588.588,0,0,1,.588-.582.6.6,0,0,1,.6.582Z" transform="translate(0 0.014)" fill="#2142dc"/>
      </g>
    </g>
  </g>
</svg>
