<svg xmlns="http://www.w3.org/2000/svg" width="100" height="100" viewBox="0 0 100 100">
  <g id="img27" transform="translate(-315.711 -8156)">
    <rect id="Rectangle_454449" data-name="Rectangle 454449" width="100" height="100" rx="10" transform="translate(315.711 8156)" fill="#a8b8ff"/>
    <g id="Group_1187321" data-name="Group 1187321" transform="translate(323.056 8174.455)">
      <g id="Group_1187319" data-name="Group 1187319" transform="translate(13.595 0.924)">
        <path id="Path_1001602" data-name="Path 1001602" d="M71.462,38.121q0-.476-.02-.948a4.1,4.1,0,0,1,2.039-3.733l2.757-1.592a4.088,4.088,0,0,0,1.5-5.584l-3.988-6.907a4.088,4.088,0,0,0-5.584-1.5l-2.756,1.591a4.1,4.1,0,0,1-4.258-.1q-.8-.508-1.642-.95a4.1,4.1,0,0,1-2.209-3.63v-3.18A4.088,4.088,0,0,0,53.21,7.5H45.234a4.088,4.088,0,0,0-4.088,4.088v3.181a4.1,4.1,0,0,1-2.209,3.63q-.843.44-1.642.95a4.1,4.1,0,0,1-4.258.1l-2.756-1.591a4.088,4.088,0,0,0-5.584,1.5L20.71,26.264a4.088,4.088,0,0,0,1.5,5.584l2.757,1.592A4.1,4.1,0,0,1,27,37.173q-.02.472-.02.948t.02.948A4.1,4.1,0,0,1,24.963,42.8l-2.757,1.592a4.088,4.088,0,0,0-1.5,5.584L24.7,56.885a4.088,4.088,0,0,0,5.584,1.5l2.756-1.591a4.1,4.1,0,0,1,4.258.1q.8.508,1.642.95a4.1,4.1,0,0,1,2.209,3.63v3.181a4.088,4.088,0,0,0,4.088,4.088H53.21A4.088,4.088,0,0,0,57.3,64.654V61.473a4.1,4.1,0,0,1,2.209-3.63q.843-.44,1.642-.95a4.1,4.1,0,0,1,4.258-.1l2.756,1.591a4.088,4.088,0,0,0,5.584-1.5l3.988-6.907a4.088,4.088,0,0,0-1.5-5.584L73.481,42.8a4.1,4.1,0,0,1-2.039-3.733Q71.462,38.6,71.462,38.121Z" transform="translate(-20.161 -7.5)" fill="#f9f6f9"/>
        <g id="Group_1187316" data-name="Group 1187316" transform="translate(0)">
          <path id="Path_1001603" data-name="Path 1001603" d="M157.426,19.347q.8-.508,1.642-.95a4.1,4.1,0,0,0,2.209-3.63v-3.18A4.088,4.088,0,0,1,165.365,7.5H162.29a4.088,4.088,0,0,0-4.088,4.088v3.181a4.1,4.1,0,0,1-2.209,3.63q-.843.44-1.642.95a4.147,4.147,0,0,1-.684.349A4.111,4.111,0,0,0,157.426,19.347Z" transform="translate(-137.217 -7.5)" fill="#dddaec"/>
          <path id="Path_1001604" data-name="Path 1001604" d="M27.774,126.711,23.787,119.8a4.088,4.088,0,0,1,1.5-5.584l2.757-1.592a4.1,4.1,0,0,0,2.038-3.733q-.02-.472-.02-.948t.02-.948a4.1,4.1,0,0,0-2.038-3.733l-2.757-1.592a4.088,4.088,0,0,1-1.5-5.584l3.988-6.907a4.068,4.068,0,0,1,2-1.743A4.088,4.088,0,0,0,24.7,89.183L20.712,96.09a4.088,4.088,0,0,0,1.5,5.584l2.757,1.592A4.1,4.1,0,0,1,27,107q-.02.472-.02.948t.02.948a4.1,4.1,0,0,1-2.039,3.733l-2.757,1.592a4.088,4.088,0,0,0-1.5,5.584l3.988,6.907a4.088,4.088,0,0,0,5.078,1.743A4.068,4.068,0,0,1,27.774,126.711Z" transform="translate(-20.163 -77.326)" fill="#dddaec"/>
          <path id="Path_1001605" data-name="Path 1001605" d="M161.277,411.492v-3.181a4.1,4.1,0,0,0-2.209-3.63q-.843-.44-1.642-.95a4.111,4.111,0,0,0-3.758-.349,4.172,4.172,0,0,1,.684.349q.8.509,1.642.95a4.1,4.1,0,0,1,2.209,3.63v3.181a4.088,4.088,0,0,0,4.088,4.088h3.075A4.088,4.088,0,0,1,161.277,411.492Z" transform="translate(-137.217 -354.338)" fill="#dddaec"/>
        </g>
        <g id="Group_1187318" data-name="Group 1187318" transform="translate(12.045 13.606)">
          <circle id="Ellipse_13665" data-name="Ellipse 13665" cx="17.015" cy="17.015" r="17.015" fill="#bed8fb"/>
          <path id="Path_1001606" data-name="Path 1001606" d="M189.679,232.457a8.533,8.533,0,1,0,10,13.216l-1.325-6.205-4.3-.246Z" transform="translate(-176.314 -218.343)" fill="#f9f6f9"/>
          <path id="Path_1001607" data-name="Path 1001607" d="M236.429,225.081a1.848,1.848,0,0,1-1.6-.926l-2.581-4.483H228.27a1.848,1.848,0,0,1-1.8-1.439l-1.842-8.11a1.848,1.848,0,1,1,3.6-.819l1.516,6.672h3.568a1.848,1.848,0,0,1,1.6.926l3.114,5.409a1.848,1.848,0,0,1-1.6,2.771Z" transform="translate(-211.435 -196.781)" fill="#407093"/>
          <g id="Group_1187317" data-name="Group 1187317" transform="translate(13.143 11.084)">
            <path id="Path_1001608" data-name="Path 1001608" d="M227.915,218.236l-1.842-8.11a1.847,1.847,0,0,1,1.078-2.108,1.846,1.846,0,0,0-2.526,2.108l1.842,8.11a1.848,1.848,0,0,0,1.8,1.439h1.448a1.848,1.848,0,0,1-1.8-1.439Z" transform="translate(-224.578 -207.868)" fill="#365e7d"/>
            <path id="Path_1001609" data-name="Path 1001609" d="M290.818,308.169l-2.581-4.483h-1.448l2.581,4.483a1.845,1.845,0,0,0,2.326.778A1.839,1.839,0,0,1,290.818,308.169Z" transform="translate(-279.123 -291.879)" fill="#365e7d"/>
          </g>
          <circle id="Ellipse_13666" data-name="Ellipse 13666" cx="2.827" cy="2.827" r="2.827" transform="translate(12.311 2.958)" fill="#407093"/>
          <path id="Path_1001610" data-name="Path 1001610" d="M221.511,147.434a2.827,2.827,0,1,1,0-5.389,2.829,2.829,0,0,0,0,5.389Z" transform="translate(-205.512 -138.955)" fill="#365e7d"/>
        </g>
      </g>
      <g id="Group_1187320" data-name="Group 1187320" transform="translate(12.672 0)">
        <path id="Path_1001611" data-name="Path 1001611" d="M70.134,37.018l-2.757-1.592A3.173,3.173,0,0,1,65.8,32.533c.015-.335.022-.667.022-.988s-.007-.652-.022-.986a3.174,3.174,0,0,1,1.578-2.895l2.758-1.592a5.017,5.017,0,0,0,1.834-6.845l-1.384-2.4a.924.924,0,1,0-1.6.924l1.384,2.4a3.167,3.167,0,0,1-1.158,4.321l-2.758,1.592a5.017,5.017,0,0,0-2.5,4.574c.013.309.02.614.02.908s-.007.6-.02.909a5.017,5.017,0,0,0,2.5,4.573l2.758,1.592a3.167,3.167,0,0,1,1.158,4.321L66.38,49.847A3.168,3.168,0,0,1,62.058,51L59.3,49.413a5.018,5.018,0,0,0-5.216.127c-.5.322-1.033.628-1.573.91A5.01,5.01,0,0,0,49.806,54.9v3.18a3.167,3.167,0,0,1-3.163,3.163H38.668A3.167,3.167,0,0,1,35.5,58.078V54.9A5.01,5.01,0,0,0,32.8,50.449c-.54-.282-1.069-.588-1.574-.91a5.017,5.017,0,0,0-5.216-.125L23.253,51a3.168,3.168,0,0,1-4.322-1.158l-3.988-6.908A3.167,3.167,0,0,1,16.1,38.618l2.758-1.592a5.017,5.017,0,0,0,2.5-4.574c-.013-.309-.02-.614-.02-.908s.007-.6.02-.909a5.017,5.017,0,0,0-2.5-4.573L16.1,24.471a3.167,3.167,0,0,1-1.158-4.321l3.987-6.908a3.168,3.168,0,0,1,4.322-1.158l2.757,1.592a5.017,5.017,0,0,0,5.216-.127c.5-.322,1.033-.628,1.573-.91A5.01,5.01,0,0,0,35.5,8.192V5.011a3.167,3.167,0,0,1,3.163-3.163h7.975a3.167,3.167,0,0,1,3.163,3.163v3.18a5.01,5.01,0,0,0,2.706,4.449c.54.282,1.069.588,1.574.91a5.017,5.017,0,0,0,5.216.125l2.756-1.592a3.168,3.168,0,0,1,4.322,1.158l.755,1.309a.924.924,0,0,0,1.6-.924l-.755-1.309a5.018,5.018,0,0,0-6.847-1.834l-2.756,1.592a3.173,3.173,0,0,1-3.3-.083c-.549-.351-1.125-.684-1.712-.99a3.167,3.167,0,0,1-1.713-2.811V5.011A5.017,5.017,0,0,0,46.643,0H38.668a5.017,5.017,0,0,0-5.011,5.011v3.18A3.167,3.167,0,0,1,31.944,11c-.587.306-1.163.64-1.711.99a3.174,3.174,0,0,1-3.3.084l-2.757-1.592a5.018,5.018,0,0,0-6.847,1.834l-3.987,6.908a5.017,5.017,0,0,0,1.834,6.846l2.757,1.592a3.173,3.173,0,0,1,1.578,2.894c-.015.335-.022.667-.022.988s.007.652.022.986a3.174,3.174,0,0,1-1.578,2.895l-2.758,1.592a5.017,5.017,0,0,0-1.834,6.846l3.988,6.908a5.019,5.019,0,0,0,6.847,1.834l2.756-1.592a3.173,3.173,0,0,1,3.3.083c.549.351,1.125.684,1.712.99A3.167,3.167,0,0,1,33.656,54.9v3.18a5.017,5.017,0,0,0,5.011,5.011h7.975a5.017,5.017,0,0,0,5.011-5.011V54.9a3.167,3.167,0,0,1,1.713-2.811c.587-.306,1.163-.64,1.711-.99a3.174,3.174,0,0,1,3.3-.084l2.757,1.592a5.016,5.016,0,0,0,6.847-1.834l3.987-6.908a5.017,5.017,0,0,0-1.834-6.846Z" transform="translate(-12.672 0)"/>
        <path id="Path_1001612" data-name="Path 1001612" d="M113.577,134.738a.924.924,0,1,0-1.7.734,17.857,17.857,0,1,0-1.146-3.707.924.924,0,0,0,1.815-.35,16.091,16.091,0,1,1,1.027,3.322Z" transform="translate(-98.366 -96.805)"/>
        <path id="Path_1001613" data-name="Path 1001613" d="M177.021,212.157a9.456,9.456,0,0,0,16.086,6.744,2.771,2.771,0,0,0,4.025-3.628l-3.114-5.409a2.78,2.78,0,0,0-2.4-1.389h-2.83l-1.352-5.952a2.772,2.772,0,1,0-5.407,1.228l.013.055A9.45,9.45,0,0,0,177.021,212.157Zm6.927-9.512a.918.918,0,0,1,.577-.409.924.924,0,0,1,1.106.7l1.516,6.672a.924.924,0,0,0,.9.719h3.568a.927.927,0,0,1,.8.463l3.114,5.409a.925.925,0,0,1-.8,1.386.928.928,0,0,1-.8-.463l-2.581-4.483a.924.924,0,0,0-.8-.463h-3.975a.919.919,0,0,1-.9-.719l-1.842-8.11A.918.918,0,0,1,183.948,202.645Zm-1.481,3.046,1.4,6.171a2.758,2.758,0,0,0,2.7,2.159h3.44l1.957,3.4a7.607,7.607,0,1,1-9.5-11.728Z" transform="translate(-156.769 -175.675)"/>
        <path id="Path_1001614" data-name="Path 1001614" d="M214.075,141.92a3.752,3.752,0,1,0-3.752-3.752A3.756,3.756,0,0,0,214.075,141.92Zm0-5.655a1.9,1.9,0,1,1-1.9,1.9A1.905,1.905,0,0,1,214.075,136.265Z" transform="translate(-185.968 -117.854)"/>
      </g>
    </g>
  </g>
</svg>
