<svg xmlns="http://www.w3.org/2000/svg" width="100" height="100" viewBox="0 0 100 100">
  <g id="img25" transform="translate(-315.711 -8156)">
    <rect id="Rectangle_454449" data-name="Rectangle 454449" width="100" height="100" rx="10" transform="translate(315.711 8156)" fill="#a8b8ff"/>
    <g id="Group_1187311" data-name="Group 1187311" transform="translate(324.699 8171.752)">
      <g id="Group_1187309" data-name="Group 1187309" transform="translate(8.812 1.003)">
        <path id="Path_1001570" data-name="Path 1001570" d="M51.73,65.225H21.89a6.583,6.583,0,0,1-6.583-6.583V14.084A6.583,6.583,0,0,1,21.89,7.5H51.73a6.583,6.583,0,0,1,6.583,6.583V58.642a6.583,6.583,0,0,1-6.583,6.583Z" transform="translate(-15.307 -7.501)" fill="#407093"/>
        <path id="Path_1001571" data-name="Path 1001571" d="M24.381,65.225H21.89a6.584,6.584,0,0,1-6.583-6.583V14.083A6.583,6.583,0,0,1,21.89,7.5h2.491A6.584,6.584,0,0,0,17.8,14.083V58.641A6.585,6.585,0,0,0,24.381,65.225Z" transform="translate(-15.307 -7.5)" fill="#365e7d"/>
        <path id="Path_1001572" data-name="Path 1001572" d="M80.283,40.071V84.629a2.573,2.573,0,0,1-2.57,2.57H47.872a2.573,2.573,0,0,1-2.57-2.57V40.071a2.573,2.573,0,0,1,2.57-2.57h5.676v.4a3.636,3.636,0,0,0,3.635,3.636H68.4A3.635,3.635,0,0,0,72.037,37.9v-.4h5.676A2.573,2.573,0,0,1,80.283,40.071Z" transform="translate(-41.289 -33.487)" fill="#f9f6f9"/>
        <g id="Group_1187308" data-name="Group 1187308" transform="translate(32.629 42.246)">
          <path id="Path_1001573" data-name="Path 1001573" d="M271.421,360.9h-8.984a3.227,3.227,0,0,0-3.227,3.227v6.909a3.227,3.227,0,0,0,3.227,3.227h8.984Z" transform="translate(-259.21 -355.869)" fill="#bed8fb"/>
          <path id="Path_1001574" data-name="Path 1001574" d="M271.421,405.261v4.633h-8.984a3.228,3.228,0,0,1-3.227-3.227v-4.633a3.228,3.228,0,0,0,3.227,3.227Z" transform="translate(-259.21 -391.499)" fill="#9dc6fb"/>
          <path id="Path_1001575" data-name="Path 1001575" d="M332.323,323.288h-3.565a5.826,5.826,0,0,0-5.826,5.826v11.775a5.826,5.826,0,0,0,5.826,5.826h3.565Z" transform="translate(-314.407 -323.288)" fill="#df75a5"/>
          <path id="Path_1001576" data-name="Path 1001576" d="M332.313,401.269v7.949h-3.565a5.825,5.825,0,0,1-5.827-5.825v-7.948a5.826,5.826,0,0,0,5.827,5.825Z" transform="translate(-314.399 -385.791)" fill="#dd5790"/>
        </g>
      </g>
      <g id="Group_1187310" data-name="Group 1187310" transform="translate(7.809 0)">
        <path id="Path_1001577" data-name="Path 1001577" d="M59.357,42.246H55.792a6.79,6.79,0,0,0-2.97.68V7.587A7.6,7.6,0,0,0,45.235,0H15.4A7.6,7.6,0,0,0,7.809,7.587V52.145A7.6,7.6,0,0,0,15.4,59.731H40.648a4.237,4.237,0,0,0,4.02,2.916H49.2a6.84,6.84,0,0,0,6.588,5.032h3.565a1,1,0,0,0,1-1V63.907a1,1,0,0,0-2.007,0v1.766H55.792a4.827,4.827,0,0,1-4.823-4.806V49.059a4.827,4.827,0,0,1,4.823-4.806h2.562v15.64a1,1,0,0,0,2.007,0V43.25A1,1,0,0,0,59.357,42.246Zm-49.541,9.9V7.587a5.586,5.586,0,0,1,5.58-5.58h29.84a5.586,5.586,0,0,1,5.58,5.58V44.405A6.825,6.825,0,0,0,49.2,47.278h-.4V7.587a3.577,3.577,0,0,0-3.573-3.573H39.559a1,1,0,0,0-1,1v.4a2.635,2.635,0,0,1-2.631,2.633H24.706a2.635,2.635,0,0,1-2.631-2.633v-.4a1,1,0,0,0-1-1H15.394a3.577,3.577,0,0,0-3.573,3.573v3.058a1,1,0,0,0,2.007,0V7.587A1.568,1.568,0,0,1,15.394,6.02h4.713a4.646,4.646,0,0,0,4.6,4.032H35.924a4.646,4.646,0,0,0,4.6-4.032h4.713A1.568,1.568,0,0,1,46.8,7.587V47.278H44.668a4.235,4.235,0,0,0-4.23,4.23v2.2H15.394a1.568,1.568,0,0,1-1.567-1.567V14.658a1,1,0,0,0-2.007,0V52.145a3.577,3.577,0,0,0,3.573,3.573H40.438v2.007H15.4a5.586,5.586,0,0,1-5.58-5.58Zm32.629,6.273V51.508a2.226,2.226,0,0,1,2.224-2.224h4.294V60.641H44.668A2.226,2.226,0,0,1,42.445,58.417Z" transform="translate(-7.809 0)"/>
        <path id="Path_1001578" data-name="Path 1001578" d="M423.978,338.115a1,1,0,0,0-1.419,1.419,11.393,11.393,0,0,1,0,16.113,1,1,0,0,0,1.419,1.419,13.4,13.4,0,0,0,0-18.95Z" transform="translate(-366.819 -292.628)"/>
        <path id="Path_1001579" data-name="Path 1001579" d="M452.11,309.983a1,1,0,1,0-1.419,1.419,16.715,16.715,0,0,1,0,23.639,1,1,0,0,0,1.419,1.419,18.722,18.722,0,0,0,0-26.477Z" transform="translate(-391.188 -268.259)"/>
        <path id="Path_1001580" data-name="Path 1001580" d="M133.63,32.008h9.609a1,1,0,0,0,0-2.007H133.63a1,1,0,0,0,0,2.007Z" transform="translate(-115.929 -25.987)"/>
        <path id="Path_1001581" data-name="Path 1001581" d="M97.968,128.986h21.883a1,1,0,1,0,0-2.007H97.968a1,1,0,0,0,0,2.007Z" transform="translate(-85.038 -109.992)"/>
        <path id="Path_1001582" data-name="Path 1001582" d="M77.548,169.621h24.615a1,1,0,1,0,0-2.007H77.548a1,1,0,1,0,0,2.007Z" transform="translate(-67.35 -145.191)"/>
        <path id="Path_1001583" data-name="Path 1001583" d="M77.548,210.257h24.615a1,1,0,1,0,0-2.007H77.548a1,1,0,1,0,0,2.007Z" transform="translate(-67.35 -180.39)"/>
        <path id="Path_1001584" data-name="Path 1001584" d="M77.548,250.893h24.615a1,1,0,1,0,0-2.007H77.548a1,1,0,1,0,0,2.007Z" transform="translate(-67.35 -215.59)"/>
        <path id="Path_1001585" data-name="Path 1001585" d="M77.548,291.529h24.615a1,1,0,1,0,0-2.007H77.548a1,1,0,1,0,0,2.007Z" transform="translate(-67.35 -250.79)"/>
        <path id="Path_1001586" data-name="Path 1001586" d="M77.548,332.165h7.8a1,1,0,1,0,0-2.007h-7.8a1,1,0,1,0,0,2.007Z" transform="translate(-67.35 -285.99)"/>
      </g>
    </g>
  </g>
</svg>
