<svg xmlns="http://www.w3.org/2000/svg" width="70" height="70" viewBox="0 0 70 70">
  <g id="img21" transform="translate(-764.711 -18335)">
    <circle id="Ellipse_13556" data-name="Ellipse 13556" cx="35" cy="35" r="35" transform="translate(764.711 18335)" fill="#e5eaff"/>
    <g id="Group_1187173" data-name="Group 1187173" transform="translate(777.946 18346.316)">
      <path id="Path_1001395" data-name="Path 1001395" d="M29.166,28H4.68a.68.68,0,0,0-.68.68V45c0,.01.005.019.006.029a.652.652,0,0,0,.044.22.182.182,0,0,0,0,.018h0a.658.658,0,0,0,.13.192.535.535,0,0,0,.051.045.669.669,0,0,0,.142.1.7.7,0,0,0,.065.031.68.68,0,0,0,.237.05H29.166a.675.675,0,0,0,.255-.052.692.692,0,0,0,.1-.068.7.7,0,0,0,.107-.068l.006-.009a.706.706,0,0,0,.095-.136.729.729,0,0,0,.056-.084.592.592,0,0,0,.019-.085.68.68,0,0,0,.037-.168V28.68A.68.68,0,0,0,29.166,28Zm-.68,1.36V43.288l-6.164-6.553a1.836,1.836,0,0,0-2.636,0l-1.4,1.494L15.659,35.44a2.032,2.032,0,0,0-2.915,0L5.36,43.289V29.36ZM24.018,44.324l-4.8-5.1,1.458-1.552a.446.446,0,0,1,.655,0l6.261,6.653Zm-17.765,0,7.482-7.952a.639.639,0,0,1,.933,0l3.148,3.346h0l4.335,4.607Z" transform="translate(-1.279 -7.036)" fill="#2142dc"/>
      <path id="Path_1001396" data-name="Path 1001396" d="M41.49,6H14.283a2.04,2.04,0,0,0-2.04,2.04v4.081H8.162a2.04,2.04,0,0,0-2.04,2.04v4.081H2.04A2.04,2.04,0,0,0,0,20.283V39.328a2.04,2.04,0,0,0,2.04,2.04H29.247a2.04,2.04,0,0,0,2.04-2.04V35.247h4.081a2.04,2.04,0,0,0,2.04-2.04V29.125H41.49a2.04,2.04,0,0,0,2.04-2.04V8.04A2.04,2.04,0,0,0,41.49,6ZM29.927,39.328a.68.68,0,0,1-.68.68H2.04a.68.68,0,0,1-.68-.68V20.283a.68.68,0,0,1,.68-.68H29.247a.68.68,0,0,1,.68.68Zm-.68-21.085H10.2V16.2H33.328V31.166h-2.04V20.283A2.04,2.04,0,0,0,29.247,18.243Zm6.8,14.964a.68.68,0,0,1-.68.68H31.287v-1.36h2.721a.68.68,0,0,0,.68-.68V15.522a.68.68,0,0,0-.68-.68H9.522a.68.68,0,0,0-.68.68v2.721H7.482V14.162a.68.68,0,0,1,.68-.68H35.368a.68.68,0,0,1,.68.68Zm-.68-21.085H16.324v-2.04H39.449V25.044h-2.04V14.162A2.04,2.04,0,0,0,35.368,12.121Zm6.8,14.964a.68.68,0,0,1-.68.68H37.409V26.4h2.721a.68.68,0,0,0,.68-.68V9.4a.68.68,0,0,0-.68-.68H15.644a.68.68,0,0,0-.68.68v2.721H13.6V8.04a.68.68,0,0,1,.68-.68H41.49a.68.68,0,0,1,.68.68Z" fill="#2142dc"/>
      <path id="Path_1001397" data-name="Path 1001397" d="M10.381,36.761A2.381,2.381,0,1,0,8,34.381,2.381,2.381,0,0,0,10.381,36.761Zm0-3.4a1.02,1.02,0,1,1-1.02,1.02A1.02,1.02,0,0,1,10.381,33.36Z" transform="translate(-2.559 -8.316)" fill="#2142dc"/>
    </g>
  </g>
</svg>
