<svg xmlns="http://www.w3.org/2000/svg" xmlns:xlink="http://www.w3.org/1999/xlink" width="400" height="670" viewBox="0 0 400 670">
  <defs>
    <clipPath id="clip-path">
      <rect id="Rectangle_455341" data-name="Rectangle 455341" width="397.242" height="269.585" fill="none"/>
    </clipPath>
    <clipPath id="clip-path-2">
      <rect id="Rectangle_455338" data-name="Rectangle 455338" width="397.242" height="276.647" fill="none"/>
    </clipPath>
    <clipPath id="clip-path-3">
      <path id="Path_1001737" data-name="Path 1001737" d="M85.916,1021.655c-1.6,5.594-1.2,26.771-1.2,26.771h88.1s-1.2-13.785-1.8-21.577-3.713-19.579-3.713-19.579l-75.8-1.2s-4,9.989-5.594,15.583" transform="translate(-84.673 -1006.072)" fill="none"/>
    </clipPath>
    <clipPath id="clip-path-4">
      <rect id="Rectangle_455339" data-name="Rectangle 455339" width="110.676" height="54.22" fill="none"/>
    </clipPath>
  </defs>
  <g id="img32_1" transform="translate(5889 1318)">
    <rect id="Rectangle_455444" data-name="Rectangle 455444" width="400" height="670" transform="translate(-5889 -1318)" fill="none"/>
    <path id="Union_24" data-name="Union 24" d="M13,0H87.76a13,13,0,0,1,13,13V319.269a13,13,0,0,1-13,13H13a13,13,0,0,1-13-13V13A13,13,0,0,1,13,0Z" transform="translate(-5520.731 -1243.823) rotate(90)" fill="#d6e4c6"/>
    <path id="Union_43" data-name="Union 43" d="M-45,440.762a13,13,0,0,1-13-13V227a13,13,0,0,1,13-13H57.115a13,13,0,0,1,13,13v24.726l72.72,51.139L70.115,277.3V427.762a13,13,0,0,1-13,13Z" transform="translate(-5301.238 -1048.577) rotate(90)" fill="#fbc7be"/>
    <path id="Path_1006985" data-name="Path 1006985" d="M4.881,12.355A4.867,4.867,0,0,1,4.7,13.762a3.144,3.144,0,0,1-.569,1.017q-.4.49-1.162,1.291a2.841,2.841,0,0,0-.855,1.623L2.1,18a1.862,1.862,0,0,0,.481,1.382,1.886,1.886,0,0,0,1.386.477,1.934,1.934,0,0,0,1.349-.469,1.573,1.573,0,0,0,.519-1.224H7.371a2.864,2.864,0,0,1-.95,2.183,3.511,3.511,0,0,1-2.453.847,3.534,3.534,0,0,1-2.515-.834,3.028,3.028,0,0,1-.888-2.32,4.331,4.331,0,0,1,1.328-2.889l.9-.938a2.8,2.8,0,0,0,.548-1.859Zm.066-2.627a.924.924,0,0,1-.228.634.855.855,0,0,1-.677.259.868.868,0,0,1-.681-.259.914.914,0,0,1-.232-.634.873.873,0,0,1,.232-.617.884.884,0,0,1,.681-.25.87.87,0,0,1,.677.25A.882.882,0,0,1,4.947,9.728Zm6.093,3.54V18H9.446V5.914H13.9a4.478,4.478,0,0,1,3.109,1.013,3.433,3.433,0,0,1,1.125,2.681,3.388,3.388,0,0,1-1.1,2.71,4.678,4.678,0,0,1-3.15.95Zm0-1.3H13.9a2.863,2.863,0,0,0,1.959-.6,2.2,2.2,0,0,0,.681-1.742,2.277,2.277,0,0,0-.681-1.73A2.682,2.682,0,0,0,14,7.217H11.04Zm8.375,1.461a5.3,5.3,0,0,1,.519-2.374,3.87,3.87,0,0,1,1.444-1.627,3.932,3.932,0,0,1,2.113-.573,3.788,3.788,0,0,1,2.968,1.27A4.886,4.886,0,0,1,27.592,13.5v.108a5.351,5.351,0,0,1-.5,2.353,3.813,3.813,0,0,1-1.436,1.623,3.977,3.977,0,0,1-2.146.581,3.778,3.778,0,0,1-2.959-1.27,4.861,4.861,0,0,1-1.133-3.362Zm1.544.183a3.842,3.842,0,0,0,.693,2.4A2.349,2.349,0,0,0,25.367,16a4.2,4.2,0,0,0,.689-2.569,3.836,3.836,0,0,0-.7-2.395,2.23,2.23,0,0,0-1.864-.917,2.205,2.205,0,0,0-1.834.9A4.17,4.17,0,0,0,20.959,13.609Zm8.185-.174a5.261,5.261,0,0,1,.979-3.324,3.333,3.333,0,0,1,5.063-.178V5.25h1.536V18H35.312l-.075-.963a3.127,3.127,0,0,1-2.565,1.129,3.068,3.068,0,0,1-2.544-1.278,5.321,5.321,0,0,1-.984-3.337Zm1.536.174A3.984,3.984,0,0,0,31.311,16a2.039,2.039,0,0,0,1.743.863,2.24,2.24,0,0,0,2.133-1.312V11.426a2.257,2.257,0,0,0-2.117-1.27,2.049,2.049,0,0,0-1.76.872A4.386,4.386,0,0,0,30.68,13.609ZM43.446,10.4a4.6,4.6,0,0,0-.755-.058,2.024,2.024,0,0,0-2.05,1.287V18H39.1V9.019H40.6l.025,1.038a2.391,2.391,0,0,1,2.142-1.2,1.569,1.569,0,0,1,.681.116Zm3.08,7.6H44.982V9.019h1.544Zm.017-12.742H48.4L46.177,7.7l-1.237,0ZM54.6,18a3.226,3.226,0,0,1-.216-.946,3.426,3.426,0,0,1-2.557,1.112,3.17,3.17,0,0,1-2.179-.751A2.43,2.43,0,0,1,48.8,15.51a2.539,2.539,0,0,1,1.067-2.179,5.029,5.029,0,0,1,3-.776h1.494v-.706a1.725,1.725,0,0,0-.481-1.282,1.935,1.935,0,0,0-1.419-.477,2.239,2.239,0,0,0-1.378.415,1.223,1.223,0,0,0-.556,1H48.983a2.119,2.119,0,0,1,.477-1.3,3.258,3.258,0,0,1,1.295-.992,4.356,4.356,0,0,1,1.8-.365,3.551,3.551,0,0,1,2.432.776,2.8,2.8,0,0,1,.913,2.137V15.9a5.054,5.054,0,0,0,.315,1.967V18Zm-2.548-1.17a2.7,2.7,0,0,0,1.37-.374,2.259,2.259,0,0,0,.938-.971V13.642h-1.2q-2.822,0-2.822,1.652a1.4,1.4,0,0,0,.481,1.129A1.85,1.85,0,0,0,52.054,16.83Zm11.48-1.212a1.13,1.13,0,0,0-.469-.967,4.514,4.514,0,0,0-1.635-.594,7.731,7.731,0,0,1-1.851-.6,2.633,2.633,0,0,1-1.013-.83,1.986,1.986,0,0,1-.328-1.146,2.33,2.33,0,0,1,.934-1.868,3.647,3.647,0,0,1,2.386-.764,3.753,3.753,0,0,1,2.478.789,2.5,2.5,0,0,1,.95,2.017H63.443a1.386,1.386,0,0,0-.535-1.087,2.006,2.006,0,0,0-1.349-.457,2.1,2.1,0,0,0-1.312.365,1.15,1.15,0,0,0-.473.955.932.932,0,0,0,.44.838,5.413,5.413,0,0,0,1.59.54,8.283,8.283,0,0,1,1.864.614,2.718,2.718,0,0,1,1.058.859,2.112,2.112,0,0,1,.344,1.224,2.3,2.3,0,0,1-.963,1.93,4.039,4.039,0,0,1-2.5.726,4.523,4.523,0,0,1-1.909-.382,3.105,3.105,0,0,1-1.3-1.067,2.571,2.571,0,0,1-.469-1.482h1.536a1.59,1.59,0,0,0,.618,1.224,2.4,2.4,0,0,0,1.523.452,2.476,2.476,0,0,0,1.4-.353A1.084,1.084,0,0,0,63.534,15.618ZM75.62,10.4a4.6,4.6,0,0,0-.755-.058,2.024,2.024,0,0,0-2.05,1.287V18H71.279V9.019h1.494l.025,1.038a2.391,2.391,0,0,1,2.142-1.2,1.569,1.569,0,0,1,.681.116Zm5.138,7.77a3.924,3.924,0,0,1-2.972-1.2,4.452,4.452,0,0,1-1.146-3.208v-.282a5.39,5.39,0,0,1,.51-2.386,3.982,3.982,0,0,1,1.428-1.644,3.59,3.59,0,0,1,1.988-.594,3.364,3.364,0,0,1,2.723,1.154,5,5,0,0,1,.971,3.3v.639H78.177a3.193,3.193,0,0,0,.776,2.146,2.44,2.44,0,0,0,1.888.818,2.675,2.675,0,0,0,1.378-.332,3.462,3.462,0,0,0,.988-.88l.938.73A3.772,3.772,0,0,1,80.758,18.166Zm-.191-8.052a2.048,2.048,0,0,0-1.561.677,3.288,3.288,0,0,0-.78,1.9h4.5v-.116a2.925,2.925,0,0,0-.631-1.814A1.928,1.928,0,0,0,80.567,10.114Zm9.073,6.8a2.212,2.212,0,0,0,1.436-.5,1.752,1.752,0,0,0,.681-1.245h1.453a2.785,2.785,0,0,1-.531,1.469,3.5,3.5,0,0,1-1.307,1.112,3.772,3.772,0,0,1-1.731.415,3.7,3.7,0,0,1-2.918-1.224,4.877,4.877,0,0,1-1.083-3.349v-.257A5.407,5.407,0,0,1,86.121,11,3.667,3.667,0,0,1,87.5,9.417a3.926,3.926,0,0,1,2.129-.564,3.6,3.6,0,0,1,2.511.9,3.234,3.234,0,0,1,1.067,2.349H91.757a2.116,2.116,0,0,0-.66-1.432,2.053,2.053,0,0,0-1.465-.56,2.149,2.149,0,0,0-1.814.843,3.957,3.957,0,0,0-.643,2.436v.291a3.878,3.878,0,0,0,.639,2.391A2.16,2.16,0,0,0,89.64,16.913Zm4.889-3.486a5.3,5.3,0,0,1,.519-2.374,3.87,3.87,0,0,1,1.444-1.627A3.932,3.932,0,0,1,98.6,8.853a3.788,3.788,0,0,1,2.968,1.27,4.886,4.886,0,0,1,1.133,3.378v.108a5.351,5.351,0,0,1-.5,2.353,3.813,3.813,0,0,1-1.436,1.623,3.977,3.977,0,0,1-2.146.581,3.778,3.778,0,0,1-2.959-1.27,4.861,4.861,0,0,1-1.133-3.362Zm1.544.183a3.842,3.842,0,0,0,.693,2.4A2.349,2.349,0,0,0,100.481,16a4.2,4.2,0,0,0,.689-2.569,3.836,3.836,0,0,0-.7-2.395,2.23,2.23,0,0,0-1.864-.917,2.205,2.205,0,0,0-1.834.9A4.17,4.17,0,0,0,96.073,13.609Zm12.9-3.212a4.6,4.6,0,0,0-.755-.058,2.024,2.024,0,0,0-2.05,1.287V18h-1.536V9.019h1.494l.025,1.038a2.391,2.391,0,0,1,2.142-1.2,1.569,1.569,0,0,1,.681.116Zm1.038,3.038a5.261,5.261,0,0,1,.979-3.324,3.333,3.333,0,0,1,5.063-.178V5.25h1.536V18h-1.411l-.075-.963a3.127,3.127,0,0,1-2.565,1.129,3.068,3.068,0,0,1-2.544-1.278,5.321,5.321,0,0,1-.984-3.337Zm1.536.174A3.984,3.984,0,0,0,112.177,16a2.039,2.039,0,0,0,1.743.863,2.24,2.24,0,0,0,2.133-1.312V11.426a2.257,2.257,0,0,0-2.117-1.27,2.049,2.049,0,0,0-1.76.872A4.386,4.386,0,0,0,111.546,13.609ZM125.516,18a3.226,3.226,0,0,1-.216-.946,3.426,3.426,0,0,1-2.557,1.112,3.17,3.17,0,0,1-2.179-.751,2.43,2.43,0,0,1-.851-1.905,2.539,2.539,0,0,1,1.067-2.179,5.029,5.029,0,0,1,3-.776h1.494v-.706a1.725,1.725,0,0,0-.481-1.282,1.935,1.935,0,0,0-1.419-.477A2.239,2.239,0,0,0,122,10.5a1.223,1.223,0,0,0-.556,1H119.9a2.119,2.119,0,0,1,.477-1.3,3.258,3.258,0,0,1,1.295-.992,4.356,4.356,0,0,1,1.8-.365,3.551,3.551,0,0,1,2.432.776,2.8,2.8,0,0,1,.913,2.137V15.9a5.054,5.054,0,0,0,.315,1.967V18Zm-2.548-1.17a2.7,2.7,0,0,0,1.37-.374,2.259,2.259,0,0,0,.938-.971V13.642h-1.2q-2.822,0-2.822,1.652a1.4,1.4,0,0,0,.481,1.129A1.85,1.85,0,0,0,122.968,16.83ZM133.56,10.4a4.6,4.6,0,0,0-.755-.058,2.024,2.024,0,0,0-2.05,1.287V18h-1.536V9.019h1.494l.025,1.038a2.391,2.391,0,0,1,2.142-1.2,1.569,1.569,0,0,1,.681.116Zm11.165,6.715a3.262,3.262,0,0,1-2.631,1.054,2.792,2.792,0,0,1-2.187-.834,3.611,3.611,0,0,1-.76-2.469V9.019h1.536v5.8q0,2.042,1.66,2.042a2.3,2.3,0,0,0,2.341-1.312V9.019h1.536V18h-1.461ZM150,9.019l.05,1.129a3.273,3.273,0,0,1,2.689-1.295q2.847,0,2.872,3.212V18h-1.536V12.057a2.068,2.068,0,0,0-.444-1.436,1.78,1.78,0,0,0-1.357-.465,2.216,2.216,0,0,0-1.312.4,2.706,2.706,0,0,0-.88,1.046V18h-1.536V9.019Zm15.863,9.147a3.924,3.924,0,0,1-2.972-1.2,4.452,4.452,0,0,1-1.146-3.208v-.282a5.39,5.39,0,0,1,.51-2.386,3.982,3.982,0,0,1,1.428-1.644,3.59,3.59,0,0,1,1.988-.594,3.364,3.364,0,0,1,2.723,1.154,5,5,0,0,1,.971,3.3v.639h-6.084a3.193,3.193,0,0,0,.776,2.146,2.44,2.44,0,0,0,1.888.818,2.675,2.675,0,0,0,1.378-.332,3.462,3.462,0,0,0,.988-.88l.938.73A3.772,3.772,0,0,1,165.866,18.166Zm-.191-8.052a2.048,2.048,0,0,0-1.561.677,3.288,3.288,0,0,0-.78,1.9h4.5v-.116a2.925,2.925,0,0,0-.631-1.814A1.928,1.928,0,0,0,165.675,10.114Zm7.056-1.1V19.038q0,2.59-2.349,2.59a2.865,2.865,0,0,1-.938-.149V20.258a2.969,2.969,0,0,0,.7.066,1.043,1.043,0,0,0,.784-.278,1.376,1.376,0,0,0,.27-.968V9.019Zm-1.693-2.382a.921.921,0,0,1,.228-.627.839.839,0,0,1,.668-.261.87.87,0,0,1,.681.257.907.907,0,0,1,.232.631.877.877,0,0,1-.232.623.886.886,0,0,1-.681.249.859.859,0,0,1-.672-.249A.9.9,0,0,1,171.038,6.636Zm7.894,11.53a3.924,3.924,0,0,1-2.972-1.2,4.452,4.452,0,0,1-1.146-3.208v-.282a5.39,5.39,0,0,1,.51-2.386,3.982,3.982,0,0,1,1.428-1.644,3.59,3.59,0,0,1,1.988-.594,3.364,3.364,0,0,1,2.723,1.154,5,5,0,0,1,.971,3.3v.639H176.35a3.193,3.193,0,0,0,.776,2.146,2.44,2.44,0,0,0,1.888.818,2.675,2.675,0,0,0,1.378-.332,3.462,3.462,0,0,0,.988-.88l.938.73A3.772,3.772,0,0,1,178.932,18.166Zm-.191-8.052a2.048,2.048,0,0,0-1.561.677,3.288,3.288,0,0,0-.78,1.9h4.5v-.116a2.925,2.925,0,0,0-.631-1.814A1.928,1.928,0,0,0,178.741,10.114Zm6.915-1.1.042,1a3.317,3.317,0,0,1,2.665-1.162,2.568,2.568,0,0,1,2.565,1.444,3.4,3.4,0,0,1,1.166-1.046,3.445,3.445,0,0,1,1.7-.4q2.955,0,3,3.129V18h-1.536V12.073a2.062,2.062,0,0,0-.44-1.44,1.937,1.937,0,0,0-1.478-.477,2.036,2.036,0,0,0-1.419.51,2.071,2.071,0,0,0-.656,1.374V18h-1.544V12.115a1.713,1.713,0,0,0-1.917-1.959,2.055,2.055,0,0,0-2.067,1.287V18H184.2V9.019Zm21.042,4.59a5.378,5.378,0,0,1-.938,3.3,3.006,3.006,0,0,1-2.54,1.253,3.294,3.294,0,0,1-2.573-1.038v4.325h-1.536V9.019h1.4l.075,1a3.163,3.163,0,0,1,2.606-1.162,3.063,3.063,0,0,1,2.561,1.22,5.437,5.437,0,0,1,.942,3.4Zm-1.536-.174a3.968,3.968,0,0,0-.647-2.4,2.086,2.086,0,0,0-1.776-.88,2.257,2.257,0,0,0-2.092,1.237v4.292a2.262,2.262,0,0,0,2.108,1.229,2.076,2.076,0,0,0,1.756-.876A4.332,4.332,0,0,0,205.162,13.435ZM210.317,18h-1.536V5.25h1.536Zm2.05-4.574a5.3,5.3,0,0,1,.519-2.374,3.87,3.87,0,0,1,1.444-1.627,3.932,3.932,0,0,1,2.113-.573,3.788,3.788,0,0,1,2.968,1.27,4.886,4.886,0,0,1,1.133,3.378v.108a5.351,5.351,0,0,1-.5,2.353,3.813,3.813,0,0,1-1.436,1.623,3.977,3.977,0,0,1-2.146.581A3.778,3.778,0,0,1,213.5,16.9a4.861,4.861,0,0,1-1.133-3.362Zm1.544.183a3.842,3.842,0,0,0,.693,2.4A2.349,2.349,0,0,0,218.319,16a4.2,4.2,0,0,0,.689-2.569,3.836,3.836,0,0,0-.7-2.395,2.23,2.23,0,0,0-1.864-.917,2.205,2.205,0,0,0-1.834.9A4.17,4.17,0,0,0,213.911,13.609ZM5.5,30.4a4.6,4.6,0,0,0-.755-.058A2.024,2.024,0,0,0,2.7,31.625V38H1.162V29.019H2.656l.025,1.038a2.391,2.391,0,0,1,2.142-1.2,1.569,1.569,0,0,1,.681.116Zm5.138,7.77a3.924,3.924,0,0,1-2.972-1.2,4.452,4.452,0,0,1-1.146-3.208v-.282a5.39,5.39,0,0,1,.51-2.386,3.982,3.982,0,0,1,1.428-1.644,3.59,3.59,0,0,1,1.988-.594,3.364,3.364,0,0,1,2.723,1.154,5,5,0,0,1,.971,3.3v.639H8.06a3.193,3.193,0,0,0,.776,2.146,2.44,2.44,0,0,0,1.888.818,2.675,2.675,0,0,0,1.378-.332,3.462,3.462,0,0,0,.988-.88l.938.73A3.772,3.772,0,0,1,10.642,38.166Zm-.191-8.052a2.048,2.048,0,0,0-1.561.677,3.288,3.288,0,0,0-.78,1.9h4.5v-.116a2.925,2.925,0,0,0-.631-1.814A1.928,1.928,0,0,0,10.451,30.114ZM17.589,38H16.054V25.25h1.536Zm8,0a3.226,3.226,0,0,1-.216-.946,3.426,3.426,0,0,1-2.557,1.112,3.17,3.17,0,0,1-2.179-.751,2.43,2.43,0,0,1-.851-1.905,2.539,2.539,0,0,1,1.067-2.179,5.029,5.029,0,0,1,3-.776h1.494v-.706a1.725,1.725,0,0,0-.481-1.282,1.935,1.935,0,0,0-1.419-.477,2.239,2.239,0,0,0-1.378.415,1.223,1.223,0,0,0-.556,1H19.972a2.119,2.119,0,0,1,.477-1.3,3.258,3.258,0,0,1,1.295-.992,4.356,4.356,0,0,1,1.8-.365,3.551,3.551,0,0,1,2.432.776,2.8,2.8,0,0,1,.913,2.137V35.9a5.054,5.054,0,0,0,.315,1.967V38Zm-2.548-1.17a2.7,2.7,0,0,0,1.37-.374,2.259,2.259,0,0,0,.938-.971V33.642h-1.2q-2.822,0-2.822,1.652a1.4,1.4,0,0,0,.481,1.129A1.85,1.85,0,0,0,23.043,36.83Zm9.853.083a2.212,2.212,0,0,0,1.436-.5,1.752,1.752,0,0,0,.681-1.245h1.453a2.785,2.785,0,0,1-.531,1.469,3.5,3.5,0,0,1-1.307,1.112,3.772,3.772,0,0,1-1.731.415,3.7,3.7,0,0,1-2.918-1.224A4.877,4.877,0,0,1,28.9,33.592v-.257A5.407,5.407,0,0,1,29.376,31a3.667,3.667,0,0,1,1.382-1.585,3.926,3.926,0,0,1,2.129-.564,3.6,3.6,0,0,1,2.511.9,3.234,3.234,0,0,1,1.067,2.349H35.013a2.116,2.116,0,0,0-.66-1.432,2.053,2.053,0,0,0-1.465-.56,2.149,2.149,0,0,0-1.814.843,3.957,3.957,0,0,0-.643,2.436v.291a3.878,3.878,0,0,0,.639,2.391A2.16,2.16,0,0,0,32.9,36.913ZM39.86,38H38.325V29.019H39.86ZM38.2,26.636a.917.917,0,0,1,.228-.631.857.857,0,0,1,.677-.257.87.87,0,0,1,.681.257.907.907,0,0,1,.232.631.877.877,0,0,1-.232.623.886.886,0,0,1-.681.249.872.872,0,0,1-.677-.249A.886.886,0,0,1,38.2,26.636Zm3.71,6.79a5.3,5.3,0,0,1,.519-2.374,3.87,3.87,0,0,1,1.444-1.627,3.932,3.932,0,0,1,2.113-.573,3.788,3.788,0,0,1,2.968,1.27A4.886,4.886,0,0,1,50.087,33.5v.108a5.351,5.351,0,0,1-.5,2.353,3.813,3.813,0,0,1-1.436,1.623A3.977,3.977,0,0,1,46,38.166a3.778,3.778,0,0,1-2.959-1.27,4.861,4.861,0,0,1-1.133-3.362Zm1.544.183a3.842,3.842,0,0,0,.693,2.4A2.349,2.349,0,0,0,47.862,36a4.2,4.2,0,0,0,.689-2.569,3.836,3.836,0,0,0-.7-2.395,2.23,2.23,0,0,0-1.864-.917,2.205,2.205,0,0,0-1.834.9A4.17,4.17,0,0,0,43.455,33.609Zm10.011-4.59.05,1.129A3.273,3.273,0,0,1,56.2,28.853q2.847,0,2.872,3.212V38H57.541V32.057a2.068,2.068,0,0,0-.444-1.436,1.78,1.78,0,0,0-1.357-.465,2.216,2.216,0,0,0-1.312.4,2.706,2.706,0,0,0-.88,1.046V38H52.013V29.019ZM66.938,38a3.226,3.226,0,0,1-.216-.946,3.426,3.426,0,0,1-2.557,1.112,3.17,3.17,0,0,1-2.179-.751,2.43,2.43,0,0,1-.851-1.905A2.539,2.539,0,0,1,62.2,33.331a5.029,5.029,0,0,1,3-.776H66.7v-.706a1.725,1.725,0,0,0-.481-1.282,1.935,1.935,0,0,0-1.419-.477,2.239,2.239,0,0,0-1.378.415,1.223,1.223,0,0,0-.556,1H61.318a2.119,2.119,0,0,1,.477-1.3,3.258,3.258,0,0,1,1.295-.992,4.356,4.356,0,0,1,1.8-.365,3.551,3.551,0,0,1,2.432.776,2.8,2.8,0,0,1,.913,2.137V35.9a5.054,5.054,0,0,0,.315,1.967V38Zm-2.548-1.17a2.7,2.7,0,0,0,1.37-.374,2.259,2.259,0,0,0,.938-.971V33.642h-1.2q-2.822,0-2.822,1.652a1.4,1.4,0,0,0,.481,1.129A1.85,1.85,0,0,0,64.389,36.83Zm5.877-3.4a5.261,5.261,0,0,1,.979-3.324,3.333,3.333,0,0,1,5.063-.178V25.25h1.536V38H76.434l-.075-.963a3.127,3.127,0,0,1-2.565,1.129,3.068,3.068,0,0,1-2.544-1.278,5.321,5.321,0,0,1-.984-3.337Zm1.536.174A3.984,3.984,0,0,0,72.433,36a2.039,2.039,0,0,0,1.743.863,2.24,2.24,0,0,0,2.133-1.312V31.426a2.257,2.257,0,0,0-2.117-1.27,2.049,2.049,0,0,0-1.76.872A4.386,4.386,0,0,0,71.8,33.609Zm8.019-.183a5.3,5.3,0,0,1,.519-2.374,3.87,3.87,0,0,1,1.444-1.627,3.932,3.932,0,0,1,2.113-.573,3.788,3.788,0,0,1,2.968,1.27A4.886,4.886,0,0,1,88,33.5v.108a5.351,5.351,0,0,1-.5,2.353,3.813,3.813,0,0,1-1.436,1.623,3.977,3.977,0,0,1-2.146.581,3.778,3.778,0,0,1-2.959-1.27,4.861,4.861,0,0,1-1.133-3.362Zm1.544.183a3.842,3.842,0,0,0,.693,2.4A2.349,2.349,0,0,0,85.772,36a4.2,4.2,0,0,0,.689-2.569,3.836,3.836,0,0,0-.7-2.395,2.23,2.23,0,0,0-1.864-.917,2.205,2.205,0,0,0-1.834.9A4.17,4.17,0,0,0,81.364,33.609Zm16.369,3.3a2.212,2.212,0,0,0,1.436-.5,1.752,1.752,0,0,0,.681-1.245H101.3a2.785,2.785,0,0,1-.531,1.469,3.5,3.5,0,0,1-1.307,1.112,3.772,3.772,0,0,1-1.731.415,3.7,3.7,0,0,1-2.918-1.224,4.877,4.877,0,0,1-1.083-3.349v-.257A5.407,5.407,0,0,1,94.214,31,3.667,3.667,0,0,1,95.6,29.417a3.926,3.926,0,0,1,2.129-.564,3.6,3.6,0,0,1,2.511.9,3.234,3.234,0,0,1,1.067,2.349H99.85a2.116,2.116,0,0,0-.66-1.432,2.053,2.053,0,0,0-1.465-.56,2.149,2.149,0,0,0-1.814.843,3.957,3.957,0,0,0-.643,2.436v.291a3.878,3.878,0,0,0,.639,2.391A2.16,2.16,0,0,0,97.733,36.913Zm4.889-3.486a5.3,5.3,0,0,1,.519-2.374,3.87,3.87,0,0,1,1.444-1.627,3.932,3.932,0,0,1,2.113-.573,3.788,3.788,0,0,1,2.968,1.27A4.886,4.886,0,0,1,110.8,33.5v.108a5.351,5.351,0,0,1-.5,2.353,3.813,3.813,0,0,1-1.436,1.623,3.977,3.977,0,0,1-2.146.581,3.778,3.778,0,0,1-2.959-1.27,4.861,4.861,0,0,1-1.133-3.362Zm1.544.183a3.842,3.842,0,0,0,.693,2.4A2.349,2.349,0,0,0,108.574,36a4.2,4.2,0,0,0,.689-2.569,3.836,3.836,0,0,0-.7-2.395,2.23,2.23,0,0,0-1.864-.917,2.205,2.205,0,0,0-1.834.9A4.17,4.17,0,0,0,104.167,33.609Zm10.011-4.59.05,1.129a3.273,3.273,0,0,1,2.689-1.295q2.847,0,2.872,3.212V38h-1.536V32.057a2.068,2.068,0,0,0-.444-1.436,1.78,1.78,0,0,0-1.357-.465,2.216,2.216,0,0,0-1.312.4,2.706,2.706,0,0,0-.88,1.046V38h-1.536V29.019ZM127.981,38h-1.536V25.25h1.536Zm8,0a3.226,3.226,0,0,1-.216-.946,3.426,3.426,0,0,1-2.557,1.112,3.17,3.17,0,0,1-2.179-.751,2.43,2.43,0,0,1-.851-1.905,2.539,2.539,0,0,1,1.067-2.179,5.029,5.029,0,0,1,3-.776h1.494v-.706a1.725,1.725,0,0,0-.481-1.282,1.935,1.935,0,0,0-1.419-.477,2.239,2.239,0,0,0-1.378.415,1.223,1.223,0,0,0-.556,1h-1.544a2.119,2.119,0,0,1,.477-1.3,3.258,3.258,0,0,1,1.295-.992,4.356,4.356,0,0,1,1.8-.365,3.551,3.551,0,0,1,2.432.776,2.8,2.8,0,0,1,.913,2.137V35.9a5.054,5.054,0,0,0,.315,1.967V38Zm-2.548-1.17a2.7,2.7,0,0,0,1.37-.374,2.259,2.259,0,0,0,.938-.971V33.642h-1.2q-2.822,0-2.822,1.652a1.4,1.4,0,0,0,.481,1.129A1.85,1.85,0,0,0,133.435,36.83Zm13.422-.913,2.225-6.9h1.569L147.43,38h-1.17l-3.254-8.981h1.569ZM157.549,38a3.226,3.226,0,0,1-.216-.946,3.426,3.426,0,0,1-2.557,1.112,3.17,3.17,0,0,1-2.179-.751,2.43,2.43,0,0,1-.851-1.905,2.539,2.539,0,0,1,1.067-2.179,5.029,5.029,0,0,1,3-.776h1.494v-.706a1.725,1.725,0,0,0-.481-1.282,1.935,1.935,0,0,0-1.419-.477,2.239,2.239,0,0,0-1.378.415,1.223,1.223,0,0,0-.556,1h-1.544a2.119,2.119,0,0,1,.477-1.3,3.258,3.258,0,0,1,1.295-.992,4.356,4.356,0,0,1,1.8-.365,3.551,3.551,0,0,1,2.432.776,2.8,2.8,0,0,1,.913,2.137V35.9a5.054,5.054,0,0,0,.315,1.967V38ZM155,36.83a2.7,2.7,0,0,0,1.37-.374,2.259,2.259,0,0,0,.938-.971V33.642h-1.2q-2.822,0-2.822,1.652a1.4,1.4,0,0,0,.481,1.129A1.85,1.85,0,0,0,155,36.83ZM162.919,38h-1.536V25.25h1.536Zm2.05-4.574a5.3,5.3,0,0,1,.519-2.374,3.87,3.87,0,0,1,1.444-1.627,3.932,3.932,0,0,1,2.113-.573,3.788,3.788,0,0,1,2.968,1.27,4.886,4.886,0,0,1,1.133,3.378v.108a5.351,5.351,0,0,1-.5,2.353,3.813,3.813,0,0,1-1.436,1.623,3.977,3.977,0,0,1-2.146.581A3.778,3.778,0,0,1,166.1,36.9a4.861,4.861,0,0,1-1.133-3.362Zm1.544.183a3.842,3.842,0,0,0,.693,2.4A2.349,2.349,0,0,0,170.921,36a4.2,4.2,0,0,0,.689-2.569,3.836,3.836,0,0,0-.7-2.395,2.23,2.23,0,0,0-1.864-.917,2.205,2.205,0,0,0-1.834.9A4.17,4.17,0,0,0,166.514,33.609Zm12.9-3.212a4.6,4.6,0,0,0-.755-.058,2.024,2.024,0,0,0-2.05,1.287V38h-1.536V29.019h1.494l.025,1.038a2.391,2.391,0,0,1,2.142-1.2,1.569,1.569,0,0,1,.681.116Zm6.624,7.6a3.226,3.226,0,0,1-.216-.946,3.426,3.426,0,0,1-2.557,1.112,3.17,3.17,0,0,1-2.179-.751,2.43,2.43,0,0,1-.851-1.905,2.539,2.539,0,0,1,1.067-2.179,5.029,5.029,0,0,1,3-.776H185.8v-.706a1.725,1.725,0,0,0-.481-1.282,1.935,1.935,0,0,0-1.419-.477,2.239,2.239,0,0,0-1.378.415,1.223,1.223,0,0,0-.556,1h-1.544a2.119,2.119,0,0,1,.477-1.3,3.258,3.258,0,0,1,1.295-.992,4.356,4.356,0,0,1,1.8-.365,3.551,3.551,0,0,1,2.432.776,2.8,2.8,0,0,1,.913,2.137V35.9a5.054,5.054,0,0,0,.315,1.967V38Zm-2.548-1.17a2.7,2.7,0,0,0,1.37-.374,2.259,2.259,0,0,0,.938-.971V33.642h-1.2q-2.822,0-2.822,1.652a1.4,1.4,0,0,0,.481,1.129A1.85,1.85,0,0,0,183.489,36.83Zm9.853.083a2.212,2.212,0,0,0,1.436-.5,1.752,1.752,0,0,0,.681-1.245h1.453a2.785,2.785,0,0,1-.531,1.469,3.5,3.5,0,0,1-1.307,1.112,3.772,3.772,0,0,1-1.731.415,3.7,3.7,0,0,1-2.918-1.224,4.877,4.877,0,0,1-1.083-3.349v-.257A5.407,5.407,0,0,1,189.822,31a3.667,3.667,0,0,1,1.382-1.585,3.926,3.926,0,0,1,2.129-.564,3.6,3.6,0,0,1,2.511.9,3.234,3.234,0,0,1,1.067,2.349h-1.453a2.116,2.116,0,0,0-.66-1.432,2.053,2.053,0,0,0-1.465-.56,2.149,2.149,0,0,0-1.814.843,3.957,3.957,0,0,0-.643,2.436v.291a3.878,3.878,0,0,0,.639,2.391A2.16,2.16,0,0,0,193.342,36.913ZM200.306,38h-1.536V29.019h1.536Zm-1.66-11.364a.917.917,0,0,1,.228-.631.857.857,0,0,1,.677-.257.87.87,0,0,1,.681.257.907.907,0,0,1,.232.631.877.877,0,0,1-.232.623.886.886,0,0,1-.681.249.872.872,0,0,1-.677-.249A.886.886,0,0,1,198.646,26.636Zm3.71,6.79a5.3,5.3,0,0,1,.519-2.374,3.87,3.87,0,0,1,1.444-1.627,3.932,3.932,0,0,1,2.113-.573,3.788,3.788,0,0,1,2.968,1.27,4.886,4.886,0,0,1,1.133,3.378v.108a5.351,5.351,0,0,1-.5,2.353,3.813,3.813,0,0,1-1.436,1.623,3.977,3.977,0,0,1-2.146.581,3.778,3.778,0,0,1-2.959-1.27,4.861,4.861,0,0,1-1.133-3.362Zm1.544.183a3.842,3.842,0,0,0,.693,2.4A2.349,2.349,0,0,0,208.308,36,4.2,4.2,0,0,0,209,33.426a3.836,3.836,0,0,0-.7-2.395,2.23,2.23,0,0,0-1.864-.917,2.205,2.205,0,0,0-1.834.9A4.17,4.17,0,0,0,203.9,33.609Zm3.229-8.359h1.859l-2.225,2.44-1.237,0Zm6.782,3.769.05,1.129a3.273,3.273,0,0,1,2.689-1.295q2.847,0,2.872,3.212V38h-1.536V32.057a2.068,2.068,0,0,0-.444-1.436,1.78,1.78,0,0,0-1.357-.465,2.216,2.216,0,0,0-1.312.4,2.706,2.706,0,0,0-.88,1.046V38h-1.536V29.019Zm11.762,4.416a5.261,5.261,0,0,1,.979-3.324,3.333,3.333,0,0,1,5.063-.178V25.25h1.536V38h-1.411l-.075-.963a3.127,3.127,0,0,1-2.565,1.129,3.068,3.068,0,0,1-2.544-1.278,5.321,5.321,0,0,1-.984-3.337Zm1.536.174A3.984,3.984,0,0,0,227.84,36a2.039,2.039,0,0,0,1.743.863,2.24,2.24,0,0,0,2.133-1.312V31.426a2.257,2.257,0,0,0-2.117-1.27,2.049,2.049,0,0,0-1.76.872A4.386,4.386,0,0,0,227.209,33.609Zm12.152,4.557a3.924,3.924,0,0,1-2.972-1.2,4.452,4.452,0,0,1-1.146-3.208v-.282a5.39,5.39,0,0,1,.51-2.386,3.982,3.982,0,0,1,1.428-1.644,3.59,3.59,0,0,1,1.988-.594,3.364,3.364,0,0,1,2.723,1.154,5,5,0,0,1,.971,3.3v.639H236.78a3.193,3.193,0,0,0,.776,2.146,2.44,2.44,0,0,0,1.888.818,2.675,2.675,0,0,0,1.378-.332,3.462,3.462,0,0,0,.988-.88l.938.73A3.772,3.772,0,0,1,239.361,38.166Zm-.191-8.052a2.048,2.048,0,0,0-1.561.677,3.288,3.288,0,0,0-.78,1.9h4.5v-.116a2.925,2.925,0,0,0-.631-1.814A1.928,1.928,0,0,0,239.17,30.114ZM6.707,58a3.226,3.226,0,0,1-.216-.946,3.426,3.426,0,0,1-2.557,1.112,3.17,3.17,0,0,1-2.179-.751A2.43,2.43,0,0,1,.9,55.51a2.539,2.539,0,0,1,1.067-2.179,5.029,5.029,0,0,1,3-.776H6.466v-.706a1.725,1.725,0,0,0-.481-1.282,1.935,1.935,0,0,0-1.419-.477,2.239,2.239,0,0,0-1.378.415,1.223,1.223,0,0,0-.556,1H1.087a2.119,2.119,0,0,1,.477-1.3,3.258,3.258,0,0,1,1.295-.992,4.356,4.356,0,0,1,1.8-.365,3.551,3.551,0,0,1,2.432.776A2.8,2.8,0,0,1,8,51.766V55.9a5.054,5.054,0,0,0,.315,1.967V58ZM4.159,56.83a2.7,2.7,0,0,0,1.37-.374,2.259,2.259,0,0,0,.938-.971V53.642h-1.2q-2.822,0-2.822,1.652a1.4,1.4,0,0,0,.481,1.129A1.85,1.85,0,0,0,4.159,56.83ZM18,53.609a5.378,5.378,0,0,1-.938,3.3,3.006,3.006,0,0,1-2.54,1.253,3.294,3.294,0,0,1-2.573-1.038v4.325H10.409V49.019h1.4l.075,1a3.163,3.163,0,0,1,2.606-1.162,3.063,3.063,0,0,1,2.561,1.22,5.437,5.437,0,0,1,.942,3.4Zm-1.536-.174a3.968,3.968,0,0,0-.647-2.4,2.086,2.086,0,0,0-1.776-.88,2.257,2.257,0,0,0-2.092,1.237v4.292a2.262,2.262,0,0,0,2.108,1.229,2.076,2.076,0,0,0,1.756-.876A4.332,4.332,0,0,0,16.46,53.435Zm3.08-.008a5.3,5.3,0,0,1,.519-2.374A3.87,3.87,0,0,1,21.5,49.425a3.932,3.932,0,0,1,2.113-.573,3.788,3.788,0,0,1,2.968,1.27A4.886,4.886,0,0,1,27.716,53.5v.108a5.351,5.351,0,0,1-.5,2.353,3.813,3.813,0,0,1-1.436,1.623,3.977,3.977,0,0,1-2.146.581,3.778,3.778,0,0,1-2.959-1.27,4.861,4.861,0,0,1-1.133-3.362Zm1.544.183a3.842,3.842,0,0,0,.693,2.4A2.349,2.349,0,0,0,25.492,56a4.2,4.2,0,0,0,.689-2.569,3.836,3.836,0,0,0-.7-2.395,2.23,2.23,0,0,0-1.864-.917,2.205,2.205,0,0,0-1.834.9A4.17,4.17,0,0,0,21.084,53.609Zm11.5,2.142,2.092-6.732h1.644L32.705,59.386q-.838,2.241-2.665,2.241L29.75,61.6l-.573-.108V60.25l.415.033a2.043,2.043,0,0,0,1.216-.315,2.283,2.283,0,0,0,.718-1.154l.34-.913-3.2-8.882h1.677Zm4.7-2.324a5.3,5.3,0,0,1,.519-2.374,3.87,3.87,0,0,1,1.444-1.627,3.932,3.932,0,0,1,2.113-.573,3.788,3.788,0,0,1,2.968,1.27A4.886,4.886,0,0,1,45.455,53.5v.108a5.351,5.351,0,0,1-.5,2.353,3.813,3.813,0,0,1-1.436,1.623,3.977,3.977,0,0,1-2.146.581,3.778,3.778,0,0,1-2.959-1.27,4.861,4.861,0,0,1-1.133-3.362Zm1.544.183a3.842,3.842,0,0,0,.693,2.4A2.349,2.349,0,0,0,43.23,56a4.2,4.2,0,0,0,.689-2.569,3.836,3.836,0,0,0-.7-2.395,2.23,2.23,0,0,0-1.864-.917,2.205,2.205,0,0,0-1.834.9A4.17,4.17,0,0,0,38.823,53.609ZM52.61,55.618a1.13,1.13,0,0,0-.469-.967,4.514,4.514,0,0,0-1.635-.594,7.731,7.731,0,0,1-1.851-.6,2.633,2.633,0,0,1-1.013-.83,1.986,1.986,0,0,1-.328-1.146,2.33,2.33,0,0,1,.934-1.868,3.647,3.647,0,0,1,2.386-.764,3.753,3.753,0,0,1,2.478.789,2.5,2.5,0,0,1,.95,2.017H52.519a1.386,1.386,0,0,0-.535-1.087,2.006,2.006,0,0,0-1.349-.457,2.1,2.1,0,0,0-1.312.365,1.15,1.15,0,0,0-.473.955.932.932,0,0,0,.44.838,5.413,5.413,0,0,0,1.59.54,8.283,8.283,0,0,1,1.864.614,2.718,2.718,0,0,1,1.058.859,2.112,2.112,0,0,1,.344,1.224,2.3,2.3,0,0,1-.963,1.93,4.039,4.039,0,0,1-2.5.726,4.523,4.523,0,0,1-1.909-.382,3.105,3.105,0,0,1-1.3-1.067,2.571,2.571,0,0,1-.469-1.482h1.536a1.59,1.59,0,0,0,.618,1.224,2.4,2.4,0,0,0,1.523.452,2.476,2.476,0,0,0,1.4-.353A1.084,1.084,0,0,0,52.61,55.618Zm5.337-1.035a4.954,4.954,0,0,1,.224-1.558,4,4,0,0,1,.847-1.268l1.087-1.119a2.507,2.507,0,0,0,.7-1.69,1.928,1.928,0,0,0-.457-1.362,1.721,1.721,0,0,0-1.328-.493,2,2,0,0,0-1.361.448,1.516,1.516,0,0,0-.515,1.2H55.607a2.8,2.8,0,0,1,.959-2.171,3.585,3.585,0,0,1,2.453-.826,3.384,3.384,0,0,1,2.445.841,3.05,3.05,0,0,1,.876,2.308,4.171,4.171,0,0,1-1.345,2.859l-.9.9a2.787,2.787,0,0,0-.606,1.931Zm-.066,2.637a.915.915,0,0,1,.228-.633.86.86,0,0,1,.677-.256.874.874,0,0,1,.681.256.905.905,0,0,1,.232.633.875.875,0,0,1-.232.624.89.89,0,0,1-.681.247.822.822,0,0,1-.9-.871Z" transform="translate(-5837 -1225)" fill="#12263f"/>
    <path id="Path_1006986" data-name="Path 1006986" d="M13.414,14.165A4.447,4.447,0,0,1,12,17.124a4.638,4.638,0,0,1-3.167,1.042A4.259,4.259,0,0,1,5.4,16.63a6.178,6.178,0,0,1-1.291-4.109V11.359A6.886,6.886,0,0,1,4.71,8.4,4.5,4.5,0,0,1,6.416,6.433a4.75,4.75,0,0,1,2.557-.685,4.367,4.367,0,0,1,3.088,1.075A4.5,4.5,0,0,1,13.414,9.8h-1.6a3.472,3.472,0,0,0-.9-2.1,2.725,2.725,0,0,0-1.938-.649,2.851,2.851,0,0,0-2.395,1.13A5.187,5.187,0,0,0,5.711,11.4v1.171A5.332,5.332,0,0,0,6.532,15.7a2.655,2.655,0,0,0,2.3,1.163,3.067,3.067,0,0,0,2.038-.6,3.34,3.34,0,0,0,.942-2.1ZM17.016,18H15.481V5.25h1.536Zm8,0a3.226,3.226,0,0,1-.216-.946,3.426,3.426,0,0,1-2.557,1.112,3.17,3.17,0,0,1-2.179-.751,2.43,2.43,0,0,1-.851-1.905,2.539,2.539,0,0,1,1.067-2.179,5.029,5.029,0,0,1,3-.776h1.494v-.706a1.725,1.725,0,0,0-.481-1.282,1.935,1.935,0,0,0-1.419-.477A2.239,2.239,0,0,0,21.5,10.5a1.223,1.223,0,0,0-.556,1H19.4a2.119,2.119,0,0,1,.477-1.3,3.258,3.258,0,0,1,1.295-.992,4.356,4.356,0,0,1,1.8-.365,3.551,3.551,0,0,1,2.432.776,2.8,2.8,0,0,1,.913,2.137V15.9a5.054,5.054,0,0,0,.315,1.967V18ZM22.47,16.83a2.7,2.7,0,0,0,1.37-.374,2.259,2.259,0,0,0,.938-.971V13.642h-1.2q-2.822,0-2.822,1.652a1.4,1.4,0,0,0,.481,1.129A1.85,1.85,0,0,0,22.47,16.83ZM33.062,10.4a4.6,4.6,0,0,0-.755-.058,2.024,2.024,0,0,0-2.05,1.287V18H28.72V9.019h1.494l.025,1.038a2.391,2.391,0,0,1,2.142-1.2,1.569,1.569,0,0,1,.681.116Zm.838,3.03a5.3,5.3,0,0,1,.519-2.374,3.87,3.87,0,0,1,1.444-1.627,3.932,3.932,0,0,1,2.113-.573,3.788,3.788,0,0,1,2.968,1.27A4.886,4.886,0,0,1,42.076,13.5v.108a5.351,5.351,0,0,1-.5,2.353,3.813,3.813,0,0,1-1.436,1.623,3.977,3.977,0,0,1-2.146.581,3.778,3.778,0,0,1-2.959-1.27A4.861,4.861,0,0,1,33.9,13.534Zm1.544.183a3.842,3.842,0,0,0,.693,2.4A2.349,2.349,0,0,0,39.852,16a4.2,4.2,0,0,0,.689-2.569,3.836,3.836,0,0,0-.7-2.395,2.23,2.23,0,0,0-1.864-.917,2.205,2.205,0,0,0-1.834.9A4.17,4.17,0,0,0,35.444,13.609Zm12.393-.174a5.272,5.272,0,0,1,.971-3.349,3.428,3.428,0,0,1,5.122-.162l.066-.9h1.411V21.453H53.872V17.17a3.223,3.223,0,0,1-2.474,1A3.1,3.1,0,0,1,48.8,16.9a5.389,5.389,0,0,1-.967-3.358Zm1.536.174a4,4,0,0,0,.652,2.424,2.073,2.073,0,0,0,1.756.88A2.3,2.3,0,0,0,53.872,15.7V11.3A2.307,2.307,0,0,0,51.8,10.114,2.088,2.088,0,0,0,50.029,11,4.35,4.35,0,0,0,49.373,13.609Zm14.045,3.5a3.262,3.262,0,0,1-2.631,1.054,2.792,2.792,0,0,1-2.187-.834,3.611,3.611,0,0,1-.76-2.469V9.019h1.536v5.8q0,2.042,1.66,2.042a2.3,2.3,0,0,0,2.341-1.312V9.019h1.536V18H63.451Zm7.554,1.054A3.924,3.924,0,0,1,68,16.967a4.452,4.452,0,0,1-1.146-3.208v-.282a5.39,5.39,0,0,1,.51-2.386,3.982,3.982,0,0,1,1.428-1.644,3.59,3.59,0,0,1,1.988-.594A3.364,3.364,0,0,1,73.5,10.006a5,5,0,0,1,.971,3.3v.639H68.39a3.193,3.193,0,0,0,.776,2.146,2.44,2.44,0,0,0,1.888.818,2.675,2.675,0,0,0,1.378-.332,3.462,3.462,0,0,0,.988-.88l.938.73A3.772,3.772,0,0,1,70.971,18.166Zm-.191-8.052a2.048,2.048,0,0,0-1.561.677,3.288,3.288,0,0,0-.78,1.9h4.5v-.116a2.925,2.925,0,0,0-.631-1.814A1.928,1.928,0,0,0,70.781,10.114Zm14.908,5.5a1.131,1.131,0,0,0-.469-.967,4.514,4.514,0,0,0-1.635-.594,7.731,7.731,0,0,1-1.851-.6,2.633,2.633,0,0,1-1.013-.83,1.986,1.986,0,0,1-.328-1.146,2.33,2.33,0,0,1,.934-1.868,3.647,3.647,0,0,1,2.386-.764,3.753,3.753,0,0,1,2.478.789,2.5,2.5,0,0,1,.95,2.017H85.6a1.386,1.386,0,0,0-.535-1.087,2.006,2.006,0,0,0-1.349-.457,2.1,2.1,0,0,0-1.312.365,1.15,1.15,0,0,0-.473.955.932.932,0,0,0,.44.838,5.413,5.413,0,0,0,1.59.54,8.283,8.283,0,0,1,1.864.614,2.718,2.718,0,0,1,1.058.859,2.112,2.112,0,0,1,.344,1.224,2.3,2.3,0,0,1-.963,1.93,4.039,4.039,0,0,1-2.5.726,4.523,4.523,0,0,1-1.909-.382,3.105,3.105,0,0,1-1.3-1.067,2.571,2.571,0,0,1-.469-1.482h1.536a1.59,1.59,0,0,0,.618,1.224,2.4,2.4,0,0,0,1.523.452,2.476,2.476,0,0,0,1.4-.353A1.084,1.084,0,0,0,85.689,15.618ZM90.893,18H89.349V9.019h1.544ZM90.91,5.258h1.859L90.545,7.7l-1.237,0Zm2.465,15.149-.872-.6a4.006,4.006,0,0,0,.813-2.241V16.182h1.5v1.2a3.781,3.781,0,0,1-.411,1.677A3.926,3.926,0,0,1,93.375,20.407Zm9.679-13.563V9.019h1.677v1.187h-1.677v5.577a1.247,1.247,0,0,0,.224.81.943.943,0,0,0,.764.27,3.718,3.718,0,0,0,.73-.1V18a4.478,4.478,0,0,1-1.179.165,1.912,1.912,0,0,1-1.552-.623,2.675,2.675,0,0,1-.523-1.768v-5.57H99.883V9.019h1.635V6.844Zm7.2,11.322a3.924,3.924,0,0,1-2.972-1.2,4.452,4.452,0,0,1-1.146-3.208v-.282a5.39,5.39,0,0,1,.51-2.386,3.982,3.982,0,0,1,1.428-1.644,3.59,3.59,0,0,1,1.988-.594,3.364,3.364,0,0,1,2.723,1.154,5,5,0,0,1,.971,3.3v.639h-6.084a3.193,3.193,0,0,0,.776,2.146,2.44,2.44,0,0,0,1.888.818,2.675,2.675,0,0,0,1.378-.332,3.462,3.462,0,0,0,.988-.88l.938.73A3.772,3.772,0,0,1,110.251,18.166Zm-.191-8.052a2.048,2.048,0,0,0-1.561.677,3.288,3.288,0,0,0-.78,1.9h4.5v-.116a2.925,2.925,0,0,0-.631-1.814A1.928,1.928,0,0,0,110.06,10.114Zm13.281,6.8a2.212,2.212,0,0,0,1.436-.5,1.752,1.752,0,0,0,.681-1.245h1.453a2.785,2.785,0,0,1-.531,1.469,3.5,3.5,0,0,1-1.307,1.112,3.772,3.772,0,0,1-1.731.415,3.7,3.7,0,0,1-2.918-1.224,4.877,4.877,0,0,1-1.083-3.349v-.257A5.407,5.407,0,0,1,119.822,11,3.667,3.667,0,0,1,121.2,9.417a3.926,3.926,0,0,1,2.129-.564,3.6,3.6,0,0,1,2.511.9,3.234,3.234,0,0,1,1.067,2.349h-1.453a2.116,2.116,0,0,0-.66-1.432,2.053,2.053,0,0,0-1.465-.56,2.149,2.149,0,0,0-1.814.843,3.957,3.957,0,0,0-.643,2.436v.291a3.878,3.878,0,0,0,.639,2.391A2.16,2.16,0,0,0,123.341,16.913Zm4.889-3.486a5.3,5.3,0,0,1,.519-2.374,3.87,3.87,0,0,1,1.444-1.627,3.932,3.932,0,0,1,2.113-.573,3.788,3.788,0,0,1,2.968,1.27,4.886,4.886,0,0,1,1.133,3.378v.108a5.351,5.351,0,0,1-.5,2.353,3.813,3.813,0,0,1-1.436,1.623,3.977,3.977,0,0,1-2.146.581,3.778,3.778,0,0,1-2.959-1.27,4.861,4.861,0,0,1-1.133-3.362Zm1.544.183a3.842,3.842,0,0,0,.693,2.4A2.349,2.349,0,0,0,134.182,16a4.2,4.2,0,0,0,.689-2.569,3.836,3.836,0,0,0-.7-2.395,2.23,2.23,0,0,0-1.864-.917,2.205,2.205,0,0,0-1.834.9A4.17,4.17,0,0,0,129.774,13.609Zm10-4.59.042,1a3.317,3.317,0,0,1,2.665-1.162,2.568,2.568,0,0,1,2.565,1.444,3.4,3.4,0,0,1,1.166-1.046,3.445,3.445,0,0,1,1.7-.4q2.955,0,3,3.129V18h-1.536V12.073a2.062,2.062,0,0,0-.44-1.44,1.937,1.937,0,0,0-1.478-.477,2.036,2.036,0,0,0-1.419.51,2.071,2.071,0,0,0-.656,1.374V18h-1.544V12.115a1.713,1.713,0,0,0-1.917-1.959,2.055,2.055,0,0,0-2.067,1.287V18h-1.536V9.019Zm17.183,9.147a3.924,3.924,0,0,1-2.972-1.2,4.452,4.452,0,0,1-1.146-3.208v-.282a5.39,5.39,0,0,1,.51-2.386,3.982,3.982,0,0,1,1.428-1.644,3.59,3.59,0,0,1,1.988-.594,3.364,3.364,0,0,1,2.723,1.154,5,5,0,0,1,.971,3.3v.639h-6.084a3.193,3.193,0,0,0,.776,2.146,2.44,2.44,0,0,0,1.888.818,2.675,2.675,0,0,0,1.378-.332,3.462,3.462,0,0,0,.988-.88l.938.73A3.772,3.772,0,0,1,156.959,18.166Zm-.191-8.052a2.048,2.048,0,0,0-1.561.677,3.288,3.288,0,0,0-.78,1.9h4.5v-.116a2.925,2.925,0,0,0-.631-1.814A1.928,1.928,0,0,0,156.768,10.114Zm6.923-1.1.05,1.129a3.273,3.273,0,0,1,2.689-1.295q2.847,0,2.872,3.212V18h-1.536V12.057a2.068,2.068,0,0,0-.444-1.436,1.78,1.78,0,0,0-1.357-.465,2.216,2.216,0,0,0-1.312.4,2.706,2.706,0,0,0-.88,1.046V18h-1.536V9.019ZM173.7,6.844V9.019h1.677v1.187H173.7v5.577a1.247,1.247,0,0,0,.224.81.943.943,0,0,0,.764.27,3.718,3.718,0,0,0,.73-.1V18a4.478,4.478,0,0,1-1.179.165,1.912,1.912,0,0,1-1.552-.623,2.675,2.675,0,0,1-.523-1.768v-5.57h-1.635V9.019h1.635V6.844Zm2.9,6.583a5.3,5.3,0,0,1,.519-2.374,3.87,3.87,0,0,1,1.444-1.627,3.932,3.932,0,0,1,2.113-.573,3.788,3.788,0,0,1,2.968,1.27,4.886,4.886,0,0,1,1.133,3.378v.108a5.351,5.351,0,0,1-.5,2.353,3.813,3.813,0,0,1-1.436,1.623,3.977,3.977,0,0,1-2.146.581,3.778,3.778,0,0,1-2.959-1.27,4.861,4.861,0,0,1-1.133-3.362Zm1.544.183a3.842,3.842,0,0,0,.693,2.4A2.349,2.349,0,0,0,182.551,16a4.2,4.2,0,0,0,.689-2.569,3.836,3.836,0,0,0-.7-2.395,2.23,2.23,0,0,0-1.864-.917,2.205,2.205,0,0,0-1.834.9A4.17,4.17,0,0,0,178.143,13.609Zm8.508,3.586a.962.962,0,0,1,.237-.664.9.9,0,0,1,.71-.266.928.928,0,0,1,.718.266.942.942,0,0,1,.245.664.891.891,0,0,1-.245.639.945.945,0,0,1-.718.257.854.854,0,0,1-.946-.9Zm.008-7.33A.962.962,0,0,1,186.9,9.2a.9.9,0,0,1,.71-.266.928.928,0,0,1,.718.266.942.942,0,0,1,.245.664.891.891,0,0,1-.245.639.945.945,0,0,1-.718.257.854.854,0,0,1-.946-.9Z" transform="translate(-5725.008 -1047.577)" fill="#12263f"/>
    <path id="Path_1006961" data-name="Path 1006961" d="M-5787.8-1148.357l12.154,223.3-44.864-226.848Z" transform="translate(-19.336)" fill="#d6e4c6"/>
    <g id="Group_1187587" data-name="Group 1187587" transform="translate(-5889 -917.585)">
      <g id="Group_1187342" data-name="Group 1187342" clip-path="url(#clip-path)">
        <g id="Group_1187334" data-name="Group 1187334" transform="translate(0 -0.001)">
          <g id="Group_1187333" data-name="Group 1187333" clip-path="url(#clip-path-2)">
            <path id="Path_1001651" data-name="Path 1001651" d="M1354.1,651.141s10.788,40.156,14.384,54.541,4.2,26.971,2.4,31.766-6.593,8.391-6.593,8.391l-15.583,2.4-11.987-65.928,3-35.361Z" transform="translate(-1034.805 -500.826)" fill="#546591"/>
            <path id="Path_1001652" data-name="Path 1001652" d="M1377.295,687.914l-4.495-15.284-.7-14.782,19.578-5.6,4.495,21.876Z" transform="translate(-1062.199 -504.934)" fill="#d68e61"/>
            <path id="Path_1001653" data-name="Path 1001653" d="M1000.674,123.848s-.5,7.192-2.3,10.489c0,0,9.589,4.5,17.681,4.5a55.4,55.4,0,0,0,15.883-2.7l20.078-8.091-12.587-47.348-20.977-9.59L1002.872,84.89Z" transform="translate(-772.884 -55.044)" fill="#3a2624"/>
            <path id="Path_1001654" data-name="Path 1001654" d="M1062.611,265.969c2.641,3.922,11.729,15.266,27.947,14.273,15.8-.968,22.234-13.912,24.129-18.866-5.314-1.468-10-2.821-12.144-4.308-3.078-2.132-6.295-12.678-8.408-20.922-1.449-5.669-2.379-10.246-2.379-10.246l-17.581,17.183s.345,5,.24,9.563a26.065,26.065,0,0,1-.642,6.02c-.49,1.632-5.32,4.27-11.163,7.3" transform="translate(-822.61 -174.877)" fill="#d68e61"/>
            <path id="Path_1001655" data-name="Path 1001655" d="M1114.055,252.645a8.016,8.016,0,0,0,7.75,2.024c6.946-2.122,11.653-17.47,11.97-18.524-1.449-5.669-2.379-10.246-2.379-10.246l-17.581,17.183s.345,5,.24,9.562" transform="translate(-862.249 -174.877)" fill="#ad6842"/>
            <path id="Path_1001656" data-name="Path 1001656" d="M1030.665,94.421s.111,1.212.326,3.129c.044.418.1.867.152,1.345.721,6.159,2.227,16.98,4.318,21.3,2.23,4.609,7.991,12.985,14.583,12.087a21.808,21.808,0,0,0,15.582-10.787,31.13,31.13,0,0,0,3.3-12.887l-3.9-23.974-20.378-6.893Z" transform="translate(-797.88 -60.179)" fill="#d68e61"/>
            <path id="Path_1001657" data-name="Path 1001657" d="M1111.64,184.733a.632.632,0,0,0,.51-.257c1.533-2.081,5.575-.221,5.615-.2a.633.633,0,0,0,.538-1.145c-.2-.1-5.023-2.319-7.172.6a.633.633,0,0,0,.509,1.008" transform="translate(-860.076 -141.068)" fill="#3a2624"/>
            <path id="Path_1001658" data-name="Path 1001658" d="M1040.836,193.127a.632.632,0,0,0,.523-.275c1.4-2.05,5.1-.211,5.132-.192a.633.633,0,1,0,.572-1.129c-.192-.1-4.725-2.348-6.748.606a.633.633,0,0,0,.522.99" transform="translate(-805.264 -147.565)" fill="#3a2624"/>
            <path id="Path_1001659" data-name="Path 1001659" d="M1111.682,154.594a26.658,26.658,0,0,0-3.33-1.6c-1.465-.533-6.926,1.065-6.926,1.065a3.386,3.386,0,0,0,1.6,1.465c.932.266,4.262-.932,5.327-.932Z" transform="translate(-852.659 -118.356)" fill="#513736"/>
            <path id="Path_1001660" data-name="Path 1001660" d="M1032.107,163.149c.044.418.1.867.152,1.344l.661-.1c1.053-.164,4.53.512,5.409.108a3.4,3.4,0,0,0,1.354-1.7s-5.64-.744-7.007.009c-.187.1-.376.215-.569.335" transform="translate(-798.996 -125.779)" fill="#513736"/>
            <path id="Path_1001661" data-name="Path 1001661" d="M1160.185,211.029c2.484,1.491-2.8,7.092-4.795,6.293s2.3-7.791,4.795-6.293" transform="translate(-894.036 -163.203)" fill="#ad6842"/>
            <path id="Path_1001662" data-name="Path 1001662" d="M1167.514,230.653a5.15,5.15,0,0,0,3.344-1.307l-.612-.725a3.986,3.986,0,0,1-4.792.509,6.687,6.687,0,0,1-3.089-6.629c.745-4.613,5.679-5.34,5.889-5.369l-.127-.94c-.058.008-5.84.842-6.7,6.158a7.575,7.575,0,0,0,3.558,7.606,5.116,5.116,0,0,0,2.527.7" transform="translate(-899.04 -167.362)" fill="#eef6ff"/>
            <path id="Path_1001663" data-name="Path 1001663" d="M1070.174,253.562s1.066,2.8,1.863,3.464,6.393.667,8.127-.133c1.557-.721,2.793-3.489,3.021-4.033-.4.158-.882.329-1.458.5-2,.6-10.088.7-10.787.5a5.168,5.168,0,0,1-.756-.3Z" transform="translate(-828.465 -195.748)" fill="#fff"/>
            <path id="Path_1001664" data-name="Path 1001664" d="M1075.741,193.585a7.172,7.172,0,0,0,1.842-.174,2.195,2.195,0,0,0,1.365-2.757.633.633,0,0,0-1.228.307c.04.166.2,1.027-.5,1.238a19.841,19.841,0,0,1-4.876-.089c.04-.686.1-1.843.1-2.9,0-1.592-.256-8.265-.267-8.548a.633.633,0,1,0-1.264.049c0,.069.266,6.932.266,8.5s-.13,3.4-.132,3.418l-.042.6.6.073a39.887,39.887,0,0,0,4.143.285" transform="translate(-829.034 -139.384)" fill="#ad6842"/>
            <path id="Path_1001665" data-name="Path 1001665" d="M1068,250.039a45.567,45.567,0,0,0,8.547-.624c.548-.166,1.056-.341,1.509-.521a9.178,9.178,0,0,0,1.557-.758.633.633,0,1,0-.7-1.053,8.352,8.352,0,0,1-1.323.635c-.42.166-.893.33-1.407.485-1.879.566-9.766.644-10.44.495a4.514,4.514,0,0,1-.649-.261c-.47-.219-.886-.466-.89-.468a.633.633,0,0,0-.649,1.086c.019.012.474.282,1,.527a5.582,5.582,0,0,0,.85.336,16.09,16.09,0,0,0,2.6.121" transform="translate(-823.099 -191.195)" fill="#ad6842"/>
            <path id="Path_1001666" data-name="Path 1001666" d="M1171.52,168.021a.633.633,0,0,0,.62-.514c3.876-20.273-1.448-44.074-1.5-44.311a.633.633,0,0,0-1.234.281c.054.236,5.319,23.784,1.494,43.793a.633.633,0,0,0,.622.751" transform="translate(-905.271 -94.989)" fill="#513736"/>
            <path id="Path_1001667" data-name="Path 1001667" d="M1029.39,251.3a5.014,5.014,0,0,0,3.846-1.884l-.72-.618a3.985,3.985,0,0,1-4.649,1.266,6.687,6.687,0,0,1-4.106-6.052c0-4.657,3.782-5.521,3.82-5.529l-.2-.928a6.273,6.273,0,0,0-4.57,6.458,7.574,7.574,0,0,0,4.725,6.942,5.33,5.33,0,0,0,1.853.345" transform="translate(-791.8 -183.902)" fill="#eef6ff"/>
            <path id="Path_1001668" data-name="Path 1001668" d="M891.066,629.06s-8.7,42.678-8.08,46.407,2.072,6.63,8.287,8.494,14.071-2.21,16.557-8.425,9.944-40.192,9.944-40.192Z" transform="translate(-683.531 -486.98)" fill="#d68e61"/>
            <path id="Path_1001669" data-name="Path 1001669" d="M921.326,486.244c-.035,1.189-.054,2.078-.054,2.546,0,3.6,6.791,6.795,6.791,6.795s18.382,3.195,35.963.8a147.171,147.171,0,0,0,30.766-7.592s4.7-3.612,5.5-7.4a5.417,5.417,0,0,0,.092-.588c.073-.728.095-2.129.076-3.932-.051-5.757-.468-15.63-.705-20.89-.088-1.92-.152-3.227-.164-3.5,0-.016,0-.035,0-.051a40.43,40.43,0,0,0,4.163-.392c.307-.041.626-.089.955-.142,5.457-.873,13.975-3.148,18.856-9.057,0,0-.766-2.6-2.037-6.621-.617-1.948-1.354-4.229-2.179-6.706-2.037-6.1-4.622-13.406-7.317-19.859-.709-1.705-1.43-3.353-2.151-4.9-2.477-5.349-4.95-9.547-7.083-11.049l-.013-.009a29.987,29.987,0,0,0-6.149-3.1c-2.755-1.076-5.871-2.04-9-2.939-.886-.256-1.771-.506-2.651-.75-.44,1.2-1,2.565-1.7,4.014-3.559,7.373-10.752,16.914-24.455,18.356-18.977,2-29.63-12.09-32.657-16.848-2.758,1.43-5.586,2.92-8.183,4.413-2.034,1.167-3.925,2.338-5.526,3.483a16.193,16.193,0,0,0-4.381,4.16,58.893,58.893,0,0,0-3.135,6.494c-.816,1.895-1.7,4.042-2.61,6.326-1.873,4.688-3.866,9.942-5.653,14.763-.762,2.053-1.487,4.03-2.151,5.849-2.138,5.874-3.632,10.119-3.632,10.119s15.981,8.389,31.566,8.791c0,0-.554,13.086-.908,22.611-.1,2.673-.183,5.064-.237,6.807" transform="translate(-689.686 -299.519)" fill="#cfdee5"/>
            <path id="Path_1001670" data-name="Path 1001670" d="M986.366,412.965c5.039,6.564,13.732,9.955,21.779,12.748,10.467,3.638,21.592,7.266,32.426,4.957,7.228-1.541,13.624-5.6,19.846-9.585s12.811-8.465,16.278-14.741l-.013-.009a29.988,29.988,0,0,0-6.149-3.1c-2.395,1.714-3.517,4.837-7.775,8.531-9.088,7.8-19.827,14.611-31.781,15.329-13.086.788-25.613-5.909-35.393-14.633a27.612,27.612,0,0,0-3.692-2.98c-2.034,1.167-3.925,2.338-5.526,3.483" transform="translate(-763.586 -312.16)" fill="#eef6ff"/>
            <path id="Path_1001671" data-name="Path 1001671" d="M941.535,478.476c4.112,3.742,9.879,6.285,14.462,8.288,12.469,5.45,25.233,10.973,38.8,12.049a62.641,62.641,0,0,0,56.3-27.777c.044-.066.086-.136.127-.209-.708-1.705-1.43-3.353-2.151-4.9-.215.13-.417.275-.617.421-12.808,9.4-23.49,23.762-39.24,25.834a47.188,47.188,0,0,1-13.482-.611,142.4,142.4,0,0,1-31.455-8.626c-3.695-1.471-13.086-7.725-20.134-10.793-.816,1.895-1.7,4.043-2.61,6.327" transform="translate(-728.88 -360.69)" fill="#eef6ff"/>
            <path id="Path_1001672" data-name="Path 1001672" d="M906.983,583.96c7.1,3.843,15.193,5.833,22.411,9.553,5.659,2.913,10.736,6.874,16.458,9.664,12.637,6.159,27.283,6.137,41.34,5.988,6.526-.07,13.3-.2,19.147-3.1a27.455,27.455,0,0,0,5.861-4.04c-.088-1.92-.152-3.227-.164-3.5,0-.016,0-.035,0-.051a40.441,40.441,0,0,0,4.163-.392c3.663-3.922,7.1-8.187,11.46-11.258,2.126-1.493,4.5-2.736,6.314-4.561-.617-1.948-1.354-4.229-2.179-6.706-4.179,1.895-8.085,6.988-11.132,10.151l-10.673,11.1a16.141,16.141,0,0,1-4.093,3.4,15.9,15.9,0,0,1-5.181,1.3c-15.241,2.012-31.016,3.555-45.766-.775-15.19-4.46-27.922-14.747-42.305-21.362a16.439,16.439,0,0,0-3.508-1.262c-.763,2.053-1.487,4.03-2.151,5.849" transform="translate(-702.132 -445.562)" fill="#eef6ff"/>
            <path id="Path_1001673" data-name="Path 1001673" d="M1025.595,794.594a71.717,71.717,0,0,0,8.9,1.923,135.4,135.4,0,0,0,70.063-6.779,5.388,5.388,0,0,0,.092-.588c.073-.727.095-2.129.076-3.932a123.751,123.751,0,0,0-20.694,5.166,62.692,62.692,0,0,1-9.487,3.125c-4.058.778-8.243.4-12.353-.041a345.562,345.562,0,0,1-36.365-5.681c-.1,2.673-.183,5.064-.237,6.807" transform="translate(-793.955 -607.868)" fill="#eef6ff"/>
            <path id="Path_1001674" data-name="Path 1001674" d="M1047.065,389.382c3.027,4.758,13.681,18.847,32.657,16.848,16.392-1.724,23.471-15.041,26.15-22.37l-3.22-.889c-1.895,4.954-8.326,17.9-24.129,18.866-16.218.993-25.306-10.35-27.947-14.273-1.139.595-2.319,1.2-3.511,1.819" transform="translate(-810.575 -296.472)" fill="#a8bacc"/>
            <path id="Path_1001675" data-name="Path 1001675" d="M1023.189,642a.633.633,0,0,0,.632-.623c0-.255.406-25.611,1.194-31.9.794-6.337,1.989-24.627,2-24.811a.633.633,0,1,0-1.263-.082c-.012.184-1.2,18.436-1.994,24.736-.8,6.353-1.187,30.987-1.2,32.033a.633.633,0,0,0,.623.642h.01" transform="translate(-791.602 -452.094)" fill="#a8bacc"/>
            <path id="Path_1001676" data-name="Path 1001676" d="M1294.2,383.406c4.131,13.412,16.96,57.488,17.934,68.541,0,0,.376,15.477.526,18.057.025.419,2.028,9.834,2.5,9.717.727-.178.359-12.529,1.748-30.532.051-.171.076-.266.076-.266s-5.46-43.279-17.148-63.976c-.885-.256-1.771-.506-2.651-.75-1.129-.254-1.466-.329-2.989-.791" transform="translate(-1001.894 -296.809)" fill="#546591"/>
            <path id="Path_1001677" data-name="Path 1001677" d="M1080.872,865.871s9.589,16.482,11.987,29.069,4.795,44.951,4.795,44.951h-95.3s7.792-61.134,8.99-63.831a12.98,12.98,0,0,1,2.1-3.6Z" transform="translate(-775.965 -670.305)" fill="#e46b55"/>
            <path id="Path_1001678" data-name="Path 1001678" d="M1051.484,844.8a8.226,8.226,0,0,0-.9,6.092s25.918,4.154,37.759,2.7c19.479-2.4,29.668-9.29,29.668-9.29s2.2-4.2.2-6.294c0,0-17.879,6.192-30.766,7.592s-35.963-.8-35.963-.8" transform="translate(-813.106 -648.732)" fill="#bc5036"/>
            <path id="Path_1001679" data-name="Path 1001679" d="M1323.249,894.342a.643.643,0,0,0,.19-.029.633.633,0,0,0,.414-.793c-.181-.574-4.443-14.1-6.46-17.327a.633.633,0,1,0-1.073.67c1.932,3.092,6.282,16.9,6.326,17.036a.633.633,0,0,0,.6.443" transform="translate(-1018.942 -678.065)" fill="#bc5036"/>
            <path id="Path_1001680" data-name="Path 1001680" d="M1104.565,950.675a.633.633,0,0,0,.631-.593c0-.064.4-6.544.8-18.8.394-12.2,3.161-29.713,3.189-29.889a.633.633,0,0,0-1.25-.2c-.028.176-2.808,17.762-3.2,30.047-.395,12.235-.794,18.7-.8,18.76a.632.632,0,0,0,.592.671h.04" transform="translate(-854.598 -697.238)" fill="#bc5036"/>
            <path id="Path_1001681" data-name="Path 1001681" d="M1078.028,921.735a.633.633,0,0,0,.633-.633c0-8.148,6.266-21.17,6.33-21.3a.633.633,0,1,0-1.139-.552c-.264.544-6.456,13.413-6.456,21.853a.633.633,0,0,0,.633.633" transform="translate(-834.056 -695.868)" fill="#bc5036"/>
            <path id="Path_1001682" data-name="Path 1001682" d="M1277.309,945.2l.055,0a.632.632,0,0,0,.576-.685c-.02-.232-2.019-23.3-3.6-31.63-1.595-8.37-6.392-18.822-6.441-18.927a.632.632,0,1,0-1.148.53c.047.1,4.781,10.417,6.346,18.633,1.574,8.263,3.567,31.27,3.587,31.5a.633.633,0,0,0,.63.578" transform="translate(-980.594 -691.761)" fill="#bc5036"/>
            <path id="Path_1001683" data-name="Path 1001683" d="M1257.163,926.359h.04a.632.632,0,0,0,.592-.671c0-.064-.4-6.429-.4-11.148,0-4.832-3.475-16.471-3.623-16.964a.633.633,0,0,0-1.212.364c.036.119,3.569,11.953,3.569,16.6,0,4.76.4,11.163.4,11.227a.633.633,0,0,0,.631.593" transform="translate(-969.639 -694.499)" fill="#bc5036"/>
            <path id="Path_1001684" data-name="Path 1001684" d="M1167.1,15.394a3.067,3.067,0,0,0,1.34-1.176c.748-1.452-.742-2.984-1.36-4.5-.682-1.667-.28-3.622-.939-5.3-.811-2.063-3.05-3.225-5.229-3.631s-4.43-.24-6.62-.582A9.209,9.209,0,0,0,1152.335,0a4.877,4.877,0,0,0-3.089,1.592,6.179,6.179,0,0,0-1.493,6.639,7.251,7.251,0,0,0,3.924,3.4c1.631.692,3.382,1.056,5.045,1.669,4.285,1.579,5.728,4.628,10.375,2.089" transform="translate(-888.184 0.004)" fill="#3a2624"/>
            <path id="Path_1001685" data-name="Path 1001685" d="M1158.037,24.5s6.393-4,11.787,1.2c3.872,3.729,3.4,9.789,2,10.389S1158.037,24.5,1158.037,24.5" transform="translate(-896.483 -17.831)" fill="#e46b55"/>
            <path id="Path_1001686" data-name="Path 1001686" d="M1017.947,47.048s3.6,11.188,3.6,33.564c0,9.309-.6,16.182-.6,16.182S1035.328,94,1041.322,89c0,0,2.2-4.728,1.931-6.726a24.405,24.405,0,0,1,.4,5.328s4.928-3.2,5.327-5.461-.4-8.524-4.129-18.913-16.915-33.5-22.109-36.56-26.771-11.987-37.16,4.2-4.4,31.166-7.592,45.55S971.4,93.8,971.4,93.8L974,95s3.8-2.8,5.794-9.59a100.124,100.124,0,0,0,4.995-34.563s15.383-.2,19.379-2c0,0,1-7.991-.8-10.189,0,0,4,5.993,3.6,9.989,0,0,9.29-.2,10.988-1.6" transform="translate(-751.999 -16.603)" fill="#513736"/>
            <path id="Path_1001687" data-name="Path 1001687" d="M962.406,197a.63.63,0,0,0,.494-.238c.1-.13,2.585-3.278,6.016-11.155,3.443-7.9,4.359-24.182,4.4-24.871a.633.633,0,0,0-1.263-.068c-.009.166-.941,16.739-4.293,24.434s-5.82,10.841-5.844,10.872a.633.633,0,0,0,.495,1.027" transform="translate(-744.548 -123.912)" fill="#513736"/>
            <path id="Path_1001688" data-name="Path 1001688" d="M1236.622,137.332a.633.633,0,0,0,.622-.748c-2.99-16.146-16.171-33.363-16.3-33.535a.633.633,0,0,0-1,.773c.131.17,13.128,17.15,16.061,32.992a.633.633,0,0,0,.622.518" transform="translate(-944.302 -79.582)" fill="#3a2624"/>
            <path id="Path_1001689" data-name="Path 1001689" d="M1200.41,219.336a.633.633,0,0,0,.622-.52c1.2-6.611-1.095-25.749-1.193-26.561a.633.633,0,1,0-1.256.153c.024.2,2.372,19.759,1.2,26.182a.632.632,0,0,0,.623.746" transform="translate(-927.868 -148.401)" fill="#3a2624"/>
            <path id="Path_1001690" data-name="Path 1001690" d="M1216.8,193.867a.633.633,0,0,0,.631-.593c.3-4.829-2.875-19.054-3.011-19.657a.633.633,0,1,0-1.235.277c.033.146,3.273,14.651,2.982,19.3a.632.632,0,0,0,.592.671h.04" transform="translate(-939.166 -134.02)" fill="#3a2624"/>
            <path id="Path_1001691" data-name="Path 1001691" d="M1066.53,80.317a.633.633,0,0,0,.633-.633V72.192c0-4.857,2.872-9.507,2.9-9.554a.633.633,0,1,0-1.073-.671,21.845,21.845,0,0,0-3.093,10.224v7.492a.633.633,0,0,0,.633.633" transform="translate(-825.154 -47.74)" fill="#3a2624"/>
            <path id="Path_1001692" data-name="Path 1001692" d="M1152.521,81.623a.633.633,0,0,0,.633-.633c0-3.052-3.647-9.991-3.8-10.285a.633.633,0,0,0-1.119.591c1.017,1.925,3.656,7.42,3.656,9.694a.633.633,0,0,0,.633.633" transform="translate(-888.836 -54.474)" fill="#3a2624"/>
            <path id="Path_1001693" data-name="Path 1001693" d="M1147.575,98.552A.632.632,0,0,0,1148.2,98c.278-2.222-1.557-7.2-1.767-7.759a.633.633,0,0,0-1.185.444c.541,1.442,1.9,5.538,1.7,7.158a.633.633,0,0,0,.629.711" transform="translate(-886.553 -69.539)" fill="#3a2624"/>
            <path id="Path_1001694" data-name="Path 1001694" d="M1032.269,101.825a.633.633,0,0,0,.619-.767c-1.013-4.685,1.283-10.9,1.306-10.965a.633.633,0,0,0-1.185-.444c-.1.268-2.45,6.625-1.358,11.677a.634.634,0,0,0,.618.5" transform="translate(-798.419 -69.082)" fill="#3a2624"/>
            <path id="Path_1001695" data-name="Path 1001695" d="M1127.541,406.949l.511-1.107c.072-.156,7.227-15.708,9.563-25.051,3.336-13.344,1.53-19.03,1.451-19.265a.633.633,0,0,0-1.2.4c.027.086,1.742,5.679-1.478,18.56-1.945,7.782-7.3,19.986-8.977,23.712-2.417-4.182-11.215-19.426-13.154-23.182a35.9,35.9,0,0,1-3.929-17.635.632.632,0,1,0-1.26-.11,36.576,36.576,0,0,0,4.064,18.326c2.257,4.371,13.685,24.1,13.8,24.3Z" transform="translate(-858.532 -279.536)" fill="#546591"/>
            <path id="Path_1001696" data-name="Path 1001696" d="M1180.01,555.267l-9.39-1.2-.2,3.2,9.59,1.2Z" transform="translate(-906.07 -428.926)" fill="#546591"/>
            <path id="Path_1001697" data-name="Path 1001697" d="M1178.337,660.228c0,1.58,5.6,2.86,12.513,2.86s12.513-1.28,12.513-2.86-5.6-2.86-12.513-2.86-12.513,1.281-12.513,2.86" transform="translate(-912.198 -508.894)" fill="#a1655c"/>
            <path id="Path_1001698" data-name="Path 1001698" d="M1201.461,763.412c5.2,0,9.417.964,9.417,2.153v1.67c0,1.189-4.216,2.152-9.417,2.152s-9.418-.964-9.418-2.152v-1.67c0-1.189,4.216-2.153,9.418-2.153" transform="translate(-922.809 -590.987)" fill="#e0b1a9"/>
            <path id="Path_1001699" data-name="Path 1001699" d="M1177.758,629.648s.964,14.006,1.6,23.313c.073,1.059.142,2.056.2,2.966.211,3.061.353,5.121.353,5.131,0,1.04,2.981,1.921,7.1,2.22.358.027.725.047,1.1.065.111.006.223.01.335.014.4.015.808.025,1.223.029l.439,0c5.629,0,10.193-1.043,10.193-2.33l.2-2.849.318-4.576,1.667-23.985-12.365.756Z" transform="translate(-911.75 -487.435)" fill="#f8b951"/>
            <path id="Path_1001700" data-name="Path 1001700" d="M1288.392,670.587l0-.056h0c0,.018,0,.038,0,.056" transform="translate(-997.396 -519.084)" fill="#d68e61"/>
            <path id="Path_1001701" data-name="Path 1001701" d="M1179.075,670.531l0,.056c0-.018,0-.038,0-.056Z" transform="translate(-912.77 -519.084)" fill="#d68e61"/>
            <path id="Path_1001702" data-name="Path 1001702" d="M1178.354,670.357l.895,14.822c.1,1.478,5.3,2.657,11.614,2.657s11.514-1.178,11.615-2.657l.9-14.822c-.172,1.546-5.708,2.787-12.51,2.787s-12.338-1.241-12.509-2.787" transform="translate(-912.211 -518.95)" fill="#c69471"/>
            <path id="Path_1001703" data-name="Path 1001703" d="M1278.64,693.16a.35.35,0,0,0,.349-.327l.809-12.145a.351.351,0,0,0-.7-.047l-.809,12.145a.35.35,0,0,0,.326.373h.024" transform="translate(-989.575 -526.658)" fill="#a1655c"/>
            <path id="Path_1001704" data-name="Path 1001704" d="M1269.484,696.147a.351.351,0,0,0,.35-.332l.647-12.145a.351.351,0,0,0-.331-.369.347.347,0,0,0-.369.331l-.647,12.145a.35.35,0,0,0,.331.369h.019" transform="translate(-982.488 -528.97)" fill="#a1655c"/>
            <path id="Path_1001705" data-name="Path 1001705" d="M1260.331,697.641a.351.351,0,0,0,.35-.336l.485-12.145a.35.35,0,0,0-.336-.364.354.354,0,0,0-.364.336l-.485,12.145a.351.351,0,0,0,.337.364h.014" transform="translate(-975.401 -530.126)" fill="#a1655c"/>
            <path id="Path_1001706" data-name="Path 1001706" d="M1251.175,698.637a.351.351,0,0,0,.35-.341l.324-12.145a.351.351,0,0,0-.341-.36h-.01a.351.351,0,0,0-.35.341l-.324,12.145a.351.351,0,0,0,.341.36h.009" transform="translate(-968.314 -530.898)" fill="#a1655c"/>
            <path id="Path_1001707" data-name="Path 1001707" d="M1242.019,700.131a.351.351,0,0,0,.351-.346l.162-12.145a.351.351,0,0,0-.7-.009l-.162,12.146a.351.351,0,0,0,.346.355Z" transform="translate(-961.226 -532.054)" fill="#a1655c"/>
            <path id="Path_1001708" data-name="Path 1001708" d="M1232.865,700.131a.351.351,0,0,0,.351-.351V687.635a.351.351,0,0,0-.7,0v12.145a.35.35,0,0,0,.35.351" transform="translate(-954.139 -532.054)" fill="#a1655c"/>
            <path id="Path_1001709" data-name="Path 1001709" d="M1223.155,700.131h0a.35.35,0,0,0,.346-.355l-.162-12.146a.35.35,0,0,0-.7.009l.162,12.145a.351.351,0,0,0,.351.346" transform="translate(-946.497 -532.054)" fill="#a1655c"/>
            <path id="Path_1001710" data-name="Path 1001710" d="M1213.445,698.637h.01a.351.351,0,0,0,.341-.36l-.324-12.145a.35.35,0,0,0-.35-.341h-.01a.35.35,0,0,0-.341.36l.323,12.145a.351.351,0,0,0,.35.341" transform="translate(-938.856 -530.898)" fill="#a1655c"/>
            <path id="Path_1001711" data-name="Path 1001711" d="M1203.735,697.64h.014a.351.351,0,0,0,.337-.364l-.486-12.145a.35.35,0,0,0-.7.028l.485,12.145a.351.351,0,0,0,.35.337" transform="translate(-931.213 -530.126)" fill="#a1655c"/>
            <path id="Path_1001712" data-name="Path 1001712" d="M1194.026,696.147h.019a.351.351,0,0,0,.331-.369l-.647-12.145a.35.35,0,1,0-.7.037l.647,12.145a.351.351,0,0,0,.35.332" transform="translate(-923.572 -528.97)" fill="#a1655c"/>
            <path id="Path_1001713" data-name="Path 1001713" d="M1184.316,693.16h.023a.351.351,0,0,0,.327-.373l-.809-12.145a.351.351,0,0,0-.7.047l.809,12.145a.351.351,0,0,0,.35.327" transform="translate(-915.929 -526.657)" fill="#a1655c"/>
            <path id="Path_1001714" data-name="Path 1001714" d="M1200.761,614.364V618c0,1.715-6.082,3.105-13.585,3.105s-13.585-1.39-13.585-3.105v-3.639Z" transform="translate(-908.524 -475.603)" fill="#844840"/>
            <path id="Path_1001715" data-name="Path 1001715" d="M1173.59,603.721c0,1.715,6.082,3.105,13.585,3.105s13.585-1.39,13.585-3.105-6.082-3.105-13.585-3.105-13.585,1.39-13.585,3.105" transform="translate(-908.523 -464.96)" fill="#a1655c"/>
            <path id="Path_1001716" data-name="Path 1001716" d="M1208.995,605.6v1.808c0,1.287-4.563,2.33-10.193,2.33s-10.193-1.043-10.193-2.33V605.6Z" transform="translate(-920.15 -468.822)" fill="#844840"/>
            <path id="Path_1001717" data-name="Path 1001717" d="M1188.61,597.619c0,1.287,4.563,2.33,10.193,2.33s10.193-1.043,10.193-2.33-4.564-2.33-10.193-2.33-10.193,1.043-10.193,2.33" transform="translate(-920.151 -460.836)" fill="#a1655c"/>
            <path id="Path_1001718" data-name="Path 1001718" d="M1206.223,601.231c0,.7,2.782,1.276,6.215,1.276s6.215-.571,6.215-1.276-2.783-1.276-6.215-1.276-6.215.571-6.215,1.276" transform="translate(-933.786 -464.449)" fill="#844840"/>
            <path id="Path_1001719" data-name="Path 1001719" d="M1200.052,598.2l.036.021.271.156.667.259a.151.151,0,0,0,.119,0,9.723,9.723,0,0,1,2.161-.679.138.138,0,0,0,.114-.106v-.007l0-.052.016-.462h-.015l-3.323.271h-.01v.026l0,.069Z" transform="translate(-929.009 -462.416)" fill="#844840"/>
            <path id="Path_1001720" data-name="Path 1001720" d="M1202.89,595.521a10.191,10.191,0,0,0-2.628.627.133.133,0,0,0,.005.249l.856.332a.155.155,0,0,0,.119,0,9.717,9.717,0,0,1,2.161-.68.133.133,0,0,0,.048-.251l-.474-.257a.151.151,0,0,0-.088-.017" transform="translate(-929.106 -461.016)" fill="#543b30"/>
            <path id="Path_1001721" data-name="Path 1001721" d="M1255.978,620.055h.03a21.882,21.882,0,0,0,6.4-1.3.346.346,0,0,0-.278-.633,21.749,21.749,0,0,1-6.176,1.24.346.346,0,0,0,.029.69" transform="translate(-972.036 -478.492)" fill="#c69471"/>
            <path id="Path_1001722" data-name="Path 1001722" d="M1252.378,609.438h.011a12.208,12.208,0,0,0,3.793-.643.346.346,0,0,0-.254-.643,11.8,11.8,0,0,1-3.561.595.346.346,0,0,0,.011.692" transform="translate(-969.249 -470.775)" fill="#c69471"/>
            <path id="Path_1001723" data-name="Path 1001723" d="M885.531,697.377a16.823,16.823,0,0,1,10.6-9.744l40.482-11.483,5.114-1.629s5.793-3.851,8.365-5.468,14.581-4.629,17.2-4.812,9.484,3.16,11.216,4.639a8.608,8.608,0,0,1,2.364,3.835s.132,2.174-1.052,2.312a7.167,7.167,0,0,1-2.994-.733,3.823,3.823,0,0,1-.249,3.028l-4.929-.089s4.133.721,4.543,1.154.833,3.563-.658,4.156l-4.5.255c1.236-.062,4.088-.164,4.505.209.535.478.677,3.9-.507,4.033l-6.807.789s-13.671,3.684-15.31,3.514a34.5,34.5,0,0,1-5.568-1.721c-4.256,2.088-41.45,20.3-45.216,21.09-3.995.833-13.356,2.764-16.816-4.766a10.782,10.782,0,0,1,.219-8.567" transform="translate(-684.741 -514.209)" fill="#d68e61"/>
            <path id="Path_1001724" data-name="Path 1001724" d="M1261.836,695.253a.656.656,0,0,1,.182-1.3c2.453.344,4.874.4,5.42.134a5.426,5.426,0,0,0-.118-3.279,46.637,46.637,0,0,0-6.063-2.839.656.656,0,1,1,.5-1.213c1.36.562,5.851,2.45,6.511,3.146.872.919.76,3.654.37,4.728-.1.272-.344.95-2.92.95a28.618,28.618,0,0,1-3.884-.327m5.568-1.07h0Z" transform="translate(-976.077 -531.607)" fill="#ad6842"/>
            <path id="Path_1001725" data-name="Path 1001725" d="M1262.228,727.052a.656.656,0,0,1,.012-1.312h.012a29.247,29.247,0,0,0,5.134-.224,7.531,7.531,0,0,0,.41-3.052,3.789,3.789,0,0,0-1.248-.611.656.656,0,1,1,.382-1.255,4.5,4.5,0,0,1,1.926,1.088c.65.831.057,4.159-.549,4.787-.162.169-.569.592-4.729.592-.412,0-.862,0-1.351-.013" transform="translate(-976.644 -557.821)" fill="#ad6842"/>
            <path id="Path_1001726" data-name="Path 1001726" d="M1155.412,753.485c2.092,0,12.38-2.915,14.644-3.564,1.628-.129,6.648-.588,7.621-1.378.947-.769.817-2.635.513-3.63-.312-1.021-.812-1.274-1.176-1.306a.656.656,0,0,0-.254,1.28,3.45,3.45,0,0,1,.338,1.741,1.379,1.379,0,0,1-.248.9c-.507.378-4.009.862-6.963,1.094l-.066.005-.063.018c-4.97,1.426-13.271,3.645-14.367,3.531-1.951-.2-8.108-1.608-9.094-3.176a.656.656,0,1,0-1.111.7c1.476,2.348,9.044,3.676,10.069,3.782a1.528,1.528,0,0,0,.157.007" transform="translate(-886.457 -575.653)" fill="#ad6842"/>
            <path id="Path_1001727" data-name="Path 1001727" d="M964.242,795.722a.651.651,0,0,0,.273-.06l43.662-20.046a.656.656,0,1,0-.547-1.192l-43.662,20.046a.656.656,0,0,0,.274,1.252" transform="translate(-745.95 -599.465)" fill="#ad6842"/>
            <path id="Path_1001728" data-name="Path 1001728" d="M934.731,725.766a.631.631,0,0,0,.173-.024l41.108-11.653a.632.632,0,1,0-.345-1.217l-41.109,11.653a.633.633,0,0,0,.172,1.241" transform="translate(-723.123 -551.843)" fill="#ad6842"/>
            <path id="Path_1001729" data-name="Path 1001729" d="M1590.228,381.462s-12.036,17.245-13.653,18.683a13.877,13.877,0,0,1-7.006,2.515c-1.617,0-14.551,3.772-21.677,2.4-2.469-.477-6.842-4.739-6.842-4.739s-.224-7.177,2.471-9.512,23.174-8.264,23.174-8.264a3.759,3.759,0,0,1,.18,3.772c-1.078,1.976-5.928,5.569-5.928,5.569l7.545-1.078s7.365-11.5,8.083-12.4,2.875,0,2.875,0l-1.976,5.569s4.132-4.132,5.749-5.569,4.177.584,4.177.584l-1.662,2.111a3.592,3.592,0,0,1,2.515-1.078,3.092,3.092,0,0,1,1.976,1.437" transform="translate(-1192.986 -292.541)" fill="#d68e61"/>
            <path id="Path_1001730" data-name="Path 1001730" d="M1649.911,398.865a.67.67,0,0,0,.252-.049l10.4-4.2.11-.136,11-13.608a.674.674,0,0,0-1.049-.848L1659.736,393.5l-10.078,4.066a.674.674,0,0,0,.252,1.3" transform="translate(-1276.741 -294)" fill="#ad6842"/>
            <path id="Path_1001731" data-name="Path 1001731" d="M1649.115,412.06a.675.675,0,0,0,.188-.027l4.732-1.37,7.074-7.684a.674.674,0,0,0-.992-.913l-6.818,7.406-4.37,1.265a.674.674,0,0,0,.187,1.322" transform="translate(-1276.125 -311.087)" fill="#ad6842"/>
            <path id="Path_1001732" data-name="Path 1001732" d="M1427.708,470.921s-31.766,64.13-32.964,68.126-1.389,14.816,6.393,17.98c9.09,3.7,16.582-2,20.578-13.186,5.78-16.185,18.78-67.327,18.78-67.327Z" transform="translate(-1079.249 -364.558)" fill="#d68e61"/>
            <path id="Path_1001733" data-name="Path 1001733" d="M1426.54,520.329a.632.632,0,0,0,.565-.347l25.772-50.945a.633.633,0,1,0-1.129-.571l-25.772,50.945a.633.633,0,0,0,.564.918" transform="translate(-1103.853 -362.389)" fill="#ad6842"/>
            <path id="Path_1001734" data-name="Path 1001734" d="M1580.134,486.917c4.5,0,16.655-3.1,17.195-3.234a.674.674,0,1,0-.334-1.306c-.136.035-13.663,3.48-17.339,3.174a9.157,9.157,0,0,1-5.358-2.063.674.674,0,0,0-.949.957,10.3,10.3,0,0,0,6.2,2.449c.178.015.376.022.591.022" transform="translate(-1217.839 -373.41)" fill="#ad6842"/>
            <path id="Path_1001735" data-name="Path 1001735" d="M167.311,1007.271s3.113,11.787,3.713,19.579,1.8,21.577,1.8,21.577h-88.1s-.4-21.177,1.2-26.771,5.594-15.583,5.594-15.583Z" transform="translate(-65.549 -778.84)" fill="#c69471"/>
          </g>
        </g>
        <g id="Group_1187339" data-name="Group 1187339" transform="translate(19.124 227.231)">
          <g id="Group_1187338" data-name="Group 1187338" clip-path="url(#clip-path-3)">
            <g id="Group_1187337" data-name="Group 1187337" transform="translate(-11.222 -4.805)" opacity="0.4">
              <g id="Group_1187336" data-name="Group 1187336" transform="translate(0)">
                <g id="Group_1187335" data-name="Group 1187335" clip-path="url(#clip-path-4)">
                  <path id="Path_1001736" data-name="Path 1001736" d="M128.667,1039.019l.135-.58c1.894-8.133.27-16.44-1.3-24.474-1.543-7.892-3.138-16.052-1.3-23.887a2.878,2.878,0,0,1,1.253-1.745,1.138,1.138,0,0,1,.979-.085c.388.142.583.473.807,1.036a118.7,118.7,0,0,1,8.508,40.909l0,.106a9.793,9.793,0,0,0,1.127,5.176,6.44,6.44,0,0,0,6.055,2.793l.732-.1-.1-.732a432.517,432.517,0,0,0-10.494-52.094.735.735,0,1,0-1.421.378,431.082,431.082,0,0,1,10.348,51.121,5.02,5.02,0,0,1-3.875-2.152,8.414,8.414,0,0,1-.9-4.432l0-.107A120.151,120.151,0,0,0,130.6,988.74a2.939,2.939,0,0,0-1.668-1.873,2.6,2.6,0,0,0-2.182.172,4.348,4.348,0,0,0-1.986,2.7c-1.906,8.142-.28,16.461,1.293,24.5,1.5,7.677,3.052,15.609,1.447,23.248-4.126-.514-4.839-5.425-4.96-6.975l-2.661-34.1c-.227-2.907-1.643-4.685-3.884-4.878a3.8,3.8,0,0,0-3.019,1.008,6.294,6.294,0,0,0-1.652,4.61l1.114,38.742a2.416,2.416,0,0,1-1.341.364,3.936,3.936,0,0,1-2.686-.937c-.978-1-1.038-2.366-1.013-3.921l.543-34.219c.044-2.811-1.221-4.646-3.387-4.908a3.7,3.7,0,0,0-2.917.842,6.231,6.231,0,0,0-1.875,4.352,179.01,179.01,0,0,1-5.91,38.473,3.058,3.058,0,0,1-1.911-.958,6.4,6.4,0,0,1-1.258-4.639l2.991-38.181-.33-.242a2.677,2.677,0,0,0-2.383-.375,5.283,5.283,0,0,0-3.187,2.849c-2.4,5.786-1.916,11.912-1.445,17.836.118,1.475.239,3,.311,4.486.456,9.328-1.828,15.677-7.183,19.947-1.717-.4-1.707-2.514-1.617-3.438l3.945-40.319-9.122-.553.008.789a130.554,130.554,0,0,1-6.627,42.189,3.1,3.1,0,0,1-3.091-.713,4.349,4.349,0,0,1-.777-3.05A177.2,177.2,0,0,1,65.5,996.8a6.676,6.676,0,0,0-.183-4.492,4.713,4.713,0,0,0-5.13-2.2l-.48.128-4.542,37.161a7.688,7.688,0,0,1-1.51,4.408,5.081,5.081,0,0,1-4.425,1.464,205.716,205.716,0,0,0,4.968-40.07,5.683,5.683,0,0,0-1.02-4.036,4.361,4.361,0,0,0-5.15-1l-.259.156-.074.293a201.071,201.071,0,0,0-6.189,48.645,4.783,4.783,0,0,1-3.84-1.747,7.151,7.151,0,0,1-1.1-4.086A87.633,87.633,0,0,1,46.937,985.9a.735.735,0,0,0-1.3-.688A89.1,89.1,0,0,0,35.1,1031.5a8.479,8.479,0,0,0,1.391,4.892,6.194,6.194,0,0,0,5.893,2.231l.591-.118v-.6a199.5,199.5,0,0,1,6.063-48.6,3.067,3.067,0,0,1,3.015.806,4.359,4.359,0,0,1,.676,3.054,204.273,204.273,0,0,1-5.083,40.447l-.14.611.581.235a6.433,6.433,0,0,0,6.664-1.671,8.964,8.964,0,0,0,1.873-5.21l4.416-36.126a3.279,3.279,0,0,1,2.969,1.532,5.5,5.5,0,0,1,.049,3.539,178.717,178.717,0,0,0-3.346,35.059,5.758,5.758,0,0,0,1.152,4.025,4.4,4.4,0,0,0,5.2.845l.211-.141.08-.24a132.136,132.136,0,0,0,6.8-42.148l6.026.365-3.8,38.8c-.221,2.259.5,4.782,3.194,5.091l.3.034.236-.182c5.868-4.527,8.486-11.521,8-21.38-.074-1.508-.2-3.044-.314-4.53-.457-5.75-.931-11.7,1.337-17.155a3.873,3.873,0,0,1,2.224-2,1.4,1.4,0,0,1,.782-.023l-2.921,37.29c-.068.863-.148,3.827,1.647,5.756a4.653,4.653,0,0,0,3.506,1.458h.041l.559,0,.146-.54a180.512,180.512,0,0,0,6.114-39.368,4.814,4.814,0,0,1,1.358-3.293,2.21,2.21,0,0,1,1.789-.5c1.865.226,2.112,2.243,2.094,3.425l-.543,34.219c-.023,1.459-.055,3.458,1.433,4.975a5.327,5.327,0,0,0,3.764,1.377,3.536,3.536,0,0,0,2.6-1.021l.2-.219-.008-.3L112.8,997.114a4.879,4.879,0,0,1,1.191-3.5,2.305,2.305,0,0,1,1.883-.612c1.988.171,2.448,2.283,2.545,3.527l2.661,34.1c.311,3.985,2.311,8.278,6.992,8.373Z" transform="translate(-34.985 -984.799)" fill="#f9dcd4"/>
                </g>
              </g>
            </g>
          </g>
        </g>
        <g id="Group_1187341" data-name="Group 1187341" transform="translate(0 -0.001)">
          <g id="Group_1187340" data-name="Group 1187340" clip-path="url(#clip-path-2)">
            <path id="Path_1001738" data-name="Path 1001738" d="M309.144,1057.273a.632.632,0,0,0,.5-.244c.293-.377,2.876-3.718,3.3-4.983.406-1.218-.485-18.226-.767-23.409a.633.633,0,0,0-1.263.069c.453,8.307,1.078,21.886.826,22.958a29.894,29.894,0,0,1-3.091,4.589.632.632,0,0,0,.5,1.021" transform="translate(-238.831 -795.845)" fill="#a1655c"/>
            <path id="Path_1001739" data-name="Path 1001739" d="M112.481,1052.338c4.667,0,10.677-.794,12.215-2.332,2.082-2.082,3.248-8.958,3.374-9.736a.633.633,0,0,0-1.249-.2c-.325,2-1.5,7.525-3.019,9.044-1.78,1.78-13.471,2.585-16.085,1.464a.633.633,0,0,0-.5,1.163,16.308,16.308,0,0,0,5.263.6" transform="translate(-82.705 -804.746)" fill="#a1655c"/>
            <path id="Path_1001740" data-name="Path 1001740" d="M403.659,1053.624a17.033,17.033,0,0,0,3.62-.385.633.633,0,0,0-.293-1.231c-.054.013-5.492,1.264-8.667-1.091-3.865-2.868-4.8-8.719-4.813-8.778a.633.633,0,0,0-1.251.191c.039.261,1.021,6.421,5.31,9.6a10.276,10.276,0,0,0,6.093,1.691" transform="translate(-303.656 -806.346)" fill="#a1655c"/>
            <path id="Path_1001741" data-name="Path 1001741" d="M163.08,1038.682c14.484,0,31.86-5.984,32.039-6.046a.633.633,0,0,0-.416-1.195c-.183.064-18.44,6.352-32.939,5.958-14.82-.4-32.939-3.966-38.015-7.479a.633.633,0,0,0-.72,1.04c5.238,3.626,23.684,7.3,38.7,7.7.446.012.9.018,1.35.018" transform="translate(-95.031 -797.214)" fill="#a1655c"/>
            <path id="Path_1001742" data-name="Path 1001742" d="M14.376,471.761c4.527,16.382,8.389,17.98,8.389,17.98s-.8,13.254-.8,16.449,4,7.99,4,7.99,28.368,10.391,45.949,9.192a78.28,78.28,0,0,0,29.852-7.993s2.8-3.195,2.8-5.593-2.082-53.009-2.082-53.009c24.373,6.791,25.372,30.566,25.372,30.566,10.388-2,12.587-14.383,10.79-21.576-1.292-5.172-24.775-75.117-30.769-80.713-4.02-3.752-15.5-9.211-23.547-12.78l-.595-.266c-.357-.155-.709-.31-1.047-.456a29.171,29.171,0,0,1-2.781,12.7c-3.195,7.193-10.787,12.387-10.787,12.387s-22.377-13.985-24.775-17.581a35.575,35.575,0,0,1-3.8-8.392l-1.385.658c-.762.414-1.547.844-2.344,1.291-13.858,7.775-32.138,20.238-35.628,28.02-5.194,11.587,8.022,52.44,13.187,71.122" transform="translate(0 -286.95)" fill="#546591"/>
            <path id="Path_1001743" data-name="Path 1001743" d="M255.059,600.654s-12.586,2.7-21.3,3.9-25.5,1.8-25.5,1.8,2.582,15.283,2.582,17.681-.323,8.091-.323,8.091,22.268-1.8,28.4-1.8,19.686-3.3,19.686-3.3-.968-12.886-1.291-16.182a86.118,86.118,0,0,0-2.259-10.189" transform="translate(-161.226 -464.99)" fill="#444472"/>
            <path id="Path_1001744" data-name="Path 1001744" d="M161.516,372.544s-.519.2-.475.3a58.3,58.3,0,0,0,7.367,14.609c6.977,9.769,26.172,18.38,26.172,18.38s12.517-13.747,13.985-18.78c2.8-9.591.748-14.633.748-14.633l-.323-.145-.595-.266-1.047-.471v.016a29.171,29.171,0,0,1-2.781,12.7c-3.195,7.193-10.787,12.387-10.787,12.387s-17.382-4.6-24.774-17.581a62.042,62.042,0,0,1-3.8-8.392l-1.385.658Z" transform="translate(-124.667 -286.95)" fill="#444472"/>
            <path id="Path_1001745" data-name="Path 1001745" d="M156.149,571.451a.633.633,0,0,0,.614-.788c-.051-.2-5.108-20.256-6.685-28.533a173.868,173.868,0,0,0-4.414-17.255.633.633,0,0,0-1.206.383,172.612,172.612,0,0,1,4.376,17.108c1.584,8.313,6.65,28.4,6.7,28.605a.633.633,0,0,0,.613.478" transform="translate(-111.808 -405.986)" fill="#444472"/>
            <path id="Path_1001746" data-name="Path 1001746" d="M127.543,557.947a.634.634,0,0,0,.62-.762,18.665,18.665,0,0,0-11.192-13.252.633.633,0,0,0-.433,1.189c.1.036,8.488,3.212,10.386,12.321a.633.633,0,0,0,.619.5" transform="translate(-89.895 -421.05)" fill="#444472"/>
            <path id="Path_1001747" data-name="Path 1001747" d="M152.607,767.641s-1.6,4.795-5.194,4.795c0,0-9.757-4.219-10.788-12.986-1.8-15.283,3.3-19.779,3.3-19.779l7.492-2.8Z" transform="translate(-105.469 -570.444)" fill="#444472"/>
            <path id="Path_1001748" data-name="Path 1001748" d="M106.885,895.921a20.122,20.122,0,0,0,4.851-.617,23.5,23.5,0,0,0,6.406-2.615.633.633,0,0,0-.68-1.067c-.1.063-9.964,6.2-18.5.8a.633.633,0,1,0-.677,1.069,15.866,15.866,0,0,0,8.6,2.432" transform="translate(-75.859 -690.163)" fill="#444472"/>
            <path id="Path_1001749" data-name="Path 1001749" d="M443.454,751.912l-3,2s12.586,5.794,16.382,14.385a39.7,39.7,0,0,1,3.6,15.583s4.8,2.2,8.391-1.4c0,0-.8-12.187-8.591-20.378a36.671,36.671,0,0,0-16.782-10.189" transform="translate(-340.976 -582.085)" fill="#444472"/>
            <path id="Path_1001750" data-name="Path 1001750" d="M438.546,570.283h.024a.633.633,0,0,0,.609-.655c-.988-27.081-3.771-52.338-3.8-52.59a.633.633,0,1,0-1.258.14c.028.252,2.806,25.464,3.792,52.5a.633.633,0,0,0,.632.61" transform="translate(-336.068 -399.823)" fill="#444472"/>
            <path id="Path_1001751" data-name="Path 1001751" d="M439.174,526.332a.633.633,0,0,0,.632-.606,14.937,14.937,0,0,1,3.436-8.2.633.633,0,0,0-.943-.843,15.966,15.966,0,0,0-3.757,8.986.633.633,0,0,0,.606.658h.027" transform="translate(-339.492 -399.824)" fill="#444472"/>
            <path id="Path_1001752" data-name="Path 1001752" d="M334.439,777.714,277.7,759.134l17.581-15.183,19.179,3.8s13.186,6.193,16.382,14.384a56.164,56.164,0,0,1,3.6,15.583" transform="translate(-214.98 -575.922)" fill="#ffa67c"/>
            <path id="Path_1001753" data-name="Path 1001753" d="M174.645,600.734l38.614-22.113,7.5-4.908s9.464-9.89,11.453-10.875,16.084-1.827,17.076-1.823,13.977,4.318,13.977,4.318-1.7,2.872-3.682,2.865-9.422-1.523-9.422-1.523l-8.445,2.45.289,2.383s10.111,3.114,12,2.823,9.744-5.026,12.623-5.313,3.866,1.2,3.866,1.2l-1.394,1.285a4.82,4.82,0,0,1,3.271,1.153l-2.986,2.346a20.969,20.969,0,0,1,2.128,1.571l-10.9,9.041s-4.536,5.541-5.083,5.886-10.178,1.7-11.817,1.991-14.126-4.517-14.126-4.517l-11.519,9.666L179.84,631.5s-7.991-.8-8.391-13.585,3.2-17.181,3.2-17.181" transform="translate(-132.701 -434.303)" fill="#ffa67c"/>
            <path id="Path_1001754" data-name="Path 1001754" d="M488.016,615.219c3.687,0,8.95-.06,10.269-.384,2.057-.506,11.814-8.132,12.92-9a.62.62,0,0,0-.766-.975c-4.1,3.215-11.1,8.438-12.451,8.771-1.567.386-10.414.368-13.69.329a.62.62,0,0,0-.015,1.239c.172,0,1.717.02,3.732.02" transform="translate(-374.43 -468.143)" fill="#d86742"/>
            <path id="Path_1001755" data-name="Path 1001755" d="M501.766,623.883c2.929,0,5.872-.2,6.783-.946,1.678-1.371,14.022-11.908,14.146-12.015a.62.62,0,1,0-.8-.943c-.124.106-12.458,10.635-14.126,12-1.035.846-7.942.749-12.515.41a.62.62,0,1,0-.092,1.236c.946.07,3.771.26,6.608.26" transform="translate(-382.877 -472.094)" fill="#d86742"/>
            <path id="Path_1001756" data-name="Path 1001756" d="M497.336,672.012h.027c.392-.017,9.606-.419,11.33-.818,1.822-.422,3.958-2.691,4.2-2.948a.62.62,0,0,0-.91-.841c-.575.622-2.336,2.3-3.565,2.581-1.339.31-8.47.673-11.1.787a.62.62,0,0,0,.026,1.239" transform="translate(-384.528 -516.51)" fill="#d86742"/>
            <path id="Path_1001757" data-name="Path 1001757" d="M517.912,578.282a.62.62,0,0,0,.591-.435,12,12,0,0,0,.33-1.965.62.62,0,0,0-1.235-.108,10.674,10.674,0,0,1-.279,1.7.62.62,0,0,0,.592.8" transform="translate(-400.457 -445.29)" fill="#d86742"/>
            <path id="Path_1001758" data-name="Path 1001758" d="M415.132,668.907a.62.62,0,0,0,.263-1.181c-1.242-.581-2.671-3.027-3.117-3.921a.62.62,0,1,0-1.109.553c.184.368,1.849,3.623,3.7,4.49a.616.616,0,0,0,.262.059" transform="translate(-318.253 -513.612)" fill="#d86742"/>
            <path id="Path_1001759" data-name="Path 1001759" d="M183.539,719.246a.631.631,0,0,0,.317-.086l8.091-4.695a.633.633,0,0,0-.635-1.095l-8.091,4.7a.633.633,0,0,0,.318,1.18" transform="translate(-141.594 -552.183)" fill="#d86742"/>
            <path id="Path_1001760" data-name="Path 1001760" d="M206.537,725.02a.629.629,0,0,0,.411-.152l49.946-42.754a.633.633,0,1,0-.823-.961l-49.946,42.754a.633.633,0,0,0,.412,1.113" transform="translate(-159.398 -527.189)" fill="#d86742"/>
            <path id="Path_1001761" data-name="Path 1001761" d="M119.63,705.063s-10.389-3.8-12.986-3.6-15.183,7.392-15.183,7.392a7.088,7.088,0,0,0,1.8,2.2l-2.2,1.8s1.8,1.8,2.8,1.8l-1.465.866a4.375,4.375,0,0,0,3.663,1.732c1.837-.131,13.186-6.393,13.186-6.393Z" transform="translate(-70.494 -543.027)" fill="#ffa67c"/>
            <path id="Path_1001762" data-name="Path 1001762" d="M88.6,724.258a.629.629,0,0,0,.288-.07l13.756-7.058,4.278.856a.633.633,0,1,0,.248-1.241l-4.712-.942-14.148,7.26a.633.633,0,0,0,.289,1.2" transform="translate(-68.097 -554.131)" fill="#d86742"/>
            <path id="Path_1001763" data-name="Path 1001763" d="M95.084,741.522a.632.632,0,0,0,.235-.045l12.578-5.031,4.049-.522a.633.633,0,1,0-.162-1.255l-4.208.543L94.849,740.3a.633.633,0,0,0,.235,1.22" transform="translate(-73.118 -568.731)" fill="#d86742"/>
            <path id="Path_1001764" data-name="Path 1001764" d="M173.379,353.267l1.385-.658a72.019,72.019,0,0,0,3.8,8.392c7.393,13.385,24.775,17.581,24.775,17.581s7.592-5.194,10.787-12.387a29.171,29.171,0,0,0,2.781-12.7c-3.979-1.743-6.776-2.879-6.776-2.879s-16.828-4.4-24.174-3c-2.129.4-6.836,2.54-12.574,5.653" transform="translate(-134.22 -268.889)" fill="#f9dcd4"/>
            <path id="Path_1001765" data-name="Path 1001765" d="M212.567,337.059s-3.474,3.2-4.035,4.695c0,0,4.809,11.751,14.3,13.785,11.341,2.431,15.828-3.829,15.828-3.829s.522-4.363-.788-5.86c0,0-7.76,5.094-15.05,1.2a25.21,25.21,0,0,1-10.256-9.989" transform="translate(-161.433 -260.93)" fill="#e0b1a9"/>
            <path id="Path_1001766" data-name="Path 1001766" d="M226.526,244.041a25.337,25.337,0,0,0,10.226,9.933c7.292,3.9,15.051-1.2,15.051-1.2a2.186,2.186,0,0,1,.183.245,19.914,19.914,0,0,1,1.437-6.421c.333-.842.664-1.651.983-2.417,1.656-3.966,3.036-6.773,3.036-6.773l-8.786-15.981-10.2-3.8-2.132-.795-1.03,6.792s-.3,5.577-5.256,14.57c-1.611,2.924-2.772,4.763-3.507,5.848" transform="translate(-175.363 -167.857)" fill="#ffa67c"/>
            <path id="Path_1001767" data-name="Path 1001767" d="M274.848,220.755s4.3,21.178,9.72,25.173c2.341,1.724,5.2,1.5,7.246.977,1.655-3.967,3.034-6.772,3.034-6.772l-8.785-15.981-10.206-3.8Z" transform="translate(-212.771 -170.581)" fill="#ed7f62"/>
            <path id="Path_1001768" data-name="Path 1001768" d="M245.461,38.024s7.192,3.2,10.988,1.8,9.74-5.794,12.936-5.394a9.4,9.4,0,0,1,5.244,2.6s2-5.594-.8-9.19a22.459,22.459,0,0,0-13.585-7.791c-5.794-1-21.976.2-23.774,1.2a11.964,11.964,0,0,0-2.4,1.6s-.1-3.1,1.3-4.2a4.32,4.32,0,0,0-3.9,1.8,16.813,16.813,0,0,0-2,4.2s-3.8-.6-4.994,2a2.749,2.749,0,0,1,2.6.8,13.417,13.417,0,0,0-4.895,7.392c-1.3,4.995-1,17.281.8,20.877s6.793,13.286,6.793,13.286,4.229-1.265,4.895-2.065,6.393-9.057,6.393-9.057,3.862-.666,4.662-3.2c1.6-5.061-.266-16.649-.266-16.649" transform="translate(-171.386 -14.422)" fill="#ab584a"/>
            <path id="Path_1001769" data-name="Path 1001769" d="M293.566,57.037a.633.633,0,0,0,.074-1.261c-.082-.01-8.232-1-10.654-3.051-2.8-2.372-7.535-1.378-7.735-1.334a.633.633,0,1,0,.269,1.236c.042-.009,4.325-.9,6.649,1.064,2.711,2.294,10.972,3.3,11.322,3.342a.61.61,0,0,0,.076,0" transform="translate(-212.696 -39.594)" fill="#844840"/>
            <path id="Path_1001770" data-name="Path 1001770" d="M378.307,39.832a.633.633,0,0,0,.387-1.134c-.3-.228-7.319-5.565-14.138-3.706a.633.633,0,0,0,.333,1.221c6.217-1.7,12.965,3.435,13.032,3.487a.631.631,0,0,0,.386.132" transform="translate(-281.857 -26.784)" fill="#844840"/>
            <path id="Path_1001771" data-name="Path 1001771" d="M351.364,53.42a29.038,29.038,0,0,0,5.553-.9.633.633,0,0,0-.307-1.228c-1.791.448-4.968,1.062-5.866.8a.633.633,0,1,0-.348,1.217,3.678,3.678,0,0,0,.967.1" transform="translate(-270.901 -39.694)" fill="#844840"/>
            <path id="Path_1001772" data-name="Path 1001772" d="M233.2,92.293a.633.633,0,0,0,.614-.786,24,24,0,0,1,.017-6.187c.371-4.445,5.288-8.1,5.337-8.133a.633.633,0,0,0-.747-1.021c-.222.162-5.432,4.024-5.851,9.049-.4,4.844,0,6.53.017,6.6a.633.633,0,0,0,.613.479" transform="translate(-179.907 -58.868)" fill="#844840"/>
            <path id="Path_1001773" data-name="Path 1001773" d="M252.386,142.055a.633.633,0,0,0,.608-.459c.033-.116.811-2.845,1.015-4.065.211-1.27-.7-6.424-.8-7.008a.633.633,0,0,0-1.246.222,41.138,41.138,0,0,1,.8,6.577c-.192,1.15-.975,3.9-.983,3.926a.633.633,0,0,0,.608.807" transform="translate(-194.893 -100.638)" fill="#844840"/>
            <path id="Path_1001774" data-name="Path 1001774" d="M234.638,168.248a.626.626,0,0,0,.2-.033.632.632,0,0,0,.4-.8l-2.6-7.791a.633.633,0,0,0-1.2.4l2.6,7.791a.633.633,0,0,0,.6.433" transform="translate(-179.142 -123.235)" fill="#844840"/>
            <path id="Path_1001775" data-name="Path 1001775" d="M418.085,87.065s-1.8,4.6-5.794,4.995-5.594-8.79-5.594-8.79,10.589.2,11.388,3.8" transform="translate(-314.841 -64.461)" fill="#844840"/>
            <path id="Path_1001776" data-name="Path 1001776" d="M296.994,90.344s3.725,8.591,4.346,12.986,0,7.392.828,9.989,4.553,6.992,4.553,6.992-2.07,2.8-4.76,3.4c0,0-1.242,16.183-3.1,19.778s-8.072,2.8-10.969,2-11.176-6.793-13.866-12.186-2.69-7.991-2.69-7.991-5.588.2-6.83-1.4-6-10.988-3.311-13.585,7.037-.666,9.106,3.063c0,0,3.449-.733,4.829-3.2s-.276-16.649-.276-16.649,6.105,1.7,9.624,1.3,12.521-4.5,12.521-4.5" transform="translate(-201.57 -69.938)" fill="#ffa67c"/>
            <path id="Path_1001777" data-name="Path 1001777" d="M421.44,225.976c-1.133-1.029-.663-3.054-.605-3.281a.644.644,0,0,1,1.249.313c-.117.475-.218,1.572.2,1.993a8.643,8.643,0,0,0,3.678.062,4.893,4.893,0,0,0,3.819-2.573.644.644,0,0,1,1.191.49,6.155,6.155,0,0,1-4.8,3.354,13.7,13.7,0,0,1-2.118.166,4.586,4.586,0,0,1-2.609-.525" transform="translate(-325.673 -171.929)" fill="#d86742"/>
            <path id="Path_1001778" data-name="Path 1001778" d="M380.3,148.685s-.266,1.881-1.665,2.281-5.576.5-6.992.7a20.637,20.637,0,0,1-3.263.066,5.59,5.59,0,0,1,2.531-2.8c1.9-1,9.39-.25,9.39-.25" transform="translate(-285.144 -114.893)" fill="#ab584a"/>
            <path id="Path_1001779" data-name="Path 1001779" d="M396.39,176.44c-2.531,0-1.6,5.993.266,5.727s2-5.727-.266-5.727" transform="translate(-305.665 -136.588)" fill="#3a2624"/>
            <path id="Path_1001780" data-name="Path 1001780" d="M402.239,253.768s-7.725.932-9.989-.666c0,0,1.465,5.194,3.33,5.594s5.86-.666,5.86-.666Z" transform="translate(-303.657 -195.936)" fill="#fff"/>
            <path id="Path_1001781" data-name="Path 1001781" d="M331.926,222.923c-1.978,1.28,4,8.657,6.393,7.059s-4.129-8.524-6.393-7.059" transform="translate(-256.652 -172.416)" fill="#d86742"/>
            <path id="Path_1001782" data-name="Path 1001782" d="M286.846,204.581a.633.633,0,0,0,.616-.779c-1.246-5.26-5.951-8.135-6.15-8.255a.633.633,0,0,0-.652,1.085c.057.035,4.452,2.738,5.571,7.462a.633.633,0,0,0,.615.487" transform="translate(-217.033 -151.311)" fill="#d86742"/>
            <path id="Path_1001783" data-name="Path 1001783" d="M284.525,216.893a.632.632,0,0,0,.545-.31,2.969,2.969,0,0,1,1.661-1.366,1.321,1.321,0,0,1,1.092.44.633.633,0,0,0,.863-.925,2.536,2.536,0,0,0-2.139-.767,4.176,4.176,0,0,0-2.567,1.973.633.633,0,0,0,.544.955" transform="translate(-219.773 -165.62)" fill="#d86742"/>
            <path id="Path_1001784" data-name="Path 1001784" d="M384.48,247.959c-.573-.371-.994-.648-1.25-.822-.3-.2-.789-.538-.469-1.064.149-.245.451-.466,1.044-.127l-.02.036c.118.084.45.312,1.382.915,1.7,1.1,7.493.784,9.581.568a.633.633,0,0,1,.13,1.259c-.4.041-2.322.228-4.465.228-2.239,0-4.716-.2-5.933-.992m-1.291-.934a.633.633,0,0,0,.592-1.036Z" transform="translate(-296.231 -190.262)" fill="#d86742"/>
            <path id="Path_1001785" data-name="Path 1001785" d="M399.516,295.643a.632.632,0,0,0,.507-.253c.717-.956,3.465-1.089,5.031-.948a.633.633,0,0,0,.114-1.26c-.486-.044-4.787-.379-6.157,1.449a.633.633,0,0,0,.506,1.012" transform="translate(-308.792 -226.923)" fill="#d86742"/>
            <path id="Path_1001786" data-name="Path 1001786" d="M386.837,177.394a.632.632,0,0,0,.57-.357,2.523,2.523,0,0,1,1.493-1.407,4.624,4.624,0,0,1,3.037.393.633.633,0,1,0,.589-1.12,5.8,5.8,0,0,0-4.022-.475,3.772,3.772,0,0,0-2.236,2.057.633.633,0,0,0,.569.909" transform="translate(-298.976 -134.878)" fill="#3a2624"/>
            <path id="Path_1001787" data-name="Path 1001787" d="M326.155,62.629s3.729,5.993,1.2,11.854a6.875,6.875,0,0,0-4.262-3.862c-3.063-.8-8.258.533-8.258.533l.932,2.8s-16.249.533-18.38-1.864c0,0,2.264,7.325,2.4,9.723l-2.264-2s-4.928-.8-5.061-1.2-4-10.788-4-10.788l8.924-1.065,11.588,2Z" transform="translate(-223.31 -48.483)" fill="#ab584a"/>
          </g>
        </g>
      </g>
    </g>
  </g>
</svg>
