<svg xmlns="http://www.w3.org/2000/svg" xmlns:xlink="http://www.w3.org/1999/xlink" width="1240" height="487" viewBox="0 0 1240 487">
  <defs>
    <clipPath id="clip-path">
      <rect id="Rectangle_455341" data-name="Rectangle 455341" width="633.618" height="430" fill="none"/>
    </clipPath>
    <clipPath id="clip-path-2">
      <rect id="Rectangle_455338" data-name="Rectangle 455338" width="633.619" height="441.265" fill="none"/>
    </clipPath>
    <clipPath id="clip-path-3">
      <path id="Path_1001737" data-name="Path 1001737" d="M86.655,1030.928c-2.549,8.922-1.912,42.7-1.912,42.7h140.53s-1.912-21.988-2.868-34.416-5.922-31.229-5.922-31.229l-120.906-1.912s-6.373,15.933-8.922,24.856" transform="translate(-84.673 -1006.072)" fill="none"/>
    </clipPath>
    <clipPath id="clip-path-4">
      <rect id="Rectangle_455339" data-name="Rectangle 455339" width="176.533" height="86.483" fill="none"/>
    </clipPath>
  </defs>
  <g id="img32" transform="translate(-179.711 -8413)">
    <rect id="Rectangle_455442" data-name="Rectangle 455442" width="1240" height="487" transform="translate(179.711 8413)" fill="none"/>
    <g id="Group_1187346" data-name="Group 1187346" transform="translate(-52.289 762)">
      <g id="Group_1187343" data-name="Group 1187343" transform="translate(582 7707.456)">
        <g id="Group_1187342" data-name="Group 1187342" clip-path="url(#clip-path)">
          <g id="Group_1187334" data-name="Group 1187334" transform="translate(0 -0.001)">
            <g id="Group_1187333" data-name="Group 1187333" clip-path="url(#clip-path-2)">
              <path id="Path_1001651" data-name="Path 1001651" d="M1364.439,653.638s17.208,64.051,22.944,87,6.692,43.02,3.824,50.667-10.516,13.384-10.516,13.384l-24.856,3.824-19.12-105.159,4.78-56.4Z" transform="translate(-855.155 -413.878)" fill="#546591"/>
              <path id="Path_1001652" data-name="Path 1001652" d="M1380.385,709.134l-7.17-24.378-1.114-23.579,31.228-8.925,7.17,34.894Z" transform="translate(-877.794 -417.273)" fill="#d68e61"/>
              <path id="Path_1001653" data-name="Path 1001653" d="M1002.042,155.232s-.8,11.472-3.664,16.73c0,0,15.3,7.17,28.2,7.17a88.358,88.358,0,0,0,25.334-4.3l32.026-12.906L1063.862,86.4l-33.459-15.3-24.856,21.988Z" transform="translate(-638.706 -45.488)" fill="#3a2624"/>
              <path id="Path_1001654" data-name="Path 1001654" d="M1062.611,289.812c4.213,6.257,18.709,24.35,44.577,22.765,25.207-1.544,35.465-22.19,38.487-30.091-8.476-2.341-15.944-4.5-19.37-6.872-4.909-3.4-10.041-20.222-13.411-33.371-2.311-9.042-3.794-16.343-3.794-16.343l-28.042,27.407s.55,7.972.383,15.253a41.59,41.59,0,0,1-1.024,9.6c-.782,2.6-8.486,6.811-17.806,11.65" transform="translate(-679.799 -144.517)" fill="#d68e61"/>
              <path id="Path_1001655" data-name="Path 1001655" d="M1114.2,268.56c2.593,2.285,6.963,4.879,12.362,3.229,11.08-3.385,18.588-27.866,19.092-29.546-2.311-9.042-3.794-16.342-3.794-16.342l-28.043,27.407s.55,7.972.383,15.253" transform="translate(-712.556 -144.517)" fill="#ad6842"/>
              <path id="Path_1001656" data-name="Path 1001656" d="M1030.665,104.348s.176,1.932.52,4.99c.071.666.156,1.383.242,2.145,1.15,9.823,3.552,27.084,6.887,33.971,3.557,7.351,12.745,20.712,23.26,19.279s20.394-8.764,24.854-17.205a49.651,49.651,0,0,0,5.263-20.556l-6.216-38.24-32.5-10.994Z" transform="translate(-659.362 -49.731)" fill="#d68e61"/>
              <path id="Path_1001657" data-name="Path 1001657" d="M1112.016,186.224a1.008,1.008,0,0,0,.813-.411c2.446-3.319,8.892-.353,8.956-.322a1.009,1.009,0,0,0,.859-1.826c-.326-.154-8.013-3.7-11.439.952a1.009,1.009,0,0,0,.812,1.608" transform="translate(-710.76 -116.577)" fill="#3a2624"/>
              <path id="Path_1001658" data-name="Path 1001658" d="M1041.212,194.619a1.008,1.008,0,0,0,.833-.439c2.238-3.269,8.127-.337,8.186-.307a1.009,1.009,0,1,0,.912-1.8c-.306-.155-7.537-3.745-10.763.967a1.009,1.009,0,0,0,.832,1.579" transform="translate(-665.464 -121.946)" fill="#3a2624"/>
              <path id="Path_1001659" data-name="Path 1001659" d="M1117.784,155.61a42.525,42.525,0,0,0-5.311-2.549c-2.337-.85-11.047,1.7-11.047,1.7a5.4,5.4,0,0,0,2.549,2.337c1.487.425,6.8-1.487,8.5-1.487Z" transform="translate(-704.631 -97.807)" fill="#513736"/>
              <path id="Path_1001660" data-name="Path 1001660" d="M1032.107,163.549c.071.666.156,1.383.242,2.144l1.054-.161c1.68-.262,7.225.817,8.628.171a5.421,5.421,0,0,0,2.16-2.7s-9-1.186-11.176.015c-.3.161-.6.343-.908.535" transform="translate(-660.284 -103.942)" fill="#513736"/>
              <path id="Path_1001661" data-name="Path 1001661" d="M1163.344,211.154c3.962,2.378-4.461,11.312-7.648,10.038s3.664-12.428,7.648-10.038" transform="translate(-738.825 -134.869)" fill="#ad6842"/>
              <path id="Path_1001662" data-name="Path 1001662" d="M1171.188,239.258a8.214,8.214,0,0,0,5.334-2.085l-.977-1.156a6.357,6.357,0,0,1-7.643.812,10.667,10.667,0,0,1-4.927-10.574c1.188-7.358,9.058-8.518,9.393-8.563l-.2-1.5c-.093.012-9.316,1.343-10.685,9.822a12.083,12.083,0,0,0,5.676,12.132,8.158,8.158,0,0,0,4.031,1.111" transform="translate(-742.96 -138.306)" fill="#eef6ff"/>
              <path id="Path_1001663" data-name="Path 1001663" d="M1070.174,253.98s1.7,4.465,2.972,5.525,10.2,1.065,12.962-.212c2.483-1.15,4.455-5.565,4.818-6.433-.636.252-1.408.525-2.326.8-3.184.959-16.09,1.115-17.205.8a8.245,8.245,0,0,1-1.206-.479Z" transform="translate(-684.637 -161.764)" fill="#fff"/>
              <path id="Path_1001664" data-name="Path 1001664" d="M1078.617,201.638a11.442,11.442,0,0,0,2.938-.278c2.411-.723,2.478-3.193,2.176-4.4a1.009,1.009,0,0,0-1.958.49c.063.266.327,1.638-.8,1.975-1.245.373-5.091.139-7.777-.141.063-1.094.153-2.94.153-4.628,0-2.539-.408-13.183-.425-13.635a1.009,1.009,0,1,0-2.017.077c0,.11.424,11.057.424,13.558,0,2.483-.208,5.422-.21,5.452l-.068.958.953.116a63.619,63.619,0,0,0,6.608.455" transform="translate(-685.107 -115.186)" fill="#ad6842"/>
              <path id="Path_1001665" data-name="Path 1001665" d="M1070.824,251.861c4.536,0,11.365-.313,13.632-1,.874-.264,1.684-.543,2.407-.83a14.639,14.639,0,0,0,2.483-1.208,1.009,1.009,0,1,0-1.119-1.679,13.306,13.306,0,0,1-2.11,1.012c-.669.266-1.425.526-2.244.773-3,.9-15.578,1.027-16.651.789a7.219,7.219,0,0,1-1.035-.417c-.749-.349-1.412-.743-1.419-.747a1.009,1.009,0,0,0-1.035,1.733c.031.018.755.45,1.6.841a8.9,8.9,0,0,0,1.356.535,25.663,25.663,0,0,0,4.139.193" transform="translate(-680.203 -158.001)" fill="#ad6842"/>
              <path id="Path_1001666" data-name="Path 1001666" d="M1172.789,194.987a1.009,1.009,0,0,0,.99-.82c6.182-32.337-2.31-70.3-2.4-70.679a1.009,1.009,0,0,0-1.968.448c.085.376,8.484,37.937,2.383,69.852a1.009,1.009,0,0,0,.992,1.2" transform="translate(-748.109 -78.497)" fill="#513736"/>
              <path id="Path_1001667" data-name="Path 1001667" d="M1033.3,259.48a8,8,0,0,0,6.135-3l-1.149-.985a6.357,6.357,0,0,1-7.416,2.019,10.666,10.666,0,0,1-6.549-9.653c0-7.428,6.033-8.807,6.094-8.82l-.317-1.48c-.073.016-7.29,1.662-7.29,10.3a12.082,12.082,0,0,0,7.537,11.073,8.5,8.5,0,0,0,2.955.55" transform="translate(-654.338 -151.974)" fill="#eef6ff"/>
              <path id="Path_1001668" data-name="Path 1001668" d="M895.893,629.06S882.013,697.134,883,703.082s3.3,10.575,13.218,13.549,22.444-3.525,26.409-13.439,15.862-64.108,15.862-64.108Z" transform="translate(-564.865 -402.436)" fill="#d68e61"/>
              <path id="Path_1001669" data-name="Path 1001669" d="M939.428,545.355c-.055,1.9-.086,3.315-.086,4.062,0,5.737,10.832,10.838,10.832,10.838s29.32,5.1,57.362,1.271a234.745,234.745,0,0,0,49.073-12.109s7.493-5.762,8.774-11.806a8.631,8.631,0,0,0,.146-.938c.116-1.16.151-3.4.121-6.272-.081-9.183-.747-24.93-1.125-33.32-.141-3.062-.242-5.147-.262-5.575,0-.025-.005-.055-.005-.081a64.5,64.5,0,0,0,6.64-.626c.489-.066,1-.141,1.524-.227,8.7-1.393,22.291-5.021,30.077-14.446,0,0-1.221-4.152-3.25-10.56-.984-3.108-2.16-6.746-3.476-10.7-3.25-9.738-7.372-21.383-11.67-31.676-1.13-2.72-2.281-5.348-3.431-7.82-3.95-8.532-7.9-15.227-11.3-17.624-.005-.005-.015-.01-.02-.015a47.835,47.835,0,0,0-9.808-4.945c-4.395-1.716-9.365-3.254-14.355-4.687-1.413-.409-2.826-.807-4.228-1.2-.7,1.917-1.59,4.092-2.7,6.4-5.676,11.761-17.149,26.978-39.007,29.279-30.268,3.189-47.262-19.284-52.09-26.873-4.4,2.281-8.91,4.657-13.053,7.039-3.244,1.862-6.261,3.729-8.814,5.555-3.224,2.3-5.711,4.541-6.988,6.635a93.933,93.933,0,0,0-5,10.358c-1.3,3.022-2.71,6.448-4.162,10.091-2.987,7.477-6.166,15.858-9.016,23.547-1.216,3.275-2.371,6.428-3.431,9.329-3.411,9.37-5.793,16.141-5.793,16.141s25.49,13.381,50.349,14.021c0,0-.883,20.873-1.448,36.065-.156,4.264-.293,8.078-.378,10.858" transform="translate(-569.951 -247.519)" fill="#cfdee5"/>
              <path id="Path_1001670" data-name="Path 1001670" d="M986.366,418.755c8.037,10.469,21.9,15.878,34.738,20.334,16.7,5.8,34.44,11.589,51.721,7.906,11.529-2.457,21.731-8.931,31.655-15.288,9.909-6.337,20.434-13.5,25.964-23.512-.005-.005-.015-.01-.02-.015a47.833,47.833,0,0,0-9.808-4.945c-3.82,2.735-5.611,7.715-12.4,13.608-14.5,12.442-31.625,23.305-50.692,24.451-20.873,1.256-40.853-9.425-56.454-23.341a44.051,44.051,0,0,0-5.888-4.753c-3.244,1.862-6.261,3.729-8.814,5.555" transform="translate(-631.022 -257.966)" fill="#eef6ff"/>
              <path id="Path_1001671" data-name="Path 1001671" d="M941.535,485.944c6.559,5.969,15.757,10.026,23.068,13.219,19.889,8.693,40.248,17.5,61.883,19.219,34.935,2.765,70.743-14.9,89.805-44.3.07-.106.136-.217.2-.333-1.13-2.72-2.281-5.348-3.431-7.82-.343.207-.666.439-.984.671-20.429,15-37.468,37.9-62.589,41.207-7.14.943-14.4.146-21.5-.974a227.133,227.133,0,0,1-50.173-13.759c-5.893-2.346-20.874-12.321-32.115-17.216-1.3,3.022-2.709,6.448-4.162,10.091" transform="translate(-602.341 -298.071)" fill="#eef6ff"/>
              <path id="Path_1001672" data-name="Path 1001672" d="M906.983,588.959c11.317,6.13,24.234,9.3,35.747,15.237,9.027,4.647,17.124,10.964,26.252,15.414,20.157,9.823,43.517,9.788,65.94,9.551,10.409-.111,21.221-.318,30.54-4.95a43.789,43.789,0,0,0,9.349-6.443c-.141-3.063-.242-5.147-.262-5.575,0-.025-.005-.055-.005-.081a64.511,64.511,0,0,0,6.64-.626c5.843-6.257,11.322-13.058,18.28-17.957,3.391-2.382,7.18-4.365,10.071-7.276-.984-3.108-2.159-6.746-3.477-10.7-6.665,3.022-12.9,11.146-17.755,16.191l-17.024,17.7a25.746,25.746,0,0,1-6.529,5.429,25.361,25.361,0,0,1-8.264,2.069c-24.309,3.209-49.471,5.671-73-1.236-24.229-7.114-44.537-23.522-67.479-34.073a26.227,26.227,0,0,0-5.6-2.013c-1.216,3.275-2.372,6.428-3.431,9.329" transform="translate(-580.237 -368.208)" fill="#eef6ff"/>
              <path id="Path_1001673" data-name="Path 1001673" d="M1025.595,800.173a114.429,114.429,0,0,0,14.2,3.068,215.978,215.978,0,0,0,111.753-10.812,8.659,8.659,0,0,0,.146-.938c.116-1.16.151-3.4.121-6.272-11.2,2-22.337,4.349-33.008,8.239-4.995,1.821-9.91,3.981-15.131,4.985-6.473,1.241-13.149.641-19.7-.066a551.181,551.181,0,0,1-58-9.062c-.156,4.264-.292,8.078-.378,10.858" transform="translate(-656.118 -502.337)" fill="#eef6ff"/>
              <path id="Path_1001674" data-name="Path 1001674" d="M1047.065,393.2c4.828,7.588,21.822,30.061,52.09,26.873,26.146-2.75,37.438-23.992,41.711-35.682l-5.136-1.418c-3.022,7.9-13.28,28.547-38.487,30.091-25.868,1.584-40.364-16.509-44.577-22.765-1.816.949-3.7,1.917-5.6,2.9" transform="translate(-669.853 -245.001)" fill="#a8bacc"/>
              <path id="Path_1001675" data-name="Path 1001675" d="M1023.565,676.513a1.009,1.009,0,0,0,1.009-.994c.006-.407.648-40.85,1.9-50.875,1.266-10.108,3.173-39.281,3.192-39.574a1.009,1.009,0,1,0-2.014-.131c-.019.293-1.922,29.406-3.18,39.455-1.269,10.133-1.893,49.426-1.919,51.094a1.009,1.009,0,0,0,.993,1.025h.016" transform="translate(-654.174 -373.606)" fill="#a8bacc"/>
              <path id="Path_1001676" data-name="Path 1001676" d="M1294.2,383.406c6.589,21.393,27.052,91.7,28.606,109.325,0,0,.6,24.687.839,28.8.039.669,3.235,15.685,3.995,15.5,1.159-.284.573-19.984,2.787-48.7.081-.273.121-.424.121-.424s-8.708-69.033-27.352-102.045c-1.412-.409-2.825-.807-4.228-1.2-1.8-.4-2.338-.524-4.768-1.261" transform="translate(-827.958 -245.28)" fill="#546591"/>
              <path id="Path_1001677" data-name="Path 1001677" d="M1127.592,865.871s15.3,26.29,19.12,46.366,7.648,71.7,7.648,71.7h-152s12.428-97.511,14.34-101.813,3.346-5.736,3.346-5.736Z" transform="translate(-641.252 -553.934)" fill="#e46b55"/>
              <path id="Path_1001678" data-name="Path 1001678" d="M1052.168,848.842a13.12,13.12,0,0,0-1.433,9.718s41.34,6.627,60.227,4.3c31.07-3.824,47.322-14.818,47.322-14.818s3.506-6.695.319-10.039c0,0-28.517,9.877-49.073,12.109s-57.363-1.271-57.363-1.271" transform="translate(-671.945 -536.107)" fill="#bc5036"/>
              <path id="Path_1001679" data-name="Path 1001679" d="M1327.43,905.319a1.02,1.02,0,0,0,.3-.047,1.009,1.009,0,0,0,.66-1.266c-.288-.916-7.086-22.488-10.3-27.637a1.009,1.009,0,1,0-1.711,1.069c3.082,4.932,10.02,26.951,10.09,27.173a1.009,1.009,0,0,0,.962.707" transform="translate(-842.046 -560.347)" fill="#bc5036"/>
              <path id="Path_1001680" data-name="Path 1001680" d="M1104.942,980.435a1.009,1.009,0,0,0,1.006-.946c.006-.1.646-10.438,1.276-29.985.628-19.466,5.042-47.394,5.087-47.674a1.009,1.009,0,0,0-1.993-.317c-.045.281-4.479,28.332-5.111,47.926-.629,19.516-1.267,29.822-1.273,29.924a1.009,1.009,0,0,0,.944,1.07l.064,0" transform="translate(-706.233 -576.192)" fill="#bc5036"/>
              <path id="Path_1001681" data-name="Path 1001681" d="M1078.4,935.327a1.009,1.009,0,0,0,1.009-1.009c0-13,10-33.767,10.1-33.975a1.009,1.009,0,1,0-1.816-.88c-.421.867-10.3,21.395-10.3,34.856a1.009,1.009,0,0,0,1.009,1.009" transform="translate(-689.258 -575.06)" fill="#bc5036"/>
              <path id="Path_1001682" data-name="Path 1001682" d="M1283.629,975.908c.029,0,.058,0,.087,0a1.009,1.009,0,0,0,.919-1.092c-.032-.37-3.221-37.17-5.75-50.451-2.544-13.351-10.2-30.022-10.273-30.189a1.009,1.009,0,0,0-1.832.846c.076.165,7.626,16.615,10.122,29.72,2.51,13.18,5.69,49.878,5.722,50.247a1.01,1.01,0,0,0,1,.923" transform="translate(-810.356 -571.665)" fill="#bc5036"/>
              <path id="Path_1001683" data-name="Path 1001683" d="M1259.917,943.755l.064,0a1.009,1.009,0,0,0,.944-1.07c-.006-.1-.635-10.254-.635-17.782,0-7.707-5.543-26.271-5.779-27.058a1.009,1.009,0,1,0-1.933.58c.057.189,5.693,19.065,5.693,26.478,0,7.592.632,17.806.639,17.908a1.009,1.009,0,0,0,1.006.946" transform="translate(-801.302 -573.928)" fill="#bc5036"/>
              <path id="Path_1001684" data-name="Path 1001684" d="M1178.867,24.556A4.892,4.892,0,0,0,1181,22.68c1.192-2.316-1.183-4.76-2.17-7.171-1.088-2.659-.447-5.777-1.5-8.451-1.293-3.291-4.864-5.143-8.34-5.791s-7.066-.383-10.559-.928a14.689,14.689,0,0,0-3.117-.333,7.778,7.778,0,0,0-4.927,2.539c-2.689,2.75-3.975,7.089-2.381,10.589,1.172,2.572,3.658,4.321,6.259,5.426s5.395,1.685,8.047,2.662c6.834,2.518,9.136,7.382,16.548,3.332" transform="translate(-733.989 0.004)" fill="#3a2624"/>
              <path id="Path_1001685" data-name="Path 1001685" d="M1158.037,25.375s10.2-6.373,18.8,1.912c6.176,5.948,5.417,15.615,3.187,16.571s-21.988-18.483-21.988-18.483" transform="translate(-740.847 -14.734)" fill="#e46b55"/>
              <path id="Path_1001686" data-name="Path 1001686" d="M1045.646,62.281s5.736,17.845,5.736,53.535c0,14.849-.956,25.812-.956,25.812s22.944-4.461,32.5-12.428c0,0,3.505-7.542,3.08-10.728,0,0,1.062,6.161.637,8.5,0,0,7.86-5.1,8.5-8.71s-.637-13.6-6.586-30.167-26.98-53.429-35.266-58.315-42.7-19.12-59.272,6.692-7.01,49.711-12.109,72.655S971.4,136.849,971.4,136.849l4.143,1.912s6.054-4.461,9.241-15.3a159.705,159.705,0,0,0,7.966-55.129s24.537-.318,30.91-3.186c0,0,1.593-12.747-1.274-16.252,0,0,6.373,9.56,5.736,15.933,0,0,14.818-.318,17.526-2.549" transform="translate(-621.446 -13.72)" fill="#513736"/>
              <path id="Path_1001687" data-name="Path 1001687" d="M962.782,218.973a1,1,0,0,0,.788-.379c.166-.208,4.123-5.229,9.6-17.793,5.492-12.608,6.953-38.572,7.013-39.671a1.009,1.009,0,0,0-2.015-.109c-.014.266-1.5,26.7-6.848,38.974s-9.283,17.292-9.322,17.341a1.009,1.009,0,0,0,.789,1.638" transform="translate(-615.289 -102.4)" fill="#513736"/>
              <path id="Path_1001688" data-name="Path 1001688" d="M1246.628,157.878a1.009,1.009,0,0,0,.993-1.193c-4.769-25.754-25.793-53.216-26.005-53.49a1.009,1.009,0,0,0-1.6,1.233c.209.271,20.939,27.356,25.619,52.624a1.009,1.009,0,0,0,.991.826" transform="translate(-780.364 -65.766)" fill="#3a2624"/>
              <path id="Path_1001689" data-name="Path 1001689" d="M1201.5,235.781a1.01,1.01,0,0,0,.992-.829c1.917-10.545-1.747-41.071-1.9-42.365a1.009,1.009,0,1,0-2,.244c.038.313,3.784,31.516,1.921,41.761a1.009,1.009,0,0,0,.994,1.19" transform="translate(-766.783 -122.637)" fill="#3a2624"/>
              <path id="Path_1001690" data-name="Path 1001690" d="M1218.963,206.211a1.009,1.009,0,0,0,1.006-.946c.481-7.7-4.587-30.392-4.8-31.354a1.009,1.009,0,1,0-1.969.442c.052.233,5.221,23.368,4.757,30.786a1.009,1.009,0,0,0,.944,1.07l.064,0" transform="translate(-776.12 -110.753)" fill="#3a2624"/>
              <path id="Path_1001691" data-name="Path 1001691" d="M1066.906,91.412a1.009,1.009,0,0,0,1.009-1.009V78.453c0-7.747,4.581-15.165,4.627-15.239a1.009,1.009,0,1,0-1.711-1.07c-.2.322-4.934,7.989-4.934,16.308V90.4a1.009,1.009,0,0,0,1.009,1.009" transform="translate(-681.901 -39.452)" fill="#3a2624"/>
              <path id="Path_1001692" data-name="Path 1001692" d="M1155.117,88.32a1.009,1.009,0,0,0,1.009-1.009c0-4.868-5.818-15.936-6.065-16.4a1.009,1.009,0,0,0-1.784.943c1.622,3.071,5.832,11.835,5.832,15.462a1.009,1.009,0,0,0,1.009,1.009" transform="translate(-734.528 -45.016)" fill="#3a2624"/>
              <path id="Path_1001693" data-name="Path 1001693" d="M1148.982,103.743a1.008,1.008,0,0,0,1-.884c.443-3.543-2.483-11.482-2.818-12.376a1.009,1.009,0,0,0-1.89.709c.862,2.3,3.028,8.833,2.705,11.417a1.01,1.01,0,0,0,1,1.134" transform="translate(-732.641 -57.466)" fill="#3a2624"/>
              <path id="Path_1001694" data-name="Path 1001694" d="M1032.809,109.314a1.01,1.01,0,0,0,.988-1.223c-1.616-7.472,2.046-17.391,2.083-17.49a1.009,1.009,0,0,0-1.89-.708c-.161.428-3.908,10.568-2.166,18.625a1.01,1.01,0,0,0,.986.8" transform="translate(-659.808 -57.088)" fill="#3a2624"/>
              <path id="Path_1001695" data-name="Path 1001695" d="M1138.566,434.236l.814-1.765c.115-.249,11.527-25.055,15.253-39.958,5.321-21.285,2.44-30.353,2.315-30.729a1.009,1.009,0,0,0-1.915.636c.043.137,2.779,9.058-2.358,29.6-3.1,12.413-11.649,31.878-14.319,37.821-3.856-6.67-17.889-30.985-20.982-36.977a57.26,57.26,0,0,1-6.267-28.129,1.009,1.009,0,1,0-2.01-.175,58.34,58.34,0,0,0,6.483,29.23c3.6,6.972,21.828,38.444,22.012,38.761Z" transform="translate(-709.484 -231.005)" fill="#546591"/>
              <path id="Path_1001696" data-name="Path 1001696" d="M1185.717,555.98l-14.977-1.912-.318,5.1,15.3,1.912Z" transform="translate(-748.77 -354.461)" fill="#546591"/>
              <path id="Path_1001697" data-name="Path 1001697" d="M1178.337,661.93c0,2.52,8.936,4.562,19.959,4.562s19.959-2.042,19.959-4.562-8.936-4.562-19.959-4.562-19.959,2.043-19.959,4.562" transform="translate(-753.834 -420.546)" fill="#a1655c"/>
              <path id="Path_1001698" data-name="Path 1001698" d="M1207.065,763.412c8.3,0,15.021,1.537,15.021,3.434v2.664c0,1.9-6.725,3.433-15.021,3.433s-15.021-1.537-15.021-3.433v-2.664c0-1.9,6.725-3.434,15.021-3.434" transform="translate(-762.603 -488.387)" fill="#e0b1a9"/>
              <path id="Path_1001699" data-name="Path 1001699" d="M1177.758,629.648s1.537,22.341,2.558,37.185c.116,1.69.226,3.28.323,4.731.337,4.882.563,8.168.563,8.184,0,1.659,4.755,3.064,11.319,3.541.572.042,1.156.076,1.754.1q.265.014.535.022c.638.024,1.289.04,1.951.046.232,0,.465,0,.7,0,8.979,0,16.258-1.664,16.258-3.716l.316-4.544.507-7.3,2.659-38.257-19.723,1.206Z" transform="translate(-753.464 -402.812)" fill="#f8b951"/>
              <path id="Path_1001700" data-name="Path 1001700" d="M1288.392,670.621l.005-.09h0c0,.029,0,.06,0,.09" transform="translate(-824.241 -428.967)" fill="#d68e61"/>
              <path id="Path_1001701" data-name="Path 1001701" d="M1179.075,670.531l.005.09c0-.03,0-.06,0-.09Z" transform="translate(-754.306 -428.967)" fill="#d68e61"/>
              <path id="Path_1001702" data-name="Path 1001702" d="M1178.354,670.357,1179.781,694c.16,2.358,8.453,4.238,18.525,4.238s18.365-1.88,18.527-4.238l1.427-23.643c-.274,2.466-9.1,4.445-19.955,4.445s-19.679-1.979-19.953-4.445" transform="translate(-753.845 -428.855)" fill="#c69471"/>
              <path id="Path_1001703" data-name="Path 1001703" d="M1278.849,700.8a.559.559,0,0,0,.557-.522l1.291-19.372a.559.559,0,0,0-1.116-.074l-1.29,19.372a.559.559,0,0,0,.521.595h.038" transform="translate(-817.777 -435.225)" fill="#a1655c"/>
              <path id="Path_1001704" data-name="Path 1001704" d="M1269.693,703.791a.559.559,0,0,0,.558-.529l1.032-19.372a.559.559,0,0,0-.529-.588.553.553,0,0,0-.588.529l-1.032,19.372a.559.559,0,0,0,.528.588h.03" transform="translate(-811.92 -437.136)" fill="#a1655c"/>
              <path id="Path_1001705" data-name="Path 1001705" d="M1260.539,705.285a.559.559,0,0,0,.558-.537l.774-19.372a.559.559,0,1,0-1.117-.044l-.774,19.372a.559.559,0,0,0,.537.581h.022" transform="translate(-806.064 -438.092)" fill="#a1655c"/>
              <path id="Path_1001706" data-name="Path 1001706" d="M1251.384,706.281a.559.559,0,0,0,.559-.544l.516-19.372a.559.559,0,0,0-.544-.574h-.015a.559.559,0,0,0-.559.544l-.516,19.372a.56.56,0,0,0,.545.574h.015" transform="translate(-800.207 -438.729)" fill="#a1655c"/>
              <path id="Path_1001707" data-name="Path 1001707" d="M1242.228,707.775a.559.559,0,0,0,.559-.551l.258-19.372a.559.559,0,0,0-1.118-.015l-.258,19.372a.559.559,0,0,0,.552.566Z" transform="translate(-794.35 -439.685)" fill="#a1655c"/>
              <path id="Path_1001708" data-name="Path 1001708" d="M1233.073,707.775a.559.559,0,0,0,.559-.559V687.844a.559.559,0,0,0-1.118,0v19.372a.559.559,0,0,0,.559.559" transform="translate(-788.493 -439.685)" fill="#a1655c"/>
              <path id="Path_1001709" data-name="Path 1001709" d="M1223.46,707.775h.007a.559.559,0,0,0,.552-.566l-.258-19.372a.559.559,0,0,0-1.118.015l.258,19.372a.559.559,0,0,0,.559.551" transform="translate(-782.178 -439.685)" fill="#a1655c"/>
              <path id="Path_1001710" data-name="Path 1001710" d="M1213.846,706.281h.015a.56.56,0,0,0,.544-.574l-.516-19.372a.559.559,0,0,0-.559-.544h-.015a.559.559,0,0,0-.544.574l.516,19.372a.559.559,0,0,0,.559.544" transform="translate(-775.863 -438.729)" fill="#a1655c"/>
              <path id="Path_1001711" data-name="Path 1001711" d="M1204.233,705.285h.022a.56.56,0,0,0,.537-.581l-.775-19.372a.559.559,0,0,0-1.117.044l.774,19.372a.56.56,0,0,0,.558.537" transform="translate(-769.548 -438.091)" fill="#a1655c"/>
              <path id="Path_1001712" data-name="Path 1001712" d="M1194.62,703.791h.03a.559.559,0,0,0,.528-.588l-1.032-19.372a.559.559,0,1,0-1.116.059l1.032,19.372a.559.559,0,0,0,.558.529" transform="translate(-763.233 -437.136)" fill="#a1655c"/>
              <path id="Path_1001713" data-name="Path 1001713" d="M1185.005,700.8h.038a.559.559,0,0,0,.521-.595l-1.29-19.372a.559.559,0,0,0-1.116.074l1.291,19.372a.56.56,0,0,0,.557.522" transform="translate(-756.917 -435.225)" fill="#a1655c"/>
              <path id="Path_1001714" data-name="Path 1001714" d="M1216.929,614.364v5.8c0,2.735-9.7,4.953-21.669,4.953s-21.669-2.218-21.669-4.953v-5.8Z" transform="translate(-750.797 -393.034)" fill="#844840"/>
              <path id="Path_1001715" data-name="Path 1001715" d="M1173.59,605.569c0,2.735,9.7,4.953,21.669,4.953s21.669-2.217,21.669-4.953-9.7-4.953-21.669-4.953-21.669,2.217-21.669,4.953" transform="translate(-750.797 -384.239)" fill="#a1655c"/>
              <path id="Path_1001716" data-name="Path 1001716" d="M1221.126,605.6v2.884c0,2.052-7.279,3.716-16.258,3.716s-16.258-1.664-16.258-3.716V605.6Z" transform="translate(-760.405 -387.43)" fill="#844840"/>
              <path id="Path_1001717" data-name="Path 1001717" d="M1188.61,599c0,2.052,7.279,3.716,16.258,3.716s16.258-1.664,16.258-3.716-7.28-3.716-16.258-3.716-16.258,1.664-16.258,3.716" transform="translate(-760.406 -380.831)" fill="#a1655c"/>
              <path id="Path_1001718" data-name="Path 1001718" d="M1206.223,601.99c0,1.124,4.438,2.035,9.913,2.035s9.913-.911,9.913-2.035-4.438-2.035-9.913-2.035-9.913.911-9.913,2.035" transform="translate(-771.674 -383.816)" fill="#844840"/>
              <path id="Path_1001719" data-name="Path 1001719" d="M1200.052,598.723l.057.033.432.248,1.065.414a.241.241,0,0,0,.19-.005,15.5,15.5,0,0,1,3.448-1.083.22.22,0,0,0,.182-.169l0-.011,0-.083.026-.737-.024,0-5.3.432-.017,0,0,.042-.007.11Z" transform="translate(-767.726 -382.136)" fill="#844840"/>
              <path id="Path_1001720" data-name="Path 1001720" d="M1204.5,595.522a16.251,16.251,0,0,0-4.192,1,.211.211,0,0,0,.009.4l1.366.53a.246.246,0,0,0,.19-.005,15.5,15.5,0,0,1,3.447-1.084.213.213,0,0,0,.076-.4l-.755-.409a.241.241,0,0,0-.14-.028" transform="translate(-767.806 -380.979)" fill="#543b30"/>
              <path id="Path_1001721" data-name="Path 1001721" d="M1256.183,621.221l.048,0c6.769-.582,10.064-2.007,10.2-2.067a.551.551,0,0,0-.444-1.01c-.032.014-3.29,1.414-9.851,1.978a.552.552,0,0,0,.047,1.1" transform="translate(-803.283 -395.421)" fill="#c69471"/>
              <path id="Path_1001722" data-name="Path 1001722" d="M1252.584,610.218h.018a19.474,19.474,0,0,0,6.05-1.025.552.552,0,0,0-.4-1.026,18.813,18.813,0,0,1-5.68.949.552.552,0,0,0,.017,1.1" transform="translate(-800.98 -389.045)" fill="#c69471"/>
              <path id="Path_1001723" data-name="Path 1001723" d="M886.135,717.1a26.834,26.834,0,0,1,16.9-15.543l64.57-18.315,8.157-2.6s9.24-6.142,13.342-8.722,23.257-7.383,27.434-7.676,15.128,5.041,17.89,7.4a13.73,13.73,0,0,1,3.771,6.117s.21,3.468-1.678,3.687-4.776-1.169-4.776-1.169a6.1,6.1,0,0,1-.4,4.83l-7.862-.142s6.592,1.15,7.246,1.84,1.328,5.683-1.05,6.628l-7.172.406c1.971-.1,6.52-.261,7.186.334.854.762,1.079,6.214-.809,6.433l-10.858,1.258s-21.806,5.875-24.42,5.6c-1.905-.2-6.517-1.858-8.882-2.746-6.788,3.33-66.114,32.387-72.121,33.639-6.372,1.328-21.3,4.408-26.823-7.6-2.07-4.5-1.354-9.357.349-13.664" transform="translate(-565.865 -424.938)" fill="#d68e61"/>
              <path id="Path_1001724" data-name="Path 1001724" d="M1262.422,700.338a1.046,1.046,0,0,1,.291-2.073c3.913.549,7.775.64,8.645.214.505-1.611.327-4.688-.188-5.231-.608-.581-5.493-2.8-9.671-4.529a1.046,1.046,0,1,1,.8-1.934c2.17.9,9.333,3.908,10.385,5.018,1.391,1.467,1.213,5.829.591,7.542-.157.433-.549,1.515-4.658,1.515a45.644,45.644,0,0,1-6.2-.522m8.882-1.707h0Z" transform="translate(-806.623 -439.315)" fill="#ad6842"/>
              <path id="Path_1001725" data-name="Path 1001725" d="M1262.612,730.909a1.046,1.046,0,0,1,.019-2.093h.02a46.666,46.666,0,0,0,8.19-.358,12.016,12.016,0,0,0,.654-4.868,6.042,6.042,0,0,0-1.99-.974,1.046,1.046,0,0,1,.61-2,7.181,7.181,0,0,1,3.071,1.735c1.037,1.325.09,6.633-.876,7.636-.259.27-.908.945-7.543.945-.657,0-1.374-.007-2.155-.021" transform="translate(-807.091 -460.978)" fill="#ad6842"/>
              <path id="Path_1001726" data-name="Path 1001726" d="M1161.557,759.365c3.337,0,19.746-4.649,23.359-5.685,2.6-.206,10.6-.938,12.156-2.2,1.51-1.227,1.3-4.2.818-5.79-.5-1.628-1.294-2.032-1.875-2.083a1.046,1.046,0,0,0-.405,2.041,5.5,5.5,0,0,1,.539,2.777,2.2,2.2,0,0,1-.4,1.431c-.808.6-6.4,1.376-11.106,1.745l-.105.008-.1.029c-7.927,2.275-21.168,5.814-22.917,5.632-3.112-.322-12.933-2.565-14.505-5.065a1.046,1.046,0,1,0-1.772,1.114c2.355,3.745,14.426,5.864,16.061,6.033a2.427,2.427,0,0,0,.25.011" transform="translate(-732.562 -475.714)" fill="#ad6842"/>
              <path id="Path_1001727" data-name="Path 1001727" d="M964.633,808.431a1.038,1.038,0,0,0,.436-.1l69.643-31.974a1.046,1.046,0,1,0-.873-1.9L964.2,806.433a1.047,1.047,0,0,0,.437,2" transform="translate(-616.448 -495.393)" fill="#ad6842"/>
              <path id="Path_1001728" data-name="Path 1001728" d="M935.107,733.453a1,1,0,0,0,.276-.039l65.57-18.587a1.009,1.009,0,1,0-.55-1.941l-65.57,18.587a1.009,1.009,0,0,0,.275,1.98" transform="translate(-597.584 -456.038)" fill="#ad6842"/>
              <path id="Path_1001729" data-name="Path 1001729" d="M1619.494,383.587s-19.2,27.507-21.777,29.8-8.6,4.011-11.175,4.011-23.209,6.017-34.575,3.821c-3.939-.761-10.914-7.56-10.914-7.56s-.357-11.447,3.941-15.172,36.963-13.181,36.963-13.181a6,6,0,0,1,.287,6.017c-1.719,3.152-9.456,8.883-9.456,8.883l12.035-1.719s11.748-18.338,12.894-19.771,4.585,0,4.585,0l-3.152,8.882s6.59-6.59,9.169-8.882,6.662.931,6.662.931l-2.651,3.367s2.005-2.006,4.011-1.719a4.931,4.931,0,0,1,3.152,2.292" transform="translate(-985.875 -241.753)" fill="#d68e61"/>
              <path id="Path_1001730" data-name="Path 1001730" d="M1650.312,410.223a1.07,1.07,0,0,0,.4-.079l16.591-6.695.176-.217,17.55-21.705a1.075,1.075,0,0,0-1.673-1.352l-17.374,21.489-16.074,6.486a1.075,1.075,0,0,0,.4,2.073" transform="translate(-1055.089 -242.959)" fill="#ad6842"/>
              <path id="Path_1001731" data-name="Path 1001731" d="M1649.516,418.135a1.076,1.076,0,0,0,.3-.043l7.547-2.185,11.283-12.256a1.075,1.075,0,0,0-1.583-1.456l-10.875,11.813-6.971,2.018a1.075,1.075,0,0,0,.3,2.108" transform="translate(-1054.58 -257.079)" fill="#ad6842"/>
              <path id="Path_1001732" data-name="Path 1001732" d="M1447.691,470.921s-50.667,102.291-52.579,108.664-2.215,23.633,10.2,28.68c14.5,5.9,26.449-3.187,32.822-21.032,9.22-25.816,29.954-107.39,29.954-107.39Z" transform="translate(-891.883 -301.267)" fill="#d68e61"/>
              <path id="Path_1001733" data-name="Path 1001733" d="M1426.916,551.4a1.009,1.009,0,0,0,.9-.554l41.107-81.259a1.009,1.009,0,1,0-1.8-.911l-41.107,81.259a1.009,1.009,0,0,0,.9,1.465" transform="translate(-912.216 -299.475)" fill="#ad6842"/>
              <path id="Path_1001734" data-name="Path 1001734" d="M1584.29,489.631c7.176,0,26.566-4.938,27.426-5.158a1.075,1.075,0,1,0-.533-2.083c-.217.055-21.793,5.551-27.657,5.063a14.6,14.6,0,0,1-8.546-3.29,1.075,1.075,0,0,0-1.514,1.527c.138.137,3.452,3.371,9.881,3.906.284.024.6.035.943.035" transform="translate(-1006.413 -308.583)" fill="#ad6842"/>
              <path id="Path_1001735" data-name="Path 1001735" d="M216.485,1007.984s4.966,18.8,5.922,31.229,2.868,34.416,2.868,34.416H84.744s-.638-33.778,1.912-42.7,8.922-24.855,8.922-24.855Z" transform="translate(-54.169 -643.627)" fill="#c69471"/>
            </g>
          </g>
          <g id="Group_1187339" data-name="Group 1187339" transform="translate(30.504 362.444)">
            <g id="Group_1187338" data-name="Group 1187338" clip-path="url(#clip-path-3)">
              <g id="Group_1187337" data-name="Group 1187337" transform="translate(-17.9 -7.664)" opacity="0.4">
                <g id="Group_1187336" data-name="Group 1187336" transform="translate(0)">
                  <g id="Group_1187335" data-name="Group 1187335" clip-path="url(#clip-path-4)">
                    <path id="Path_1001736" data-name="Path 1001736" d="M184.412,1071.282l.216-.926c3.021-12.973.43-26.223-2.075-39.037-2.461-12.588-5.006-25.6-2.08-38.1a4.59,4.59,0,0,1,2-2.783,1.816,1.816,0,0,1,1.561-.135c.619.226.929.755,1.286,1.652a189.325,189.325,0,0,1,13.57,65.252l0,.17c.067,2.635.143,5.621,1.8,8.256a10.272,10.272,0,0,0,9.658,4.455l1.168-.155-.16-1.167a689.9,689.9,0,0,0-16.739-83.093,1.173,1.173,0,0,0-2.266.6,687.6,687.6,0,0,1,16.506,81.541,8.007,8.007,0,0,1-6.18-3.432c-1.313-2.09-1.374-4.508-1.44-7.069l0-.171A191.646,191.646,0,0,0,187.5,991.085a4.687,4.687,0,0,0-2.661-2.988,4.147,4.147,0,0,0-3.48.275,6.936,6.936,0,0,0-3.167,4.311c-3.041,12.987-.447,26.255,2.062,39.086,2.394,12.245,4.867,24.9,2.308,37.082-6.581-.82-7.718-8.653-7.911-11.126l-4.245-54.4c-.362-4.637-2.62-7.472-6.2-7.78a6.054,6.054,0,0,0-4.816,1.607c-2.043,1.929-2.7,5.063-2.635,7.353l1.777,61.8a3.852,3.852,0,0,1-2.139.58,6.278,6.278,0,0,1-4.284-1.494c-1.56-1.59-1.655-3.774-1.615-6.255l.867-54.581c.071-4.484-1.948-7.411-5.4-7.828a5.9,5.9,0,0,0-4.653,1.343,9.939,9.939,0,0,0-2.991,6.941,285.531,285.531,0,0,1-9.427,61.366,4.879,4.879,0,0,1-3.048-1.528c-1.758-1.889-2.189-5.061-2.006-7.4l4.77-60.9-.526-.386a4.271,4.271,0,0,0-3.8-.6,8.427,8.427,0,0,0-5.083,4.544c-3.833,9.229-3.056,19-2.3,28.448.188,2.353.381,4.786.5,7.155.728,14.879-2.915,25.006-11.457,31.816-2.738-.643-2.723-4.011-2.579-5.484l6.292-64.311-14.55-.882.013,1.258a208.239,208.239,0,0,1-10.57,67.294,4.944,4.944,0,0,1-4.93-1.137c-1.133-1.265-1.232-2.952-1.24-4.866a282.646,282.646,0,0,1,5.294-55.46c.438-2.235.935-4.768-.293-7.165a7.519,7.519,0,0,0-8.183-3.514l-.766.2-7.245,59.274c-.288,2.355-.615,5.025-2.408,7.031a8.1,8.1,0,0,1-7.058,2.334,328.129,328.129,0,0,0,7.924-63.914c.045-1.846.106-4.375-1.627-6.437s-5.6-3.167-8.214-1.591l-.413.249-.118.467a320.716,320.716,0,0,0-9.872,77.591,7.629,7.629,0,0,1-6.125-2.786c-1.394-1.851-1.623-4.139-1.75-6.517-1.308-24.586,4.411-49.7,16.536-72.616a1.173,1.173,0,0,0-2.073-1.1c-12.324,23.295-18.135,48.827-16.8,73.837.141,2.645.428,5.426,2.218,7.8a9.88,9.88,0,0,0,9.4,3.559l.942-.189v-.961a318.213,318.213,0,0,1,9.67-77.527,4.892,4.892,0,0,1,4.809,1.285c1.075,1.279,1.124,2.963,1.078,4.871a325.825,325.825,0,0,1-8.108,64.515l-.223.975.927.374c3.744,1.509,8.433-.208,10.63-2.665,2.284-2.554,2.675-5.745,2.988-8.31L76.546,995.4a5.229,5.229,0,0,1,4.736,2.444c.857,1.674.461,3.692.078,5.644a285.06,285.06,0,0,0-5.338,55.921c.007,1.748.018,4.388,1.838,6.421,1.783,1.99,5.8,3.013,8.3,1.348l.336-.224.128-.383a210.765,210.765,0,0,0,10.84-67.228l9.612.583-6.055,61.889c-.353,3.6.8,7.628,5.1,8.12l.473.055.377-.291c9.36-7.221,13.536-18.376,12.767-34.1-.117-2.4-.313-4.856-.5-7.226-.73-9.171-1.484-18.656,2.132-27.363a6.178,6.178,0,0,1,3.547-3.184,2.239,2.239,0,0,1,1.248-.037l-4.659,59.48c-.108,1.376-.237,6.1,2.628,9.181a7.421,7.421,0,0,0,5.593,2.325h.065l.891-.006.232-.861a287.928,287.928,0,0,0,9.753-62.795,7.678,7.678,0,0,1,2.165-5.253,3.524,3.524,0,0,1,2.853-.8c2.975.36,3.369,3.577,3.34,5.463l-.866,54.581c-.037,2.328-.088,5.516,2.286,7.935a8.5,8.5,0,0,0,6,2.2,5.64,5.64,0,0,0,4.149-1.629l.318-.35-.013-.472-1.792-62.336c-.049-1.7.419-4.183,1.9-5.581a3.677,3.677,0,0,1,3-.976c3.171.273,3.9,3.642,4.059,5.625l4.245,54.4c.5,6.357,3.687,13.2,11.152,13.355Z" transform="translate(-34.985 -984.799)" fill="#f9dcd4"/>
                  </g>
                </g>
              </g>
            </g>
          </g>
          <g id="Group_1187341" data-name="Group 1187341" transform="translate(0 -0.001)">
            <g id="Group_1187340" data-name="Group 1187340" clip-path="url(#clip-path-2)">
              <path id="Path_1001738" data-name="Path 1001738" d="M309.52,1074.669a1.008,1.008,0,0,0,.8-.389c.468-.6,4.587-5.931,5.259-7.948.648-1.943-.773-29.071-1.224-37.339a1.009,1.009,0,0,0-2.015.11c.723,13.25,1.719,34.908,1.317,36.618-.416,1.245-3.246,5.155-4.93,7.32a1.009,1.009,0,0,0,.8,1.629" transform="translate(-197.368 -657.68)" fill="#a1655c"/>
              <path id="Path_1001739" data-name="Path 1001739" d="M115.841,1059.956c7.445,0,17.03-1.266,19.484-3.72,3.321-3.321,5.18-14.289,5.381-15.529a1.009,1.009,0,0,0-1.992-.323c-.518,3.191-2.393,12-4.816,14.425-2.84,2.839-21.487,4.123-25.657,2.335a1.009,1.009,0,0,0-.8,1.855c1.5.641,4.68.957,8.4.957" transform="translate(-68.347 -665.035)" fill="#a1655c"/>
              <path id="Path_1001740" data-name="Path 1001740" d="M410.449,1060.777a27.172,27.172,0,0,0,5.773-.614,1.009,1.009,0,0,0-.467-1.963c-.087.02-8.761,2.016-13.824-1.741-6.165-4.574-7.662-13.907-7.677-14a1.009,1.009,0,0,0-2,.3c.063.416,1.628,10.241,8.47,15.317,2.891,2.145,6.635,2.7,9.719,2.7" transform="translate(-250.939 -666.357)" fill="#a1655c"/>
              <path id="Path_1001741" data-name="Path 1001741" d="M187.075,1043.962c23.1,0,50.818-9.545,51.1-9.644a1.009,1.009,0,0,0-.663-1.906c-.292.1-29.412,10.131-52.54,9.5-23.638-.639-52.54-6.325-60.636-11.93a1.009,1.009,0,0,0-1.149,1.659c8.355,5.784,37.778,11.641,61.731,12.288.711.019,1.432.029,2.153.029" transform="translate(-78.533 -658.811)" fill="#a1655c"/>
              <path id="Path_1001742" data-name="Path 1001742" d="M22.93,531.914c7.22,26.131,13.381,28.679,13.381,28.679s-1.271,21.141-1.271,26.236,6.373,12.745,6.373,12.745S86.66,616.149,114.7,614.237s47.615-12.75,47.615-12.75,4.46-5.1,4.46-8.921-3.32-84.552-3.32-84.552c38.876,10.833,40.47,48.755,40.47,48.755,16.57-3.184,20.077-22.942,17.21-34.415-2.061-8.249-39.516-119.816-49.078-128.741-6.413-5.984-24.723-14.692-37.559-20.384l-.949-.424c-.57-.247-1.13-.494-1.67-.727.035.53.5,9.148-4.435,20.263-5.1,11.473-17.205,19.758-17.205,19.758S74.55,389.792,70.726,384.056a56.743,56.743,0,0,1-6.055-13.386l-2.21,1.049c-1.216.661-2.467,1.347-3.739,2.058-22.1,12.4-51.262,32.281-56.828,44.693-8.285,18.482,12.8,83.644,21.035,113.443" transform="translate(0 -237.132)" fill="#546591"/>
              <path id="Path_1001743" data-name="Path 1001743" d="M282.9,600.654s-20.076,4.3-33.974,6.214-40.666,2.868-40.666,2.868,4.118,24.378,4.118,28.2-.515,12.906-.515,12.906,35.519-2.868,45.3-2.868,31.4-5.258,31.4-5.258-1.544-20.554-2.059-25.812-3.6-16.252-3.6-16.252" transform="translate(-133.236 -384.263)" fill="#444472"/>
              <path id="Path_1001744" data-name="Path 1001744" d="M161.8,373.659s-.828.322-.757.478a93,93,0,0,0,11.751,23.3c11.129,15.581,41.745,29.317,41.745,29.317S234.5,404.829,236.846,396.8c4.465-15.3,1.194-23.341,1.194-23.341l-.515-.232-.949-.424-1.67-.752v.025c.035.53.5,9.148-4.435,20.263-5.1,11.474-17.205,19.758-17.205,19.758s-27.725-7.331-39.516-28.043a98.965,98.965,0,0,1-6.055-13.386l-2.21,1.049Z" transform="translate(-103.024 -237.133)" fill="#444472"/>
              <path id="Path_1001745" data-name="Path 1001745" d="M163.123,599.428a1.01,1.01,0,0,0,.979-1.256c-.081-.322-8.148-32.309-10.663-45.511a277.331,277.331,0,0,0-7.04-27.522,1.009,1.009,0,1,0-1.923.612,275.346,275.346,0,0,1,6.981,27.288c2.526,13.26,10.607,45.305,10.688,45.627a1.009,1.009,0,0,0,.978.762" transform="translate(-92.397 -335.503)" fill="#444472"/>
              <path id="Path_1001746" data-name="Path 1001746" d="M134.339,566.308a1.011,1.011,0,0,0,.989-1.215c-3.264-15.666-17.257-20.921-17.851-21.137a1.009,1.009,0,0,0-.69,1.9c.156.057,13.539,5.124,16.566,19.652a1.009,1.009,0,0,0,.987.8" transform="translate(-74.289 -347.952)" fill="#444472"/>
              <path id="Path_1001747" data-name="Path 1001747" d="M162.347,785.949s-2.549,7.648-8.285,7.648c0,0-15.563-6.73-17.208-20.713-2.868-24.378,5.258-31.548,5.258-31.548l11.95-4.461Z" transform="translate(-87.159 -471.41)" fill="#444472"/>
              <path id="Path_1001748" data-name="Path 1001748" d="M112.178,898.538a32.1,32.1,0,0,0,7.738-.984,37.481,37.481,0,0,0,10.218-4.171,1.009,1.009,0,0,0-1.084-1.7c-.157.1-15.894,9.9-29.51,1.274a1.009,1.009,0,1,0-1.08,1.7,25.307,25.307,0,0,0,13.718,3.879" transform="translate(-62.689 -570.345)" fill="#444472"/>
              <path id="Path_1001749" data-name="Path 1001749" d="M445.237,751.912l-4.78,3.187s20.076,9.241,26.13,22.944,5.736,24.856,5.736,24.856,7.648,3.506,13.384-2.23c0,0-1.275-19.439-13.7-32.5a58.491,58.491,0,0,0-26.768-16.252" transform="translate(-281.78 -481.03)" fill="#444472"/>
              <path id="Path_1001750" data-name="Path 1001750" d="M441.181,602.3h.038a1.009,1.009,0,0,0,.971-1.045c-1.576-43.195-6.015-83.481-6.06-83.883a1.009,1.009,0,1,0-2.006.223c.045.4,4.476,40.617,6.049,83.734a1.009,1.009,0,0,0,1.008.972" transform="translate(-277.724 -330.41)" fill="#444472"/>
              <path id="Path_1001751" data-name="Path 1001751" d="M439.551,532.2a1.009,1.009,0,0,0,1.008-.967c.3-7.18,5.428-13.014,5.48-13.072a1.009,1.009,0,0,0-1.5-1.345c-.231.258-5.662,6.415-5.992,14.333a1.01,1.01,0,0,0,.967,1.05h.043" transform="translate(-280.554 -330.411)" fill="#444472"/>
              <path id="Path_1001752" data-name="Path 1001752" d="M368.2,797.8l-90.5-29.636,28.042-24.218,30.591,6.055s21.032,9.879,26.13,22.944A89.583,89.583,0,0,1,368.2,797.8" transform="translate(-177.658 -475.937)" fill="#ffa67c"/>
              <path id="Path_1001753" data-name="Path 1001753" d="M176.566,624.37,238.157,589.1l11.957-7.828s15.1-15.775,18.268-17.346,25.654-2.914,27.237-2.908,22.294,6.888,22.294,6.888-2.708,4.581-5.874,4.569-15.029-2.429-15.029-2.429l-13.47,3.908.461,3.8s16.128,4.966,19.137,4.5,15.543-8.016,20.135-8.474,6.167,1.922,6.167,1.922l-2.223,2.049a7.688,7.688,0,0,1,5.217,1.839l-4.763,3.742a33.446,33.446,0,0,1,3.394,2.506l-17.386,14.42s-7.235,8.838-8.108,9.389-16.235,2.711-18.849,3.176-22.531-7.205-22.531-7.205l-18.373,15.417-60.968,52.407s-12.747-1.275-13.384-21.669,5.1-27.405,5.1-27.405" transform="translate(-109.663 -358.904)" fill="#ffa67c"/>
              <path id="Path_1001754" data-name="Path 1001754" d="M490.6,621.462c5.881,0,14.276-.1,16.38-.613,3.281-.808,18.844-12.971,20.608-14.355a.989.989,0,0,0-1.221-1.555c-6.533,5.128-17.7,13.46-19.86,13.991-2.5.615-16.61.587-21.836.524a.988.988,0,0,0-.024,1.977c.275,0,2.739.032,5.953.032" transform="translate(-309.426 -386.87)" fill="#d86742"/>
              <path id="Path_1001755" data-name="Path 1001755" d="M506.039,632.245c4.672,0,9.367-.322,10.819-1.509,2.676-2.187,22.365-18.994,22.564-19.164a.988.988,0,1,0-1.283-1.5c-.2.169-19.872,16.963-22.531,19.137-1.651,1.35-12.668,1.195-19.963.654a.988.988,0,1,0-.146,1.971c1.509.112,6.014.415,10.541.415" transform="translate(-316.407 -390.134)" fill="#d86742"/>
              <path id="Path_1001756" data-name="Path 1001756" d="M497.7,674.872h.043c.625-.027,15.322-.668,18.073-1.3,2.906-.673,6.314-4.292,6.692-4.7a.988.988,0,0,0-1.452-1.341c-.917.991-3.726,3.664-5.687,4.117-2.136.495-13.51,1.074-17.712,1.256a.988.988,0,0,0,.042,1.976" transform="translate(-317.771 -426.839)" fill="#d86742"/>
              <path id="Path_1001757" data-name="Path 1001757" d="M518.281,580.111a.988.988,0,0,0,.943-.695,19.151,19.151,0,0,0,.527-3.135.989.989,0,0,0-1.97-.172,17.04,17.04,0,0,1-.444,2.719.989.989,0,0,0,.944,1.282" transform="translate(-330.934 -367.984)" fill="#d86742"/>
              <path id="Path_1001758" data-name="Path 1001758" d="M417.529,672.148a.989.989,0,0,0,.42-1.884c-1.98-.927-4.26-4.829-4.971-6.254a.988.988,0,1,0-1.769.883c.293.588,2.95,5.779,5.9,7.162a.982.982,0,0,0,.418.093" transform="translate(-263.002 -424.445)" fill="#d86742"/>
              <path id="Path_1001759" data-name="Path 1001759" d="M183.916,722.793a1,1,0,0,0,.505-.137l12.906-7.488a1.009,1.009,0,0,0-1.013-1.746l-12.906,7.489a1.009,1.009,0,0,0,.508,1.882" transform="translate(-117.013 -456.319)" fill="#d86742"/>
              <path id="Path_1001760" data-name="Path 1001760" d="M206.913,751.213a1,1,0,0,0,.656-.242l79.666-68.194a1.009,1.009,0,1,0-1.312-1.533l-79.666,68.194a1.009,1.009,0,0,0,.656,1.776" transform="translate(-131.726 -435.665)" fill="#d86742"/>
              <path id="Path_1001761" data-name="Path 1001761" d="M136.63,707.207s-16.571-6.054-20.713-5.736S91.7,713.262,91.7,713.262s1.593,2.868,2.868,3.505l-3.505,2.868s2.868,2.868,4.461,2.868l-2.337,1.381a6.978,6.978,0,0,0,5.842,2.762c2.931-.209,21.032-10.2,21.032-10.2Z" transform="translate(-58.256 -448.753)" fill="#ffa67c"/>
              <path id="Path_1001762" data-name="Path 1001762" d="M88.975,729.29a1,1,0,0,0,.46-.112l21.941-11.258,6.824,1.365a1.009,1.009,0,1,0,.4-1.979l-7.516-1.5L88.513,727.382a1.009,1.009,0,0,0,.461,1.907" transform="translate(-56.275 -457.929)" fill="#d86742"/>
              <path id="Path_1001763" data-name="Path 1001763" d="M95.461,745.6a1.008,1.008,0,0,0,.374-.072l20.063-8.025,6.459-.833a1.009,1.009,0,1,0-.258-2l-6.713.866-20.3,8.12a1.009,1.009,0,0,0,.375,1.946" transform="translate(-60.425 -469.995)" fill="#d86742"/>
              <path id="Path_1001764" data-name="Path 1001764" d="M173.379,356.794l2.21-1.049a114.88,114.88,0,0,0,6.055,13.386c11.792,21.349,39.516,28.043,39.516,28.043s12.109-8.285,17.205-19.758c4.939-11.115,4.47-19.733,4.435-20.263-6.347-2.78-10.808-4.591-10.808-4.591s-26.842-7.013-38.558-4.783c-3.4.646-10.9,4.052-20.056,9.016" transform="translate(-110.918 -222.207)" fill="#f9dcd4"/>
              <path id="Path_1001765" data-name="Path 1001765" d="M214.968,337.059s-5.541,5.1-6.436,7.489c0,0,7.67,18.743,22.811,21.988,18.09,3.877,25.246-6.108,25.246-6.108s.832-6.959-1.257-9.348c0,0-12.377,8.126-24.006,1.912a40.21,40.21,0,0,1-16.358-15.933" transform="translate(-133.407 -215.63)" fill="#e0b1a9"/>
              <path id="Path_1001766" data-name="Path 1001766" d="M226.526,260.232a40.413,40.413,0,0,0,16.31,15.843c11.631,6.216,24.006-1.912,24.006-1.912a3.494,3.494,0,0,1,.292.391,31.763,31.763,0,0,1,2.292-10.242c.531-1.343,1.059-2.634,1.568-3.855,2.641-6.326,4.842-10.8,4.842-10.8l-14.014-25.49L245.546,218.1l-3.4-1.267L240.5,227.665s-.478,8.9-8.383,23.24c-2.569,4.664-4.421,7.6-5.594,9.328" transform="translate(-144.919 -138.715)" fill="#ffa67c"/>
              <path id="Path_1001767" data-name="Path 1001767" d="M274.848,221s6.855,33.78,15.5,40.152c3.734,2.75,8.3,2.391,11.557,1.559,2.639-6.327,4.839-10.8,4.839-10.8l-14.012-25.49-16.279-6.065Z" transform="translate(-175.832 -140.966)" fill="#ed7f62"/>
              <path id="Path_1001768" data-name="Path 1001768" d="M259.786,49.564s11.472,5.1,17.526,2.868,15.535-9.241,20.633-8.6a14.989,14.989,0,0,1,8.365,4.143s3.186-8.922-1.275-14.658-12.428-10.835-21.669-12.428-35.053.318-37.921,1.912a19.082,19.082,0,0,0-3.824,2.549s-.159-4.939,2.071-6.692a6.891,6.891,0,0,0-6.214,2.868,26.817,26.817,0,0,0-3.187,6.692s-6.054-.956-7.966,3.187a4.385,4.385,0,0,1,4.143,1.275,21.4,21.4,0,0,0-7.807,11.79c-2.071,7.967-1.593,27.564,1.275,33.3s10.835,21.191,10.835,21.191,6.745-2.018,7.807-3.293,10.2-14.446,10.2-14.446,6.161-1.062,7.435-5.1c2.55-8.073-.425-26.555-.425-26.555" transform="translate(-141.632 -11.917)" fill="#ab584a"/>
              <path id="Path_1001769" data-name="Path 1001769" d="M304.761,60.542a1.009,1.009,0,0,0,.118-2.011c-.131-.015-13.13-1.6-16.994-4.867-4.471-3.783-12.019-2.2-12.338-2.128a1.009,1.009,0,1,0,.429,1.972c.068-.014,6.9-1.441,10.606,1.7,4.325,3.659,17.5,5.264,18.059,5.33a.972.972,0,0,0,.121.007" transform="translate(-175.771 -32.72)" fill="#844840"/>
              <path id="Path_1001770" data-name="Path 1001770" d="M386.767,42.945a1.009,1.009,0,0,0,.617-1.808c-.472-.364-11.673-8.877-22.551-5.911a1.009,1.009,0,1,0,.531,1.947c9.916-2.7,20.68,5.478,20.787,5.562a1.007,1.007,0,0,0,.616.21" transform="translate(-232.924 -22.134)" fill="#844840"/>
              <path id="Path_1001771" data-name="Path 1001771" d="M352.213,54.695a46.318,46.318,0,0,0,8.858-1.431,1.009,1.009,0,0,0-.49-1.958c-2.856.714-7.924,1.694-9.357,1.284a1.009,1.009,0,1,0-.554,1.941,5.866,5.866,0,0,0,1.543.164" transform="translate(-223.87 -32.802)" fill="#844840"/>
              <path id="Path_1001772" data-name="Path 1001772" d="M233.686,101.962a1.01,1.01,0,0,0,.98-1.254c0-.018-.581-2.579.026-9.869.591-7.089,8.434-12.914,8.513-12.972a1.009,1.009,0,0,0-1.191-1.629c-.353.258-8.665,6.418-9.333,14.433-.644,7.726,0,10.415.026,10.526a1.01,1.01,0,0,0,.978.764" transform="translate(-148.674 -48.647)" fill="#844840"/>
              <path id="Path_1001773" data-name="Path 1001773" d="M252.763,149.228a1.009,1.009,0,0,0,.97-.732c.053-.184,1.294-4.539,1.619-6.485.337-2.025-1.11-10.247-1.276-11.178a1.009,1.009,0,0,0-1.987.355c.6,3.384,1.484,9.224,1.273,10.491-.305,1.834-1.556,6.218-1.568,6.262a1.009,1.009,0,0,0,.971,1.286" transform="translate(-161.058 -83.166)" fill="#844840"/>
              <path id="Path_1001774" data-name="Path 1001774" d="M236.56,173.637a1,1,0,0,0,.319-.052,1.009,1.009,0,0,0,.638-1.276l-4.143-12.428a1.009,1.009,0,0,0-1.914.638l4.143,12.428a1.009,1.009,0,0,0,.957.69" transform="translate(-148.042 -101.84)" fill="#844840"/>
              <path id="Path_1001775" data-name="Path 1001775" d="M424.861,89.323s-2.868,7.33-9.241,7.967S406.7,83.269,406.7,83.269s16.889.318,18.164,6.054" transform="translate(-260.182 -53.269)" fill="#844840"/>
              <path id="Path_1001776" data-name="Path 1001776" d="M318.782,90.344s5.942,13.7,6.932,20.714,0,11.79,1.32,15.933,7.262,11.153,7.262,11.153-3.3,4.462-7.592,5.417c0,0-1.981,25.812-4.952,31.548s-12.874,4.462-17.5,3.187-17.826-10.835-22.118-19.438-4.291-12.747-4.291-12.747-8.913.318-10.894-2.231-9.573-17.526-5.282-21.669S272.9,121.148,276.2,127.1c0,0,5.5-1.169,7.7-5.1s-.44-26.555-.44-26.555,9.738,2.708,15.35,2.071,19.972-7.17,19.972-7.17" transform="translate(-166.576 -57.796)" fill="#ffa67c"/>
              <path id="Path_1001777" data-name="Path 1001777" d="M421.887,228.288c-1.807-1.642-1.057-4.871-.966-5.233a1.027,1.027,0,0,1,1.992.5c-.187.757-.348,2.507.318,3.179a13.785,13.785,0,0,0,5.867.1,7.8,7.8,0,0,0,6.091-4.1,1.027,1.027,0,0,1,1.9.782,9.818,9.818,0,0,1-7.664,5.35,21.85,21.85,0,0,1-3.378.265c-1.85,0-3.519-.255-4.161-.838" transform="translate(-269.134 -142.08)" fill="#d86742"/>
              <path id="Path_1001778" data-name="Path 1001778" d="M387.414,148.845s-.425,3-2.655,3.638-8.895.794-11.153,1.115a32.91,32.91,0,0,1-5.205.106,8.916,8.916,0,0,1,4.036-4.461c3.027-1.593,14.977-.4,14.977-.4" transform="translate(-235.641 -94.946)" fill="#ab584a"/>
              <path id="Path_1001779" data-name="Path 1001779" d="M397.309,176.44c-4.036,0-2.549,9.56.425,9.135s3.187-9.135-.425-9.135" transform="translate(-252.6 -112.875)" fill="#3a2624"/>
              <path id="Path_1001780" data-name="Path 1001780" d="M408.183,254.164s-12.322,1.487-15.933-1.062c0,0,2.337,8.285,5.311,8.922s9.348-1.062,9.348-1.062Z" transform="translate(-250.939 -161.919)" fill="#fff"/>
              <path id="Path_1001781" data-name="Path 1001781" d="M332.161,223.043c-3.156,2.042,6.373,13.809,10.2,11.259s-6.585-13.6-10.2-11.259" transform="translate(-212.095 -142.483)" fill="#d86742"/>
              <path id="Path_1001782" data-name="Path 1001782" d="M290.71,210.01a1.01,1.01,0,0,0,.983-1.242c-1.988-8.39-9.492-12.976-9.81-13.167a1.009,1.009,0,0,0-1.039,1.73c.091.055,7.1,4.367,8.885,11.9a1.01,1.01,0,0,0,.981.777" transform="translate(-179.355 -125.041)" fill="#d86742"/>
              <path id="Path_1001783" data-name="Path 1001783" d="M284.9,218.649a1.008,1.008,0,0,0,.869-.494c.328-.549,1.443-2.008,2.65-2.179a2.107,2.107,0,0,1,1.742.7,1.009,1.009,0,0,0,1.377-1.476,4.044,4.044,0,0,0-3.411-1.224c-2.373.342-3.925,2.862-4.094,3.148a1.009,1.009,0,0,0,.867,1.523" transform="translate(-181.619 -136.867)" fill="#d86742"/>
              <path id="Path_1001784" data-name="Path 1001784" d="M385.565,249.26c-.915-.592-1.586-1.033-1.993-1.312-.471-.321-1.259-.858-.748-1.7.238-.391.719-.742,1.665-.2l-.032.057c.188.135.718.5,2.2,1.459,2.715,1.757,11.951,1.25,15.281.906a1.009,1.009,0,0,1,.207,2.008c-.634.066-3.7.363-7.121.363-3.572,0-7.522-.326-9.464-1.582m-2.059-1.49a1.009,1.009,0,0,0,.944-1.652Z" transform="translate(-244.803 -157.23)" fill="#d86742"/>
              <path id="Path_1001785" data-name="Path 1001785" d="M399.892,297.139a1.008,1.008,0,0,0,.808-.4c1.143-1.525,5.527-1.737,8.024-1.512a1.009,1.009,0,0,0,.182-2.01c-.775-.071-7.635-.6-9.821,2.311a1.009,1.009,0,0,0,.807,1.615" transform="translate(-255.184 -187.527)" fill="#d86742"/>
              <path id="Path_1001786" data-name="Path 1001786" d="M387.213,179.276a1.009,1.009,0,0,0,.909-.569,4.025,4.025,0,0,1,2.381-2.245c2.188-.718,4.819.613,4.845.626a1.009,1.009,0,1,0,.94-1.786c-.137-.072-3.389-1.752-6.415-.758a6.017,6.017,0,0,0-3.567,3.282,1.01,1.01,0,0,0,.908,1.45" transform="translate(-247.072 -111.461)" fill="#3a2624"/>
              <path id="Path_1001787" data-name="Path 1001787" d="M348.583,62.629s5.948,9.56,1.912,18.907c0,0-1.912-4.886-6.8-6.161s-13.171.85-13.171.85l1.487,4.461s-25.918.85-29.317-2.974c0,0,3.612,11.684,3.824,15.508l-3.612-3.187s-7.86-1.275-8.073-1.912-6.373-17.208-6.373-17.208l14.234-1.7L321.178,72.4Z" transform="translate(-184.542 -40.065)" fill="#ab584a"/>
            </g>
          </g>
        </g>
      </g>
      <g id="Group_1187344" data-name="Group 1187344" transform="translate(25 -32.763)">
        <g id="Union_24" data-name="Union 24" transform="translate(345 7731.762)" fill="#d6e4c6">
          <path d="M 230.6781005859375 97.65800476074219 L 13.00049591064453 97.65800476074219 C 9.794962882995605 97.65800476074219 6.781363010406494 96.40980529785156 4.514762878417969 94.14330291748047 C 2.248229742050171 91.87689971923828 0.9999963641166687 88.86357116699219 0.9999963641166687 85.65840148925781 L 0.9999963641166687 13.00050258636475 C 0.9999963641166687 9.794936180114746 2.248229742050171 6.781335830688477 4.514762878417969 4.514769077301025 C 6.78132963180542 2.248235702514648 9.794929504394531 1.000002384185791 13.00049591064453 1.000002384185791 L 230.6781005859375 1.000002384185791 C 233.8836669921875 1.000002384185791 236.8972625732422 2.248235702514648 239.1638336181641 4.514769077301025 C 241.4303588867188 6.781335830688477 242.6785888671875 9.794936180114746 242.6785888671875 13.00050258636475 L 242.6785888671875 63.59720230102539 L 242.6785888671875 64.35089874267578 L 243.4031677246094 64.55850219726562 L 251.5742645263672 66.89980316162109 C 252.4880981445312 67.16170501708984 253.2400970458984 67.68230438232422 253.7489624023438 68.40533447265625 C 254.2154998779297 69.06826782226562 254.4724273681641 69.899169921875 254.4724273681641 70.74497222900391 C 254.4724273681641 71.59073638916016 254.2154998779297 72.42163848876953 253.7489624023438 73.08457183837891 C 253.2400970458984 73.80760192871094 252.4880981445312 74.32820129394531 251.5742340087891 74.59010314941406 L 243.4030914306641 76.93180084228516 L 242.6785888671875 77.13943481445312 L 242.6785888671875 77.89310455322266 L 242.6785888671875 85.65840148925781 C 242.6785888671875 88.86357116699219 241.4303588867188 91.87689971923828 239.1638336181641 94.14330291748047 C 236.8972320556641 96.40980529785156 233.8836364746094 97.65800476074219 230.6781005859375 97.65800476074219 Z" stroke="none"/>
          <path d="M 230.6781005859375 96.65800476074219 C 233.6165313720703 96.65800476074219 236.3790283203125 95.51380157470703 238.4567260742188 93.43620300292969 C 240.5343933105469 91.35863494873047 241.6785888671875 88.596435546875 241.6785888671875 85.65840148925781 L 241.6785888671875 76.38577270507812 L 251.2987365722656 73.62879943847656 C 252.9013977050781 73.16953277587891 253.4724273681641 71.83796691894531 253.4724273681641 70.74497222900391 C 253.4724273681641 69.65193939208984 252.9013977050781 68.32036590576172 251.2987976074219 67.86113739013672 L 241.6785888671875 65.10459899902344 L 241.6785888671875 13.00050258636475 C 241.6785888671875 10.06206893920898 240.5343627929688 7.299569129943848 238.4566955566406 5.221902370452881 C 236.3790283203125 3.144235610961914 233.6165313720703 2.000002384185791 230.6781005859375 2.000002384185791 L 13.00049591064453 2.000002384185791 C 10.06206321716309 2.000002384185791 7.299562931060791 3.144235610961914 5.221896171569824 5.221902370452881 C 3.144229650497437 7.299569129943848 1.999996304512024 10.06206893920898 1.999996304512024 13.00050258636475 L 1.999996304512024 85.65840148925781 C 1.999996304512024 88.596435546875 3.144196271896362 91.35863494873047 5.22186279296875 93.43620300292969 C 7.299562931060791 95.51380157470703 10.06206321716309 96.65800476074219 13.00049591064453 96.65800476074219 L 230.6781005859375 96.65800476074219 M 230.6781005859375 98.65800476074219 L 13.00049591064453 98.65800476074219 C 5.820296287536621 98.65800476074219 -3.662109293145477e-06 92.83769989013672 -3.662109293145477e-06 85.65840148925781 L -3.662109293145477e-06 13.00050258636475 C -3.662109293145477e-06 5.820302486419678 5.820296287536621 2.380371142862714e-06 13.00049591064453 2.380371142862714e-06 L 230.6781005859375 2.380371142862714e-06 C 237.8582916259766 2.380371142862714e-06 243.6785888671875 5.820302486419678 243.6785888671875 13.00050258636475 L 243.6785888671875 63.59720230102539 L 251.8497009277344 65.93849945068359 C 256.6799926757812 67.32270050048828 256.6799926757812 74.16720581054688 251.8497009277344 75.55139923095703 L 243.6785888671875 77.89310455322266 L 243.6785888671875 85.65840148925781 C 243.6785888671875 92.83769989013672 237.8582916259766 98.65800476074219 230.6781005859375 98.65800476074219 Z" stroke="none" fill="#000"/>
        </g>
        <path id="Path_1006976" data-name="Path 1006976" d="M5.528,12.654a5.151,5.151,0,0,1-.257,1.786,3.47,3.47,0,0,1-.917,1.3,9.675,9.675,0,0,0-.9.914,2.384,2.384,0,0,0-.357.607,1.833,1.833,0,0,0-.12.674,1.142,1.142,0,0,0,1.278,1.305,1.381,1.381,0,0,0,1.017-.374,1.464,1.464,0,0,0,.394-1.048h2.4A3.2,3.2,0,0,1,7.047,20.3,3.987,3.987,0,0,1,4.3,21.2a4.081,4.081,0,0,1-2.748-.843,3,3,0,0,1-.979-2.405,3.7,3.7,0,0,1,1.27-2.592l.805-.773a2.129,2.129,0,0,0,.577-.781A3.424,3.424,0,0,0,3.4,12.654Zm.3-2.536a1.189,1.189,0,0,1-.382.91,1.357,1.357,0,0,1-.963.356,1.357,1.357,0,0,1-.963-.356,1.189,1.189,0,0,1-.382-.91,1.208,1.208,0,0,1,.369-.91,1.347,1.347,0,0,1,.975-.356,1.347,1.347,0,0,1,.975.356A1.208,1.208,0,0,1,5.827,10.118Zm6.2,3.623V18H9.538V5.914h4.715a5.455,5.455,0,0,1,2.395.5,3.67,3.67,0,0,1,1.59,1.415,3.946,3.946,0,0,1,.556,2.088,3.47,3.47,0,0,1-1.216,2.8,5.065,5.065,0,0,1-3.366,1.025Zm0-2.017h2.225a2.187,2.187,0,0,0,1.507-.465,1.691,1.691,0,0,0,.519-1.328A1.994,1.994,0,0,0,15.755,8.5a1.953,1.953,0,0,0-1.444-.564H12.028Zm7.836,1.7a5.327,5.327,0,0,1,.515-2.382A3.768,3.768,0,0,1,21.86,9.425a4.323,4.323,0,0,1,2.245-.573,4.09,4.09,0,0,1,2.968,1.112,4.464,4.464,0,0,1,1.282,3.021l.017.614a4.694,4.694,0,0,1-1.154,3.316,4.011,4.011,0,0,1-3.1,1.249,4.031,4.031,0,0,1-3.1-1.245,4.777,4.777,0,0,1-1.158-3.387Zm2.4.17a3.357,3.357,0,0,0,.481,1.958,1.73,1.73,0,0,0,2.739.008,3.674,3.674,0,0,0,.49-2.141,3.324,3.324,0,0,0-.49-1.945,1.592,1.592,0,0,0-1.378-.69,1.566,1.566,0,0,0-1.361.686A3.735,3.735,0,0,0,22.263,13.6Zm7.213-.154a5.413,5.413,0,0,1,.942-3.345A3.057,3.057,0,0,1,33,8.853a2.751,2.751,0,0,1,2.167.979V5.25h2.407V18H35.4l-.116-.955a2.823,2.823,0,0,1-2.308,1.121,3.049,3.049,0,0,1-2.544-1.249A5.587,5.587,0,0,1,29.476,13.443Zm2.4.179a3.546,3.546,0,0,0,.44,1.937,1.433,1.433,0,0,0,1.278.673,1.605,1.605,0,0,0,1.569-.939v-3.55A1.582,1.582,0,0,0,33.61,10.8Q31.875,10.8,31.875,13.621Zm12.6-2.353a6.517,6.517,0,0,0-.863-.066,1.757,1.757,0,0,0-1.785.921V18h-2.4V9.019h2.266l.066,1.071a2.223,2.223,0,0,1,2-1.237,2.514,2.514,0,0,1,.747.108ZM48.219,18h-2.4V9.019h2.4ZM47.514,5.375h2.615l-2.3,2.573H45.878ZM55.491,18a2.664,2.664,0,0,1-.241-.805,2.9,2.9,0,0,1-2.266.971A3.189,3.189,0,0,1,50.8,17.4a2.456,2.456,0,0,1-.867-1.926,2.538,2.538,0,0,1,1.058-2.191,5.222,5.222,0,0,1,3.059-.772h1.1V12a1.48,1.48,0,0,0-.32-1,1.257,1.257,0,0,0-1.009-.374,1.429,1.429,0,0,0-.95.291.987.987,0,0,0-.344.8h-2.4a2.41,2.41,0,0,1,.481-1.444A3.182,3.182,0,0,1,51.971,9.23a4.961,4.961,0,0,1,1.976-.378,3.92,3.92,0,0,1,2.635.834,2.918,2.918,0,0,1,.975,2.345v3.893a4.294,4.294,0,0,0,.357,1.934V18Zm-1.984-1.668a2.066,2.066,0,0,0,.979-.237,1.554,1.554,0,0,0,.664-.635V13.916h-.9q-1.8,0-1.917,1.245l-.008.141a.96.96,0,0,0,.315.739A1.225,1.225,0,0,0,53.507,16.332Zm10.758-.813a.773.773,0,0,0-.436-.693,4.95,4.95,0,0,0-1.4-.452q-3.2-.672-3.2-2.723a2.468,2.468,0,0,1,.992-2,4,4,0,0,1,2.594-.8,4.307,4.307,0,0,1,2.735.805,2.538,2.538,0,0,1,1.025,2.092h-2.4a1.161,1.161,0,0,0-.332-.851,1.405,1.405,0,0,0-1.038-.336,1.436,1.436,0,0,0-.938.274.865.865,0,0,0-.332.7.739.739,0,0,0,.378.643,3.885,3.885,0,0,0,1.274.423A10.407,10.407,0,0,1,64.7,13a2.482,2.482,0,0,1,1.9,2.416,2.343,2.343,0,0,1-1.054,1.988,4.548,4.548,0,0,1-2.723.76,4.75,4.75,0,0,1-2-.4,3.363,3.363,0,0,1-1.374-1.1,2.565,2.565,0,0,1-.5-1.515h2.274a1.252,1.252,0,0,0,.473.979,1.877,1.877,0,0,0,1.179.34,1.737,1.737,0,0,0,1.042-.261A.814.814,0,0,0,64.265,15.518Zm13.157-4.25a6.517,6.517,0,0,0-.863-.066,1.757,1.757,0,0,0-1.785.921V18h-2.4V9.019h2.266l.066,1.071a2.223,2.223,0,0,1,2-1.237,2.514,2.514,0,0,1,.747.108Zm5.288,6.9a4.409,4.409,0,0,1-3.217-1.212,4.308,4.308,0,0,1-1.241-3.229v-.232a5.426,5.426,0,0,1,.523-2.42,3.838,3.838,0,0,1,1.482-1.644,4.159,4.159,0,0,1,2.187-.577,3.727,3.727,0,0,1,2.9,1.162,4.722,4.722,0,0,1,1.058,3.3v.979H80.684a2.229,2.229,0,0,0,.7,1.411,2.12,2.12,0,0,0,1.482.531,2.589,2.589,0,0,0,2.167-1l1.179,1.32a3.6,3.6,0,0,1-1.461,1.191A4.793,4.793,0,0,1,82.709,18.166Zm-.274-7.379a1.5,1.5,0,0,0-1.158.484,2.5,2.5,0,0,0-.569,1.384h3.337v-.192a1.786,1.786,0,0,0-.432-1.238A1.547,1.547,0,0,0,82.435,10.787ZM91.5,16.232a1.573,1.573,0,0,0,1.079-.365,1.28,1.28,0,0,0,.432-.971h2.25a3.077,3.077,0,0,1-.5,1.673,3.286,3.286,0,0,1-1.341,1.179,4.2,4.2,0,0,1-1.88.419A3.9,3.9,0,0,1,88.5,16.942a4.845,4.845,0,0,1-1.112-3.383V13.4a4.79,4.79,0,0,1,1.1-3.312,3.854,3.854,0,0,1,3.03-1.237,3.778,3.778,0,0,1,2.7.959,3.4,3.4,0,0,1,1.033,2.552H93.01a1.648,1.648,0,0,0-.432-1.139,1.6,1.6,0,0,0-2.362.173,3.541,3.541,0,0,0-.427,1.983v.249a3.586,3.586,0,0,0,.423,2A1.463,1.463,0,0,0,91.5,16.232Zm4.756-2.806a5.326,5.326,0,0,1,.515-2.382,3.768,3.768,0,0,1,1.482-1.619,4.323,4.323,0,0,1,2.245-.573,4.09,4.09,0,0,1,2.968,1.112,4.464,4.464,0,0,1,1.282,3.021l.017.614a4.694,4.694,0,0,1-1.154,3.316,4.472,4.472,0,0,1-6.2,0,4.777,4.777,0,0,1-1.158-3.387Zm2.4.17a3.357,3.357,0,0,0,.481,1.958,1.73,1.73,0,0,0,2.739.008,3.674,3.674,0,0,0,.49-2.141,3.324,3.324,0,0,0-.49-1.945,1.592,1.592,0,0,0-1.378-.69,1.566,1.566,0,0,0-1.361.686A3.736,3.736,0,0,0,98.655,13.6Zm12.634-2.328a6.517,6.517,0,0,0-.863-.066,1.757,1.757,0,0,0-1.785.921V18h-2.4V9.019h2.266l.066,1.071a2.223,2.223,0,0,1,2-1.237,2.514,2.514,0,0,1,.747.108Zm.78,2.175a5.413,5.413,0,0,1,.942-3.345,3.057,3.057,0,0,1,2.577-1.245,2.751,2.751,0,0,1,2.167.979V5.25h2.407V18H118l-.116-.955a2.823,2.823,0,0,1-2.308,1.121,3.049,3.049,0,0,1-2.544-1.249A5.587,5.587,0,0,1,112.069,13.443Zm2.4.179a3.546,3.546,0,0,0,.44,1.937,1.433,1.433,0,0,0,1.278.673,1.605,1.605,0,0,0,1.569-.939v-3.55A1.582,1.582,0,0,0,116.2,10.8Q114.468,10.8,114.468,13.621ZM127.226,18a2.664,2.664,0,0,1-.241-.805,2.9,2.9,0,0,1-2.266.971,3.189,3.189,0,0,1-2.187-.764,2.456,2.456,0,0,1-.867-1.926,2.538,2.538,0,0,1,1.058-2.191,5.222,5.222,0,0,1,3.059-.772h1.1V12a1.48,1.48,0,0,0-.32-1,1.257,1.257,0,0,0-1.009-.374,1.429,1.429,0,0,0-.95.291.987.987,0,0,0-.344.8h-2.4a2.41,2.41,0,0,1,.481-1.444,3.182,3.182,0,0,1,1.361-1.042,4.961,4.961,0,0,1,1.976-.378,3.92,3.92,0,0,1,2.635.834,2.918,2.918,0,0,1,.975,2.345v3.893a4.294,4.294,0,0,0,.357,1.934V18Zm-1.984-1.668a2.066,2.066,0,0,0,.979-.237,1.554,1.554,0,0,0,.664-.635V13.916h-.9q-1.8,0-1.917,1.245l-.008.141a.96.96,0,0,0,.315.739A1.225,1.225,0,0,0,125.242,16.332Zm10.94-5.063a6.517,6.517,0,0,0-.863-.066,1.757,1.757,0,0,0-1.785.921V18h-2.4V9.019H133.4l.066,1.071a2.223,2.223,0,0,1,2-1.237,2.514,2.514,0,0,1,.747.108Zm10.766,5.819a3.008,3.008,0,0,1-2.457,1.079,2.837,2.837,0,0,1-2.2-.83,3.543,3.543,0,0,1-.776-2.432V9.019h2.4v5.809q0,1.4,1.278,1.4a1.732,1.732,0,0,0,1.677-.848V9.019h2.407V18h-2.258Zm6.342-8.068.075,1.038a3.136,3.136,0,0,1,2.582-1.2,2.606,2.606,0,0,1,2.125.838,3.912,3.912,0,0,1,.714,2.507V18h-2.4V12.256a1.556,1.556,0,0,0-.332-1.108,1.486,1.486,0,0,0-1.1-.344,1.65,1.65,0,0,0-1.519.863V18h-2.4V9.019ZM5.055,38.166a4.409,4.409,0,0,1-3.217-1.212A4.308,4.308,0,0,1,.6,33.725v-.232a5.426,5.426,0,0,1,.523-2.42A3.838,3.838,0,0,1,2.6,29.429a4.159,4.159,0,0,1,2.187-.577,3.727,3.727,0,0,1,2.9,1.162,4.722,4.722,0,0,1,1.058,3.3v.979H3.03a2.229,2.229,0,0,0,.7,1.411,2.12,2.12,0,0,0,1.482.531,2.589,2.589,0,0,0,2.167-1l1.179,1.32A3.6,3.6,0,0,1,7.1,37.739,4.793,4.793,0,0,1,5.055,38.166Zm-.274-7.379a1.5,1.5,0,0,0-1.158.484,2.5,2.5,0,0,0-.569,1.384H6.392v-.192a1.786,1.786,0,0,0-.432-1.238A1.547,1.547,0,0,0,4.781,30.787Zm7.869-1.768V38.49a3.213,3.213,0,0,1-.789,2.312,3,3,0,0,1-2.274.826A4.878,4.878,0,0,1,8.4,41.486v-1.9a4.5,4.5,0,0,0,.755.075q1.087,0,1.087-1.154V29.019Zm-2.6-2.324a1.181,1.181,0,0,1,.361-.888,1.356,1.356,0,0,1,.984-.349,1.356,1.356,0,0,1,.984.349,1.273,1.273,0,0,1-.008,1.785,1.363,1.363,0,0,1-.975.349,1.363,1.363,0,0,1-.975-.349A1.178,1.178,0,0,1,10.052,26.694ZM18.66,38.166a4.409,4.409,0,0,1-3.217-1.212A4.308,4.308,0,0,1,14.2,33.725v-.232a5.426,5.426,0,0,1,.523-2.42,3.838,3.838,0,0,1,1.482-1.644,4.159,4.159,0,0,1,2.187-.577,3.727,3.727,0,0,1,2.9,1.162,4.722,4.722,0,0,1,1.058,3.3v.979H16.635a2.229,2.229,0,0,0,.7,1.411,2.12,2.12,0,0,0,1.482.531,2.589,2.589,0,0,0,2.167-1l1.179,1.32A3.6,3.6,0,0,1,20.7,37.739,4.793,4.793,0,0,1,18.66,38.166Zm-.274-7.379a1.5,1.5,0,0,0-1.158.484,2.5,2.5,0,0,0-.569,1.384H20v-.192a1.786,1.786,0,0,0-.432-1.238A1.547,1.547,0,0,0,18.386,30.787Zm7.579-1.768.075,1a3.156,3.156,0,0,1,2.582-1.17A2.4,2.4,0,0,1,31,30.222a3.084,3.084,0,0,1,2.7-1.37,2.679,2.679,0,0,1,2.175.851,3.911,3.911,0,0,1,.714,2.561V38H34.183V32.272a1.71,1.71,0,0,0-.3-1.116A1.324,1.324,0,0,0,32.83,30.8a1.5,1.5,0,0,0-1.494,1.029L31.344,38h-2.4V32.281a1.689,1.689,0,0,0-.307-1.129,1.337,1.337,0,0,0-1.046-.349,1.555,1.555,0,0,0-1.478.847V38h-2.4V29.019Zm20.553,4.574a5.387,5.387,0,0,1-.942,3.324,3.021,3.021,0,0,1-2.544,1.249,2.8,2.8,0,0,1-2.2-.946v4.233h-2.4V29.019h2.225l.083.88a2.819,2.819,0,0,1,2.274-1.046A3.041,3.041,0,0,1,45.6,30.081a5.532,5.532,0,0,1,.921,3.387Zm-2.4-.174a3.535,3.535,0,0,0-.444-1.934,1.446,1.446,0,0,0-1.291-.681,1.571,1.571,0,0,0-1.552.863v3.677a1.6,1.6,0,0,0,1.569.888Q44.119,36.232,44.119,33.418ZM50.535,38H48.128V25.25h2.407Zm1.6-4.574a5.327,5.327,0,0,1,.515-2.382,3.767,3.767,0,0,1,1.482-1.619,4.323,4.323,0,0,1,2.245-.573,4.09,4.09,0,0,1,2.968,1.112,4.464,4.464,0,0,1,1.282,3.021l.017.614a4.694,4.694,0,0,1-1.154,3.316,4.472,4.472,0,0,1-6.2,0,4.777,4.777,0,0,1-1.158-3.387Zm2.4.17a3.357,3.357,0,0,0,.481,1.958,1.73,1.73,0,0,0,2.739.008,3.674,3.674,0,0,0,.49-2.141,3.324,3.324,0,0,0-.49-1.945,1.592,1.592,0,0,0-1.378-.69,1.566,1.566,0,0,0-1.361.686A3.735,3.735,0,0,0,54.536,33.6ZM71.4,31.268a6.517,6.517,0,0,0-.863-.066,1.757,1.757,0,0,0-1.785.921V38h-2.4V29.019h2.266l.066,1.071a2.223,2.223,0,0,1,2-1.237,2.514,2.514,0,0,1,.747.108Zm5.288,6.9a4.409,4.409,0,0,1-3.217-1.212,4.308,4.308,0,0,1-1.241-3.229v-.232a5.426,5.426,0,0,1,.523-2.42,3.838,3.838,0,0,1,1.482-1.644,4.159,4.159,0,0,1,2.187-.577,3.727,3.727,0,0,1,2.9,1.162,4.722,4.722,0,0,1,1.058,3.3v.979H74.666a2.229,2.229,0,0,0,.7,1.411,2.12,2.12,0,0,0,1.482.531,2.589,2.589,0,0,0,2.167-1l1.179,1.32a3.6,3.6,0,0,1-1.461,1.191A4.793,4.793,0,0,1,76.691,38.166Zm-.274-7.379a1.5,1.5,0,0,0-1.158.484,2.5,2.5,0,0,0-.569,1.384h3.337v-.192a1.786,1.786,0,0,0-.432-1.238A1.547,1.547,0,0,0,76.417,30.787ZM84.278,38H81.871V25.25h2.407Zm7.18,0a2.664,2.664,0,0,1-.241-.805,2.9,2.9,0,0,1-2.266.971,3.189,3.189,0,0,1-2.187-.764,2.456,2.456,0,0,1-.867-1.926,2.538,2.538,0,0,1,1.058-2.191,5.222,5.222,0,0,1,3.059-.772h1.1V32a1.48,1.48,0,0,0-.32-1,1.257,1.257,0,0,0-1.009-.374,1.429,1.429,0,0,0-.95.291.987.987,0,0,0-.344.8H86.1a2.41,2.41,0,0,1,.481-1.444,3.182,3.182,0,0,1,1.361-1.042,4.961,4.961,0,0,1,1.976-.378,3.92,3.92,0,0,1,2.635.834,2.918,2.918,0,0,1,.975,2.345v3.893a4.294,4.294,0,0,0,.357,1.934V38Zm-1.984-1.668a2.066,2.066,0,0,0,.979-.237,1.554,1.554,0,0,0,.664-.635V33.916h-.9q-1.8,0-1.917,1.245L88.3,35.3a.96.96,0,0,0,.315.739A1.225,1.225,0,0,0,89.474,36.332Zm9.629-.1a1.573,1.573,0,0,0,1.079-.365,1.28,1.28,0,0,0,.432-.971h2.25a3.077,3.077,0,0,1-.5,1.673,3.286,3.286,0,0,1-1.341,1.179,4.2,4.2,0,0,1-1.88.419,3.9,3.9,0,0,1-3.038-1.224,4.845,4.845,0,0,1-1.112-3.383V33.4a4.79,4.79,0,0,1,1.1-3.312,3.854,3.854,0,0,1,3.03-1.237,3.778,3.778,0,0,1,2.7.959,3.4,3.4,0,0,1,1.033,2.552h-2.25a1.648,1.648,0,0,0-.432-1.139,1.6,1.6,0,0,0-2.362.173,3.541,3.541,0,0,0-.427,1.983v.249a3.586,3.586,0,0,0,.423,2A1.463,1.463,0,0,0,99.1,36.232ZM106.765,38h-2.407V29.019h2.407Zm-2.548-11.306a1.181,1.181,0,0,1,.361-.888,1.556,1.556,0,0,1,1.963,0,1.268,1.268,0,0,1,0,1.785,1.539,1.539,0,0,1-1.951,0A1.178,1.178,0,0,1,104.216,26.694Zm4.15,6.732a5.326,5.326,0,0,1,.515-2.382,3.768,3.768,0,0,1,1.482-1.619,4.323,4.323,0,0,1,2.245-.573,4.09,4.09,0,0,1,2.968,1.112,4.464,4.464,0,0,1,1.282,3.021l.017.614a4.694,4.694,0,0,1-1.154,3.316,4.472,4.472,0,0,1-6.2,0,4.777,4.777,0,0,1-1.158-3.387Zm2.4.17a3.357,3.357,0,0,0,.481,1.958,1.73,1.73,0,0,0,2.739.008,3.674,3.674,0,0,0,.49-2.141,3.324,3.324,0,0,0-.49-1.945,1.592,1.592,0,0,0-1.378-.69,1.566,1.566,0,0,0-1.361.686A3.736,3.736,0,0,0,110.766,33.6Zm9.795-4.578.075,1.038a3.136,3.136,0,0,1,2.582-1.2,2.606,2.606,0,0,1,2.125.838,3.912,3.912,0,0,1,.714,2.507V38h-2.4V32.256a1.556,1.556,0,0,0-.332-1.108,1.486,1.486,0,0,0-1.1-.344,1.65,1.65,0,0,0-1.519.863V38h-2.4V29.019ZM133.078,38a2.664,2.664,0,0,1-.241-.805,2.9,2.9,0,0,1-2.266.971,3.189,3.189,0,0,1-2.187-.764,2.456,2.456,0,0,1-.867-1.926,2.538,2.538,0,0,1,1.058-2.191,5.222,5.222,0,0,1,3.059-.772h1.1V32a1.48,1.48,0,0,0-.32-1,1.257,1.257,0,0,0-1.009-.374,1.429,1.429,0,0,0-.95.291.987.987,0,0,0-.344.8h-2.4a2.41,2.41,0,0,1,.481-1.444,3.182,3.182,0,0,1,1.361-1.042,4.961,4.961,0,0,1,1.976-.378,3.92,3.92,0,0,1,2.635.834,2.918,2.918,0,0,1,.975,2.345v3.893a4.294,4.294,0,0,0,.357,1.934V38Zm-1.984-1.668a2.066,2.066,0,0,0,.979-.237,1.554,1.554,0,0,0,.664-.635V33.916h-.9q-1.8,0-1.917,1.245l-.008.141a.96.96,0,0,0,.315.739A1.225,1.225,0,0,0,131.094,36.332Zm5.52-2.889a5.413,5.413,0,0,1,.942-3.345,3.057,3.057,0,0,1,2.577-1.245,2.751,2.751,0,0,1,2.167.979V25.25h2.407V38h-2.167l-.116-.955a2.823,2.823,0,0,1-2.308,1.121,3.049,3.049,0,0,1-2.544-1.249A5.587,5.587,0,0,1,136.614,33.443Zm2.4.179a3.546,3.546,0,0,0,.44,1.937,1.433,1.433,0,0,0,1.278.673,1.605,1.605,0,0,0,1.569-.939v-3.55a1.582,1.582,0,0,0-1.552-.939Q139.013,30.8,139.013,33.621Zm7.18-.2a5.327,5.327,0,0,1,.515-2.382,3.767,3.767,0,0,1,1.482-1.619,4.323,4.323,0,0,1,2.245-.573,4.09,4.09,0,0,1,2.968,1.112,4.464,4.464,0,0,1,1.282,3.021l.017.614a4.694,4.694,0,0,1-1.154,3.316,4.472,4.472,0,0,1-6.2,0,4.777,4.777,0,0,1-1.158-3.387Zm2.4.17a3.357,3.357,0,0,0,.481,1.958,1.73,1.73,0,0,0,2.739.008,3.674,3.674,0,0,0,.49-2.141,3.324,3.324,0,0,0-.49-1.945,1.592,1.592,0,0,0-1.378-.69,1.566,1.566,0,0,0-1.361.686A3.735,3.735,0,0,0,148.592,33.6Zm15.556,2.635a1.573,1.573,0,0,0,1.079-.365,1.28,1.28,0,0,0,.432-.971h2.25a3.077,3.077,0,0,1-.5,1.673,3.286,3.286,0,0,1-1.341,1.179,4.2,4.2,0,0,1-1.88.419,3.9,3.9,0,0,1-3.038-1.224,4.845,4.845,0,0,1-1.112-3.383V33.4a4.79,4.79,0,0,1,1.1-3.312,3.854,3.854,0,0,1,3.03-1.237,3.778,3.778,0,0,1,2.7.959,3.4,3.4,0,0,1,1.033,2.552h-2.25a1.648,1.648,0,0,0-.432-1.139,1.6,1.6,0,0,0-2.362.173,3.541,3.541,0,0,0-.427,1.983v.249a3.586,3.586,0,0,0,.423,2A1.463,1.463,0,0,0,164.148,36.232Zm4.756-2.806a5.327,5.327,0,0,1,.515-2.382,3.767,3.767,0,0,1,1.482-1.619,4.323,4.323,0,0,1,2.245-.573,4.09,4.09,0,0,1,2.968,1.112,4.464,4.464,0,0,1,1.282,3.021l.017.614a4.694,4.694,0,0,1-1.154,3.316,4.472,4.472,0,0,1-6.2,0,4.777,4.777,0,0,1-1.158-3.387Zm2.4.17a3.357,3.357,0,0,0,.481,1.958,1.73,1.73,0,0,0,2.739.008,3.674,3.674,0,0,0,.49-2.141,3.324,3.324,0,0,0-.49-1.945,1.592,1.592,0,0,0-1.378-.69,1.566,1.566,0,0,0-1.361.686A3.735,3.735,0,0,0,171.3,33.6Zm9.795-4.578.075,1.038a3.136,3.136,0,0,1,2.582-1.2,2.606,2.606,0,0,1,2.125.838,3.912,3.912,0,0,1,.714,2.507V38h-2.4V32.256a1.556,1.556,0,0,0-.332-1.108,1.486,1.486,0,0,0-1.1-.344,1.65,1.65,0,0,0-1.519.863V38h-2.4V29.019ZM195.176,38h-2.407V25.25h2.407Zm7.18,0a2.664,2.664,0,0,1-.241-.805,2.9,2.9,0,0,1-2.266.971,3.189,3.189,0,0,1-2.187-.764,2.456,2.456,0,0,1-.867-1.926,2.538,2.538,0,0,1,1.058-2.191,5.222,5.222,0,0,1,3.059-.772h1.1V32a1.48,1.48,0,0,0-.32-1,1.257,1.257,0,0,0-1.009-.374,1.429,1.429,0,0,0-.95.291.987.987,0,0,0-.344.8h-2.4a2.41,2.41,0,0,1,.481-1.444,3.182,3.182,0,0,1,1.361-1.042,4.961,4.961,0,0,1,1.976-.378,3.92,3.92,0,0,1,2.635.834,2.918,2.918,0,0,1,.975,2.345v3.893a4.294,4.294,0,0,0,.357,1.934V38Zm-1.984-1.668a2.066,2.066,0,0,0,.979-.237,1.554,1.554,0,0,0,.664-.635V33.916h-.9q-1.8,0-1.917,1.245l-.008.141a.96.96,0,0,0,.315.739A1.225,1.225,0,0,0,200.373,36.332ZM4.283,55.07l1.668-6.051H8.458L5.429,58H3.138L.108,49.019H2.615ZM14.593,58a2.664,2.664,0,0,1-.241-.805,2.9,2.9,0,0,1-2.266.971A3.189,3.189,0,0,1,9.9,57.4a2.456,2.456,0,0,1-.867-1.926,2.538,2.538,0,0,1,1.058-2.191,5.222,5.222,0,0,1,3.059-.772h1.1V52a1.48,1.48,0,0,0-.32-1,1.257,1.257,0,0,0-1.009-.374,1.429,1.429,0,0,0-.95.291.987.987,0,0,0-.344.8H9.23a2.41,2.41,0,0,1,.481-1.444,3.182,3.182,0,0,1,1.361-1.042,4.961,4.961,0,0,1,1.976-.378,3.92,3.92,0,0,1,2.635.834,2.918,2.918,0,0,1,.975,2.345v3.893a4.294,4.294,0,0,0,.357,1.934V58Zm-1.984-1.668a2.066,2.066,0,0,0,.979-.237,1.554,1.554,0,0,0,.664-.635V53.916h-.9q-1.8,0-1.917,1.245l-.008.141a.96.96,0,0,0,.315.739A1.225,1.225,0,0,0,12.609,56.332ZM21.034,58H18.627V45.25h2.407Zm1.6-4.574a5.327,5.327,0,0,1,.515-2.382,3.768,3.768,0,0,1,1.482-1.619,4.323,4.323,0,0,1,2.245-.573,4.09,4.09,0,0,1,2.968,1.112,4.464,4.464,0,0,1,1.282,3.021l.017.614a4.694,4.694,0,0,1-1.154,3.316,4.011,4.011,0,0,1-3.1,1.249,4.031,4.031,0,0,1-3.1-1.245,4.777,4.777,0,0,1-1.158-3.387Zm2.4.17a3.357,3.357,0,0,0,.481,1.958,1.73,1.73,0,0,0,2.739.008,3.674,3.674,0,0,0,.49-2.141,3.324,3.324,0,0,0-.49-1.945,1.592,1.592,0,0,0-1.378-.69,1.566,1.566,0,0,0-1.361.686A3.735,3.735,0,0,0,25.035,53.6Zm12.634-2.328a6.517,6.517,0,0,0-.863-.066,1.757,1.757,0,0,0-1.785.921V58h-2.4V49.019h2.266l.066,1.071a2.223,2.223,0,0,1,2-1.237,2.514,2.514,0,0,1,.747.108ZM43.778,58a2.664,2.664,0,0,1-.241-.805,2.9,2.9,0,0,1-2.266.971,3.189,3.189,0,0,1-2.187-.764,2.456,2.456,0,0,1-.867-1.926,2.538,2.538,0,0,1,1.058-2.191,5.222,5.222,0,0,1,3.059-.772h1.1V52a1.48,1.48,0,0,0-.32-1,1.257,1.257,0,0,0-1.009-.374,1.429,1.429,0,0,0-.95.291.987.987,0,0,0-.344.8h-2.4a2.41,2.41,0,0,1,.481-1.444,3.182,3.182,0,0,1,1.361-1.042,4.961,4.961,0,0,1,1.976-.378,3.92,3.92,0,0,1,2.635.834,2.918,2.918,0,0,1,.975,2.345v3.893a4.294,4.294,0,0,0,.357,1.934V58Zm-1.984-1.668a2.066,2.066,0,0,0,.979-.237,1.554,1.554,0,0,0,.664-.635V53.916h-.9q-1.8,0-1.917,1.245l-.008.141a.96.96,0,0,0,.315.739A1.225,1.225,0,0,0,41.794,56.332Zm9.629-.1a1.573,1.573,0,0,0,1.079-.365,1.28,1.28,0,0,0,.432-.971h2.25a3.077,3.077,0,0,1-.5,1.673,3.286,3.286,0,0,1-1.341,1.179,4.2,4.2,0,0,1-1.88.419,3.9,3.9,0,0,1-3.038-1.224,4.845,4.845,0,0,1-1.112-3.383V53.4a4.79,4.79,0,0,1,1.1-3.312,3.854,3.854,0,0,1,3.03-1.237,3.778,3.778,0,0,1,2.7.959,3.4,3.4,0,0,1,1.033,2.552h-2.25a1.648,1.648,0,0,0-.432-1.139,1.6,1.6,0,0,0-2.362.173,3.541,3.541,0,0,0-.427,1.983v.249a3.586,3.586,0,0,0,.423,2A1.463,1.463,0,0,0,51.423,56.232ZM59.085,58H56.678V49.019h2.407ZM56.537,46.694a1.181,1.181,0,0,1,.361-.888,1.556,1.556,0,0,1,1.963,0,1.268,1.268,0,0,1,0,1.785,1.539,1.539,0,0,1-1.951,0A1.178,1.178,0,0,1,56.537,46.694Zm4.15,6.732a5.327,5.327,0,0,1,.515-2.382,3.767,3.767,0,0,1,1.482-1.619,4.323,4.323,0,0,1,2.245-.573A4.09,4.09,0,0,1,67.9,49.965a4.464,4.464,0,0,1,1.282,3.021l.017.614a4.694,4.694,0,0,1-1.154,3.316,4.472,4.472,0,0,1-6.2,0,4.777,4.777,0,0,1-1.158-3.387Zm2.4.17a3.357,3.357,0,0,0,.481,1.958,1.73,1.73,0,0,0,2.739.008,3.674,3.674,0,0,0,.49-2.141,3.324,3.324,0,0,0-.49-1.945,1.592,1.592,0,0,0-1.378-.69,1.566,1.566,0,0,0-1.361.686A3.735,3.735,0,0,0,63.086,53.6ZM65.4,45.25h2.615l-2.3,2.573H63.767Zm7.479,3.769.075,1.038a3.136,3.136,0,0,1,2.582-1.2,2.606,2.606,0,0,1,2.125.838,3.912,3.912,0,0,1,.714,2.507V58h-2.4V52.256a1.556,1.556,0,0,0-.332-1.108,1.486,1.486,0,0,0-1.1-.344,1.65,1.65,0,0,0-1.519.863V58h-2.4V49.019Zm11.173,4.424A5.413,5.413,0,0,1,85,50.1a3.057,3.057,0,0,1,2.577-1.245,2.751,2.751,0,0,1,2.167.979V45.25h2.407V58H89.98l-.116-.955a2.823,2.823,0,0,1-2.308,1.121,3.049,3.049,0,0,1-2.544-1.249A5.587,5.587,0,0,1,84.054,53.443Zm2.4.179a3.546,3.546,0,0,0,.44,1.937,1.433,1.433,0,0,0,1.278.673,1.605,1.605,0,0,0,1.569-.939v-3.55a1.582,1.582,0,0,0-1.552-.939Q86.453,50.8,86.453,53.621ZM98.14,58.166a4.409,4.409,0,0,1-3.217-1.212,4.308,4.308,0,0,1-1.241-3.229v-.232a5.426,5.426,0,0,1,.523-2.42,3.838,3.838,0,0,1,1.482-1.644,4.159,4.159,0,0,1,2.187-.577,3.727,3.727,0,0,1,2.9,1.162,4.722,4.722,0,0,1,1.058,3.3v.979H96.115a2.229,2.229,0,0,0,.7,1.411,2.12,2.12,0,0,0,1.482.531,2.589,2.589,0,0,0,2.167-1l1.179,1.32a3.6,3.6,0,0,1-1.461,1.191A4.793,4.793,0,0,1,98.14,58.166Zm-.274-7.379a1.5,1.5,0,0,0-1.158.484,2.5,2.5,0,0,0-.569,1.384h3.337v-.192a1.786,1.786,0,0,0-.432-1.238A1.547,1.547,0,0,0,97.866,50.787ZM112.633,58a2.664,2.664,0,0,1-.241-.805,2.9,2.9,0,0,1-2.266.971,3.189,3.189,0,0,1-2.187-.764,2.456,2.456,0,0,1-.867-1.926,2.538,2.538,0,0,1,1.058-2.191,5.222,5.222,0,0,1,3.059-.772h1.1V52a1.48,1.48,0,0,0-.32-1,1.257,1.257,0,0,0-1.009-.374,1.429,1.429,0,0,0-.95.291.987.987,0,0,0-.344.8h-2.4a2.41,2.41,0,0,1,.481-1.444,3.182,3.182,0,0,1,1.361-1.042,4.961,4.961,0,0,1,1.976-.378,3.92,3.92,0,0,1,2.635.834,2.918,2.918,0,0,1,.975,2.345v3.893a4.294,4.294,0,0,0,.357,1.934V58Zm-1.984-1.668a2.066,2.066,0,0,0,.979-.237,1.554,1.554,0,0,0,.664-.635V53.916h-.9q-1.8,0-1.917,1.245l-.008.141a.96.96,0,0,0,.315.739A1.225,1.225,0,0,0,110.649,56.332Zm13.979-2.739a5.387,5.387,0,0,1-.942,3.324,3.021,3.021,0,0,1-2.544,1.249,2.8,2.8,0,0,1-2.2-.946v4.233h-2.4V49.019h2.225l.083.88a2.819,2.819,0,0,1,2.274-1.046,3.041,3.041,0,0,1,2.582,1.229,5.532,5.532,0,0,1,.921,3.387Zm-2.4-.174a3.535,3.535,0,0,0-.444-1.934,1.446,1.446,0,0,0-1.291-.681,1.571,1.571,0,0,0-1.552.863v3.677a1.6,1.6,0,0,0,1.569.888Q122.229,56.232,122.229,53.418Zm3.511.008a5.326,5.326,0,0,1,.515-2.382,3.768,3.768,0,0,1,1.482-1.619,4.323,4.323,0,0,1,2.245-.573,4.09,4.09,0,0,1,2.968,1.112,4.464,4.464,0,0,1,1.282,3.021l.017.614a4.694,4.694,0,0,1-1.154,3.316,4.472,4.472,0,0,1-6.2,0,4.777,4.777,0,0,1-1.158-3.387Zm2.4.17a3.357,3.357,0,0,0,.481,1.958,1.73,1.73,0,0,0,2.739.008,3.674,3.674,0,0,0,.49-2.141,3.324,3.324,0,0,0-.49-1.945,1.592,1.592,0,0,0-1.378-.69,1.566,1.566,0,0,0-1.361.686A3.735,3.735,0,0,0,128.139,53.6ZM139.08,54.6l1.66-5.586h2.573L139.7,59.395l-.2.473a2.738,2.738,0,0,1-2.656,1.76,3.774,3.774,0,0,1-1.062-.158V59.652l.365.008a1.973,1.973,0,0,0,1.017-.208,1.363,1.363,0,0,0,.527-.689l.282-.739-3.146-9.006h2.582Zm4.806-1.179a5.327,5.327,0,0,1,.515-2.382,3.767,3.767,0,0,1,1.482-1.619,4.323,4.323,0,0,1,2.245-.573,4.09,4.09,0,0,1,2.968,1.112,4.464,4.464,0,0,1,1.282,3.021l.017.614a4.694,4.694,0,0,1-1.154,3.316,4.472,4.472,0,0,1-6.2,0,4.777,4.777,0,0,1-1.158-3.387Zm2.4.17a3.357,3.357,0,0,0,.481,1.958,1.73,1.73,0,0,0,2.739.008,3.674,3.674,0,0,0,.49-2.141,3.324,3.324,0,0,0-.49-1.945,1.592,1.592,0,0,0-1.378-.69,1.566,1.566,0,0,0-1.361.686A3.735,3.735,0,0,0,146.285,53.6Zm12.451,1.922a.773.773,0,0,0-.436-.693,4.95,4.95,0,0,0-1.4-.452q-3.2-.672-3.2-2.723a2.468,2.468,0,0,1,.992-2,4,4,0,0,1,2.594-.8,4.307,4.307,0,0,1,2.735.805,2.538,2.538,0,0,1,1.025,2.092h-2.4a1.161,1.161,0,0,0-.332-.851,1.405,1.405,0,0,0-1.038-.336,1.436,1.436,0,0,0-.938.274.865.865,0,0,0-.332.7.739.739,0,0,0,.378.643,3.885,3.885,0,0,0,1.274.423,10.407,10.407,0,0,1,1.511.4,2.482,2.482,0,0,1,1.9,2.416,2.343,2.343,0,0,1-1.054,1.988,4.548,4.548,0,0,1-2.723.76,4.75,4.75,0,0,1-2-.4,3.363,3.363,0,0,1-1.374-1.1,2.565,2.565,0,0,1-.5-1.515h2.274a1.252,1.252,0,0,0,.473.979,1.877,1.877,0,0,0,1.179.34,1.737,1.737,0,0,0,1.042-.261A.814.814,0,0,0,158.736,55.518Zm5.835-1.22a4.994,4.994,0,0,1,.282-1.853,3.8,3.8,0,0,1,1.033-1.358,5.284,5.284,0,0,0,1-1.089,1.709,1.709,0,0,0,.249-.886q0-1.405-1.295-1.405a1.312,1.312,0,0,0-.984.379,1.487,1.487,0,0,0-.386,1.044h-2.407a3.2,3.2,0,0,1,1.025-2.484,4.735,4.735,0,0,1,5.483-.046,3.03,3.03,0,0,1,.971,2.405,2.928,2.928,0,0,1-.315,1.334,5.494,5.494,0,0,1-1.1,1.392l-.672.64a2.279,2.279,0,0,0-.722,1.421l-.033.507Zm-.241,2.544a1.208,1.208,0,0,1,.378-.914,1.479,1.479,0,0,1,1.934,0,1.29,1.29,0,0,1,.008,1.816,1.515,1.515,0,0,1-1.951,0A1.2,1.2,0,0,1,164.331,56.842Z" transform="translate(364.57 7749.943)" fill="#12263f"/>
      </g>
      <g id="Group_1187345" data-name="Group 1187345" transform="translate(734.528 -32.762)">
        <g id="Union_24-2" data-name="Union 24" transform="translate(600.472 7830.42) rotate(180)" fill="#fbc7be">
          <path d="M 230.6781005859375 97.65800476074219 L 13.00049591064453 97.65800476074219 C 9.794962882995605 97.65800476074219 6.781363010406494 96.40980529785156 4.514762878417969 94.14330291748047 C 2.248229742050171 91.87689971923828 0.9999963641166687 88.86357116699219 0.9999963641166687 85.65840148925781 L 0.9999963641166687 13.00050258636475 C 0.9999963641166687 9.794936180114746 2.248229742050171 6.781335830688477 4.514762878417969 4.514769077301025 C 6.78132963180542 2.248235702514648 9.794929504394531 1.000002384185791 13.00049591064453 1.000002384185791 L 230.6781005859375 1.000002384185791 C 233.8836669921875 1.000002384185791 236.8972625732422 2.248235702514648 239.1638336181641 4.514769077301025 C 241.4303588867188 6.781335830688477 242.6785888671875 9.794936180114746 242.6785888671875 13.00050258636475 L 242.6785888671875 16.59700202941895 L 242.6785888671875 17.35066986083984 L 243.4030914306641 17.55830192565918 L 251.5742034912109 19.90000152587891 C 252.4880981445312 20.16190147399902 253.2400970458984 20.68250274658203 253.7489624023438 21.40553665161133 C 254.2154998779297 22.06846809387207 254.4724273681641 22.89936828613281 254.4724273681641 23.74516868591309 C 254.4724273681641 24.5909366607666 254.2154998779297 25.42183494567871 253.7489624023438 26.08476829528809 C 253.2400970458984 26.80780220031738 252.4880981445312 27.32840156555176 251.5742340087891 27.59030151367188 L 243.4030914306641 29.93200302124023 L 242.6785888671875 30.13963508605957 L 242.6785888671875 30.89330291748047 L 242.6785888671875 85.65840148925781 C 242.6785888671875 88.86357116699219 241.4303588867188 91.87689971923828 239.1638336181641 94.14330291748047 C 236.8972320556641 96.40980529785156 233.8836364746094 97.65800476074219 230.6781005859375 97.65800476074219 Z" stroke="none"/>
          <path d="M 230.6781005859375 96.65800476074219 C 233.6165313720703 96.65800476074219 236.3790283203125 95.51380157470703 238.4567260742188 93.43620300292969 C 240.5343933105469 91.35863494873047 241.6785888671875 88.596435546875 241.6785888671875 85.65840148925781 L 241.6785888671875 29.3859691619873 L 251.2987365722656 26.62900161743164 C 252.9013977050781 26.16973495483398 253.4724273681641 24.83816909790039 253.4724273681641 23.74516868591309 C 253.4724273681641 22.65213584899902 252.9013977050781 21.32056999206543 251.2986907958984 20.86130332946777 L 241.6785888671875 18.10433578491211 L 241.6785888671875 13.00050258636475 C 241.6785888671875 10.06206893920898 240.5343627929688 7.299569129943848 238.4566955566406 5.221902370452881 C 236.3790283203125 3.144235610961914 233.6165313720703 2.000002384185791 230.6781005859375 2.000002384185791 L 13.00049591064453 2.000002384185791 C 10.06206321716309 2.000002384185791 7.299562931060791 3.144235610961914 5.221896171569824 5.221902370452881 C 3.144229650497437 7.299569129943848 1.999996304512024 10.06206893920898 1.999996304512024 13.00050258636475 L 1.999996304512024 85.65840148925781 C 1.999996304512024 88.596435546875 3.144196271896362 91.35863494873047 5.22186279296875 93.43620300292969 C 7.299562931060791 95.51380157470703 10.06206321716309 96.65800476074219 13.00049591064453 96.65800476074219 L 230.6781005859375 96.65800476074219 M 230.6781005859375 98.65800476074219 L 13.00049591064453 98.65800476074219 C 5.820296287536621 98.65800476074219 -3.662109293145477e-06 92.83769989013672 -3.662109293145477e-06 85.65840148925781 L -3.662109293145477e-06 13.00050258636475 C -3.662109293145477e-06 5.820302486419678 5.820296287536621 2.380371142862714e-06 13.00049591064453 2.380371142862714e-06 L 230.6781005859375 2.380371142862714e-06 C 237.8582916259766 2.380371142862714e-06 243.6785888671875 5.820302486419678 243.6785888671875 13.00050258636475 L 243.6785888671875 16.59700202941895 L 251.8497009277344 18.93870162963867 C 256.6799926757812 20.32290267944336 256.6799926757812 27.16740226745605 251.8497009277344 28.55160331726074 L 243.6785888671875 30.89330291748047 L 243.6785888671875 85.65840148925781 C 243.6785888671875 92.83769989013672 237.8582916259766 98.65800476074219 230.6781005859375 98.65800476074219 Z" stroke="none" fill="#000"/>
        </g>
        <path id="Path_1006977" data-name="Path 1006977" d="M10.567,13.974a4.277,4.277,0,0,1-1.44,3.071A5.058,5.058,0,0,1,5.7,18.166,4.548,4.548,0,0,1,2.046,16.6a6.416,6.416,0,0,1-1.332-4.3v-.739A7.245,7.245,0,0,1,1.328,8.5,4.6,4.6,0,0,1,3.084,6.458a4.918,4.918,0,0,1,2.652-.71,4.927,4.927,0,0,1,3.37,1.121,4.6,4.6,0,0,1,1.478,3.146H8.093a2.524,2.524,0,0,0-.652-1.7A2.413,2.413,0,0,0,5.736,7.79a2.116,2.116,0,0,0-1.864.892,5,5,0,0,0-.635,2.768v.913a5.352,5.352,0,0,0,.594,2.864,2.077,2.077,0,0,0,1.872.9,2.458,2.458,0,0,0,1.722-.527,2.381,2.381,0,0,0,.652-1.631ZM14.576,18H12.169V5.25h2.407Zm7.18,0a2.664,2.664,0,0,1-.241-.805,2.9,2.9,0,0,1-2.266.971,3.189,3.189,0,0,1-2.187-.764,2.456,2.456,0,0,1-.867-1.926,2.538,2.538,0,0,1,1.058-2.191,5.222,5.222,0,0,1,3.059-.772h1.1V12a1.48,1.48,0,0,0-.32-1,1.257,1.257,0,0,0-1.009-.374,1.429,1.429,0,0,0-.95.291.987.987,0,0,0-.344.8h-2.4a2.41,2.41,0,0,1,.481-1.444A3.182,3.182,0,0,1,18.237,9.23a4.961,4.961,0,0,1,1.976-.378,3.92,3.92,0,0,1,2.635.834,2.918,2.918,0,0,1,.975,2.345v3.893a4.294,4.294,0,0,0,.357,1.934V18Zm-1.984-1.668a2.066,2.066,0,0,0,.979-.237,1.554,1.554,0,0,0,.664-.635V13.916h-.9q-1.8,0-1.917,1.245l-.008.141a.96.96,0,0,0,.315.739A1.225,1.225,0,0,0,19.772,16.332Zm10.94-5.063a6.517,6.517,0,0,0-.863-.066,1.757,1.757,0,0,0-1.785.921V18h-2.4V9.019h2.266L28,10.089a2.223,2.223,0,0,1,2-1.237,2.514,2.514,0,0,1,.747.108Zm.481,2.158a5.327,5.327,0,0,1,.515-2.382,3.767,3.767,0,0,1,1.482-1.619,4.323,4.323,0,0,1,2.245-.573A4.09,4.09,0,0,1,38.4,9.965a4.464,4.464,0,0,1,1.282,3.021l.017.614a4.694,4.694,0,0,1-1.154,3.316,4.011,4.011,0,0,1-3.1,1.249,4.031,4.031,0,0,1-3.1-1.245,4.777,4.777,0,0,1-1.158-3.387Zm2.4.17a3.357,3.357,0,0,0,.481,1.958,1.73,1.73,0,0,0,2.739.008,3.674,3.674,0,0,0,.49-2.141,3.324,3.324,0,0,0-.49-1.945,1.592,1.592,0,0,0-1.378-.69,1.566,1.566,0,0,0-1.361.686A3.735,3.735,0,0,0,33.593,13.6Zm11.447-.17a5.369,5.369,0,0,1,.942-3.345,3.08,3.08,0,0,1,2.586-1.229,2.758,2.758,0,0,1,2.3,1.1l.158-.938h2.108V21.453H50.726V17.228a2.765,2.765,0,0,1-2.175.938,3.057,3.057,0,0,1-2.557-1.245A5.632,5.632,0,0,1,45.04,13.426Zm2.4.17a3.522,3.522,0,0,0,.452,1.962,1.448,1.448,0,0,0,1.274.673,1.613,1.613,0,0,0,1.561-.881V11.635a1.6,1.6,0,0,0-1.544-.848,1.466,1.466,0,0,0-1.287.673A3.889,3.889,0,0,0,47.439,13.6ZM60.4,17.087a3.008,3.008,0,0,1-2.457,1.079,2.837,2.837,0,0,1-2.2-.83,3.543,3.543,0,0,1-.776-2.432V9.019h2.4v5.809q0,1.4,1.278,1.4a1.732,1.732,0,0,0,1.677-.848V9.019h2.407V18H60.463Zm8.268,1.079a4.409,4.409,0,0,1-3.217-1.212,4.308,4.308,0,0,1-1.241-3.229v-.232a5.426,5.426,0,0,1,.523-2.42,3.838,3.838,0,0,1,1.482-1.644A4.159,4.159,0,0,1,68.4,8.853a3.727,3.727,0,0,1,2.9,1.162,4.722,4.722,0,0,1,1.058,3.3v.979H66.639a2.229,2.229,0,0,0,.7,1.411,2.12,2.12,0,0,0,1.482.531,2.589,2.589,0,0,0,2.167-1l1.179,1.32a3.6,3.6,0,0,1-1.461,1.191A4.793,4.793,0,0,1,68.664,18.166Zm-.274-7.379a1.5,1.5,0,0,0-1.158.484,2.5,2.5,0,0,0-.569,1.384H70v-.192a1.786,1.786,0,0,0-.432-1.238A1.547,1.547,0,0,0,68.39,10.787Zm14.427,4.731a.773.773,0,0,0-.436-.693,4.95,4.95,0,0,0-1.4-.452q-3.2-.672-3.2-2.723a2.468,2.468,0,0,1,.992-2,4,4,0,0,1,2.594-.8,4.307,4.307,0,0,1,2.735.805,2.538,2.538,0,0,1,1.025,2.092h-2.4a1.161,1.161,0,0,0-.332-.851,1.405,1.405,0,0,0-1.038-.336,1.436,1.436,0,0,0-.938.274.865.865,0,0,0-.332.7.739.739,0,0,0,.378.643,3.885,3.885,0,0,0,1.274.423,10.407,10.407,0,0,1,1.511.4,2.482,2.482,0,0,1,1.9,2.416A2.343,2.343,0,0,1,84.1,17.406a4.548,4.548,0,0,1-2.723.76,4.75,4.75,0,0,1-2-.4,3.363,3.363,0,0,1-1.374-1.1,2.565,2.565,0,0,1-.5-1.515h2.274a1.252,1.252,0,0,0,.473.979,1.877,1.877,0,0,0,1.179.34,1.737,1.737,0,0,0,1.042-.261A.814.814,0,0,0,82.817,15.518ZM89.283,18h-2.4V9.019h2.4ZM88.578,5.375h2.615l-2.3,2.573H86.942Zm3.4,15.655-1.253-.656.3-.54a4.313,4.313,0,0,0,.573-2.017V15.958h2.025l-.008,1.66a4.313,4.313,0,0,1-.465,1.859A4.767,4.767,0,0,1,91.973,21.03ZM102.606,6.811V9.019h1.536v1.76h-1.536v4.482a1.07,1.07,0,0,0,.191.714.959.959,0,0,0,.73.216,3.826,3.826,0,0,0,.706-.058V17.95a4.938,4.938,0,0,1-1.453.216,2.29,2.29,0,0,1-2.573-2.548V10.778H98.9V9.019h1.312V6.811Zm7.006,11.355a4.409,4.409,0,0,1-3.217-1.212,4.308,4.308,0,0,1-1.241-3.229v-.232a5.426,5.426,0,0,1,.523-2.42,3.838,3.838,0,0,1,1.482-1.644,4.159,4.159,0,0,1,2.187-.577,3.727,3.727,0,0,1,2.9,1.162,4.722,4.722,0,0,1,1.058,3.3v.979h-5.719a2.229,2.229,0,0,0,.7,1.411,2.12,2.12,0,0,0,1.482.531,2.589,2.589,0,0,0,2.167-1l1.179,1.32a3.6,3.6,0,0,1-1.461,1.191A4.793,4.793,0,0,1,109.612,18.166Zm-.274-7.379a1.5,1.5,0,0,0-1.158.484,2.5,2.5,0,0,0-.569,1.384h3.337v-.192a1.786,1.786,0,0,0-.432-1.238A1.547,1.547,0,0,0,109.338,10.787Zm13.3,5.445a1.573,1.573,0,0,0,1.079-.365,1.28,1.28,0,0,0,.432-.971h2.25a3.077,3.077,0,0,1-.5,1.673,3.286,3.286,0,0,1-1.341,1.179,4.2,4.2,0,0,1-1.88.419,3.9,3.9,0,0,1-3.038-1.224,4.845,4.845,0,0,1-1.112-3.383V13.4a4.79,4.79,0,0,1,1.1-3.312,3.854,3.854,0,0,1,3.03-1.237,3.778,3.778,0,0,1,2.7.959,3.4,3.4,0,0,1,1.033,2.552h-2.25a1.648,1.648,0,0,0-.432-1.139,1.6,1.6,0,0,0-2.362.173,3.541,3.541,0,0,0-.427,1.983v.249a3.586,3.586,0,0,0,.423,2A1.463,1.463,0,0,0,122.636,16.232Zm4.756-2.806a5.326,5.326,0,0,1,.515-2.382,3.767,3.767,0,0,1,1.482-1.619,4.323,4.323,0,0,1,2.245-.573A4.09,4.09,0,0,1,134.6,9.965a4.464,4.464,0,0,1,1.282,3.021l.017.614a4.694,4.694,0,0,1-1.154,3.316,4.472,4.472,0,0,1-6.2,0,4.777,4.777,0,0,1-1.158-3.387Zm2.4.17a3.357,3.357,0,0,0,.481,1.958,1.73,1.73,0,0,0,2.739.008,3.674,3.674,0,0,0,.49-2.141,3.324,3.324,0,0,0-.49-1.945,1.592,1.592,0,0,0-1.378-.69,1.566,1.566,0,0,0-1.361.686A3.735,3.735,0,0,0,129.791,13.6Zm9.836-4.578.075,1a3.156,3.156,0,0,1,2.582-1.17,2.4,2.4,0,0,1,2.382,1.37,3.084,3.084,0,0,1,2.7-1.37,2.679,2.679,0,0,1,2.175.851,3.911,3.911,0,0,1,.714,2.561V18h-2.407V12.272a1.71,1.71,0,0,0-.3-1.116,1.324,1.324,0,0,0-1.054-.353A1.5,1.5,0,0,0,145,11.833L145.006,18h-2.4V12.281a1.689,1.689,0,0,0-.307-1.129,1.337,1.337,0,0,0-1.046-.349,1.555,1.555,0,0,0-1.478.847V18h-2.4V9.019Zm16.6,9.147a4.409,4.409,0,0,1-3.217-1.212,4.308,4.308,0,0,1-1.241-3.229v-.232a5.426,5.426,0,0,1,.523-2.42,3.838,3.838,0,0,1,1.482-1.644,4.159,4.159,0,0,1,2.187-.577,3.727,3.727,0,0,1,2.9,1.162,4.722,4.722,0,0,1,1.058,3.3v.979H154.2a2.228,2.228,0,0,0,.7,1.411,2.12,2.12,0,0,0,1.482.531,2.589,2.589,0,0,0,2.167-1l1.179,1.32a3.6,3.6,0,0,1-1.461,1.191A4.793,4.793,0,0,1,156.229,18.166Zm-.274-7.379a1.5,1.5,0,0,0-1.158.484,2.5,2.5,0,0,0-.569,1.384h3.337v-.192a1.786,1.786,0,0,0-.432-1.238A1.547,1.547,0,0,0,155.955,10.787Zm7.537-1.768.075,1.038a3.136,3.136,0,0,1,2.582-1.2,2.606,2.606,0,0,1,2.125.838,3.912,3.912,0,0,1,.714,2.507V18h-2.4V12.256a1.556,1.556,0,0,0-.332-1.108,1.486,1.486,0,0,0-1.1-.344,1.65,1.65,0,0,0-1.519.863V18h-2.4V9.019Zm10.185-2.208V9.019h1.536v1.76h-1.536v4.482a1.07,1.07,0,0,0,.191.714.959.959,0,0,0,.73.216,3.826,3.826,0,0,0,.706-.058V17.95a4.939,4.939,0,0,1-1.453.216,2.29,2.29,0,0,1-2.573-2.548V10.778h-1.312V9.019h1.312V6.811Zm2.25,6.616a5.327,5.327,0,0,1,.515-2.382,3.767,3.767,0,0,1,1.482-1.619,4.323,4.323,0,0,1,2.245-.573,4.09,4.09,0,0,1,2.968,1.112,4.464,4.464,0,0,1,1.282,3.021l.017.614a4.694,4.694,0,0,1-1.154,3.316,4.472,4.472,0,0,1-6.2,0,4.777,4.777,0,0,1-1.158-3.387Zm2.4.17a3.357,3.357,0,0,0,.481,1.958,1.73,1.73,0,0,0,2.739.008,3.674,3.674,0,0,0,.49-2.141,3.324,3.324,0,0,0-.49-1.945,1.592,1.592,0,0,0-1.378-.69,1.566,1.566,0,0,0-1.361.686A3.735,3.735,0,0,0,178.326,13.6Zm7.7,3.225a1.208,1.208,0,0,1,.386-.93,1.5,1.5,0,0,1,1.942,0,1.208,1.208,0,0,1,.386.93,1.191,1.191,0,0,1-.382.917,1.525,1.525,0,0,1-1.951,0A1.191,1.191,0,0,1,186.029,16.821Zm0-6.8a1.208,1.208,0,0,1,.386-.93,1.5,1.5,0,0,1,1.942,0,1.208,1.208,0,0,1,.386.93,1.191,1.191,0,0,1-.382.917,1.525,1.525,0,0,1-1.951,0A1.191,1.191,0,0,1,186.029,10.023Z" transform="translate(382.57 7770.443)" fill="#12263f"/>
      </g>
    </g>
  </g>
</svg>
