<svg xmlns="http://www.w3.org/2000/svg" width="129" height="128" viewBox="0 0 129 128">
  <g id="img9" transform="translate(-179.726 -536.252)">
    <rect id="Rectangle_454198" data-name="Rectangle 454198" width="129" height="128" rx="10" transform="translate(179.726 536.252)" fill="#a8b8ff"/>
    <circle id="Ellipse_13568" data-name="Ellipse 13568" cx="37.5" cy="37.5" r="37.5" transform="translate(206.726 563.252)" fill="#e5eaff"/>
    <circle id="Ellipse_13569" data-name="Ellipse 13569" cx="51" cy="51" r="51" transform="translate(193.726 549.252)" fill="none" stroke="#e5eaff" stroke-width="1"/>
    <circle id="Ellipse_13570" data-name="Ellipse 13570" cx="4" cy="4" r="4" transform="translate(210.726 555.252)" fill="#2142dc"/>
    <g id="Group_1187198" data-name="Group 1187198" transform="translate(218.726 574.251)">
      <g id="Group_1187196" data-name="Group 1187196" transform="translate(0.806 0.806)">
        <g id="Group_1187176" data-name="Group 1187176" transform="translate(0 35.484)">
          <path id="Path_1001400" data-name="Path 1001400" d="M56.388,360v9.678a3.226,3.226,0,0,1-3.226,3.226H11.226A3.226,3.226,0,0,1,8,369.678V360H25.742a1.612,1.612,0,0,0-1.613,1.613v1.613a3.226,3.226,0,0,0,3.226,3.226h9.678a3.226,3.226,0,0,0,3.226-3.226v-1.613A1.612,1.612,0,0,0,38.646,360Z" transform="translate(-8 -360)" fill="#ffc729"/>
        </g>
        <g id="Group_1187177" data-name="Group 1187177" transform="translate(16.129 35.484)">
          <path id="Path_1001401" data-name="Path 1001401" d="M184.129,361.613v1.613a3.226,3.226,0,0,1-3.226,3.226h-9.678A3.226,3.226,0,0,1,168,363.226v-1.613A1.612,1.612,0,0,1,169.613,360v.806a.806.806,0,0,0,.806.806H181.71a.806.806,0,0,0,.806-.806V360A1.612,1.612,0,0,1,184.129,361.613Z" transform="translate(-168 -360)" fill="#ffc729"/>
        </g>
        <g id="Group_1187178" data-name="Group 1187178" transform="translate(29.839 32.259)">
          <path id="Path_1001402" data-name="Path 1001402" d="M322.549,328v3.226H304.806v-2.419A.806.806,0,0,0,304,328h18.549Z" transform="translate(-304 -328)" fill="#fcd770"/>
        </g>
        <g id="Group_1187179" data-name="Group 1187179" transform="translate(0 32.259)">
          <path id="Path_1001403" data-name="Path 1001403" d="M24.129,328h2.419a.806.806,0,0,0-.806.806v2.419H8V328H24.129Z" transform="translate(-8 -328)" fill="#fcd770"/>
        </g>
        <g id="Group_1187180" data-name="Group 1187180" transform="translate(41.936 27.42)">
          <path id="Path_1001404" data-name="Path 1001404" d="M430.452,281.613v3.226H424V280h4.839A1.613,1.613,0,0,1,430.452,281.613Z" transform="translate(-424 -280)" fill="#ffeaa7"/>
        </g>
        <g id="Group_1187181" data-name="Group 1187181" transform="translate(30.646 27.42)">
          <path id="Path_1001405" data-name="Path 1001405" d="M312,280h4.839v4.839H312Z" transform="translate(-312 -280)" fill="#ffeaa7"/>
        </g>
        <g id="Group_1187182" data-name="Group 1187182" transform="translate(22.581 27.42)">
          <path id="Path_1001406" data-name="Path 1001406" d="M232,280h4.839v4.839H232Z" transform="translate(-232 -280)" fill="#ffeaa7"/>
        </g>
        <g id="Group_1187183" data-name="Group 1187183" transform="translate(9.678 27.42)">
          <path id="Path_1001407" data-name="Path 1001407" d="M104,280h6.452v4.839H104Z" transform="translate(-104 -280)" fill="#ffeaa7"/>
        </g>
        <g id="Group_1187184" data-name="Group 1187184" transform="translate(0 27.42)">
          <path id="Path_1001408" data-name="Path 1001408" d="M12.839,280v4.839H8v-3.226A1.612,1.612,0,0,1,9.613,280Z" transform="translate(-8 -280)" fill="#ffeaa7"/>
        </g>
        <g id="Group_1187185" data-name="Group 1187185" transform="translate(35.484 17.742)">
          <path id="Path_1001409" data-name="Path 1001409" d="M366.452,193.678v4.839H360v-12.9A1.612,1.612,0,0,1,361.613,184h3.226a1.612,1.612,0,0,1,1.613,1.613Z" transform="translate(-360 -184)" fill="#b27946"/>
        </g>
        <g id="Group_1187186" data-name="Group 1187186" transform="translate(37.097 12.903)">
          <path id="Path_1001410" data-name="Path 1001410" d="M376,136h3.226v4.839H376Z" transform="translate(-376 -136)" fill="#aab2bd"/>
        </g>
        <g id="Group_1187187" data-name="Group 1187187" transform="translate(45.162 1.613)">
          <path id="Path_1001411" data-name="Path 1001411" d="M459.226,24.806v8.065a.806.806,0,0,1-.806.806h-1.613a.806.806,0,0,1-.806-.806V24.806a.806.806,0,0,1,.806-.806h1.613A.806.806,0,0,1,459.226,24.806Z" transform="translate(-456 -24)" fill="#e6e9ed"/>
        </g>
        <g id="Group_1187188" data-name="Group 1187188" transform="translate(27.42 3.226)">
          <path id="Path_1001412" data-name="Path 1001412" d="M297.742,40.806v4.839l-.334.334a1.614,1.614,0,0,1-1.141.473H295.8a2.892,2.892,0,0,0-2.892,2.892v.334h-3.226V47.869a4.643,4.643,0,0,0-4.643-4.643,4.367,4.367,0,0,0-3.088,1.279,1.134,1.134,0,0,1-.37.247,1.147,1.147,0,0,1-.436.087A1.143,1.143,0,0,1,280,43.7a1.147,1.147,0,0,1,.087-.437,1.135,1.135,0,0,1,.247-.37A9.88,9.88,0,0,1,287.316,40h8.952a1.614,1.614,0,0,1,1.141.473Z" transform="translate(-280 -40)" fill="#ccd1d9"/>
        </g>
        <g id="Group_1187189" data-name="Group 1187189" transform="translate(24.194 11.291)">
          <path id="Path_1001413" data-name="Path 1001413" d="M257.678,124.839a4.84,4.84,0,0,1-3.226,4.563v11.567h-3.226V129.4a4.839,4.839,0,1,1,6.452-4.563Zm-3.226,0a1.613,1.613,0,1,0-1.613,1.613A1.613,1.613,0,0,0,254.452,124.839Z" transform="translate(-248 -120)" fill="#ccd1d9"/>
        </g>
        <g id="Group_1187190" data-name="Group 1187190" transform="translate(16.129 24.194)">
          <path id="Path_1001414" data-name="Path 1001414" d="M174.452,251.226v4.839H168V250.61a2.917,2.917,0,0,1,1.613-2.61h3.226a2.917,2.917,0,0,1,1.613,2.61Z" transform="translate(-168 -248)" fill="#b4dd7f"/>
        </g>
        <g id="Group_1187191" data-name="Group 1187191" transform="translate(16.129 20.968)">
          <path id="Path_1001415" data-name="Path 1001415" d="M174.452,217.14a1.147,1.147,0,0,1-.087.437,1.134,1.134,0,0,1-.247.37l-1.279,1.279h-3.226l-1.279-1.279A1.141,1.141,0,0,1,169.14,216h4.171A1.141,1.141,0,0,1,174.452,217.14Z" transform="translate(-168 -216)" fill="#a0d468"/>
        </g>
        <g id="Group_1187192" data-name="Group 1187192" transform="translate(17.742 4.839)">
          <path id="Path_1001416" data-name="Path 1001416" d="M187.226,57.947V72.129H184V57.947A2.754,2.754,0,0,1,184.806,56h1.613a2.754,2.754,0,0,1,.806,1.947Z" transform="translate(-184 -56)" fill="#ccd1d9"/>
        </g>
        <g id="Group_1187193" data-name="Group 1187193" transform="translate(17.742)">
          <path id="Path_1001417" data-name="Path 1001417" d="M187.226,8.806v2.086a2.754,2.754,0,0,1-.806,1.947h-1.613A2.754,2.754,0,0,1,184,10.892V8.806A.806.806,0,0,1,184.806,8h1.613A.806.806,0,0,1,187.226,8.806Z" transform="translate(-184 -8)" fill="#ccd1d9"/>
        </g>
        <g id="Group_1187194" data-name="Group 1187194" transform="translate(0 8.065)">
          <path id="Path_1001418" data-name="Path 1001418" d="M22.516,92.839v1.613a4.839,4.839,0,0,1-4.839,4.839v12.9H12.839v-12.9A4.839,4.839,0,0,1,8,94.452V92.839A4.839,4.839,0,0,1,12.839,88v4.839h4.839V88a4.839,4.839,0,0,1,4.839,4.839Z" transform="translate(-8 -88)" fill="#ccd1d9"/>
        </g>
        <g id="Group_1187195" data-name="Group 1187195" transform="translate(17.742 32.259)">
          <path id="Path_1001419" data-name="Path 1001419" d="M196.9,331.226v.806a.806.806,0,0,1-.806.806h-11.29a.806.806,0,0,1-.806-.806v-3.226a.806.806,0,0,1,.806-.806H196.1a.806.806,0,0,1,.806.806Z" transform="translate(-184 -328)" fill="#ff826e"/>
        </g>
      </g>
      <g id="Group_1187197" data-name="Group 1187197" transform="translate(0 0)">
        <path id="Path_1001420" data-name="Path 1001420" d="M276.839,146.419a2.419,2.419,0,1,0-2.419,2.419A2.422,2.422,0,0,0,276.839,146.419Zm-3.226,0a.806.806,0,1,1,.806.806A.807.807,0,0,1,273.613,146.419Z" transform="translate(-244.58 -129.484)"/>
        <path id="Path_1001421" data-name="Path 1001421" d="M46.775,12.9h1.613A1.615,1.615,0,0,0,50,11.291V3.226a1.615,1.615,0,0,0-1.613-1.613H46.775a1.615,1.615,0,0,0-1.613,1.613v.094a2.429,2.429,0,0,0-.668-.094H35.542A10.61,10.61,0,0,0,27.99,6.354a1.947,1.947,0,1,0,2.753,2.753,3.537,3.537,0,0,1,2.517-1.043A3.841,3.841,0,0,1,37.1,11.9v5.98a2.423,2.423,0,0,0-1.613,2.281V27.42H32.259V22.037a5.645,5.645,0,1,0-4.839,0V27.42H24.187A3.7,3.7,0,0,0,23.02,24.9l.6-.6A1.945,1.945,0,0,0,22.581,21V7.592A3.534,3.534,0,0,0,22,5.645,3.535,3.535,0,0,0,22.581,3.7V1.613A1.615,1.615,0,0,0,20.968,0H19.355a1.615,1.615,0,0,0-1.613,1.613V3.7a3.534,3.534,0,0,0,.578,1.947,3.535,3.535,0,0,0-.578,1.947V21A1.945,1.945,0,0,0,16.7,24.292l.6.6a3.7,3.7,0,0,0-1.167,2.525H11.29V20.911a5.654,5.654,0,0,0,4.839-5.588V13.71a5.652,5.652,0,0,0-5.645-5.645H9.678V12.9H6.452V8.065H5.645A5.652,5.652,0,0,0,0,13.71v1.613a5.654,5.654,0,0,0,4.839,5.588V27.42H2.419A2.422,2.422,0,0,0,0,29.839V45.969A4.037,4.037,0,0,0,4.032,50H45.968A4.037,4.037,0,0,0,50,45.969V29.839a2.422,2.422,0,0,0-2.419-2.419H43.549V20.162a2.423,2.423,0,0,0-1.613-2.281V13.376a2.088,2.088,0,0,1,2.085-2.085h.472a2.429,2.429,0,0,0,.668-.094v.094A1.615,1.615,0,0,0,46.775,12.9Zm0-9.678h1.613v8.065H46.775ZM38.71,14.516h1.613v3.226H38.71ZM37.9,19.355H41.13a.807.807,0,0,1,.806.806v12.1H37.1v-12.1A.807.807,0,0,1,37.9,19.355ZM32.259,37.9v1.613a2.422,2.422,0,0,1-2.419,2.419H20.162a2.422,2.422,0,0,1-2.419-2.419V37.9a.8.8,0,0,1,.072-.331,1.616,1.616,0,0,0,1.541,1.137H30.646a1.616,1.616,0,0,0,1.541-1.137A.8.8,0,0,1,32.259,37.9ZM17.742,33.872v1.613H1.613V33.872Zm1.014-8.065h2.81a2.1,2.1,0,0,1,1.014,1.8v4.648H17.742V27.61A2.1,2.1,0,0,1,18.757,25.807Zm.6,8.065H30.646V37.1H19.355Zm12.9,1.613V33.872H48.388v1.613Zm3.226-6.452v3.226H32.259V29.033Zm-9.678-12.1a4.032,4.032,0,1,1,5.376,3.8l-.538.19V32.259H29.033V20.928l-.538-.19A4.039,4.039,0,0,1,25.807,16.936ZM27.42,32.259H24.194V29.033H27.42ZM19.355,1.613h1.613V3.7a1.93,1.93,0,0,1-.371,1.14h-.87a1.931,1.931,0,0,1-.371-1.14Zm.371,4.839h.87a1.931,1.931,0,0,1,.371,1.14V20.968H19.355V7.592A1.93,1.93,0,0,1,19.726,6.452Zm-1.65,16.129h4.171a.334.334,0,0,1,.236.57L21.44,24.194H18.883L17.84,23.151a.334.334,0,0,1,.236-.57Zm-1.947,6.452v3.226H11.29V29.033ZM1.613,15.323V13.71A4.039,4.039,0,0,1,4.839,9.759v4.758H11.29V9.759a4.039,4.039,0,0,1,3.226,3.951v1.613a4.037,4.037,0,0,1-4.032,4.032H9.678v12.9H6.452v-12.9H5.645A4.037,4.037,0,0,1,1.613,15.323Zm.806,13.71H4.839v3.226H1.613V29.839A.807.807,0,0,1,2.419,29.033ZM45.968,48.388H4.032a2.422,2.422,0,0,1-2.419-2.419V37.1H16.268a2.408,2.408,0,0,0-.139.806v1.613a4.037,4.037,0,0,0,4.032,4.032h9.678a4.037,4.037,0,0,0,4.032-4.032V37.9a2.408,2.408,0,0,0-.139-.806H48.388v8.871A2.422,2.422,0,0,1,45.968,48.388Zm1.613-19.355a.807.807,0,0,1,.806.806v2.419H43.549V29.033ZM45.064,9.441a.8.8,0,0,1-.57.236h-.472A3.7,3.7,0,0,0,40.354,12.9H38.71v-1a5.456,5.456,0,0,0-5.45-5.45A5.139,5.139,0,0,0,29.6,7.967a.334.334,0,1,1-.472-.472,9.007,9.007,0,0,1,6.411-2.656h8.952a.8.8,0,0,1,.57.236l.1.1V9.344Z" transform="translate(0 0)"/>
      </g>
    </g>
  </g>
</svg>
