<svg xmlns="http://www.w3.org/2000/svg" width="70" height="70" viewBox="0 0 70 70">
  <g id="img9" transform="translate(-269 -958.087)">
    <circle id="Ellipse_5614" data-name="Ellipse 5614" cx="35" cy="35" r="35" transform="translate(269 958.087)" fill="#fff"/>
    <g id="Group_1186087" data-name="Group 1186087" transform="translate(281.208 970.577)">
      <path id="Path_1000081" data-name="Path 1000081" d="M45.2,27.928a.89.89,0,0,0-.827-.092l-5.077,2a.89.89,0,0,0,.653,1.656l3.86-1.521V42.743H11.386L33.318,34.1a.89.89,0,0,0-.652-1.657L22.6,36.41a12.626,12.626,0,0,0,1.828-3.258l11.363-4.507a.83.83,0,0,0,.087-.04l.96-.376a1.109,1.109,0,0,0,.5-1.667,5.245,5.245,0,0,0-5.361-2.16l-3.549-4.361a5.487,5.487,0,0,0-6.885-1.353l-.5.273-.966-6.254a5.434,5.434,0,0,0-1.755-3.224,4.7,4.7,0,1,0-5.336-1.1,5.424,5.424,0,0,0-2.405,1.625L8.946,11.939a7.029,7.029,0,0,0-1.636,5.3,12.732,12.732,0,0,0-5.477,4.9A12.637,12.637,0,0,0,1.394,34.46a.89.89,0,1,0,1.583-.814A10.788,10.788,0,0,1,1.84,29.806,10.908,10.908,0,0,1,7.69,19.035l.51,2.028a8.815,8.815,0,0,0,5.329,16.4,8.816,8.816,0,0,0,.512-17.47L13.7,17.9a10.852,10.852,0,0,1,9.2,14.232.838.838,0,0,0-.035.1A10.9,10.9,0,0,1,16.792,38.7l-.343.135a10.912,10.912,0,0,1-2.712.637,10.793,10.793,0,0,1-6.115-1.163A.89.89,0,0,0,6.8,39.888a12.546,12.546,0,0,0,3.784,1.257L6.372,42.8A.89.89,0,0,0,6.7,44.524h38a.89.89,0,0,0,.89-.89V28.664a.891.891,0,0,0-.389-.736Zm-20.023-.537a12.62,12.62,0,0,0-.681-2.982l.071-.037,4.174,5.157L25.033,31a12.666,12.666,0,0,0,.141-3.608Zm1.883-6.226,3.91,4.8a.891.891,0,0,0,.966.285,3.475,3.475,0,0,1,3.362.668l-4.84,1.9-4.963-6.133a.891.891,0,0,0-1.1-.23l-.619.321A12.65,12.65,0,0,0,22.134,20.4l.271-.148a3.707,3.707,0,0,1,4.651.914ZM16.429,2.279a2.914,2.914,0,1,1-2.914,2.914A2.917,2.917,0,0,1,16.429,2.279Zm3.189,25.687A7.035,7.035,0,1,1,5.624,29.415a7.066,7.066,0,0,1,3.032-6.536l.359,1.429a2.834,2.834,0,0,0,5.545-1.149l-.211-1.289a7.035,7.035,0,0,1,5.27,6.1Zm-6.294-12.34a.89.89,0,1,0-1.757.288l.8,4.908a.875.875,0,0,0,.036.22l.394,2.4a1.054,1.054,0,0,1-1.04,1.224,1.052,1.052,0,0,1-1.022-.8L9.207,17.767A5.244,5.244,0,0,1,10.3,13.094l1.643-1.926a3.649,3.649,0,0,1,6.382,1.811l.752,4.867A12.529,12.529,0,0,0,13.4,16.094Zm0,0" transform="translate(0 0)" fill="#2142dc"/>
      <path id="Path_1000082" data-name="Path 1000082" d="M398.026,344.229a.89.89,0,1,0,.629-.261A.9.9,0,0,0,398.026,344.229Zm0,0" transform="translate(-362.351 -312.889)" fill="#2142dc"/>
      <path id="Path_1000083" data-name="Path 1000083" d="M39.273,400.082a.891.891,0,1,0,.629.261A.9.9,0,0,0,39.273,400.082Zm0,0" transform="translate(-34.965 -364.007)" fill="#2142dc"/>
    </g>
  </g>
</svg>
