<svg xmlns="http://www.w3.org/2000/svg" xmlns:xlink="http://www.w3.org/1999/xlink" width="1326.49" height="407.894" viewBox="0 0 1326.49 407.894">
  <defs>
    <linearGradient id="linear-gradient" x1="0.513" y1="1" x2="0.5" y2="0.5" gradientUnits="objectBoundingBox">
      <stop offset="0" stop-color="#ffefd6" stop-opacity="0.38"/>
      <stop offset="0.397" stop-color="#eae7fb"/>
      <stop offset="1" stop-color="#eae7fb"/>
    </linearGradient>
  </defs>
  <g id="imgfondo2" transform="translate(0 0)">
    <path id="Union_5" data-name="Union 5" d="M.488,370.237V282.564c-.164-.194-.326-.388-.488-.583V83.066C56.853,18.257,174.081-2.2,283.057.184c87.128,1.9,169.8,20.1,244.03,45.742,65.65,22.677,125.658,51.222,193.529,71.419,167.611,49.88,355.519,4.8,522.663-45.284,27.24-8.162,54.593-16.281,82.026-24.155V258.335q-.966.182-1.931.367h3.114V370.237Z" transform="translate(0.003)" opacity="0.2" fill="url(#linear-gradient)"/>
    <path id="Union_6" data-name="Union 6" d="M1048.259,478.071c-107.422,0-211.76-28.478-313.888-58.025-100.18-28.984-212.8-55.075-313.263-26.207-40.68,11.688-76.646,28.208-115.994,41.332-44.492,14.839-94.041,25.37-146.262,26.473C99.82,462.89,36.746,453.337,0,423.8V137.575H1326.488V285.7H1325.3v98.318c-33.7,45.731-112.3,75.575-192.874,87.836a558.021,558.021,0,0,1-84.153,6.216ZM740.381,324.6c60.956,23.411,132.345,18.507,195.387,9.527,23.8-3.391,47.258-23.74,70.8-48.427H673.335C692.258,300.788,713.638,314.331,740.381,324.6ZM242.37,293.137a46.241,46.241,0,0,0-.165-7.437h-83.92C202.923,307.594,240.383,325.814,242.37,293.137Z" transform="translate(1326.488 545.469) rotate(180)" fill="#f8efea" opacity="0.2"/>
  </g>
</svg>
